<svg width="768" height="594" fill="none" xmlns="http://www.w3.org/2000/svg"><g clip-path="url(#a)"><path d="M730.179 374.339V0H517.281v374.339h212.898Z" fill="#020101"/><path d="M728.408 66.676h1.771V64.75h-1.771c-16.395 0-29.733-13.4-29.733-29.87V0h-1.919v34.88c0 17.533 14.201 31.796 31.652 31.796Z" fill="url(#b)"/><path d="M728.408 62.18h1.771v-1.926h-1.771c-13.928 0-25.258-11.383-25.258-25.375V0h-1.918v34.88c.002 15.054 12.192 27.3 27.176 27.3Z" fill="url(#c)"/><path d="M728.408 57.683h1.771v-1.927h-1.771c-11.458 0-20.781-9.366-20.781-20.877V0h-1.918v34.88c0 12.573 10.183 22.803 22.699 22.803Z" fill="url(#d)"/><path d="M728.408 53.187h1.771V51.26h-1.771c-8.991 0-16.306-7.349-16.306-16.38V0h-1.918v34.88c.002 10.094 8.177 18.307 18.224 18.307Z" fill="url(#e)"/><path d="M728.408 48.691h1.771v-1.927h-1.771c-6.523 0-11.829-5.332-11.829-11.883V0h-1.918v34.88c0 7.615 6.168 13.811 13.747 13.811Z" fill="url(#f)"/><path d="M728.408 44.193h1.771v-1.927h-1.771c-4.056 0-7.353-3.315-7.353-7.387V0h-1.919v34.88c0 5.134 4.16 9.313 9.272 9.313Z" fill="url(#g)"/><path d="M607.948 371.423c0-16.471 13.338-29.87 29.733-29.87h61.021v-1.927h-61.021c-17.453 0-31.652 14.263-31.652 31.797 0 .965.052 1.919.135 2.862h1.922a31.095 31.095 0 0 1-.138-2.862Z" fill="url(#h)"/><path d="M612.425 371.423c0-13.992 11.33-25.374 25.258-25.374h61.019v-1.927h-61.021c-14.984 0-27.176 12.246-27.176 27.301 0 .967.053 1.921.149 2.862h1.933a26.25 26.25 0 0 1-.162-2.862Z" fill="url(#i)"/><path d="M616.9 371.423c0-11.511 9.323-20.876 20.781-20.876h61.021v-1.927h-61.021c-12.516 0-22.699 10.229-22.699 22.803 0 .969.068 1.923.185 2.862h1.933a21.12 21.12 0 0 1-.2-2.862Z" fill="url(#j)"/><path d="M621.377 371.423c0-9.032 7.315-16.381 16.306-16.381h61.019v-1.927h-61.021c-10.049 0-18.224 8.213-18.224 18.308 0 .973.079 1.929.226 2.862h1.948a16.458 16.458 0 0 1-.254-2.862Z" fill="url(#k)"/><path d="M625.852 371.423c0-6.553 5.308-11.883 11.829-11.883h61.021v-1.927h-61.021c-7.581 0-13.747 6.196-13.747 13.81 0 .982.107 1.938.3 2.862h1.978a11.998 11.998 0 0 1-.36-2.862Z" fill="url(#l)"/><path d="M630.33 371.423c0-4.074 3.297-7.387 7.353-7.387h61.019v-1.927h-61.021c-5.112 0-9.272 4.177-9.272 9.314 0 .999.162 1.959.452 2.862h2.039a7.445 7.445 0 0 1-.57-2.862Z" fill="url(#m)"/><path d="M657.242 55.42c18.276 0 33.144-14.937 33.144-33.297V0h-1.918v22.123c0 17.297-14.008 31.37-31.226 31.37-17.217 0-31.226-14.073-31.226-31.37V0h-1.918v22.123c0 18.36 14.869 33.297 33.144 33.297Z" fill="url(#n)"/><path d="M657.242 50.924c15.808 0 28.669-12.92 28.669-28.8V0h-1.918v22.123c0 14.818-11.999 26.874-26.751 26.874-14.749 0-26.748-12.054-26.748-26.874V0h-1.918v22.123c0 15.88 12.859 28.801 28.666 28.801Z" fill="url(#o)"/><path d="M657.242 46.426c13.341 0 24.192-10.901 24.192-24.303V0h-1.918v22.123c0 12.339-9.991 22.376-22.274 22.376-12.282 0-22.273-10.037-22.273-22.376V0h-1.918v22.123c0 13.402 10.853 24.303 24.191 24.303Z" fill="url(#p)"/><path d="M657.242 41.93c10.871 0 19.717-8.884 19.717-19.806V0h-1.918v22.123c0 9.86-7.984 17.88-17.799 17.88-9.812 0-17.798-8.02-17.798-17.88V0h-1.918v22.123c.002 10.921 8.846 19.808 19.716 19.808Z" fill="url(#q)"/><path d="M657.242 37.433c8.404 0 15.24-6.868 15.24-15.31V0h-1.919v22.123c0 7.38-5.976 13.383-13.321 13.383s-13.321-6.004-13.321-13.383V0h-1.918v22.123c0 8.442 6.836 15.31 15.239 15.31Z" fill="url(#r)"/><path d="M657.242 32.937c5.936 0 10.765-4.85 10.765-10.814V0h-1.919v22.123c0 4.9-3.968 8.887-8.846 8.887-4.877 0-8.846-3.987-8.846-8.887V0h-1.918v22.123c.002 5.963 4.831 10.814 10.764 10.814Z" fill="url(#s)"/><path d="M700.618 364.094v-57.929c0-5.135-4.16-9.314-9.271-9.314h-1.487v1.927h1.487c4.055 0 7.353 3.315 7.353 7.387v57.931c0 3.565.596 6.989 1.678 10.191h2.024a29.854 29.854 0 0 1-1.784-10.193Z" fill="url(#t)"/><path d="M705.094 364.094v-57.929c0-7.614-6.168-13.81-13.747-13.81h-1.486v1.927h1.486c6.523 0 11.828 5.33 11.828 11.883v57.931c0 3.601.705 7.038 1.972 10.191h2.08a25.353 25.353 0 0 1-2.133-10.193Z" fill="url(#u)"/><path d="M709.571 364.094v-57.929c0-10.095-8.176-18.308-18.224-18.308h-1.486v1.927h1.486c8.99 0 16.306 7.349 16.306 16.381v57.931c0 3.661.868 7.122 2.401 10.191h2.172a20.806 20.806 0 0 1-2.655-10.193Z" fill="url(#v)"/><path d="M714.046 364.094v-57.929c0-12.574-10.183-22.803-22.699-22.803h-1.486v1.927h1.486c11.458 0 20.781 9.365 20.781 20.876v57.931c0 3.77 1.141 7.276 3.091 10.191h2.38a16.359 16.359 0 0 1-3.553-10.193Z" fill="url(#w)"/><path d="M718.523 364.094v-57.929c0-15.053-12.191-27.301-27.176-27.301h-1.487v1.927h1.487c13.927 0 25.258 11.382 25.258 25.374v57.931c0 4.036 1.743 7.663 4.501 10.191h3.191c-3.451-2.081-5.774-5.865-5.774-10.193Z" fill="url(#x)"/><path d="M722.998 364.094v-57.929c0-17.534-14.198-31.797-31.652-31.797h-1.486v1.927h1.486c16.396 0 29.734 13.399 29.734 29.87v57.931c0 5.077 4.066 9.211 9.099 9.306v-1.927c-3.975-.095-7.181-3.365-7.181-7.381Z" fill="url(#y)"/><path d="M681.411 123.869h3.804c1.923 0 2.962 0 3.549-.058v.058c5.112 0 9.272-4.179 9.272-9.314V88.1c0-5.137-4.16-9.314-9.272-9.314-5.111 0-9.272 4.177-9.272 9.314v58.573c0 5.135 4.161 9.314 9.272 9.314h41.415v-1.927h-41.415c-4.055 0-7.353-3.315-7.353-7.387V88.1c0-4.074 3.298-7.387 7.353-7.387 4.056 0 7.354 3.313 7.354 7.387v26.455c0 4.072-3.298 7.387-7.354 7.387h-7.353" fill="url(#z)"/><path d="M676.936 146.673V88.1c0-6.553 5.307-11.883 11.828-11.883 6.521 0 11.829 5.332 11.829 11.883v26.455c0 6.553-5.308 11.883-11.829 11.883h-7.353v1.927h3.804c1.923 0 2.962 0 3.549-.058v.058c7.582 0 13.747-6.196 13.747-13.81V88.1c0-7.616-6.168-13.81-13.747-13.81s-13.747 6.196-13.747 13.81v58.573c0 7.614 6.168 13.81 13.747 13.81h41.415v-1.927h-41.415c-6.523.002-11.828-5.33-11.828-11.883Z" fill="url(#A)"/><path d="M672.458 146.673V88.1c0-9.032 7.316-16.38 16.306-16.38 8.991 0 16.306 7.348 16.306 16.38v26.455c0 9.032-7.315 16.381-16.306 16.381h-7.353v1.927h3.742c1.961 0 3.017 0 3.611-.058v.058c10.049 0 18.224-8.213 18.224-18.308V88.1c0-10.095-8.175-18.307-18.224-18.307S670.54 78.005 670.54 88.1v58.573c0 10.095 8.175 18.308 18.224 18.308h41.415v-1.927h-41.415c-8.99 0-16.306-7.349-16.306-16.381Z" fill="url(#B)"/><path d="M667.983 146.673V88.1c0-11.51 9.323-20.876 20.781-20.876 11.458 0 20.781 9.365 20.781 20.876v26.455c0 11.511-9.323 20.876-20.781 20.876h-7.206l-.147-.002v1.916l3.742.013c1.961 0 3.017 0 3.611-.06v.06c12.517 0 22.7-10.23 22.7-22.803V88.1c0-12.574-10.183-22.803-22.7-22.803-12.516 0-22.699 10.23-22.699 22.803v58.573c0 12.573 10.183 22.803 22.699 22.803h41.415v-1.927h-41.415c-11.458.002-20.781-9.363-20.781-20.876Z" fill="url(#C)"/><path d="M663.506 146.673V88.1c0-13.992 11.33-25.374 25.258-25.374 13.928 0 25.259 11.385 25.259 25.374v26.455c0 13.989-11.331 25.374-25.259 25.374h-7.353v1.927h3.742c1.961 0 3.017 0 3.611-.06v.06c14.984 0 27.177-12.249 27.177-27.301V88.1c0-15.055-12.191-27.301-27.177-27.301-14.986 0-27.176 12.246-27.176 27.301v58.573c0 15.052 12.19 27.301 27.176 27.301h41.415v-1.927h-41.415c-13.928 0-25.258-11.383-25.258-25.374Z" fill="url(#D)"/><path d="M659.031 146.673V88.1c0-16.47 13.338-29.87 29.733-29.87 16.396 0 29.734 13.4 29.734 29.87v26.455c0 16.47-13.338 29.87-29.734 29.87h-.643c-1.811 0-6.71-.017-6.71-.017v1.927l6.178.017c.526 0 .901 0 1.175-.019v.019c17.454 0 31.652-14.264 31.652-31.797V88.1c0-17.533-14.198-31.797-31.652-31.797-17.453 0-31.651 14.266-31.651 31.797v58.573c0 17.533 14.198 31.797 31.651 31.797h41.415v-1.927h-41.415c-16.395 0-29.733-13.4-29.733-29.87Z" fill="url(#E)"/><path d="M648.92 299.188c0 5.136 4.161 9.315 9.273 9.315 5.113 0 9.273-4.179 9.273-9.315v-79.132c0-16.471 13.34-29.871 29.738-29.871 16.397 0 29.737 13.4 29.737 29.871v21.316a9.316 9.316 0 0 0 3.238 7.059v-2.847a7.362 7.362 0 0 1-1.32-4.212v-21.316c0-17.534-14.2-31.798-31.655-31.798-17.456 0-31.656 14.264-31.656 31.798v79.132c0 4.073-3.298 7.388-7.355 7.388-4.056 0-7.354-3.315-7.354-7.388V218.88a31.91 31.91 0 0 1-1.919 1.296v79.012Z" fill="url(#F)"/><path d="M644.587 299.045c0 7.614 6.158 13.811 13.725 13.811 7.57 0 13.726-6.197 13.726-13.811v-79.132c0-13.992 11.314-25.376 25.22-25.376 13.907 0 25.22 11.384 25.22 25.376v21.316c0 5.439 3.148 10.14 7.701 12.391v-2.188c-3.458-2.075-5.786-5.865-5.786-10.203v-21.316c0-15.055-12.172-27.303-27.135-27.303-14.961 0-27.135 12.248-27.135 27.303v79.132c0 6.554-5.299 11.884-11.811 11.884-6.513 0-11.81-5.333-11.81-11.884v-77.581c-.627.314-1.265.611-1.915.885v76.696Z" fill="url(#G)"/><path d="M639.711 298.9c0 10.095 8.2 18.309 18.278 18.309 10.079 0 18.278-8.214 18.278-18.309v-79.13c0-11.512 9.351-20.878 20.843-20.878 11.492 0 20.843 9.366 20.843 20.878v21.315c0 7.972 5.114 14.765 12.226 17.271v-2.059c-6.03-2.415-10.302-8.323-10.302-15.214v-21.316c0-12.574-10.214-22.804-22.767-22.804-12.553 0-22.767 10.23-22.767 22.804v79.131c0 9.032-7.336 16.381-16.354 16.381-9.017 0-16.354-7.349-16.354-16.381v-75.751a29.33 29.33 0 0 1-1.924.545V298.9Z" fill="url(#H)"/><path d="M635.377 299.301c0 12.574 10.197 22.804 22.73 22.804 12.533 0 22.729-10.23 22.729-22.804v-79.132c0-9.033 7.325-16.382 16.328-16.382s16.328 7.349 16.328 16.382v21.316c0 10.476 7.079 19.318 16.687 21.981v-2.004c-8.535-2.603-14.767-10.573-14.767-19.977v-21.316c0-10.096-8.186-18.309-18.248-18.309-10.062 0-18.249 8.213-18.249 18.309v79.132c0 11.511-9.335 20.877-20.808 20.877-11.474 0-20.809-9.366-20.809-20.877v-74.677c-.635.103-1.275.195-1.921.259v74.418Z" fill="url(#I)"/><path d="M689.916 299.01v-79.132c0-4.074 3.293-7.388 7.342-7.388 4.05 0 7.343 3.314 7.343 7.388v21.316c0 15.46 11.026 28.374 25.578 31.213v-1.96c-13.492-2.808-23.663-14.856-23.663-29.251V219.88c0-5.137-4.154-9.315-9.258-9.315-5.104 0-9.257 4.178-9.257 9.315v79.132c0 16.472-13.318 29.872-29.688 29.872-16.371 0-29.688-13.4-29.688-29.872v-74.255h-1.915v74.255c0 17.535 14.176 31.799 31.603 31.799 17.426 0 31.603-14.266 31.603-31.801Z" fill="url(#J)"/><path d="M631.043 224.9v74.255c0 15.054 12.189 27.303 27.172 27.303 14.981 0 27.172-12.249 27.172-27.303v-79.132c0-6.553 5.304-11.883 11.827-11.883 6.522 0 11.826 5.33 11.826 11.883v21.316c0 12.971 9.051 23.851 21.139 26.617v-1.979c-11.019-2.725-19.221-12.735-19.221-24.638v-21.316c0-7.616-6.167-13.81-13.744-13.81-7.58 0-13.745 6.196-13.745 13.81v79.132c0 13.991-11.328 25.376-25.254 25.376-13.925 0-25.254-11.383-25.254-25.376v-74.272c-.213.004-.426.017-.638.017h-1.28Z" fill="url(#K)"/><path fill="url(#L)" d="M659.264 0h93.735v105.608h-93.735z"/></g><g clip-path="url(#M)"><path d="M730.805 735.531V361.192H517.906v374.339h212.899Z" fill="#020101"/><path d="M729.033 427.869h1.772v-1.927h-1.772c-16.395 0-29.733-13.4-29.733-29.871v-34.879h-1.918v34.879c0 17.534 14.2 31.798 31.651 31.798Z" fill="url(#N)"/><path d="M729.033 423.373h1.772v-1.927h-1.772c-13.927 0-25.258-11.383-25.258-25.375v-34.879h-1.918v34.879c.002 15.055 12.193 27.302 27.176 27.302Z" fill="url(#O)"/><path d="M729.033 418.875h1.772v-1.927h-1.772c-11.458 0-20.781-9.366-20.781-20.877v-34.879h-1.918v34.879c0 12.574 10.183 22.804 22.699 22.804Z" fill="url(#P)"/><path d="M729.033 414.379h1.772v-1.927h-1.772c-8.99 0-16.306-7.349-16.306-16.381v-34.879h-1.918v34.879c.002 10.095 8.178 18.308 18.224 18.308Z" fill="url(#Q)"/><path d="M729.033 409.884h1.772v-1.927h-1.772c-6.523 0-11.828-5.332-11.828-11.883v-34.882h-1.919v34.879c0 7.617 6.168 13.813 13.747 13.813Z" fill="url(#R)"/><path d="M729.033 405.386h1.772v-1.927h-1.772c-4.055 0-7.353-3.315-7.353-7.388v-34.879h-1.918v34.879c0 5.136 4.16 9.315 9.271 9.315Z" fill="url(#S)"/><path d="M657.868 416.612c18.275 0 33.144-14.937 33.144-33.296v-22.124h-1.918v22.124c-.001 17.296-14.009 31.369-31.226 31.369-17.218 0-31.226-14.073-31.226-31.369v-22.124h-1.918v22.124c0 18.359 14.868 33.296 33.144 33.296Z" fill="url(#T)"/><path d="M657.868 412.117c15.807 0 28.669-12.921 28.669-28.801v-22.124h-1.919v22.124c0 14.817-11.999 26.873-26.75 26.873-14.75 0-26.749-12.054-26.749-26.873v-22.124h-1.918v22.124c0 15.88 12.859 28.801 28.667 28.801Z" fill="url(#U)"/><path d="M657.868 407.619c13.34 0 24.191-10.902 24.191-24.303v-22.124h-1.918v22.124c0 12.338-9.991 22.376-22.273 22.376-12.283 0-22.274-10.038-22.274-22.376v-22.124h-1.918v22.124c0 13.401 10.854 24.303 24.192 24.303Z" fill="url(#V)"/><path d="M657.868 403.123c10.87 0 19.716-8.884 19.716-19.807v-22.124h-1.918v22.124c0 9.86-7.984 17.88-17.798 17.88-9.813 0-17.799-8.02-17.799-17.88v-22.124h-1.918v22.124c.002 10.92 8.846 19.807 19.717 19.807Z" fill="url(#W)"/><path d="M657.868 398.625c8.403 0 15.239-6.867 15.239-15.309v-22.124h-1.918v22.124c0 7.379-5.976 13.382-13.321 13.382s-13.321-6.003-13.321-13.382v-22.124h-1.919v22.124c0 8.442 6.837 15.309 15.24 15.309Z" fill="url(#X)"/><path d="M657.868 394.129c5.935 0 10.764-4.85 10.764-10.813v-22.124h-1.918v22.124c0 4.9-3.969 8.886-8.846 8.886-4.878 0-8.846-3.986-8.846-8.886v-22.124h-1.919v22.124c.003 5.963 4.831 10.813 10.765 10.813Z" fill="url(#Y)"/><path d="M682.036 485.061h3.804c1.923 0 2.962 0 3.549-.057v.057c5.112 0 9.272-4.179 9.272-9.314v-26.454c0-5.138-4.16-9.315-9.272-9.315-5.111 0-9.271 4.177-9.271 9.315v58.572c0 5.135 4.16 9.314 9.271 9.314h41.416v-1.927h-41.416c-4.055 0-7.353-3.315-7.353-7.387v-58.572c0-4.075 3.298-7.388 7.353-7.388 4.056 0 7.354 3.313 7.354 7.388v26.454c0 4.072-3.298 7.387-7.354 7.387h-7.353" fill="url(#Z)"/><path d="M677.561 507.865v-58.572c0-6.553 5.307-11.883 11.828-11.883 6.522 0 11.829 5.332 11.829 11.883v26.454c0 6.553-5.307 11.883-11.829 11.883h-7.353v1.927h3.804c1.923 0 2.962 0 3.549-.058v.058c7.582 0 13.747-6.196 13.747-13.81v-26.454c0-7.616-6.167-13.81-13.747-13.81-7.579 0-13.746 6.196-13.746 13.81v58.572c0 7.614 6.167 13.81 13.746 13.81h41.416v-1.927h-41.416c-6.523.002-11.828-5.33-11.828-11.883Z" fill="url(#aa)"/><path d="M673.084 507.865v-58.573c0-9.032 7.315-16.38 16.305-16.38 8.991 0 16.306 7.348 16.306 16.38v26.455c0 9.032-7.315 16.381-16.306 16.381h-7.353v1.927h3.743c1.96 0 3.016 0 3.61-.058v.058c10.049 0 18.225-8.213 18.225-18.308v-26.455c0-10.095-8.176-18.307-18.225-18.307-10.048 0-18.224 8.212-18.224 18.307v58.573c0 10.095 8.176 18.308 18.224 18.308h41.416v-1.927h-41.416c-8.99 0-16.305-7.349-16.305-16.381Z" fill="url(#ab)"/><path d="M668.608 507.865v-58.572c0-11.511 9.323-20.877 20.781-20.877 11.459 0 20.782 9.366 20.782 20.877v26.454c0 11.511-9.323 20.877-20.782 20.877h-7.206l-.147-.003v1.917l3.743.013c1.961 0 3.016 0 3.61-.06v.06c12.517 0 22.7-10.23 22.7-22.804v-26.454c0-12.574-10.183-22.804-22.7-22.804-12.516 0-22.699 10.23-22.699 22.804v58.572c0 12.574 10.183 22.804 22.699 22.804h41.416v-1.928h-41.416c-11.458.003-20.781-9.363-20.781-20.876Z" fill="url(#ac)"/><path d="M664.131 507.865v-58.572c0-13.992 11.331-25.375 25.258-25.375 13.928 0 25.259 11.385 25.259 25.375v26.454c0 13.99-11.331 25.374-25.259 25.374h-7.353v1.927h3.743c1.961 0 3.016 0 3.61-.059v.059c14.984 0 27.177-12.248 27.177-27.301v-26.454c0-15.055-12.191-27.302-27.177-27.302-14.985 0-27.176 12.247-27.176 27.302v58.572c0 15.053 12.191 27.301 27.176 27.301h41.416v-1.927h-41.416c-13.927 0-25.258-11.382-25.258-25.374Z" fill="url(#ad)"/><path d="M659.656 507.865v-58.572c0-16.471 13.338-29.87 29.733-29.87 16.396 0 29.734 13.399 29.734 29.87v26.454c0 16.471-13.338 29.87-29.734 29.87h-.642c-1.812 0-6.711-.017-6.711-.017v1.927l6.178.017c.526 0 .901 0 1.175-.019v.019c17.454 0 31.652-14.263 31.652-31.797v-26.454c0-17.534-14.198-31.797-31.652-31.797-17.453 0-31.651 14.265-31.651 31.797v58.572c0 17.534 14.198 31.797 31.651 31.797h41.416v-1.927h-41.416c-16.395 0-29.733-13.399-29.733-29.87Z" fill="url(#ae)"/><path d="M649.546 660.381c0 5.135 4.16 9.314 9.273 9.314 5.112 0 9.272-4.179 9.272-9.314v-79.132c0-16.472 13.34-29.872 29.738-29.872 16.397 0 29.737 13.4 29.737 29.872v21.316a9.313 9.313 0 0 0 3.239 7.058v-2.847a7.354 7.354 0 0 1-1.32-4.211v-21.316c0-17.535-14.201-31.799-31.656-31.799-17.456 0-31.656 14.264-31.656 31.799v79.132c0 4.072-3.298 7.387-7.354 7.387-4.057 0-7.355-3.315-7.355-7.387v-80.309c-.624.456-1.263.888-1.918 1.296v79.013Z" fill="url(#af)"/><path d="M645.212 660.237c0 7.615 6.158 13.811 13.726 13.811 7.569 0 13.726-6.196 13.726-13.811v-79.132c0-13.992 11.313-25.375 25.219-25.375 13.907 0 25.22 11.383 25.22 25.375v21.316c0 5.44 3.148 10.141 7.702 12.391v-2.188c-3.459-2.075-5.787-5.865-5.787-10.203v-21.316c0-15.055-12.172-27.302-27.135-27.302-14.961 0-27.135 12.247-27.135 27.302v79.132c0 6.554-5.299 11.884-11.81 11.884-6.514 0-11.811-5.332-11.811-11.884v-77.581c-.627.315-1.265.612-1.915.886v76.695Z" fill="url(#ag)"/><path d="M640.336 660.092c0 10.096 8.2 18.309 18.278 18.309 10.079 0 18.279-8.213 18.279-18.309v-79.13c0-11.511 9.35-20.877 20.842-20.877 11.492 0 20.843 9.366 20.843 20.877v21.316c0 7.971 5.114 14.764 12.227 17.271v-2.06c-6.03-2.415-10.303-8.322-10.303-15.214V580.96c0-12.574-10.213-22.804-22.767-22.804-12.553 0-22.766 10.23-22.766 22.804v79.13c0 9.033-7.337 16.382-16.355 16.382-9.017 0-16.354-7.349-16.354-16.382v-75.751a29.97 29.97 0 0 1-1.924.546v75.207Z" fill="url(#ah)"/><path d="M636.002 660.493c0 12.574 10.197 22.805 22.73 22.805 12.533 0 22.729-10.231 22.729-22.805v-79.132c0-9.032 7.325-16.382 16.328-16.382s16.328 7.35 16.328 16.382v21.316c0 10.476 7.08 19.318 16.688 21.981v-2.004c-8.536-2.603-14.767-10.572-14.767-19.977v-21.316c0-10.095-8.187-18.309-18.249-18.309s-18.248 8.214-18.248 18.309v79.132c0 11.511-9.336 20.878-20.809 20.878-11.474 0-20.809-9.367-20.809-20.878v-74.677c-.635.103-1.275.195-1.921.259v74.418Z" fill="url(#ai)"/><path d="M690.541 660.202V581.07c0-4.074 3.293-7.387 7.342-7.387 4.05 0 7.343 3.313 7.343 7.387v21.317c0 15.459 11.026 28.374 25.579 31.212v-1.959c-13.492-2.808-23.664-14.857-23.664-29.251v-21.316c0-5.138-4.154-9.315-9.258-9.315-5.103 0-9.257 4.177-9.257 9.315v79.132c0 16.471-13.318 29.871-29.688 29.871-16.37 0-29.688-13.4-29.688-29.871v-74.256h-1.915v74.256c0 17.534 14.176 31.798 31.603 31.798s31.603-14.266 31.603-31.801Z" fill="url(#aj)"/><path d="M631.669 586.092v74.256c0 15.053 12.188 27.302 27.171 27.302 14.982 0 27.172-12.249 27.172-27.302v-79.132c0-6.554 5.305-11.884 11.827-11.884s11.826 5.33 11.826 11.884v21.316c0 12.97 9.051 23.85 21.14 26.616v-1.979c-11.02-2.724-19.222-12.734-19.222-24.637v-21.316c0-7.617-6.166-13.811-13.744-13.811-7.58 0-13.745 6.196-13.745 13.811v79.132c0 13.99-11.328 25.375-25.254 25.375-13.925 0-25.254-11.383-25.254-25.375v-74.273c-.212.005-.425.017-.638.017h-1.279Z" fill="url(#ak)"/></g><path transform="rotate(-180 748 594)" fill="url(#al)" d="M748 594h93.735v124.7H748z"/><g filter="url(#am)"><path d="M117.236 372.782V499h379.605V372.782H1225V190.535H981.383V0H8.953v190.535H-111v182.247h228.236Z" fill="#fff" fill-opacity=".03"/><path d="M117.736 372.782v-.5H-110.5V191.035H9.453V.5h971.43v190.535H1224.5v181.247H496.341V498.5H117.736V372.782Z" stroke="#3A3A39"/></g><defs><linearGradient id="b" x1="713.468" y1="0" x2="713.468" y2="66.677" gradientUnits="userSpaceOnUse"><stop stop-color="#2E3192"/><stop offset="1" stop-color="#2484C6"/></linearGradient><linearGradient id="c" x1="715.706" y1="0" x2="715.706" y2="62.18" gradientUnits="userSpaceOnUse"><stop stop-color="#2E3192"/><stop offset="1" stop-color="#2484C6"/></linearGradient><linearGradient id="d" x1="717.944" y1="0" x2="717.944" y2="57.683" gradientUnits="userSpaceOnUse"><stop stop-color="#2E3192"/><stop offset="1" stop-color="#2484C6"/></linearGradient><linearGradient id="e" x1="720.182" y1="0" x2="720.182" y2="53.187" gradientUnits="userSpaceOnUse"><stop stop-color="#2E3192"/><stop offset="1" stop-color="#2484C6"/></linearGradient><linearGradient id="f" x1="722.42" y1="0" x2="722.42" y2="48.69" gradientUnits="userSpaceOnUse"><stop stop-color="#2E3192"/><stop offset="1" stop-color="#2484C6"/></linearGradient><linearGradient id="g" x1="724.658" y1="0" x2="724.658" y2="44.194" gradientUnits="userSpaceOnUse"><stop stop-color="#2E3192"/><stop offset="1" stop-color="#2484C6"/></linearGradient><linearGradient id="h" x1="652.366" y1="339.626" x2="652.366" y2="374.285" gradientUnits="userSpaceOnUse"><stop stop-color="#2E3192"/><stop offset="1" stop-color="#2484C6"/></linearGradient><linearGradient id="i" x1="654.604" y1="344.123" x2="654.604" y2="374.285" gradientUnits="userSpaceOnUse"><stop stop-color="#2E3192"/><stop offset="1" stop-color="#2484C6"/></linearGradient><linearGradient id="j" x1="656.842" y1="348.62" x2="656.842" y2="374.285" gradientUnits="userSpaceOnUse"><stop stop-color="#2E3192"/><stop offset="1" stop-color="#2484C6"/></linearGradient><linearGradient id="k" x1="659.08" y1="353.116" x2="659.08" y2="374.285" gradientUnits="userSpaceOnUse"><stop stop-color="#2E3192"/><stop offset="1" stop-color="#2484C6"/></linearGradient><linearGradient id="l" x1="661.319" y1="357.613" x2="661.319" y2="374.285" gradientUnits="userSpaceOnUse"><stop stop-color="#2E3192"/><stop offset="1" stop-color="#2484C6"/></linearGradient><linearGradient id="m" x1="663.557" y1="362.11" x2="663.557" y2="374.285" gradientUnits="userSpaceOnUse"><stop stop-color="#2E3192"/><stop offset="1" stop-color="#2484C6"/></linearGradient><linearGradient id="n" x1="657.243" y1="0" x2="657.243" y2="55.42" gradientUnits="userSpaceOnUse"><stop stop-color="#2E3192"/><stop offset="1" stop-color="#2484C6"/></linearGradient><linearGradient id="o" x1="657.243" y1="0" x2="657.243" y2="50.923" gradientUnits="userSpaceOnUse"><stop stop-color="#2E3192"/><stop offset="1" stop-color="#2484C6"/></linearGradient><linearGradient id="p" x1="657.243" y1="0" x2="657.243" y2="46.427" gradientUnits="userSpaceOnUse"><stop stop-color="#2E3192"/><stop offset="1" stop-color="#2484C6"/></linearGradient><linearGradient id="q" x1="657.243" y1="0" x2="657.243" y2="41.93" gradientUnits="userSpaceOnUse"><stop stop-color="#2E3192"/><stop offset="1" stop-color="#2484C6"/></linearGradient><linearGradient id="r" x1="657.243" y1="0" x2="657.243" y2="37.434" gradientUnits="userSpaceOnUse"><stop stop-color="#2E3192"/><stop offset="1" stop-color="#2484C6"/></linearGradient><linearGradient id="s" x1="657.243" y1="0" x2="657.243" y2="32.937" gradientUnits="userSpaceOnUse"><stop stop-color="#2E3192"/><stop offset="1" stop-color="#2484C6"/></linearGradient><linearGradient id="t" x1="696.131" y1="296.85" x2="696.131" y2="374.285" gradientUnits="userSpaceOnUse"><stop stop-color="#2E3192"/><stop offset="1" stop-color="#2484C6"/></linearGradient><linearGradient id="u" x1="698.544" y1="292.353" x2="698.544" y2="374.285" gradientUnits="userSpaceOnUse"><stop stop-color="#2E3192"/><stop offset="1" stop-color="#2484C6"/></linearGradient><linearGradient id="v" x1="701.042" y1="287.857" x2="701.042" y2="374.285" gradientUnits="userSpaceOnUse"><stop stop-color="#2E3192"/><stop offset="1" stop-color="#2484C6"/></linearGradient><linearGradient id="w" x1="703.73" y1="283.36" x2="703.73" y2="374.285" gradientUnits="userSpaceOnUse"><stop stop-color="#2E3192"/><stop offset="1" stop-color="#2484C6"/></linearGradient><linearGradient id="x" x1="707.079" y1="278.864" x2="707.079" y2="374.285" gradientUnits="userSpaceOnUse"><stop stop-color="#2E3192"/><stop offset="1" stop-color="#2484C6"/></linearGradient><linearGradient id="y" x1="710.02" y1="274.367" x2="710.02" y2="373.4" gradientUnits="userSpaceOnUse"><stop stop-color="#2E3192"/><stop offset="1" stop-color="#2484C6"/></linearGradient><linearGradient id="z" x1="704.836" y1="78.787" x2="704.836" y2="155.988" gradientUnits="userSpaceOnUse"><stop stop-color="#2E3192"/><stop offset="1" stop-color="#2484C6"/></linearGradient><linearGradient id="A" x1="702.598" y1="74.29" x2="702.598" y2="160.485" gradientUnits="userSpaceOnUse"><stop stop-color="#2E3192"/><stop offset="1" stop-color="#2484C6"/></linearGradient><linearGradient id="B" x1="700.36" y1="69.794" x2="700.36" y2="164.981" gradientUnits="userSpaceOnUse"><stop stop-color="#2E3192"/><stop offset="1" stop-color="#2484C6"/></linearGradient><linearGradient id="C" x1="698.122" y1="65.297" x2="698.122" y2="169.478" gradientUnits="userSpaceOnUse"><stop stop-color="#2E3192"/><stop offset="1" stop-color="#2484C6"/></linearGradient><linearGradient id="D" x1="695.884" y1="60.8" x2="695.884" y2="173.974" gradientUnits="userSpaceOnUse"><stop stop-color="#2E3192"/><stop offset="1" stop-color="#2484C6"/></linearGradient><linearGradient id="E" x1="693.646" y1="56.304" x2="693.646" y2="178.471" gradientUnits="userSpaceOnUse"><stop stop-color="#2E3192"/><stop offset="1" stop-color="#2484C6"/></linearGradient><linearGradient id="F" x1="689.55" y1="188.258" x2="689.55" y2="308.504" gradientUnits="userSpaceOnUse"><stop stop-color="#2E3192"/><stop offset="1" stop-color="#2484C6"/></linearGradient><linearGradient id="G" x1="687.382" y1="192.612" x2="687.382" y2="312.858" gradientUnits="userSpaceOnUse"><stop stop-color="#2E3192"/><stop offset="1" stop-color="#2484C6"/></linearGradient><linearGradient id="H" x1="684.945" y1="196.966" x2="684.945" y2="317.209" gradientUnits="userSpaceOnUse"><stop stop-color="#2E3192"/><stop offset="1" stop-color="#2484C6"/></linearGradient><linearGradient id="I" x1="682.778" y1="201.861" x2="682.778" y2="322.107" gradientUnits="userSpaceOnUse"><stop stop-color="#2E3192"/><stop offset="1" stop-color="#2484C6"/></linearGradient><linearGradient id="J" x1="678.444" y1="210.564" x2="678.444" y2="330.81" gradientUnits="userSpaceOnUse"><stop stop-color="#2E3192"/><stop offset="1" stop-color="#2484C6"/></linearGradient><linearGradient id="K" x1="680.612" y1="206.213" x2="680.612" y2="326.458" gradientUnits="userSpaceOnUse"><stop stop-color="#2E3192"/><stop offset="1" stop-color="#2484C6"/></linearGradient><linearGradient id="L" x1="706.132" y1="0" x2="706.132" y2="105.608" gradientUnits="userSpaceOnUse"><stop/><stop offset="1" stop-opacity="0"/></linearGradient><linearGradient id="N" x1="714.094" y1="361.192" x2="714.094" y2="427.869" gradientUnits="userSpaceOnUse"><stop stop-color="#2E3192"/><stop offset="1" stop-color="#2484C6"/></linearGradient><linearGradient id="O" x1="716.332" y1="361.192" x2="716.332" y2="423.372" gradientUnits="userSpaceOnUse"><stop stop-color="#2E3192"/><stop offset="1" stop-color="#2484C6"/></linearGradient><linearGradient id="P" x1="718.57" y1="361.192" x2="718.57" y2="418.876" gradientUnits="userSpaceOnUse"><stop stop-color="#2E3192"/><stop offset="1" stop-color="#2484C6"/></linearGradient><linearGradient id="Q" x1="720.808" y1="361.192" x2="720.808" y2="414.379" gradientUnits="userSpaceOnUse"><stop stop-color="#2E3192"/><stop offset="1" stop-color="#2484C6"/></linearGradient><linearGradient id="R" x1="723.046" y1="361.192" x2="723.046" y2="409.883" gradientUnits="userSpaceOnUse"><stop stop-color="#2E3192"/><stop offset="1" stop-color="#2484C6"/></linearGradient><linearGradient id="S" x1="725.284" y1="361.192" x2="725.284" y2="405.386" gradientUnits="userSpaceOnUse"><stop stop-color="#2E3192"/><stop offset="1" stop-color="#2484C6"/></linearGradient><linearGradient id="T" x1="657.868" y1="361.192" x2="657.868" y2="416.612" gradientUnits="userSpaceOnUse"><stop stop-color="#2E3192"/><stop offset="1" stop-color="#2484C6"/></linearGradient><linearGradient id="U" x1="657.869" y1="361.192" x2="657.869" y2="412.116" gradientUnits="userSpaceOnUse"><stop stop-color="#2E3192"/><stop offset="1" stop-color="#2484C6"/></linearGradient><linearGradient id="V" x1="657.869" y1="361.192" x2="657.869" y2="407.619" gradientUnits="userSpaceOnUse"><stop stop-color="#2E3192"/><stop offset="1" stop-color="#2484C6"/></linearGradient><linearGradient id="W" x1="657.869" y1="361.192" x2="657.869" y2="403.123" gradientUnits="userSpaceOnUse"><stop stop-color="#2E3192"/><stop offset="1" stop-color="#2484C6"/></linearGradient><linearGradient id="X" x1="657.869" y1="361.192" x2="657.869" y2="398.626" gradientUnits="userSpaceOnUse"><stop stop-color="#2E3192"/><stop offset="1" stop-color="#2484C6"/></linearGradient><linearGradient id="Y" x1="657.869" y1="361.192" x2="657.869" y2="394.13" gradientUnits="userSpaceOnUse"><stop stop-color="#2E3192"/><stop offset="1" stop-color="#2484C6"/></linearGradient><linearGradient id="Z" x1="705.461" y1="439.979" x2="705.461" y2="517.18" gradientUnits="userSpaceOnUse"><stop stop-color="#2E3192"/><stop offset="1" stop-color="#2484C6"/></linearGradient><linearGradient id="aa" x1="703.223" y1="435.483" x2="703.223" y2="521.677" gradientUnits="userSpaceOnUse"><stop stop-color="#2E3192"/><stop offset="1" stop-color="#2484C6"/></linearGradient><linearGradient id="ab" x1="700.985" y1="430.986" x2="700.985" y2="526.173" gradientUnits="userSpaceOnUse"><stop stop-color="#2E3192"/><stop offset="1" stop-color="#2484C6"/></linearGradient><linearGradient id="ac" x1="698.747" y1="426.489" x2="698.747" y2="530.67" gradientUnits="userSpaceOnUse"><stop stop-color="#2E3192"/><stop offset="1" stop-color="#2484C6"/></linearGradient><linearGradient id="ad" x1="696.509" y1="421.993" x2="696.509" y2="535.167" gradientUnits="userSpaceOnUse"><stop stop-color="#2E3192"/><stop offset="1" stop-color="#2484C6"/></linearGradient><linearGradient id="ae" x1="694.271" y1="417.496" x2="694.271" y2="539.663" gradientUnits="userSpaceOnUse"><stop stop-color="#2E3192"/><stop offset="1" stop-color="#2484C6"/></linearGradient><linearGradient id="af" x1="690.175" y1="549.451" x2="690.175" y2="669.696" gradientUnits="userSpaceOnUse"><stop stop-color="#2E3192"/><stop offset="1" stop-color="#2484C6"/></linearGradient><linearGradient id="ag" x1="688.008" y1="553.804" x2="688.008" y2="674.05" gradientUnits="userSpaceOnUse"><stop stop-color="#2E3192"/><stop offset="1" stop-color="#2484C6"/></linearGradient><linearGradient id="ah" x1="685.571" y1="558.158" x2="685.571" y2="678.402" gradientUnits="userSpaceOnUse"><stop stop-color="#2E3192"/><stop offset="1" stop-color="#2484C6"/></linearGradient><linearGradient id="ai" x1="683.403" y1="563.054" x2="683.403" y2="683.299" gradientUnits="userSpaceOnUse"><stop stop-color="#2E3192"/><stop offset="1" stop-color="#2484C6"/></linearGradient><linearGradient id="aj" x1="679.07" y1="571.757" x2="679.07" y2="692.002" gradientUnits="userSpaceOnUse"><stop stop-color="#2E3192"/><stop offset="1" stop-color="#2484C6"/></linearGradient><linearGradient id="ak" x1="681.237" y1="567.405" x2="681.237" y2="687.651" gradientUnits="userSpaceOnUse"><stop stop-color="#2E3192"/><stop offset="1" stop-color="#2484C6"/></linearGradient><linearGradient id="al" x1="794.868" y1="594" x2="794.868" y2="718.7" gradientUnits="userSpaceOnUse"><stop/><stop offset="1" stop-opacity="0"/></linearGradient><clipPath id="a"><path fill="#fff" transform="rotate(90 363.064 363.064)" d="M0 0h374.316v61.865H0z"/></clipPath><clipPath id="M"><path fill="#fff" transform="rotate(90 182.781 543.973)" d="M0 0h227.464v61.865H0z"/></clipPath><filter id="am" x="-119" y="-8" width="1352" height="515" filterUnits="userSpaceOnUse" color-interpolation-filters="sRGB"><feFlood flood-opacity="0" result="BackgroundImageFix"/><feGaussianBlur in="BackgroundImageFix" stdDeviation="4"/><feComposite in2="SourceAlpha" operator="in" result="effect1_backgroundBlur_906_3"/><feBlend in="SourceGraphic" in2="effect1_backgroundBlur_906_3" result="shape"/><feColorMatrix in="SourceAlpha" values="0 0 0 0 0 0 0 0 0 0 0 0 0 0 0 0 0 0 127 0" result="hardAlpha"/><feOffset dy="4"/><feGaussianBlur stdDeviation="30"/><feComposite in2="hardAlpha" operator="arithmetic" k2="-1" k3="1"/><feColorMatrix values="0 0 0 0 0.120833 0 0 0 0 0.120833 0 0 0 0 0.120833 0 0 0 1 0"/><feBlend in2="shape" result="effect2_innerShadow_906_3"/></filter></defs></svg>