<svg width="1270" height="958" fill="none" xmlns="http://www.w3.org/2000/svg"><g clip-path="url(#a)"><path d="M124.523 1088.04V489h-340.692v599.04h340.692Z" fill="#020101"/><path d="M121.689 595.699h2.834v-3.084h-2.834c-26.237 0-47.581-21.442-47.581-47.8V489h-3.07v55.815c0 28.059 22.724 50.884 50.651 50.884Z" fill="url(#b)"/><path d="M121.689 588.505h2.834v-3.084h-2.834c-22.288 0-40.42-18.215-40.42-40.606V489h-3.07v55.815c.004 24.092 19.512 43.69 43.49 43.69Z" fill="url(#c)"/><path d="M121.689 581.307h2.834v-3.084h-2.834c-18.336 0-33.255-14.987-33.255-33.408V489h-3.07v55.815c0 20.122 16.295 36.492 36.325 36.492Z" fill="url(#d)"/><path d="M121.689 574.113h2.834v-3.084h-2.834c-14.388 0-26.094-11.76-26.094-26.214V489h-3.07v55.815c.004 16.155 13.086 29.298 29.164 29.298Z" fill="url(#e)"/><path d="M121.689 566.918h2.834v-3.083h-2.834c-10.439 0-18.929-8.533-18.929-19.016V489h-3.07v55.815c0 12.188 9.87 22.103 21.999 22.103Z" fill="url(#f)"/><path d="M121.689 559.721h2.834v-3.084h-2.834c-6.491 0-11.768-5.305-11.768-11.822V489h-3.07v55.815c0 8.218 6.658 14.906 14.838 14.906Z" fill="url(#g)"/><path d="M7.805 577.686c29.245 0 53.04-23.903 53.04-53.283V489h-3.07v35.403c0 27.679-22.418 50.199-49.97 50.199-27.551 0-49.969-22.52-49.969-50.199V489h-3.07v35.403c0 29.38 23.794 53.283 53.04 53.283Z" fill="url(#h)"/><path d="M7.805 570.492c25.297 0 45.878-20.676 45.878-46.089V489h-3.07v35.403c0 23.712-19.201 43.005-42.808 43.005-23.603 0-42.804-19.29-42.804-43.005V489h-3.07v35.403c0 25.413 20.578 46.089 45.874 46.089Z" fill="url(#i)"/><path d="M7.805 563.294c21.348 0 38.713-17.445 38.713-38.891V489h-3.07v35.403c0 19.745-15.988 35.807-35.643 35.807-19.654 0-35.643-16.062-35.643-35.807V489h-3.07v35.403c0 21.446 17.369 38.891 38.713 38.891Z" fill="url(#j)"/><path d="M7.805 556.1c17.396 0 31.552-14.218 31.552-31.697V489h-3.07v35.403c0 15.778-12.776 28.613-28.482 28.613-15.702 0-28.482-12.835-28.482-28.613V489h-3.07v35.403C-23.742 541.879-9.59 556.1 7.806 556.1Z" fill="url(#k)"/><path d="M7.805 548.902c13.448 0 24.387-10.99 24.387-24.499V489h-3.07v35.403c0 11.808-9.563 21.415-21.317 21.415-11.753 0-21.317-9.607-21.317-21.415V489h-3.07v35.403c0 13.509 10.94 24.499 24.387 24.499Z" fill="url(#l)"/><path d="M7.805 541.708c9.499 0 17.226-7.763 17.226-17.305V489h-3.07v35.403c0 7.841-6.35 14.221-14.156 14.221-7.805 0-14.155-6.38-14.155-14.221V489h-3.07v35.403c.003 9.542 7.73 17.305 17.225 17.305Z" fill="url(#m)"/><path d="M91.544 1071.64v-92.698c0-16.155-13.082-29.297-29.163-29.297h-2.378v3.083h2.378c14.387 0 26.094 11.76 26.094 26.214v92.708c0 5.86 1.39 11.39 3.843 16.3h3.475a33.277 33.277 0 0 1-4.249-16.31Z" fill="url(#n)"/><path d="M98.706 1071.64v-92.698c0-20.121-16.296-36.492-36.325-36.492h-2.378v3.084h2.378c18.336 0 33.255 14.988 33.255 33.408v92.708c0 6.03 1.826 11.64 4.947 16.3h3.809a26.146 26.146 0 0 1-5.686-16.31Z" fill="url(#o)"/><path d="M105.87 1071.64v-92.698c0-24.088-19.508-43.689-43.49-43.689h-2.377v3.083h2.378c22.288 0 40.42 18.215 40.42 40.606v92.708c0 6.45 2.79 12.26 7.202 16.3h5.107c-5.523-3.33-9.24-9.38-9.24-16.31Z" fill="url(#p)"/><path d="M113.032 1071.64v-92.698c0-28.058-22.721-50.884-50.651-50.884h-2.378v3.084h2.378c26.237 0 47.581 21.443 47.581 47.8v92.708c0 8.12 6.507 14.74 14.561 14.89v-3.09c-6.361-.15-11.491-5.38-11.491-11.81Z" fill="url(#q)"/><path d="M46.48 687.222h6.089c3.076 0 4.739 0 5.68-.093v.093c8.18 0 14.836-6.688 14.836-14.905v-42.334c0-8.221-6.657-14.906-14.837-14.906s-14.837 6.685-14.837 14.906v93.73c0 8.218 6.657 14.906 14.837 14.906h66.275v-3.084H58.248c-6.49 0-11.767-5.305-11.767-11.822v-93.73c0-6.52 5.277-11.822 11.767-11.822 6.49 0 11.768 5.302 11.768 11.822v42.334c0 6.516-5.278 11.821-11.768 11.821H46.481" fill="url(#r)"/><path d="M39.32 723.714v-93.731c0-10.487 8.493-19.016 18.928-19.016 10.436 0 18.93 8.533 18.93 19.016v42.334c0 10.487-8.494 19.016-18.93 19.016H46.481v3.083h6.088c3.076 0 4.739 0 5.68-.092v.092c12.131 0 21.998-9.915 21.998-22.099v-42.334c0-12.188-9.87-22.1-21.999-22.1-12.128 0-21.998 9.916-21.998 22.1v93.731c0 12.184 9.87 22.099 21.998 22.099h66.275v-3.084H58.248c-10.438.004-18.928-8.529-18.928-19.015Z" fill="url(#s)"/><path d="M32.155 723.714v-93.731c0-14.454 11.706-26.214 26.093-26.214 14.388 0 26.094 11.76 26.094 26.214v42.334c0 14.453-11.706 26.213-26.094 26.213H46.481v3.084h5.99c3.137 0 4.827 0 5.777-.092v.092c16.081 0 29.164-13.143 29.164-29.297v-42.334c0-16.155-13.083-29.297-29.164-29.297-16.08 0-29.163 13.142-29.163 29.297v93.731c0 16.154 13.083 29.297 29.163 29.297h66.275v-3.084H58.248c-14.387 0-26.093-11.76-26.093-26.213Z" fill="url(#t)"/><path d="M24.993 723.713v-93.73c0-18.421 14.92-33.408 33.255-33.408 18.336 0 33.255 14.987 33.255 33.408v42.334c0 18.42-14.919 33.407-33.255 33.407H46.716l-.235-.003v3.067l5.99.02c3.137 0 4.827 0 5.777-.096v.096c20.03 0 36.325-16.37 36.325-36.491v-42.334c0-20.122-16.295-36.492-36.325-36.492-20.029 0-36.324 16.37-36.324 36.492v93.73c0 20.122 16.295 36.492 36.324 36.492h66.275v-3.084H58.248c-18.336.004-33.255-14.984-33.255-33.408Z" fill="url(#u)"/><path d="M17.829 723.713v-93.73c0-22.391 18.131-40.606 40.42-40.606 22.287 0 40.42 18.219 40.42 40.606v42.333c0 22.388-18.133 40.606-40.42 40.606H46.48v3.084h5.99c3.137 0 4.827 0 5.777-.096v.096c23.978 0 43.49-19.601 43.49-43.69v-42.333c0-24.092-19.508-43.69-43.49-43.69-23.981 0-43.489 19.598-43.489 43.69v93.73c0 24.088 19.508 43.689 43.49 43.689h66.274v-3.083H58.248c-22.288 0-40.42-18.215-40.42-40.606Z" fill="url(#v)"/><path d="M10.667 723.713v-93.73c0-26.357 21.345-47.8 47.581-47.8 26.237 0 47.581 21.443 47.581 47.8v42.334c0 26.357-21.344 47.799-47.58 47.799h-1.03c-2.899 0-10.738-.027-10.738-.027v3.084l9.887.027c.841 0 1.44 0 1.88-.031v.031c27.93 0 50.651-22.825 50.651-50.883v-42.334c0-28.058-22.72-50.884-50.65-50.884S7.597 601.928 7.597 629.983v93.73c0 28.059 22.72 50.884 50.65 50.884h66.275v-3.084H58.248c-26.236 0-47.58-21.442-47.58-47.8Z" fill="url(#w)"/><path d="M-5.512 967.777c0 8.218 6.658 14.906 14.84 14.906 8.18 0 14.838-6.688 14.838-14.906V841.146c0-26.359 21.347-47.802 47.587-47.802 26.24 0 47.588 21.443 47.588 47.802v34.111c0 4.514 2.017 8.557 5.182 11.295v-4.556a11.77 11.77 0 0 1-2.112-6.739v-34.111c0-28.06-22.724-50.886-50.658-50.886-27.933 0-50.657 22.826-50.657 50.886v126.631c0 6.517-5.278 11.822-11.769 11.822-6.491 0-11.769-5.305-11.769-11.822V839.263a49.976 49.976 0 0 1-3.07 2.074v126.44Z" fill="url(#x)"/><path d="M-12.447 967.548c0 12.185 9.855 22.101 21.965 22.101 12.113 0 21.965-9.916 21.965-22.101V840.917c0-22.392 18.104-40.608 40.358-40.608 22.254 0 40.358 18.216 40.358 40.608v34.111c0 8.704 5.038 16.227 12.324 19.828v-3.502c-5.534-3.32-9.259-9.385-9.259-16.326v-34.111c0-24.093-19.479-43.692-43.423-43.692-23.942 0-43.423 19.599-43.423 43.692v126.631c0 10.487-8.48 19.017-18.9 19.017-10.423 0-18.9-8.533-18.9-19.017v-124.15a50.913 50.913 0 0 1-3.065 1.417v122.733Z" fill="url(#y)"/><path d="M-20.25 967.316c0 16.155 13.122 29.298 29.25 29.298 16.129 0 29.25-13.143 29.25-29.298V840.687c0-18.421 14.963-33.409 33.354-33.409 18.39 0 33.353 14.988 33.353 33.409v34.11c0 12.757 8.184 23.627 19.566 27.639v-3.296c-9.65-3.865-16.487-13.318-16.487-24.346v-34.11c0-20.122-16.344-36.493-36.432-36.493-20.089 0-36.433 16.371-36.433 36.493v126.629c0 14.454-11.74 26.214-26.17 26.214-14.43 0-26.172-11.76-26.172-26.214V846.091c-1.015.326-2.04.616-3.078.873v120.352Z" fill="url(#z)"/><path d="M-27.185 967.957c0 20.122 16.317 36.493 36.373 36.493 20.056 0 36.373-16.371 36.373-36.493V841.326c0-14.454 11.722-26.215 26.129-26.215 14.406 0 26.128 11.761 26.128 26.215v34.111c0 16.764 11.33 30.914 26.705 35.175v-3.207c-13.659-4.165-23.631-16.918-23.631-31.968v-34.111c0-16.156-13.1-29.299-29.202-29.299-16.102 0-29.202 13.143-29.202 29.299v126.631c0 18.421-14.94 33.413-33.3 33.413s-33.299-14.992-33.299-33.413V848.455c-1.017.165-2.04.312-3.074.415v119.087Z" fill="url(#A)"/><path d="M60.091 967.492V840.861c0-6.52 5.27-11.822 11.75-11.822s11.75 5.302 11.75 11.822v34.111c0 24.74 17.644 45.406 40.932 49.948v-3.135c-21.59-4.494-37.868-23.775-37.868-46.81v-34.111c0-8.221-6.647-14.906-14.814-14.906-8.168 0-14.814 6.685-14.814 14.906v126.631c0 26.359-21.312 47.805-47.509 47.805-26.196 0-47.508-21.446-47.508-47.805V848.668h-3.065v118.827c0 28.06 22.686 50.885 50.573 50.885s50.573-22.828 50.573-50.888Z" fill="url(#B)"/><path d="M-34.12 848.897v118.828c0 24.089 19.505 43.695 43.482 43.695 23.974 0 43.482-19.606 43.482-43.695V841.093c0-10.487 8.488-19.016 18.925-19.016 10.437 0 18.926 8.529 18.926 19.016v34.111c0 20.756 14.484 38.167 33.828 42.593v-3.166c-17.634-4.361-30.759-20.379-30.759-39.427v-34.111c0-12.188-9.868-22.1-21.995-22.1-12.13 0-21.994 9.915-21.994 22.1v126.632c0 22.388-18.129 40.605-40.413 40.605-22.284 0-40.413-18.214-40.413-40.605V848.87c-.34.007-.681.027-1.022.027h-2.047Z" fill="url(#C)"/></g><path transform="rotate(-180 150 957.551)" fill="url(#D)" d="M150 957.551h150v199.551H150z"/><g clip-path="url(#E)"><path d="M1241.48 599.037V0H900.79v599.037h340.69Z" fill="#020101"/><path d="M1238.65 106.699h2.83v-3.084h-2.83c-26.24 0-47.58-21.442-47.58-47.8V0H1188v55.815c0 28.059 22.72 50.884 50.65 50.884Z" fill="url(#F)"/><path d="M1238.65 99.505h2.83V96.42h-2.83c-22.29 0-40.42-18.215-40.42-40.606V0h-3.07v55.815c0 24.092 19.51 43.69 43.49 43.69Z" fill="url(#G)"/><path d="M1238.65 92.307h2.83v-3.084h-2.83c-18.34 0-33.26-14.987-33.26-33.408V0h-3.07v55.815c0 20.122 16.3 36.492 36.33 36.492Z" fill="url(#H)"/><path d="M1238.65 85.113h2.83v-3.084h-2.83c-14.39 0-26.1-11.76-26.1-26.214V0h-3.07v55.815c.01 16.155 13.09 29.298 29.17 29.298Z" fill="url(#I)"/><path d="M1238.65 77.918h2.83v-3.083h-2.83c-10.44 0-18.93-8.533-18.93-19.016V0h-3.07v55.815c0 12.188 9.87 22.103 22 22.103Z" fill="url(#J)"/><path d="M1238.65 70.72h2.83v-3.083h-2.83c-6.49 0-11.77-5.305-11.77-11.822V0h-3.07v55.815c0 8.218 6.66 14.906 14.84 14.906Z" fill="url(#K)"/><path d="M1045.88 594.372c0-26.358 21.35-47.8 47.58-47.8h97.65v-3.084h-97.65c-27.93 0-50.65 22.825-50.65 50.884 0 1.543.08 3.07.22 4.579h3.07a49.492 49.492 0 0 1-.22-4.579Z" fill="url(#L)"/><path d="M1053.05 594.372c0-22.391 18.13-40.606 40.42-40.606h97.64v-3.084h-97.65c-23.98 0-43.49 19.598-43.49 43.69 0 1.547.09 3.073.24 4.579h3.09a43.257 43.257 0 0 1-.25-4.579Z" fill="url(#M)"/><path d="M1060.21 594.371c0-18.42 14.92-33.407 33.25-33.407h97.65v-3.084h-97.65c-20.03 0-36.32 16.37-36.32 36.491 0 1.551.11 3.077.29 4.58h3.1a32.976 32.976 0 0 1-.32-4.58Z" fill="url(#N)"/><path d="M1067.37 594.372c0-14.454 11.71-26.214 26.1-26.214h97.64v-3.084h-97.65c-16.08 0-29.16 13.143-29.16 29.298 0 1.557.12 3.087.36 4.579h3.12a25.612 25.612 0 0 1-.41-4.579Z" fill="url(#O)"/><path d="M1074.53 594.372c0-10.487 8.5-19.016 18.93-19.016h97.65v-3.084h-97.65c-12.13 0-22 9.915-22 22.1 0 1.57.17 3.1.48 4.579h3.17c-.36-1.468-.58-2.998-.58-4.579Z" fill="url(#P)"/><path d="M1081.7 594.371c0-6.52 5.28-11.821 11.77-11.821h97.64v-3.084h-97.65c-8.18 0-14.84 6.684-14.84 14.905 0 1.599.26 3.136.73 4.58h3.26c-.59-1.41-.91-2.957-.91-4.58Z" fill="url(#Q)"/><path d="M1124.76 88.686c29.25 0 53.04-23.904 53.04-53.283V0h-3.07v35.403c0 27.678-22.41 50.2-49.97 50.2-27.55 0-49.96-22.521-49.96-50.2V0h-3.07v35.403c0 29.38 23.79 53.283 53.03 53.283Z" fill="url(#R)"/><path d="M1124.76 81.492c25.3 0 45.88-20.676 45.88-46.089V0h-3.07v35.403c0 23.712-19.2 43.005-42.81 43.005-23.6 0-42.8-19.29-42.8-43.005V0h-3.07v35.403c0 25.413 20.58 46.089 45.87 46.089Z" fill="url(#S)"/><path d="M1124.76 74.294c21.35 0 38.72-17.445 38.72-38.89V0h-3.07v35.403c0 19.745-15.99 35.807-35.65 35.807-19.65 0-35.64-16.062-35.64-35.807V0h-3.07v35.403c0 21.446 17.37 38.89 38.71 38.89Z" fill="url(#T)"/><path d="M1124.76 67.1c17.4 0 31.56-14.218 31.56-31.697V0h-3.07v35.403c0 15.778-12.78 28.613-28.49 28.613-15.7 0-28.48-12.835-28.48-28.613V0h-3.07v35.403c.01 17.476 14.16 31.697 31.55 31.697Z" fill="url(#U)"/><path d="M1124.76 59.902c13.45 0 24.39-10.99 24.39-24.499V0h-3.07v35.403c0 11.808-9.56 21.415-21.32 21.415-11.75 0-21.31-9.607-21.31-21.415V0h-3.07v35.403c0 13.509 10.94 24.499 24.38 24.499Z" fill="url(#V)"/><path d="M1124.76 52.708c9.5 0 17.23-7.763 17.23-17.305V0h-3.07v35.403c0 7.841-6.35 14.22-14.16 14.22-7.8 0-14.15-6.379-14.15-14.22V0h-3.07v35.403c0 9.542 7.73 17.305 17.22 17.305Z" fill="url(#W)"/><path d="M1194.18 582.642v-92.7c0-8.218-6.66-14.906-14.84-14.906h-2.38v3.084h2.38c6.49 0 11.77 5.305 11.77 11.822v92.704c0 5.705.95 11.185 2.68 16.308h3.24a47.932 47.932 0 0 1-2.85-16.312Z" fill="url(#X)"/><path d="M1201.34 582.642v-92.7c0-12.185-9.87-22.1-22-22.1h-2.38v3.084h2.38c10.44 0 18.93 8.529 18.93 19.016v92.704c0 5.763 1.13 11.263 3.15 16.308h3.33a40.694 40.694 0 0 1-3.41-16.312Z" fill="url(#Y)"/><path d="M1208.5 582.642v-92.7c0-16.155-13.08-29.297-29.16-29.297h-2.38v3.083h2.38c14.39 0 26.09 11.76 26.09 26.214v92.704c0 5.859 1.39 11.397 3.85 16.308h3.47a33.327 33.327 0 0 1-4.25-16.312Z" fill="url(#Z)"/><path d="M1215.66 582.642v-92.7c0-20.121-16.29-36.492-36.32-36.492h-2.38v3.084h2.38c18.34 0 33.26 14.988 33.26 33.408v92.704c0 6.034 1.82 11.643 4.94 16.308h3.81c-3.55-4.483-5.69-10.148-5.69-16.312Z" fill="url(#aa)"/><path d="M1222.83 582.642v-92.7c0-24.088-19.51-43.689-43.49-43.689h-2.38v3.083h2.38c22.29 0 40.42 18.215 40.42 40.606v92.704c0 6.458 2.79 12.263 7.2 16.308h5.11c-5.52-3.33-9.24-9.384-9.24-16.312Z" fill="url(#ab)"/><path d="M1229.99 582.642v-92.7c0-28.058-22.72-50.884-50.65-50.884h-2.38v3.084h2.38c26.24 0 47.58 21.443 47.58 47.8v92.704c0 8.125 6.51 14.741 14.56 14.891v-3.083c-6.36-.151-11.49-5.384-11.49-11.812Z" fill="url(#ac)"/><path d="M1163.44 198.222h6.09c3.07 0 4.74 0 5.68-.093v.093c8.18 0 14.83-6.688 14.83-14.905v-42.334c0-8.221-6.65-14.906-14.83-14.906s-14.84 6.685-14.84 14.906v93.73c0 8.218 6.66 14.906 14.84 14.906h66.27v-3.084h-66.27c-6.49 0-11.77-5.305-11.77-11.822v-93.73c0-6.52 5.28-11.822 11.77-11.822 6.49 0 11.77 5.302 11.77 11.822v42.334c0 6.516-5.28 11.821-11.77 11.821h-11.77" fill="url(#ad)"/><path d="M1156.28 234.714v-93.731c0-10.487 8.49-19.016 18.93-19.016 10.43 0 18.93 8.533 18.93 19.016v42.334c0 10.487-8.5 19.016-18.93 19.016h-11.77v3.083h6.09c3.07 0 4.74 0 5.68-.092v.092c12.13 0 22-9.915 22-22.099v-42.334c0-12.188-9.87-22.1-22-22.1s-22 9.916-22 22.1v93.731c0 12.184 9.87 22.099 22 22.099h66.27v-3.084h-66.27c-10.44.004-18.93-8.529-18.93-19.015Z" fill="url(#ae)"/><path d="M1149.11 234.714v-93.731c0-14.454 11.71-26.214 26.1-26.214s26.09 11.76 26.09 26.214v42.334c0 14.453-11.7 26.213-26.09 26.213h-11.77v3.084h5.99c3.14 0 4.83 0 5.78-.092v.092c16.08 0 29.16-13.143 29.16-29.297v-42.334c0-16.155-13.08-29.297-29.16-29.297s-29.17 13.142-29.17 29.297v93.731c0 16.154 13.09 29.297 29.17 29.297h66.27v-3.084h-66.27c-14.39 0-26.1-11.76-26.1-26.213Z" fill="url(#af)"/><path d="M1141.95 234.713v-93.73c0-18.421 14.92-33.408 33.26-33.408 18.33 0 33.25 14.987 33.25 33.408v42.334c0 18.42-14.92 33.407-33.25 33.407h-11.53l-.24-.003v3.067l5.99.02c3.14 0 4.83 0 5.78-.096v.096c20.03 0 36.32-16.37 36.32-36.491v-42.334c0-20.122-16.29-36.492-36.32-36.492s-36.33 16.37-36.33 36.492v93.73c0 20.122 16.3 36.492 36.33 36.492h66.27v-3.084h-66.27c-18.34.004-33.26-14.984-33.26-33.408Z" fill="url(#ag)"/><path d="M1134.79 234.713v-93.73c0-22.391 18.13-40.606 40.42-40.606 22.29 0 40.42 18.219 40.42 40.606v42.333c0 22.388-18.13 40.606-40.42 40.606h-11.77v3.084h5.99c3.14 0 4.83 0 5.78-.096v.096c23.98 0 43.49-19.601 43.49-43.69v-42.333c0-24.092-19.51-43.69-43.49-43.69s-43.49 19.598-43.49 43.69v93.73c0 24.088 19.51 43.689 43.49 43.689h66.27v-3.083h-66.27c-22.29 0-40.42-18.215-40.42-40.606Z" fill="url(#ah)"/><path d="M1127.63 234.713v-93.73c0-26.357 21.34-47.8 47.58-47.8 26.23 0 47.58 21.443 47.58 47.8v42.334c0 26.357-21.35 47.799-47.58 47.799h-1.03c-2.9 0-10.74-.027-10.74-.027v3.084l9.89.027c.84 0 1.44 0 1.88-.031v.031c27.93 0 50.65-22.825 50.65-50.883v-42.334c0-28.058-22.72-50.884-50.65-50.884s-50.65 22.829-50.65 50.884v93.73c0 28.059 22.72 50.884 50.65 50.884h66.27v-3.084h-66.27c-26.24 0-47.58-21.442-47.58-47.8Z" fill="url(#ai)"/><path d="M1111.45 478.777c0 8.218 6.66 14.906 14.84 14.906s14.84-6.688 14.84-14.906V352.146c0-26.359 21.34-47.802 47.58-47.802s47.59 21.443 47.59 47.802v34.111c0 4.514 2.02 8.557 5.18 11.295v-4.556a11.762 11.762 0 0 1-2.11-6.739v-34.111c0-28.06-22.72-50.886-50.66-50.886-27.93 0-50.65 22.826-50.65 50.886v126.631c0 6.517-5.28 11.822-11.77 11.822-6.49 0-11.77-5.305-11.77-11.822V350.263c-1 .729-2.02 1.421-3.07 2.074v126.44Z" fill="url(#aj)"/><path d="M1104.51 478.548c0 12.185 9.86 22.101 21.97 22.101s21.96-9.916 21.96-22.101V351.917c0-22.392 18.11-40.608 40.36-40.608s40.36 18.216 40.36 40.608v34.111c0 8.704 5.04 16.227 12.32 19.828v-3.502c-5.53-3.32-9.26-9.385-9.26-16.326v-34.111c0-24.093-19.48-43.692-43.42-43.692s-43.42 19.599-43.42 43.692v126.631c0 10.487-8.48 19.017-18.9 19.017-10.43 0-18.9-8.533-18.9-19.017v-124.15c-1.01.503-2.03.979-3.07 1.417v122.733Z" fill="url(#ak)"/><path d="M1096.71 478.316c0 16.155 13.12 29.298 29.25 29.298 16.13 0 29.25-13.143 29.25-29.298V351.687c0-18.421 14.96-33.409 33.35-33.409s33.36 14.988 33.36 33.409v34.11c0 12.757 8.18 23.627 19.56 27.639v-3.296c-9.65-3.865-16.48-13.318-16.48-24.346v-34.11c0-20.122-16.35-36.493-36.44-36.493-20.09 0-36.43 16.371-36.43 36.493v126.629c0 14.454-11.74 26.214-26.17 26.214-14.43 0-26.17-11.76-26.17-26.214V357.091c-1.02.326-2.04.616-3.08.873v120.352Z" fill="url(#al)"/><path d="M1089.77 478.957c0 20.122 16.32 36.493 36.38 36.493 20.05 0 36.37-16.371 36.37-36.493V352.326c0-14.454 11.72-26.215 26.13-26.215 14.41 0 26.13 11.761 26.13 26.215v34.111c0 16.764 11.33 30.914 26.7 35.175v-3.207c-13.66-4.165-23.63-16.918-23.63-31.968v-34.111c0-16.156-13.1-29.299-29.2-29.299s-29.2 13.143-29.2 29.299v126.631c0 18.421-14.94 33.409-33.3 33.409s-33.3-14.988-33.3-33.409V359.455c-1.02.165-2.04.312-3.08.415v119.087Z" fill="url(#am)"/><path d="M1177.05 478.492V351.861c0-6.52 5.27-11.822 11.75-11.822s11.75 5.302 11.75 11.822v34.111c0 24.74 17.64 45.406 40.93 49.948v-3.135c-21.59-4.494-37.87-23.775-37.87-46.81v-34.111c0-8.221-6.64-14.906-14.81-14.906-8.17 0-14.81 6.685-14.81 14.906v126.631c0 26.359-21.32 47.803-47.51 47.803-26.2 0-47.51-21.444-47.51-47.803V359.668h-3.07v118.827c0 28.06 22.69 50.886 50.58 50.886 27.88 0 50.57-22.829 50.57-50.889Z" fill="url(#an)"/><path d="M1082.84 359.897v118.828c0 24.089 19.5 43.691 43.48 43.691 23.98 0 43.48-19.602 43.48-43.691V352.093c0-10.487 8.49-19.016 18.93-19.016s18.92 8.529 18.92 19.016v34.111c0 20.756 14.49 38.167 33.83 42.593v-3.166c-17.63-4.361-30.76-20.379-30.76-39.427v-34.111c0-12.188-9.86-22.1-21.99-22.1-12.13 0-22 9.915-22 22.1v126.632c0 22.388-18.12 40.607-40.41 40.607-22.28 0-40.41-18.216-40.41-40.607V359.87c-.34.007-.68.027-1.02.027h-2.05Z" fill="url(#ao)"/><path fill="url(#ap)" d="M1128 0h150v169h-150z"/></g><g clip-path="url(#aq)"><path d="M1242.48 1177.04V578H901.79v599.04h340.69Z" fill="#020101"/><path d="M1239.65 684.699h2.83v-3.084h-2.83c-26.24 0-47.58-21.442-47.58-47.8V578H1189v55.815c0 28.059 22.72 50.884 50.65 50.884Z" fill="url(#ar)"/><path d="M1239.65 677.505h2.83v-3.084h-2.83c-22.29 0-40.42-18.215-40.42-40.606V578h-3.07v55.815c0 24.092 19.51 43.69 43.49 43.69Z" fill="url(#as)"/><path d="M1239.65 670.307h2.83v-3.084h-2.83c-18.34 0-33.26-14.987-33.26-33.408V578h-3.07v55.815c0 20.122 16.3 36.492 36.33 36.492Z" fill="url(#at)"/><path d="M1239.65 663.113h2.83v-3.084h-2.83c-14.39 0-26.1-11.76-26.1-26.214V578h-3.07v55.815c.01 16.155 13.09 29.298 29.17 29.298Z" fill="url(#au)"/><path d="M1239.65 655.918h2.83v-3.083h-2.83c-10.44 0-18.93-8.533-18.93-19.016V578h-3.07v55.815c0 12.188 9.87 22.103 22 22.103Z" fill="url(#av)"/><path d="M1239.65 648.721h2.83v-3.084h-2.83c-6.49 0-11.77-5.305-11.77-11.822V578h-3.07v55.815c0 8.218 6.66 14.906 14.84 14.906Z" fill="url(#aw)"/><path d="M1125.76 666.686c29.25 0 53.04-23.903 53.04-53.283V578h-3.07v35.403c0 27.679-22.41 50.199-49.97 50.199-27.55 0-49.96-22.52-49.96-50.199V578h-3.07v35.403c0 29.38 23.79 53.283 53.03 53.283Z" fill="url(#ax)"/><path d="M1125.76 659.492c25.3 0 45.88-20.676 45.88-46.089V578h-3.07v35.403c0 23.712-19.2 43.005-42.81 43.005-23.6 0-42.8-19.29-42.8-43.005V578h-3.07v35.403c0 25.413 20.58 46.089 45.87 46.089Z" fill="url(#ay)"/><path d="M1125.76 652.294c21.35 0 38.72-17.445 38.72-38.891V578h-3.07v35.403c0 19.745-15.99 35.807-35.65 35.807-19.65 0-35.64-16.062-35.64-35.807V578h-3.07v35.403c0 21.446 17.37 38.891 38.71 38.891Z" fill="url(#az)"/><path d="M1125.76 645.1c17.4 0 31.56-14.218 31.56-31.697V578h-3.07v35.403c0 15.778-12.78 28.613-28.49 28.613-15.7 0-28.48-12.835-28.48-28.613V578h-3.07v35.403c.01 17.476 14.16 31.697 31.55 31.697Z" fill="url(#aA)"/><path d="M1125.76 637.902c13.45 0 24.39-10.99 24.39-24.499V578h-3.07v35.403c0 11.808-9.56 21.415-21.32 21.415-11.75 0-21.31-9.607-21.31-21.415V578h-3.07v35.403c0 13.509 10.94 24.499 24.38 24.499Z" fill="url(#aB)"/><path d="M1125.76 630.708c9.5 0 17.23-7.763 17.23-17.305V578h-3.07v35.403c0 7.841-6.35 14.221-14.16 14.221-7.8 0-14.15-6.38-14.15-14.221V578h-3.07v35.403c0 9.542 7.73 17.305 17.22 17.305Z" fill="url(#aC)"/><path d="M1164.44 776.222h6.09c3.07 0 4.74 0 5.68-.093v.093c8.18 0 14.83-6.688 14.83-14.905v-42.334c0-8.221-6.65-14.906-14.83-14.906s-14.84 6.685-14.84 14.906v93.73c0 8.218 6.66 14.906 14.84 14.906h66.27v-3.084h-66.27c-6.49 0-11.77-5.305-11.77-11.822v-93.73c0-6.52 5.28-11.822 11.77-11.822 6.49 0 11.77 5.302 11.77 11.822v42.334c0 6.516-5.28 11.821-11.77 11.821h-11.77" fill="url(#aD)"/><path d="M1157.28 812.714v-93.731c0-10.487 8.49-19.016 18.93-19.016 10.43 0 18.93 8.533 18.93 19.016v42.334c0 10.487-8.5 19.016-18.93 19.016h-11.77v3.083h6.09c3.07 0 4.74 0 5.68-.092v.092c12.13 0 22-9.915 22-22.099v-42.334c0-12.188-9.87-22.1-22-22.1s-22 9.916-22 22.1v93.731c0 12.184 9.87 22.099 22 22.099h66.27v-3.084h-66.27c-10.44.004-18.93-8.529-18.93-19.015Z" fill="url(#aE)"/><path d="M1150.11 812.714v-93.731c0-14.454 11.71-26.214 26.1-26.214s26.09 11.76 26.09 26.214v42.334c0 14.453-11.7 26.213-26.09 26.213h-11.77v3.084h5.99c3.14 0 4.83 0 5.78-.092v.092c16.08 0 29.16-13.143 29.16-29.297v-42.334c0-16.155-13.08-29.297-29.16-29.297s-29.17 13.142-29.17 29.297v93.731c0 16.154 13.09 29.297 29.17 29.297h66.27v-3.084h-66.27c-14.39 0-26.1-11.76-26.1-26.213Z" fill="url(#aF)"/><path d="M1142.95 812.713v-93.73c0-18.421 14.92-33.408 33.26-33.408 18.33 0 33.25 14.987 33.25 33.408v42.334c0 18.42-14.92 33.407-33.25 33.407h-11.53l-.24-.003v3.067l5.99.02c3.14 0 4.83 0 5.78-.096v.096c20.03 0 36.32-16.37 36.32-36.491v-42.334c0-20.122-16.29-36.492-36.32-36.492s-36.33 16.37-36.33 36.492v93.73c0 20.122 16.3 36.492 36.33 36.492h66.27v-3.084h-66.27c-18.34.004-33.26-14.984-33.26-33.408Z" fill="url(#aG)"/><path d="M1135.79 812.713v-93.73c0-22.391 18.13-40.606 40.42-40.606 22.29 0 40.42 18.219 40.42 40.606v42.333c0 22.388-18.13 40.606-40.42 40.606h-11.77v3.084h5.99c3.14 0 4.83 0 5.78-.096v.096c23.98 0 43.49-19.601 43.49-43.69v-42.333c0-24.092-19.51-43.69-43.49-43.69s-43.49 19.598-43.49 43.69v93.73c0 24.088 19.51 43.689 43.49 43.689h66.27v-3.083h-66.27c-22.29 0-40.42-18.215-40.42-40.606Z" fill="url(#aH)"/><path d="M1128.63 812.713v-93.73c0-26.357 21.34-47.8 47.58-47.8 26.23 0 47.58 21.443 47.58 47.8v42.334c0 26.357-21.35 47.799-47.58 47.799h-1.03c-2.9 0-10.74-.027-10.74-.027v3.084l9.89.027c.84 0 1.44 0 1.88-.031v.031c27.93 0 50.65-22.825 50.65-50.883v-42.334c0-28.058-22.72-50.884-50.65-50.884s-50.65 22.829-50.65 50.884v93.73c0 28.059 22.72 50.884 50.65 50.884h66.27v-3.084h-66.27c-26.24 0-47.58-21.442-47.58-47.8Z" fill="url(#aI)"/><path d="M1112.45 1056.78c0 8.21 6.66 14.9 14.84 14.9s14.84-6.69 14.84-14.9V930.146c0-26.359 21.34-47.802 47.58-47.802s47.59 21.443 47.59 47.802v34.111c0 4.514 2.02 8.557 5.18 11.295v-4.556a11.762 11.762 0 0 1-2.11-6.739v-34.111c0-28.06-22.72-50.886-50.66-50.886-27.93 0-50.65 22.826-50.65 50.886v126.634c0 6.51-5.28 11.82-11.77 11.82-6.49 0-11.77-5.31-11.77-11.82V928.263c-1 .729-2.02 1.421-3.07 2.074v126.443Z" fill="url(#aJ)"/><path d="M1105.51 1056.55c0 12.18 9.86 22.1 21.97 22.1s21.96-9.92 21.96-22.1V929.917c0-22.392 18.11-40.608 40.36-40.608s40.36 18.216 40.36 40.608v34.111c0 8.704 5.04 16.227 12.32 19.828v-3.502c-5.53-3.32-9.26-9.385-9.26-16.326v-34.111c0-24.093-19.48-43.692-43.42-43.692s-43.42 19.599-43.42 43.692v126.633c0 10.49-8.48 19.01-18.9 19.01-10.43 0-18.9-8.53-18.9-19.01V932.398c-1.01.503-2.03.979-3.07 1.417v122.735Z" fill="url(#aK)"/><path d="M1097.71 1056.32c0 16.15 13.12 29.29 29.25 29.29 16.13 0 29.25-13.14 29.25-29.29V929.687c0-18.421 14.96-33.409 33.35-33.409s33.36 14.988 33.36 33.409v34.11c0 12.757 8.18 23.627 19.56 27.639v-3.296c-9.65-3.865-16.48-13.318-16.48-24.346v-34.11c0-20.122-16.35-36.493-36.44-36.493-20.09 0-36.43 16.371-36.43 36.493v126.626c0 14.46-11.74 26.22-26.17 26.22-14.43 0-26.17-11.76-26.17-26.22V935.091c-1.02.326-2.04.616-3.08.873v120.356Z" fill="url(#aL)"/><path d="M1090.77 1056.96c0 20.12 16.32 36.49 36.38 36.49 20.05 0 36.37-16.37 36.37-36.49V930.326c0-14.454 11.72-26.215 26.13-26.215 14.41 0 26.13 11.761 26.13 26.215v34.111c0 16.764 11.33 30.914 26.7 35.175v-3.207c-13.66-4.165-23.63-16.918-23.63-31.968v-34.111c0-16.156-13.1-29.299-29.2-29.299s-29.2 13.143-29.2 29.299v126.634c0 18.42-14.94 33.41-33.3 33.41s-33.3-14.99-33.3-33.41V937.455c-1.02.165-2.04.312-3.08.415v119.09Z" fill="url(#aM)"/><path d="M1178.05 1056.49V929.861c0-6.52 5.27-11.822 11.75-11.822s11.75 5.302 11.75 11.822v34.111c0 24.74 17.64 45.408 40.93 49.948v-3.14c-21.59-4.49-37.87-23.77-37.87-46.805v-34.111c0-8.221-6.64-14.906-14.81-14.906-8.17 0-14.81 6.685-14.81 14.906V1056.5c0 26.35-21.32 47.8-47.51 47.8-26.2 0-47.51-21.45-47.51-47.8V937.668h-3.07V1056.5c0 28.06 22.69 50.88 50.58 50.88 27.88 0 50.57-22.83 50.57-50.89Z" fill="url(#aN)"/><path d="M1083.84 937.897v118.823c0 24.09 19.5 43.7 43.48 43.7 23.98 0 43.48-19.61 43.48-43.7V930.093c0-10.487 8.49-19.016 18.93-19.016s18.92 8.529 18.92 19.016v34.111c0 20.756 14.49 38.166 33.83 42.596v-3.17c-17.63-4.36-30.76-20.378-30.76-39.426v-34.111c0-12.188-9.86-22.1-21.99-22.1-12.13 0-22 9.915-22 22.1v126.627c0 22.39-18.12 40.61-40.41 40.61-22.28 0-40.41-18.21-40.41-40.61V937.87c-.34.007-.68.027-1.02.027h-2.05Z" fill="url(#aO)"/></g><path transform="rotate(-180 1270 950.551)" fill="url(#aP)" d="M1270 950.551h150v199.551h-150z"/><g filter="url(#aQ)"><path d="M226.907 653.659V769h345.792V653.659H1236V487.116h-221.92V313H128.269v174.116H19v166.543h207.907Z" fill="#fff" fill-opacity=".03"/><path d="M227.407 653.659v-.5H19.5V487.616h109.269V313.5h884.811v174.116h221.92v165.543H572.199V768.5H227.407V653.659Z" stroke="#3A3A39"/></g><g filter="url(#aR)"><path fill="#fff" fill-opacity=".03" d="M572 769h440v120H572z"/><path stroke="#3A3A39" d="M572.5 769.5h439v119h-439z"/></g><defs><linearGradient id="b" x1="97.781" y1="489" x2="97.781" y2="595.7" gradientUnits="userSpaceOnUse"><stop stop-color="#2E3192"/><stop offset="1" stop-color="#2484C6"/></linearGradient><linearGradient id="c" x1="101.363" y1="489" x2="101.363" y2="588.504" gradientUnits="userSpaceOnUse"><stop stop-color="#2E3192"/><stop offset="1" stop-color="#2484C6"/></linearGradient><linearGradient id="d" x1="104.944" y1="489" x2="104.944" y2="581.308" gradientUnits="userSpaceOnUse"><stop stop-color="#2E3192"/><stop offset="1" stop-color="#2484C6"/></linearGradient><linearGradient id="e" x1="108.525" y1="489" x2="108.525" y2="574.112" gradientUnits="userSpaceOnUse"><stop stop-color="#2E3192"/><stop offset="1" stop-color="#2484C6"/></linearGradient><linearGradient id="f" x1="112.107" y1="489" x2="112.107" y2="566.917" gradientUnits="userSpaceOnUse"><stop stop-color="#2E3192"/><stop offset="1" stop-color="#2484C6"/></linearGradient><linearGradient id="g" x1="115.688" y1="489" x2="115.688" y2="559.721" gradientUnits="userSpaceOnUse"><stop stop-color="#2E3192"/><stop offset="1" stop-color="#2484C6"/></linearGradient><linearGradient id="h" x1="7.807" y1="489" x2="7.807" y2="577.686" gradientUnits="userSpaceOnUse"><stop stop-color="#2E3192"/><stop offset="1" stop-color="#2484C6"/></linearGradient><linearGradient id="i" x1="7.807" y1="489" x2="7.807" y2="570.49" gradientUnits="userSpaceOnUse"><stop stop-color="#2E3192"/><stop offset="1" stop-color="#2484C6"/></linearGradient><linearGradient id="j" x1="7.807" y1="489" x2="7.807" y2="563.295" gradientUnits="userSpaceOnUse"><stop stop-color="#2E3192"/><stop offset="1" stop-color="#2484C6"/></linearGradient><linearGradient id="k" x1="7.807" y1="489" x2="7.807" y2="556.099" gradientUnits="userSpaceOnUse"><stop stop-color="#2E3192"/><stop offset="1" stop-color="#2484C6"/></linearGradient><linearGradient id="l" x1="7.807" y1="489" x2="7.807" y2="548.903" gradientUnits="userSpaceOnUse"><stop stop-color="#2E3192"/><stop offset="1" stop-color="#2484C6"/></linearGradient><linearGradient id="m" x1="7.807" y1="489" x2="7.807" y2="541.708" gradientUnits="userSpaceOnUse"><stop stop-color="#2E3192"/><stop offset="1" stop-color="#2484C6"/></linearGradient><linearGradient id="n" x1="77.896" y1="949.644" x2="77.896" y2="1087.95" gradientUnits="userSpaceOnUse"><stop stop-color="#2E3192"/><stop offset="1" stop-color="#2484C6"/></linearGradient><linearGradient id="o" x1="82.198" y1="942.448" x2="82.198" y2="1087.95" gradientUnits="userSpaceOnUse"><stop stop-color="#2E3192"/><stop offset="1" stop-color="#2484C6"/></linearGradient><linearGradient id="p" x1="87.556" y1="935.253" x2="87.556" y2="1087.95" gradientUnits="userSpaceOnUse"><stop stop-color="#2E3192"/><stop offset="1" stop-color="#2484C6"/></linearGradient><linearGradient id="q" x1="92.263" y1="928.057" x2="92.263" y2="1086.53" gradientUnits="userSpaceOnUse"><stop stop-color="#2E3192"/><stop offset="1" stop-color="#2484C6"/></linearGradient><linearGradient id="r" x1="83.967" y1="615.079" x2="83.967" y2="738.62" gradientUnits="userSpaceOnUse"><stop stop-color="#2E3192"/><stop offset="1" stop-color="#2484C6"/></linearGradient><linearGradient id="s" x1="80.386" y1="607.884" x2="80.386" y2="745.816" gradientUnits="userSpaceOnUse"><stop stop-color="#2E3192"/><stop offset="1" stop-color="#2484C6"/></linearGradient><linearGradient id="t" x1="76.805" y1="600.688" x2="76.805" y2="753.012" gradientUnits="userSpaceOnUse"><stop stop-color="#2E3192"/><stop offset="1" stop-color="#2484C6"/></linearGradient><linearGradient id="u" x1="73.223" y1="593.492" x2="73.223" y2="760.207" gradientUnits="userSpaceOnUse"><stop stop-color="#2E3192"/><stop offset="1" stop-color="#2484C6"/></linearGradient><linearGradient id="v" x1="69.642" y1="586.296" x2="69.642" y2="767.403" gradientUnits="userSpaceOnUse"><stop stop-color="#2E3192"/><stop offset="1" stop-color="#2484C6"/></linearGradient><linearGradient id="w" x1="66.06" y1="579.101" x2="66.06" y2="774.599" gradientUnits="userSpaceOnUse"><stop stop-color="#2E3192"/><stop offset="1" stop-color="#2484C6"/></linearGradient><linearGradient id="x" x1="59.505" y1="790.261" x2="59.505" y2="982.685" gradientUnits="userSpaceOnUse"><stop stop-color="#2E3192"/><stop offset="1" stop-color="#2484C6"/></linearGradient><linearGradient id="y" x1="56.037" y1="797.228" x2="56.037" y2="989.651" gradientUnits="userSpaceOnUse"><stop stop-color="#2E3192"/><stop offset="1" stop-color="#2484C6"/></linearGradient><linearGradient id="z" x1="52.137" y1="804.195" x2="52.137" y2="996.615" gradientUnits="userSpaceOnUse"><stop stop-color="#2E3192"/><stop offset="1" stop-color="#2484C6"/></linearGradient><linearGradient id="A" x1="48.669" y1="812.029" x2="48.669" y2="1004.45" gradientUnits="userSpaceOnUse"><stop stop-color="#2E3192"/><stop offset="1" stop-color="#2484C6"/></linearGradient><linearGradient id="B" x1="41.734" y1="825.956" x2="41.734" y2="1018.38" gradientUnits="userSpaceOnUse"><stop stop-color="#2E3192"/><stop offset="1" stop-color="#2484C6"/></linearGradient><linearGradient id="C" x1="45.202" y1="818.993" x2="45.202" y2="1011.42" gradientUnits="userSpaceOnUse"><stop stop-color="#2E3192"/><stop offset="1" stop-color="#2484C6"/></linearGradient><linearGradient id="D" x1="225" y1="957.551" x2="225" y2="1157.1" gradientUnits="userSpaceOnUse"><stop/><stop offset="1" stop-opacity="0"/></linearGradient><linearGradient id="F" x1="1214.74" y1="0" x2="1214.74" y2="106.7" gradientUnits="userSpaceOnUse"><stop stop-color="#2E3192"/><stop offset="1" stop-color="#2484C6"/></linearGradient><linearGradient id="G" x1="1218.32" y1="0" x2="1218.32" y2="99.504" gradientUnits="userSpaceOnUse"><stop stop-color="#2E3192"/><stop offset="1" stop-color="#2484C6"/></linearGradient><linearGradient id="H" x1="1221.9" y1="0" x2="1221.9" y2="92.308" gradientUnits="userSpaceOnUse"><stop stop-color="#2E3192"/><stop offset="1" stop-color="#2484C6"/></linearGradient><linearGradient id="I" x1="1225.48" y1="0" x2="1225.48" y2="85.112" gradientUnits="userSpaceOnUse"><stop stop-color="#2E3192"/><stop offset="1" stop-color="#2484C6"/></linearGradient><linearGradient id="J" x1="1229.07" y1="0" x2="1229.07" y2="77.917" gradientUnits="userSpaceOnUse"><stop stop-color="#2E3192"/><stop offset="1" stop-color="#2484C6"/></linearGradient><linearGradient id="K" x1="1232.65" y1="0" x2="1232.65" y2="70.721" gradientUnits="userSpaceOnUse"><stop stop-color="#2E3192"/><stop offset="1" stop-color="#2484C6"/></linearGradient><linearGradient id="L" x1="1116.96" y1="543.489" x2="1116.96" y2="598.951" gradientUnits="userSpaceOnUse"><stop stop-color="#2E3192"/><stop offset="1" stop-color="#2484C6"/></linearGradient><linearGradient id="M" x1="1120.54" y1="550.685" x2="1120.54" y2="598.951" gradientUnits="userSpaceOnUse"><stop stop-color="#2E3192"/><stop offset="1" stop-color="#2484C6"/></linearGradient><linearGradient id="N" x1="1124.12" y1="557.88" x2="1124.12" y2="598.951" gradientUnits="userSpaceOnUse"><stop stop-color="#2E3192"/><stop offset="1" stop-color="#2484C6"/></linearGradient><linearGradient id="O" x1="1127.71" y1="565.076" x2="1127.71" y2="598.951" gradientUnits="userSpaceOnUse"><stop stop-color="#2E3192"/><stop offset="1" stop-color="#2484C6"/></linearGradient><linearGradient id="P" x1="1131.29" y1="572.272" x2="1131.29" y2="598.951" gradientUnits="userSpaceOnUse"><stop stop-color="#2E3192"/><stop offset="1" stop-color="#2484C6"/></linearGradient><linearGradient id="Q" x1="1134.87" y1="579.467" x2="1134.87" y2="598.951" gradientUnits="userSpaceOnUse"><stop stop-color="#2E3192"/><stop offset="1" stop-color="#2484C6"/></linearGradient><linearGradient id="R" x1="1124.77" y1="0" x2="1124.77" y2="88.686" gradientUnits="userSpaceOnUse"><stop stop-color="#2E3192"/><stop offset="1" stop-color="#2484C6"/></linearGradient><linearGradient id="S" x1="1124.77" y1="0" x2="1124.77" y2="81.49" gradientUnits="userSpaceOnUse"><stop stop-color="#2E3192"/><stop offset="1" stop-color="#2484C6"/></linearGradient><linearGradient id="T" x1="1124.77" y1="0" x2="1124.77" y2="74.295" gradientUnits="userSpaceOnUse"><stop stop-color="#2E3192"/><stop offset="1" stop-color="#2484C6"/></linearGradient><linearGradient id="U" x1="1124.77" y1="0" x2="1124.77" y2="67.099" gradientUnits="userSpaceOnUse"><stop stop-color="#2E3192"/><stop offset="1" stop-color="#2484C6"/></linearGradient><linearGradient id="V" x1="1124.77" y1="0" x2="1124.77" y2="59.903" gradientUnits="userSpaceOnUse"><stop stop-color="#2E3192"/><stop offset="1" stop-color="#2484C6"/></linearGradient><linearGradient id="W" x1="1124.77" y1="0" x2="1124.77" y2="52.708" gradientUnits="userSpaceOnUse"><stop stop-color="#2E3192"/><stop offset="1" stop-color="#2484C6"/></linearGradient><linearGradient id="X" x1="1187" y1="475.035" x2="1187" y2="598.951" gradientUnits="userSpaceOnUse"><stop stop-color="#2E3192"/><stop offset="1" stop-color="#2484C6"/></linearGradient><linearGradient id="Y" x1="1190.86" y1="467.84" x2="1190.86" y2="598.951" gradientUnits="userSpaceOnUse"><stop stop-color="#2E3192"/><stop offset="1" stop-color="#2484C6"/></linearGradient><linearGradient id="Z" x1="1194.86" y1="460.644" x2="1194.86" y2="598.951" gradientUnits="userSpaceOnUse"><stop stop-color="#2E3192"/><stop offset="1" stop-color="#2484C6"/></linearGradient><linearGradient id="aa" x1="1199.16" y1="453.448" x2="1199.16" y2="598.951" gradientUnits="userSpaceOnUse"><stop stop-color="#2E3192"/><stop offset="1" stop-color="#2484C6"/></linearGradient><linearGradient id="ab" x1="1204.52" y1="446.253" x2="1204.52" y2="598.951" gradientUnits="userSpaceOnUse"><stop stop-color="#2E3192"/><stop offset="1" stop-color="#2484C6"/></linearGradient><linearGradient id="ac" x1="1209.22" y1="439.057" x2="1209.22" y2="597.535" gradientUnits="userSpaceOnUse"><stop stop-color="#2E3192"/><stop offset="1" stop-color="#2484C6"/></linearGradient><linearGradient id="ad" x1="1200.93" y1="126.079" x2="1200.93" y2="249.62" gradientUnits="userSpaceOnUse"><stop stop-color="#2E3192"/><stop offset="1" stop-color="#2484C6"/></linearGradient><linearGradient id="ae" x1="1197.35" y1="118.884" x2="1197.35" y2="256.816" gradientUnits="userSpaceOnUse"><stop stop-color="#2E3192"/><stop offset="1" stop-color="#2484C6"/></linearGradient><linearGradient id="af" x1="1193.76" y1="111.688" x2="1193.76" y2="264.012" gradientUnits="userSpaceOnUse"><stop stop-color="#2E3192"/><stop offset="1" stop-color="#2484C6"/></linearGradient><linearGradient id="ag" x1="1190.18" y1="104.492" x2="1190.18" y2="271.207" gradientUnits="userSpaceOnUse"><stop stop-color="#2E3192"/><stop offset="1" stop-color="#2484C6"/></linearGradient><linearGradient id="ah" x1="1186.6" y1="97.296" x2="1186.6" y2="278.403" gradientUnits="userSpaceOnUse"><stop stop-color="#2E3192"/><stop offset="1" stop-color="#2484C6"/></linearGradient><linearGradient id="ai" x1="1183.02" y1="90.101" x2="1183.02" y2="285.599" gradientUnits="userSpaceOnUse"><stop stop-color="#2E3192"/><stop offset="1" stop-color="#2484C6"/></linearGradient><linearGradient id="aj" x1="1176.46" y1="301.261" x2="1176.46" y2="493.685" gradientUnits="userSpaceOnUse"><stop stop-color="#2E3192"/><stop offset="1" stop-color="#2484C6"/></linearGradient><linearGradient id="ak" x1="1173" y1="308.228" x2="1173" y2="500.651" gradientUnits="userSpaceOnUse"><stop stop-color="#2E3192"/><stop offset="1" stop-color="#2484C6"/></linearGradient><linearGradient id="al" x1="1169.1" y1="315.195" x2="1169.1" y2="507.615" gradientUnits="userSpaceOnUse"><stop stop-color="#2E3192"/><stop offset="1" stop-color="#2484C6"/></linearGradient><linearGradient id="am" x1="1165.63" y1="323.029" x2="1165.63" y2="515.453" gradientUnits="userSpaceOnUse"><stop stop-color="#2E3192"/><stop offset="1" stop-color="#2484C6"/></linearGradient><linearGradient id="an" x1="1158.69" y1="336.956" x2="1158.69" y2="529.38" gradientUnits="userSpaceOnUse"><stop stop-color="#2E3192"/><stop offset="1" stop-color="#2484C6"/></linearGradient><linearGradient id="ao" x1="1162.16" y1="329.993" x2="1162.16" y2="522.416" gradientUnits="userSpaceOnUse"><stop stop-color="#2E3192"/><stop offset="1" stop-color="#2484C6"/></linearGradient><linearGradient id="ap" x1="1203" y1="0" x2="1203" y2="169" gradientUnits="userSpaceOnUse"><stop/><stop offset="1" stop-opacity="0"/></linearGradient><linearGradient id="ar" x1="1215.74" y1="578" x2="1215.74" y2="684.7" gradientUnits="userSpaceOnUse"><stop stop-color="#2E3192"/><stop offset="1" stop-color="#2484C6"/></linearGradient><linearGradient id="as" x1="1219.32" y1="578" x2="1219.32" y2="677.504" gradientUnits="userSpaceOnUse"><stop stop-color="#2E3192"/><stop offset="1" stop-color="#2484C6"/></linearGradient><linearGradient id="at" x1="1222.9" y1="578" x2="1222.9" y2="670.308" gradientUnits="userSpaceOnUse"><stop stop-color="#2E3192"/><stop offset="1" stop-color="#2484C6"/></linearGradient><linearGradient id="au" x1="1226.48" y1="578" x2="1226.48" y2="663.112" gradientUnits="userSpaceOnUse"><stop stop-color="#2E3192"/><stop offset="1" stop-color="#2484C6"/></linearGradient><linearGradient id="av" x1="1230.07" y1="578" x2="1230.07" y2="655.917" gradientUnits="userSpaceOnUse"><stop stop-color="#2E3192"/><stop offset="1" stop-color="#2484C6"/></linearGradient><linearGradient id="aw" x1="1233.65" y1="578" x2="1233.65" y2="648.721" gradientUnits="userSpaceOnUse"><stop stop-color="#2E3192"/><stop offset="1" stop-color="#2484C6"/></linearGradient><linearGradient id="ax" x1="1125.77" y1="578" x2="1125.77" y2="666.686" gradientUnits="userSpaceOnUse"><stop stop-color="#2E3192"/><stop offset="1" stop-color="#2484C6"/></linearGradient><linearGradient id="ay" x1="1125.77" y1="578" x2="1125.77" y2="659.49" gradientUnits="userSpaceOnUse"><stop stop-color="#2E3192"/><stop offset="1" stop-color="#2484C6"/></linearGradient><linearGradient id="az" x1="1125.77" y1="578" x2="1125.77" y2="652.295" gradientUnits="userSpaceOnUse"><stop stop-color="#2E3192"/><stop offset="1" stop-color="#2484C6"/></linearGradient><linearGradient id="aA" x1="1125.77" y1="578" x2="1125.77" y2="645.099" gradientUnits="userSpaceOnUse"><stop stop-color="#2E3192"/><stop offset="1" stop-color="#2484C6"/></linearGradient><linearGradient id="aB" x1="1125.77" y1="578" x2="1125.77" y2="637.903" gradientUnits="userSpaceOnUse"><stop stop-color="#2E3192"/><stop offset="1" stop-color="#2484C6"/></linearGradient><linearGradient id="aC" x1="1125.77" y1="578" x2="1125.77" y2="630.708" gradientUnits="userSpaceOnUse"><stop stop-color="#2E3192"/><stop offset="1" stop-color="#2484C6"/></linearGradient><linearGradient id="aD" x1="1201.93" y1="704.079" x2="1201.93" y2="827.62" gradientUnits="userSpaceOnUse"><stop stop-color="#2E3192"/><stop offset="1" stop-color="#2484C6"/></linearGradient><linearGradient id="aE" x1="1198.35" y1="696.884" x2="1198.35" y2="834.816" gradientUnits="userSpaceOnUse"><stop stop-color="#2E3192"/><stop offset="1" stop-color="#2484C6"/></linearGradient><linearGradient id="aF" x1="1194.76" y1="689.688" x2="1194.76" y2="842.012" gradientUnits="userSpaceOnUse"><stop stop-color="#2E3192"/><stop offset="1" stop-color="#2484C6"/></linearGradient><linearGradient id="aG" x1="1191.18" y1="682.492" x2="1191.18" y2="849.207" gradientUnits="userSpaceOnUse"><stop stop-color="#2E3192"/><stop offset="1" stop-color="#2484C6"/></linearGradient><linearGradient id="aH" x1="1187.6" y1="675.296" x2="1187.6" y2="856.403" gradientUnits="userSpaceOnUse"><stop stop-color="#2E3192"/><stop offset="1" stop-color="#2484C6"/></linearGradient><linearGradient id="aI" x1="1184.02" y1="668.101" x2="1184.02" y2="863.599" gradientUnits="userSpaceOnUse"><stop stop-color="#2E3192"/><stop offset="1" stop-color="#2484C6"/></linearGradient><linearGradient id="aJ" x1="1177.46" y1="879.261" x2="1177.46" y2="1071.68" gradientUnits="userSpaceOnUse"><stop stop-color="#2E3192"/><stop offset="1" stop-color="#2484C6"/></linearGradient><linearGradient id="aK" x1="1174" y1="886.228" x2="1174" y2="1078.65" gradientUnits="userSpaceOnUse"><stop stop-color="#2E3192"/><stop offset="1" stop-color="#2484C6"/></linearGradient><linearGradient id="aL" x1="1170.1" y1="893.195" x2="1170.1" y2="1085.62" gradientUnits="userSpaceOnUse"><stop stop-color="#2E3192"/><stop offset="1" stop-color="#2484C6"/></linearGradient><linearGradient id="aM" x1="1166.63" y1="901.029" x2="1166.63" y2="1093.45" gradientUnits="userSpaceOnUse"><stop stop-color="#2E3192"/><stop offset="1" stop-color="#2484C6"/></linearGradient><linearGradient id="aN" x1="1159.69" y1="914.956" x2="1159.69" y2="1107.38" gradientUnits="userSpaceOnUse"><stop stop-color="#2E3192"/><stop offset="1" stop-color="#2484C6"/></linearGradient><linearGradient id="aO" x1="1163.16" y1="907.993" x2="1163.16" y2="1100.42" gradientUnits="userSpaceOnUse"><stop stop-color="#2E3192"/><stop offset="1" stop-color="#2484C6"/></linearGradient><linearGradient id="aP" x1="1345" y1="950.551" x2="1345" y2="1150.1" gradientUnits="userSpaceOnUse"><stop/><stop offset="1" stop-opacity="0"/></linearGradient><clipPath id="a"><path fill="#fff" transform="rotate(90 -185.5 303.5)" d="M0 0h461v99H0z"/></clipPath><clipPath id="E"><path fill="#fff" transform="rotate(90 617.5 617.5)" d="M0 0h599v99H0z"/></clipPath><clipPath id="aq"><path fill="#fff" transform="rotate(90 329 907)" d="M0 0h364v99H0z"/></clipPath><filter id="aQ" x="11" y="305" width="1233" height="472" filterUnits="userSpaceOnUse" color-interpolation-filters="sRGB"><feFlood flood-opacity="0" result="BackgroundImageFix"/><feGaussianBlur in="BackgroundImageFix" stdDeviation="4"/><feComposite in2="SourceAlpha" operator="in" result="effect1_backgroundBlur_906_2"/><feBlend in="SourceGraphic" in2="effect1_backgroundBlur_906_2" result="shape"/><feColorMatrix in="SourceAlpha" values="0 0 0 0 0 0 0 0 0 0 0 0 0 0 0 0 0 0 127 0" result="hardAlpha"/><feOffset dy="4"/><feGaussianBlur stdDeviation="30"/><feComposite in2="hardAlpha" operator="arithmetic" k2="-1" k3="1"/><feColorMatrix values="0 0 0 0 0.120833 0 0 0 0 0.120833 0 0 0 0 0.120833 0 0 0 1 0"/><feBlend in2="shape" result="effect2_innerShadow_906_2"/></filter><filter id="aR" x="564" y="761" width="456" height="136" filterUnits="userSpaceOnUse" color-interpolation-filters="sRGB"><feFlood flood-opacity="0" result="BackgroundImageFix"/><feGaussianBlur in="BackgroundImageFix" stdDeviation="4"/><feComposite in2="SourceAlpha" operator="in" result="effect1_backgroundBlur_906_2"/><feBlend in="SourceGraphic" in2="effect1_backgroundBlur_906_2" result="shape"/><feColorMatrix in="SourceAlpha" values="0 0 0 0 0 0 0 0 0 0 0 0 0 0 0 0 0 0 127 0" result="hardAlpha"/><feOffset dy="4"/><feGaussianBlur stdDeviation="30"/><feComposite in2="hardAlpha" operator="arithmetic" k2="-1" k3="1"/><feColorMatrix values="0 0 0 0 0.120833 0 0 0 0 0.120833 0 0 0 0 0.120833 0 0 0 1 0"/><feBlend in2="shape" result="effect2_innerShadow_906_2"/></filter></defs></svg>