<svg width="143" height="117" fill="none" xmlns="http://www.w3.org/2000/svg"><path d="M136.5 0h-52A6.502 6.502 0 0 0 78 6.5v52c0 3.588 2.912 6.5 6.5 6.5h45.07c-2.792 23.254-20.51 39-45.07 39a6.502 6.502 0 0 0-6.5 6.5c0 3.588 2.912 6.5 6.5 6.5 33.898 0 58.5-24.602 58.5-58.5v-52c0-3.588-2.911-6.5-6.5-6.5Z" fill="url(#a)"/><path d="M58.5 0h-52A6.502 6.502 0 0 0 0 6.5v52C0 62.088 2.912 65 6.5 65h45.07c-2.792 23.254-20.515 39-45.07 39a6.502 6.502 0 0 0-6.5 6.5c0 3.588 2.912 6.5 6.5 6.5C40.397 117 65 92.398 65 58.5v-52C65 2.912 62.088 0 58.5 0Z" fill="url(#b)"/><defs><linearGradient id="a" x1="81.824" y1="42.222" x2="141.202" y2="42.634" gradientUnits="userSpaceOnUse"><stop stop-color="#2D3393"/><stop offset="1" stop-color="#247FC3"/></linearGradient><linearGradient id="b" x1="3.824" y1="42.222" x2="63.202" y2="42.634" gradientUnits="userSpaceOnUse"><stop stop-color="#2D3393"/><stop offset="1" stop-color="#247FC3"/></linearGradient></defs></svg>