<svg width="339" height="593" fill="none" xmlns="http://www.w3.org/2000/svg"><path d="M339 593V0H.266v593H339Z" fill="#020101"/><path d="M336.182 105.624H339v-3.053h-2.818c-26.086 0-47.308-21.226-47.308-47.318V0h-3.052v55.253c0 27.775 22.594 50.371 50.36 50.371Z" fill="url(#a)"/><path d="M336.182 98.502H339v-3.053h-2.818c-22.16 0-40.188-18.031-40.188-40.196V0h-3.052v55.253c.004 23.849 19.4 43.249 43.24 43.249Z" fill="url(#b)"/><path d="M336.182 91.377H339v-3.053h-2.818c-18.231 0-33.064-14.836-33.064-33.071V0h-3.052v55.253c0 19.918 16.202 36.124 36.116 36.124Z" fill="url(#c)"/><path d="M336.182 84.255H339v-3.053h-2.818c-14.305 0-25.944-11.641-25.944-25.95V0h-3.052v55.253c.003 15.992 13.011 29.002 28.996 29.002Z" fill="url(#d)"/><path d="M336.182 77.133H339v-3.052h-2.818c-10.379 0-18.82-8.447-18.82-18.825V0h-3.052v55.253c0 12.065 9.813 21.88 21.872 21.88Z" fill="url(#e)"/><path d="M336.182 70.008H339v-3.053h-2.818c-6.453 0-11.7-5.251-11.7-11.702V0h-3.052v55.253c0 8.135 6.619 14.755 14.752 14.755Z" fill="url(#f)"/><path d="M159.275 503.205v-84.854h-3.052v84.854c0 26.092-21.222 47.318-47.308 47.318h-64.39v3.053h64.39c27.769 0 50.36-22.595 50.36-50.371Z" fill="url(#g)"/><path d="M152.154 503.205v-84.854h-3.052v84.854c0 22.165-18.027 40.196-40.187 40.196h-64.39v3.053h64.39c23.844 0 43.239-19.403 43.239-43.249Z" fill="url(#h)"/><path d="M145.034 503.205v-84.854h-3.052v84.854c0 18.235-14.833 33.071-33.064 33.071h-64.39v3.053h64.387c19.918 0 36.119-16.205 36.119-36.124Z" fill="url(#i)"/><path d="M137.911 503.205v-84.854h-3.052v84.854c0 14.308-11.639 25.95-25.944 25.95h-64.39v3.052h64.39c15.988 0 28.996-13.01 28.996-29.002Z" fill="url(#j)"/><path d="M130.79 503.205v-84.854h-3.052v84.854c0 10.381-8.441 18.824-18.82 18.824h-64.39v3.053h64.387c12.062 0 21.875-9.812 21.875-21.877Z" fill="url(#k)"/><path d="M123.667 503.205v-84.854h-3.052v84.854c0 6.455-5.247 11.703-11.7 11.703h-64.39v3.052h64.39c8.136 0 14.752-6.62 14.752-14.755Z" fill="url(#l)"/><path d="M149.82 196.224h72.926v-3.052H149.82c-27.769 0-50.36 22.595-50.36 50.37v74.067h3.053v-74.067c0-26.091 21.222-47.318 47.307-47.318Z" fill="url(#m)"/><path d="M149.82 203.35h72.926v-3.053H149.82c-23.84 0-43.239 19.4-43.239 43.249v74.067h3.052v-74.071c0-22.164 18.027-40.192 40.187-40.192Z" fill="url(#n)"/><path d="M149.82 210.471h72.926v-3.052H149.82c-19.914 0-36.115 16.205-36.115 36.123v74.067h3.052v-74.067c0-18.234 14.833-33.071 33.063-33.071Z" fill="url(#o)"/><path d="M149.82 217.593h72.926v-3.053H149.82c-15.988 0-28.995 13.011-28.995 29.002v74.067h3.052v-74.067c0-14.307 11.639-25.949 25.943-25.949Z" fill="url(#p)"/><path d="M149.82 224.718h72.926v-3.052H149.82c-12.062 0-21.872 9.815-21.872 21.876v74.067H131v-74.067c-.003-10.381 8.442-18.824 18.82-18.824Z" fill="url(#q)"/><path d="M149.82 231.84h72.926v-3.053H149.82c-8.133 0-14.751 6.617-14.751 14.755v74.067h3.052v-74.067c0-6.454 5.247-11.702 11.699-11.702Z" fill="url(#r)"/><path d="M58.972 415.298c-26.086 0-47.308-21.226-47.308-47.318s21.222-47.318 47.308-47.318h124.305c8.133 0 14.752-6.617 14.752-14.755 0-8.135-6.619-14.755-14.752-14.755h-45.15v3.052h45.15c6.453 0 11.7 5.252 11.7 11.703 0 6.454-5.247 11.702-11.7 11.702H58.972c-27.77 0-50.36 22.599-50.36 50.371 0 27.776 22.59 50.371 50.36 50.371H174.12v-3.053H58.971Z" fill="url(#s)"/><path d="M58.972 408.176c-22.16 0-40.188-18.031-40.188-40.196 0-22.161 18.028-40.196 40.188-40.196h124.305c12.062 0 21.872-9.816 21.872-21.877 0-12.062-9.813-21.877-21.872-21.877h-45.15v3.053h45.15c10.379 0 18.82 8.446 18.82 18.824 0 10.381-8.445 18.824-18.82 18.824H58.972c-23.844 0-43.24 19.404-43.24 43.249 0 23.849 19.396 43.249 43.24 43.249H174.12v-3.053H58.971Z" fill="url(#t)"/><path d="M58.972 401.051c-18.23 0-33.064-14.836-33.064-33.071s14.833-33.071 33.064-33.071h124.305c15.988 0 28.996-13.01 28.996-29.002 0-15.992-13.008-29.002-28.996-29.002h-45.15v3.053h45.15c14.305 0 25.944 11.641 25.944 25.949 0 14.308-11.639 25.949-25.944 25.949H58.972c-19.914 0-36.116 16.205-36.116 36.124 0 19.919 16.202 36.124 36.116 36.124H174.12v-3.053H58.971Z" fill="url(#u)"/><path d="M58.972 393.929c-14.305 0-25.944-11.641-25.944-25.949 0-14.308 11.64-25.949 25.944-25.949h124.305c19.914 0 36.116-16.206 36.116-36.124 0-19.919-16.202-36.124-36.116-36.124h-45.15v3.053h45.15c18.231 0 33.064 14.836 33.064 33.071s-14.833 33.071-33.064 33.071H58.972c-15.988 0-28.996 13.01-28.996 29.002 0 15.992 13.008 29.002 28.996 29.002H174.12v-3.053H58.971Z" fill="url(#v)"/><path d="M58.972 386.804c-10.379 0-18.82-8.446-18.82-18.824 0-10.381 8.441-18.824 18.82-18.824h124.305c23.84 0 43.239-19.4 43.239-43.249 0-23.845-19.395-43.249-43.239-43.249h-45.15v3.053h45.15c22.16 0 40.187 18.031 40.187 40.196s-18.027 40.196-40.187 40.196H58.972c-12.062 0-21.872 9.815-21.872 21.877 0 12.065 9.813 21.877 21.872 21.877H174.12v-3.053H58.971Z" fill="url(#w)"/><path d="M58.972 379.682c-6.453 0-11.7-5.248-11.7-11.702 0-6.451 5.247-11.702 11.7-11.702h124.305c27.77 0 50.36-22.596 50.36-50.371 0-27.776-22.59-50.371-50.36-50.371h-45.15v3.053h45.15c26.086 0 47.308 21.226 47.308 47.318s-21.222 47.318-47.308 47.318H58.972c-8.136 0-14.752 6.62-14.752 14.755 0 8.138 6.616 14.755 14.752 14.755H174.12v-3.053H58.971Z" fill="url(#x)"/><path d="M144.523 588.382c0-26.092 21.221-47.318 47.307-47.318h97.088v-3.053H191.83c-27.769 0-50.359 22.595-50.359 50.371 0 1.528.081 3.039.213 4.533h3.059a48.845 48.845 0 0 1-.22-4.533Z" fill="url(#y)"/><path d="M151.646 588.382c0-22.165 18.028-40.197 40.188-40.197h97.084v-3.052H191.83c-23.84 0-43.239 19.4-43.239 43.249 0 1.531.085 3.042.237 4.533h3.076a41.63 41.63 0 0 1-.258-4.533Z" fill="url(#z)"/><path d="M158.766 588.382c0-18.235 14.834-33.071 33.064-33.071h97.088v-3.053H191.83c-19.914 0-36.116 16.205-36.116 36.124 0 1.535.109 3.046.295 4.533h3.076a33.404 33.404 0 0 1-.319-4.533Z" fill="url(#A)"/><path d="M165.89 588.382c0-14.308 11.639-25.95 25.944-25.95h97.084v-3.052H191.83c-15.988 0-28.995 13.01-28.995 29.002 0 1.541.125 3.056.359 4.533h3.099a25.95 25.95 0 0 1-.403-4.533Z" fill="url(#B)"/><path d="M173.01 588.382c0-10.381 8.445-18.825 18.82-18.825h97.088v-3.052H191.83c-12.062 0-21.872 9.815-21.872 21.877 0 1.555.17 3.069.478 4.533h3.147a18.87 18.87 0 0 1-.573-4.533Z" fill="url(#C)"/><path d="M180.134 588.382c0-6.455 5.247-11.703 11.7-11.703h97.084v-3.052H191.83c-8.133 0-14.752 6.616-14.752 14.755 0 1.582.258 3.103.719 4.533h3.245a11.736 11.736 0 0 1-.908-4.533Z" fill="url(#D)"/><path d="M68.013 178.383c-26.086 0-47.308-21.227-47.308-47.318 0-26.092 21.222-47.318 47.308-47.318h60.799v-3.053h-60.8c-27.769 0-50.359 22.595-50.359 50.371 0 27.775 22.594 50.37 50.36 50.37h154.733v-3.052H68.013Z" fill="url(#E)"/><path d="M68.013 171.258c-22.16 0-40.188-18.032-40.188-40.197 0-22.161 18.028-40.196 40.188-40.196h60.799v-3.052h-60.8c-23.84 0-43.239 19.403-43.239 43.248 0 23.849 19.396 43.249 43.24 43.249h154.733v-3.052H68.013Z" fill="url(#F)"/><path d="M68.013 164.136c-18.23 0-33.064-14.837-33.064-33.071 0-18.235 14.833-33.071 33.064-33.071h60.799V94.94h-60.8c-19.913 0-36.115 16.205-36.115 36.124 0 19.918 16.202 36.124 36.116 36.124h154.733v-3.053H68.013Z" fill="url(#G)"/><path d="M68.013 157.011c-14.305 0-25.944-11.642-25.944-25.95s11.639-25.949 25.944-25.949h60.799v-3.053h-60.8c-15.987 0-28.995 13.011-28.995 29.002 0 15.992 13.008 29.002 28.996 29.002h154.733v-3.052H68.013Z" fill="url(#H)"/><path d="M68.013 149.889c-10.379 0-18.82-8.443-18.82-18.824 0-10.381 8.441-18.824 18.82-18.824h60.799v-3.053h-60.8c-12.058 0-21.871 9.815-21.871 21.877 0 12.065 9.813 21.877 21.872 21.877h154.733v-3.053H68.013Z" fill="url(#I)"/><path d="M68.013 142.767c-6.45 0-11.7-5.248-11.7-11.702 0-6.451 5.25-11.703 11.7-11.703h60.799v-3.052h-60.8c-8.132 0-14.751 6.62-14.751 14.755 0 8.138 6.619 14.755 14.752 14.755h154.733v-3.053H68.013Z" fill="url(#J)"/><path d="M164.403 61.565v81.192h3.052V61.565c0-27.776-22.59-50.37-50.36-50.37H.266v3.052h116.829c26.086 0 47.308 21.23 47.308 47.318Z" fill="url(#K)"/><path d="M157.283 61.565v81.192h3.052V61.565c0-23.845-19.396-43.249-43.24-43.249H.266v3.053h116.829c22.16.003 40.188 18.035 40.188 40.196Z" fill="url(#L)"/><path d="M150.163 61.565v81.192h3.052V61.565c0-19.919-16.202-36.124-36.116-36.124H.266v3.053h116.829c18.234 0 33.068 14.836 33.068 33.071Z" fill="url(#M)"/><path d="M143.039 61.565v81.192h3.052V61.565c0-15.992-13.007-29.002-28.996-29.002H.266v3.053h116.829c14.305.003 25.944 11.641 25.944 25.949Z" fill="url(#N)"/><path d="M135.919 61.565v81.192h3.052V61.565c0-12.062-9.813-21.877-21.872-21.877H.266v3.053h116.829c10.379 0 18.824 8.446 18.824 18.824Z" fill="url(#O)"/><path d="M128.795 61.565v81.192h3.052V61.565c0-8.135-6.619-14.755-14.752-14.755H.266v3.052h116.829c6.453 0 11.7 5.252 11.7 11.703Z" fill="url(#P)"/><path d="M40.796 239.463c6.453 0 11.7 5.248 11.7 11.703 0 6.454-5.248 11.702-11.7 11.702H.266v3.053h40.53c8.133 0 14.752-6.621 14.752-14.755 0-8.135-6.62-14.756-14.752-14.756H.266v3.053h40.53Z" fill="url(#Q)"/><path d="M40.796 232.338c10.378 0 18.82 8.447 18.82 18.824 0 10.381-8.442 18.824-18.82 18.824H.266v3.053h40.53c12.062 0 21.872-9.815 21.872-21.877 0-12.065-9.813-21.877-21.872-21.877H.266v3.053h40.53Z" fill="url(#R)"/><path d="M40.795 225.216c14.305 0 25.944 11.642 25.944 25.95 0 14.307-11.639 25.949-25.944 25.949H.266v3.053h40.53c15.988 0 28.995-13.011 28.995-29.002 0-15.992-13.007-29.002-28.995-29.002H.265v3.052h40.53Z" fill="url(#S)"/><path d="M40.796 218.094c18.23 0 33.063 14.837 33.063 33.072 0 18.234-14.833 33.071-33.063 33.071H.266v3.052h40.53c19.914 0 36.115-16.205 36.115-36.123 0-19.919-16.201-36.124-36.115-36.124H.266v3.052h40.53Z" fill="url(#T)"/><path d="M40.795 210.969c22.16 0 40.188 18.032 40.188 40.197 0 22.164-18.028 40.196-40.188 40.196H.266v3.052h40.53c23.84 0 43.239-19.4 43.239-43.248 0-23.849-19.396-43.249-43.24-43.249H.266v3.052h40.53Z" fill="url(#U)"/><path d="M40.796 203.848c26.086 0 47.307 21.226 47.307 47.318 0 26.091-21.221 47.318-47.307 47.318H.266v3.052h40.53c27.769 0 50.36-22.595 50.36-50.37 0-27.776-22.591-50.371-50.36-50.371H.266v3.053h40.53Z" fill="url(#V)"/><path d="M222.953 87.792c29.077 0 52.734-23.662 52.734-52.746V0h-3.052v35.046c0 27.4-22.288 49.694-49.682 49.694-27.393 0-49.682-22.294-49.682-49.694V0h-3.052v35.046c0 29.084 23.657 52.746 52.734 52.746Z" fill="url(#W)"/><path d="M222.953 80.67c25.151 0 45.614-20.467 45.614-45.624V0h-3.052v35.046c0 23.473-19.091 42.572-42.562 42.572-23.467 0-42.558-19.095-42.558-42.572V0h-3.052v35.046c0 25.157 20.459 45.624 45.61 45.624Z" fill="url(#X)"/><path d="M222.953 73.545c21.225 0 38.49-17.269 38.49-38.499V0h-3.052v35.046c0 19.546-15.896 35.447-35.438 35.447-19.541 0-35.438-15.9-35.438-35.447V0h-3.052v35.046c0 21.23 17.268 38.5 38.49 38.5Z" fill="url(#Y)"/><path d="M222.953 66.424c17.296 0 31.37-14.075 31.37-31.378V0h-3.052v35.046c0 15.62-12.702 28.325-28.318 28.325-15.612 0-28.318-12.706-28.318-28.325V0h-3.052v35.046c.003 17.3 14.074 31.378 31.37 31.378Z" fill="url(#Z)"/><path d="M222.953 59.298c13.37 0 24.247-10.879 24.247-24.252V0h-3.052v35.046c0 11.69-9.509 21.2-21.195 21.2s-21.195-9.51-21.195-21.2V0h-3.052v35.046c0 13.373 10.877 24.252 24.247 24.252Z" fill="url(#aa)"/><path d="M222.953 52.177c9.444 0 17.127-7.685 17.127-17.13V0h-3.052v35.046c0 7.763-6.314 14.078-14.075 14.078-7.76 0-14.074-6.316-14.074-14.078V0h-3.052v35.046c.003 9.446 7.686 17.13 17.126 17.13Z" fill="url(#ab)"/><path d="M44.522 573.627v-87.098c0-6.451 5.247-11.702 11.7-11.702 6.452 0 11.7 5.251 11.7 11.702v28.365h3.051v-28.365c0-8.135-6.618-14.755-14.752-14.755-8.132 0-14.751 6.62-14.751 14.755v87.098a47.044 47.044 0 0 1-4.126 19.288h3.333a50.096 50.096 0 0 0 3.845-19.288Z" fill="url(#ac)"/><path d="M16.034 573.627v-87.098c0-22.161 18.028-40.196 40.188-40.196 22.16 0 40.187 18.031 40.187 40.196v28.46h3.052v-28.46c0-23.845-19.396-43.249-43.24-43.249-23.84 0-43.239 19.4-43.239 43.249v87.098c0 8.239-5.328 15.246-12.716 17.787v1.498h4.2c6.877-3.69 11.568-10.947 11.568-19.285Z" fill="url(#ad)"/><path d="M8.914 573.627v-87.098c0-26.092 21.222-47.318 47.308-47.318 26.085 0 47.307 21.226 47.307 47.318v28.365h3.052v-28.365c0-27.775-22.59-50.371-50.36-50.371-27.769 0-50.36 22.599-50.36 50.371v87.098c0 4.214-2.245 7.904-5.595 9.964v3.452c5.095-2.327 8.648-7.46 8.648-13.416Z" fill="url(#ae)"/><path d="M37.401 486.529c0-10.381 8.442-18.824 18.82-18.824 10.38 0 18.82 8.443 18.82 18.824v28.365h3.053v-28.365c0-12.061-9.814-21.877-21.873-21.877-12.062 0-21.872 9.816-21.872 21.877v87.098a39.98 39.98 0 0 1-4.938 19.288h3.438a43.005 43.005 0 0 0 4.556-19.288v-87.098H37.4Z" fill="url(#af)"/><path d="M30.278 486.529c0-14.308 11.639-25.949 25.943-25.949 14.305 0 25.944 11.641 25.944 25.949v28.365h3.052v-28.365c0-15.992-13.007-29.002-28.996-29.002-15.988 0-28.995 13.01-28.995 29.002v87.098a32.89 32.89 0 0 1-6.233 19.288h3.682a35.92 35.92 0 0 0 5.603-19.288v-87.098Z" fill="url(#ag)"/><path d="M23.158 486.529c0-18.235 14.833-33.071 33.064-33.071 18.23 0 33.063 14.836 33.063 33.071v28.365h3.052v-28.365c0-19.918-16.201-36.124-36.115-36.124-19.915 0-36.116 16.206-36.116 36.124v87.098c0 7.65-3.33 14.535-8.61 19.288h4.298c4.576-5.13 7.367-11.889 7.367-19.288v-87.098h-.003Z" fill="url(#ah)"/><path d="M291.967 576.771v-91.767c0-8.134-6.619-14.755-14.752-14.755h-2.364v3.053h2.364c6.453 0 11.7 5.252 11.7 11.702v91.77c0 5.648.948 11.072 2.669 16.144h3.221a47.104 47.104 0 0 1-2.838-16.147Z" fill="url(#ai)"/><path d="M299.087 576.771v-91.767c0-12.061-9.813-21.876-21.872-21.876h-2.364v3.052h2.364c10.379 0 18.82 8.443 18.82 18.824v91.77a43.02 43.02 0 0 0 3.137 16.144h3.309a40.024 40.024 0 0 1-3.394-16.147Z" fill="url(#aj)"/><path d="M306.211 576.771v-91.767c0-15.991-13.008-29.002-28.996-29.002h-2.364v3.053h2.364c14.305 0 25.944 11.642 25.944 25.949v91.77a35.915 35.915 0 0 0 3.82 16.144h3.456a32.85 32.85 0 0 1-4.224-16.147Z" fill="url(#ak)"/><path d="M313.331 576.771v-91.767c0-19.918-16.202-36.123-36.116-36.123h-2.365v3.052h2.365c18.231 0 33.064 14.837 33.064 33.071v91.77a28.851 28.851 0 0 0 4.918 16.144h3.787c-3.533-4.438-5.653-10.045-5.653-16.147Z" fill="url(#al)"/><path d="M320.454 576.771v-91.767c0-23.845-19.396-43.249-43.239-43.249h-2.365v3.053h2.365c22.16 0 40.187 18.032 40.187 40.196v91.77c0 6.393 2.774 12.14 7.161 16.144h5.078c-5.491-3.296-9.187-9.29-9.187-16.147Z" fill="url(#am)"/><path d="m327.574 576.771.001-91.766c0-27.776-22.591-50.371-50.36-50.371h-2.364v3.053h2.364c26.086 0 47.308 21.226 47.308 47.318v91.769c0 8.044 6.469 14.593 14.477 14.742v-3.053c-6.324-.149-11.426-5.329-11.426-11.692Z" fill="url(#an)"/><path d="M261.406 196.224h6.053c3.059 0 4.712 0 5.647-.091v.091c8.133 0 14.752-6.62 14.752-14.755v-41.907c0-8.138-6.619-14.755-14.752-14.755-8.133 0-14.752 6.617-14.752 14.755v92.786c0 8.135 6.619 14.755 14.752 14.755H339v-3.052h-65.894c-6.453 0-11.7-5.252-11.7-11.703v-92.786c0-6.454 5.247-11.702 11.7-11.702 6.453 0 11.7 5.248 11.7 11.702v41.907c0 6.451-5.247 11.703-11.7 11.703h-11.7" fill="url(#ao)"/><path d="M254.286 232.348v-92.786c0-10.381 8.445-18.824 18.82-18.824 10.376 0 18.82 8.446 18.82 18.824v41.907c0 10.381-8.445 18.825-18.82 18.825h-11.7v3.052h6.053c3.059 0 4.712 0 5.647-.091v.091c12.062 0 21.872-9.815 21.872-21.877v-41.907c0-12.065-9.813-21.877-21.872-21.877s-21.872 9.816-21.872 21.877v92.786c0 12.062 9.813 21.877 21.872 21.877H339v-3.053h-65.894c-10.379.004-18.82-8.443-18.82-18.824Z" fill="url(#ap)"/><path d="M247.162 232.348v-92.786c0-14.308 11.639-25.949 25.944-25.949s25.944 11.641 25.944 25.949v41.907c0 14.308-11.639 25.95-25.944 25.95h-11.7v3.052h5.955c3.12 0 4.8 0 5.745-.091v.091c15.988 0 28.996-13.01 28.996-29.002v-41.907c0-15.992-13.008-29.002-28.996-29.002s-28.996 13.01-28.996 29.002v92.786c0 15.992 13.008 29.002 28.996 29.002H339v-3.052h-65.894c-14.305 0-25.944-11.642-25.944-25.95Z" fill="url(#aq)"/><path d="M240.042 232.348v-92.786c0-18.235 14.833-33.071 33.064-33.071s33.064 14.836 33.064 33.071v41.907c0 18.235-14.833 33.071-33.064 33.071H261.64l-.234-.003v3.036l5.955.02c3.12 0 4.8 0 5.745-.095v.095c19.914 0 36.116-16.205 36.116-36.124v-41.907c0-19.918-16.202-36.124-36.116-36.124-19.914 0-36.116 16.206-36.116 36.124v92.786c0 19.919 16.202 36.124 36.116 36.124H339v-3.053h-65.894c-18.231.004-33.064-14.833-33.064-33.071Z" fill="url(#ar)"/><path d="M232.919 232.348v-92.786c0-22.165 18.027-40.196 40.187-40.196 22.16 0 40.187 18.035 40.187 40.196v41.907c0 22.162-18.027 40.197-40.187 40.197h-11.7v3.052h5.955c3.12 0 4.8 0 5.745-.095v.095c23.84 0 43.239-19.403 43.239-43.249v-41.907c0-23.849-19.395-43.249-43.239-43.249-23.843 0-43.239 19.4-43.239 43.249v92.786c0 23.846 19.396 43.249 43.239 43.249H339v-3.053h-65.894c-22.16 0-40.187-18.031-40.187-40.196Z" fill="url(#as)"/><path d="M225.799 232.348v-92.786c0-26.092 21.221-47.318 47.307-47.318 26.086 0 47.308 21.226 47.308 47.318v41.907c0 26.092-21.222 47.318-47.308 47.318h-1.023c-2.883 0-10.677-.027-10.677-.027v3.053l9.83.027c.837 0 1.433 0 1.87-.031v.031c27.769 0 50.36-22.595 50.36-50.371v-41.907c0-27.775-22.591-50.37-50.36-50.37s-50.359 22.598-50.359 50.37v92.786c0 27.776 22.59 50.371 50.359 50.371H339v-3.053h-65.894c-26.086 0-47.307-21.226-47.307-47.318Z" fill="url(#at)"/><path d="M209.712 473.952c0 8.135 6.62 14.756 14.754 14.756s14.754-6.621 14.754-14.756V348.597c0-26.093 21.224-47.32 47.313-47.32 26.09 0 47.314 21.227 47.314 47.32v33.767c0 4.469 2.006 8.471 5.153 11.182v-4.51a11.623 11.623 0 0 1-2.1-6.672v-33.767c0-27.777-22.594-50.373-50.367-50.373-27.773 0-50.366 22.596-50.366 50.373v125.355c0 6.451-5.247 11.703-11.701 11.703-6.454 0-11.701-5.252-11.701-11.703V346.733a49.78 49.78 0 0 1-3.053 2.054v125.165Z" fill="url(#au)"/><path d="M202.817 473.725c0 12.062 9.798 21.878 21.839 21.878 12.043 0 21.838-9.816 21.838-21.878V348.37c0-22.166 18-40.198 40.126-40.198 22.126 0 40.126 18.032 40.126 40.198v33.768c0 8.616 5.009 16.063 12.254 19.628v-3.467c-5.503-3.286-9.206-9.29-9.206-16.161V348.37c0-23.85-19.367-43.251-43.174-43.251-23.803 0-43.173 19.401-43.173 43.251v125.355c0 10.382-8.432 18.825-18.791 18.825-10.363 0-18.792-8.447-18.792-18.825V350.827c-.998.498-2.012.969-3.047 1.402v121.496Z" fill="url(#av)"/><path d="M195.06 473.496c0 15.992 13.046 29.003 29.081 29.003 16.036 0 29.082-13.011 29.082-29.003V348.143c0-18.235 14.877-33.072 33.162-33.072 18.284 0 33.162 14.837 33.162 33.072v33.767c0 12.627 8.136 23.388 19.453 27.359v-3.263c-9.594-3.825-16.392-13.183-16.392-24.1v-33.767c0-19.919-16.25-36.124-36.223-36.124-19.974 0-36.223 16.205-36.223 36.124v125.353c0 14.309-11.674 25.95-26.021 25.95-14.347 0-26.02-11.641-26.02-25.95V353.493a47.05 47.05 0 0 1-3.061.864v119.139Z" fill="url(#aw)"/><path d="M188.164 474.13c0 19.92 16.223 36.126 36.164 36.126 19.941 0 36.164-16.206 36.164-36.126V348.775c0-14.308 11.655-25.95 25.978-25.95 14.324 0 25.979 11.642 25.979 25.95v33.768c0 16.595 11.264 30.602 26.551 34.821v-3.175c-13.581-4.124-23.495-16.748-23.495-31.646v-33.768c0-15.992-13.025-29.003-29.035-29.003-16.009 0-29.034 13.011-29.034 29.003V474.13c0 18.236-14.853 33.073-33.108 33.073-18.255 0-33.108-14.837-33.108-33.073V355.833c-1.01.163-2.028.308-3.056.41V474.13Z" fill="url(#ax)"/><path d="M274.939 473.67V348.315c0-6.455 5.239-11.703 11.682-11.703 6.443 0 11.682 5.248 11.682 11.703v33.767c0 24.491 17.543 44.949 40.697 49.445v-3.104c-21.467-4.448-37.65-23.534-37.65-46.337v-33.768c0-8.138-6.609-14.755-14.729-14.755-8.121 0-14.73 6.617-14.73 14.755v125.355c0 26.093-21.189 47.321-47.235 47.321s-47.235-21.228-47.235-47.321V356.044h-3.047v117.629c0 27.777 22.555 50.374 50.282 50.374 27.727 0 50.283-22.6 50.283-50.377Z" fill="url(#ay)"/><path d="M181.269 356.27V473.9c0 23.847 19.392 43.251 43.232 43.251 23.836 0 43.232-19.404 43.232-43.251V348.545c0-10.381 8.439-18.825 18.816-18.825 10.377 0 18.817 8.444 18.817 18.825v33.767c0 20.547 14.401 37.783 33.634 42.164v-3.134c-17.533-4.317-30.582-20.174-30.582-39.03v-33.767c0-12.065-9.812-21.878-21.869-21.878-12.06 0-21.868 9.816-21.868 21.878V473.9c0 22.163-18.024 40.198-40.18 40.198S184.32 496.066 184.32 473.9V356.243c-.338.007-.677.027-1.016.027h-2.035Z" fill="url(#az)"/><defs><linearGradient id="a" x1="312.412" y1="0" x2="312.412" y2="105.624" gradientUnits="userSpaceOnUse"><stop stop-color="#2E3192"/><stop offset="1" stop-color="#2484C6"/></linearGradient><linearGradient id="b" x1="315.973" y1="0" x2="315.973" y2="98.501" gradientUnits="userSpaceOnUse"><stop stop-color="#2E3192"/><stop offset="1" stop-color="#2484C6"/></linearGradient><linearGradient id="c" x1="319.533" y1="0" x2="319.533" y2="91.378" gradientUnits="userSpaceOnUse"><stop stop-color="#2E3192"/><stop offset="1" stop-color="#2484C6"/></linearGradient><linearGradient id="d" x1="323.094" y1="0" x2="323.094" y2="84.255" gradientUnits="userSpaceOnUse"><stop stop-color="#2E3192"/><stop offset="1" stop-color="#2484C6"/></linearGradient><linearGradient id="e" x1="326.655" y1="0" x2="326.655" y2="77.132" gradientUnits="userSpaceOnUse"><stop stop-color="#2E3192"/><stop offset="1" stop-color="#2484C6"/></linearGradient><linearGradient id="f" x1="330.216" y1="0" x2="330.216" y2="70.008" gradientUnits="userSpaceOnUse"><stop stop-color="#2E3192"/><stop offset="1" stop-color="#2484C6"/></linearGradient><linearGradient id="g" x1="101.902" y1="418.351" x2="101.902" y2="553.576" gradientUnits="userSpaceOnUse"><stop stop-color="#2E3192"/><stop offset="1" stop-color="#2484C6"/></linearGradient><linearGradient id="h" x1="98.341" y1="418.351" x2="98.341" y2="546.453" gradientUnits="userSpaceOnUse"><stop stop-color="#2E3192"/><stop offset="1" stop-color="#2484C6"/></linearGradient><linearGradient id="i" x1="94.78" y1="418.351" x2="94.78" y2="539.33" gradientUnits="userSpaceOnUse"><stop stop-color="#2E3192"/><stop offset="1" stop-color="#2484C6"/></linearGradient><linearGradient id="j" x1="91.219" y1="418.351" x2="91.219" y2="532.206" gradientUnits="userSpaceOnUse"><stop stop-color="#2E3192"/><stop offset="1" stop-color="#2484C6"/></linearGradient><linearGradient id="k" x1="87.659" y1="418.351" x2="87.659" y2="525.083" gradientUnits="userSpaceOnUse"><stop stop-color="#2E3192"/><stop offset="1" stop-color="#2484C6"/></linearGradient><linearGradient id="l" x1="84.098" y1="418.351" x2="84.098" y2="517.96" gradientUnits="userSpaceOnUse"><stop stop-color="#2E3192"/><stop offset="1" stop-color="#2484C6"/></linearGradient><linearGradient id="m" x1="161.103" y1="193.172" x2="161.103" y2="317.609" gradientUnits="userSpaceOnUse"><stop stop-color="#2E3192"/><stop offset="1" stop-color="#2484C6"/></linearGradient><linearGradient id="n" x1="164.664" y1="200.295" x2="164.664" y2="317.609" gradientUnits="userSpaceOnUse"><stop stop-color="#2E3192"/><stop offset="1" stop-color="#2484C6"/></linearGradient><linearGradient id="o" x1="168.225" y1="207.419" x2="168.225" y2="317.609" gradientUnits="userSpaceOnUse"><stop stop-color="#2E3192"/><stop offset="1" stop-color="#2484C6"/></linearGradient><linearGradient id="p" x1="171.785" y1="214.542" x2="171.785" y2="317.609" gradientUnits="userSpaceOnUse"><stop stop-color="#2E3192"/><stop offset="1" stop-color="#2484C6"/></linearGradient><linearGradient id="q" x1="175.346" y1="221.665" x2="175.346" y2="317.609" gradientUnits="userSpaceOnUse"><stop stop-color="#2E3192"/><stop offset="1" stop-color="#2484C6"/></linearGradient><linearGradient id="r" x1="178.907" y1="228.788" x2="178.907" y2="317.609" gradientUnits="userSpaceOnUse"><stop stop-color="#2E3192"/><stop offset="1" stop-color="#2484C6"/></linearGradient><linearGradient id="s" x1="103.321" y1="291.152" x2="103.321" y2="418.351" gradientUnits="userSpaceOnUse"><stop stop-color="#2E3192"/><stop offset="1" stop-color="#2484C6"/></linearGradient><linearGradient id="t" x1="110.443" y1="284.028" x2="110.443" y2="411.228" gradientUnits="userSpaceOnUse"><stop stop-color="#2E3192"/><stop offset="1" stop-color="#2484C6"/></linearGradient><linearGradient id="u" x1="117.564" y1="276.905" x2="117.564" y2="404.105" gradientUnits="userSpaceOnUse"><stop stop-color="#2E3192"/><stop offset="1" stop-color="#2484C6"/></linearGradient><linearGradient id="v" x1="124.686" y1="269.782" x2="124.686" y2="396.981" gradientUnits="userSpaceOnUse"><stop stop-color="#2E3192"/><stop offset="1" stop-color="#2484C6"/></linearGradient><linearGradient id="w" x1="131.808" y1="262.659" x2="131.808" y2="389.858" gradientUnits="userSpaceOnUse"><stop stop-color="#2E3192"/><stop offset="1" stop-color="#2484C6"/></linearGradient><linearGradient id="x" x1="138.929" y1="255.536" x2="138.929" y2="382.735" gradientUnits="userSpaceOnUse"><stop stop-color="#2E3192"/><stop offset="1" stop-color="#2484C6"/></linearGradient><linearGradient id="y" x1="215.196" y1="538.012" x2="215.196" y2="592.915" gradientUnits="userSpaceOnUse"><stop stop-color="#2E3192"/><stop offset="1" stop-color="#2484C6"/></linearGradient><linearGradient id="z" x1="218.756" y1="545.135" x2="218.756" y2="592.915" gradientUnits="userSpaceOnUse"><stop stop-color="#2E3192"/><stop offset="1" stop-color="#2484C6"/></linearGradient><linearGradient id="A" x1="222.317" y1="552.258" x2="222.317" y2="592.915" gradientUnits="userSpaceOnUse"><stop stop-color="#2E3192"/><stop offset="1" stop-color="#2484C6"/></linearGradient><linearGradient id="B" x1="225.878" y1="559.381" x2="225.878" y2="592.915" gradientUnits="userSpaceOnUse"><stop stop-color="#2E3192"/><stop offset="1" stop-color="#2484C6"/></linearGradient><linearGradient id="C" x1="229.439" y1="566.504" x2="229.439" y2="592.915" gradientUnits="userSpaceOnUse"><stop stop-color="#2E3192"/><stop offset="1" stop-color="#2484C6"/></linearGradient><linearGradient id="D" x1="233" y1="573.628" x2="233" y2="592.915" gradientUnits="userSpaceOnUse"><stop stop-color="#2E3192"/><stop offset="1" stop-color="#2484C6"/></linearGradient><linearGradient id="E" x1="120.2" y1="80.692" x2="120.2" y2="181.434" gradientUnits="userSpaceOnUse"><stop stop-color="#2E3192"/><stop offset="1" stop-color="#2484C6"/></linearGradient><linearGradient id="F" x1="123.761" y1="87.815" x2="123.761" y2="174.311" gradientUnits="userSpaceOnUse"><stop stop-color="#2E3192"/><stop offset="1" stop-color="#2484C6"/></linearGradient><linearGradient id="G" x1="127.322" y1="94.939" x2="127.322" y2="167.188" gradientUnits="userSpaceOnUse"><stop stop-color="#2E3192"/><stop offset="1" stop-color="#2484C6"/></linearGradient><linearGradient id="H" x1="130.883" y1="102.062" x2="130.883" y2="160.065" gradientUnits="userSpaceOnUse"><stop stop-color="#2E3192"/><stop offset="1" stop-color="#2484C6"/></linearGradient><linearGradient id="I" x1="134.443" y1="109.185" x2="134.443" y2="152.942" gradientUnits="userSpaceOnUse"><stop stop-color="#2E3192"/><stop offset="1" stop-color="#2484C6"/></linearGradient><linearGradient id="J" x1="138.004" y1="116.308" x2="138.004" y2="145.818" gradientUnits="userSpaceOnUse"><stop stop-color="#2E3192"/><stop offset="1" stop-color="#2484C6"/></linearGradient><linearGradient id="K" x1="83.861" y1="11.196" x2="83.861" y2="142.758" gradientUnits="userSpaceOnUse"><stop stop-color="#2E3192"/><stop offset="1" stop-color="#2484C6"/></linearGradient><linearGradient id="L" x1="80.3" y1="18.319" x2="80.3" y2="142.758" gradientUnits="userSpaceOnUse"><stop stop-color="#2E3192"/><stop offset="1" stop-color="#2484C6"/></linearGradient><linearGradient id="M" x1="76.74" y1="25.442" x2="76.74" y2="142.758" gradientUnits="userSpaceOnUse"><stop stop-color="#2E3192"/><stop offset="1" stop-color="#2484C6"/></linearGradient><linearGradient id="N" x1="73.179" y1="32.565" x2="73.179" y2="142.758" gradientUnits="userSpaceOnUse"><stop stop-color="#2E3192"/><stop offset="1" stop-color="#2484C6"/></linearGradient><linearGradient id="O" x1="69.618" y1="39.688" x2="69.618" y2="142.758" gradientUnits="userSpaceOnUse"><stop stop-color="#2E3192"/><stop offset="1" stop-color="#2484C6"/></linearGradient><linearGradient id="P" x1="66.057" y1="46.811" x2="66.057" y2="142.758" gradientUnits="userSpaceOnUse"><stop stop-color="#2E3192"/><stop offset="1" stop-color="#2484C6"/></linearGradient><linearGradient id="Q" x1="27.906" y1="236.41" x2="27.906" y2="265.92" gradientUnits="userSpaceOnUse"><stop stop-color="#2E3192"/><stop offset="1" stop-color="#2484C6"/></linearGradient><linearGradient id="R" x1="31.467" y1="229.287" x2="31.467" y2="273.044" gradientUnits="userSpaceOnUse"><stop stop-color="#2E3192"/><stop offset="1" stop-color="#2484C6"/></linearGradient><linearGradient id="S" x1="35.028" y1="222.164" x2="35.028" y2="280.167" gradientUnits="userSpaceOnUse"><stop stop-color="#2E3192"/><stop offset="1" stop-color="#2484C6"/></linearGradient><linearGradient id="T" x1="38.588" y1="215.041" x2="38.588" y2="287.29" gradientUnits="userSpaceOnUse"><stop stop-color="#2E3192"/><stop offset="1" stop-color="#2484C6"/></linearGradient><linearGradient id="U" x1="42.149" y1="207.917" x2="42.149" y2="294.413" gradientUnits="userSpaceOnUse"><stop stop-color="#2E3192"/><stop offset="1" stop-color="#2484C6"/></linearGradient><linearGradient id="V" x1="45.71" y1="200.794" x2="45.71" y2="301.536" gradientUnits="userSpaceOnUse"><stop stop-color="#2E3192"/><stop offset="1" stop-color="#2484C6"/></linearGradient><linearGradient id="W" x1="222.954" y1="0" x2="222.954" y2="87.793" gradientUnits="userSpaceOnUse"><stop stop-color="#2E3192"/><stop offset="1" stop-color="#2484C6"/></linearGradient><linearGradient id="X" x1="222.955" y1="0" x2="222.955" y2="80.669" gradientUnits="userSpaceOnUse"><stop stop-color="#2E3192"/><stop offset="1" stop-color="#2484C6"/></linearGradient><linearGradient id="Y" x1="222.955" y1="0" x2="222.955" y2="73.546" gradientUnits="userSpaceOnUse"><stop stop-color="#2E3192"/><stop offset="1" stop-color="#2484C6"/></linearGradient><linearGradient id="Z" x1="222.955" y1="0" x2="222.955" y2="66.423" gradientUnits="userSpaceOnUse"><stop stop-color="#2E3192"/><stop offset="1" stop-color="#2484C6"/></linearGradient><linearGradient id="aa" x1="222.954" y1="0" x2="222.954" y2="59.3" gradientUnits="userSpaceOnUse"><stop stop-color="#2E3192"/><stop offset="1" stop-color="#2484C6"/></linearGradient><linearGradient id="ab" x1="222.955" y1="0" x2="222.955" y2="52.177" gradientUnits="userSpaceOnUse"><stop stop-color="#2E3192"/><stop offset="1" stop-color="#2484C6"/></linearGradient><linearGradient id="ac" x1="54.159" y1="471.775" x2="54.159" y2="592.915" gradientUnits="userSpaceOnUse"><stop stop-color="#2E3192"/><stop offset="1" stop-color="#2484C6"/></linearGradient><linearGradient id="ad" x1="49.863" y1="443.282" x2="49.863" y2="592.915" gradientUnits="userSpaceOnUse"><stop stop-color="#2E3192"/><stop offset="1" stop-color="#2484C6"/></linearGradient><linearGradient id="ae" x1="53.424" y1="436.159" x2="53.424" y2="587.043" gradientUnits="userSpaceOnUse"><stop stop-color="#2E3192"/><stop offset="1" stop-color="#2484C6"/></linearGradient><linearGradient id="af" x1="53.751" y1="464.652" x2="53.751" y2="592.915" gradientUnits="userSpaceOnUse"><stop stop-color="#2E3192"/><stop offset="1" stop-color="#2484C6"/></linearGradient><linearGradient id="ag" x1="53.106" y1="457.529" x2="53.106" y2="592.915" gradientUnits="userSpaceOnUse"><stop stop-color="#2E3192"/><stop offset="1" stop-color="#2484C6"/></linearGradient><linearGradient id="ah" x1="51.916" y1="450.405" x2="51.916" y2="592.915" gradientUnits="userSpaceOnUse"><stop stop-color="#2E3192"/><stop offset="1" stop-color="#2484C6"/></linearGradient><linearGradient id="ai" x1="284.828" y1="470.248" x2="284.827" y2="592.915" gradientUnits="userSpaceOnUse"><stop stop-color="#2E3192"/><stop offset="1" stop-color="#2484C6"/></linearGradient><linearGradient id="aj" x1="288.667" y1="463.125" x2="288.667" y2="592.915" gradientUnits="userSpaceOnUse"><stop stop-color="#2E3192"/><stop offset="1" stop-color="#2484C6"/></linearGradient><linearGradient id="ak" x1="292.641" y1="456.002" x2="292.641" y2="592.915" gradientUnits="userSpaceOnUse"><stop stop-color="#2E3192"/><stop offset="1" stop-color="#2484C6"/></linearGradient><linearGradient id="al" x1="296.918" y1="448.879" x2="296.918" y2="592.915" gradientUnits="userSpaceOnUse"><stop stop-color="#2E3192"/><stop offset="1" stop-color="#2484C6"/></linearGradient><linearGradient id="am" x1="302.245" y1="441.756" x2="302.245" y2="592.915" gradientUnits="userSpaceOnUse"><stop stop-color="#2E3192"/><stop offset="1" stop-color="#2484C6"/></linearGradient><linearGradient id="an" x1="306.925" y1="434.633" x2="306.925" y2="591.513" gradientUnits="userSpaceOnUse"><stop stop-color="#2E3192"/><stop offset="1" stop-color="#2484C6"/></linearGradient><linearGradient id="ao" x1="298.677" y1="124.808" x2="298.677" y2="247.105" gradientUnits="userSpaceOnUse"><stop stop-color="#2E3192"/><stop offset="1" stop-color="#2484C6"/></linearGradient><linearGradient id="ap" x1="295.116" y1="117.685" x2="295.116" y2="254.228" gradientUnits="userSpaceOnUse"><stop stop-color="#2E3192"/><stop offset="1" stop-color="#2484C6"/></linearGradient><linearGradient id="aq" x1="291.556" y1="110.562" x2="291.556" y2="261.351" gradientUnits="userSpaceOnUse"><stop stop-color="#2E3192"/><stop offset="1" stop-color="#2484C6"/></linearGradient><linearGradient id="ar" x1="287.995" y1="103.439" x2="287.995" y2="268.474" gradientUnits="userSpaceOnUse"><stop stop-color="#2E3192"/><stop offset="1" stop-color="#2484C6"/></linearGradient><linearGradient id="as" x1="284.434" y1="96.316" x2="284.434" y2="275.597" gradientUnits="userSpaceOnUse"><stop stop-color="#2E3192"/><stop offset="1" stop-color="#2484C6"/></linearGradient><linearGradient id="at" x1="280.873" y1="89.193" x2="280.873" y2="282.721" gradientUnits="userSpaceOnUse"><stop stop-color="#2E3192"/><stop offset="1" stop-color="#2484C6"/></linearGradient><linearGradient id="au" x1="274.356" y1="298.225" x2="274.356" y2="488.71" gradientUnits="userSpaceOnUse"><stop stop-color="#2E3192"/><stop offset="1" stop-color="#2484C6"/></linearGradient><linearGradient id="av" x1="270.908" y1="305.122" x2="270.908" y2="495.606" gradientUnits="userSpaceOnUse"><stop stop-color="#2E3192"/><stop offset="1" stop-color="#2484C6"/></linearGradient><linearGradient id="aw" x1="267.03" y1="312.019" x2="267.03" y2="502.5" gradientUnits="userSpaceOnUse"><stop stop-color="#2E3192"/><stop offset="1" stop-color="#2484C6"/></linearGradient><linearGradient id="ax" x1="263.582" y1="319.774" x2="263.582" y2="510.258" gradientUnits="userSpaceOnUse"><stop stop-color="#2E3192"/><stop offset="1" stop-color="#2484C6"/></linearGradient><linearGradient id="ay" x1="256.687" y1="333.561" x2="256.687" y2="524.045" gradientUnits="userSpaceOnUse"><stop stop-color="#2E3192"/><stop offset="1" stop-color="#2484C6"/></linearGradient><linearGradient id="az" x1="260.135" y1="326.667" x2="260.135" y2="517.152" gradientUnits="userSpaceOnUse"><stop stop-color="#2E3192"/><stop offset="1" stop-color="#2484C6"/></linearGradient></defs></svg>