<svg width="209" height="365" fill="none" xmlns="http://www.w3.org/2000/svg"><path d="M209 365V0H.504v365H209Z" fill="#020101"/><path d="M207.265 65.013H209v-1.88h-1.735c-16.056 0-29.118-13.064-29.118-29.124V0h-1.879v34.009c0 17.096 13.907 31.004 30.997 31.004Z" fill="url(#a)"/><path d="M207.265 60.63H209v-1.88h-1.735c-13.639 0-24.736-11.098-24.736-24.741V0h-1.878v34.009c.002 14.68 11.94 26.62 26.614 26.62Z" fill="url(#b)"/><path d="M207.265 56.244H209v-1.88h-1.735c-11.221 0-20.351-9.131-20.351-20.355V0h-1.878v34.009c0 12.26 9.972 22.235 22.229 22.235Z" fill="url(#c)"/><path d="M207.265 51.86H209v-1.879h-1.735c-8.804 0-15.968-7.165-15.968-15.972V0h-1.879v34.009c.002 9.843 8.008 17.851 17.847 17.851Z" fill="url(#d)"/><path d="M207.265 47.477H209v-1.88h-1.735c-6.388 0-11.584-5.198-11.584-11.586V0h-1.878v34.009c0 7.426 6.04 13.468 13.462 13.468Z" fill="url(#e)"/><path d="M207.265 43.09H209v-1.878h-1.735c-3.972 0-7.201-3.232-7.201-7.203V0h-1.879v34.009c0 5.007 4.074 9.082 9.08 9.082Z" fill="url(#f)"/><path d="M98.376 309.73v-52.229h-1.878v52.229c0 16.06-13.062 29.125-29.119 29.125H27.746v1.879H67.38c17.093 0 30.997-13.908 30.997-31.004Z" fill="url(#g)"/><path d="M93.994 309.73v-52.229h-1.879v52.229c0 13.643-11.096 24.741-24.736 24.741H27.746v1.879H67.38c14.676 0 26.615-11.943 26.615-26.62Z" fill="url(#h)"/><path d="M89.611 309.73v-52.229h-1.878v52.229c0 11.224-9.13 20.356-20.352 20.356H27.75v1.879h39.63c12.26 0 22.232-9.975 22.232-22.235Z" fill="url(#i)"/><path d="M85.227 309.73v-52.229h-1.879v52.229c0 8.807-7.164 15.972-15.969 15.972H27.746v1.879H67.38c9.841 0 17.848-8.008 17.848-17.851Z" fill="url(#j)"/><path d="M80.844 309.73v-52.229h-1.879v52.229c0 6.39-5.195 11.587-11.584 11.587H27.748v1.879H67.38c7.425 0 13.465-6.04 13.465-13.466Z" fill="url(#k)"/><path d="M76.46 309.73v-52.229h-1.88v52.229c0 3.973-3.229 7.203-7.2 7.203H27.745v1.879H67.38c5.008 0 9.08-4.075 9.08-9.082Z" fill="url(#l)"/><path d="M92.557 120.779h44.887V118.9H92.557c-17.092 0-30.997 13.908-30.997 31.004v45.589h1.879v-45.589c0-16.06 13.062-29.125 29.118-29.125Z" fill="url(#m)"/><path d="M92.557 125.165h44.887v-1.879H92.557c-14.674 0-26.614 11.941-26.614 26.62v45.589h1.878v-45.591c0-13.643 11.096-24.739 24.736-24.739Z" fill="url(#n)"/><path d="M92.557 129.548h44.887v-1.879H92.557c-12.257 0-22.23 9.975-22.23 22.235v45.589h1.879v-45.589c0-11.224 9.13-20.356 20.351-20.356Z" fill="url(#o)"/><path d="M92.557 133.932h44.887v-1.879H92.557c-9.84 0-17.847 8.008-17.847 17.851v45.589h1.878v-45.589c0-8.807 7.164-15.972 15.97-15.972Z" fill="url(#p)"/><path d="M92.557 138.317h44.887v-1.879H92.557c-7.425 0-13.463 6.042-13.463 13.466v45.589h1.88v-45.589c-.003-6.39 5.195-11.587 11.583-11.587Z" fill="url(#q)"/><path d="M92.557 142.701h44.887v-1.879H92.557c-5.006 0-9.08 4.073-9.08 9.082v45.589h1.879v-45.589c0-3.973 3.23-7.203 7.201-7.203Z" fill="url(#r)"/><path d="M36.639 255.622c-16.056 0-29.119-13.065-29.119-29.125 0-16.06 13.063-29.125 29.119-29.125h76.511c5.006 0 9.08-4.073 9.08-9.082 0-5.007-4.074-9.082-9.08-9.082H85.36v1.879h27.79c3.972 0 7.202 3.232 7.202 7.203a7.21 7.21 0 0 1-7.202 7.203H36.639c-17.093 0-30.997 13.91-30.997 31.004 0 17.096 13.904 31.004 30.997 31.004h70.876v-1.879H36.639Z" fill="url(#s)"/><path d="M36.639 251.238c-13.64 0-24.736-11.098-24.736-24.741 0-13.641 11.096-24.741 24.736-24.741h76.511c7.425 0 13.463-6.042 13.463-13.466 0-7.424-6.04-13.465-13.463-13.465H85.36v1.878h27.79c6.389 0 11.584 5.199 11.584 11.587 0 6.39-5.197 11.587-11.584 11.587H36.639c-14.676 0-26.615 11.943-26.615 26.62 0 14.679 11.939 26.62 26.615 26.62h70.876v-1.879H36.639Z" fill="url(#t)"/><path d="M36.639 246.853c-11.222 0-20.352-9.132-20.352-20.356 0-11.224 9.13-20.356 20.352-20.356h76.511c9.841 0 17.848-8.008 17.848-17.851s-8.007-17.851-17.848-17.851H85.36v1.879h27.79c8.805 0 15.969 7.165 15.969 15.972 0 8.807-7.164 15.972-15.969 15.972H36.639c-12.258 0-22.23 9.975-22.23 22.235s9.972 22.235 22.23 22.235h70.876v-1.879H36.639Z" fill="url(#u)"/><path d="M36.639 242.469c-8.805 0-15.969-7.165-15.969-15.972 0-8.807 7.164-15.972 15.969-15.972h76.511c12.258 0 22.23-9.975 22.23-22.235s-9.972-22.235-22.23-22.235H85.36v1.879h27.79c11.222 0 20.352 9.132 20.352 20.356 0 11.224-9.13 20.356-20.352 20.356H36.639c-9.841 0-17.848 8.008-17.848 17.851s8.007 17.851 17.848 17.851h70.876v-1.879H36.639Z" fill="url(#v)"/><path d="M36.639 238.084c-6.389 0-11.584-5.199-11.584-11.587 0-6.39 5.195-11.587 11.584-11.587h76.511c14.674 0 26.615-11.941 26.615-26.62 0-14.677-11.939-26.62-26.615-26.62H85.36v1.879h27.79c13.64 0 24.736 11.098 24.736 24.741 0 13.643-11.096 24.741-24.736 24.741H36.639c-7.425 0-13.463 6.042-13.463 13.466 0 7.426 6.04 13.465 13.463 13.465h70.876v-1.878H36.639Z" fill="url(#w)"/><path d="M36.639 233.7a7.21 7.21 0 0 1-7.202-7.203c0-3.971 3.23-7.203 7.202-7.203h76.511c17.093 0 30.997-13.908 30.997-31.004 0-17.096-13.904-31.004-30.997-31.004H85.36v1.879h27.79c16.057 0 29.119 13.065 29.119 29.125 0 16.06-13.062 29.125-29.119 29.125H36.639c-5.008 0-9.08 4.075-9.08 9.082 0 5.009 4.072 9.082 9.08 9.082h70.876V233.7H36.639Z" fill="url(#x)"/><path d="M89.296 362.157c0-16.059 13.063-29.125 29.119-29.125h59.759v-1.878h-59.759c-17.093 0-30.997 13.907-30.997 31.003 0 .941.05 1.871.131 2.791h1.883a30.134 30.134 0 0 1-.136-2.791Z" fill="url(#y)"/><path d="M93.681 362.157c0-13.642 11.096-24.741 24.736-24.741h59.757v-1.879h-59.759c-14.674 0-26.615 11.941-26.615 26.62 0 .943.053 1.873.146 2.791h1.893c-.1-.918-.158-1.846-.158-2.791Z" fill="url(#z)"/><path d="M98.064 362.157c0-11.223 9.13-20.355 20.351-20.355h59.759v-1.879h-59.759c-12.258 0-22.23 9.974-22.23 22.234 0 .945.067 1.875.181 2.791h1.894a20.552 20.552 0 0 1-.196-2.791Z" fill="url(#A)"/><path d="M102.448 362.157c0-8.806 7.164-15.972 15.969-15.972h59.757v-1.879h-59.759c-9.841 0-17.847 8.008-17.847 17.851 0 .949.077 1.881.221 2.791h1.907a16.05 16.05 0 0 1-.248-2.791Z" fill="url(#B)"/><path d="M106.831 362.157c0-6.389 5.198-11.586 11.584-11.586h59.759v-1.879h-59.759c-7.425 0-13.463 6.041-13.463 13.465 0 .958.105 1.89.294 2.791h1.937a11.616 11.616 0 0 1-.352-2.791Z" fill="url(#C)"/><path d="M111.215 362.157c0-3.972 3.23-7.203 7.202-7.203h59.757v-1.879h-59.759c-5.006 0-9.08 4.073-9.08 9.082 0 .974.158 1.911.442 2.791h1.997a7.245 7.245 0 0 1-.559-2.791Z" fill="url(#D)"/><path d="M42.203 109.797c-16.056 0-29.118-13.065-29.118-29.125 0-16.06 13.062-29.125 29.118-29.125h37.423v-1.879H42.203c-17.092 0-30.997 13.908-30.997 31.004 0 17.096 13.907 31.004 30.997 31.004h95.241v-1.879h-95.24Z" fill="url(#E)"/><path d="M42.203 105.412c-13.64 0-24.736-11.1-24.736-24.742 0-13.64 11.097-24.741 24.736-24.741h37.423v-1.88H42.203C27.53 54.05 15.59 65.994 15.59 80.67c0 14.68 11.938 26.62 26.614 26.62h95.241v-1.878h-95.24Z" fill="url(#F)"/><path d="M42.203 101.028c-11.22 0-20.351-9.132-20.351-20.356 0-11.224 9.13-20.355 20.351-20.355h37.423v-1.88H42.203c-12.257 0-22.23 9.975-22.23 22.235s9.973 22.235 22.23 22.235h95.241v-1.879h-95.24Z" fill="url(#G)"/><path d="M42.203 96.642c-8.805 0-15.968-7.165-15.968-15.972 0-8.807 7.163-15.972 15.968-15.972h37.423v-1.879H42.203c-9.84 0-17.847 8.008-17.847 17.851s8.006 17.851 17.847 17.851h95.241v-1.879h-95.24Z" fill="url(#H)"/><path d="M42.203 92.259c-6.388 0-11.584-5.197-11.584-11.587s5.196-11.586 11.584-11.586h37.423v-1.88H42.203c-7.422 0-13.462 6.042-13.462 13.466 0 7.426 6.04 13.466 13.462 13.466h95.241v-1.88h-95.24Z" fill="url(#I)"/><path d="M42.203 87.875c-3.97 0-7.201-3.23-7.201-7.203 0-3.97 3.231-7.203 7.201-7.203h37.423V71.59H42.203c-5.006 0-9.08 4.075-9.08 9.082 0 5.01 4.074 9.082 9.08 9.082h95.241v-1.879h-95.24Z" fill="url(#J)"/><path d="M101.533 37.894V87.87h1.878V37.894c0-17.096-13.904-31.004-30.997-31.004H.504v1.88h71.91c16.057 0 29.119 13.066 29.119 29.124Z" fill="url(#K)"/><path d="M97.15 37.894V87.87h1.879V37.894c0-14.677-11.938-26.62-26.614-26.62H.505v1.879h71.91c13.64.002 24.735 11.1 24.735 24.741Z" fill="url(#L)"/><path d="M92.768 37.894V87.87h1.879V37.894c0-12.26-9.973-22.235-22.23-22.235H.504v1.88h71.91c11.224 0 20.354 9.131 20.354 20.355Z" fill="url(#M)"/><path d="M88.383 37.894V87.87h1.879V37.894c0-9.843-8.007-17.851-17.847-17.851H.505v1.879h71.91c8.804.002 15.968 7.165 15.968 15.972Z" fill="url(#N)"/><path d="M84 37.894V87.87h1.88V37.894c0-7.424-6.041-13.465-13.463-13.465H.504v1.879h71.91c6.389 0 11.587 5.198 11.587 11.586Z" fill="url(#O)"/><path d="M79.616 37.894V87.87h1.879V37.894c0-5.007-4.074-9.082-9.08-9.082H.505v1.88h71.91c3.971 0 7.201 3.231 7.201 7.202Z" fill="url(#P)"/><path d="M25.45 147.393a7.209 7.209 0 0 1 7.202 7.203c0 3.973-3.23 7.203-7.201 7.203H.504v1.879h24.947c5.006 0 9.08-4.075 9.08-9.082 0-5.007-4.074-9.082-9.08-9.082H.504v1.879h24.947Z" fill="url(#Q)"/><path d="M25.45 143.007c6.39 0 11.585 5.199 11.585 11.587 0 6.39-5.196 11.586-11.584 11.586H.504v1.879h24.947c7.424 0 13.462-6.041 13.462-13.465 0-7.426-6.04-13.466-13.462-13.466H.504v1.879h24.947Z" fill="url(#R)"/><path d="M25.45 138.624c8.805 0 15.97 7.165 15.97 15.972 0 8.807-7.165 15.972-15.97 15.972H.505v1.879h24.947c9.84 0 17.847-8.008 17.847-17.851s-8.006-17.851-17.847-17.851H.504v1.879h24.947Z" fill="url(#S)"/><path d="M25.45 134.24c11.222 0 20.352 9.132 20.352 20.356 0 11.224-9.13 20.356-20.351 20.356H.504v1.879h24.947c12.257 0 22.23-9.975 22.23-22.235s-9.973-22.235-22.23-22.235H.504v1.879h24.947Z" fill="url(#T)"/><path d="M25.45 129.855c13.64 0 24.737 11.098 24.737 24.741 0 13.643-11.096 24.741-24.736 24.741H.504v1.879h24.947c14.674 0 26.614-11.941 26.614-26.62s-11.938-26.62-26.614-26.62H.504v1.879h24.947Z" fill="url(#U)"/><path d="M25.45 125.471c16.057 0 29.12 13.065 29.12 29.125 0 16.06-13.063 29.125-29.12 29.125H.505v1.879h24.947c17.092 0 30.997-13.908 30.997-31.004 0-17.096-13.905-31.004-30.997-31.004H.504v1.879h24.947Z" fill="url(#V)"/><path d="M137.571 54.037c17.898 0 32.459-14.564 32.459-32.465V0h-1.879v21.572c0 16.864-13.719 30.586-30.58 30.586-16.861 0-30.58-13.722-30.58-30.586V0h-1.878v21.572c0 17.9 14.561 32.465 32.458 32.465Z" fill="url(#W)"/><path d="M137.571 49.654c15.481 0 28.076-12.598 28.076-28.082V0h-1.878v21.572c0 14.447-11.751 26.203-26.198 26.203-14.444 0-26.195-11.754-26.195-26.203V0h-1.878v21.572c0 15.484 12.593 28.082 28.073 28.082Z" fill="url(#X)"/><path d="M137.571 45.268c13.065 0 23.692-10.63 23.692-23.696V0h-1.879v21.572c0 12.03-9.785 21.817-21.813 21.817-12.028 0-21.812-9.787-21.812-21.817V0h-1.879v21.572c0 13.067 10.629 23.696 23.691 23.696Z" fill="url(#Y)"/><path d="M137.571 40.885c10.646 0 19.309-8.663 19.309-19.313V0h-1.878v21.572c0 9.613-7.819 17.434-17.431 17.434-9.609 0-17.43-7.82-17.43-17.434V0h-1.878v21.572c.002 10.648 8.663 19.313 19.308 19.313Z" fill="url(#Z)"/><path d="M137.571 36.499c8.23 0 14.925-6.696 14.925-14.927V0h-1.879v21.572c0 7.194-5.852 13.048-13.046 13.048-7.193 0-13.045-5.854-13.045-13.048V0h-1.879v21.572c0 8.23 6.695 14.927 14.924 14.927Z" fill="url(#aa)"/><path d="M137.571 32.115c5.813 0 10.542-4.73 10.542-10.543V0h-1.879v21.572c0 4.777-3.886 8.665-8.663 8.665-4.776 0-8.663-3.888-8.663-8.665L128.909 0h-1.879v21.572c.002 5.814 4.731 10.543 10.541 10.543Z" fill="url(#ab)"/><path d="M27.744 353.075v-53.609c0-3.971 3.23-7.203 7.202-7.203s7.201 3.232 7.201 7.203v17.459h1.879v-17.459c0-5.007-4.074-9.082-9.08-9.082s-9.08 4.075-9.08 9.082v53.609c0 4.228-.913 8.244-2.54 11.873h2.052a30.835 30.835 0 0 0 2.366-11.873Z" fill="url(#ac)"/><path d="M10.21 353.075v-53.609c0-13.641 11.096-24.742 24.736-24.742s24.736 11.099 24.736 24.742v17.517h1.878v-17.517c0-14.677-11.938-26.621-26.614-26.621-14.674 0-26.615 11.941-26.615 26.621v53.609c0 5.072-3.28 9.385-7.827 10.949v.922H3.09c4.232-2.271 7.12-6.738 7.12-11.871Z" fill="url(#ad)"/><path d="M5.827 353.075v-53.609c0-16.06 13.063-29.125 29.119-29.125 16.056 0 29.118 13.065 29.118 29.125v17.459h1.879v-17.459c0-17.097-13.905-31.004-30.997-31.004-17.093 0-30.997 13.909-30.997 31.004v53.609a7.197 7.197 0 0 1-3.445 6.134v2.125c3.136-1.433 5.323-4.592 5.323-8.259Z" fill="url(#ae)"/><path d="M23.362 299.466c0-6.39 5.196-11.587 11.584-11.587s11.584 5.197 11.584 11.587v17.459h1.878v-17.459c0-7.424-6.04-13.466-13.462-13.466-7.425 0-13.463 6.042-13.463 13.466v53.609a24.61 24.61 0 0 1-3.04 11.873h2.117a26.472 26.472 0 0 0 2.804-11.873v-53.609h-.002Z" fill="url(#af)"/><path d="M18.977 299.466c0-8.807 7.164-15.973 15.969-15.973s15.969 7.166 15.969 15.973v17.459h1.878v-17.459c0-9.844-8.006-17.851-17.847-17.851-9.841 0-17.847 8.007-17.847 17.851v53.609a20.24 20.24 0 0 1-3.837 11.873h2.267a22.111 22.111 0 0 0 3.448-11.873v-53.609Z" fill="url(#ag)"/><path d="M14.595 299.466c0-11.224 9.13-20.356 20.351-20.356 11.221 0 20.351 9.132 20.351 20.356v17.459h1.879v-17.459c0-12.261-9.973-22.235-22.23-22.235s-22.23 9.974-22.23 22.235v53.609c0 4.709-2.05 8.947-5.3 11.873h2.646a17.785 17.785 0 0 0 4.535-11.873v-53.609h-.002Z" fill="url(#ah)"/><path d="M180.05 355.011v-56.484c0-5.007-4.074-9.082-9.08-9.082h-1.455v1.879h1.455c3.972 0 7.202 3.233 7.202 7.203v56.486c0 3.476.584 6.815 1.643 9.937h1.983a28.998 28.998 0 0 1-1.748-9.939Z" fill="url(#ai)"/><path d="M184.433 355.011v-56.484c0-7.424-6.04-13.465-13.462-13.465h-1.456v1.879h1.456c6.388 0 11.584 5.196 11.584 11.586v56.486c0 3.512.69 6.863 1.93 9.937h2.037a24.644 24.644 0 0 1-2.089-9.939Z" fill="url(#aj)"/><path d="M188.818 355.011v-56.484c0-9.843-8.007-17.851-17.848-17.851h-1.455v1.879h1.455c8.805 0 15.969 7.165 15.969 15.972v56.486c0 3.57.851 6.944 2.352 9.937h2.126a20.233 20.233 0 0 1-2.599-9.939Z" fill="url(#ak)"/><path d="M193.2 355.011v-56.484c0-12.26-9.972-22.235-22.23-22.235h-1.455v1.879h1.455c11.222 0 20.352 9.132 20.352 20.356v56.486a17.76 17.76 0 0 0 3.027 9.937h2.331a15.905 15.905 0 0 1-3.48-9.939Z" fill="url(#al)"/><path d="M197.585 355.011v-56.484c0-14.677-11.939-26.62-26.615-26.62h-1.455v1.879h1.455c13.64 0 24.736 11.098 24.736 24.741v56.486c0 3.935 1.708 7.472 4.408 9.937h3.125c-3.379-2.029-5.654-5.719-5.654-9.939Z" fill="url(#am)"/><path d="M201.967 355.011v-56.484c0-17.096-13.904-31.004-30.997-31.004h-1.455v1.879h1.455c16.057 0 29.119 13.065 29.119 29.125v56.486c0 4.951 3.982 8.982 8.911 9.073v-1.879c-3.893-.091-7.033-3.28-7.033-7.196Z" fill="url(#an)"/><path d="M161.24 120.779h3.726c1.882 0 2.9 0 3.475-.056v.056c5.006 0 9.08-4.075 9.08-9.082V85.903c0-5.01-4.074-9.083-9.08-9.083s-9.08 4.073-9.08 9.082v57.112c0 5.007 4.074 9.082 9.08 9.082H209v-1.879h-40.559c-3.971 0-7.201-3.233-7.201-7.203V85.902c0-3.972 3.23-7.203 7.201-7.203 3.972 0 7.202 3.23 7.202 7.204v25.794c0 3.971-3.23 7.203-7.202 7.203h-7.201" fill="url(#ao)"/><path d="M156.857 143.014V85.902c0-6.39 5.198-11.586 11.584-11.586 6.387 0 11.584 5.199 11.584 11.586v25.795c0 6.39-5.197 11.587-11.584 11.587h-7.201v1.878h3.726c1.882 0 2.9 0 3.475-.056v.056c7.425 0 13.463-6.041 13.463-13.465V85.902c0-7.426-6.04-13.465-13.463-13.465-7.422 0-13.462 6.041-13.462 13.465v57.112c0 7.424 6.04 13.465 13.462 13.465H209V154.6h-40.559c-6.388.002-11.584-5.197-11.584-11.586Z" fill="url(#ap)"/><path d="M152.473 143.014V85.902c0-8.806 7.164-15.972 15.968-15.972 8.805 0 15.969 7.166 15.969 15.972v25.795c0 8.807-7.164 15.972-15.969 15.972h-7.201v1.879h3.665c1.921 0 2.955 0 3.536-.056v.056c9.841 0 17.848-8.008 17.848-17.851V85.903c0-9.844-8.007-17.852-17.848-17.852s-17.847 8.008-17.847 17.852v57.111c0 9.843 8.006 17.851 17.847 17.851H209v-1.879h-40.559c-8.804 0-15.968-7.166-15.968-15.972Z" fill="url(#aq)"/><path d="M148.09 143.014V85.902c0-11.223 9.13-20.355 20.351-20.355 11.222 0 20.352 9.132 20.352 20.356v25.794c0 11.224-9.13 20.356-20.352 20.356h-7.057l-.144-.002v1.868l3.665.013c1.921 0 2.955 0 3.536-.059v.059c12.258 0 22.23-9.975 22.23-22.235V85.903c0-12.26-9.972-22.235-22.23-22.235-12.257 0-22.229 9.974-22.229 22.235v57.111c0 12.26 9.972 22.234 22.229 22.234H209v-1.879h-40.559c-11.221.002-20.351-9.13-20.351-20.355Z" fill="url(#ar)"/><path d="M143.705 143.014V85.902c0-13.642 11.097-24.74 24.736-24.74 13.64 0 24.736 11.1 24.736 24.74v25.795c0 13.641-11.096 24.741-24.736 24.741h-7.201v1.879h3.665c1.921 0 2.955 0 3.536-.058v.058c14.674 0 26.615-11.943 26.615-26.62V85.902c0-14.679-11.939-26.62-26.615-26.62-14.676 0-26.614 11.941-26.614 26.62v57.112c0 14.677 11.938 26.62 26.614 26.62H209v-1.879h-40.559c-13.639 0-24.736-11.099-24.736-24.741Z" fill="url(#as)"/><path d="M139.323 143.014V85.902c0-16.06 13.062-29.124 29.118-29.124 16.057 0 29.119 13.065 29.119 29.125v25.794c0 16.06-13.062 29.125-29.119 29.125h-.629c-1.775 0-6.572-.017-6.572-.017v1.879l6.05.017c.515 0 .882 0 1.151-.019v.019c17.093 0 30.997-13.908 30.997-31.004V85.903c0-17.097-13.904-31.004-30.997-31.004-17.092 0-30.997 13.91-30.997 31.004v57.111c0 17.096 13.905 31.003 30.997 31.004H209v-1.879h-40.559c-16.056 0-29.118-13.066-29.118-29.125Z" fill="url(#at)"/><path d="M129.422 291.724c0 5.008 4.074 9.083 9.081 9.083 5.006 0 9.081-4.075 9.081-9.083v-77.158c0-16.06 13.064-29.126 29.122-29.126s29.122 13.066 29.122 29.126v20.785c0 2.75 1.235 5.213 3.172 6.882v-2.776a7.155 7.155 0 0 1-1.293-4.106v-20.785c0-17.097-13.906-31.005-31.001-31.005s-31.001 13.908-31.001 31.005v77.158c0 3.971-3.23 7.204-7.202 7.204-3.973 0-7.203-3.233-7.203-7.204v-78.305c-.611.445-1.236.866-1.878 1.264v77.041Z" fill="url(#au)"/><path d="M125.177 291.585c0 7.424 6.031 13.466 13.442 13.466 7.414 0 13.442-6.042 13.442-13.466v-77.158c0-13.644 11.08-24.743 24.699-24.743 13.619 0 24.698 11.099 24.698 24.743v20.784c0 5.304 3.083 9.888 7.542 12.081v-2.133c-3.387-2.023-5.667-5.718-5.667-9.948v-20.784c0-14.68-11.92-26.622-26.573-26.622-14.652 0-26.574 11.942-26.574 26.622v77.158c0 6.39-5.19 11.587-11.567 11.587-6.378 0-11.566-5.199-11.566-11.587v-75.646c-.614.306-1.239.596-1.876.863v74.783Z" fill="url(#av)"/><path d="M120.403 291.443c0 9.844 8.03 17.852 17.9 17.852s17.9-8.008 17.9-17.852v-77.156c0-11.224 9.157-20.356 20.412-20.356 11.254 0 20.411 9.132 20.411 20.356v20.784c0 7.772 5.008 14.396 11.974 16.84v-2.008c-5.905-2.355-10.09-8.115-10.09-14.834v-20.784c0-12.261-10.002-22.236-22.295-22.236-12.294 0-22.296 9.975-22.296 22.236v77.156c0 8.807-7.185 15.973-16.016 15.973s-16.016-7.166-16.016-15.973V217.58c-.621.198-1.249.375-1.884.532v73.331Z" fill="url(#aw)"/><path d="M116.158 291.834c0 12.261 9.986 22.236 22.26 22.236 12.274 0 22.259-9.975 22.259-22.236v-77.158c0-8.807 7.174-15.973 15.99-15.973 8.817 0 15.99 7.166 15.99 15.973v20.784c0 10.215 6.934 18.837 16.343 21.433v-1.954c-8.359-2.538-14.462-10.309-14.462-19.479v-20.784c0-9.843-8.017-17.852-17.871-17.852s-17.871 8.009-17.871 17.852v77.158c0 11.224-9.142 20.357-20.378 20.357s-20.379-9.133-20.379-20.357V219.02c-.622.1-1.248.19-1.881.253v72.561Z" fill="url(#ax)"/><path d="M169.569 291.551v-77.158c0-3.973 3.225-7.204 7.191-7.204 3.965 0 7.19 3.231 7.19 7.204v20.784c0 15.074 10.798 27.667 25.05 30.434v-1.91c-13.213-2.739-23.174-14.486-23.174-28.522v-20.784c0-5.009-4.068-9.082-9.066-9.082-4.999 0-9.066 4.073-9.066 9.082v77.158c0 16.06-13.043 29.126-29.074 29.126-16.032 0-29.074-13.066-29.074-29.126V219.15h-1.876v72.403c0 17.097 13.883 31.005 30.95 31.005 17.066 0 30.949-13.91 30.949-31.007Z" fill="url(#ay)"/><path d="M111.914 219.29v72.402c0 14.678 11.937 26.622 26.61 26.622 14.671 0 26.61-11.944 26.61-26.622v-77.157c0-6.39 5.195-11.588 11.582-11.588 6.387 0 11.582 5.198 11.582 11.588v20.784c0 12.646 8.864 23.255 20.702 25.952v-1.929c-10.792-2.657-18.824-12.417-18.824-24.023v-20.784c0-7.427-6.039-13.467-13.46-13.467-7.423 0-13.46 6.042-13.46 13.467v77.157c0 13.642-11.095 24.743-24.732 24.743-13.637 0-24.732-11.099-24.732-24.743v-72.419c-.208.004-.416.017-.625.017h-1.253Z" fill="url(#az)"/><defs><linearGradient id="a" x1="192.635" y1="0" x2="192.635" y2="65.013" gradientUnits="userSpaceOnUse"><stop stop-color="#2E3192"/><stop offset="1" stop-color="#2484C6"/></linearGradient><linearGradient id="b" x1="194.826" y1="0" x2="194.826" y2="60.629" gradientUnits="userSpaceOnUse"><stop stop-color="#2E3192"/><stop offset="1" stop-color="#2484C6"/></linearGradient><linearGradient id="c" x1="197.018" y1="0" x2="197.018" y2="56.244" gradientUnits="userSpaceOnUse"><stop stop-color="#2E3192"/><stop offset="1" stop-color="#2484C6"/></linearGradient><linearGradient id="d" x1="199.21" y1="0" x2="199.21" y2="51.86" gradientUnits="userSpaceOnUse"><stop stop-color="#2E3192"/><stop offset="1" stop-color="#2484C6"/></linearGradient><linearGradient id="e" x1="201.401" y1="0" x2="201.401" y2="47.476" gradientUnits="userSpaceOnUse"><stop stop-color="#2E3192"/><stop offset="1" stop-color="#2484C6"/></linearGradient><linearGradient id="f" x1="203.593" y1="0" x2="203.593" y2="43.091" gradientUnits="userSpaceOnUse"><stop stop-color="#2E3192"/><stop offset="1" stop-color="#2484C6"/></linearGradient><linearGradient id="g" x1="63.063" y1="257.501" x2="63.063" y2="340.734" gradientUnits="userSpaceOnUse"><stop stop-color="#2E3192"/><stop offset="1" stop-color="#2484C6"/></linearGradient><linearGradient id="h" x1="60.871" y1="257.501" x2="60.871" y2="336.349" gradientUnits="userSpaceOnUse"><stop stop-color="#2E3192"/><stop offset="1" stop-color="#2484C6"/></linearGradient><linearGradient id="i" x1="58.679" y1="257.501" x2="58.679" y2="331.965" gradientUnits="userSpaceOnUse"><stop stop-color="#2E3192"/><stop offset="1" stop-color="#2484C6"/></linearGradient><linearGradient id="j" x1="56.487" y1="257.501" x2="56.487" y2="327.581" gradientUnits="userSpaceOnUse"><stop stop-color="#2E3192"/><stop offset="1" stop-color="#2484C6"/></linearGradient><linearGradient id="k" x1="54.296" y1="257.501" x2="54.296" y2="323.196" gradientUnits="userSpaceOnUse"><stop stop-color="#2E3192"/><stop offset="1" stop-color="#2484C6"/></linearGradient><linearGradient id="l" x1="52.104" y1="257.501" x2="52.104" y2="318.812" gradientUnits="userSpaceOnUse"><stop stop-color="#2E3192"/><stop offset="1" stop-color="#2484C6"/></linearGradient><linearGradient id="m" x1="99.502" y1="118.9" x2="99.502" y2="195.493" gradientUnits="userSpaceOnUse"><stop stop-color="#2E3192"/><stop offset="1" stop-color="#2484C6"/></linearGradient><linearGradient id="n" x1="101.693" y1="123.285" x2="101.693" y2="195.493" gradientUnits="userSpaceOnUse"><stop stop-color="#2E3192"/><stop offset="1" stop-color="#2484C6"/></linearGradient><linearGradient id="o" x1="103.885" y1="127.669" x2="103.885" y2="195.493" gradientUnits="userSpaceOnUse"><stop stop-color="#2E3192"/><stop offset="1" stop-color="#2484C6"/></linearGradient><linearGradient id="p" x1="106.077" y1="132.054" x2="106.077" y2="195.493" gradientUnits="userSpaceOnUse"><stop stop-color="#2E3192"/><stop offset="1" stop-color="#2484C6"/></linearGradient><linearGradient id="q" x1="108.269" y1="136.438" x2="108.269" y2="195.493" gradientUnits="userSpaceOnUse"><stop stop-color="#2E3192"/><stop offset="1" stop-color="#2484C6"/></linearGradient><linearGradient id="r" x1="110.46" y1="140.822" x2="110.46" y2="195.493" gradientUnits="userSpaceOnUse"><stop stop-color="#2E3192"/><stop offset="1" stop-color="#2484C6"/></linearGradient><linearGradient id="s" x1="63.937" y1="179.208" x2="63.937" y2="257.501" gradientUnits="userSpaceOnUse"><stop stop-color="#2E3192"/><stop offset="1" stop-color="#2484C6"/></linearGradient><linearGradient id="t" x1="68.32" y1="174.824" x2="68.32" y2="253.117" gradientUnits="userSpaceOnUse"><stop stop-color="#2E3192"/><stop offset="1" stop-color="#2484C6"/></linearGradient><linearGradient id="u" x1="72.703" y1="170.439" x2="72.703" y2="248.732" gradientUnits="userSpaceOnUse"><stop stop-color="#2E3192"/><stop offset="1" stop-color="#2484C6"/></linearGradient><linearGradient id="v" x1="77.087" y1="166.055" x2="77.087" y2="244.348" gradientUnits="userSpaceOnUse"><stop stop-color="#2E3192"/><stop offset="1" stop-color="#2484C6"/></linearGradient><linearGradient id="w" x1="81.47" y1="161.67" x2="81.47" y2="239.963" gradientUnits="userSpaceOnUse"><stop stop-color="#2E3192"/><stop offset="1" stop-color="#2484C6"/></linearGradient><linearGradient id="x" x1="85.854" y1="157.286" x2="85.854" y2="235.579" gradientUnits="userSpaceOnUse"><stop stop-color="#2E3192"/><stop offset="1" stop-color="#2484C6"/></linearGradient><linearGradient id="y" x1="132.796" y1="331.154" x2="132.796" y2="364.948" gradientUnits="userSpaceOnUse"><stop stop-color="#2E3192"/><stop offset="1" stop-color="#2484C6"/></linearGradient><linearGradient id="z" x1="134.988" y1="335.538" x2="134.988" y2="364.948" gradientUnits="userSpaceOnUse"><stop stop-color="#2E3192"/><stop offset="1" stop-color="#2484C6"/></linearGradient><linearGradient id="A" x1="137.18" y1="339.923" x2="137.18" y2="364.948" gradientUnits="userSpaceOnUse"><stop stop-color="#2E3192"/><stop offset="1" stop-color="#2484C6"/></linearGradient><linearGradient id="B" x1="139.372" y1="344.307" x2="139.372" y2="364.948" gradientUnits="userSpaceOnUse"><stop stop-color="#2E3192"/><stop offset="1" stop-color="#2484C6"/></linearGradient><linearGradient id="C" x1="141.563" y1="348.692" x2="141.563" y2="364.948" gradientUnits="userSpaceOnUse"><stop stop-color="#2E3192"/><stop offset="1" stop-color="#2484C6"/></linearGradient><linearGradient id="D" x1="143.755" y1="353.076" x2="143.755" y2="364.948" gradientUnits="userSpaceOnUse"><stop stop-color="#2E3192"/><stop offset="1" stop-color="#2484C6"/></linearGradient><linearGradient id="E" x1="74.325" y1="49.667" x2="74.325" y2="111.675" gradientUnits="userSpaceOnUse"><stop stop-color="#2E3192"/><stop offset="1" stop-color="#2484C6"/></linearGradient><linearGradient id="F" x1="76.517" y1="54.052" x2="76.517" y2="107.291" gradientUnits="userSpaceOnUse"><stop stop-color="#2E3192"/><stop offset="1" stop-color="#2484C6"/></linearGradient><linearGradient id="G" x1="78.709" y1="58.436" x2="78.709" y2="102.907" gradientUnits="userSpaceOnUse"><stop stop-color="#2E3192"/><stop offset="1" stop-color="#2484C6"/></linearGradient><linearGradient id="H" x1="80.9" y1="62.82" x2="80.9" y2="98.522" gradientUnits="userSpaceOnUse"><stop stop-color="#2E3192"/><stop offset="1" stop-color="#2484C6"/></linearGradient><linearGradient id="I" x1="83.092" y1="67.205" x2="83.092" y2="94.138" gradientUnits="userSpaceOnUse"><stop stop-color="#2E3192"/><stop offset="1" stop-color="#2484C6"/></linearGradient><linearGradient id="J" x1="85.284" y1="71.589" x2="85.284" y2="89.753" gradientUnits="userSpaceOnUse"><stop stop-color="#2E3192"/><stop offset="1" stop-color="#2484C6"/></linearGradient><linearGradient id="K" x1="51.958" y1="6.891" x2="51.958" y2="87.869" gradientUnits="userSpaceOnUse"><stop stop-color="#2E3192"/><stop offset="1" stop-color="#2484C6"/></linearGradient><linearGradient id="L" x1="49.767" y1="11.275" x2="49.767" y2="87.869" gradientUnits="userSpaceOnUse"><stop stop-color="#2E3192"/><stop offset="1" stop-color="#2484C6"/></linearGradient><linearGradient id="M" x1="47.575" y1="15.66" x2="47.575" y2="87.869" gradientUnits="userSpaceOnUse"><stop stop-color="#2E3192"/><stop offset="1" stop-color="#2484C6"/></linearGradient><linearGradient id="N" x1="45.383" y1="20.044" x2="45.383" y2="87.869" gradientUnits="userSpaceOnUse"><stop stop-color="#2E3192"/><stop offset="1" stop-color="#2484C6"/></linearGradient><linearGradient id="O" x1="43.192" y1="24.429" x2="43.192" y2="87.869" gradientUnits="userSpaceOnUse"><stop stop-color="#2E3192"/><stop offset="1" stop-color="#2484C6"/></linearGradient><linearGradient id="P" x1="41" y1="28.813" x2="41" y2="87.869" gradientUnits="userSpaceOnUse"><stop stop-color="#2E3192"/><stop offset="1" stop-color="#2484C6"/></linearGradient><linearGradient id="Q" x1="17.517" y1="145.514" x2="17.517" y2="163.678" gradientUnits="userSpaceOnUse"><stop stop-color="#2E3192"/><stop offset="1" stop-color="#2484C6"/></linearGradient><linearGradient id="R" x1="19.709" y1="141.129" x2="19.709" y2="168.062" gradientUnits="userSpaceOnUse"><stop stop-color="#2E3192"/><stop offset="1" stop-color="#2484C6"/></linearGradient><linearGradient id="S" x1="21.9" y1="136.745" x2="21.9" y2="172.447" gradientUnits="userSpaceOnUse"><stop stop-color="#2E3192"/><stop offset="1" stop-color="#2484C6"/></linearGradient><linearGradient id="T" x1="24.092" y1="132.361" x2="24.092" y2="176.831" gradientUnits="userSpaceOnUse"><stop stop-color="#2E3192"/><stop offset="1" stop-color="#2484C6"/></linearGradient><linearGradient id="U" x1="26.284" y1="127.976" x2="26.284" y2="181.215" gradientUnits="userSpaceOnUse"><stop stop-color="#2E3192"/><stop offset="1" stop-color="#2484C6"/></linearGradient><linearGradient id="V" x1="28.476" y1="123.592" x2="28.476" y2="185.6" gradientUnits="userSpaceOnUse"><stop stop-color="#2E3192"/><stop offset="1" stop-color="#2484C6"/></linearGradient><linearGradient id="W" x1="137.572" y1="0" x2="137.572" y2="54.038" gradientUnits="userSpaceOnUse"><stop stop-color="#2E3192"/><stop offset="1" stop-color="#2484C6"/></linearGradient><linearGradient id="X" x1="137.572" y1="0" x2="137.572" y2="49.653" gradientUnits="userSpaceOnUse"><stop stop-color="#2E3192"/><stop offset="1" stop-color="#2484C6"/></linearGradient><linearGradient id="Y" x1="137.572" y1="0" x2="137.572" y2="45.269" gradientUnits="userSpaceOnUse"><stop stop-color="#2E3192"/><stop offset="1" stop-color="#2484C6"/></linearGradient><linearGradient id="Z" x1="137.572" y1="0" x2="137.572" y2="40.884" gradientUnits="userSpaceOnUse"><stop stop-color="#2E3192"/><stop offset="1" stop-color="#2484C6"/></linearGradient><linearGradient id="aa" x1="137.572" y1="0" x2="137.572" y2="36.5" gradientUnits="userSpaceOnUse"><stop stop-color="#2E3192"/><stop offset="1" stop-color="#2484C6"/></linearGradient><linearGradient id="ab" x1="137.572" y1="0" x2="137.572" y2="32.115" gradientUnits="userSpaceOnUse"><stop stop-color="#2E3192"/><stop offset="1" stop-color="#2484C6"/></linearGradient><linearGradient id="ac" x1="33.676" y1="290.384" x2="33.676" y2="364.948" gradientUnits="userSpaceOnUse"><stop stop-color="#2E3192"/><stop offset="1" stop-color="#2484C6"/></linearGradient><linearGradient id="ad" x1="31.032" y1="272.846" x2="31.032" y2="364.948" gradientUnits="userSpaceOnUse"><stop stop-color="#2E3192"/><stop offset="1" stop-color="#2484C6"/></linearGradient><linearGradient id="ae" x1="33.224" y1="268.462" x2="33.224" y2="361.333" gradientUnits="userSpaceOnUse"><stop stop-color="#2E3192"/><stop offset="1" stop-color="#2484C6"/></linearGradient><linearGradient id="af" x1="33.425" y1="286" x2="33.425" y2="364.948" gradientUnits="userSpaceOnUse"><stop stop-color="#2E3192"/><stop offset="1" stop-color="#2484C6"/></linearGradient><linearGradient id="ag" x1="33.028" y1="281.615" x2="33.028" y2="364.948" gradientUnits="userSpaceOnUse"><stop stop-color="#2E3192"/><stop offset="1" stop-color="#2484C6"/></linearGradient><linearGradient id="ah" x1="32.296" y1="277.231" x2="32.296" y2="364.948" gradientUnits="userSpaceOnUse"><stop stop-color="#2E3192"/><stop offset="1" stop-color="#2484C6"/></linearGradient><linearGradient id="ai" x1="175.656" y1="289.445" x2="175.656" y2="364.948" gradientUnits="userSpaceOnUse"><stop stop-color="#2E3192"/><stop offset="1" stop-color="#2484C6"/></linearGradient><linearGradient id="aj" x1="178.019" y1="285.06" x2="178.019" y2="364.948" gradientUnits="userSpaceOnUse"><stop stop-color="#2E3192"/><stop offset="1" stop-color="#2484C6"/></linearGradient><linearGradient id="ak" x1="180.465" y1="280.676" x2="180.465" y2="364.948" gradientUnits="userSpaceOnUse"><stop stop-color="#2E3192"/><stop offset="1" stop-color="#2484C6"/></linearGradient><linearGradient id="al" x1="183.098" y1="276.291" x2="183.098" y2="364.948" gradientUnits="userSpaceOnUse"><stop stop-color="#2E3192"/><stop offset="1" stop-color="#2484C6"/></linearGradient><linearGradient id="am" x1="186.377" y1="271.907" x2="186.377" y2="364.948" gradientUnits="userSpaceOnUse"><stop stop-color="#2E3192"/><stop offset="1" stop-color="#2484C6"/></linearGradient><linearGradient id="an" x1="189.258" y1="267.523" x2="189.258" y2="364.085" gradientUnits="userSpaceOnUse"><stop stop-color="#2E3192"/><stop offset="1" stop-color="#2484C6"/></linearGradient><linearGradient id="ao" x1="184.181" y1="76.821" x2="184.181" y2="152.097" gradientUnits="userSpaceOnUse"><stop stop-color="#2E3192"/><stop offset="1" stop-color="#2484C6"/></linearGradient><linearGradient id="ap" x1="181.989" y1="72.437" x2="181.989" y2="156.481" gradientUnits="userSpaceOnUse"><stop stop-color="#2E3192"/><stop offset="1" stop-color="#2484C6"/></linearGradient><linearGradient id="aq" x1="179.797" y1="68.053" x2="179.797" y2="160.865" gradientUnits="userSpaceOnUse"><stop stop-color="#2E3192"/><stop offset="1" stop-color="#2484C6"/></linearGradient><linearGradient id="ar" x1="177.606" y1="63.668" x2="177.606" y2="165.25" gradientUnits="userSpaceOnUse"><stop stop-color="#2E3192"/><stop offset="1" stop-color="#2484C6"/></linearGradient><linearGradient id="as" x1="175.414" y1="59.284" x2="175.414" y2="169.634" gradientUnits="userSpaceOnUse"><stop stop-color="#2E3192"/><stop offset="1" stop-color="#2484C6"/></linearGradient><linearGradient id="at" x1="173.222" y1="54.899" x2="173.222" y2="174.019" gradientUnits="userSpaceOnUse"><stop stop-color="#2E3192"/><stop offset="1" stop-color="#2484C6"/></linearGradient><linearGradient id="au" x1="169.211" y1="183.562" x2="169.211" y2="300.808" gradientUnits="userSpaceOnUse"><stop stop-color="#2E3192"/><stop offset="1" stop-color="#2484C6"/></linearGradient><linearGradient id="av" x1="167.088" y1="187.807" x2="167.088" y2="305.053" gradientUnits="userSpaceOnUse"><stop stop-color="#2E3192"/><stop offset="1" stop-color="#2484C6"/></linearGradient><linearGradient id="aw" x1="164.701" y1="192.052" x2="164.701" y2="309.296" gradientUnits="userSpaceOnUse"><stop stop-color="#2E3192"/><stop offset="1" stop-color="#2484C6"/></linearGradient><linearGradient id="ax" x1="162.579" y1="196.825" x2="162.579" y2="314.071" gradientUnits="userSpaceOnUse"><stop stop-color="#2E3192"/><stop offset="1" stop-color="#2484C6"/></linearGradient><linearGradient id="ay" x1="158.335" y1="205.311" x2="158.335" y2="322.557" gradientUnits="userSpaceOnUse"><stop stop-color="#2E3192"/><stop offset="1" stop-color="#2484C6"/></linearGradient><linearGradient id="az" x1="160.457" y1="201.068" x2="160.457" y2="318.314" gradientUnits="userSpaceOnUse"><stop stop-color="#2E3192"/><stop offset="1" stop-color="#2484C6"/></linearGradient></defs></svg>