<svg width="473" height="827" fill="none" xmlns="http://www.w3.org/2000/svg"><path d="M473 826.051V-2H0v828.051h473Z" fill="#020101"/><path d="M469.065 145.49H473v-4.262h-3.935c-36.426 0-66.06-29.64-66.06-66.074V-2h-4.261v77.154c0 38.785 31.549 70.336 70.321 70.336Z" fill="url(#a)"/><path d="M469.065 135.546H473v-4.263h-3.935c-30.944 0-56.117-25.179-56.117-56.13V-2h-4.262v77.154c.005 33.302 27.089 60.392 60.379 60.392Z" fill="url(#b)"/><path d="M469.065 125.596H473v-4.262h-3.935c-25.457 0-46.17-20.718-46.17-46.18V-2h-4.262v77.154c0 27.814 22.624 50.442 50.432 50.442Z" fill="url(#c)"/><path d="M469.065 115.652H473v-4.263h-3.935c-19.975 0-36.227-16.256-36.227-36.235V-2h-4.262v77.154c.005 22.33 18.168 40.498 40.489 40.498Z" fill="url(#d)"/><path d="M469.065 105.707H473v-4.263h-3.935c-14.493 0-26.28-11.794-26.28-26.285V-2h-4.262v77.154c0 16.847 13.703 30.553 30.542 30.553Z" fill="url(#e)"/><path d="M469.065 95.757H473v-4.262h-3.935c-9.011 0-16.338-7.333-16.338-16.341V-2h-4.262v77.154c0 11.36 9.243 20.603 20.6 20.603Z" fill="url(#f)"/><path d="M222.036 700.664V582.175h-4.262v118.489c0 36.433-29.634 66.073-66.059 66.073H61.802V771h89.913c38.776 0 70.321-31.551 70.321-70.336Z" fill="url(#g)"/><path d="M212.093 700.664V582.175h-4.262v118.489c0 30.95-25.173 56.129-56.116 56.129H61.802v4.262h89.913c33.294 0 60.378-27.094 60.378-60.391Z" fill="url(#h)"/><path d="M202.151 700.664V582.175h-4.262v118.489c0 25.462-20.713 46.179-46.17 46.179H61.807v4.263h89.908c27.812 0 50.436-22.628 50.436-50.442Z" fill="url(#i)"/><path d="M192.203 700.664V582.175h-4.261v118.489c0 19.979-16.253 36.235-36.227 36.235H61.802v4.262h89.913c22.325 0 40.488-18.167 40.488-40.497Z" fill="url(#j)"/><path d="M182.261 700.664V582.175h-4.262v118.489c0 14.496-11.787 26.285-26.28 26.285H61.807v4.263h89.908c16.843 0 30.546-13.701 30.546-30.548Z" fill="url(#k)"/><path d="M172.314 700.664V582.175h-4.262v118.489c0 9.012-7.327 16.341-16.337 16.341H61.802v4.262h89.913c11.361 0 20.599-9.244 20.599-20.603Z" fill="url(#l)"/><path d="M208.834 272.003h101.832v-4.263H208.834c-38.776 0-70.321 31.552-70.321 70.337v103.425h4.262V338.077c0-36.434 29.633-66.074 66.059-66.074Z" fill="url(#m)"/><path d="M208.834 281.952h101.832v-4.262H208.834c-33.29 0-60.378 27.09-60.378 60.392v103.425h4.262v-103.43c0-30.951 25.173-56.125 56.116-56.125Z" fill="url(#n)"/><path d="M208.834 291.897h101.832v-4.263H208.834c-27.807 0-50.431 22.629-50.431 50.443v103.425h4.262V338.077c0-25.463 20.712-46.18 46.169-46.18Z" fill="url(#o)"/><path d="M208.834 301.842h101.832v-4.263H208.834c-22.325 0-40.489 18.167-40.489 40.498v103.425h4.262V338.077c0-19.979 16.252-36.235 36.227-36.235Z" fill="url(#p)"/><path d="M208.834 311.791h101.832v-4.263H208.834c-16.843 0-30.541 13.706-30.541 30.549v103.425h4.261V338.077c-.004-14.496 11.788-26.286 26.28-26.286Z" fill="url(#q)"/><path d="M208.834 321.736h101.832v-4.263H208.834c-11.356 0-20.599 9.24-20.599 20.604v103.425h4.262V338.077c0-9.013 7.327-16.341 16.337-16.341Z" fill="url(#r)"/><path d="M81.976 577.912c-36.426 0-66.06-29.64-66.06-66.074 0-36.433 29.634-66.073 66.06-66.073h173.576c11.357 0 20.6-9.24 20.6-20.604 0-11.359-9.243-20.604-20.6-20.604h-63.046v4.263h63.046c9.011 0 16.338 7.333 16.338 16.341 0 9.013-7.327 16.341-16.338 16.341H81.976c-38.777 0-70.321 31.556-70.321 70.336 0 38.785 31.544 70.337 70.32 70.337h160.792v-4.263H81.976Z" fill="url(#s)"/><path d="M81.976 567.967c-30.944 0-56.117-25.178-56.117-56.129 0-30.945 25.173-56.129 56.117-56.129h173.576c16.844 0 30.542-13.705 30.542-30.548 0-16.842-13.703-30.548-30.542-30.548h-63.046v4.262h63.046c14.493 0 26.28 11.795 26.28 26.286 0 14.496-11.792 26.286-26.28 26.286H81.976c-33.295 0-60.379 27.094-60.379 60.391 0 33.302 27.084 60.392 60.379 60.392h160.791v-4.263H81.976Z" fill="url(#t)"/><path d="M81.976 558.018c-25.457 0-46.17-20.717-46.17-46.18 0-25.462 20.713-46.179 46.17-46.179h173.576c22.326 0 40.489-18.167 40.489-40.498 0-22.33-18.163-40.498-40.489-40.498h-63.046v4.263h63.046c19.975 0 36.228 16.256 36.228 36.235s-16.253 36.235-36.228 36.235H81.976c-27.808 0-50.432 22.629-50.432 50.442 0 27.814 22.624 50.443 50.432 50.443h160.791v-4.263H81.976Z" fill="url(#u)"/><path d="M81.976 548.073c-19.975 0-36.227-16.255-36.227-36.235 0-19.979 16.252-36.235 36.227-36.235h173.576c27.808 0 50.432-22.628 50.432-50.442s-22.624-50.442-50.432-50.442h-63.046v4.262h63.046c25.457 0 46.17 20.718 46.17 46.18 0 25.463-20.713 46.18-46.17 46.18H81.976c-22.326 0-40.49 18.167-40.49 40.497 0 22.331 18.164 40.498 40.49 40.498h160.791v-4.263H81.976Z" fill="url(#v)"/><path d="M81.976 538.124c-14.493 0-26.28-11.794-26.28-26.286 0-14.495 11.787-26.285 26.28-26.285h173.576c33.29 0 60.379-27.09 60.379-60.392 0-33.297-27.084-60.392-60.379-60.392h-63.046v4.263h63.046c30.944 0 56.117 25.179 56.117 56.129 0 30.951-25.173 56.129-56.117 56.129H81.976c-16.844 0-30.542 13.706-30.542 30.548 0 16.848 13.703 30.549 30.542 30.549h160.791v-4.263H81.976Z" fill="url(#w)"/><path d="M81.976 528.179c-9.011 0-16.338-7.328-16.338-16.341 0-9.007 7.327-16.341 16.338-16.341h173.576c38.777 0 70.321-31.551 70.321-70.336s-31.544-70.336-70.321-70.336h-63.046v4.262h63.046c36.426 0 66.06 29.64 66.06 66.074s-29.634 66.074-66.06 66.074H81.976c-11.362 0-20.6 9.244-20.6 20.603 0 11.364 9.238 20.604 20.6 20.604h160.791v-4.262l-160.791-.001Z" fill="url(#x)"/><path d="M201.437 819.602c0-36.434 29.633-66.074 66.059-66.074h135.571v-4.262H267.496c-38.777 0-70.321 31.551-70.321 70.336 0 2.134.113 4.244.298 6.33h4.271a68.222 68.222 0 0 1-.307-6.33Z" fill="url(#y)"/><path d="M211.384 819.602c0-30.95 25.173-56.129 56.116-56.129h135.567v-4.263H267.496c-33.29 0-60.379 27.09-60.379 60.392 0 2.139.118 4.249.331 6.33h4.295a58.262 58.262 0 0 1-.359-6.33Z" fill="url(#z)"/><path d="M221.326 819.602c0-25.462 20.713-46.18 46.17-46.18h135.571v-4.262H267.496c-27.808 0-50.432 22.628-50.432 50.442 0 2.143.152 4.253.412 6.33h4.295a46.556 46.556 0 0 1-.445-6.33Z" fill="url(#A)"/><path d="M231.273 819.602c0-19.979 16.253-36.235 36.227-36.235h135.567v-4.263H267.496c-22.326 0-40.489 18.168-40.489 40.498 0 2.153.175 4.267.501 6.33h4.328a36.276 36.276 0 0 1-.563-6.33Z" fill="url(#B)"/><path d="M241.216 819.602c0-14.496 11.792-26.286 26.28-26.286h135.571v-4.262H267.496c-16.844 0-30.542 13.706-30.542 30.548a30.7 30.7 0 0 0 .667 6.33h4.394c-.501-2.029-.799-4.144-.799-6.33Z" fill="url(#C)"/><path d="M251.163 819.602c0-9.013 7.327-16.341 16.337-16.341h135.567v-4.263H267.496c-11.357 0-20.599 9.24-20.599 20.604 0 2.209.359 4.334 1.002 6.33h4.532a16.388 16.388 0 0 1-1.268-6.33Z" fill="url(#D)"/><path d="M94.6 247.089c-36.426 0-66.06-29.64-66.06-66.073 0-36.434 29.634-66.074 66.06-66.074h84.899v-4.263H94.6c-38.776 0-70.32 31.552-70.32 70.337 0 38.785 31.548 70.336 70.32 70.336h216.066v-4.263H94.6Z" fill="url(#E)"/><path d="M94.6 237.14c-30.944 0-56.117-25.179-56.117-56.129 0-30.946 25.173-56.129 56.117-56.129h84.899v-4.263H94.6c-33.29 0-60.378 27.095-60.378 60.392 0 33.302 27.084 60.392 60.378 60.392h216.066v-4.263H94.6Z" fill="url(#F)"/><path d="M94.6 227.195c-25.457 0-46.17-20.717-46.17-46.179 0-25.463 20.713-46.18 46.17-46.18h84.899v-4.263H94.6c-27.808 0-50.431 22.629-50.431 50.443 0 27.813 22.623 50.442 50.431 50.442h216.066v-4.263H94.6Z" fill="url(#G)"/><path d="M94.6 217.246c-19.975 0-36.227-16.256-36.227-36.235s16.252-36.235 36.227-36.235h84.899v-4.263H94.6c-22.326 0-40.489 18.167-40.489 40.498 0 22.33 18.163 40.498 40.489 40.498h216.066v-4.263H94.6Z" fill="url(#H)"/><path d="M94.6 207.301c-14.493 0-26.28-11.789-26.28-26.285S80.107 154.73 94.6 154.73h84.899v-4.263H94.6c-16.839 0-30.542 13.706-30.542 30.549 0 16.847 13.703 30.548 30.542 30.548h216.066v-4.263H94.6Z" fill="url(#I)"/><path d="M94.6 197.357c-9.006 0-16.337-7.329-16.337-16.341 0-9.008 7.331-16.341 16.337-16.341h84.899v-4.263H94.6c-11.357 0-20.6 9.244-20.6 20.604 0 11.364 9.243 20.603 20.6 20.603h216.066v-4.262H94.6Z" fill="url(#J)"/><path d="M229.197 83.968v113.374h4.262V83.968c0-38.785-31.545-70.337-70.321-70.337H0v4.263h163.138c36.425 0 66.059 29.645 66.059 66.074Z" fill="url(#K)"/><path d="M219.254 83.968v113.374h4.262V83.968c0-33.297-27.084-60.392-60.378-60.392H0v4.263h163.138c30.943.005 56.116 25.183 56.116 56.129Z" fill="url(#L)"/><path d="M209.312 83.968v113.374h4.262V83.968c0-27.814-22.624-50.443-50.432-50.443H0v4.263h163.138c25.461 0 46.174 20.717 46.174 46.18Z" fill="url(#M)"/><path d="M199.365 83.968v113.374h4.261V83.968c0-22.33-18.163-40.498-40.488-40.498H0v4.263h163.138c19.974.005 36.227 16.256 36.227 36.235Z" fill="url(#N)"/><path d="M189.422 83.968v113.374h4.262V83.968c0-16.843-13.703-30.549-30.542-30.549H0v4.263h163.138c14.492 0 26.284 11.795 26.284 26.286Z" fill="url(#O)"/><path d="M179.475 83.968v113.374h4.262V83.968c0-11.36-9.243-20.604-20.599-20.604H0v4.263h163.138c9.01 0 16.337 7.333 16.337 16.34Z" fill="url(#P)"/><path d="M56.594 332.381c9.011 0 16.338 7.328 16.338 16.341 0 9.012-7.327 16.341-16.338 16.341H0v4.262h56.594c11.357 0 20.6-9.244 20.6-20.603 0-11.36-9.243-20.604-20.6-20.604H0v4.263h56.594Z" fill="url(#Q)"/><path d="M56.594 322.431c14.493 0 26.28 11.795 26.28 26.286 0 14.496-11.787 26.285-26.28 26.285H0v4.263h56.594c16.844 0 30.542-13.706 30.542-30.548 0-16.847-13.703-30.548-30.542-30.548L0 318.168v4.263h56.594Z" fill="url(#R)"/><path d="M56.594 312.487c19.975 0 36.227 16.255 36.227 36.235 0 19.979-16.252 36.235-36.227 36.235H0v4.262h56.594c22.326 0 40.49-18.167 40.49-40.497 0-22.331-18.164-40.498-40.49-40.498H0v4.262l56.594.001Z" fill="url(#S)"/><path d="M56.594 302.542c25.457 0 46.17 20.717 46.17 46.18 0 25.462-20.713 46.179-46.17 46.179H0v4.263h56.594c27.808 0 50.432-22.629 50.432-50.442 0-27.814-22.624-50.443-50.431-50.443H0v4.263h56.594Z" fill="url(#T)"/><path d="M56.594 292.592c30.944 0 56.117 25.179 56.117 56.13 0 30.95-25.173 56.129-56.117 56.129H0v4.262h56.594c33.29 0 60.379-27.09 60.379-60.391 0-33.302-27.084-60.392-60.379-60.392H0v4.262h56.594Z" fill="url(#U)"/><path d="M56.594 282.648c36.426 0 66.06 29.64 66.06 66.074 0 36.433-29.634 66.073-66.06 66.073H0v4.263h56.594c38.777 0 70.321-31.551 70.321-70.336s-31.544-70.337-70.32-70.337H0v4.263h56.594Z" fill="url(#V)"/><path d="M310.955 120.591c40.602 0 73.637-33.042 73.637-73.653V-2h-4.262v48.938c0 38.26-31.124 69.39-69.375 69.39-38.252 0-69.375-31.13-69.375-69.39V-2h-4.262v48.938c0 40.611 33.035 73.653 73.637 73.653Z" fill="url(#W)"/><path d="M310.955 110.646c35.12 0 63.694-28.58 63.694-63.708V-2h-4.262v48.938c0 32.777-26.658 59.445-59.432 59.445-32.77 0-59.428-26.664-59.428-59.445V-2h-4.262v48.938c0 35.128 28.57 63.708 63.69 63.708Z" fill="url(#X)"/><path d="M310.955 100.697c29.638 0 53.747-24.114 53.747-53.76V-2h-4.262v48.938c0 27.293-22.198 49.496-49.485 49.496S261.47 74.231 261.47 46.938V-2h-4.262v48.938c0 29.645 24.113 53.759 53.747 53.759Z" fill="url(#Y)"/><path d="M310.955 90.752c24.151 0 43.804-19.653 43.804-43.814V-2h-4.261v48.938c0 21.81-17.738 39.552-39.543 39.552-21.801 0-39.543-17.742-39.543-39.552V-2h-4.262v48.938c.005 24.157 19.654 43.814 43.805 43.814Z" fill="url(#Z)"/><path d="M310.955 80.803c18.669 0 33.857-15.192 33.857-33.865V-2h-4.261v48.938c0 16.322-13.278 29.602-29.596 29.602-16.319 0-29.596-13.28-29.596-29.602V-2h-4.261v48.938c0 18.673 15.188 33.865 33.857 33.865Z" fill="url(#aa)"/><path d="M310.955 70.858c13.187 0 23.915-10.73 23.915-23.92V-2h-4.262v48.938c0 10.839-8.817 19.657-19.653 19.657-10.837 0-19.653-8.818-19.653-19.657V-2h-4.262v48.938c.005 13.19 10.732 23.92 23.915 23.92Z" fill="url(#ab)"/><path d="M61.797 798.998v-121.62c0-9.008 7.327-16.341 16.338-16.341 9.01 0 16.337 7.333 16.337 16.341v39.608h4.262v-39.608c0-11.36-9.242-20.604-20.599-20.604s-20.6 9.244-20.6 20.604v121.62a65.68 65.68 0 0 1-5.76 26.934h4.654a69.953 69.953 0 0 0 5.368-26.934Z" fill="url(#ac)"/><path d="M22.018 798.998v-121.62c0-30.946 25.173-56.129 56.117-56.129s56.117 25.178 56.117 56.129v39.74h4.261v-39.74c0-33.297-27.084-60.392-60.378-60.392-33.29 0-60.379 27.09-60.379 60.392v121.62c0 11.506-7.44 21.29-17.756 24.838v2.092h5.865c9.602-5.153 16.153-15.286 16.153-26.93Z" fill="url(#ad)"/><path d="M12.076 798.998v-121.62c0-36.434 29.633-66.074 66.059-66.074s66.059 29.64 66.059 66.074v39.608h4.262v-39.608c0-38.786-31.545-70.337-70.321-70.337-38.777 0-70.321 31.556-70.321 70.337v121.62c0 5.886-3.136 11.038-7.814 13.914v4.821c7.114-3.25 12.076-10.417 12.076-18.735Z" fill="url(#ae)"/><path d="M51.855 677.378c0-14.496 11.787-26.286 26.28-26.286s26.28 11.79 26.28 26.286v39.608h4.262v-39.608c0-16.843-13.703-30.549-30.542-30.549-16.844 0-30.542 13.706-30.542 30.549v121.62a55.83 55.83 0 0 1-6.896 26.934h4.8a60.045 60.045 0 0 0 6.363-26.934v-121.62h-.005Z" fill="url(#af)"/><path d="M41.908 677.378c0-19.98 16.252-36.235 36.227-36.235 19.975 0 36.227 16.255 36.227 36.235v39.608h4.262v-39.608c0-22.331-18.163-40.498-40.489-40.498-22.326 0-40.489 18.167-40.489 40.498v121.62c0 10.044-3.235 19.346-8.703 26.934h5.141c4.943-7.801 7.824-17.032 7.824-26.934v-121.62Z" fill="url(#ag)"/><path d="M31.965 677.378c0-25.463 20.713-46.18 46.17-46.18s46.169 20.717 46.169 46.18v39.608h4.262v-39.608c0-27.814-22.623-50.443-50.431-50.443-27.808 0-50.431 22.629-50.431 50.443v121.62c0 10.683-4.65 20.297-12.024 26.934h6.002c6.39-7.163 10.288-16.601 10.288-26.934v-121.62h-.005Z" fill="url(#ah)"/><path d="M407.324 803.389v-128.14c0-11.36-9.242-20.604-20.599-20.604h-3.302v4.263h3.302c9.01 0 16.337 7.333 16.337 16.341v128.145a70.04 70.04 0 0 0 3.727 22.543h4.499a65.78 65.78 0 0 1-3.964-22.548Z" fill="url(#ai)"/><path d="M417.266 803.389v-128.14c0-16.843-13.702-30.549-30.541-30.549h-3.302v4.263h3.302c14.492 0 26.28 11.79 26.28 26.286v128.145a60.077 60.077 0 0 0 4.38 22.543h4.621a55.874 55.874 0 0 1-4.74-22.548Z" fill="url(#aj)"/><path d="M427.214 803.389v-128.14c0-22.331-18.164-40.498-40.489-40.498h-3.302v4.262h3.302c19.975 0 36.227 16.256 36.227 36.236v128.144c0 8.1 1.93 15.755 5.335 22.544h4.825a45.888 45.888 0 0 1-5.898-22.548Z" fill="url(#ak)"/><path d="M437.156 803.389v-128.14c0-27.814-22.624-50.443-50.431-50.443h-3.302v4.263h3.302c25.457 0 46.169 20.717 46.169 46.18v128.145c0 8.34 2.536 16.095 6.868 22.543h5.288c-4.933-6.198-7.894-14.028-7.894-22.548Z" fill="url(#al)"/><path d="M447.103 803.389v-128.14c0-33.298-27.084-60.392-60.378-60.392h-3.302v4.262h3.302c30.943 0 56.117 25.179 56.117 56.13v128.144c0 8.928 3.873 16.952 9.999 22.544h7.09c-7.667-4.603-12.828-12.973-12.828-22.548Z" fill="url(#am)"/><path d="M457.046 803.389v-128.14c0-38.785-31.545-70.337-70.321-70.337h-3.302v4.263h3.302c36.426 0 66.059 29.64 66.059 66.074v128.145c0 11.231 9.034 20.376 20.216 20.584v-4.262c-8.831-.208-15.954-7.442-15.954-16.327Z" fill="url(#an)"/><path d="M364.65 272.003h8.452c4.272 0 6.58 0 7.885-.128v.128c11.357 0 20.599-9.244 20.599-20.604l.001-58.518c0-11.364-9.243-20.604-20.6-20.604-11.356 0-20.599 9.24-20.599 20.604v129.564c0 11.36 9.243 20.604 20.599 20.604H473v-4.263h-92.013c-9.01 0-16.337-7.333-16.337-16.341V192.881c0-9.013 7.327-16.341 16.337-16.341 9.011 0 16.338 7.328 16.338 16.341v58.518c0 9.008-7.327 16.341-16.338 16.341H364.65" fill="url(#ao)"/><path d="M354.707 322.445V192.881c0-14.496 11.792-26.286 26.28-26.286 14.488 0 26.28 11.795 26.28 26.286v58.518c0 14.496-11.792 26.286-26.28 26.286H364.65v4.263h8.452c4.272 0 6.58 0 7.885-.128v.128c16.844 0 30.542-13.706 30.542-30.549v-58.518c0-16.847-13.703-30.548-30.542-30.548-16.838 0-30.541 13.706-30.541 30.548v129.564c0 16.843 13.703 30.549 30.541 30.549H473v-4.263h-92.013c-14.492.005-26.28-11.79-26.28-26.286Z" fill="url(#ap)"/><path d="M344.76 322.445V192.881c0-19.979 16.253-36.235 36.227-36.235 19.975 0 36.227 16.256 36.227 36.235v58.518c0 19.98-16.252 36.235-36.227 36.235H364.65v4.263h8.315c4.357 0 6.703 0 8.022-.128v.128c22.326 0 40.489-18.167 40.489-40.498v-58.518c0-22.33-18.163-40.498-40.489-40.498-22.325 0-40.488 18.168-40.488 40.498v129.564c0 22.331 18.163 40.498 40.488 40.498H473v-4.263h-92.013c-19.974 0-36.227-16.255-36.227-36.235Z" fill="url(#aq)"/><path d="M334.818 322.445V192.881c0-25.462 20.712-46.18 46.169-46.18 25.457 0 46.17 20.718 46.17 46.18v58.518c0 25.463-20.713 46.18-46.17 46.18h-16.011l-.326-.005v4.239l8.315.029c4.357 0 6.703 0 8.022-.133v.133c27.808 0 50.432-22.629 50.432-50.443v-58.518c0-27.814-22.624-50.442-50.432-50.442-27.807 0-50.431 22.628-50.431 50.442v129.564c0 27.814 22.624 50.443 50.431 50.443H473v-4.263h-92.013c-25.457.005-46.169-20.712-46.169-46.18Z" fill="url(#ar)"/><path d="M324.871 322.445V192.881c0-30.95 25.173-56.129 56.116-56.129 30.944 0 56.117 25.183 56.117 56.129v58.518c0 30.946-25.173 56.129-56.117 56.129H364.65v4.263h8.315c4.357 0 6.703 0 8.022-.132v.132c33.29 0 60.379-27.095 60.379-60.392v-58.518c0-33.302-27.084-60.392-60.379-60.392-33.294 0-60.378 27.09-60.378 60.392v129.564c0 33.297 27.084 60.392 60.378 60.392H473v-4.263h-92.013c-30.943 0-56.116-25.178-56.116-56.129Z" fill="url(#as)"/><path d="M314.928 322.445V192.881c0-36.434 29.634-66.074 66.059-66.074 36.426 0 66.06 29.64 66.06 66.074v58.518c0 36.434-29.634 66.074-66.06 66.074h-1.428c-4.025 0-14.909-.038-14.909-.038v4.263l13.726.038c1.169 0 2.001 0 2.611-.043v.043c38.777 0 70.321-31.552 70.321-70.337v-58.518c0-38.785-31.544-70.336-70.321-70.336-38.776 0-70.321 31.556-70.321 70.336v129.564c0 38.785 31.545 70.337 70.321 70.337H473v-4.263h-92.013c-36.425 0-66.059-29.64-66.059-66.074Z" fill="url(#at)"/><path d="M292.466 659.815c0 11.36 9.243 20.605 20.601 20.605 11.359 0 20.602-9.245 20.602-20.605V484.772c0-36.435 29.638-66.077 66.068-66.077 36.43 0 66.068 29.642 66.068 66.077v47.152c0 6.241 2.8 11.828 7.195 15.613v-6.297a16.224 16.224 0 0 1-2.933-9.316v-47.152c0-38.787-31.548-70.339-70.33-70.339s-70.33 31.552-70.33 70.339v175.043c0 9.009-7.328 16.342-16.34 16.342-9.011 0-16.339-7.333-16.339-16.342V482.17a69.41 69.41 0 0 1-4.262 2.867v174.778Z" fill="url(#au)"/><path d="M282.837 659.499c0 16.843 13.682 30.549 30.495 30.549 16.818 0 30.495-13.706 30.495-30.549V484.456c0-30.952 25.135-56.132 56.031-56.132 30.897 0 56.031 25.18 56.031 56.132v47.152c0 12.031 6.995 22.431 17.111 27.408v-4.84c-7.684-4.59-12.855-12.973-12.855-22.568v-47.152c0-33.304-27.043-60.395-60.287-60.395-33.239 0-60.286 27.091-60.286 60.395v175.043c0 14.496-11.774 26.287-26.24 26.287-14.47 0-26.24-11.796-26.24-26.287V487.886a71.315 71.315 0 0 1-4.255 1.959v169.654Z" fill="url(#av)"/><path d="M272.005 659.178c0 22.331 18.217 40.499 40.609 40.499 22.392 0 40.609-18.168 40.609-40.499v-175.04c0-25.463 20.774-46.181 46.306-46.181 25.533 0 46.307 20.718 46.307 46.181v47.151c0 17.633 11.362 32.66 27.164 38.205v-4.556c-13.397-5.342-22.89-18.41-22.89-33.653v-47.151c0-27.815-22.691-50.444-50.581-50.444-27.89 0-50.581 22.629-50.581 50.444v175.039c0 19.98-16.3 36.236-36.334 36.236-20.034 0-36.335-16.256-36.335-36.236V491.609a66.134 66.134 0 0 1-4.274 1.206v166.363Z" fill="url(#aw)"/><path d="M262.377 660.064c0 27.815 22.653 50.445 50.498 50.445s50.499-22.63 50.499-50.445V485.021c0-19.98 16.273-36.236 36.275-36.236 20.001 0 36.275 16.256 36.275 36.236v47.152c0 23.174 15.729 42.733 37.076 48.623v-4.433c-18.964-5.758-32.808-23.386-32.808-44.19v-47.152c0-22.331-18.188-40.499-40.543-40.499s-40.543 18.168-40.543 40.499v175.043c0 25.464-20.74 46.182-46.231 46.182-25.491 0-46.231-20.718-46.231-46.182V494.877c-1.411.227-2.832.43-4.267.572v164.615Z" fill="url(#ax)"/><path d="M383.546 659.421V484.379c0-9.013 7.316-16.342 16.313-16.342 8.996 0 16.312 7.329 16.312 16.342v47.152c0 34.197 24.497 62.765 56.829 69.043v-4.334c-29.975-6.212-52.574-32.863-52.574-64.705v-47.152c0-11.364-9.228-20.604-20.567-20.604-11.34 0-20.568 9.24-20.568 20.604v175.043c0 36.436-29.588 66.077-65.958 66.077s-65.958-29.641-65.958-66.077V495.171h-4.255v164.255c0 38.787 31.496 70.34 70.213 70.34s70.213-31.558 70.213-70.345Z" fill="url(#ay)"/><path d="M252.748 495.487v164.256c0 33.299 27.079 60.395 60.368 60.395 33.284 0 60.368-27.096 60.368-60.395V484.7c0-14.497 11.785-26.287 26.275-26.287 14.49 0 26.276 11.79 26.276 26.287v47.152c0 28.69 20.108 52.758 46.965 58.876v-4.377c-24.483-6.027-42.704-28.17-42.704-54.499V484.7c0-16.848-13.701-30.55-30.537-30.55-16.84 0-30.536 13.707-30.536 30.55v175.043c0 30.947-25.169 56.132-56.107 56.132s-56.107-25.18-56.107-56.132V495.449c-.473.01-.946.038-1.419.038h-2.842Z" fill="url(#az)"/><defs><linearGradient id="a" x1="435.873" y1="-2" x2="435.873" y2="145.491" gradientUnits="userSpaceOnUse"><stop stop-color="#2E3192"/><stop offset="1" stop-color="#2484C6"/></linearGradient><linearGradient id="b" x1="440.845" y1="-2" x2="440.845" y2="135.544" gradientUnits="userSpaceOnUse"><stop stop-color="#2E3192"/><stop offset="1" stop-color="#2484C6"/></linearGradient><linearGradient id="c" x1="445.817" y1="-2" x2="445.817" y2="125.598" gradientUnits="userSpaceOnUse"><stop stop-color="#2E3192"/><stop offset="1" stop-color="#2484C6"/></linearGradient><linearGradient id="d" x1="450.789" y1="-2" x2="450.789" y2="115.651" gradientUnits="userSpaceOnUse"><stop stop-color="#2E3192"/><stop offset="1" stop-color="#2484C6"/></linearGradient><linearGradient id="e" x1="455.762" y1="-2" x2="455.762" y2="105.705" gradientUnits="userSpaceOnUse"><stop stop-color="#2E3192"/><stop offset="1" stop-color="#2484C6"/></linearGradient><linearGradient id="f" x1="460.734" y1="-2" x2="460.734" y2="95.758" gradientUnits="userSpaceOnUse"><stop stop-color="#2E3192"/><stop offset="1" stop-color="#2484C6"/></linearGradient><linearGradient id="g" x1="141.922" y1="582.175" x2="141.922" y2="771" gradientUnits="userSpaceOnUse"><stop stop-color="#2E3192"/><stop offset="1" stop-color="#2484C6"/></linearGradient><linearGradient id="h" x1="136.95" y1="582.175" x2="136.95" y2="761.053" gradientUnits="userSpaceOnUse"><stop stop-color="#2E3192"/><stop offset="1" stop-color="#2484C6"/></linearGradient><linearGradient id="i" x1="131.977" y1="582.175" x2="131.977" y2="751.107" gradientUnits="userSpaceOnUse"><stop stop-color="#2E3192"/><stop offset="1" stop-color="#2484C6"/></linearGradient><linearGradient id="j" x1="127.005" y1="582.175" x2="127.005" y2="741.16" gradientUnits="userSpaceOnUse"><stop stop-color="#2E3192"/><stop offset="1" stop-color="#2484C6"/></linearGradient><linearGradient id="k" x1="122.033" y1="582.175" x2="122.033" y2="731.214" gradientUnits="userSpaceOnUse"><stop stop-color="#2E3192"/><stop offset="1" stop-color="#2484C6"/></linearGradient><linearGradient id="l" x1="117.061" y1="582.175" x2="117.061" y2="721.267" gradientUnits="userSpaceOnUse"><stop stop-color="#2E3192"/><stop offset="1" stop-color="#2484C6"/></linearGradient><linearGradient id="m" x1="224.589" y1="267.741" x2="224.589" y2="441.501" gradientUnits="userSpaceOnUse"><stop stop-color="#2E3192"/><stop offset="1" stop-color="#2484C6"/></linearGradient><linearGradient id="n" x1="229.561" y1="277.688" x2="229.561" y2="441.501" gradientUnits="userSpaceOnUse"><stop stop-color="#2E3192"/><stop offset="1" stop-color="#2484C6"/></linearGradient><linearGradient id="o" x1="234.533" y1="287.634" x2="234.533" y2="441.501" gradientUnits="userSpaceOnUse"><stop stop-color="#2E3192"/><stop offset="1" stop-color="#2484C6"/></linearGradient><linearGradient id="p" x1="239.506" y1="297.581" x2="239.506" y2="441.501" gradientUnits="userSpaceOnUse"><stop stop-color="#2E3192"/><stop offset="1" stop-color="#2484C6"/></linearGradient><linearGradient id="q" x1="244.478" y1="307.527" x2="244.478" y2="441.501" gradientUnits="userSpaceOnUse"><stop stop-color="#2E3192"/><stop offset="1" stop-color="#2484C6"/></linearGradient><linearGradient id="r" x1="249.45" y1="317.474" x2="249.45" y2="441.501" gradientUnits="userSpaceOnUse"><stop stop-color="#2E3192"/><stop offset="1" stop-color="#2484C6"/></linearGradient><linearGradient id="s" x1="143.904" y1="404.557" x2="143.904" y2="582.175" gradientUnits="userSpaceOnUse"><stop stop-color="#2E3192"/><stop offset="1" stop-color="#2484C6"/></linearGradient><linearGradient id="t" x1="153.848" y1="394.611" x2="153.848" y2="572.229" gradientUnits="userSpaceOnUse"><stop stop-color="#2E3192"/><stop offset="1" stop-color="#2484C6"/></linearGradient><linearGradient id="u" x1="163.793" y1="384.664" x2="163.793" y2="562.282" gradientUnits="userSpaceOnUse"><stop stop-color="#2E3192"/><stop offset="1" stop-color="#2484C6"/></linearGradient><linearGradient id="v" x1="173.737" y1="374.717" x2="173.737" y2="552.335" gradientUnits="userSpaceOnUse"><stop stop-color="#2E3192"/><stop offset="1" stop-color="#2484C6"/></linearGradient><linearGradient id="w" x1="183.682" y1="364.771" x2="183.682" y2="542.389" gradientUnits="userSpaceOnUse"><stop stop-color="#2E3192"/><stop offset="1" stop-color="#2484C6"/></linearGradient><linearGradient id="x" x1="193.626" y1="354.824" x2="193.626" y2="532.442" gradientUnits="userSpaceOnUse"><stop stop-color="#2E3192"/><stop offset="1" stop-color="#2484C6"/></linearGradient><linearGradient id="y" x1="300.122" y1="749.267" x2="300.122" y2="825.933" gradientUnits="userSpaceOnUse"><stop stop-color="#2E3192"/><stop offset="1" stop-color="#2484C6"/></linearGradient><linearGradient id="z" x1="305.094" y1="759.214" x2="305.094" y2="825.933" gradientUnits="userSpaceOnUse"><stop stop-color="#2E3192"/><stop offset="1" stop-color="#2484C6"/></linearGradient><linearGradient id="A" x1="310.067" y1="769.16" x2="310.067" y2="825.933" gradientUnits="userSpaceOnUse"><stop stop-color="#2E3192"/><stop offset="1" stop-color="#2484C6"/></linearGradient><linearGradient id="B" x1="315.039" y1="779.106" x2="315.039" y2="825.933" gradientUnits="userSpaceOnUse"><stop stop-color="#2E3192"/><stop offset="1" stop-color="#2484C6"/></linearGradient><linearGradient id="C" x1="320.011" y1="789.053" x2="320.011" y2="825.933" gradientUnits="userSpaceOnUse"><stop stop-color="#2E3192"/><stop offset="1" stop-color="#2484C6"/></linearGradient><linearGradient id="D" x1="324.984" y1="799" x2="324.984" y2="825.933" gradientUnits="userSpaceOnUse"><stop stop-color="#2E3192"/><stop offset="1" stop-color="#2484C6"/></linearGradient><linearGradient id="E" x1="167.473" y1="110.677" x2="167.473" y2="251.35" gradientUnits="userSpaceOnUse"><stop stop-color="#2E3192"/><stop offset="1" stop-color="#2484C6"/></linearGradient><linearGradient id="F" x1="172.445" y1="120.623" x2="172.445" y2="241.404" gradientUnits="userSpaceOnUse"><stop stop-color="#2E3192"/><stop offset="1" stop-color="#2484C6"/></linearGradient><linearGradient id="G" x1="177.417" y1="130.57" x2="177.417" y2="231.457" gradientUnits="userSpaceOnUse"><stop stop-color="#2E3192"/><stop offset="1" stop-color="#2484C6"/></linearGradient><linearGradient id="H" x1="182.39" y1="140.516" x2="182.39" y2="221.51" gradientUnits="userSpaceOnUse"><stop stop-color="#2E3192"/><stop offset="1" stop-color="#2484C6"/></linearGradient><linearGradient id="I" x1="187.362" y1="150.463" x2="187.362" y2="211.564" gradientUnits="userSpaceOnUse"><stop stop-color="#2E3192"/><stop offset="1" stop-color="#2484C6"/></linearGradient><linearGradient id="J" x1="192.334" y1="160.41" x2="192.334" y2="201.617" gradientUnits="userSpaceOnUse"><stop stop-color="#2E3192"/><stop offset="1" stop-color="#2484C6"/></linearGradient><linearGradient id="K" x1="116.731" y1="13.633" x2="116.731" y2="197.343" gradientUnits="userSpaceOnUse"><stop stop-color="#2E3192"/><stop offset="1" stop-color="#2484C6"/></linearGradient><linearGradient id="L" x1="111.758" y1="23.58" x2="111.758" y2="197.343" gradientUnits="userSpaceOnUse"><stop stop-color="#2E3192"/><stop offset="1" stop-color="#2484C6"/></linearGradient><linearGradient id="M" x1="106.786" y1="33.526" x2="106.786" y2="197.343" gradientUnits="userSpaceOnUse"><stop stop-color="#2E3192"/><stop offset="1" stop-color="#2484C6"/></linearGradient><linearGradient id="N" x1="101.814" y1="43.473" x2="101.814" y2="197.343" gradientUnits="userSpaceOnUse"><stop stop-color="#2E3192"/><stop offset="1" stop-color="#2484C6"/></linearGradient><linearGradient id="O" x1="96.842" y1="53.42" x2="96.842" y2="197.343" gradientUnits="userSpaceOnUse"><stop stop-color="#2E3192"/><stop offset="1" stop-color="#2484C6"/></linearGradient><linearGradient id="P" x1="91.87" y1="63.366" x2="91.87" y2="197.343" gradientUnits="userSpaceOnUse"><stop stop-color="#2E3192"/><stop offset="1" stop-color="#2484C6"/></linearGradient><linearGradient id="Q" x1="38.596" y1="328.117" x2="38.596" y2="369.325" gradientUnits="userSpaceOnUse"><stop stop-color="#2E3192"/><stop offset="1" stop-color="#2484C6"/></linearGradient><linearGradient id="R" x1="43.568" y1="318.171" x2="43.568" y2="379.271" gradientUnits="userSpaceOnUse"><stop stop-color="#2E3192"/><stop offset="1" stop-color="#2484C6"/></linearGradient><linearGradient id="S" x1="48.54" y1="308.224" x2="48.54" y2="389.218" gradientUnits="userSpaceOnUse"><stop stop-color="#2E3192"/><stop offset="1" stop-color="#2484C6"/></linearGradient><linearGradient id="T" x1="53.512" y1="298.277" x2="53.512" y2="399.165" gradientUnits="userSpaceOnUse"><stop stop-color="#2E3192"/><stop offset="1" stop-color="#2484C6"/></linearGradient><linearGradient id="U" x1="58.484" y1="288.331" x2="58.484" y2="409.111" gradientUnits="userSpaceOnUse"><stop stop-color="#2E3192"/><stop offset="1" stop-color="#2484C6"/></linearGradient><linearGradient id="V" x1="63.457" y1="278.384" x2="63.457" y2="419.058" gradientUnits="userSpaceOnUse"><stop stop-color="#2E3192"/><stop offset="1" stop-color="#2484C6"/></linearGradient><linearGradient id="W" x1="310.957" y1="-2" x2="310.957" y2="120.591" gradientUnits="userSpaceOnUse"><stop stop-color="#2E3192"/><stop offset="1" stop-color="#2484C6"/></linearGradient><linearGradient id="X" x1="310.957" y1="-2" x2="310.957" y2="110.645" gradientUnits="userSpaceOnUse"><stop stop-color="#2E3192"/><stop offset="1" stop-color="#2484C6"/></linearGradient><linearGradient id="Y" x1="310.957" y1="-2" x2="310.957" y2="100.698" gradientUnits="userSpaceOnUse"><stop stop-color="#2E3192"/><stop offset="1" stop-color="#2484C6"/></linearGradient><linearGradient id="Z" x1="310.957" y1="-2" x2="310.957" y2="90.752" gradientUnits="userSpaceOnUse"><stop stop-color="#2E3192"/><stop offset="1" stop-color="#2484C6"/></linearGradient><linearGradient id="aa" x1="310.957" y1="-2" x2="310.957" y2="80.805" gradientUnits="userSpaceOnUse"><stop stop-color="#2E3192"/><stop offset="1" stop-color="#2484C6"/></linearGradient><linearGradient id="ab" x1="310.957" y1="-2" x2="310.957" y2="70.858" gradientUnits="userSpaceOnUse"><stop stop-color="#2E3192"/><stop offset="1" stop-color="#2484C6"/></linearGradient><linearGradient id="ac" x1="75.255" y1="656.775" x2="75.255" y2="825.933" gradientUnits="userSpaceOnUse"><stop stop-color="#2E3192"/><stop offset="1" stop-color="#2484C6"/></linearGradient><linearGradient id="ad" x1="69.256" y1="616.988" x2="69.256" y2="825.933" gradientUnits="userSpaceOnUse"><stop stop-color="#2E3192"/><stop offset="1" stop-color="#2484C6"/></linearGradient><linearGradient id="ae" x1="74.228" y1="607.042" x2="74.228" y2="817.733" gradientUnits="userSpaceOnUse"><stop stop-color="#2E3192"/><stop offset="1" stop-color="#2484C6"/></linearGradient><linearGradient id="af" x1="74.686" y1="646.828" x2="74.686" y2="825.933" gradientUnits="userSpaceOnUse"><stop stop-color="#2E3192"/><stop offset="1" stop-color="#2484C6"/></linearGradient><linearGradient id="ag" x1="73.784" y1="636.882" x2="73.784" y2="825.933" gradientUnits="userSpaceOnUse"><stop stop-color="#2E3192"/><stop offset="1" stop-color="#2484C6"/></linearGradient><linearGradient id="ah" x1="72.123" y1="626.935" x2="72.123" y2="825.933" gradientUnits="userSpaceOnUse"><stop stop-color="#2E3192"/><stop offset="1" stop-color="#2484C6"/></linearGradient><linearGradient id="ai" x1="397.355" y1="654.644" x2="397.355" y2="825.933" gradientUnits="userSpaceOnUse"><stop stop-color="#2E3192"/><stop offset="1" stop-color="#2484C6"/></linearGradient><linearGradient id="aj" x1="402.716" y1="644.697" x2="402.716" y2="825.933" gradientUnits="userSpaceOnUse"><stop stop-color="#2E3192"/><stop offset="1" stop-color="#2484C6"/></linearGradient><linearGradient id="ak" x1="408.265" y1="634.75" x2="408.265" y2="825.933" gradientUnits="userSpaceOnUse"><stop stop-color="#2E3192"/><stop offset="1" stop-color="#2484C6"/></linearGradient><linearGradient id="al" x1="414.237" y1="624.803" x2="414.237" y2="825.933" gradientUnits="userSpaceOnUse"><stop stop-color="#2E3192"/><stop offset="1" stop-color="#2484C6"/></linearGradient><linearGradient id="am" x1="421.677" y1="614.857" x2="421.677" y2="825.933" gradientUnits="userSpaceOnUse"><stop stop-color="#2E3192"/><stop offset="1" stop-color="#2484C6"/></linearGradient><linearGradient id="an" x1="428.212" y1="604.91" x2="428.211" y2="823.975" gradientUnits="userSpaceOnUse"><stop stop-color="#2E3192"/><stop offset="1" stop-color="#2484C6"/></linearGradient><linearGradient id="ao" x1="416.694" y1="172.28" x2="416.694" y2="343.051" gradientUnits="userSpaceOnUse"><stop stop-color="#2E3192"/><stop offset="1" stop-color="#2484C6"/></linearGradient><linearGradient id="ap" x1="411.722" y1="162.333" x2="411.722" y2="352.998" gradientUnits="userSpaceOnUse"><stop stop-color="#2E3192"/><stop offset="1" stop-color="#2484C6"/></linearGradient><linearGradient id="aq" x1="406.75" y1="152.386" x2="406.75" y2="362.944" gradientUnits="userSpaceOnUse"><stop stop-color="#2E3192"/><stop offset="1" stop-color="#2484C6"/></linearGradient><linearGradient id="ar" x1="401.778" y1="142.44" x2="401.778" y2="372.891" gradientUnits="userSpaceOnUse"><stop stop-color="#2E3192"/><stop offset="1" stop-color="#2484C6"/></linearGradient><linearGradient id="as" x1="396.805" y1="132.493" x2="396.805" y2="382.838" gradientUnits="userSpaceOnUse"><stop stop-color="#2E3192"/><stop offset="1" stop-color="#2484C6"/></linearGradient><linearGradient id="at" x1="391.833" y1="122.547" x2="391.833" y2="392.784" gradientUnits="userSpaceOnUse"><stop stop-color="#2E3192"/><stop offset="1" stop-color="#2484C6"/></linearGradient><linearGradient id="au" x1="382.733" y1="414.434" x2="382.733" y2="680.422" gradientUnits="userSpaceOnUse"><stop stop-color="#2E3192"/><stop offset="1" stop-color="#2484C6"/></linearGradient><linearGradient id="av" x1="377.917" y1="424.065" x2="377.917" y2="690.052" gradientUnits="userSpaceOnUse"><stop stop-color="#2E3192"/><stop offset="1" stop-color="#2484C6"/></linearGradient><linearGradient id="aw" x1="372.503" y1="433.695" x2="372.503" y2="699.678" gradientUnits="userSpaceOnUse"><stop stop-color="#2E3192"/><stop offset="1" stop-color="#2484C6"/></linearGradient><linearGradient id="ax" x1="367.688" y1="444.525" x2="367.688" y2="710.513" gradientUnits="userSpaceOnUse"><stop stop-color="#2E3192"/><stop offset="1" stop-color="#2484C6"/></linearGradient><linearGradient id="ay" x1="358.059" y1="463.776" x2="358.059" y2="729.764" gradientUnits="userSpaceOnUse"><stop stop-color="#2E3192"/><stop offset="1" stop-color="#2484C6"/></linearGradient><linearGradient id="az" x1="362.875" y1="454.15" x2="362.875" y2="720.138" gradientUnits="userSpaceOnUse"><stop stop-color="#2E3192"/><stop offset="1" stop-color="#2484C6"/></linearGradient></defs></svg>