<svg width="208" height="208" fill="none" xmlns="http://www.w3.org/2000/svg"><path d="m202.245 105.841-.555 8.458-11.514-.756.115-1.761 9.857.648.325-4.938-9.857-.647.115-1.761 11.514.757Zm-1.171 13.202-.467 2.5c-.194 1.043-.553 1.833-1.076 2.369-.39.396-.857.667-1.401.812a3.42 3.42 0 0 1-1.617.085c-1.02-.191-1.779-.714-2.277-1.569-.46-.802-.582-1.781-.366-2.938l.146-.782-4.609-.861.324-1.734 11.343 2.118Zm-1.922 1.436-3.537-.66-.147.782c-.135.726-.079 1.305.169 1.739.258.435.66.704 1.204.805.193.036.38.042.56.017.179-.014.378-.076.598-.188.23-.097.431-.295.604-.591.184-.294.319-.673.406-1.138l.143-.766Zm-1.772 9.073c.734 1.438.836 2.975.305 4.609-.53 1.635-1.515 2.819-2.953 3.552-1.439.734-2.97.837-4.593.31-1.624-.526-2.803-1.509-3.536-2.948-.734-1.438-.835-2.975-.305-4.609.531-1.635 1.515-2.819 2.954-3.552 1.438-.734 2.969-.837 4.593-.31 1.623.527 2.802 1.509 3.535 2.948Zm-7.443-1.106c-1.014.507-1.711 1.348-2.092 2.522-.381 1.174-.31 2.264.212 3.27.533 1.009 1.409 1.712 2.626 2.107 1.218.395 2.334.339 3.347-.169 1.025-.504 1.727-1.343 2.108-2.517.381-1.173.305-2.265-.228-3.275-.522-1.006-1.392-1.707-2.61-2.102-1.218-.395-2.339-.341-3.363.164Zm4.054 15.103-.763 1.571c-.343.706-.677 1.249-1.003 1.629-.326.38-.725.661-1.198.841-.786.298-1.604.241-2.454-.173-.488-.237-.847-.539-1.079-.908a1.927 1.927 0 0 1-.337-1.126c-.397.474-.863.799-1.397.975-.699.225-1.459.138-2.278-.26-.757-.368-1.269-.899-1.535-1.592-.362-.971-.227-2.105.403-3.401l1.262-2.599 10.379 5.043Zm-2.265.861-2.972-1.444-.234.483c-.283.581-.357 1.077-.223 1.488.128.395.457.722.986.979.425.206.818.243 1.177.11.391-.143.724-.501 1.002-1.071l.264-.545Zm-4.279-2.079-3.112-1.512-.469.965c-.348.716-.467 1.305-.359 1.768.103.473.404.831.902 1.073.446.217.877.253 1.293.109.468-.17.888-.639 1.261-1.407l.484-.996Zm-1.844 16.438-1.408-.881 2.442-3.9-2.478-1.552-2.369 3.784-1.407-.882 2.368-3.783-3.079-1.928-2.442 3.901-1.408-.881 3.378-5.397 9.781 6.123-3.378 5.396Zm-2.004 2.875-1.556 2.012c-.649.839-1.328 1.378-2.037 1.617a3.021 3.021 0 0 1-1.617.084 3.41 3.41 0 0 1-1.479-.662c-.821-.635-1.258-1.446-1.31-2.434-.044-.924.293-1.851 1.013-2.782l.486-.629-3.709-2.868 1.079-1.396 9.13 7.058Zm-2.366.401-2.847-2.201-.487.63c-.451.584-.666 1.125-.643 1.624.032.506.267.928.705 1.266.155.12.319.21.491.271.165.069.371.104.618.105.249.018.517-.066.806-.251.298-.178.592-.454.881-.828l.476-.616Zm-17.606 4.949 5.512 5.472-.396-11.363 8.558 8.496-1.244 1.252-5.537-5.497.396 11.363-8.532-8.471 1.243-1.252Zm-2.295 14.804 2.076-1.642-6.127-7.749 1.384-1.094 6.127 7.749 2.076-1.642 1.03 1.303-5.536 4.378-1.03-1.303Zm-7.713-6.614 6.266 9.69-1.482.958-2.527-3.908-1.104.714c-1.036.67-2.011.936-2.924.799-.955-.138-1.72-.653-2.296-1.544a3.516 3.516 0 0 1-.545-1.543 3.059 3.059 0 0 1 .229-1.59c.297-.687.892-1.318 1.783-1.895l2.6-1.681Zm1.355 5.345-1.935-2.992-1.046.676c-1.298.839-1.63 1.748-.998 2.726a1.74 1.74 0 0 0 1.131.793c.475.119 1.066-.05 1.773-.507l1.075-.696Zm-24.152 18.132-8.26 1.904-2.593-11.244 1.72-.396 2.22 9.626 4.821-1.112-2.22-9.626 1.72-.396 2.592 11.244Zm-12.927 2.659-2.528.274c-1.055.114-1.914-.002-2.578-.348a3.02 3.02 0 0 1-1.181-1.107 3.4 3.4 0 0 1-.548-1.524c-.112-1.032.17-1.909.845-2.632.635-.672 1.537-1.072 2.707-1.199l.791-.085-.505-4.661 1.754-.19 1.243 11.472Zm-1.929-1.427-.388-3.578-.791.086c-.734.08-1.272.301-1.616.663-.342.373-.484.835-.424 1.385.021.195.07.376.146.542.064.167.181.339.352.518.16.192.406.327.74.407.334.092.737.112 1.207.061l.774-.084Zm-9.67.915c-1.168 1.115-2.611 1.653-4.329 1.613-1.718-.04-3.134-.644-4.25-1.812-1.114-1.168-1.652-2.605-1.613-4.311.04-1.707.644-3.118 1.811-4.233 1.168-1.115 2.611-1.652 4.329-1.612 1.718.039 3.135.643 4.25 1.811 1.115 1.168 1.653 2.605 1.613 4.312-.039 1.706-.643 3.117-1.811 4.232Zm-1.073-7.449c-.777-.825-1.783-1.252-3.016-1.281-1.234-.028-2.258.352-3.072 1.14-.815.801-1.237 1.841-1.267 3.121-.03 1.279.344 2.332 1.121 3.158.777.837 1.782 1.27 3.016 1.298 1.234.029 2.258-.357 3.072-1.157.815-.789 1.236-1.823 1.266-3.103.03-1.28-.344-2.338-1.12-3.176Zm-13.153 8.215-1.725-.275c-.775-.123-1.391-.285-1.85-.487a2.932 2.932 0 0 1-1.152-.901c-.513-.666-.696-1.466-.547-2.4.085-.535.27-.967.557-1.295.261-.321.587-.537.98-.65-.57-.242-1.016-.594-1.34-1.054-.417-.604-.555-1.355-.411-2.255.132-.832.491-1.475 1.078-1.931.824-.628 1.948-.828 3.371-.602l2.853.454-1.814 11.396Zm-1.481-1.918.52-3.263-.53-.084c-.638-.102-1.134-.029-1.489.218-.341.238-.559.647-.65 1.228-.075.467.003.853.235 1.159.25.332.69.548 1.316.647l.598.095Zm.748-4.698.544-3.417-1.06-.168c-.785-.126-1.384-.069-1.796.169-.423.236-.678.628-.765 1.175-.078.489.012.912.271 1.269.299.398.87.664 1.712.798l1.094.174Zm-16.299 2.959.44-1.601 4.437 1.221.776-2.819-4.304-1.184.44-1.602 4.304 1.184.964-3.503-4.437-1.22.44-1.601 6.139 1.688-3.06 11.126-6.14-1.689Zm-3.428-1.124-2.37-.92c-.99-.384-1.7-.882-2.13-1.495a3.027 3.027 0 0 1-.539-1.526 3.41 3.41 0 0 1 .215-1.606c.375-.967 1.03-1.617 1.962-1.948.873-.304 1.858-.244 2.954.182l.742.288 1.697-4.371 1.645.639-4.175 10.757Zm-1.056-2.154 1.302-3.355-.742-.288c-.688-.267-1.268-.319-1.74-.156-.476.175-.814.52-1.014 1.036a1.8 1.8 0 0 0-.12.547c-.02.178.005.386.074.623.054.243.21.477.47.702.255.235.603.438 1.044.609l.726.282Zm-9.701-15.442-3.676 6.842 10.78-3.615-5.707 10.622-1.555-.835 3.693-6.873-10.78 3.615 5.69-10.591 1.555.835Zm-14.813 2.027 2.162 1.526 5.694-8.073 1.442 1.017-5.694 8.073 2.163 1.525-.957 1.358-5.768-4.069.957-1.357Zm4.163-9.255-7.514 8.758-1.34-1.149 3.031-3.532-.998-.856c-.936-.804-1.468-1.663-1.596-2.578-.138-.954.138-1.834.83-2.639.36-.42.801-.741 1.324-.96a3.054 3.054 0 0 1 1.59-.232c.743.09 1.517.481 2.322 1.171l2.35 2.017Zm-4.742 2.816 2.32-2.705-.944-.811c-1.173-1.006-2.14-1.067-2.898-.183a1.74 1.74 0 0 0-.44 1.31c.022.489.352 1.007.99 1.556l.972.833Zm-24.237-17.891-4.203-7.361 10.02-5.722.875 1.532-8.578 4.898 2.454 4.297 8.578-4.898.875 1.532-10.02 5.722Zm-6.259-11.576-.991-2.342c-.414-.978-.55-1.834-.41-2.569.107-.547.347-1.03.72-1.451a3.412 3.412 0 0 1 1.301-.964c.956-.404 1.878-.387 2.765.052.826.414 1.468 1.163 1.927 2.247l.31.733 4.318-1.827.687 1.626-10.627 4.495Zm.81-2.259 3.314-1.402-.31-.733c-.288-.679-.654-1.132-1.1-1.356-.456-.221-.94-.223-1.45-.007-.18.076-.338.174-.475.295a1.63 1.63 0 0 0-.396.486c-.137.209-.196.484-.176.827.009.346.105.738.29 1.173l.303.717Zm-3.574-8.68c-1.404-.798-2.333-2.025-2.79-3.682-.455-1.657-.284-3.188.514-4.591.798-1.404 2.02-2.332 3.666-2.785 1.646-.453 3.17-.28 4.574.518s2.334 2.026 2.79 3.683c.455 1.656.284 3.187-.514 4.591-.798 1.403-2.02 2.332-3.666 2.784-1.645.453-3.17.28-4.574-.518Zm6.826-3.169c.567-.982.687-2.067.36-3.257-.328-1.19-.986-2.062-1.976-2.615-1-.55-2.118-.655-3.352-.316-1.234.34-2.135 1-2.702 1.982-.579.984-.705 2.071-.377 3.261.327 1.19.99 2.06 1.992 2.61.989.554 2.1.66 3.335.321 1.235-.34 2.141-1.002 2.72-1.986Zm-11.63-10.007-.234-1.731c-.106-.778-.128-1.415-.068-1.912a2.93 2.93 0 0 1 .531-1.364c.49-.683 1.202-1.088 2.14-1.215.537-.073 1.004-.02 1.4.159.383.158.684.408.905.75.068-.614.276-1.143.623-1.586.458-.574 1.138-.922 2.04-1.045.835-.113 1.555.045 2.16.475.84.608 1.356 1.626 1.55 3.055l.388 2.863-11.435 1.551Zm1.409-1.972 3.274-.444-.072-.531c-.087-.64-.3-1.095-.639-1.363-.326-.258-.78-.348-1.363-.269-.469.064-.816.251-1.041.56-.246.336-.326.819-.24 1.447l.08.6Zm4.714-.639 3.429-.465-.144-1.063c-.107-.789-.334-1.346-.681-1.671-.348-.337-.797-.468-1.345-.394-.492.067-.87.275-1.137.626-.295.401-.385 1.024-.27 1.869l.148 1.098Zm-7.572-14.805 1.66-.045.125 4.6 2.923-.079-.121-4.462 1.66-.045.12 4.462 3.633-.098-.125-4.6 1.66-.045.172 6.364-11.535.312-.172-6.364Zm.086-3.977.196-2.535c.082-1.058.354-1.881.816-2.47a3.028 3.028 0 0 1 1.306-.958 3.409 3.409 0 0 1 1.599-.258c1.035.08 1.845.519 2.432 1.316.543.748.77 1.708.68 2.88L13 98.58l4.674.362-.136 1.759-11.505-.89Zm1.758-1.633 3.588.277.06-.794c.058-.736-.06-1.306-.353-1.71-.304-.405-.732-.63-1.284-.672a1.75 1.75 0 0 0-.559.044 1.623 1.623 0 0 0-.574.25c-.218.122-.397.34-.536.653-.152.312-.246.704-.282 1.175l-.06.776Zm12.02-13.975-7.607-1.572 6.54 9.3-11.809-2.44.357-1.727 7.641 1.578-6.54-9.3 11.775 2.433-.357 1.728Zm-6.288-13.37-.836 2.511 9.372 3.12-.557 1.674-9.373-3.12-.836 2.512-1.576-.525 2.23-6.697 1.575.525Zm10.086 1.234-10.54-4.693.718-1.612 4.251 1.893.535-1.201c.502-1.128 1.172-1.883 2.012-2.267.875-.406 1.797-.393 2.767.038.506.226.939.557 1.3.995.354.423.58.909.676 1.457.126.738-.026 1.591-.458 2.56l-1.26 2.83Zm-4.055-3.737 3.256 1.45.507-1.139c.628-1.412.41-2.354-.654-2.828a1.74 1.74 0 0 0-1.38-.046c-.463.16-.866.624-1.208 1.393l-.52 1.17Zm10.275-28.44 5.862-6.123 8.335 7.98-1.22 1.274-7.136-6.831-3.421 3.574 7.135 6.83-1.22 1.275-8.335-7.98Zm9.12-9.143 1.96-1.62c.817-.677 1.599-1.053 2.343-1.13a3.03 3.03 0 0 1 1.596.274c.512.22.944.544 1.297.97.66.8.909 1.688.742 2.664-.16.91-.693 1.74-1.6 2.49l-.613.507 2.987 3.613-1.36 1.125-7.352-8.893Zm2.396.129 2.293 2.773.613-.507c.569-.47.897-.951.985-1.443.08-.5-.056-.964-.41-1.39a1.739 1.739 0 0 0-.419-.372 1.623 1.623 0 0 0-.579-.24c-.239-.07-.52-.048-.842.069-.33.107-.677.312-1.041.613l-.6.497Zm7.518-6.097c.362-1.574 1.272-2.817 2.728-3.729 1.457-.911 2.972-1.186 4.546-.824 1.573.362 2.813 1.266 3.719 2.713.905 1.447 1.177 2.957.815 4.53-.362 1.574-1.271 2.817-2.728 3.729-1.456.912-2.971 1.187-4.545.825-1.574-.362-2.813-1.267-3.72-2.713-.905-1.447-1.177-2.958-.815-4.531Zm4.994 5.63c1.103.262 2.178.065 3.224-.59 1.045-.654 1.692-1.535 1.938-2.642.24-1.116.02-2.217-.66-3.302-.678-1.085-1.57-1.758-2.672-2.02-1.11-.272-2.187-.08-3.233.574-1.046.655-1.689 1.54-1.93 2.657-.245 1.106-.029 2.202.65 3.287.68 1.085 1.574 1.764 2.683 2.036Zm5.992-13.902 1.591-.723c.714-.324 1.318-.529 1.812-.613a2.93 2.93 0 0 1 1.459.116c.794.272 1.388.84 1.778 1.7.225.494.308.956.25 1.388a1.925 1.925 0 0 1-.458 1.082c.608-.111 1.174-.064 1.698.14.681.274 1.21.826 1.587 1.655.348.767.403 1.502.165 2.205-.34.978-1.168 1.766-2.48 2.362l-2.63 1.194-4.772-10.506Zm2.294.782 1.366 3.009.488-.222c.588-.267.962-.601 1.122-1.003.153-.387.109-.848-.135-1.383-.195-.43-.474-.71-.835-.837-.393-.138-.878-.076-1.455.186l-.551.25Zm1.967 4.332 1.43 3.15.977-.443c.724-.33 1.193-.707 1.405-1.132.222-.43.22-.898-.01-1.402-.205-.451-.513-.755-.926-.91-.468-.166-1.091-.074-1.868.28l-1.008.457Zm12.017-11.535.518 1.578-4.371 1.437.913 2.777 4.24-1.394.519 1.578-4.24 1.394 1.134 3.451 4.372-1.437.518 1.578-6.048 1.988-3.603-10.962 6.048-1.988Zm3.462-.98 2.484-.543c1.036-.227 1.903-.204 2.6.069.517.206.948.53 1.293.974.354.43.59.916.708 1.457.222 1.014.036 1.917-.559 2.708-.56.736-1.413 1.23-2.563 1.48l-.777.17 1.001 4.581-1.724.377L79.59 9.105Zm2.07 1.212.769 3.515.777-.17c.721-.157 1.233-.435 1.536-.831.3-.408.392-.883.273-1.424a1.737 1.737 0 0 0-.202-.522 1.625 1.625 0 0 0-.406-.478c-.18-.173-.44-.282-.78-.325-.342-.056-.744-.033-1.206.068l-.76.167Zm16.986 7.448-.688-7.738-7.02 8.944-1.069-12.01 1.758-.157.691 7.772 7.02-8.944 1.065 11.976-1.757.157Zm11.353-9.879-2.645-.081-.305 9.873-1.764-.054.305-9.874-2.646-.081.052-1.66 7.055.217-.052 1.66Zm1.809 10.018 1.463-11.445 1.75.223-.59 4.616 1.304.167c1.224.157 2.141.582 2.75 1.276.64.721.893 1.608.758 2.66a3.51 3.51 0 0 1-.579 1.531 3.055 3.055 0 0 1-1.2 1.068c-.671.333-1.532.432-2.585.297l-3.071-.393Zm2.413-4.958-.452 3.535 1.235.158c1.533.196 2.374-.284 2.521-1.44a1.738 1.738 0 0 0-.352-1.335c-.287-.397-.847-.649-1.683-.756l-1.269-.162Zm30.267 1.704 7.54 3.872-5.272 10.265-1.57-.807 4.514-8.787-4.401-2.26-4.514 8.787-1.57-.807 5.273-10.264Zm11.465 6.206 2.11 1.42c.88.592 1.463 1.235 1.748 1.927a3.03 3.03 0 0 1 .19 1.608 3.407 3.407 0 0 1-.564 1.518c-.579.862-1.36 1.35-2.343 1.468-.918.105-1.865-.171-2.841-.828l-.661-.444-2.617 3.89-1.464-.986 6.442-9.573Zm.556 2.334-2.009 2.986.661.444c.612.412 1.166.59 1.662.535.503-.065.909-.327 1.218-.786a1.76 1.76 0 0 0 .237-.508c.058-.17.08-.377.065-.623.001-.25-.1-.513-.304-.789-.197-.285-.492-.56-.884-.824l-.646-.435Zm7.495 5.092c1.612-.105 3.063.408 4.355 1.541 1.292 1.134 1.991 2.506 2.097 4.117.105 1.611-.405 3.059-1.53 4.342-1.126 1.283-2.494 1.978-4.106 2.083-1.611.106-3.062-.408-4.354-1.541-1.292-1.133-1.991-2.505-2.097-4.117-.105-1.61.405-3.058 1.53-4.341 1.126-1.284 2.494-1.978 4.105-2.084Zm-3.957 6.401c.066 1.132.563 2.105 1.491 2.918.928.814 1.957 1.18 3.087 1.098 1.139-.091 2.13-.618 2.974-1.58.844-.963 1.233-2.01 1.167-3.142-.058-1.14-.551-2.117-1.479-2.93-.928-.815-1.961-1.176-3.099-1.085-1.131.082-2.118.605-2.962 1.567-.844.963-1.237 2.014-1.179 3.154Zm15.384 2.088 1.147 1.318c.515.592.884 1.112 1.106 1.56.223.449.325.926.306 1.432-.034.84-.407 1.57-1.12 2.19-.409.356-.828.569-1.258.637a1.924 1.924 0 0 1-1.168-.13c.28.551.397 1.107.35 1.668-.067.73-.444 1.395-1.131 1.994-.635.553-1.323.816-2.066.789-1.034-.047-2.025-.614-2.972-1.702l-1.897-2.179 8.703-7.577Zm-.094 2.422-2.492 2.17.352.404c.424.487.852.75 1.282.787.415.037.844-.137 1.287-.524.357-.31.544-.657.563-1.04.02-.415-.178-.862-.594-1.34l-.398-.457Zm-3.588 3.124-2.61 2.272.705.809c.522.6 1.018.94 1.486 1.022.476.09.923-.047 1.341-.41.374-.326.576-.708.606-1.148.026-.496-.241-1.067-.801-1.71l-.727-.835Zm14.659 8.463-1.364.948-2.625-3.78-2.401 1.668 2.546 3.666-1.365.947-2.545-3.666-2.984 2.072 2.624 3.78-1.364.947-3.631-5.229 9.478-6.582 3.631 5.23Zm1.743 2.758 1.236 2.222c.516.927.744 1.764.684 2.51a3.027 3.027 0 0 1-.56 1.52c-.31.462-.707.828-1.191 1.097-.907.505-1.825.587-2.754.246-.866-.323-1.585-.999-2.157-2.027l-.387-.695-4.097 2.28-.858-1.543 10.084-5.61Zm-.563 2.332-3.145 1.75.387.695c.359.645.772 1.056 1.239 1.231.478.17.958.12 1.442-.149.171-.095.319-.21.442-.344.128-.125.242-.3.34-.527.115-.222.143-.502.087-.84-.046-.344-.184-.722-.414-1.136l-.378-.68Zm-2.297 18.28 7.209-2.893-10.589-4.14 11.191-4.489.657 1.638-7.241 2.904 10.589 4.14-11.159 4.477-.657-1.638Zm12.723 8.039-.683-2.558-9.544 2.548-.455-1.705 9.544-2.548-.683-2.557 1.605-.428 1.82 6.82-1.604.428Zm-9.147 4.325 11.381-1.901.291 1.74-4.59.767.217 1.296c.203 1.218.06 2.218-.429 3.001-.506.821-1.282 1.32-2.328 1.494a3.516 3.516 0 0 1-1.633-.113 3.055 3.055 0 0 1-1.368-.841c-.512-.546-.856-1.342-1.031-2.389l-.51-3.054Zm5.444.88-3.515.587.205 1.228c.255 1.524.957 2.19 2.106 1.999.5-.084.892-.325 1.177-.723.297-.389.377-.998.238-1.829l-.211-1.263Z" fill="#fff"/></svg>