<svg width="206" height="206" fill="none" xmlns="http://www.w3.org/2000/svg"><path d="m199.918 104.132-.453 7.827-10.654-.617.094-1.629 9.121.528.264-4.568-9.12-.529.094-1.629 10.654.617Zm-1.86 17.387-1.516-.247.685-4.201-2.669-.435-.665 4.074-1.516-.247.665-4.074-3.316-.541-.685 4.2-1.516-.247.948-5.811 10.532 1.718-.947 5.811Zm-.49 2.259-.572 2.281c-.238.952-.614 1.66-1.126 2.126-.383.344-.83.567-1.34.67a3.161 3.161 0 0 1-1.498-.012c-.931-.234-1.602-.759-2.012-1.577-.38-.766-.438-1.677-.173-2.732l.179-.714-4.206-1.055.397-1.583 10.351 2.596Zm-1.855 1.217-3.228-.809-.179.713c-.166.663-.147 1.201.057 1.615.214.416.57.687 1.066.812.176.044.348.059.516.046.166-.002.354-.048.563-.139.218-.077.414-.248.59-.512.187-.261.333-.604.44-1.028l.175-.698Zm-2.348 12.732-1.45-.507 1.405-4.018-2.553-.893-1.362 3.897-1.45-.507 1.362-3.897-3.171-1.109-1.405 4.018-1.45-.507 1.944-5.558 10.073 3.523-1.943 5.558Zm-.903 2.237-.668 1.472c-.3.66-.596 1.17-.888 1.529-.292.36-.654.629-1.087.807-.719.294-1.477.261-2.273-.101-.457-.207-.796-.478-1.019-.814a1.773 1.773 0 0 1-.339-1.033c-.356.448-.779.76-1.269.936-.64.224-1.344.162-2.112-.186-.709-.322-1.194-.8-1.457-1.435-.358-.889-.261-1.94.29-3.154l1.105-2.433 9.717 4.412Zm-2.073.851-2.783-1.263-.205.451c-.247.544-.304 1.005-.17 1.381.128.363.44.657.935.882.398.181.762.205 1.091.074.358-.143.658-.481.9-1.015l.232-.51Zm-4.006-1.819-2.914-1.323-.41.903c-.305.67-.401 1.218-.29 1.644.107.435.394.758.86.97.418.189.817.213 1.199.07.428-.169.805-.613 1.131-1.332l.424-.932Zm1.967 9.526-.788 1.429-9.345-5.155.789-1.429 9.344 5.155Zm-2.63 4.649-1.277 1.975c-.533.824-1.117 1.374-1.753 1.649a2.804 2.804 0 0 1-1.483.203 3.153 3.153 0 0 1-1.414-.495c-.806-.522-1.272-1.236-1.397-2.142-.113-.848.127-1.728.717-2.642l.4-.618-3.641-2.355.886-1.37 8.962 5.795Zm-2.149.554-2.795-1.807-.4.618c-.37.573-.526 1.088-.466 1.546.068.464.318.834.748 1.112.152.099.31.169.473.211.158.051.35.068.578.05.23-.003.472-.101.723-.294.261-.187.51-.464.748-.832l.391-.604Zm-15.431 5.5 5.57 4.537-1.394-10.423 8.646 7.044-1.031 1.265-5.594-4.558 1.394 10.423-8.621-7.023 1.03-1.265Zm-.219 13.406 1.731-1.731-6.46-6.461 1.154-1.154 6.46 6.461 1.731-1.731 1.086 1.086-4.616 4.616-1.086-1.086Zm-12.773-1.176 4.537 5.57.742-10.49 7.043 8.647-1.265 1.03-4.557-5.594-.742 10.489-7.023-8.621 1.265-1.031Zm-24.293 24.281-7.589 1.964-2.674-10.331 1.58-.409 2.289 8.844 4.43-1.146-2.289-8.845 1.58-.409 2.673 10.332Zm-17.081 3.496-.224-1.519 4.21-.621-.394-2.675-4.084.602-.224-1.52 4.084-.602-.49-3.324-4.211.621-.224-1.52 5.826-.858 1.556 10.558-5.825.858Zm-2.542.234-2.348.145c-.979.06-1.768-.083-2.367-.431a2.806 2.806 0 0 1-1.044-1.074 3.161 3.161 0 0 1-.441-1.431c-.059-.958.239-1.757.894-2.396.615-.594 1.466-.924 2.552-.991l.734-.045-.267-4.328 1.629-.101.658 10.652Zm-1.722-1.401-.205-3.321-.735.045c-.681.042-1.188.223-1.521.543-.332.33-.483.751-.451 1.262.011.181.048.35.111.506.053.157.154.322.303.495.14.183.362.319.667.407.305.099.676.135 1.113.108l.718-.045Zm-12.978 1.612.041-1.536 4.255.115.073-2.703-4.126-.111.041-1.536 4.127.112.09-3.359-4.254-.115.041-1.535 5.886.159-.288 10.668-5.886-.159Zm-2.584-.21-1.604-.193c-.72-.086-1.296-.214-1.727-.384a2.706 2.706 0 0 1-1.097-.793c-.498-.597-.695-1.329-.59-2.198.06-.498.215-.903.468-1.217a1.78 1.78 0 0 1 .882-.635c-.534-.204-.96-.513-1.275-.927-.407-.543-.56-1.233-.46-2.069.093-.773.402-1.381.927-1.823.74-.609 1.771-.834 3.095-.676l2.653.319-1.272 10.596Zm-1.437-1.72.364-3.034-.492-.059c-.593-.071-1.05.014-1.368.255-.308.231-.494.617-.558 1.157-.053.435.034.789.259 1.063.243.298.656.482 1.239.552l.556.066Zm.524-4.368.382-3.178-.985-.118c-.731-.088-1.282-.014-1.654.221-.383.233-.605.604-.666 1.112-.054.456.044.843.296 1.164.29.357.827.583 1.61.677l1.017.122Zm-8.385 4.765-1.601-.318 2.08-10.467 1.6.318-2.08 10.467Zm-5.261-1.107-2.268-.624c-.946-.26-1.646-.652-2.1-1.175a2.8 2.8 0 0 1-.64-1.354 3.153 3.153 0 0 1 .047-1.497c.255-.926.796-1.585 1.623-1.977.774-.362 1.686-.399 2.735-.11l.71.195 1.15-4.181 1.573.433-2.83 10.29Zm-1.175-1.883.883-3.209-.71-.195c-.658-.181-1.197-.174-1.615.02-.422.205-.7.554-.836 1.048a1.614 1.614 0 0 0-.059.515c-.001.166.041.354.127.566.072.219.238.419.498.601.257.193.596.347 1.018.463l.694.191Zm-9.824-13.033-2.65 6.678 9.52-4.469-4.113 10.366-1.517-.602 2.661-6.707-9.519 4.468 4.101-10.336 1.517.602Zm-12.862 3.807 2.17 1.135 4.234-8.096 1.446.757-4.235 8.095 2.17 1.135-.712 1.361-5.785-3.026.712-1.361Zm-2.688-12.53-3.966 5.989 10.235-2.414-6.158 9.298-1.361-.901 3.985-6.016-10.235 2.414 6.14-9.271 1.36.901Zm-30.404-15.772-4.16-6.645 9.046-5.663.866 1.383-7.744 4.848 2.428 3.879 7.744-4.848.866 1.383-9.046 5.663Zm-8.492-15.172 1.38-.676 1.873 3.821 2.428-1.191-1.818-3.706 1.38-.676 1.817 3.706 3.017-1.48-1.874-3.821 1.379-.676 2.592 5.286-9.581 4.7-2.593-5.287Zm-.956-2.251-.851-2.192c-.355-.915-.458-1.71-.308-2.386a2.8 2.8 0 0 1 .705-1.321c.343-.385.753-.67 1.23-.855.896-.348 1.747-.306 2.555.124.752.406 1.325 1.116 1.719 2.13l.266.687 4.042-1.569.59 1.521-9.948 3.861Zm.812-2.065 3.102-1.204-.266-.686c-.247-.637-.574-1.065-.98-1.285-.415-.216-.862-.232-1.34-.047a1.634 1.634 0 0 0-.447.26 1.52 1.52 0 0 0-.38.439c-.132.189-.194.442-.185.759-.002.321.077.685.235 1.093l.26.671Zm-5.418-11.686 1.477-.424 1.175 4.091 2.599-.747-1.14-3.968 1.476-.424 1.14 3.968 3.23-.928-1.176-4.091 1.476-.424 1.627 5.659-10.257 2.947-1.627-5.659Zm-.568-2.388-.303-1.588c-.136-.712-.188-1.299-.157-1.761.031-.463.172-.891.423-1.286.418-.656 1.056-1.065 1.915-1.229.493-.094.927-.068 1.302.077.36.127.652.343.873.648a2.828 2.828 0 0 1 .496-1.495c.394-.553 1.005-.909 1.833-1.066.765-.146 1.438-.036 2.018.331.805.52 1.332 1.435 1.582 2.745l.5 2.624-10.482 2Zm1.203-1.891 3.002-.573-.093-.487c-.112-.587-.331-.996-.658-1.227-.314-.222-.738-.282-1.272-.18-.43.082-.741.271-.934.569-.21.322-.26.771-.15 1.348l.105.55Zm4.322-.825 3.143-.599-.186-.975c-.138-.723-.375-1.226-.711-1.509-.339-.294-.76-.393-1.262-.297-.45.086-.79.298-1.02.634-.252.385-.304.965-.156 1.741l.192 1.005ZM6.24 114.78l-.182-1.622 10.605-1.19.183 1.621L6.24 114.78Zm-.54-5.247-.1-2.35c-.042-.981.117-1.767.476-2.359a2.81 2.81 0 0 1 1.093-1.023 3.143 3.143 0 0 1 1.44-.413c.96-.041 1.752.272 2.378.939.582.627.896 1.484.942 2.571l.031.735 4.332-.184.07 1.631-10.663.453Zm1.433-1.695 3.325-.141-.032-.735c-.029-.682-.2-1.193-.513-1.532-.324-.338-.742-.497-1.253-.475a1.622 1.622 0 0 0-.509.101c-.158.05-.324.148-.5.294-.186.136-.326.355-.42.658-.105.304-.148.674-.129 1.111l.03.719Zm9.417-13.76-7.167-.499 7.146 7.715-11.125-.774.113-1.628 7.199.5-7.146-7.714 11.093.772-.113 1.628ZM9.011 82.927l-.422 2.41 9 1.575-.281 1.608-9-1.575-.422 2.412-1.513-.265 1.125-6.43 1.513.264Zm11.08-6.247-6.912-1.957 5.412 9.016-10.73-3.04.445-1.57 6.943 1.967-5.412-9.016 10.7 3.03-.446 1.57Zm5.706-33.658 5.084-5.969 8.125 6.92-1.059 1.242-6.955-5.923-2.967 3.484 6.956 5.923-1.059 1.243-8.124-6.92Zm12.216-12.997 1.058 1.113-3.085 2.932 1.863 1.96 2.992-2.843L41.9 34.3l-2.992 2.844 2.315 2.435 3.085-2.932 1.058 1.114-4.268 4.056-7.352-7.736 4.268-4.056Zm1.573-1.365 1.835-1.472c.765-.614 1.492-.952 2.182-1.013a2.802 2.802 0 0 1 1.472.275c.47.211.866.516 1.186.915.6.75.818 1.573.651 2.473-.16.84-.665 1.6-1.513 2.281l-.574.461 2.714 3.382-1.273 1.021-6.68-8.323Zm2.215.152 2.082 2.595.575-.46c.532-.428.842-.868.93-1.321.08-.462-.04-.892-.36-1.292a1.608 1.608 0 0 0-.383-.349 1.504 1.504 0 0 0-.532-.229c-.22-.07-.48-.053-.78.051-.306.096-.63.28-.971.554l-.562.45ZM51.27 20.1l.852 1.277-3.54 2.363 1.502 2.25 3.433-2.293.853 1.277-3.433 2.293 1.866 2.794 3.54-2.363.852 1.277-4.897 3.27-5.925-8.876 4.897-3.27Zm2.13-1.31 1.422-.77c.637-.346 1.18-.574 1.63-.684.45-.11.902-.106 1.354.013.751.2 1.335.683 1.752 1.452.24.441.346.862.321 1.264a1.78 1.78 0 0 1-.352 1.028c.553-.142 1.079-.136 1.575.02.647.207 1.17.682 1.572 1.423.371.684.47 1.359.296 2.023-.25.925-.962 1.705-2.134 2.34l-2.35 1.273-5.085-9.382Zm2.168.573 1.456 2.686.436-.236c.525-.284.848-.617.97-.998.116-.367.045-.79-.215-1.268-.208-.384-.483-.623-.825-.717-.371-.102-.814-.014-1.33.266l-.492.267Zm2.096 3.868 1.525 2.813.872-.472c.647-.351 1.055-.73 1.223-1.136.177-.412.144-.843-.1-1.293-.219-.403-.523-.663-.914-.779-.443-.123-1.012.003-1.705.38l-.9.487Zm4.318-8.875 1.491-.664 4.34 9.75-1.49.663-4.34-9.75Zm4.916-2.141 2.211-.801c.923-.335 1.72-.42 2.392-.255.5.126.935.37 1.305.736.377.35.653.767.827 1.249.327.902.267 1.752-.182 2.55-.422.743-1.145 1.3-2.168 1.671l-.692.25 1.477 4.077-1.534.556-3.636-10.033Zm2.047.858 1.134 3.129.691-.251c.642-.233 1.078-.55 1.307-.95.225-.41.251-.857.076-1.338a1.61 1.61 0 0 0-.25-.454 1.505 1.505 0 0 0-.43-.389c-.185-.137-.436-.205-.754-.203-.32-.009-.686.062-1.098.21l-.676.246Zm15.562 4.937-1.694-6.982-5.19 9.146-2.63-10.838 1.586-.385 1.702 7.013 5.19-9.146 2.622 10.807-1.586.385ZM92.71 7.463l-2.426.329 1.228 9.053-1.617.22-1.228-9.054-2.426.33-.207-1.523 6.47-.877.206 1.522Zm9.695 8.638-.222-7.18-6.96 7.882-.344-11.147 1.631-.05.223 7.213 6.96-7.883.343 11.115-1.631.05Zm34.024-4.719 7.22 3.054-4.157 9.83-1.503-.636 3.559-8.415-4.214-1.782-3.559 8.414-1.504-.636 4.158-9.829Zm15.741 7.565-.742 1.345-3.726-2.056-1.306 2.367 3.614 1.994-.742 1.345-3.614-1.994-1.623 2.942 3.726 2.056-.741 1.345-5.156-2.844 5.155-9.344 5.155 2.844Zm2.379 1.464 1.951 1.313c.814.548 1.353 1.142 1.617 1.782.193.478.252.974.175 1.488-.061.511-.235.98-.521 1.404-.535.797-1.258 1.25-2.167 1.358-.849.097-1.725-.159-2.628-.766l-.61-.41-2.421 3.597-1.354-.912 5.958-8.854Zm.514 2.16-1.858 2.76.611.411c.566.381 1.079.546 1.538.495.464-.06.84-.302 1.126-.727a1.61 1.61 0 0 0 .219-.47c.054-.156.074-.348.06-.576.001-.231-.092-.474-.281-.73-.182-.263-.455-.518-.817-.762l-.598-.402Zm10.662 6.07-.962 1.198-3.319-2.664-1.692 2.11 3.219 2.583-.961 1.198-3.22-2.584-2.103 2.62 3.32 2.664-.962 1.198-4.592-3.685 6.68-8.323 4.592 3.685Zm2.298 2.009 1.159 1.126c.52.505.9.956 1.14 1.353.239.396.37.828.392 1.295.034.776-.254 1.478-.863 2.106-.35.36-.72.587-1.111.684-.368.103-.73.093-1.086-.03.301.486.452.99.452 1.51-.006.679-.302 1.32-.889 1.925-.542.558-1.157.854-1.843.886-.957.037-1.914-.41-2.871-1.338l-1.916-1.862 7.436-7.655Zm.1 2.239-2.129 2.192.356.346c.428.416.842.625 1.242.627.385.001.767-.193 1.146-.583.304-.314.45-.648.438-1.002-.013-.385-.23-.781-.651-1.19l-.402-.39Zm-3.066 3.156-2.229 2.295.711.692c.528.512 1.011.788 1.449.827.446.047.847-.114 1.204-.481.32-.33.476-.697.47-1.105-.014-.46-.304-.965-.87-1.515l-.735-.713Zm9.648 1.362 1.08 1.223-7.998 7.066-1.08-1.223 7.998-7.066Zm3.407 3.919 1.432 1.866c.597.779.919 1.513.965 2.204a2.803 2.803 0 0 1-.307 1.466 3.155 3.155 0 0 1-.941 1.165c-.762.585-1.591.784-2.487.597-.836-.178-1.585-.7-2.247-1.563l-.448-.583-3.441 2.639-.993-1.295 8.467-6.496Zm-.2 2.21-2.64 2.026.448.584c.415.542.849.861 1.3.959.46.09.893-.02 1.299-.331.144-.11.263-.236.357-.376.101-.13.182-.307.241-.527.074-.218.063-.479-.034-.78-.089-.309-.266-.636-.532-.983l-.439-.572Zm-.161 16.054 6.131-3.744-10.294-2.15 9.517-5.813.851 1.393-6.158 3.761 10.293 2.15-9.49 5.796-.85-1.393Zm12.604 4.692-1.053-2.21-8.247 3.931-.703-1.473 8.247-3.931-1.053-2.21 1.386-.66 2.809 5.892-1.386.66Zm-5.322 11.741 6.773-2.397-9.627-4.23 10.513-3.72.544 1.538-6.802 2.407 9.627 4.23-10.483 3.71-.545-1.538Z" fill="#fff"/></svg>