<svg width="237" height="237" fill="none" xmlns="http://www.w3.org/2000/svg"><path d="m228.319 120.417 1.089-1.023c.504.418.866.894 1.087 1.428.241.545.345 1.196.31 1.952-.05 1.066-.37 1.878-.962 2.438-.525.489-1.16.715-1.906.681-.511-.024-.948-.162-1.31-.413a2.527 2.527 0 0 1-.883-1.002 2.583 2.583 0 0 1-1.009 1.395c-.475.341-1.086.494-1.831.459-.959-.044-1.737-.438-2.332-1.181-.585-.753-.849-1.726-.794-2.92.047-1.012.364-1.873.953-2.582a4.65 4.65 0 0 1 1.789-1.279l.668 1.472c-.553.188-1 .499-1.34.931-.352.454-.545 1.032-.577 1.736-.033.703.134 1.255.5 1.656.325.357.754.548 1.287.573.554.025.979-.163 1.275-.566.295-.381.464-1.02.505-1.915l.045-.959 1.534.072-.04.863c-.032.682.089 1.2.36 1.554.252.332.607.509 1.065.53.48.022.855-.131 1.127-.46.226-.268.351-.673.376-1.216.024-.512-.057-.948-.243-1.309a2.792 2.792 0 0 0-.743-.915Zm-9.811 15.759 2.712-.732.665-4.511-2.378-1.532.257-1.741 10.4 6.903-11.912 3.354.256-1.741Zm4.799-4.355-.472 3.198 3.809-1.04-3.337-2.158Zm4.986 10.094-1.936 7.597-10.342-2.634.403-1.582 8.854 2.256 1.129-4.435-8.853-2.255.403-1.581 10.342 2.634Zm-15.687 14.637 6.717 2.549-4.611-9.451 10.427 3.957-.579 1.526-6.747-2.56 4.611 9.451-10.397-3.946.579-1.526Zm3.708 15.746-1.714-.864c1.099-.426 1.886-1.11 2.361-2.053.519-1.028.599-2.039.24-3.033-.355-.979-1.061-1.735-2.118-2.268-1.019-.514-2.037-.616-3.054-.304-1.008.316-1.766.979-2.275 1.988-.476.943-.541 1.985-.197 3.126l-1.729-.871a5.635 5.635 0 0 1 .604-2.975c.668-1.324 1.673-2.227 3.015-2.709 1.467-.538 2.924-.443 4.371.287 1.524.769 2.51 1.905 2.958 3.41.387 1.294.222 2.65-.494 4.069-.494.981-1.15 1.714-1.968 2.197Zm-13.879 3.266 2.774.438 2.448-3.847-1.546-2.369.944-1.485 6.679 10.546-12.244-1.798.945-1.485Zm6.157-2.018-1.735 2.727 3.901.605-2.166-3.332Zm-4.27 14.748 1.49-1.942-7.249-5.561.994-1.295 7.248 5.561 1.49-1.942 1.219.935-3.974 5.179-1.218-.935Zm-8.141-4.484 7.946 7.124-1.089 1.215-3.205-2.873-.812.905c-.761.85-1.566 1.325-2.415 1.424-.885.108-1.693-.165-2.424-.82a3.258 3.258 0 0 1-.861-1.245 2.817 2.817 0 0 1-.182-1.474c.098-.685.475-1.393 1.13-2.124l1.912-2.132Zm2.508 4.44-2.454-2.2-.769.858c-.954 1.064-1.03 1.956-.228 2.675.35.313.75.458 1.202.433.453-.009.939-.304 1.459-.884l.79-.882Zm-7.347 14.824-1.307-1.406c1.178-.017 2.154-.386 2.927-1.105.844-.784 1.27-1.705 1.278-2.761.008-1.041-.392-1.995-1.198-2.863-.777-.835-1.697-1.284-2.759-1.345-1.054-.054-1.996.305-2.824 1.075-.773.719-1.197 1.673-1.27 2.863l-1.318-1.418a5.62 5.62 0 0 1 1.599-2.579c1.086-1.01 2.342-1.508 3.768-1.494 1.562.004 2.895.6 3.999 1.787 1.162 1.25 1.692 2.658 1.59 4.224-.087 1.348-.712 2.563-1.876 3.645-.804.748-1.674 1.207-2.609 1.377Zm-7.59-6.777.214 5.457a3.009 3.009 0 0 1 1.744-.439c.807.051 1.511.464 2.111 1.24.548.709.786 1.462.715 2.259a2.85 2.85 0 0 1-.38 1.183c-.214.368-.412.635-.593.802-.181.167-.415.362-.702.584l-2.076 1.604-6.527-8.443 1.291-.998 2.613 3.38.304-.235-.309-5.161 1.595-1.233Zm1.404 10.502.633-.489c.692-.535 1.072-1.038 1.14-1.508.074-.462-.042-.891-.349-1.288-.352-.456-.773-.669-1.264-.641-.46.033-.969.264-1.526.695l-.708.548 2.074 2.683Zm-8.409 7.584-2.122-3.653-3.957 2.299 2.122 3.652-1.411.82-5.361-9.228 1.412-.82 2.467 4.248 3.957-2.299-2.467-4.247 1.411-.82 5.36 9.228-1.411.82Zm-20.066-1.744 2.071 1.898 4.166-1.854.02-2.829 1.608-.715-.26 12.48-9.212-8.264 1.607-.716Zm6.248 1.72-2.953 1.315 2.918 2.659.035-3.974Zm-17.877 12.7-.53-1.845c1.058.517 2.095.63 3.11.338 1.107-.318 1.903-.946 2.388-1.885.478-.925.553-1.957.226-3.095-.315-1.097-.932-1.913-1.852-2.447-.916-.525-1.918-.631-3.004-.319-1.015.292-1.825.951-2.428 1.979l-.535-1.86a5.625 5.625 0 0 1 2.593-1.578c1.425-.409 2.771-.285 4.036.372 1.391.71 2.311 1.844 2.759 3.403.471 1.64.307 3.135-.492 4.486-.687 1.163-1.794 1.964-3.322 2.403-1.056.303-2.039.319-2.949.048Zm-8.397 2.284-.293-1.507 4.177-.814-.517-2.654-4.052.789-.293-1.508 4.052-.789-.642-3.298-4.178.814-.293-1.508 5.779-1.125 2.04 10.475-5.78 1.125Zm-10.668.715-.207-1.908c.955.69 1.957.978 3.007.865 1.145-.124 2.037-.607 2.675-1.449.629-.83.88-1.833.752-3.011-.122-1.134-.591-2.044-1.406-2.728-.813-.674-1.782-.949-2.906-.828-1.05.114-1.96.626-2.73 1.535l-.209-1.924a5.624 5.624 0 0 1 2.825-1.111c1.474-.16 2.778.192 3.913 1.057 1.249.937 1.961 2.212 2.136 3.824.184 1.696-.234 3.142-1.252 4.336-.876 1.028-2.104 1.628-3.684 1.799-1.092.118-2.063-.034-2.914-.457Zm-10.732.235-.023-1.919c.884.779 1.854 1.162 2.91 1.15 1.152-.013 2.086-.408 2.802-1.185.706-.765 1.052-1.74 1.039-2.924-.014-1.141-.393-2.091-1.137-2.851-.745-.749-1.683-1.116-2.813-1.103-1.056.012-2.012.434-2.866 1.265l-.022-1.936a5.612 5.612 0 0 1 2.918-.834c1.483-.017 2.747.459 3.793 1.428 1.154 1.054 1.74 2.391 1.759 4.012.019 1.707-.535 3.105-1.664 4.196-.97.939-2.25 1.418-3.84 1.436-1.098.013-2.05-.232-2.856-.735Zm-9.506-10.842-.691 7.151 7.904-6.935-1.074 11.1-1.624-.157.694-7.183-7.904 6.936 1.071-11.069 1.624.157Zm-7.469 5.469-1.558-.366a5.184 5.184 0 0 1-2.037 2.448c-1.248.792-2.636 1.008-4.163.65-1.516-.355-2.647-1.163-3.392-2.423-.756-1.262-.953-2.661-.593-4.198.361-1.537 1.16-2.702 2.398-3.497 1.239-.794 2.61-1.014 4.116-.661 1.724.404 2.937 1.33 3.638 2.776.507 1.061.635 2.198.384 3.41l1.557.365 1.119-4.766 1.589.373-2.438 10.39-1.589-.373.969-4.128Zm-3.2-4.859c-.511-.898-1.303-1.473-2.372-1.724-1.07-.251-2.034-.088-2.892.489-.859.576-1.422 1.436-1.69 2.578s-.145 2.162.367 3.06c.512.899 1.303 1.473 2.373 1.724 1.07.251 2.034.088 2.892-.488.858-.577 1.422-1.436 1.69-2.579.268-1.142.145-2.162-.367-3.06Zm-9.488-2.421-.539 1.541-3.625-1.268.54-1.54 3.624 1.267Zm-9.152 2.684.566 1.382c-.57.322-1.145.49-1.722.506-.596.031-1.24-.105-1.934-.407-.978-.427-1.623-1.017-1.934-1.769-.27-.664-.254-1.339.044-2.023.205-.469.49-.828.854-1.077a2.508 2.508 0 0 1 1.25-.466 2.588 2.588 0 0 1-.942-1.441c-.149-.566-.074-1.191.225-1.875.383-.88 1.029-1.466 1.935-1.757.913-.277 1.916-.176 3.011.301.929.405 1.62 1.009 2.073 1.812.348.641.534 1.35.555 2.128l-1.614.099a2.813 2.813 0 0 0-.391-1.585c-.298-.491-.77-.877-1.415-1.158-.645-.282-1.22-.323-1.726-.125-.45.176-.78.509-.994.998-.222.508-.197.973.073 1.393.25.412.787.797 1.608 1.156l.88.384-.614 1.407-.792-.345c-.626-.273-1.153-.346-1.58-.218-.4.116-.692.385-.876.805-.192.44-.182.846.028 1.217.17.306.503.568 1.002.786.469.204.905.284 1.309.239a2.79 2.79 0 0 0 1.12-.367Zm-11.374-2.678 2.067-3.683-3.99-2.24-2.067 3.683-1.423-.799 5.223-9.306 1.423.799-2.404 4.283 3.99 2.24 2.405-4.283 1.423.799-5.224 9.306-1.423-.799Zm-8.674-18.164-.58 2.749 3.717 2.642 2.445-1.423 1.434 1.019-10.874 6.13 2.423-12.136 1.435 1.019Zm1.7 6.253-2.635-1.872-.804 3.865 3.439-1.993Zm-12.652-1.393 2.805-3.2-5.91.478-1.611-1.413 6.807-.458.205-7.587 1.636 1.435-.26 6.071.452-.029 2.912-3.32 1.227 1.076-7.037 8.023-1.227-1.076Zm-6.566-7.875c-1.492-.066-2.775-.684-3.849-1.856-1.073-1.171-1.578-2.503-1.513-3.995.065-1.492.68-2.772 1.844-3.838 1.164-1.067 2.492-1.567 3.984-1.502 1.492.065 2.774.683 3.848 1.855 1.074 1.172 1.578 2.504 1.513 3.995-.065 1.492-.68 2.772-1.843 3.838-1.164 1.067-2.492 1.568-3.984 1.503Zm4.282-5.487c.053-1.047-.306-1.992-1.077-2.833-.77-.841-1.68-1.281-2.728-1.319-1.056-.031-2.02.353-2.893 1.153-.873.8-1.336 1.723-1.389 2.771-.061 1.054.294 2.002 1.065 2.843.771.842 1.685 1.278 2.74 1.309 1.048.038 2.008-.343 2.881-1.143.873-.8 1.34-1.727 1.401-2.781Zm-5.953-10.466.96 1.36-10.666 4.782 4.633-7.811-8.93 1.718 8.212-8.26.96 1.36-4.63 4.596 7.45-1.456-3.903 6.513 5.914-2.802Zm-19.576-12.325 1.684-.921c-.273 1.146-.156 2.182.35 3.109.554 1.011 1.34 1.65 2.363 1.918 1.007.264 2.03.111 3.069-.457 1.001-.547 1.662-1.328 1.983-2.342.311-1.009.196-2.01-.346-3.002-.507-.927-1.328-1.572-2.463-1.936l1.698-.929a5.625 5.625 0 0 1 2.107 2.186c.712 1.3.885 2.64.52 4.019-.388 1.513-1.293 2.658-2.716 3.436-1.497.819-2.993.986-4.485.502-1.285-.416-2.31-1.321-3.072-2.716-.527-.964-.758-1.919-.692-2.867Zm-2.462-7.816.996 2.236 8.346-3.715.664 1.491-8.347 3.715.996 2.237-1.403.624-2.655-5.963 1.403-.625Zm-2.255-1.504-.54-1.524c-.242-.684-.382-1.256-.421-1.718a2.712 2.712 0 0 1 .223-1.335c.314-.711.883-1.212 1.708-1.504.473-.167.905-.207 1.298-.12.376.071.696.24.961.509a2.83 2.83 0 0 1 .265-1.554c.306-.606.856-1.049 1.65-1.331.735-.259 1.416-.252 2.045.023.875.393 1.534 1.217 1.979 2.474l.892 2.519-10.06 3.561Zm.903-2.051 2.88-1.02-.165-.468c-.2-.563-.478-.934-.835-1.113-.344-.172-.773-.168-1.285.014-.413.146-.692.38-.838.704-.159.35-.14.802.056 1.355l.187.528Zm4.147-1.468 3.017-1.068-.33-.935c-.246-.694-.557-1.156-.932-1.385-.38-.239-.81-.273-1.293-.103-.432.153-.736.414-.911.781-.192.419-.156 1 .108 1.744l.341.966Zm-7.157-7.101c-1.272-.782-2.093-1.946-2.462-3.492-.368-1.546-.162-2.955.62-4.228.782-1.272 1.941-2.091 3.477-2.458 1.535-.366 2.94-.158 4.211.624 1.273.782 2.093 1.946 2.462 3.492.369 1.546.162 2.955-.62 4.227-.782 1.272-1.94 2.092-3.476 2.458-1.536.366-2.94.159-4.212-.623Zm6.41-2.714c.555-.889.7-1.889.435-2.999-.265-1.11-.846-1.937-1.743-2.479-.907-.54-1.937-.673-3.089-.398-1.151.275-2.005.857-2.56 1.746-.566.891-.716 1.892-.452 3.003.265 1.11.851 1.935 1.759 2.475.897.543 1.921.676 3.073.402 1.152-.275 2.01-.858 2.576-1.75Zm-9.375-23.138-1.027 1.084c-.527-.389-.917-.843-1.168-1.363-.273-.53-.414-1.173-.422-1.931-.013-1.066.26-1.896.819-2.489.495-.518 1.116-.781 1.863-.79.512-.006.956.106 1.332.337.386.219.7.535.939.949a2.584 2.584 0 0 1 .927-1.451c.454-.368 1.055-.556 1.802-.565.96-.011 1.758.337 2.396 1.044.627.718.947 1.675.961 2.869.012 1.014-.255 1.891-.801 2.634a4.66 4.66 0 0 1-1.713 1.38l-.752-1.432c.541-.219.97-.555 1.284-1.007.325-.473.484-1.061.476-1.765-.008-.704-.207-1.246-.595-1.625-.345-.338-.785-.503-1.318-.497-.554.006-.968.219-1.24.638-.273.398-.404 1.045-.394 1.941l.011.96-1.536.018-.01-.864c-.008-.683-.158-1.193-.45-1.531-.27-.317-.634-.473-1.093-.468-.48.006-.846.181-1.098.525-.21.28-.312.692-.306 1.236.006.512.112.943.32 1.292.195.339.46.63.793.871Zm8.934-16.787-2.668.877-.422 4.541 2.457 1.401-.162 1.752-10.757-6.333 11.715-3.99-.163 1.752Zm-4.557 4.607.299-3.218-3.747 1.243 3.448 1.975Zm-5.537-9.775 1.528-7.69 10.467 2.08-.318 1.6-8.96-1.78-.893 4.488 8.961 1.781-.318 1.6-10.467-2.079ZM21.6 84.811l-6.841-2.192 5.101 9.195-10.62-3.402.498-1.555 6.872 2.202-5.102-9.195 10.59 3.393-.498 1.554ZM17.036 69.35l1.757.773c-1.075.483-1.826 1.207-2.252 2.173-.464 1.054-.491 2.068-.081 3.041.405.96 1.149 1.678 2.232 2.156 1.045.46 2.067.508 3.066.144.99-.368 1.713-1.07 2.17-2.104.425-.966.436-2.01.033-3.132l1.772.78a5.622 5.622 0 0 1-.449 3.003c-.598 1.356-1.554 2.31-2.87 2.861-1.436.615-2.896.595-4.38-.059-1.561-.688-2.605-1.772-3.13-3.25-.454-1.273-.36-2.636.28-4.09.444-1.006 1.06-1.771 1.852-2.297Zm13.624-3.897-2.794-.295-2.247 3.968 1.667 2.286-.867 1.531-7.213-10.188 12.32 1.166-.866 1.532Zm-6.046 2.332 1.592-2.813-3.927-.403 2.335 3.216Zm3.61-15.146-1.389 2.016 7.523 5.183-.926 1.344L25.91 56l-1.389 2.016-1.265-.872 3.704-5.376 1.265.872Zm8 4.513-8.323-6.68 1.021-1.272 3.357 2.694.76-.948c.715-.89 1.493-1.408 2.334-1.554.879-.157 1.7.072 2.466.686.4.32.708.72.927 1.196.218.462.306.95.263 1.462-.061.69-.399 1.418-1.013 2.183l-1.792 2.233Zm-2.747-4.297 2.57 2.063.721-.898c.895-1.115.922-2.01.082-2.684a1.61 1.61 0 0 0-1.224-.367c-.452.035-.921.356-1.408.963l-.742.923Zm6.538-15.256 1.382 1.333c-1.175.081-2.13.502-2.863 1.262-.8.83-1.174 1.772-1.125 2.827.049 1.04.5 1.971 1.352 2.793.822.792 1.764 1.19 2.828 1.194 1.056-.005 1.976-.414 2.761-1.227.733-.76 1.104-1.737 1.113-2.929l1.393 1.344a5.622 5.622 0 0 1-1.456 2.663c-1.03 1.067-2.256 1.633-3.681 1.696-1.56.081-2.924-.44-4.09-1.566-1.23-1.185-1.835-2.562-1.819-4.131.014-1.35.572-2.598 1.675-3.742.763-.791 1.606-1.297 2.53-1.517Zm7.975 6.297-.512-5.437a3.006 3.006 0 0 1-1.718.533c-.808-.006-1.534-.38-2.175-1.123-.586-.678-.865-1.416-.837-2.216.016-.422.12-.823.314-1.202.194-.38.377-.657.549-.834.171-.176.395-.383.669-.62l1.985-1.716 6.978 8.074-1.234 1.068-2.794-3.233-.29.251.59 5.137-1.525 1.318Zm-1.976-10.41-.605.523c-.662.572-1.014 1.095-1.056 1.568-.05.465.09.888.418 1.267.377.436.809.626 1.297.57.458-.056.953-.315 1.486-.776l.678-.586-2.218-2.566Zm8.236-8.245 2.306 3.539 3.833-2.5-2.306-3.538 1.367-.891 5.828 8.94-1.368.892-2.682-4.115-3.833 2.498 2.682 4.115-1.367.892-5.828-8.94 1.367-.892Zm19.697.881-2.173-1.78-4.056 2.084.138 2.825-1.566.804-.436-12.475 9.659 7.738-1.566.804Zm-6.333-1.37 2.875-1.476-3.061-2.493.186 3.97ZM85.185 10.89l.627 1.814c-1.085-.46-2.126-.518-3.124-.174-1.089.377-1.85 1.046-2.285 2.009-.429.95-.45 1.983-.063 3.102.373 1.08 1.032 1.861 1.979 2.347.943.475 1.949.528 3.017.16.999-.346 1.772-1.047 2.32-2.106l.632 1.83a5.62 5.62 0 0 1-2.506 1.712c-1.401.485-2.751.432-4.05-.158-1.427-.635-2.405-1.72-2.934-3.252-.558-1.613-.473-3.115.254-4.506.625-1.197 1.688-2.056 3.19-2.575 1.039-.358 2.02-.427 2.943-.204Zm8.292-2.752.374 1.49-4.128 1.035.657 2.623 4.004-1.004.374 1.49-4.004 1.004.817 3.259L95.699 17l.374 1.49-5.712 1.432L87.766 9.57l5.711-1.432Zm10.063-1.203.309 1.895c-.99-.638-2.006-.872-3.049-.702-1.137.185-2.001.715-2.593 1.59-.584.863-.78 1.878-.59 3.047.184 1.126.7 2.01 1.55 2.649.849.629 1.831.852 2.947.67 1.042-.17 1.924-.73 2.644-1.68l.312 1.911a5.62 5.62 0 0 1-2.761 1.261c-1.463.239-2.785-.043-3.964-.845-1.298-.869-2.078-2.103-2.338-3.704-.275-1.684.064-3.15 1.017-4.397.82-1.074 2.013-1.738 3.582-1.994 1.084-.177 2.062-.077 2.934.3Zm10.829-.872.126 1.916c-.924-.73-1.914-1.061-2.967-.992-1.15.075-2.061.52-2.735 1.334-.663.803-.956 1.795-.879 2.976.075 1.139.505 2.067 1.29 2.785.784.708 1.74 1.025 2.868.95 1.054-.069 1.985-.541 2.793-1.418l.127 1.932a5.62 5.62 0 0 1-2.869.99c-1.48.098-2.768-.31-3.865-1.22-1.208-.99-1.866-2.294-1.972-3.912-.112-1.703.366-3.13 1.435-4.28.918-.99 2.17-1.537 3.756-1.64 1.096-.073 2.06.12 2.892.579Zm10.195 10.283.305-7.178-7.519 7.352.473-11.142 1.631.069-.306 7.21 7.518-7.352-.471 11.11-1.631-.07Zm7.387-5.868 1.575.281a5.186 5.186 0 0 1 1.903-2.552c1.205-.858 2.579-1.148 4.122-.872 1.533.274 2.706 1.02 3.517 2.238.822 1.22 1.094 2.607.816 4.16-.278 1.555-1.014 2.761-2.208 3.62-1.193.86-2.552 1.153-4.074.88-1.743-.31-3.004-1.17-3.781-2.577-.563-1.033-.752-2.16-.565-3.385l-1.575-.281-.862 4.82-1.607-.288 1.879-10.505 1.607.287-.747 4.174Zm3.454 4.681c.56.87 1.38 1.401 2.462 1.594 1.081.194 2.035-.02 2.861-.642.827-.621 1.343-1.51 1.55-2.665.206-1.155.03-2.167-.53-3.036-.559-.87-1.38-1.401-2.461-1.595-1.082-.193-2.036.021-2.862.643-.827.621-1.343 1.51-1.55 2.664-.206 1.155-.03 2.168.53 3.037Zm9.741 1.928.457-1.566 3.686 1.074-.456 1.567-3.687-1.075Zm8.682-3.293-.638-1.35c.553-.35 1.117-.549 1.693-.595.593-.062 1.244.04 1.953.306.999.374 1.673.93 2.024 1.665.303.649.324 1.323.061 2.022-.18.48-.445.853-.796 1.12a2.51 2.51 0 0 1-1.225.532c.497.345.836.809 1.017 1.39.178.556.136 1.184-.126 1.883-.337.899-.951 1.517-1.841 1.855-.896.325-1.904.277-3.022-.142-.949-.356-1.671-.923-2.165-1.701a4.65 4.65 0 0 1-.666-2.096l1.607-.183c.008.584.166 1.105.473 1.562.323.474.815.835 1.474 1.082.659.248 1.236.26 1.73.035.439-.2.753-.55.94-1.049.195-.52.147-.982-.146-1.388-.272-.398-.827-.755-1.666-1.07l-.899-.337.54-1.438.809.304c.639.24 1.169.285 1.59.135.393-.137.67-.42.831-.85.169-.45.138-.854-.091-1.213-.185-.298-.532-.542-1.041-.733-.48-.18-.92-.237-1.321-.17-.387.06-.753.201-1.099.424Zm11.489 2.019-1.874 3.786 4.101 2.03 1.874-3.786 1.463.724-4.735 9.565-1.463-.724 2.18-4.402-4.101-2.03-2.18 4.401-1.462-.724 4.735-9.564 1.462.724Zm9.895 17.808.438-2.775-3.848-2.447-2.368 1.546-1.485-.945 10.546-6.679-1.798 12.245-1.485-.945Zm-2.018-6.158 2.727 1.735.604-3.9-3.331 2.165Zm12.455.519-2.628 3.348 5.875-.8 1.687 1.324-6.772.828.208 7.587-1.711-1.343-.072-6.077-.45.054-2.726 3.474-1.284-1.007 6.589-8.396 1.284 1.008Zm6.984 7.47c1.494-.016 2.808.532 3.944 1.643 1.136 1.112 1.712 2.414 1.729 3.907.016 1.494-.528 2.804-1.632 3.933-1.104 1.128-2.403 1.7-3.896 1.717-1.493.016-2.808-.532-3.944-1.643-1.136-1.111-1.712-2.414-1.728-3.907-.017-1.493.527-2.804 1.631-3.933 1.104-1.128 2.403-1.7 3.896-1.717Zm-3.977 5.712c.004 1.048.414 1.972 1.23 2.77.816.798 1.748 1.188 2.796 1.169 1.056-.027 1.997-.463 2.825-1.31.829-.846 1.241-1.793 1.237-2.841.003-1.057-.403-1.984-1.219-2.782-.815-.798-1.751-1.184-2.807-1.157-1.048.019-1.986.451-2.814 1.298-.828.846-1.244 1.797-1.248 2.853Zm6.859 10.484-1.027-1.309 10.407-5.32-4.228 8.037 8.831-2.171-7.78 8.668-1.027-1.31 4.388-4.826-7.366 1.835 3.566-6.703-5.764 3.1Zm20.133 11.199-1.635 1.007c.214-1.159.043-2.188-.51-3.087-.604-.981-1.423-1.579-2.458-1.794-1.019-.211-2.033-.006-3.041.614-.972.599-1.592 1.413-1.86 2.442-.259 1.024-.092 2.017.501 2.98.553.9 1.407 1.501 2.559 1.806l-1.649 1.016a5.622 5.622 0 0 1-2.216-2.074c-.778-1.263-1.02-2.592-.727-3.987.31-1.531 1.155-2.722 2.536-3.572 1.453-.895 2.938-1.14 4.453-.732 1.305.349 2.374 1.2 3.208 2.553.576.936.855 1.878.839 2.828Zm2.871 7.655-1.11-2.182-8.142 4.145-.741-1.455 8.142-4.144-1.11-2.182 1.369-.696 2.961 5.817-1.369.697Zm2.382 1.471.619 1.493c.277.67.448 1.234.511 1.693a2.71 2.71 0 0 1-.153 1.345c-.277.726-.819 1.257-1.627 1.592-.463.191-.893.254-1.29.188a1.785 1.785 0 0 1-.987-.458c.085.566.024 1.087-.183 1.565-.273.622-.799 1.094-1.578 1.416-.719.298-1.4.326-2.043.084-.894-.345-1.596-1.134-2.106-2.366l-1.022-2.469 9.859-4.083Zm-.794 2.095-2.824 1.17.19.458c.229.552.526.908.893 1.068.352.154.78.127 1.282-.081.404-.168.671-.417.799-.747.141-.358.099-.808-.126-1.35l-.214-.518Zm-4.065 1.684-2.957 1.224.38.917c.281.68.616 1.124 1.003 1.334.39.219.822.23 1.295.034.424-.175.714-.451.87-.827.169-.428.103-1.007-.2-1.736l-.391-.946Zm7.502 6.641c1.312.713 2.193 1.832 2.644 3.356.45 1.525.319 2.943-.395 4.255-.713 1.312-1.827 2.191-3.341 2.639-1.514.447-2.927.314-4.239-.4-1.312-.713-2.193-1.831-2.643-3.355-.451-1.525-.319-2.943.394-4.255.713-1.312 1.827-2.191 3.341-2.639 1.514-.447 2.927-.314 4.239.399Zm-6.256 3.05c-.508.918-.6 1.924-.276 3.018.323 1.095.948 1.89 1.872 2.383.935.491 1.97.57 3.106.234 1.135-.336 1.957-.963 2.464-1.88.518-.92.615-1.928.291-3.022-.323-1.095-.952-1.888-1.887-2.379-.925-.494-1.955-.573-3.09-.238-1.136.336-1.962.964-2.48 1.884Z" fill="#fff"/></svg>