<svg width="236" height="236" fill="none" xmlns="http://www.w3.org/2000/svg"><path d="m227.309 119.506 1.085-1.027c.505.417.869.892 1.092 1.424.244.544.35 1.195.318 1.951-.046 1.066-.363 1.88-.953 2.442-.522.49-1.157.72-1.903.688-.511-.022-.948-.158-1.312-.408a2.512 2.512 0 0 1-.886-.999 2.588 2.588 0 0 1-1.004 1.399c-.474.343-1.084.499-1.83.467-.959-.041-1.738-.432-2.336-1.172-.587-.751-.856-1.724-.805-2.917.043-1.013.357-1.875.943-2.586a4.65 4.65 0 0 1 1.784-1.286l.674 1.47c-.553.19-.998.502-1.337.936-.35.455-.54 1.034-.57 1.738-.03.703.139 1.255.506 1.654.327.356.756.545 1.289.568.554.023.979-.167 1.274-.571.293-.382.459-1.021.497-1.916l.041-.96 1.535.066-.037.863c-.029.682.093 1.2.366 1.553.253.331.609.506 1.067.526.48.02.855-.135 1.125-.465.225-.268.349-.674.372-1.217.022-.512-.061-.948-.249-1.308a2.805 2.805 0 0 0-.746-.913Zm-9.761 15.761 2.709-.743.647-4.514-2.384-1.522.25-1.742 10.427 6.862-11.899 3.401.25-1.742Zm4.781-4.374-.459 3.2 3.805-1.055-3.346-2.145Zm5.034 9.967-1.907 7.605-10.351-2.595.397-1.583 8.861 2.221 1.113-4.438-8.861-2.222.396-1.583 10.352 2.595Zm-15.403 14.1 6.745 2.473-4.717-9.398 10.471 3.839-.562 1.532-6.775-2.484 4.717 9.399-10.441-3.829.562-1.532Zm3.929 15.547-1.724-.846c1.094-.438 1.873-1.131 2.338-2.079.508-1.034.576-2.046.206-3.035-.365-.975-1.079-1.724-2.142-2.245-1.025-.503-2.044-.592-3.058-.27-1.004.327-1.755.999-2.253 2.014-.465.948-.519 1.991-.162 3.128l-1.738-.852a5.628 5.628 0 0 1 .571-2.982c.653-1.331 1.648-2.245 2.984-2.742 1.461-.555 2.918-.475 4.374.239 1.532.751 2.531 1.877 2.996 3.376.401 1.289.251 2.648-.449 4.075-.483.986-1.131 1.726-1.943 2.219Zm-13.769 3.27 2.779.408 2.406-3.874-1.573-2.351.929-1.496 6.794 10.472-12.263-1.663.928-1.496Zm6.135-2.085-1.705 2.746 3.908.561-2.203-3.307Zm-3.856 14.471 1.461-1.964-7.328-5.454.974-1.31 7.329 5.455 1.462-1.963 1.232.917-3.898 5.236-1.232-.917Zm-12.759.805 5.367 4.776-.939-10.474 8.331 7.414-1.085 1.219-5.39-4.797.938 10.474-8.307-7.393 1.085-1.219Zm-1.954 15.84-1.298-1.415c1.179-.009 2.157-.37 2.935-1.084.85-.778 1.282-1.695 1.298-2.752.016-1.041-.377-1.998-1.177-2.871-.771-.841-1.687-1.296-2.749-1.365-1.054-.061-1.998.29-2.831 1.054-.779.713-1.209 1.665-1.291 2.854l-1.308-1.427a5.61 5.61 0 0 1 1.618-2.568c1.093-1.002 2.352-1.491 3.778-1.466 1.562.015 2.891.62 3.986 1.816 1.153 1.258 1.673 2.67 1.56 4.235-.097 1.347-.731 2.558-1.903 3.632-.81.742-1.683 1.194-2.618 1.357Zm-8.097-6.455 6.496 8.468-1.295.993-2.62-3.415-.964.74c-.906.695-1.785 1.013-2.636.954-.891-.056-1.635-.474-2.232-1.252a3.256 3.256 0 0 1-.617-1.383c-.101-.5-.07-.994.093-1.482.223-.655.724-1.282 1.503-1.879l2.272-1.744Zm1.646 4.828-2.006-2.615-.914.701c-1.134.87-1.373 1.732-.717 2.587.285.372.653.588 1.101.647.447.074.979-.126 1.597-.6l.939-.72Zm-7.72 12.452-2.108-3.661-3.965 2.284 2.108 3.66-1.414.815-5.326-9.248 1.414-.815 2.451 4.257 3.966-2.284-2.452-4.256 1.414-.815 5.327 9.248-1.415.815Zm-19.779-1.947 2.07 1.898 4.166-1.855.02-2.828 1.608-.716-.26 12.48-9.212-8.264 1.608-.715Zm6.247 1.72-2.953 1.314 2.918 2.659.035-3.973Zm-17.46 12.555-.537-1.843c1.06.513 2.097.622 3.111.326 1.106-.322 1.9-.953 2.381-1.894.475-.927.546-1.958.215-3.095-.319-1.096-.94-1.91-1.861-2.441-.919-.521-1.921-.623-3.006-.307-1.014.295-1.821.958-2.421 1.989l-.541-1.859a5.613 5.613 0 0 1 2.587-1.587c1.423-.415 2.769-.296 4.037.356 1.394.705 2.318 1.836 2.772 3.392.477 1.639.319 3.135-.475 4.488-.683 1.166-1.787 1.971-3.313 2.416-1.055.307-2.038.327-2.949.059Zm-8.123 2.236-.299-1.507 4.174-.829-.527-2.652-4.048.804-.3-1.507 4.049-.804-.655-3.296-4.174.83-.299-1.507 5.775-1.147 2.079 10.467-5.775 1.148Zm-10.414.736-.222-1.907c.96.683 1.964.964 3.013.842 1.145-.133 2.033-.622 2.665-1.469.622-.835.865-1.84.729-3.016-.132-1.134-.608-2.04-1.428-2.718-.818-.667-1.789-.935-2.912-.805-1.049.122-1.955.64-2.719 1.556l-.223-1.923a5.626 5.626 0 0 1 2.816-1.133c1.473-.171 2.78.172 3.921 1.027 1.257.928 1.979 2.197 2.166 3.808.197 1.695-.21 3.143-1.219 4.345-.868 1.035-2.091 1.644-3.67 1.828-1.091.127-2.064-.018-2.917-.435Zm-2.415.645-1.631.069-.453-10.662 1.631-.069.453 10.662Zm-7.33-3.977-1.597-.093a5.19 5.19 0 0 1-1.587 2.761c-1.094.994-2.423 1.446-3.989 1.355-1.554-.09-2.807-.691-3.758-1.804-.961-1.113-1.396-2.458-1.305-4.034.092-1.576.679-2.862 1.763-3.857 1.083-.995 2.397-1.448 3.941-1.358 1.767.102 3.121.806 4.06 2.11.682.959 1.003 2.056.964 3.294l1.597.092.283-4.888 1.629.095-.617 10.654-1.629-.095.245-4.232Zm-3.986-4.238c-.659-.797-1.536-1.227-2.633-1.291-1.097-.063-2.019.263-2.766.978-.746.715-1.153 1.659-1.221 2.83-.068 1.172.227 2.156.886 2.952.659.797 1.537 1.227 2.634 1.291 1.097.063 2.019-.262 2.765-.978.747-.715 1.154-1.658 1.222-2.83.068-1.171-.228-2.155-.887-2.952Zm-9.336-.712-.256 1.611-3.792-.603.256-1.612 3.792.604Zm-8.379 4.284.802 1.26c-.505.417-1.04.684-1.606.801-.58.136-1.24.116-1.976-.06-1.038-.248-1.776-.714-2.216-1.401-.381-.606-.485-1.272-.312-1.999.119-.498.336-.901.65-1.21a2.52 2.52 0 0 1 1.15-.68 2.58 2.58 0 0 1-1.182-1.252c-.246-.53-.283-1.159-.11-1.885.224-.934.756-1.624 1.597-2.07.849-.433 1.855-.511 3.016-.234.986.235 1.773.708 2.36 1.418a4.67 4.67 0 0 1 .922 1.997l-1.572.381a2.818 2.818 0 0 0-.664-1.491c-.38-.43-.912-.727-1.597-.89-.685-.164-1.258-.103-1.721.181-.411.253-.679.639-.803 1.157-.128.54-.023.993.318 1.359.32.361.915.646 1.786.854l.934.223-.356 1.494-.84-.201c-.665-.158-1.196-.137-1.595.064-.373.185-.613.501-.72.947-.111.467-.03.864.242 1.193.22.272.595.471 1.124.597.498.119.942.12 1.331.005a2.813 2.813 0 0 0 1.038-.558Zm-11.399-.55 1.38-3.992-4.326-1.495-1.379 3.993-1.542-.533 3.485-10.087 1.542.533-1.604 4.643 4.325 1.494 1.604-4.643 1.543.533-3.485 10.087-1.543-.533Zm-11.489-16.204-.077 2.808 4.131 1.931 2.15-1.838 1.594.745-9.597 7.982.205-12.374 1.594.746Zm2.795 5.846-2.928-1.369-.097 3.946 3.025-2.577Zm-11.643-10.933-3.722 6.144 10.129-2.825-5.778 9.539-1.396-.845 3.739-6.173-10.13 2.825 5.762-9.511 1.396.846Zm-2.258 14.196-1.393-.171c.05-.206.056-.402.019-.587a1.23 1.23 0 0 0-.242-.464l-.28-.281a1.892 1.892 0 0 0-.196-.139 2.045 2.045 0 0 0-.214-.11 35.944 35.944 0 0 0-.364-.109 1.08 1.08 0 0 0-.524.001 1.24 1.24 0 0 0-.526.28l-.796-1.156c.52-.383 1.057-.55 1.613-.5a3.365 3.365 0 0 1 1.49.472c.448.271.822.641 1.124 1.111.292.464.389 1.015.29 1.653Zm-7.806-9.774c-1.482.184-2.85-.212-4.103-1.188-1.254-.977-1.973-2.206-2.157-3.688-.185-1.482.208-2.846 1.178-4.092.97-1.245 2.196-1.96 3.678-2.144 1.482-.184 2.85.212 4.104 1.189 1.254.976 1.973 2.205 2.157 3.687.184 1.482-.208 2.846-1.178 4.092-.97 1.245-2.197 1.96-3.679 2.144Zm3.31-6.123c-.122-1.041-.634-1.913-1.534-2.614-.9-.701-1.87-.983-2.91-.847-1.046.146-1.933.685-2.66 1.619-.728.934-1.03 1.922-.909 2.963.116 1.05.623 1.926 1.524 2.627.9.701 1.873.979 2.92.834 1.039-.137 1.922-.672 2.65-1.606s1.034-1.926.918-2.976Zm-7.329-9.105 1.177 1.176-9.696 6.528 3.236-8.485-8.508 3.213 6.686-9.537 1.177 1.176-3.779 5.318 7.094-2.704-2.738 7.082 5.351-3.767Zm-21.181-8.59 1.502-1.196c-.072 1.176.22 2.177.878 3.003.718.901 1.603 1.396 2.656 1.485 1.038.087 2.02-.239 2.946-.976.892-.711 1.41-1.594 1.552-2.648.134-1.048-.152-2.014-.856-2.898-.658-.826-1.577-1.321-2.758-1.485l1.514-1.206a5.616 5.616 0 0 1 2.45 1.791c.924 1.16 1.324 2.45 1.202 3.871-.124 1.557-.82 2.841-2.087 3.851-1.335 1.064-2.78 1.485-4.334 1.263-1.337-.189-2.5-.905-3.49-2.149-.685-.859-1.077-1.761-1.175-2.706Zm-3.642-7.099 1.366 2.031 7.58-5.101.911 1.354-7.58 5.101 1.367 2.031-1.274.857-3.645-5.416 1.275-.857Zm-2.278-.762-.801-1.403c-.36-.63-.6-1.169-.72-1.616a2.708 2.708 0 0 1-.017-1.353c.182-.756.654-1.35 1.413-1.784.435-.249.854-.365 1.256-.349.383.003.728.113 1.036.33-.154-.551-.16-1.076-.015-1.576.193-.651.656-1.185 1.388-1.603.676-.386 1.348-.5 2.016-.341.93.231 1.726.925 2.387 2.083l1.325 2.32-9.268 5.292Zm.525-2.179 2.654-1.515-.246-.431c-.297-.519-.636-.834-1.02-.947-.37-.109-.79-.028-1.262.242-.38.217-.613.497-.7.841-.093.373.005.814.296 1.324l.278.486Zm3.82-2.182 2.78-1.587-.492-.861c-.365-.639-.753-1.038-1.163-1.197-.415-.168-.845-.125-1.29.129-.398.227-.65.537-.758.93-.114.446.025 1.012.416 1.697l.508.889Zm-8.192-5.522c-1.393-.541-2.41-1.538-3.05-2.992-.641-1.455-.691-2.878-.15-4.27.54-1.392 1.532-2.407 2.977-3.043 1.444-.637 2.863-.685 4.255-.145 1.392.541 2.409 1.538 3.05 2.993.64 1.454.69 2.877.15 4.27-.54 1.392-1.533 2.406-2.977 3.043-1.445.636-2.863.684-4.255.144Zm5.816-3.822c.387-.975.35-1.984-.11-3.029-.46-1.044-1.181-1.753-2.161-2.125-.99-.368-2.027-.313-3.11.164-1.083.477-1.818 1.203-2.205 2.178-.396.979-.364 1.991.096 3.035.46 1.044 1.185 1.751 2.175 2.119.98.372 2.012.32 3.095-.158 1.084-.477 1.824-1.205 2.22-2.184ZM7.804 121.231l-1.032 1.08c-.525-.39-.913-.846-1.162-1.367-.271-.531-.41-1.175-.415-1.932-.008-1.067.268-1.896.829-2.487.497-.516 1.119-.777 1.866-.782.512-.004.955.11 1.33.341.386.221.698.539.936.953.144-.588.455-1.07.933-1.447.455-.366 1.057-.552 1.803-.558.96-.007 1.758.344 2.393 1.054.624.72.94 1.678.95 2.872.008 1.014-.263 1.89-.812 2.631a4.658 4.658 0 0 1-1.717 1.373l-.747-1.434a2.82 2.82 0 0 0 1.288-1.002c.327-.472.488-1.06.482-1.764-.005-.704-.201-1.247-.588-1.628-.344-.338-.783-.506-1.316-.501-.555.004-.97.215-1.243.633-.275.397-.408 1.043-.402 1.939l.008.96-1.536.012-.007-.864c-.005-.682-.153-1.193-.444-1.532-.269-.318-.633-.476-1.091-.472-.48.004-.847.177-1.1.52-.211.279-.315.691-.31 1.235.003.512.108.943.313 1.294.195.339.458.631.791.873Zm8.962-16.325-2.668.877-.422 4.541 2.457 1.401-.162 1.752-10.757-6.333 11.715-3.99-.163 1.752Zm-4.557 4.607.299-3.219-3.747 1.243 3.448 1.976Zm-5.518-9.78 1.528-7.69 10.468 2.08-.318 1.6-8.961-1.78-.892 4.488 8.96 1.781-.317 1.6-10.468-2.08Zm14.652-14.748-6.858-2.14 5.171 9.156L9.01 88.68l.487-1.558 6.888 2.15-5.171-9.156 10.615 3.313-.486 1.557Zm-4.66-15.44 1.762.761c-1.071.49-1.816 1.22-2.235 2.19-.456 1.057-.476 2.071-.058 3.041.412.957 1.161 1.67 2.248 2.139 1.048.452 2.07.493 3.067.122.987-.376 1.705-1.083 2.153-2.12.419-.97.422-2.014.01-3.133l1.778.767a5.622 5.622 0 0 1-.426 3.006c-.588 1.36-1.537 2.322-2.849 2.883-1.431.625-2.891.616-4.38-.027-1.567-.676-2.619-1.752-3.155-3.227-.463-1.269-.38-2.633.25-4.092.436-1.009 1.047-1.779 1.835-2.31Zm13.377-3.59-2.797-.263-2.203 3.993 1.692 2.266-.85 1.542-7.325-10.108 12.333 1.03-.85 1.54Zm-6.02 2.4 1.561-2.83-3.931-.36 2.37 3.19Zm3.11-14.688-1.359 2.036 7.598 5.073-.906 1.357-7.598-5.072-1.36 2.035-1.277-.852 3.625-5.43 1.277.853Zm12.601-1.357-5.603-4.497 1.47 10.412-8.697-6.98 1.022-1.273 5.628 4.516-1.47-10.412 8.672 6.96-1.022 1.273ZM40.8 36.438l1.367 1.347c-1.176.07-2.135.48-2.876 1.232-.809.82-1.194 1.758-1.156 2.814.038 1.04.478 1.976 1.321 2.808.813.8 1.751 1.209 2.815 1.224 1.056.007 1.98-.392 2.775-1.197.74-.752 1.122-1.724 1.144-2.916l1.379 1.359a5.62 5.62 0 0 1-1.486 2.647c-1.04 1.056-2.274 1.608-3.699 1.656-1.56.064-2.919-.473-4.073-1.611-1.216-1.198-1.807-2.582-1.773-4.15.028-1.351.6-2.592 1.716-3.724.77-.783 1.62-1.28 2.546-1.49Zm8.731 5.698-6.89-8.15 1.247-1.054 2.779 3.287.928-.785c.872-.737 1.734-1.096 2.588-1.077.892.014 1.655.396 2.288 1.145.33.391.558.841.682 1.351.125.495.117.99-.023 1.486-.192.665-.662 1.314-1.412 1.948l-2.187 1.849Zm-1.873-4.744 2.128 2.517.88-.744c1.091-.922 1.29-1.795.594-2.618a1.609 1.609 0 0 0-1.131-.594c-.45-.053-.972.172-1.567.675l-.904.764Zm6.607-12.517 2.294 3.547 3.842-2.484-2.293-3.547 1.37-.887 5.795 8.962-1.37.886-2.668-4.125-3.842 2.485 2.667 4.125-1.37.886-5.795-8.961 1.37-.887Zm19.845.869-2.166-1.787-4.064 2.068.127 2.826-1.568.798-.39-12.477 9.63 7.774-1.569.798Zm-6.328-1.392 2.88-1.467-3.052-2.504.172 3.97Zm17.114-13.616.627 1.815c-1.085-.46-2.126-.518-3.124-.173-1.09.376-1.85 1.045-2.286 2.008-.428.95-.449 1.983-.062 3.102.373 1.08 1.032 1.861 1.979 2.347.943.475 1.949.528 3.017.16.998-.346 1.772-1.047 2.32-2.106l.632 1.83a5.622 5.622 0 0 1-2.506 1.712c-1.401.485-2.751.432-4.05-.158-1.427-.635-2.405-1.72-2.934-3.252-.558-1.613-.473-3.115.254-4.506.624-1.197 1.688-2.056 3.19-2.575 1.038-.358 2.02-.426 2.943-.204Zm7.635-2.589.38 1.489-4.125 1.05.668 2.62 4-1.018.38 1.488-4 1.02.829 3.255 4.124-1.05.38 1.488-5.707 1.453-2.634-10.341 5.706-1.454Zm10.237-1.281.316 1.894c-.992-.635-2.01-.865-3.051-.69-1.136.189-1.999.722-2.588 1.6-.58.864-.772 1.88-.577 3.048.188 1.126.708 2.007 1.56 2.643.851.626 1.834.846 2.949.66 1.042-.175 1.921-.738 2.638-1.69l.319 1.91a5.623 5.623 0 0 1-2.756 1.27c-1.463.245-2.785-.032-3.967-.829-1.302-.864-2.086-2.096-2.353-3.695-.281-1.683.052-3.15 1-4.4.816-1.078 2.007-1.747 3.574-2.01 1.084-.18 2.063-.084 2.936.29Zm2.985-.874 1.625-.151.986 10.626-1.625.15-.986-10.625Zm7.419 3.598 1.6.013a5.174 5.174 0 0 1 1.446-2.837c1.042-1.048 2.348-1.566 3.916-1.554 1.557.012 2.838.55 3.843 1.614 1.016 1.063 1.518 2.385 1.506 3.963-.012 1.579-.535 2.892-1.567 3.94s-2.321 1.566-3.868 1.555c-1.77-.014-3.158-.649-4.161-1.905-.729-.923-1.105-2.003-1.127-3.24l-1.6-.013-.038 4.896-1.632-.013.082-10.671 1.632.012-.032 4.24Zm4.193 4.033c.698.762 1.596 1.148 2.695 1.157 1.098.008 2.003-.364 2.712-1.116.71-.751 1.07-1.714 1.079-2.887.009-1.174-.336-2.142-1.034-2.904-.698-.763-1.596-1.149-2.695-1.157-1.099-.009-2.003.363-2.713 1.115s-1.069 1.714-1.078 2.888c-.009 1.173.335 2.14 1.034 2.904Zm9.044.187.175-1.623 3.818.414-.176 1.623-3.817-.414Zm8.553-4.67-.863-1.219c.484-.44 1.005-.734 1.564-.88.573-.164 1.232-.176 1.976-.037 1.049.196 1.81.625 2.283 1.289.411.587.548 1.247.411 1.981-.094.503-.291.917-.59 1.24a2.513 2.513 0 0 1-1.114.737c.549.254.963.652 1.242 1.192.272.518.34 1.143.203 1.877-.176.944-.673 1.66-1.492 2.147-.826.475-1.827.603-3.001.383-.996-.186-1.805-.619-2.427-1.3a4.656 4.656 0 0 1-1.019-1.948l1.55-.459c.11.574.356 1.06.738 1.456.4.412.947.682 1.639.811.692.13 1.262.04 1.71-.266.398-.273.646-.672.744-1.196.102-.545-.026-.992-.384-1.341-.337-.345-.946-.6-1.827-.765l-.944-.176.282-1.51.85.159c.671.125 1.2.077 1.589-.143.363-.203.587-.53.671-.981.088-.472-.012-.865-.3-1.18-.234-.26-.618-.44-1.153-.54-.503-.094-.946-.074-1.329.06-.371.127-.707.33-1.009.61Zm11.46-.03-1.182 4.056 4.394 1.28 1.182-4.055 1.566.456-2.986 10.246-1.566-.456 1.374-4.716-4.393-1.28-1.375 4.715-1.566-.456 2.986-10.246 1.566.456Zm11.923 15.44-.07-2.809-4.226-1.713-2.05 1.948-1.631-.661 9.167-8.473.441 12.369-1.631-.662Zm-3.096-5.693 2.995 1.214-.109-3.946-2.886 2.732Zm12.203 10.275 3.4-6.328-9.97 3.343 5.278-9.824 1.438.773-3.415 6.356 9.969-3.343-5.263 9.795-1.437-.772Zm1.522-14.294 1.4.099c-.039.209-.035.404.012.587.061.178.15.329.266.452l.292.266c.071.05.139.092.204.128.066.035.139.068.219.1l.37.089c.175.034.35.024.523-.028a1.23 1.23 0 0 0 .51-.307l.855 1.113c-.498.41-1.027.605-1.585.584a3.362 3.362 0 0 1-1.513-.396 3.468 3.468 0 0 1-1.179-1.05c-.316-.45-.44-.994-.374-1.637Zm8.465 9.419c1.471-.26 2.857.066 4.159.977 1.303.912 2.083 2.103 2.343 3.573.26 1.471-.063 2.853-.968 4.146-.905 1.294-2.093 2.07-3.564 2.33-1.47.26-2.857-.066-4.159-.977-1.302-.912-2.083-2.103-2.343-3.573-.259-1.47.063-2.853.969-4.146.905-1.294 2.093-2.07 3.563-2.33Zm-2.992 6.284c.175 1.034.73 1.878 1.665 2.532.935.655 1.919.887 2.95.697 1.037-.198 1.895-.782 2.574-1.752.679-.97.931-1.972.756-3.006-.169-1.043-.721-1.89-1.656-2.545-.935-.655-1.921-.883-2.958-.684-1.032.19-1.887.77-2.565 1.74-.679.97-.934 1.976-.766 3.018Zm8.127 8.969-1.231-1.12 9.377-6.979-2.831 8.629 8.346-3.611-6.228 9.842-1.231-1.12 3.523-5.49-6.958 3.036 2.401-7.203-5.168 4.016Zm21.273 7.193-1.439 1.271c.013-1.178-.331-2.163-1.03-2.954-.763-.863-1.672-1.313-2.728-1.348-1.04-.034-2.005.341-2.892 1.125-.855.756-1.327 1.664-1.415 2.724-.08 1.053.254 2.003 1.002 2.85.7.791 1.643 1.24 2.83 1.343l-1.45 1.282a5.628 5.628 0 0 1-2.539-1.665c-.981-1.111-1.447-2.38-1.397-3.804.044-1.562.674-2.88 1.889-3.953 1.279-1.13 2.7-1.624 4.263-1.482 1.345.121 2.544.777 3.596 1.968.727.823 1.164 1.704 1.31 2.643Zm4.109 7.014-1.469-1.959-7.309 5.482-.979-1.306 7.309-5.481-1.469-1.959 1.229-.921 3.917 5.222-1.229.922Zm2.235.508.872 1.36c.392.61.659 1.136.802 1.576.143.44.172.891.087 1.351-.143.764-.583 1.382-1.319 1.854-.422.27-.835.409-1.237.413a1.782 1.782 0 0 1-1.052-.276 2.83 2.83 0 0 1 .097 1.573c-.16.66-.594 1.218-1.303 1.673-.656.42-1.321.568-1.997.444-.94-.183-1.771-.835-2.49-1.957l-1.443-2.25 8.983-5.761Zm-.412 2.203-2.572 1.65.267.417c.323.503.679.8 1.068.893.374.09.79-.012 1.248-.306.368-.236.586-.528.654-.876.075-.378-.046-.813-.363-1.307l-.302-.471Zm-3.704 2.375-2.693 1.728.535.835c.398.62.805.998 1.223 1.136.424.146.851.081 1.282-.195.386-.248.622-.57.709-.968.091-.452-.077-1.01-.503-1.674l-.553-.862Zm8.508 5.122c1.418.467 2.485 1.41 3.201 2.83.716 1.419.84 2.837.372 4.256-.467 1.418-1.405 2.483-2.815 3.194-1.409.71-2.823.832-4.242.365-1.418-.467-2.485-1.41-3.201-2.83-.716-1.419-.84-2.837-.372-4.256.467-1.418 1.405-2.483 2.815-3.194 1.409-.71 2.823-.832 4.242-.365Zm-5.61 4.12c-.335.993-.246 2 .268 3.018.514 1.02 1.27 1.69 2.268 2.01 1.008.316 2.04.208 3.097-.325 1.057-.534 1.754-1.297 2.089-2.29.345-.998.26-2.007-.254-3.026-.514-1.02-1.275-1.687-2.282-2.003-.998-.32-2.026-.215-3.083.318-1.057.534-1.758 1.3-2.103 2.297Z" fill="#fff"/></svg>