<svg width="69" height="37" fill="none" xmlns="http://www.w3.org/2000/svg"><path d="M.71.771v-1h-1v1h1Zm9.169 0h1v-1h-1v1Zm0 35.351v1h1v-1h-1Zm-9.169 0h-1v1h1v-1Zm0-34.35h9.169v-2H.71v2Zm8.169-1v35.35h2V.772h-2Zm1 34.35H.71v2h9.169v-2Zm-8.169 1V.772h-2v35.35h2Zm41.001-11.819h1v-2.576l-1.738 1.901.738.675Zm0 10.865.341.94.66-.239v-.7h-1Zm-21.624-3.55-.707.706.007.007.7-.714Zm-3.975-5.937-.928.371.003.01.004.008.921-.389Zm.053-14.045-.918-.396-.005.012.923.384ZM21.087 5.7l-.714-.7.714.7Zm21.624-3.71h1v-.674l-.624-.253-.376.927Zm0 10.971-.777.629 1.777 2.2v-2.83h-1Zm-14.363-1.537-.668-.744-.007.006-.006.006.681.732Zm-.212 14.151-.686.727.002.002.684-.729Zm13.575-1.272v10.865h2V24.303h-2Zm.66 9.925c-3.168 1.148-5.692 1.69-7.61 1.69v2c2.252 0 5.027-.626 8.291-1.81l-.682-1.88Zm-7.61 1.69c-5.276 0-9.575-1.683-12.974-5.015l-1.4 1.428c3.81 3.734 8.627 5.586 14.374 5.586v-2ZM21.794 30.91a17.445 17.445 0 0 1-3.76-5.618l-1.843.778a19.446 19.446 0 0 0 4.19 6.254l1.413-1.414Zm-3.753-5.6c-.875-2.186-1.307-4.375-1.307-6.572h-2c0 2.467.487 4.907 1.45 7.314l1.857-.742Zm-1.307-6.572c0-2.304.45-4.54 1.355-6.718l-1.847-.768a19.344 19.344 0 0 0-1.508 7.486h2Zm1.35-6.706c.944-2.193 2.185-4.066 3.718-5.632L20.372 5c-1.717 1.756-3.09 3.84-4.125 6.24l1.837.792ZM21.8 6.4c3.41-3.476 7.602-5.212 12.642-5.212v-2c-5.56 0-10.271 1.94-14.07 5.812L21.8 6.4Zm12.642-5.212c2.387 0 5.015.564 7.893 1.729l.75-1.854C40.03-.174 37.145-.812 34.444-.812v2Zm7.268.802v10.971h2V1.991h-2Zm1.778 10.343c-2.27-2.81-5.221-4.24-8.78-4.24v2c2.94 0 5.325 1.147 7.224 3.497l1.556-1.258Zm-8.78-4.24c-2.735 0-5.099.854-7.029 2.587l1.336 1.488c1.533-1.376 3.41-2.076 5.692-2.076v-2Zm-7.042 2.6c-2.263 2.106-3.393 4.797-3.393 7.992h2c0-2.67.92-4.82 2.756-6.529l-1.363-1.464Zm-3.393 7.992c0 3.047 1.054 5.613 3.176 7.617l1.373-1.454c-1.694-1.6-2.549-3.627-2.549-6.163h-2Zm3.178 7.62c1.939 1.82 4.384 2.708 7.256 2.708v-2c-2.427 0-4.363-.736-5.887-2.167l-1.37 1.458Zm7.256 2.708c3.382 0 6.31-1.376 8.741-4.035l-1.476-1.35c-2.09 2.287-4.499 3.385-7.265 3.385v2ZM68.78.771h1v-1h-1v1Zm0 7.791v1h1v-1h-1Zm-11.077 0v-1h-1v1h1Zm0 5.883h-1v1h1v-1Zm10.07 0h1v-1h-1v1Zm0 7.791v1h1v-1h-1Zm-10.07 0v-1h-1v1h1Zm0 13.886v1h1v-1h-1Zm-9.169 0h-1v1h1v-1Zm0-35.35v-1h-1v1h1Zm19.246 0v7.79h2V.772h-2Zm1 6.79H57.703v2H68.78v-2Zm-12.077 1v5.883h2V8.562h-2Zm1 6.883h10.07v-2h-10.07v2Zm9.07-1v7.791h2v-7.79h-2Zm1 6.791h-10.07v2h10.07v-2Zm-11.07 1v13.886h2V22.236h-2Zm1 12.886h-9.169v2h9.17v-2Zm-8.169 1V.772h-2v35.35h2Zm-1-34.35H68.78v-2H48.534v2Z" fill="url(#a)"/><defs><linearGradient id="a" x1="-3" y1="18.5" x2="74" y2="18.5" gradientUnits="userSpaceOnUse"><stop stop-color="#2E3192"/><stop offset="1" stop-color="#2484C6"/></linearGradient></defs></svg>