<svg width="22" height="22" fill="none" xmlns="http://www.w3.org/2000/svg"><path fill-rule="evenodd" clip-rule="evenodd" d="M11 0C4.929 0 0 4.929 0 11s4.929 11 11 11 11-4.929 11-11S17.071 0 11 0ZM8.115 17.828c.199.515.42.982.66 1.393C9.41 20.307 10.153 21 11 21c.847 0 1.59-.693 2.225-1.779.236-.403.453-.86.648-1.363-1.9.179-3.819.169-5.758-.03Zm-5.226-.981a10.016 10.016 0 0 0 5.717 3.864 6.65 6.65 0 0 1-.695-.986 11.263 11.263 0 0 1-.905-2.031 33.23 33.23 0 0 1-4.117-.847Zm16.201.029a29.099 29.099 0 0 1-4.109.855 11.182 11.182 0 0 1-.892 1.994 6.65 6.65 0 0 1-.695.986 10.018 10.018 0 0 0 5.696-3.835ZM14.995 11.5h-7.99c.04 1.955.313 3.767.758 5.282 2.18.257 4.335.269 6.465.033.45-1.521.727-3.346.767-5.315Zm5.993 0h-4.993c-.038 1.893-.287 3.659-.693 5.175a28.457 28.457 0 0 0 4.584-1.087 9.938 9.938 0 0 0 1.102-4.088Zm-14.983 0H1.012a9.948 9.948 0 0 0 1.099 4.083c1.538.468 3.063.819 4.576 1.053-.399-1.508-.645-3.26-.682-5.136Zm.685-6.147a32.991 32.991 0 0 0-4.579 1.064A9.948 9.948 0 0 0 1.012 10.5h4.993c.037-1.881.284-3.636.685-5.147Zm7.532-.186a28.018 28.018 0 0 0-6.456.038c-.447 1.517-.721 3.334-.761 5.295h7.99c-.04-1.977-.319-3.808-.773-5.333Zm1.076.141c.408 1.521.659 3.293.697 5.192h4.993a9.958 9.958 0 0 0-1.102-4.089 27.803 27.803 0 0 0-4.588-1.103ZM8.606 1.289a10.014 10.014 0 0 0-5.714 3.86 33.196 33.196 0 0 1 4.118-.855c.261-.763.564-1.443.901-2.019a6.65 6.65 0 0 1 .695-.986Zm4.788 0c.245.285.478.614.695.986.33.565.628 1.23.886 1.976a28.59 28.59 0 0 1 4.109.865 10.019 10.019 0 0 0-5.69-3.827Zm.472 2.835a9.566 9.566 0 0 0-.641-1.345C12.59 1.693 11.847 1 11 1c-.847 0-1.59.693-2.225 1.779-.238.408-.457.87-.654 1.379a28.976 28.976 0 0 1 5.745-.034Z" fill="#2A52A7"/></svg>