<svg width="133" height="98" fill="none" xmlns="http://www.w3.org/2000/svg"><g clip-path="url(#a)"><path d="M66.547 2C52.04 2 40.28 13.838 40.28 28.44c0 14.603 11.76 26.441 26.267 26.441 14.506 0 26.266-11.838 26.266-26.44C92.813 13.838 81.053 2 66.547 2Z" fill="#fff"/><path d="M62.911 23.304v-4.878h4.848v-2.44h-7.27v7.318h2.422Z" fill="#000"/><path d="M58.066 13.548h12.116V28.18h2.423V13.549h4.846V11.11H55.643v4.878h-7.269v2.439h9.692v-4.878Z" fill="#000"/><path d="M48.374 35.5v2.44h9.692v-7.318h-9.692v-7.318h9.692v-2.44H45.949v12.197h9.694v2.44h-7.269ZM84.72 18.426v12.196h-2.424V15.987h-7.268v2.439h4.845v14.636h7.271V18.425h-2.425Z" fill="#000"/><path d="M75.028 30.622h-9.694v2.44h12.117V20.864h-2.423v9.757Zm-9.694 12.195h2.425v-4.878h9.692V35.5H65.334v7.317Z" fill="#000"/><path d="M67.759 28.181v-7.316h-2.425v4.878H50.797v2.439h9.692v12.196h-9.692v2.439h4.846v4.878h2.423v-4.878h4.853l-.008-14.636h4.848Z" fill="#000"/><path d="M38.407 92.39c0-3.334 2.403-5.612 5.418-5.612 1.743 0 3.03.765 3.95 1.92l-.775.504c-.676-.943-1.854-1.577-3.176-1.577-2.5 0-4.452 1.935-4.452 4.765 0 2.797 1.951 4.765 4.452 4.765 1.322 0 2.5-.634 3.176-1.577l.776.489c-.952 1.188-2.21 1.935-3.95 1.935-3.016-.002-5.42-2.278-5.42-5.612Zm15.922-5.612c3.144 0 5.227 2.44 5.227 5.612 0 3.171-2.081 5.612-5.227 5.612-3.162 0-5.225-2.44-5.225-5.612 0-3.173 2.063-5.612 5.225-5.612Zm0 .845c-2.613 0-4.258 2-4.258 4.765 0 2.732 1.645 4.765 4.258 4.765 2.58 0 4.258-2.033 4.258-4.765 0-2.763-1.678-4.765-4.258-4.765Zm15.095 10.182-1.08-2.668h-5.726l-1.079 2.668h-1.034l4.405-10.849h1.145l4.405 10.849h-1.036Zm-3.95-9.937-2.565 6.425h5.145l-2.58-6.425Zm5.936 4.522c0-3.334 2.403-5.612 5.418-5.612 1.743 0 3.033.765 3.952 1.92l-.775.504c-.678-.943-1.854-1.577-3.177-1.577-2.5 0-4.451 1.935-4.451 4.765 0 2.797 1.951 4.765 4.451 4.765 1.323 0 2.5-.634 3.177-1.577l.775.489c-.951 1.188-2.21 1.935-3.952 1.935-3.017-.002-5.418-2.278-5.418-5.612Zm19.767 5.415v-5.156h-6.82v5.156h-.92V86.956h.92v4.848h6.82v-4.848h.937v10.849h-.937ZM0 81.367V61.778h7.805c3.903 0 6.088 2.702 6.088 5.904 0 3.201-2.242 5.903-6.088 5.903H2.417v7.782H0Zm7.514-17.414H2.417v7.459h5.098c2.3 0 3.874-1.527 3.874-3.73-.002-2.202-1.574-3.729-3.874-3.729Zm18.36-2.497c5.738 0 9.64 4.348 9.64 10.132 0 5.787-3.902 10.132-9.64 10.132-5.766 0-9.64-4.347-9.64-10.132.001-5.786 3.874-10.131 9.64-10.131Zm0 2.173c-4.368 0-7.134 3.378-7.134 7.96 0 4.552 2.766 7.958 7.134 7.958 4.34 0 7.135-3.406 7.135-7.959.002-4.58-2.795-7.959-7.135-7.959Zm12.533 17.738V61.778h6.64c6.029 0 9.96 4.26 9.96 9.81 0 5.58-3.931 9.78-9.96 9.78h-6.64Zm2.416-2.172h4.224c4.718 0 7.456-3.407 7.456-7.607 0-4.228-2.65-7.635-7.456-7.635h-4.224v15.242Zm29.021 2.172-7.368-8.81-1.951 2.233v6.58h-2.417V61.777h2.417V71.91l8.591-10.132h3.029l-8.096 9.31 8.795 10.28h-3Zm12.629-19.911c5.738 0 9.64 4.348 9.64 10.132 0 5.787-3.902 10.132-9.64 10.132-5.766 0-9.64-4.347-9.64-10.132.002-5.786 3.874-10.131 9.64-10.131Zm0 2.173c-4.368 0-7.134 3.378-7.134 7.96 0 4.552 2.766 7.958 7.134 7.958 4.34 0 7.135-3.406 7.135-7.959.002-4.58-2.795-7.959-7.135-7.959Zm12.842 17.738V61.778h7.806c3.902 0 6.087 2.702 6.087 5.904 0 3.201-2.242 5.903-6.087 5.903h-5.389v7.782h-2.417Zm7.515-17.414h-5.098v7.459h5.098c2.301 0 3.874-1.527 3.874-3.73 0-2.202-1.573-3.729-3.874-3.729Zm21.958 17.414-1.717-4.347h-9.844l-1.718 4.347h-2.679l7.805-19.589h3l7.834 19.59h-2.681Zm-6.64-17.414-4.224 10.896h8.417l-4.193-10.896Zm12.435 17.414V61.778H133v19.59h-2.417Z" fill="#fff"/></g><defs><clipPath id="a"><path fill="#fff" d="M0 0h133v98H0z"/></clipPath></defs></svg>