<svg width="100" height="73" fill="none" xmlns="http://www.w3.org/2000/svg"><path d="M50.035 0c-10.907 0-19.75 8.9-19.75 19.88 0 10.98 8.843 19.88 19.75 19.88s19.75-8.9 19.75-19.88C69.784 8.9 60.941 0 50.034 0Z" fill="#000"/><path d="M47.302 16.018V12.35h3.645v-1.834H45.48v5.502h1.822Z" fill="#fff"/><path d="M43.658 8.683h9.11v11.002h1.822V8.683h3.643V6.849H41.837v3.667H36.37v1.834h7.287V8.683Z" fill="#fff"/><path d="M36.371 25.188v1.834h7.287V21.52h-7.287v-5.503h7.287v-1.834h-9.11v9.17h7.289v1.834H36.37ZM63.699 12.35v9.17h-1.822V10.517h-5.465v1.834h3.643v11.004h5.467V12.35h-1.824Z" fill="#fff"/><path d="M56.412 21.52h-7.288v1.834h9.11v-9.17h-1.822v7.337Zm-7.289 9.17h1.824v-3.668h7.286v-1.834h-9.11v5.502Z" fill="#fff"/><path d="M50.947 19.685v-5.501h-1.824v3.668h-10.93v1.833h7.287v9.17h-7.287v1.834h3.644v3.668h1.821v-3.668h3.649l-.005-11.004h3.645Z" fill="#fff"/><path d="M28.877 67.962c0-2.506 1.807-4.22 4.075-4.22 1.31 0 2.278.576 2.97 1.444l-.583.38c-.509-.71-1.395-1.186-2.389-1.186-1.88 0-3.347 1.455-3.347 3.582 0 2.104 1.467 3.583 3.347 3.583.994 0 1.88-.477 2.389-1.186l.583.368c-.716.893-1.662 1.455-2.97 1.455-2.268-.002-4.075-1.713-4.075-4.22Zm11.972-4.219c2.364 0 3.93 1.834 3.93 4.22 0 2.384-1.565 4.219-3.93 4.219-2.378 0-3.93-1.834-3.93-4.22 0-2.385 1.552-4.22 3.93-4.22Zm0 .635c-1.965 0-3.202 1.504-3.202 3.583 0 2.054 1.237 3.583 3.202 3.583 1.94 0 3.2-1.529 3.2-3.583 0-2.077-1.26-3.583-3.2-3.583Zm11.349 7.656-.811-2.006h-4.306l-.811 2.005h-.777l3.311-8.156h.861l3.312 8.157h-.779Zm-2.97-7.471-1.928 4.83h3.868l-1.94-4.83Zm4.463 3.399c0-2.506 1.807-4.22 4.075-4.22 1.31 0 2.28.576 2.971 1.444l-.583.38c-.51-.71-1.394-1.186-2.388-1.186-1.88 0-3.347 1.455-3.347 3.582 0 2.104 1.467 3.583 3.347 3.583.994 0 1.88-.477 2.388-1.186l.583.368c-.716.893-1.661 1.455-2.971 1.455-2.269-.002-4.075-1.713-4.075-4.22Zm14.863 4.072v-3.877h-5.128v3.877h-.692v-8.157h.692v3.645h5.128v-3.645h.704v8.157h-.704ZM0 59.675V44.946h5.869c2.934 0 4.577 2.031 4.577 4.439 0 2.407-1.686 4.438-4.577 4.438H1.817v5.852H0ZM5.65 46.58H1.817v5.608H5.65c1.73 0 2.913-1.148 2.913-2.804C8.56 47.729 7.38 46.58 5.65 46.58Zm13.804-1.876c4.315 0 7.249 3.269 7.249 7.618 0 4.35-2.934 7.618-7.249 7.618-4.335 0-7.248-3.269-7.248-7.618.001-4.35 2.913-7.618 7.248-7.618Zm0 1.634c-3.284 0-5.364 2.54-5.364 5.984 0 3.423 2.08 5.984 5.364 5.984 3.263 0 5.365-2.561 5.365-5.984.001-3.445-2.102-5.984-5.365-5.984Zm9.423 13.337V44.946h4.993c4.533 0 7.488 3.203 7.488 7.376 0 4.195-2.955 7.353-7.488 7.353h-4.993Zm1.817-1.634h3.176c3.547 0 5.605-2.561 5.605-5.72 0-3.178-1.992-5.74-5.605-5.74h-3.176v11.46Zm21.82 1.634-5.54-6.624-1.467 1.678v4.947H43.69v-14.73h1.817v7.618l6.46-7.618h2.277l-6.087 7 6.613 7.729h-2.256Zm9.496-14.971c4.314 0 7.249 3.269 7.249 7.618 0 4.35-2.935 7.618-7.249 7.618-4.336 0-7.248-3.269-7.248-7.618 0-4.35 2.912-7.618 7.248-7.618Zm0 1.634c-3.284 0-5.364 2.54-5.364 5.984 0 3.423 2.08 5.984 5.364 5.984 3.263 0 5.364-2.561 5.364-5.984.002-3.445-2.101-5.984-5.364-5.984Zm9.656 13.337V44.946h5.868c2.935 0 4.578 2.031 4.578 4.439 0 2.407-1.686 4.438-4.578 4.438h-4.051v5.852h-1.817Zm5.65-13.094h-3.833v5.608h3.833c1.73 0 2.913-1.148 2.913-2.804s-1.183-2.804-2.913-2.804Zm16.51 13.094-1.292-3.269h-7.401l-1.292 3.269h-2.014l5.869-14.729h2.255l5.89 14.729h-2.015ZM88.833 46.58l-3.176 8.193h6.329l-3.153-8.193Zm9.35 13.095V44.946H100v14.729h-1.817Z" fill="#000"/></svg>