<svg width="69" height="121" fill="none" xmlns="http://www.w3.org/2000/svg"><g clip-path="url(#a)" stroke-width="2"><path d="M47.253 1h-.074c-.869 0-1.709.361-2.33.998l-.002.004c-6.815 6.937-12.321 10.02-18.194 10.823-5.839.797-12.455-.756-21.12-4.233C3.365 7.724.999 9.326 1 11.682c.017 29.588.878 50.62 6.991 67.572 6.077 16.858 17.651 29.238 37.603 40.333a3.311 3.311 0 0 0 3.203.001c19.95-11.094 31.526-23.465 37.604-40.334 6.11-16.962 6.978-38.028 6.991-67.656v-.002c.006-2.363-2.373-3.97-4.547-3.088-8.657 3.51-15.269 5.09-21.104 4.3L47.253 1.001Zm0 0c.87.016 1.698.372 2.306.997l.003.004c6.81 6.937 12.31 10.014 18.18 10.807L47.252 1.001Z" stroke="url(#b)"/><path d="M47.237 16.125h-.054a2.21 2.21 0 0 0-1.584.684l-.004.003c-5.172 5.29-9.383 7.673-13.898 8.293-4.481.614-9.534-.586-16.094-3.23-1.472-.593-3.093.497-3.092 2.123.013 22.483.667 38.417 5.272 51.25 4.57 12.736 13.273 22.1 28.321 30.507.68.378 1.504.378 2.183.001 15.046-8.406 23.751-17.763 28.322-30.508 4.604-12.84 5.262-28.801 5.272-51.313v-.002c.004-1.632-1.626-2.724-3.1-2.123-6.556 2.67-11.605 3.892-16.084 3.283l-15.46-8.968Zm0 0a2.238 2.238 0 0 1 1.569.683l.003.003c5.169 5.291 9.375 7.669 13.888 8.282l-15.46-8.968Z" stroke="url(#c)"/><path d="M47.797 30.087h-.034c-.321 0-.639.134-.878.382l-.003.003c-3.613 3.71-6.592 5.42-9.817 5.864-3.192.439-6.759-.423-11.32-2.27-.81-.327-1.723.272-1.723 1.198.01 15.66.465 26.702 3.64 35.578 3.138 8.782 9.114 15.25 19.503 21.077.378.21.836.21 1.213 0 10.388-5.826 16.365-12.289 19.504-21.076C71.055 61.96 71.514 50.9 71.52 35.22v-.002c.002-.93-.915-1.529-1.728-1.197-4.557 1.864-8.123 2.741-11.313 2.306l-10.683-6.24Zm0 0c.327.007.64.142.87.38l.003.005c3.61 3.709 6.587 5.415 9.81 5.855l-10.683-6.24Z" stroke="url(#d)"/><path d="m47.35 79.61.483-.876c-6.294-3.48-9.866-7.313-11.744-12.49-1.912-5.272-2.194-11.853-2.2-21.301a.38.38 0 0 1 .523-.351c2.804 1.118 5.06 1.669 7.112 1.39 2.086-.283 3.981-1.375 6.224-3.644l.003-.004a.37.37 0 0 1 .262-.114h.016a.38.38 0 0 1 .261.114l.004.003c2.24 2.27 4.134 3.36 6.22 3.64 2.051.276 4.308-.285 7.108-1.413a.38.38 0 0 1 .525.35v.002c-.004 9.46-.288 16.053-2.2 21.328-1.877 5.18-5.45 9.01-11.743 12.49a.39.39 0 0 1-.373-.001l-.482.876Zm0 0a1.39 1.39 0 0 0 1.337 0l.319-37.975a1.38 1.38 0 0 0-.993-.415c-.368 0-.72.152-.977.415-2.157 2.183-3.86 3.114-5.646 3.357-1.786.242-3.843-.226-6.608-1.33a1.38 1.38 0 0 0-1.893 1.281c.006 9.42.279 16.18 2.26 21.642 1.981 5.463 5.756 9.462 12.2 13.024Z" stroke="url(#e)"/></g><defs><linearGradient id="b" x1="0" y1="60.5" x2="94.392" y2="60.5" gradientUnits="userSpaceOnUse"><stop stop-color="#2E3192"/><stop offset="1" stop-color="#2484C6"/></linearGradient><linearGradient id="c" x1="11.511" y1="61.081" x2="82.881" y2="61.081" gradientUnits="userSpaceOnUse"><stop stop-color="#2E3192"/><stop offset="1" stop-color="#2484C6"/></linearGradient><linearGradient id="d" x1="23.023" y1="61.081" x2="72.521" y2="61.081" gradientUnits="userSpaceOnUse"><stop stop-color="#2E3192"/><stop offset="1" stop-color="#2484C6"/></linearGradient><linearGradient id="e" x1="32.889" y1="60.5" x2="63.147" y2="60.5" gradientUnits="userSpaceOnUse"><stop stop-color="#2E3192"/><stop offset="1" stop-color="#2484C6"/></linearGradient><clipPath id="a"><path fill="#fff" d="M0 0h69v121H0z"/></clipPath></defs></svg>