<svg width="133" height="200" fill="none" xmlns="http://www.w3.org/2000/svg"><g clip-path="url(#a)" stroke-width="4"><circle cx="100" cy="100" r="98" stroke="url(#b)"/><circle cx="99.447" cy="100.553" r="75.348" stroke="url(#c)"/><path d="M104.986 59.648v1.874l1.87.122c9.345.61 16.844 7.795 17.795 16.992a.144.144 0 0 1-.037.024h-10.08a8.997 8.997 0 0 0-8.783-6.967h-8.989c-6.131 0-11.971 4.316-12.662 10.77-.806 7.161 4.864 13.343 11.988 13.343h7.641c12.976 0 23.401 11.229 22.167 24.548-1.026 10.111-9.228 17.901-19.238 19.57l-1.671.278v12.032l-.001.012-.001.003-.002.003-.001.001-.002.001h-.001l-.002.001-.012.001H94.848l-.007-.001-.003-.001-.003-.002-.002-.003-.001-.003-.001-.012v-11.986l-1.87-.122c-9.345-.61-16.843-7.795-17.794-16.993a.164.164 0 0 1 .034-.022l.002-.001h10.08a8.997 8.997 0 0 0 8.783 6.967h8.989c6.131 0 11.971-4.316 12.662-10.77.807-7.161-4.864-13.343-11.988-13.343h-6.63c-11.672 0-22.05-8.544-23.177-19.988-1.132-12.279 7.632-22.687 19.174-24.232l1.734-.233V49.536l.001-.012v-.003l.003-.003a.011.011 0 0 1 .003-.002h.003c.001-.001.005-.002.012-.002h10.112a.056.056 0 0 1 .015.002c.001 0 .002 0 .003.002l.003.003v.003l.001.012v10.112Z" stroke="url(#d)"/></g><defs><linearGradient id="b" x1="0" y1="99.999" x2="200.001" y2="99.999" gradientUnits="userSpaceOnUse"><stop stop-color="#2E3192"/><stop offset="1" stop-color="#2484C6"/></linearGradient><linearGradient id="c" x1="22.099" y1="100.552" x2="176.796" y2="100.552" gradientUnits="userSpaceOnUse"><stop stop-color="#2E3192"/><stop offset="1" stop-color="#2484C6"/></linearGradient><linearGradient id="d" x1="71.823" y1="100.885" x2="127.995" y2="100.885" gradientUnits="userSpaceOnUse"><stop stop-color="#2E3192"/><stop offset="1" stop-color="#2484C6"/></linearGradient><clipPath id="a"><path fill="#fff" d="M0 0h133v200H0z"/></clipPath></defs></svg>