<svg width="133" height="200" fill="none" xmlns="http://www.w3.org/2000/svg"><g clip-path="url(#a)" fill-rule="evenodd" clip-rule="evenodd"><path d="M136 197.44c33.932 0 61.44-27.508 61.44-61.44S169.932 74.56 136 74.56 74.56 102.068 74.56 136s27.508 61.44 61.44 61.44Zm0 2.56c35.346 0 64-28.654 64-64 0-35.346-28.654-64-64-64-35.346 0-64 28.654-64 64 0 35.346 28.654 64 64 64Z" fill="url(#b)"/><path d="M135.5 183.44c25.924 0 46.94-21.016 46.94-46.94s-21.016-46.94-46.94-46.94-46.94 21.016-46.94 46.94 21.016 46.94 46.94 46.94Zm0 2.56c27.338 0 49.5-22.162 49.5-49.5S162.838 87 135.5 87 86 109.162 86 136.5s22.162 49.5 49.5 49.5Z" fill="url(#c)"/><path d="M128.448 129.49c9.074 0 16.347 7.803 15.482 17.036-.72 7.087-6.481 12.455-13.394 13.6v6.586c0 .715-.576 1.288-1.296 1.288h-6.481a1.286 1.286 0 0 1-1.295-1.288v-6.442c-6.625-.429-11.954-5.511-12.602-12.025-.073-.716.575-1.36 1.296-1.36h6.48c.576 0 1.08.358 1.224.93.432 2.004 2.233 3.508 4.393 3.508h5.761c3.385 0 6.481-2.362 6.841-5.727.432-3.793-2.592-7.086-6.409-7.086h-4.249c-8.065 0-15.338-5.87-16.13-13.887-.792-8.518 5.328-15.747 13.394-16.821v-6.514c0-.715.576-1.288 1.296-1.288h6.481c.72 0 1.296.572 1.296 1.288v6.442c6.625.429 11.954 5.511 12.602 12.025.072.716-.576 1.36-1.296 1.36h-6.481c-.576 0-1.08-.358-1.224-.93-.432-2.004-2.232-3.508-4.393-3.508h-5.761c-3.384 0-6.481 2.362-6.841 5.727-.432 3.793 2.593 7.086 6.409 7.086h4.897Zm-1.074 2.548h-3.823c-5.315 0-9.559-4.583-8.957-9.912.525-4.86 4.914-7.997 9.389-7.997h5.761a7.053 7.053 0 0 1 6.571 4.438h4.029c-1.093-4.554-5.088-7.977-9.975-8.294l-2.397-.155v-7.57h-3.945v7.484l-2.224.296c-6.728.895-11.841 6.927-11.182 14.053.653 6.564 6.682 11.581 13.578 11.581h4.249c5.315 0 9.559 4.583 8.957 9.912-.525 4.86-4.914 7.997-9.389 7.997h-5.761a7.053 7.053 0 0 1-6.571-4.438h-4.029c1.093 4.554 5.088 7.977 9.975 8.294l2.397.155v7.57h3.946v-7.484l2.142-.355c5.917-.98 10.67-5.537 11.264-11.333.718-7.737-5.372-14.241-12.931-14.241l-1.074-.001Z" fill="url(#d)"/></g><defs><linearGradient id="b" x1="72" y1="136" x2="200" y2="136" gradientUnits="userSpaceOnUse"><stop stop-color="#2E3192"/><stop offset="1" stop-color="#2484C6"/></linearGradient><linearGradient id="c" x1="86" y1="136.5" x2="185" y2="136.5" gradientUnits="userSpaceOnUse"><stop stop-color="#2E3192"/><stop offset="1" stop-color="#2484C6"/></linearGradient><linearGradient id="d" x1="108" y1="134" x2="144" y2="134" gradientUnits="userSpaceOnUse"><stop stop-color="#2E3192"/><stop offset="1" stop-color="#2484C6"/></linearGradient><clipPath id="a"><path fill="#fff" d="M0 0h133v200H0z"/></clipPath></defs></svg>