<svg width="199" height="199" fill="none" xmlns="http://www.w3.org/2000/svg"><path d="m192.758 100.374-.099 2.35c-.042.981-.267 1.75-.675 2.31a2.795 2.795 0 0 1-1.176.926 3.155 3.155 0 0 1-1.47.29c-.959-.04-1.722-.42-2.29-1.138-.526-.673-.767-1.554-.72-2.641l.031-.735-4.332-.184.069-1.63 10.662.452Zm-1.571 1.567-3.326-.141-.031.735c-.029.682.099 1.205.382 1.57.294.364.697.558 1.208.579.182.008.353-.011.515-.058.162-.036.336-.119.523-.25.198-.119.356-.326.475-.62.13-.294.204-.659.223-1.096l.031-.719Zm.316 12.63-1.523-.201.556-4.219-2.681-.354-.539 4.093-1.523-.201.539-4.092-3.331-.439-.556 4.219-1.523-.2.769-5.838 10.581 1.394-.769 5.838Zm-2.872 10.271-1.867-.446c.968-.657 1.576-1.504 1.824-2.542.284-1.193.142-2.203-.429-3.03-.412-.614-.988-1.075-1.726-1.382l-1.218 5.104-1.494-.356 1.229-5.152a3.635 3.635 0 0 0-2.39.434c-.933.512-1.54 1.354-1.82 2.526-.245 1.027-.068 2.056.53 3.087l-1.883-.449a5.621 5.621 0 0 1-.099-3.034c.345-1.442 1.114-2.552 2.309-3.331 1.302-.862 2.742-1.106 4.319-.729 1.66.396 2.882 1.274 3.665 2.634.674 1.17.827 2.528.458 4.074-.255 1.069-.724 1.933-1.408 2.592Zm-3.477 9.933-1.805-.654c1.04-.553 1.74-1.327 2.1-2.319.393-1.083.351-2.097-.124-3.04-.468-.93-1.259-1.597-2.372-2-1.073-.389-2.096-.369-3.069.062-.963.433-1.637 1.182-2.022 2.245-.36.993-.301 2.035.177 3.127l-1.82-.659a5.633 5.633 0 0 1 .245-3.026c.506-1.394 1.396-2.41 2.671-3.048 1.392-.71 2.85-.788 4.374-.236 1.605.582 2.719 1.593 3.343 3.033.538 1.238.536 2.605-.005 4.099-.375 1.033-.939 1.838-1.693 2.416Zm-4.289 6.82 1.053-2.21-8.247-3.931.703-1.473 8.246 3.931 1.054-2.21 1.386.661-2.809 5.893-1.386-.661Zm.401 2.462-1.189 2.029c-.496.847-1.055 1.422-1.678 1.725a2.804 2.804 0 0 1-1.473.267 3.14 3.14 0 0 1-1.434-.432c-.829-.485-1.325-1.178-1.49-2.078-.15-.842.05-1.732.6-2.671l.372-.635-3.741-2.191.825-1.409 9.208 5.395Zm-2.123.648-2.871-1.683-.372.636c-.345.589-.478 1.11-.398 1.565.089.46.354.82.796 1.078.156.092.317.155.482.19.16.044.353.052.579.024.231-.013.467-.122.71-.326.253-.198.489-.486.71-.863l.364-.621Zm-15.253 6.274 2.737.629 2.709-3.668-1.378-2.47 1.046-1.415 5.93 10.984-12.09-2.645 1.046-1.415Zm6.283-1.585-1.921 2.599 3.85.875-1.929-3.474Zm-8.153 3.883 7.735 7.352-1.124 1.183-6.622-6.294-3.042 3.201 6.622 6.294-1.124 1.183-6.623-6.294-.948.997-2.853-2.711 1.058-1.114 1.74 1.654 5.181-5.451Zm-.396 15.489-1.227 1.076-7.037-8.023 1.227-1.076 7.037 8.023Zm-9.73-5.575.115 5.459a3.003 3.003 0 0 1 1.752-.406c.806.065 1.502.491 2.088 1.278.535.719.759 1.476.673 2.271-.046.42-.18.812-.401 1.176-.221.364-.424.628-.608.792a11.12 11.12 0 0 1-.712.57l-2.105 1.567-6.372-8.561 1.309-.975 2.551 3.427.308-.229-.215-5.166 1.617-1.203Zm1.213 10.526.642-.478c.702-.522 1.091-1.018 1.167-1.487.083-.46-.026-.892-.325-1.294-.344-.462-.761-.683-1.252-.664-.461.024-.974.246-1.538.667l-.719.535 2.025 2.721Zm-26.292 14.855-2.265.632c-.946.264-1.747.288-2.405.073a2.8 2.8 0 0 1-1.246-.831 3.153 3.153 0 0 1-.73-1.308c-.258-.925-.134-1.768.373-2.53.478-.709 1.241-1.21 2.289-1.502l.708-.198-1.165-4.176 1.572-.439 2.869 10.279Zm-1.976-1.01-.895-3.206-.709.198c-.658.184-1.116.467-1.374.849-.256.393-.315.836-.178 1.329.049.174.121.332.215.471.084.143.217.283.4.42.175.151.42.237.737.26.319.033.689-.01 1.11-.128l.694-.193Zm-12.018 4.206-.276-1.511 4.186-.766-.486-2.659-4.061.742-.276-1.511 4.061-.742-.605-3.306-4.186.766-.276-1.511 5.792-1.059 1.919 10.498-5.792 1.059Zm-10.534.42-.155-1.913c.925.716 1.919 1.032 2.982.945 1.223-.099 2.139-.548 2.748-1.346.456-.583.715-1.273.779-2.07l-5.231.424-.124-1.531 5.279-.428a3.636 3.636 0 0 0-1.153-2.138c-.776-.729-1.765-1.044-2.966-.947-1.053.086-1.977.573-2.771 1.461l-.157-1.93a5.627 5.627 0 0 1 2.854-1.034c1.477-.12 2.772.267 3.882 1.162 1.224.971 1.902 2.264 2.033 3.88.138 1.701-.318 3.135-1.368 4.301-.904 1.004-2.147 1.571-3.731 1.699-1.095.089-2.062-.089-2.901-.535Zm-10.884-.257.066-1.919c.847.819 1.798 1.247 2.854 1.284 1.15.04 2.102-.311 2.854-1.054.74-.732 1.131-1.689 1.172-2.873.04-1.14-.295-2.107-1.004-2.9-.709-.783-1.629-1.194-2.758-1.233-1.056-.036-2.03.341-2.922 1.131l.068-1.934a5.618 5.618 0 0 1 2.954-.698c1.481.051 2.722.585 3.722 1.602 1.104 1.106 1.628 2.469 1.571 4.089-.059 1.706-.678 3.077-1.856 4.114-1.013.893-2.313 1.313-3.902 1.257-1.098-.038-2.038-.327-2.82-.866Zm-7.761-1.976 2.427.32 1.194-9.058 1.618.213-1.194 9.058 2.428.32-.201 1.523-6.472-.853.2-1.523Zm-2.192 1.143-2.297-.502c-.959-.21-1.679-.564-2.16-1.062a2.8 2.8 0 0 1-.71-1.318 3.155 3.155 0 0 1-.033-1.498c.205-.938.71-1.624 1.515-2.06.754-.403 1.662-.488 2.725-.256l.72.158.925-4.236 1.594.348-2.278 10.426Zm-1.273-1.818.71-3.251-.718-.157c-.667-.146-1.204-.111-1.612.106-.41.227-.67.591-.779 1.091a1.597 1.597 0 0 0-.031.517c.007.165.06.352.156.558.084.215.26.407.53.575.267.178.614.314 1.04.407l.704.154Zm-10.679-12.586.238 2.799 4.321 1.456 1.93-2.068 1.668.563-8.642 9.007-1.183-12.319 1.668.562Zm3.432 5.496-3.063-1.032.346 3.932 2.717-2.9Zm-6.157-6.549-4.628 9.616-1.47-.707 3.961-8.233-3.979-1.915-3.962 8.233-1.47-.708 3.962-8.232-1.24-.597 1.707-3.547 1.384.666-1.041 2.163 6.776 3.261Zm-14.853 4.377-1.399-.841 5.496-9.148 1.399.84-5.496 9.149Zm2.387-10.943-5.159 1.79c.47.426.778.94.926 1.542.187.787-.004 1.58-.573 2.38-.519.73-1.17 1.177-1.953 1.34a2.847 2.847 0 0 1-1.243-.019c-.414-.099-.728-.21-.94-.335a10.939 10.939 0 0 1-.762-.502l-2.139-1.52 6.183-8.699 1.33.946-2.475 3.482.313.222 4.849-1.795 1.643 1.168Zm-9.641 4.395.652.464c.713.507 1.304.724 1.774.652.464-.063.84-.299 1.131-.707.334-.47.416-.935.246-1.396-.165-.431-.534-.85-1.108-1.258l-.73-.519-1.965 2.764Zm-22.151-20.355-1.306-1.957c-.544-.816-.817-1.57-.818-2.262.003-.515.137-.996.403-1.443a3.15 3.15 0 0 1 1.016-1.101c.798-.533 1.638-.677 2.52-.432.823.233 1.536.802 2.14 1.707l.409.612 3.606-2.407.906 1.357-8.876 5.926Zm.345-2.193 2.768-1.848-.409-.612c-.379-.568-.79-.915-1.234-1.042-.453-.121-.892-.039-1.318.245-.15.101-.278.218-.381.351a1.49 1.49 0 0 0-.275.51c-.089.213-.095.474-.017.781.068.314.224.653.466 1.016l.4.599Zm-7.755-10.156 1.35-.732 2.029 3.742 2.377-1.289-1.967-3.629 1.35-.732 1.967 3.629 2.954-1.601-2.028-3.742 1.35-.732 2.806 5.177-9.382 5.085-2.806-5.176Zm-3.695-9.987 1.774-.735c-.398 1.1-.393 2.143.015 3.129.47 1.133 1.177 1.867 2.124 2.202.695.255 1.431.291 2.21.107l-2.009-4.849 1.42-.587 2.026 4.893a3.63 3.63 0 0 0 1.681-1.753c.456-.962.453-2-.008-3.114-.404-.976-1.151-1.705-2.24-2.189l1.788-.741a5.62 5.62 0 0 1 1.86 2.399c.567 1.37.595 2.72.085 4.052-.55 1.462-1.572 2.504-3.07 3.124-1.577.653-3.081.659-4.514.017-1.232-.552-2.153-1.562-2.761-3.03-.42-1.015-.547-1.99-.38-2.925Zm-3-10.022 1.845-.531c-.518 1.059-.63 2.096-.339 3.111.318 1.107.947 1.903 1.885 2.388.925.478 1.957.553 3.095.226 1.097-.315 1.913-.932 2.448-1.852.524-.916.63-1.918.318-3.005-.291-1.015-.951-1.824-1.98-2.427l1.862-.535a5.621 5.621 0 0 1 1.577 2.593c.41 1.425.286 2.77-.372 4.036-.71 1.391-1.844 2.311-3.402 2.759-1.64.471-3.136.307-4.487-.492-1.163-.687-1.964-1.795-2.402-3.322-.304-1.056-.32-2.039-.049-2.949Zm-.513-7.869.45 2.406 8.98-1.677.3 1.604-8.98 1.677.449 2.407-1.51.282-1.199-6.417 1.51-.282Zm-1.768-1.682-.235-2.34c-.099-.977.014-1.771.339-2.382a2.798 2.798 0 0 1 1.032-1.085 3.155 3.155 0 0 1 1.414-.496c.955-.096 1.765.171 2.428.801.617.592.98 1.429 1.09 2.512l.073.732 4.314-.434.163 1.624-10.618 1.068Zm1.333-1.774 3.311-.334-.073-.732c-.069-.679-.269-1.179-.601-1.499-.343-.319-.77-.453-1.279-.402-.18.018-.348.062-.501.131a1.493 1.493 0 0 0-.483.321c-.178.147-.305.374-.381.682-.087.309-.109.681-.065 1.116l.072.717ZM16.1 94.89l-2.59 1.091-.052 4.56 2.562 1.197-.02 1.76-11.234-5.442L16.12 93.13l-.02 1.76Zm-4.17 4.961.037-3.232-3.634 1.542 3.597 1.69Zm4.316-7.884L5.671 90.533l.22-1.618 9.052 1.228.594-4.375-9.053-1.229.22-1.617 9.053 1.228.184-1.363 3.9.529-.206 1.522-2.378-.323-1.01 7.452ZM7.414 79.522l.36-1.592 10.409 2.358-.36 1.592-10.409-2.358Zm11.122-1.152-3.302-4.35a3.006 3.006 0 0 1-1.178 1.359c-.69.421-1.504.486-2.44.194-.856-.267-1.483-.748-1.88-1.442a2.84 2.84 0 0 1-.368-1.187c-.035-.425-.026-.757.027-.998.052-.24.133-.533.24-.88l.782-2.505 10.188 3.18-.486 1.558-4.078-1.273-.115.367 3.21 4.052-.6 1.924Zm-7.17-7.803-.237.764c-.261.835-.284 1.465-.07 1.89.204.42.545.706 1.023.855.55.171 1.018.105 1.403-.2.359-.29.643-.77.853-1.443l.267-.855-3.238-1.01ZM24 42.92l1.466-1.84c.611-.767 1.247-1.256 1.906-1.468.491-.154.99-.172 1.497-.055.505.102.957.313 1.358.632.75.598 1.144 1.354 1.18 2.269.027.854-.297 1.707-.975 2.558l-.459.576 3.392 2.701-1.017 1.277L24 42.92Zm2.194-.34 2.603 2.075.459-.576c.425-.534.63-1.032.616-1.493-.023-.468-.234-.862-.635-1.18a1.608 1.608 0 0 0-.45-.257 1.502 1.502 0 0 0-.57-.107c-.23-.02-.48.055-.749.222-.278.16-.553.412-.826.754l-.448.563Zm7.356-10.566 1.11 1.062-2.943 3.074 1.953 1.87 2.854-2.982 1.11 1.062-2.855 2.982 2.427 2.324 2.944-3.075 1.11 1.063-4.073 4.253-7.709-7.38 4.072-4.253Zm7.914-6.224 1.25 1.457c-1.17-.036-2.16.293-2.97.988-.93.798-1.408 1.7-1.431 2.704-.027.74.168 1.45.585 2.133l3.983-3.418 1 1.166-4.02 3.449a3.63 3.63 0 0 0 2.19 1.052c1.056.134 2.042-.192 2.957-.977.801-.687 1.262-1.624 1.383-2.81l1.26 1.47a5.622 5.622 0 0 1-1.7 2.513c-1.126.965-2.4 1.413-3.825 1.342-1.56-.067-2.869-.715-3.925-1.946-1.11-1.295-1.584-2.723-1.42-4.284.141-1.343.815-2.532 2.02-3.567.835-.716 1.722-1.14 2.663-1.272Zm8.677-6.07 1.078 1.59c-1.167-.162-2.187.053-3.061.646-.954.646-1.515 1.49-1.684 2.534-.166 1.027.083 2.031.747 3.011.64.945 1.481 1.528 2.522 1.75 1.034.214 2.019.004 2.954-.63.874-.593 1.438-1.472 1.692-2.637l1.087 1.602a5.621 5.621 0 0 1-1.974 2.306c-1.227.832-2.544 1.133-3.951.901-1.544-.242-2.77-1.034-3.68-2.376-.958-1.412-1.268-2.885-.928-4.417.292-1.319 1.095-2.424 2.41-3.316.91-.617 1.839-.938 2.788-.963Zm7.332-2.968-2.148 1.175 4.384 8.015-1.432.783-4.383-8.016-2.148 1.175-.737-1.348 5.727-3.132.737 1.348Zm1.117-2.264 2.151-.948c.898-.396 1.688-.534 2.37-.415.507.091.957.307 1.352.646.4.325.702.722.909 1.19.387.879.384 1.731-.01 2.557-.372.77-1.055 1.375-2.051 1.813l-.673.297 1.748 3.968-1.493.658-4.304-9.766Zm2.099.719 1.342 3.045.674-.297c.624-.275 1.037-.62 1.24-1.036.196-.425.192-.872-.015-1.34a1.61 1.61 0 0 0-.28-.436 1.503 1.503 0 0 0-.455-.36c-.194-.123-.45-.174-.766-.151-.32.013-.68.108-1.081.284l-.659.29Zm16.133 3.792-1.845-2.118-4.347 1.374-.337 2.809-1.678.53 1.659-12.372 8.226 9.246-1.678.53Zm-6.015-2.41 3.082-.975-2.6-2.97-.482 3.944Zm8.877 1.605-1.92-10.498 1.606-.293 1.643 8.987 4.344-.795-1.643-8.987 1.605-.293 1.643 8.987 1.354-.248.708 3.872-1.511.277-.432-2.361-7.397 1.352Zm9.713-12.338 1.626-.145.945 10.63-1.626.145-.945-10.63ZM93.756 16.1l3.116-4.485a3.006 3.006 0 0 1-1.656-.7c-.614-.527-.927-1.28-.938-2.262-.01-.896.253-1.64.79-2.233a2.84 2.84 0 0 1 1.016-.716c.392-.165.711-.26.956-.283.245-.024.55-.039.912-.043l2.624-.03.123 10.671-1.632.019-.049-4.272-.384.005-2.862 4.305-2.016.023Zm5.205-9.23-.8.01c-.874.01-1.48.182-1.818.517-.337.324-.503.736-.498 1.238.007.576.215 1 .623 1.273.387.251.933.373 1.637.365l.896-.01-.04-3.392Zm30.293 3.43 2.202.826c.919.345 1.581.798 1.985 1.36.298.42.47.888.515 1.406a3.16 3.16 0 0 1-.182 1.487c-.338.899-.936 1.506-1.795 1.822-.804.29-1.715.245-2.734-.137l-.689-.259-1.523 4.06-1.528-.574 3.749-9.991Zm1 1.981-1.169 3.116.689.258c.639.24 1.176.282 1.61.126.438-.166.747-.488.927-.968.064-.17.099-.339.105-.507a1.49 1.49 0 0 0-.075-.575c-.052-.225-.199-.44-.441-.644-.239-.215-.563-.4-.972-.553l-.674-.253Zm11.988 3.568-.666 1.384-3.835-1.846-1.173 2.437 3.72 1.79-.666 1.384-3.72-1.79-1.457 3.027 3.835 1.846-.666 1.384-5.306-2.553 4.628-9.617 5.306 2.554Zm9.007 5.988-1.007 1.635c-.321-1.125-.936-1.967-1.845-2.526-1.044-.644-2.048-.824-3.012-.54-.712.2-1.33.603-1.852 1.208l4.468 2.752-.805 1.308-4.51-2.777a3.633 3.633 0 0 0-.335 2.405c.195 1.047.805 1.886 1.832 2.518.899.554 1.931.708 3.098.462l-1.015 1.648a5.62 5.62 0 0 1-2.913-.854c-1.262-.777-2.077-1.855-2.443-3.233-.413-1.507-.194-2.95.656-4.331.895-1.454 2.111-2.34 3.648-2.659 1.322-.275 2.66.004 4.013.837.935.576 1.61 1.292 2.022 2.147Zm8.462 6.461-1.186 1.51c-.2-1.16-.716-2.067-1.547-2.72-.906-.71-1.882-.988-2.926-.831-1.03.154-1.911.697-2.642 1.629-.704.898-1.004 1.876-.899 2.934.111 1.05.612 1.925 1.501 2.623.831.651 1.84.921 3.027.808l-1.196 1.523a5.621 5.621 0 0 1-2.797-1.178c-1.166-.915-1.854-2.078-2.062-3.49-.239-1.543.142-2.952 1.143-4.228 1.053-1.343 2.362-2.085 3.925-2.228 1.344-.124 2.642.304 3.892 1.285.865.678 1.453 1.466 1.767 2.363Zm5.019 6.052-1.774-1.687-6.294 6.623-1.183-1.125 6.294-6.622-1.775-1.686 1.059-1.114 4.731 4.497-1.058 1.114Zm2.405.287 1.563 1.757c.653.733 1.027 1.442 1.123 2.128.069.51.002 1.005-.2 1.484a3.15 3.15 0 0 1-.853 1.231c-.717.639-1.53.897-2.437.776-.847-.117-1.632-.582-2.355-1.395l-.489-.55-3.239 2.883-1.085-1.219 7.972-7.095Zm-.039 2.22-2.486 2.212.489.55c.454.51.91.797 1.367.86.465.058.889-.083 1.271-.424.136-.12.245-.254.329-.4.092-.138.159-.32.202-.543.058-.224.028-.482-.091-.776-.111-.301-.311-.615-.602-.942l-.479-.538Zm1.49 16.731 1.451-2.406-2.642-3.717-2.776.54-1.02-1.434 12.285-2.214-6.278 10.665-1.02-1.434Zm.451-6.465 1.872 2.635 2.03-3.386-3.902.751Zm.964 8.595 9.382-5.085.778 1.434-8.032 4.354 2.105 3.882 8.032-4.353.777 1.434-8.032 4.354.656 1.21-3.46 1.875-.732-1.35 2.11-1.143-3.584-6.612Zm14.731 5.379.642 1.501-9.814 4.194-.641-1.5 9.813-4.195Zm-8.359 7.397 5.227 1.581a3.01 3.01 0 0 1 .156-1.791c.311-.747.932-1.277 1.862-1.59.849-.286 1.638-.266 2.368.063.385.174.716.422.994.745s.466.597.564.823c.099.226.206.51.322.854l.838 2.486-10.113 3.41-.521-1.547 4.048-1.365-.122-.364-4.979-1.395-.644-1.91Zm10.385 2.105-.256-.758c-.279-.829-.63-1.352-1.053-1.57-.412-.221-.855-.252-1.331-.091-.545.184-.885.512-1.018.985-.12.445-.068 1.002.157 1.669l.286.849 3.215-1.084Z" fill="#fff"/></svg>