<svg width="201" height="201" fill="none" xmlns="http://www.w3.org/2000/svg"><path d="m194.827 101.819-.111 2.394c-.047.998-.279 1.782-.697 2.35a2.86 2.86 0 0 1-1.202.94 3.215 3.215 0 0 1-1.498.289c-.977-.045-1.753-.435-2.328-1.168-.534-.689-.775-1.587-.724-2.694l.035-.749-4.413-.204.077-1.661 10.861.503Zm-1.608 1.59-3.387-.157-.034.749c-.033.695.095 1.228.382 1.601.298.373.708.571 1.229.595.185.009.36-.01.525-.057.165-.036.343-.12.534-.253.201-.121.363-.331.486-.63.133-.298.21-.67.231-1.115l.034-.733Zm.089 13.965-1.547-.241.666-4.284-2.723-.423-.645 4.156-1.546-.24.645-4.156-3.382-.525-.665 4.285-1.547-.24.92-5.928 10.744 1.668-.92 5.928Zm-11.417 1.645 10.525 2.724-1.364 5.27-1.515-.392.948-3.661-9.011-2.332.417-1.609Zm-4.451 13.824 6.813 2.674-4.589-9.681 10.576 4.151-.607 1.547-6.844-2.685 4.589 9.68-10.546-4.138.608-1.548Zm2.851 16.912-1.698-.97c1.14-.375 1.976-1.03 2.51-1.964.582-1.019.716-2.044.403-3.073-.309-1.015-.987-1.822-2.034-2.42-1.01-.576-2.04-.733-3.092-.47-1.041.268-1.848.903-2.419 1.903-.534.934-.655 1.991-.365 3.17l-1.713-.978a5.722 5.722 0 0 1 .772-2.994c.749-1.312 1.819-2.177 3.209-2.597 1.521-.471 2.998-.297 4.432.522 1.51.863 2.453 2.071 2.83 3.625.325 1.336.086 2.708-.717 4.114-.555.972-1.261 1.683-2.118 2.132Zm-6.58 7.733 1.467-2.017-7.527-5.475.978-1.344 7.527 5.475 1.467-2.017 1.266.92-3.913 5.379-1.265-.921Zm-.518 3.139-1.586 1.795c-.662.749-1.334 1.214-2.016 1.395a2.845 2.845 0 0 1-1.526-.021 3.217 3.217 0 0 1-1.349-.713c-.732-.648-1.093-1.438-1.082-2.37.016-.871.391-1.722 1.124-2.552l.497-.562-3.311-2.925 1.101-1.246 8.148 7.199Zm-2.249.231-2.541-2.245-.496.562c-.461.521-.696 1.017-.705 1.487-.001.478.193.889.584 1.234.139.123.287.217.445.285.151.075.343.121.575.137.232.032.49-.03.773-.186.291-.149.584-.39.879-.724l.486-.55Zm-16.986 3.744 2.602 1.193 3.458-3.101-.865-2.749 1.335-1.197 3.652 12.181-11.517-5.13 1.335-1.197Zm6.595-.286-2.451 2.198 3.66 1.665-1.209-3.863Zm-9.671 2.833 6.07 9.02-1.38.928-5.196-7.722-3.732 2.512 5.196 7.722-1.38.928-5.196-7.722-1.163.783-2.238-3.327 1.298-.874 1.365 2.029 6.356-4.277Zm-16.178 9.483 3.173 6.595 3.224-10.216 4.927 10.237-1.498.721-3.188-6.624-3.224 10.216-4.913-10.208 1.499-.721Zm-3.942 1.749-1.651 5.312a3.061 3.061 0 0 1 1.824.173c.758.323 1.293.959 1.606 1.909.285.867.257 1.671-.083 2.412-.18.391-.436.726-.767 1.007-.331.28-.612.47-.842.568-.231.099-.522.206-.873.321l-2.539.835-3.395-10.328 1.579-.519 1.359 4.134.372-.122 1.459-5.061 1.951-.641Zm-2.224 10.562.774-.254c.847-.278 1.382-.632 1.608-1.06.228-.419.263-.87.103-1.356-.183-.557-.515-.906-.995-1.045-.454-.126-1.021-.076-1.702.148l-.867.285 1.079 3.282Zm-29.168 5.879-2.394-.101c-.998-.043-1.783-.272-2.352-.688a2.852 2.852 0 0 1-.945-1.198 3.213 3.213 0 0 1-.295-1.497c.041-.977.428-1.755 1.16-2.333.686-.536 1.582-.781 2.69-.734l.75.032.187-4.414 1.66.071-.46 10.862Zm-1.596-1.601.144-3.387-.75-.032c-.694-.03-1.227.1-1.598.389-.372.299-.569.71-.59 1.231-.009.184.011.359.058.524.037.165.122.343.255.533.122.201.333.362.632.484.3.132.671.208 1.116.227l.733.031Zm-13.792.149.234-1.547 4.287.649.412-2.724-4.158-.629.234-1.548 4.159.63.512-3.385-4.287-.649.234-1.547 5.93.898-1.626 10.749-5.93-.897Zm-1.76-11.43-2.684 10.536-5.276-1.344.386-1.517 3.665.934 2.298-9.019 1.61.41Zm-13.763-4.377-2.648 6.822 9.663-4.624-4.111 10.591-1.55-.601 2.66-6.854-9.663 4.625 4.099-10.561 1.55.602Zm-16.827 2.971.958-1.706c.383 1.138 1.044 1.97 1.982 2.496 1.023.575 2.049.701 3.076.381 1.012-.317 1.814-1.001 2.404-2.053.57-1.013.718-2.045.448-3.094-.277-1.04-.917-1.842-1.921-2.406-.938-.526-1.996-.64-3.173-.341l.965-1.72a5.732 5.732 0 0 1 3 .749c1.317.739 2.19 1.803 2.62 3.191.483 1.516.32 2.995-.489 4.435-.85 1.516-2.052 2.468-3.603 2.856-1.335.335-2.708.107-4.12-.686-.976-.548-1.692-1.248-2.147-2.102Zm-7.84-6.612 2.023 1.459 5.447-7.546 1.348.973-5.447 7.546 2.022 1.46-.916 1.269-5.392-3.892.915-1.269Zm-3.109-.478-1.801-1.58c-.752-.659-1.22-1.329-1.402-2.01a2.854 2.854 0 0 1 .015-1.526 3.22 3.22 0 0 1 .709-1.352c.645-.735 1.433-1.099 2.365-1.09.871.012 1.723.383 2.557 1.114l.564.495 2.912-3.321 1.25 1.096-7.169 8.174Zm-.24-2.248 2.236-2.549-.564-.495c-.522-.458-1.019-.692-1.49-.699-.477 0-.887.197-1.231.589a1.631 1.631 0 0 0-.283.446 1.51 1.51 0 0 0-.135.574c-.031.234.032.491.189.774.15.29.392.582.727.876l.552.484Zm-3.79-16.946-1.183 2.605 3.114 3.448 2.745-.876 1.202 1.331-12.168 3.697 5.088-11.536 1.202 1.331Zm.31 6.594-2.206-2.444-1.652 3.667 3.859-1.223Zm-2.87-9.646-8.998 6.102-.933-1.376 7.703-5.224-2.526-3.723-7.702 5.224-.934-1.376 7.703-5.224-.787-1.16 3.319-2.251.878 1.295-2.023 1.372 4.3 6.341Zm-9.541-16.112-6.583 3.198 10.228 3.185-10.219 4.965-.726-1.495 6.612-3.213-10.228-3.185 10.19-4.951.726 1.496Zm-1.751-3.849-5.319-1.631c.13.633.076 1.241-.165 1.825-.32.759-.954 1.297-1.903 1.613-.866.288-1.67.263-2.412-.074a2.882 2.882 0 0 1-1.01-.763c-.282-.33-.472-.61-.572-.84a11.08 11.08 0 0 1-.324-.872l-.845-2.536 10.316-3.434.525 1.578-4.13 1.374.124.371 5.067 1.441.648 1.948Zm-10.57-2.184.257.773c.281.845.636 1.38 1.066 1.603.42.227.871.26 1.356.099.556-.185.903-.519 1.041-1 .124-.453.073-1.02-.154-1.701l-.288-.866-3.279 1.092Zm-6.057-29.11.092-2.395c.039-.999.265-1.784.678-2.355.31-.423.708-.74 1.195-.949.476-.22.975-.321 1.496-.301.977.038 1.756.421 2.337 1.15.54.685.787 1.58.745 2.688l-.03.75 4.415.17-.064 1.661-10.864-.42Zm1.595-1.603 3.388.131.029-.749c.027-.695-.105-1.227-.395-1.597-.302-.371-.713-.566-1.234-.586a1.637 1.637 0 0 0-.524.06 1.53 1.53 0 0 0-.532.258c-.2.122-.36.334-.481.633-.131.3-.206.672-.223 1.118l-.028.732Zm-.263-13.584 1.549.222-.616 4.292 2.727.392.597-4.163 1.549.222-.597 4.163 3.388.486.616-4.292 1.549.222-.852 5.938-10.762-1.544.852-5.938Zm11.459-2.09L8.419 80.022l1.324-5.281 1.518.38-.92 3.669 9.028 2.263-.404 1.613Zm4.196-13.508-6.843-2.597 4.698 9.628-10.622-4.031.59-1.555 6.873 2.609-4.697-9.628 10.59 4.02-.589 1.554Zm-3.055-16.894 1.709.951c-1.136.388-1.966 1.052-2.489 1.992-.57 1.025-.693 2.051-.369 3.077.32 1.012 1.007 1.81 2.061 2.397 1.016.565 2.048.71 3.097.436 1.038-.28 1.838-.923 2.398-1.93.523-.94.633-1.998.33-3.174l1.723.959a5.727 5.727 0 0 1-.738 3.003c-.734 1.32-1.795 2.197-3.18 2.632-1.516.488-2.995.33-4.438-.473-1.52-.846-2.476-2.043-2.87-3.593-.34-1.333-.116-2.707.671-4.122.544-.978 1.243-1.696 2.095-2.155Zm6.644-8.024-1.453 2.028 7.567 5.42-.968 1.351-7.567-5.42-1.452 2.028-1.272-.911 3.872-5.407 1.273.911Zm.214-2.833 1.566-1.812c.654-.757 1.32-1.229 2-1.417a2.853 2.853 0 0 1 1.526.004c.51.125.962.358 1.357.699.74.64 1.11 1.425 1.108 2.358-.006.87-.371 1.725-1.096 2.564l-.49.567 3.341 2.889-1.087 1.258-8.225-7.11Zm2.246-.255 2.565 2.216.49-.567c.455-.526.685-1.024.689-1.495-.004-.477-.203-.886-.598-1.227a1.65 1.65 0 0 0-.448-.28 1.53 1.53 0 0 0-.576-.131c-.233-.03-.49.036-.771.195-.29.152-.58.397-.871.733l-.48.556Zm17.13-4.133-2.61-1.174-3.436 3.126.886 2.742-1.327 1.207-3.74-12.154 11.553 5.046-1.326 1.207Zm-6.593.334 2.436-2.215-3.673-1.64 1.237 3.855Zm9.326-2.713-6.169-8.953 1.37-.944 5.28 7.665 3.705-2.553-5.28-7.664 1.368-.943 5.281 7.664 1.154-.796 2.275 3.302-1.288.888-1.387-2.013-6.309 4.346Zm16.521-9.937-3.222-6.571-3.148 10.24-5.002-10.2 1.492-.733 3.237 6.6L62.1 13.8l4.988 10.172-1.493.732Zm3.718-1.73 1.61-5.325c-.631.133-1.24.08-1.825-.159-.76-.317-1.3-.949-1.62-1.896-.29-.865-.27-1.67.065-2.413.177-.392.43-.73.76-1.013.328-.283.608-.474.837-.575.23-.1.52-.21.87-.327l2.534-.854 3.472 10.302-1.575.531-1.39-4.124-.37.125-1.422 5.072-1.946.656Zm2.145-10.58-.773.261c-.844.285-1.377.642-1.6 1.072-.225.42-.256.872-.093 1.356.188.557.522.902 1.004 1.038.454.122 1.02.069 1.7-.16l.865-.292-1.103-3.274Zm29.164-6.223 2.394.083c.999.034 1.785.257 2.358.669.424.308.742.705.954 1.19.222.476.325.974.307 1.496-.034.977-.415 1.758-1.142 2.341-.682.542-1.577.794-2.685.755l-.749-.026-.153 4.415-1.662-.058.378-10.866Zm1.608 1.588-.118 3.389.75.026c.695.024 1.227-.11 1.596-.401.369-.303.563-.715.581-1.236a1.64 1.64 0 0 0-.064-.524 1.527 1.527 0 0 0-.258-.531c-.124-.2-.336-.36-.636-.479-.3-.13-.673-.203-1.118-.218l-.733-.026Zm13.482-.338-.217 1.55-4.294-.6-.381 2.729 4.165.58-.216 1.55-4.165-.58-.473 3.39 4.294.599-.216 1.55-5.941-.83 1.503-10.767 5.941.829Zm1.723 11.341 2.564-10.565 5.29 1.283-.369 1.521-3.675-.892-2.194 9.045-1.616-.392Zm14.036 4.249 2.571-6.852-9.61 4.733 3.991-10.637 1.557.584-2.583 6.883 9.61-4.733-3.979 10.606-1.557-.584Zm16.958-3.092-.945 1.712c-.392-1.134-1.059-1.961-2.001-2.48-1.027-.568-2.053-.687-3.078-.359-1.01.324-1.807 1.014-2.389 2.07-.562 1.018-.704 2.051-.425 3.098.284 1.038.93 1.835 1.939 2.391.942.52 2 .626 3.175.319l-.953 1.727a5.727 5.727 0 0 1-3.005-.728c-1.323-.73-2.204-1.786-2.644-3.17-.493-1.514-.341-2.994.457-4.44.84-1.522 2.034-2.483 3.582-2.883 1.332-.344 2.707-.126 4.124.656.98.54 1.701 1.236 2.163 2.087Zm8.101 6.649-2.033-1.445-5.392 7.586-1.355-.963 5.392-7.586-2.033-1.445.907-1.276 5.421 3.853-.907 1.276Zm2.824.2 1.819 1.56c.759.65 1.233 1.316 1.424 1.995a2.85 2.85 0 0 1 .001 1.525c-.123.51-.354.964-.694 1.36-.636.742-1.421 1.114-2.353 1.116-.871-.003-1.728-.365-2.569-1.087l-.569-.488-2.876 3.353-1.262-1.083 7.079-8.251Zm.264 2.245-2.207 2.573.569.488c.528.453 1.027.681 1.497.684.477-.006.886-.207 1.226-.603.12-.14.212-.29.277-.449a1.53 1.53 0 0 0 .13-.576c.028-.233-.038-.49-.198-.771-.153-.289-.399-.578-.737-.868l-.557-.478Zm4.217 17.143 1.164-2.614-3.139-3.425-2.738.896-1.212-1.322 12.141-3.785-5.005 11.572-1.211-1.322Zm-.359-6.592 2.225 2.428 1.626-3.679-3.851 1.251Zm2.776 9.373 8.93-6.2.949 1.365-7.645 5.309 2.566 3.695 7.645-5.309.948 1.366-7.645 5.308.799 1.152-3.293 2.287-.893-1.285 2.009-1.395-4.37-6.293Zm9.747 16.006 6.547-3.271-10.263-3.072 10.162-5.078.744 1.487-6.576 3.286 10.263 3.072-10.134 5.063-.743-1.487Zm1.952 4.175 5.331 1.591a3.058 3.058 0 0 1 .152-1.826c.314-.761.944-1.304 1.89-1.627.864-.294 1.668-.276 2.413.055.393.176.732.428 1.016.756.284.328.477.606.578.836.101.23.212.52.331.869l.863 2.53-10.289 3.511-.537-1.573 4.119-1.406-.127-.37-5.077-1.402-.663-1.944Zm10.587 2.105-.263-.771c-.288-.843-.647-1.375-1.078-1.596-.421-.223-.873-.253-1.357-.088-.555.19-.9.526-1.034 1.008-.12.454-.065 1.02.167 1.7l.295.863 3.27-1.116Z" fill="#fff"/></svg>