<svg width="88" height="102" fill="none" xmlns="http://www.w3.org/2000/svg"><path d="M27.728 41.03h-1.903c.211 2.643.846 5.287 2.114 7.719l1.586-.952c.741-.422 1.693-.211 2.01.53l.212.422c.422.74.211 1.692-.53 2.01l-1.585.95c6.556 9.519 19.352 12.48 29.398 6.663a21.824 21.824 0 0 0 6.98-6.556l-1.586-.952c-.74-.422-.952-1.374-.53-2.009l.212-.423c.423-.74 1.376-.951 2.01-.529l1.586.952c1.163-2.432 1.903-5.076 2.115-7.72h-1.904c-.846 0-1.48-.634-1.48-1.48v-.423c0-.846.634-1.48 1.48-1.48h1.903c-.212-2.644-.846-5.288-2.115-7.72l-1.586.952c-.74.423-1.692.212-2.01-.529l-.317-.635c-.422-.74-.211-1.692.53-2.01l1.585-.951c-1.586-2.327-3.49-4.23-5.71-5.71l-.951 1.586c-.423.74-1.375.951-2.01.529l-.422-.212c-.741-.423-.952-1.375-.53-2.01l.952-1.585c-2.432-1.164-5.075-1.903-7.72-2.115v1.903c0 .846-.634 1.48-1.48 1.48h-.423c-.846 0-1.48-.634-1.48-1.48v-1.903c-2.644.212-5.288.846-7.72 2.115l.952 1.586c.422.74.211 1.692-.53 2.009l-.528.317c-.74.423-1.692.212-2.01-.529l-.951-1.586c-2.327 1.586-4.23 3.49-5.71 5.71l1.586.952c.74.423.951 1.375.529 2.01l-.212.422c-.423.74-1.375.952-2.01.529L27.94 29.82c-1.163 2.432-1.903 5.076-2.114 7.72h1.903c.846 0 1.48.634 1.48 1.48v.423c0 .952-.634 1.586-1.48 1.586ZM45.6 35.635c1.163-.74 2.643-.74 3.806-.317l8.883-4.23c.846-.422 1.798-.105 2.327.635.422.74.212 1.798-.53 2.326l-7.93 5.71c-.106 1.27-.846 2.539-2.115 3.279-2.01 1.268-4.759.529-5.922-1.48-1.163-2.116-.529-4.76 1.48-5.923Zm.422 3.173c.212-1.058 1.269-1.586 2.327-1.375 1.058.212 1.586 1.269 1.375 2.327-.212 1.057-1.27 1.585-2.327 1.374-1.058-.211-1.692-1.269-1.375-2.326Zm-37.33-2.115-.105 1.057c0 3.596-1.375 9.095-2.96 12.267C3.934 53.295 2.137 56.574.55 58.9c-1.48 2.221.212 5.288 2.856 5.288h5.182v18.823a6.86 6.86 0 0 0 6.873 6.873h10.787v9.517c0 1.798 1.797 3.067 3.49 2.432l46.172-.76c1.586-.529 1.732-16.689 1.732-18.381V65.034c6.238-7.19 9.834-16.603 9.623-26.86C86.63 18.188 70.662 1.48 50.78.104 28.574-1.482 10.068 15.226 8.693 36.694Zm24.64-22.102c13.642-8.037 31.302-3.385 39.34 10.258 8.036 13.64 3.383 31.301-10.259 39.338-13.64 8.037-31.301 3.385-39.338-10.257-8.037-13.748-3.384-31.302 10.257-39.34Z" fill="url(#a)"/><defs><linearGradient id="a" x1="0" y1="51" x2="87.274" y2="51" gradientUnits="userSpaceOnUse"><stop stop-color="#2E3192"/><stop offset="1" stop-color="#2484C6"/></linearGradient></defs></svg>