<svg width="91" height="91" fill="none" xmlns="http://www.w3.org/2000/svg"><path fill-rule="evenodd" clip-rule="evenodd" d="M45.5 9.165c15.52 0 28.762 9.731 33.971 23.422H45.59c-2.565-.033-5.128.747-7.259 2.172V9.874a36.471 36.471 0 0 1 7.17-.71ZM45.5 0C70.629 0 91 20.373 91 45.5S70.627 91 45.5 91 0 70.627 0 45.5 20.373 0 45.5 0Zm0 5.742c-21.958 0-39.759 17.8-39.759 39.76 0 21.958 17.8 39.758 39.759 39.758 21.96 0 39.759-17.8 39.759-39.759 0-21.957-17.8-39.759-39.759-39.759Zm-12.913 39.67c-.033 2.566.747 5.128 2.172 7.259H9.874a36.466 36.466 0 0 1-.71-7.17c0-15.52 9.732-28.763 23.423-33.97v33.88Zm12.824 13c2.567.034 5.129-.745 7.26-2.17v24.885a36.464 36.464 0 0 1-7.171.709c-15.52 0-28.762-9.732-33.97-23.423h33.881ZM58.413 45.5c0-2.653-.8-5.119-2.172-7.17h24.886c.464 2.318.708 4.716.708 7.17 0 15.52-9.731 28.763-23.422 33.972l.001-33.972Z" fill="url(#a)"/><defs><linearGradient id="a" x1="0" y1="45.5" x2="91" y2="45.5" gradientUnits="userSpaceOnUse"><stop stop-color="#2E3192"/><stop offset="1" stop-color="#2484C6"/></linearGradient></defs></svg>