<svg width="94" height="94" fill="none" xmlns="http://www.w3.org/2000/svg"><path d="M40.122 0v9.78c-5.345.981-10.274 3.116-14.58 6.09l-6.7-6.7-9.671 9.673 6.699 6.7c-2.974 4.305-5.111 9.232-6.09 14.579H0v13.756h9.78c.979 5.346 3.116 10.274 6.09 14.58l-6.7 6.7 9.673 9.671 6.7-6.699c4.305 2.974 9.234 5.109 14.579 6.09V94h13.756v-9.78c5.345-.981 10.274-3.116 14.58-6.09l6.7 6.7 9.671-9.673-6.699-6.7c2.974-4.305 5.111-9.232 6.09-14.579H94V40.122h-9.78c-.979-5.346-3.116-10.274-6.09-14.58l6.7-6.7-9.673-9.671-6.7 6.699c-4.305-2.974-9.234-5.109-14.579-6.09V0H40.122ZM47 18.342c15.828 0 28.658 12.83 28.658 28.658 0 15.828-12.83 28.658-28.658 28.658-15.828 0-28.658-12.83-28.658-28.658 0-15.828 12.83-28.658 28.658-28.658Zm0 2.292C32.44 20.634 20.634 32.44 20.634 47S32.439 73.366 47 73.366 73.366 61.56 73.366 47 61.56 20.634 47 20.634Zm12.753 12.61 4.442 4.406-22.173 23.107-12.216-9.887 3.331-5.517 8.885 8.813 17.731-20.922Z" fill="url(#a)"/><defs><linearGradient id="a" x1="0" y1="47" x2="94" y2="47" gradientUnits="userSpaceOnUse"><stop stop-color="#2E3192"/><stop offset="1" stop-color="#2484C6"/></linearGradient></defs></svg>