<svg width="86" height="97" fill="none" xmlns="http://www.w3.org/2000/svg"><path d="M83.695 0H2.305C1.002 0 0 1.003 0 2.305v71.868c0 1.303 1.003 2.305 2.305 2.305h26.161L43 96.224l14.534-19.746h26.16c1.304 0 2.306-1.002 2.306-2.305V2.305C86 1.103 84.998 0 83.695 0ZM56.532 43.602l-8.62-8.62v25.46h-9.823v-25.46l-8.72 8.62-6.917-7.016 14.333-14.234L43 16.138l1.804 1.804 5.212 5.11 13.531 13.532-7.015 7.018Z" fill="url(#a)"/><path d="M7 9v59.104a2 2 0 0 0 2 2h23.453a2 2 0 0 1 1.708.96l7.452 12.257a2 2 0 0 0 3.371.073l8.294-12.402a2 2 0 0 1 1.663-.888H77a2 2 0 0 0 2-2V9a2 2 0 0 0-2-2H9a2 2 0 0 0-2 2Z" stroke="#000" stroke-width="3"/><defs><linearGradient id="a" x1="0" y1="48.112" x2="86" y2="48.112" gradientUnits="userSpaceOnUse"><stop stop-color="#2E3192"/><stop offset="1" stop-color="#2484C6"/></linearGradient></defs></svg>