<svg width="71" height="71" fill="none" xmlns="http://www.w3.org/2000/svg"><circle cx="35.5" cy="35.5" r="35.5" fill="url(#a)"/><path d="m16.597 36.165 8.162 3.043 3.181 10.237c.139.691.969.83 1.522.415l4.565-3.735c.415-.415 1.107-.415 1.66 0l8.162 5.948c.553.415 1.383.138 1.521-.553l6.087-29.05c.138-.692-.553-1.383-1.245-1.107L16.597 34.367c-.83.276-.83 1.521 0 1.798Zm10.928 1.521 16.047-9.821c.276-.138.553.277.276.415l-13.14 12.31c-.415.415-.83.969-.83 1.66l-.415 3.32c0 .415-.692.554-.83 0l-1.66-6.086c-.415-.692-.138-1.522.553-1.799Z" fill="#fff"/><defs><linearGradient id="a" x1="0" y1="35.5" x2="71" y2="35.5" gradientUnits="userSpaceOnUse"><stop stop-color="#2E3192"/><stop offset="1" stop-color="#2484C6"/></linearGradient></defs></svg>