<svg width="94" height="594" viewBox="0 0 94 594" fill="none" xmlns="http://www.w3.org/2000/svg">
<g clip-path="url(#clip0_744_2358)">
<path d="M76.1794 374.339L76.1794 0L-136.719 -9.3061e-06L-136.719 374.339L76.1794 374.339Z" fill="#020101"/>
<path d="M74.4081 66.6762L76.1794 66.6762L76.1794 64.7492L74.4081 64.7492C58.0128 64.7492 44.6747 51.3498 44.6747 34.8791L44.6747 -1.37712e-06L42.7565 -1.46097e-06L42.7565 34.8791C42.7565 52.4127 56.9568 66.6762 74.4081 66.6762Z" fill="url(#paint0_linear_744_2358)"/>
<path d="M74.4081 62.1805L76.1794 62.1805L76.1794 60.2535L74.4081 60.2535C60.4803 60.2535 49.1498 48.8709 49.1498 34.8791L49.1498 -1.1815e-06L47.2316 -1.26535e-06L47.2316 34.8791C47.2337 49.9339 59.4243 62.1805 74.4081 62.1805Z" fill="url(#paint1_linear_744_2358)"/>
<path d="M74.4081 57.6827L76.1794 57.6827L76.1794 55.7556L74.4081 55.7556C62.9499 55.7556 53.6271 46.3899 53.6271 34.8791L53.6271 -9.85795e-07L51.7089 -1.06964e-06L51.7089 34.8791C51.7089 47.4529 61.8918 57.6827 74.4081 57.6827Z" fill="url(#paint2_linear_744_2358)"/>
<path d="M74.4081 53.187L76.1794 53.187L76.1794 51.2599L74.4081 51.2599C65.4174 51.2599 58.1022 43.9111 58.1022 34.8791L58.1022 -7.90181e-07L56.184 -8.74029e-07L56.184 34.8791C56.1861 44.9741 64.3614 53.187 74.4081 53.187Z" fill="url(#paint3_linear_744_2358)"/>
<path d="M74.4081 48.6913L76.1794 48.6913L76.1794 46.7642L74.4081 46.7642C67.8849 46.7642 62.5795 41.4323 62.5795 34.8812L62.5795 -5.94474e-07L60.6612 -6.78322e-07L60.6612 34.8791C60.6612 42.4952 66.8289 48.6913 74.4081 48.6913Z" fill="url(#paint4_linear_744_2358)"/>
<path d="M74.4081 44.1934L76.1794 44.1934L76.1794 42.2664L74.4081 42.2664C70.3524 42.2664 67.0546 38.9513 67.0546 34.8791L67.0546 -3.9886e-07L65.1364 -4.82708e-07L65.1364 34.8791C65.1364 40.0143 69.2964 44.1934 74.4081 44.1934Z" fill="url(#paint5_linear_744_2358)"/>
<path d="M-46.0524 371.423C-46.0524 354.952 -32.7142 341.553 -16.3189 341.553L44.7021 341.553L44.7021 339.626L-16.3189 339.626C-33.7724 339.626 -47.9706 353.889 -47.9706 371.423C-47.9706 372.388 -47.9195 373.342 -47.8365 374.285L-45.914 374.285C-46.0013 373.344 -46.0524 372.388 -46.0524 371.423Z" fill="url(#paint6_linear_744_2358)"/>
<path d="M-41.5751 371.423C-41.5751 357.431 -30.2446 346.049 -16.3168 346.049L44.7021 346.049L44.7021 344.122L-16.3189 344.122C-31.3027 344.122 -43.4955 356.368 -43.4955 371.423C-43.4955 372.39 -43.4422 373.344 -43.3464 374.285L-41.4133 374.285C-41.5155 373.344 -41.5751 372.392 -41.5751 371.423Z" fill="url(#paint7_linear_744_2358)"/>
<path d="M-37.1 371.423C-37.1 359.912 -27.7771 350.547 -16.3189 350.547L44.7021 350.547L44.7021 348.62L-16.3189 348.62C-28.8353 348.62 -39.0182 358.849 -39.0182 371.423C-39.0182 372.392 -38.9501 373.346 -38.833 374.285L-36.8999 374.285C-37.0276 373.348 -37.1 372.394 -37.1 371.423Z" fill="url(#paint8_linear_744_2358)"/>
<path d="M-32.6227 371.423C-32.6227 362.391 -25.3075 355.042 -16.3168 355.042L44.7021 355.042L44.7021 353.115L-16.3189 353.115C-26.3678 353.115 -34.5431 361.328 -34.5431 371.423C-34.5431 372.396 -34.4643 373.352 -34.3174 374.285L-32.3694 374.285C-32.5333 373.354 -32.6227 372.401 -32.6227 371.423Z" fill="url(#paint9_linear_744_2358)"/>
<path d="M-28.1476 371.423C-28.1476 364.87 -22.84 359.54 -16.3189 359.54L44.7021 359.54L44.7021 357.613L-16.3189 357.613C-23.9002 357.613 -30.0658 363.809 -30.0658 371.423C-30.0658 372.405 -29.9593 373.361 -29.7656 374.285L-27.7878 374.285C-28.0134 373.367 -28.1476 372.411 -28.1476 371.423Z" fill="url(#paint10_linear_744_2358)"/>
<path d="M-23.6703 371.423C-23.6703 367.349 -20.3725 364.036 -16.3168 364.036L44.7021 364.036L44.7021 362.109L-16.3189 362.109C-21.4306 362.109 -25.5907 366.286 -25.5907 371.423C-25.5907 372.422 -25.4289 373.382 -25.1393 374.285L-23.0997 374.285C-23.4659 373.404 -23.6703 372.437 -23.6703 371.423Z" fill="url(#paint11_linear_744_2358)"/>
<path d="M3.24238 55.4198C21.5176 55.4198 36.3865 40.4827 36.3865 22.1234L36.3865 0L34.4683 -8.3848e-08L34.4683 22.1234C34.4683 39.4197 20.4595 53.4928 3.24238 53.4928C-13.9748 53.4928 -27.9835 39.4197 -27.9835 22.1234L-27.9835 -2.8137e-06L-29.9017 -2.89755e-06L-29.9017 22.1234C-29.9017 40.4827 -15.0329 55.4198 3.24238 55.4198Z" fill="url(#paint12_linear_744_2358)"/>
<path d="M3.24241 50.9241C19.0502 50.9241 31.9114 38.0038 31.9114 22.1235L31.9114 0L29.9932 -8.38481e-08L29.9932 22.1235C29.9932 36.9409 17.9942 48.9971 3.24241 48.9971C-11.5072 48.9971 -23.5062 36.943 -23.5062 22.1234L-23.5062 -2.42238e-06L-25.4244 -2.50623e-06L-25.4244 22.1234C-25.4244 38.0038 -12.5653 50.9241 3.24241 50.9241Z" fill="url(#paint13_linear_744_2358)"/>
<path d="M3.24238 46.4263C16.5826 46.4263 27.4341 35.525 27.4341 22.1234L27.4341 0L25.5159 -8.3848e-08L25.5159 22.1234C25.5159 34.462 15.5245 44.4993 3.24238 44.4993C-9.03975 44.4993 -19.0311 34.462 -19.0311 22.1234L-19.0311 -2.03106e-06L-20.9493 -2.11491e-06L-20.9493 22.1234C-20.9493 35.525 -10.0957 46.4263 3.24238 46.4263Z" fill="url(#paint14_linear_744_2358)"/>
<path d="M3.24243 41.9306C14.113 41.9306 22.959 33.0462 22.959 22.1235L22.959 0L21.0408 -8.38479e-08L21.0408 22.1235C21.0408 31.9832 13.0571 40.0036 3.24243 40.0036C-6.57008 40.0036 -14.5559 31.9832 -14.5559 22.1234L-14.5559 -1.63983e-06L-16.4741 -1.72368e-06L-16.4741 22.1234C-16.472 33.044 -7.62819 41.9306 3.24243 41.9306Z" fill="url(#paint15_linear_744_2358)"/>
<path d="M3.2424 37.4328C11.6455 37.4328 18.4817 30.5652 18.4817 22.1234L18.4817 0L16.5635 -8.38478e-08L16.5635 22.1234C16.5635 29.5022 10.5874 35.5057 3.2424 35.5057C-4.10261 35.5057 -10.0787 29.5022 -10.0787 22.1234L-10.0787 -1.24841e-06L-11.9969 -1.33226e-06L-11.9969 22.1234C-11.9969 30.5652 -5.16072 37.4328 3.2424 37.4328Z" fill="url(#paint16_linear_744_2358)"/>
<path d="M3.24242 32.9371C9.17804 32.9371 14.0066 28.0863 14.0066 22.1234L14.0066 0L12.0884 -8.38481e-08L12.0884 22.1234C12.0884 27.0234 8.11993 31.01 3.24242 31.01C-1.6351 31.01 -5.60354 27.0234 -5.60354 22.1234L-5.60353 -8.57186e-07L-7.52175 -9.41034e-07L-7.52175 22.1234C-7.51962 28.0863 -2.69107 32.9371 3.24242 32.9371Z" fill="url(#paint17_linear_744_2358)"/>
<path d="M46.6182 364.094L46.6183 306.165C46.6183 301.03 42.4582 296.851 37.3465 296.851L35.8605 296.851L35.8605 298.778L37.3465 298.778C41.4022 298.778 44.7 302.093 44.7 306.165L44.7 364.096C44.7 367.661 45.2961 371.085 46.3777 374.287L48.4023 374.287C47.2484 371.102 46.6182 367.672 46.6182 364.094Z" fill="url(#paint18_linear_744_2358)"/>
<path d="M51.0936 364.094L51.0936 306.165C51.0936 298.551 44.9259 292.355 37.3467 292.355L35.8606 292.355L35.8606 294.282L37.3467 294.282C43.8699 294.282 49.1753 299.612 49.1753 306.165L49.1753 364.096C49.1753 367.697 49.88 371.134 51.1468 374.287L53.2268 374.287C51.86 371.164 51.0936 367.719 51.0936 364.094Z" fill="url(#paint19_linear_744_2358)"/>
<path d="M55.5707 364.094L55.5707 306.165C55.5707 296.07 47.3954 287.857 37.3466 287.857L35.8606 287.857L35.8606 289.784L37.3466 289.784C46.3373 289.784 53.6525 297.133 53.6525 306.165L53.6525 364.096C53.6525 367.757 54.5211 371.218 56.054 374.287L58.2256 374.287C56.5373 371.269 55.5707 367.794 55.5707 364.094Z" fill="url(#paint20_linear_744_2358)"/>
<path d="M60.0458 364.094L60.0458 306.165C60.0458 293.591 49.8629 283.362 37.3466 283.362L35.8605 283.362L35.8605 285.289L37.3466 285.289C48.8048 285.289 58.1276 294.654 58.1276 306.165L58.1276 364.096C58.1276 367.866 59.2688 371.372 61.2189 374.287L63.5991 374.287C61.3786 371.485 60.0458 367.946 60.0458 364.094Z" fill="url(#paint21_linear_744_2358)"/>
<path d="M64.5231 364.094L64.5231 306.165C64.5231 291.112 52.3325 278.864 37.3465 278.864L35.8605 278.864L35.8605 280.791L37.3465 280.791C51.2744 280.791 62.6048 292.173 62.6048 306.165L62.6048 364.096C62.6048 368.132 64.3485 371.759 67.1055 374.287L70.2969 374.287C66.8458 372.206 64.5231 368.422 64.5231 364.094Z" fill="url(#paint22_linear_744_2358)"/>
<path d="M68.9981 364.094L68.9981 306.165C68.9981 288.631 54.7999 274.368 37.3465 274.368L35.8604 274.368L35.8604 276.295L37.3465 276.295C53.7418 276.295 67.0799 289.694 67.0799 306.165L67.0799 364.096C67.0799 369.173 71.1463 373.307 76.1792 373.402L76.1792 371.475C72.2044 371.38 68.9981 368.11 68.9981 364.094Z" fill="url(#paint23_linear_744_2358)"/>
<path d="M27.4107 123.869L31.2152 123.869C33.1377 123.869 34.1766 123.869 34.7642 123.811L34.7642 123.869C39.8759 123.869 44.036 119.69 44.036 114.555L44.036 88.1002C44.036 82.9629 39.8759 78.7859 34.7642 78.7859C29.6525 78.7859 25.4925 82.9629 25.4925 88.1002L25.4925 146.673C25.4925 151.808 29.6525 155.987 34.7642 155.987L76.1794 155.987L76.1794 154.06L34.7642 154.06C30.7085 154.06 27.4107 150.745 27.4107 146.673L27.4107 88.1002C27.4107 84.0259 30.7085 80.7129 34.7642 80.7129C38.82 80.7129 42.1178 84.0259 42.1178 88.1002L42.1178 114.555C42.1178 118.627 38.82 121.942 34.7642 121.942L34.1213 121.942C32.3776 121.942 27.4107 121.942 27.4107 121.942" fill="url(#paint24_linear_744_2358)"/>
<path d="M22.9356 146.673L22.9356 88.1003C22.9356 81.5471 28.2431 76.2173 34.7642 76.2173C41.2853 76.2173 46.5929 81.5493 46.5929 88.1003L46.5929 114.555C46.5929 121.108 41.2853 126.438 34.7642 126.438L34.1213 126.438C32.3776 126.438 27.6662 126.438 27.6662 126.438L27.4107 126.438L27.4107 128.365L31.2152 128.365C33.1377 128.365 34.1766 128.365 34.7642 128.307L34.7642 128.365C42.3456 128.365 48.5111 122.169 48.5111 114.555L48.5111 88.1003C48.5111 80.4842 42.3434 74.2903 34.7642 74.2903C27.185 74.2903 21.0173 80.4863 21.0173 88.1003L21.0173 146.673C21.0173 154.287 27.185 160.483 34.7642 160.483L76.1794 160.483L76.1794 158.556L34.7642 158.556C28.241 158.558 22.9356 153.226 22.9356 146.673Z" fill="url(#paint25_linear_744_2358)"/>
<path d="M18.4583 146.673L18.4583 88.1004C18.4583 79.0683 25.7735 71.7195 34.7642 71.7195C43.755 71.7195 51.0702 79.0683 51.0702 88.1004L51.0702 114.555C51.0702 123.587 43.7549 130.936 34.7642 130.936L34.1213 130.936C32.3563 130.936 27.5427 130.936 27.5427 130.936L27.4107 130.936L27.4107 132.863L31.1535 132.863C33.1143 132.863 34.1702 132.863 34.7642 132.805L34.7642 132.863C44.8131 132.863 52.9884 124.65 52.9884 114.555L52.9884 88.1004C52.9884 78.0054 44.8131 69.7925 34.7642 69.7925C24.7154 69.7925 16.5401 78.0054 16.5401 88.1004L16.5401 146.673C16.5401 156.768 24.7154 164.981 34.7642 164.981L76.1794 164.981L76.1794 163.054L34.7642 163.054C25.7735 163.054 18.4583 155.705 18.4583 146.673Z" fill="url(#paint26_linear_744_2358)"/>
<path d="M13.9832 146.673L13.9832 88.1002C13.9832 76.5893 23.306 67.2237 34.7642 67.2237C46.2224 67.2237 55.5453 76.5893 55.5453 88.1002L55.5453 114.555C55.5453 126.066 46.2224 135.431 34.7642 135.431L34.1213 135.431C32.3585 135.431 27.5576 135.431 27.5576 135.431L27.4107 135.429L27.4107 137.345L31.1535 137.358C33.1143 137.358 34.1702 137.358 34.7642 137.298L34.7642 137.358C47.2806 137.358 57.4635 127.128 57.4635 114.555L57.4635 88.1002C57.4635 75.5264 47.2806 65.2966 34.7642 65.2966C22.2479 65.2966 12.065 75.5264 12.065 88.1002L12.065 146.673C12.065 159.246 22.2479 169.476 34.7642 169.476L76.1794 169.476L76.1794 167.549L34.7642 167.549C23.306 167.551 13.9832 158.186 13.9832 146.673Z" fill="url(#paint27_linear_744_2358)"/>
<path d="M9.50589 146.673L9.5059 88.1002C9.5059 74.1084 20.8364 62.7259 34.7642 62.7259C48.6921 62.7259 60.0225 74.1105 60.0225 88.1002L60.0225 114.555C60.0225 128.544 48.6921 139.929 34.7642 139.929L34.1213 139.929C32.3563 139.929 27.5427 139.929 27.5427 139.929L27.4107 139.929L27.4107 141.856L31.1535 141.856C33.1143 141.856 34.1702 141.856 34.7642 141.796L34.7642 141.856C49.748 141.856 61.9408 129.607 61.9408 114.555L61.9408 88.1002C61.9408 73.0454 49.7502 60.7988 34.7642 60.7988C19.7783 60.7988 7.58768 73.0454 7.58768 88.1002L7.58768 146.673C7.58768 161.725 19.7783 173.974 34.7642 173.974L76.1794 173.974L76.1794 172.047L34.7642 172.047C20.8364 172.047 9.50589 160.664 9.50589 146.673Z" fill="url(#paint28_linear_744_2358)"/>
<path d="M5.03078 146.673L5.03078 88.1003C5.03078 71.6297 18.3689 58.2303 34.7642 58.2303C51.1596 58.2303 64.4977 71.6297 64.4977 88.1003L64.4977 114.555C64.4977 131.025 51.1596 144.425 34.7642 144.425L34.1213 144.425C32.3095 144.425 27.4107 144.408 27.4107 144.408L27.4107 146.335L33.589 146.352C34.1149 146.352 34.4896 146.352 34.7642 146.333L34.7642 146.352C52.2177 146.352 66.4159 132.088 66.4159 114.555L66.4159 88.1003C66.4159 70.5667 52.2177 56.3032 34.7642 56.3032C17.3108 56.3032 3.11256 70.5688 3.11256 88.1003L3.11256 146.673C3.11256 164.206 17.3108 178.47 34.7642 178.47L76.1794 178.47L76.1794 176.543L34.7642 176.543C18.3689 176.543 5.03078 163.143 5.03078 146.673Z" fill="url(#paint29_linear_744_2358)"/>
<path d="M-5.07966 299.188C-5.07966 304.324 -0.91908 308.503 4.19329 308.503C9.30564 308.503 13.4662 304.324 13.4662 299.188L13.4662 220.056C13.4662 203.585 26.8061 190.185 43.2035 190.185C59.601 190.185 72.9408 203.585 72.9408 220.056L72.9408 223.647L72.9408 241.372C72.9408 244.193 74.2014 246.719 76.1794 248.431L76.1794 245.584C75.349 244.388 74.8593 242.938 74.8593 241.372L74.8593 223.647L74.8593 220.056C74.8593 202.522 60.6592 188.258 43.2035 188.258C25.7478 188.258 11.5478 202.522 11.5478 220.056L11.5478 299.188C11.5478 303.261 8.24953 306.576 4.19329 306.576C0.137034 306.576 -3.1612 303.261 -3.1612 299.188L-3.1612 218.88C-3.78507 219.335 -4.42385 219.767 -5.07966 220.176L-5.07966 299.188Z" fill="url(#paint30_linear_744_2358)"/>
<path d="M-9.41349 299.045C-9.4135 306.659 -3.25522 312.856 4.31241 312.856C11.8822 312.856 18.0383 306.659 18.0383 299.045L18.0383 219.913C18.0383 205.921 29.3515 194.537 43.2581 194.537C57.1647 194.537 68.4779 205.921 68.4779 219.913L68.4779 223.504L68.4779 241.229C68.4779 246.668 71.6261 251.369 76.1794 253.62L76.1794 251.432C72.7209 249.357 70.3932 245.567 70.3932 241.229L70.3932 223.504L70.3932 219.913C70.3932 204.858 58.2212 192.61 43.2581 192.61C28.2971 192.61 16.123 204.858 16.123 219.913L16.123 299.045C16.123 305.599 10.8236 310.929 4.31241 310.929C-2.20086 310.929 -7.4982 305.596 -7.4982 299.045L-7.4982 221.464C-8.1253 221.778 -8.76302 222.075 -9.41349 222.349L-9.41349 299.045Z" fill="url(#paint31_linear_744_2358)"/>
<path d="M-14.289 298.9C-14.289 308.995 -6.08947 317.209 3.98915 317.209C14.0678 317.209 22.2673 308.995 22.2673 298.9L22.2673 219.77C22.2673 208.258 31.6178 198.892 43.11 198.892C54.6022 198.892 63.9527 208.258 63.9527 219.77L63.9527 223.361L63.9527 241.085C63.9527 249.057 69.0668 255.85 76.1794 258.356L76.1794 256.297C70.1493 253.882 65.8766 247.974 65.8766 241.083L65.8766 223.359L65.8766 219.767C65.8766 207.193 55.6635 196.963 43.11 196.963C30.5566 196.963 20.3434 207.193 20.3434 219.767L20.3434 298.898C20.3434 307.93 13.0065 315.279 3.98915 315.279C-5.02823 315.279 -12.3651 307.93 -12.3651 298.898L-12.3651 223.147C-12.9993 223.35 -13.6399 223.532 -14.289 223.692L-14.289 298.9Z" fill="url(#paint32_linear_744_2358)"/>
<path d="M-18.6229 299.301C-18.6229 311.875 -8.42633 322.105 4.10668 322.105C16.6397 322.105 26.8362 311.875 26.8362 299.301L26.8362 220.169C26.8362 211.136 34.1612 203.787 43.1639 203.787C52.1666 203.787 59.4915 211.136 59.4915 220.169L59.4915 223.76L59.4915 241.485C59.4915 251.961 66.5713 260.803 76.1794 263.466L76.1794 261.462C67.6436 258.859 61.4123 250.889 61.4123 241.485L61.4123 223.76L61.4123 220.169C61.4123 210.073 53.2261 201.86 43.1639 201.86C33.1016 201.86 24.9154 210.073 24.9154 220.169L24.9154 299.301C24.9154 310.812 15.5802 320.178 4.10668 320.178C-7.36681 320.178 -16.7021 310.812 -16.7021 299.301L-16.7021 224.624C-17.3374 224.727 -17.9769 224.819 -18.6228 224.883L-18.6229 299.301Z" fill="url(#paint33_linear_744_2358)"/>
<path d="M35.916 299.01L35.916 219.878C35.916 215.804 39.2087 212.49 43.2583 212.49C47.3078 212.49 50.6005 215.804 50.6005 219.878L50.6005 223.469L50.6005 241.194C50.6005 256.654 61.6267 269.568 76.1794 272.407L76.1794 270.447C62.6874 267.639 52.5158 255.591 52.5158 241.196L52.5158 223.471L52.5158 219.88C52.5158 214.743 48.3621 210.565 43.2583 210.565C38.1544 210.565 34.0007 214.743 34.0007 219.88L34.0007 299.012C34.0007 315.484 20.683 328.884 4.31275 328.884C-12.0575 328.884 -25.3752 315.484 -25.3752 299.012L-25.3752 224.757L-27.2905 224.757L-27.2905 239.532L-27.2905 241.459L-27.2905 299.012C-27.2905 316.547 -13.114 330.811 4.31275 330.811C21.7395 330.811 35.916 316.545 35.916 299.01Z" fill="url(#paint34_linear_744_2358)"/>
<path d="M-22.9567 224.9L-22.9567 299.155C-22.9567 314.209 -10.7682 326.458 4.21513 326.458C19.1963 326.458 31.3869 314.209 31.3869 299.155L31.3869 220.023C31.3869 213.47 36.6915 208.14 43.2135 208.14C49.7356 208.14 55.0401 213.47 55.0401 220.023L55.0401 223.615L55.0401 241.339C55.0401 254.31 64.091 265.19 76.1794 267.956L76.1794 265.977C65.1596 263.252 56.958 253.242 56.958 241.339L56.958 223.615L56.958 220.023C56.958 212.407 50.7914 206.213 43.2135 206.213C35.6335 206.213 29.4691 212.409 29.4691 220.023L29.4691 299.155C29.4691 313.146 18.1405 324.531 4.21513 324.531C-9.71029 324.531 -21.0388 313.148 -21.0388 299.155L-21.0388 224.883C-21.2516 224.887 -21.4645 224.9 -21.6774 224.9L-22.9567 224.9Z" fill="url(#paint35_linear_744_2358)"/>
<rect x="5.26416" width="93.7351" height="105.608" fill="url(#paint36_linear_744_2358)"/>
</g>
<g clip-path="url(#clip1_744_2358)">
<path d="M76.8047 735.531L76.8047 361.192L-136.094 361.192L-136.094 735.531L76.8047 735.531Z" fill="#020101"/>
<path d="M75.0334 427.869L76.8047 427.869L76.8047 425.942L75.0334 425.942C58.638 425.942 45.2999 412.542 45.2999 396.071L45.2999 361.192L43.3817 361.192L43.3817 396.071C43.3817 413.605 57.582 427.869 75.0334 427.869Z" fill="url(#paint37_linear_744_2358)"/>
<path d="M75.0334 423.373L76.8047 423.373L76.8047 421.446L75.0334 421.446C61.1055 421.446 49.775 410.063 49.775 396.071L49.775 361.192L47.8568 361.192L47.8568 396.071C47.859 411.126 60.0495 423.373 75.0334 423.373Z" fill="url(#paint38_linear_744_2358)"/>
<path d="M75.0334 418.875L76.8047 418.875L76.8047 416.948L75.0334 416.948C63.5752 416.948 54.2523 407.582 54.2523 396.071L54.2523 361.192L52.3341 361.192L52.3341 396.071C52.3341 408.645 62.517 418.875 75.0334 418.875Z" fill="url(#paint39_linear_744_2358)"/>
<path d="M75.0334 414.379L76.8047 414.379L76.8047 412.452L75.0334 412.452C66.0426 412.452 58.7274 405.103 58.7274 396.071L58.7274 361.192L56.8092 361.192L56.8092 396.071C56.8114 406.166 64.9867 414.379 75.0334 414.379Z" fill="url(#paint40_linear_744_2358)"/>
<path d="M75.0334 409.884L76.8047 409.884L76.8047 407.957L75.0334 407.957C68.5101 407.957 63.2047 402.625 63.2047 396.074L63.2047 361.192L61.2865 361.192L61.2865 396.071C61.2865 403.688 67.4542 409.884 75.0334 409.884Z" fill="url(#paint41_linear_744_2358)"/>
<path d="M75.0334 405.386L76.8047 405.386L76.8047 403.459L75.0334 403.459C70.9776 403.459 67.6798 400.144 67.6798 396.071L67.6798 361.192L65.7616 361.192L65.7616 396.071C65.7616 401.207 69.9217 405.386 75.0334 405.386Z" fill="url(#paint42_linear_744_2358)"/>
<path d="M3.86762 416.612C22.1429 416.612 37.0117 401.675 37.0117 383.316L37.0117 361.192L35.0935 361.192L35.0935 383.316C35.0935 400.612 21.0848 414.685 3.86762 414.685C-13.3495 414.685 -27.3583 400.612 -27.3583 383.316L-27.3583 361.192L-29.2765 361.192L-29.2765 383.316C-29.2765 401.675 -14.4076 416.612 3.86762 416.612Z" fill="url(#paint43_linear_744_2358)"/>
<path d="M3.86766 412.117C19.6754 412.117 32.5366 399.196 32.5366 383.316L32.5366 361.192L30.6184 361.192L30.6184 383.316C30.6184 398.133 18.6194 410.189 3.86766 410.189C-10.882 410.189 -22.881 398.135 -22.881 383.316L-22.881 361.192L-24.7992 361.192L-24.7992 383.316C-24.7992 399.196 -11.9401 412.117 3.86766 412.117Z" fill="url(#paint44_linear_744_2358)"/>
<path d="M3.86762 407.619C17.2079 407.619 28.0593 396.717 28.0593 383.316L28.0593 361.192L26.1411 361.192L26.1411 383.316C26.1411 395.654 16.1498 405.692 3.86762 405.692C-8.41451 405.692 -18.4059 395.654 -18.4059 383.316L-18.4059 361.192L-20.3241 361.192L-20.3241 383.316C-20.3241 396.717 -9.4705 407.619 3.86762 407.619Z" fill="url(#paint45_linear_744_2358)"/>
<path d="M3.86767 403.123C14.7383 403.123 23.5842 394.239 23.5842 383.316L23.5842 361.192L21.666 361.192L21.666 383.316C21.666 393.176 13.6823 401.196 3.86767 401.196C-5.94484 401.196 -13.9307 393.176 -13.9307 383.316L-13.9307 361.192L-15.8489 361.192L-15.8489 383.316C-15.8468 394.236 -7.00294 403.123 3.86767 403.123Z" fill="url(#paint46_linear_744_2358)"/>
<path d="M3.86764 398.625C12.2708 398.625 19.1069 391.758 19.1069 383.316L19.1069 361.192L17.1887 361.192L17.1887 383.316C17.1887 390.695 11.2126 396.698 3.86764 396.698C-3.47737 396.698 -9.45344 390.695 -9.45344 383.316L-9.45344 361.192L-11.3717 361.192L-11.3717 383.316C-11.3717 391.758 -4.53548 398.625 3.86764 398.625Z" fill="url(#paint47_linear_744_2358)"/>
<path d="M3.86766 394.129C9.80329 394.129 14.6318 389.279 14.6318 383.316L14.6318 361.192L12.7136 361.192L12.7136 383.316C12.7136 388.216 8.74518 392.202 3.86766 392.202C-1.00985 392.202 -4.97829 388.216 -4.97829 383.316L-4.97829 361.192L-6.89651 361.192L-6.89651 383.316C-6.89438 389.279 -2.06583 394.129 3.86766 394.129Z" fill="url(#paint48_linear_744_2358)"/>
<path d="M28.0359 485.061L31.8404 485.061C33.7629 485.061 34.8019 485.061 35.3895 485.004L35.3895 485.061C40.5012 485.061 44.6612 480.882 44.6612 475.747L44.6612 449.293C44.6612 444.155 40.5012 439.978 35.3895 439.978C30.2778 439.978 26.1177 444.155 26.1177 449.293L26.1177 507.865C26.1177 513 30.2778 517.179 35.3895 517.179L76.8047 517.179L76.8047 515.252L35.3895 515.252C31.3337 515.252 28.0359 511.937 28.0359 507.865L28.0359 449.293C28.0359 445.218 31.3338 441.905 35.3895 441.905C39.4452 441.905 42.743 445.218 42.743 449.293L42.743 475.747C42.743 479.819 39.4452 483.134 35.3895 483.134L34.7465 483.134C33.0029 483.134 28.0359 483.134 28.0359 483.134" fill="url(#paint49_linear_744_2358)"/>
<path d="M23.5608 507.865L23.5608 449.293C23.5608 442.74 28.8684 437.41 35.3895 437.41C41.9106 437.41 47.2181 442.742 47.2181 449.293L47.2181 475.747C47.2181 482.3 41.9106 487.63 35.3895 487.63L34.7465 487.63C33.0029 487.63 28.2914 487.63 28.2914 487.63L28.0359 487.63L28.0359 489.557L31.8404 489.557C33.7629 489.557 34.8019 489.557 35.3895 489.499L35.3895 489.557C42.9708 489.557 49.1363 483.361 49.1363 475.747L49.1364 449.293C49.1364 441.677 42.9687 435.483 35.3895 435.483C27.8103 435.483 21.6426 441.679 21.6426 449.293L21.6426 507.865C21.6426 515.479 27.8103 521.675 35.3895 521.675L76.8047 521.675L76.8047 519.748L35.3895 519.748C28.8662 519.75 23.5608 514.418 23.5608 507.865Z" fill="url(#paint50_linear_744_2358)"/>
<path d="M19.0835 507.865L19.0835 449.292C19.0835 440.26 26.3988 432.912 35.3895 432.912C44.3802 432.912 51.6954 440.26 51.6954 449.292L51.6954 475.747C51.6954 484.779 44.3802 492.128 35.3895 492.128L34.7465 492.128C32.9816 492.128 28.1679 492.128 28.1679 492.128L28.0359 492.128L28.0359 494.055L31.7787 494.055C33.7395 494.055 34.7955 494.055 35.3895 493.997L35.3895 494.055C45.4383 494.055 53.6136 485.842 53.6136 475.747L53.6136 449.292C53.6136 439.197 45.4383 430.985 35.3895 430.985C25.3406 430.985 17.1653 439.197 17.1653 449.292L17.1653 507.865C17.1653 517.96 25.3406 526.173 35.3895 526.173L76.8047 526.173L76.8047 524.246L35.3895 524.246C26.3988 524.246 19.0835 516.897 19.0835 507.865Z" fill="url(#paint51_linear_744_2358)"/>
<path d="M14.6084 507.865L14.6084 449.293C14.6084 437.782 23.9313 428.416 35.3895 428.416C46.8477 428.416 56.1705 437.782 56.1705 449.293L56.1705 475.747C56.1705 487.258 46.8477 496.624 35.3895 496.624L34.7465 496.624C32.9837 496.624 28.1828 496.624 28.1828 496.624L28.0359 496.621L28.0359 498.538L31.7787 498.551C33.7395 498.551 34.7955 498.551 35.3895 498.491L35.3895 498.551C47.9058 498.551 58.0887 488.321 58.0887 475.747L58.0887 449.293C58.0887 436.719 47.9058 426.489 35.3895 426.489C22.8731 426.489 12.6902 436.719 12.6902 449.293L12.6902 507.865C12.6902 520.439 22.8731 530.669 35.3895 530.669L76.8047 530.669L76.8047 528.741L35.3895 528.741C23.9313 528.744 14.6084 519.378 14.6084 507.865Z" fill="url(#paint52_linear_744_2358)"/>
<path d="M10.1311 507.865L10.1311 449.293C10.1311 435.301 21.4616 423.918 35.3895 423.918C49.3173 423.918 60.6478 435.303 60.6478 449.293L60.6478 475.747C60.6478 489.737 49.3173 501.121 35.3895 501.121L34.7465 501.121C32.9816 501.121 28.1679 501.121 28.1679 501.121L28.0359 501.121L28.0359 503.048L31.7787 503.048C33.7395 503.048 34.7955 503.048 35.3895 502.989L35.3895 503.048C50.3733 503.048 62.566 490.8 62.566 475.747L62.566 449.293C62.566 434.238 50.3754 421.991 35.3895 421.991C20.4035 421.991 8.21294 434.238 8.21294 449.293L8.21293 507.865C8.21293 522.918 20.4035 535.166 35.3895 535.166L76.8047 535.166L76.8047 533.239L35.3895 533.239C21.4616 533.239 10.1311 521.857 10.1311 507.865Z" fill="url(#paint53_linear_744_2358)"/>
<path d="M5.65602 507.865L5.65602 449.293C5.65602 432.822 18.9941 419.423 35.3895 419.423C51.7848 419.423 65.1229 432.822 65.1229 449.293L65.1229 475.747C65.1229 492.218 51.7848 505.617 35.3895 505.617L34.7465 505.617C32.9347 505.617 28.0359 505.6 28.0359 505.6L28.0359 507.527L34.2143 507.544C34.7401 507.544 35.1148 507.544 35.3895 507.525L35.3895 507.544C52.8429 507.544 67.0411 493.281 67.0411 475.747L67.0411 449.293C67.0411 431.759 52.8429 417.496 35.3895 417.496C17.936 417.496 3.7378 431.761 3.7378 449.293L3.7378 507.865C3.7378 525.399 17.936 539.662 35.3895 539.662L76.8047 539.662L76.8047 537.735L35.3895 537.735C18.9941 537.735 5.65602 524.336 5.65602 507.865Z" fill="url(#paint54_linear_744_2358)"/>
<path d="M-4.45443 660.381C-4.45443 665.516 -0.293844 669.695 4.81852 669.695C9.93089 669.695 14.0915 665.516 14.0915 660.381L14.0915 581.249C14.0915 564.777 27.4313 551.377 43.8288 551.377C60.2262 551.377 73.5661 564.777 73.5661 581.249L73.5661 584.84L73.5661 602.565C73.5661 605.386 74.8266 607.912 76.8047 609.623L76.8047 606.776C75.9743 605.58 75.4845 604.13 75.4845 602.565L75.4845 584.84L75.4845 581.249C75.4845 563.714 61.2845 549.45 43.8288 549.45C26.3731 549.45 12.173 563.714 12.173 581.249L12.173 660.381C12.173 664.453 8.87477 667.768 4.81852 667.768C0.762271 667.768 -2.53595 664.453 -2.53595 660.381L-2.53595 580.072C-3.15983 580.528 -3.79861 580.96 -4.45442 581.368L-4.45443 660.381Z" fill="url(#paint55_linear_744_2358)"/>
<path d="M-8.78825 660.237C-8.78825 667.852 -2.62998 674.048 4.93765 674.048C12.5074 674.048 18.6636 667.852 18.6636 660.237L18.6636 581.105C18.6636 567.113 29.9768 555.73 43.8833 555.73C57.7899 555.73 69.1031 567.113 69.1031 581.105L69.1031 584.697L69.1031 602.421C69.1031 607.861 72.2513 612.562 76.8047 614.812L76.8047 612.624C73.3461 610.549 71.0184 606.759 71.0184 602.421L71.0184 584.697L71.0184 581.105C71.0184 566.05 58.8464 553.803 43.8833 553.803C28.9224 553.803 16.7483 566.05 16.7483 581.105L16.7483 660.237C16.7483 666.791 11.4488 672.121 4.93766 672.121C-1.57561 672.121 -6.87296 666.789 -6.87296 660.237L-6.87296 582.656C-7.50005 582.971 -8.13777 583.268 -8.78825 583.542L-8.78825 660.237Z" fill="url(#paint56_linear_744_2358)"/>
<path d="M-13.6638 660.092C-13.6638 670.188 -5.46422 678.401 4.6144 678.401C14.693 678.401 22.8926 670.188 22.8926 660.092L22.8926 580.962C22.8926 569.451 32.2431 560.085 43.7353 560.085C55.2275 560.085 64.5779 569.451 64.5779 580.962L64.5779 584.553L64.5779 602.278C64.5779 610.249 69.692 617.042 76.8047 619.549L76.8047 617.489C70.7746 615.074 66.5019 609.167 66.5019 602.275L66.5019 584.551L66.5019 580.96C66.5019 568.386 56.2887 558.156 43.7353 558.156C31.1818 558.156 20.9687 568.386 20.9687 580.96L20.9687 660.09C20.9687 669.123 13.6318 676.472 4.6144 676.472C-4.40298 676.472 -11.7399 669.123 -11.7399 660.09L-11.7399 584.339C-12.3741 584.542 -13.0146 584.724 -13.6638 584.885L-13.6638 660.092Z" fill="url(#paint57_linear_744_2358)"/>
<path d="M-17.9976 660.493C-17.9976 673.067 -7.80108 683.298 4.73192 683.298C17.2649 683.298 27.4614 673.067 27.4614 660.493L27.4614 581.361C27.4614 572.329 34.7864 564.979 43.7891 564.979C52.7918 564.979 60.1168 572.329 60.1168 581.361L60.1168 584.952L60.1168 602.677C60.1168 613.153 67.1965 621.995 76.8047 624.658L76.8047 622.654C68.2689 620.051 62.0375 612.082 62.0375 602.677L62.0375 584.952L62.0375 581.361C62.0375 571.266 53.8513 563.052 43.7891 563.052C33.7269 563.052 25.5407 571.266 25.5407 581.361L25.5407 660.493C25.5407 672.004 16.2054 681.371 4.73192 681.371C-6.74157 681.371 -16.0768 672.004 -16.0768 660.493L-16.0768 585.816C-16.7121 585.919 -17.3517 586.011 -17.9976 586.075L-17.9976 660.493Z" fill="url(#paint58_linear_744_2358)"/>
<path d="M36.5412 660.202L36.5412 581.07C36.5412 576.996 39.834 573.683 43.8835 573.683C47.933 573.683 51.2258 576.996 51.2258 581.07L51.2258 584.662L51.2258 602.387C51.2258 617.846 62.2519 630.761 76.8047 633.599L76.8047 631.64C63.3127 628.832 53.1411 616.783 53.1411 602.389L53.1411 584.664L53.1411 581.073C53.1411 575.935 48.9874 571.758 43.8835 571.758C38.7796 571.758 34.6259 575.935 34.6259 581.073L34.6259 660.205C34.6259 676.676 21.3082 690.076 4.93799 690.076C-11.4323 690.076 -24.75 676.676 -24.75 660.205L-24.75 585.949L-26.6652 585.949L-26.6652 600.725L-26.6652 602.652L-26.6652 660.205C-26.6652 677.739 -12.4888 692.003 4.93799 692.003C22.3647 692.003 36.5412 677.737 36.5412 660.202Z" fill="url(#paint59_linear_744_2358)"/>
<path d="M-22.3314 586.092L-22.3314 660.348C-22.3314 675.401 -10.143 687.65 4.84037 687.65C19.8216 687.65 32.0122 675.401 32.0122 660.348L32.0122 581.216C32.0122 574.662 37.3167 569.332 43.8388 569.332C50.3609 569.332 55.6654 574.662 55.6654 581.216L55.6654 584.807L55.6654 602.532C55.6654 615.502 64.7163 626.382 76.8047 629.148L76.8047 627.169C65.7848 624.445 57.5833 614.435 57.5833 602.532L57.5833 584.807L57.5833 581.216C57.5833 573.599 51.4167 567.405 43.8388 567.405C36.2588 567.405 30.0943 573.601 30.0943 581.216L30.0943 660.348C30.0943 674.338 18.7658 685.723 4.84037 685.723C-9.08505 685.723 -20.4136 674.34 -20.4136 660.348L-20.4136 586.075C-20.6264 586.08 -20.8393 586.092 -21.0521 586.092L-22.3314 586.092Z" fill="url(#paint60_linear_744_2358)"/>
</g>
<rect x="94.0002" y="594" width="93.7351" height="124.7" transform="rotate(-180 94.0002 594)" fill="url(#paint61_linear_744_2358)"/>
<defs>
<linearGradient id="paint0_linear_744_2358" x1="59.4684" y1="-7.30465e-07" x2="59.4684" y2="66.6766" gradientUnits="userSpaceOnUse">
<stop stop-color="#2E3192"/>
<stop offset="1" stop-color="#2484C6"/>
</linearGradient>
<linearGradient id="paint1_linear_744_2358" x1="61.7064" y1="-6.32637e-07" x2="61.7064" y2="62.18" gradientUnits="userSpaceOnUse">
<stop stop-color="#2E3192"/>
<stop offset="1" stop-color="#2484C6"/>
</linearGradient>
<linearGradient id="paint2_linear_744_2358" x1="63.9444" y1="-5.34812e-07" x2="63.9444" y2="57.6834" gradientUnits="userSpaceOnUse">
<stop stop-color="#2E3192"/>
<stop offset="1" stop-color="#2484C6"/>
</linearGradient>
<linearGradient id="paint3_linear_744_2358" x1="66.1824" y1="-4.36985e-07" x2="66.1824" y2="53.1868" gradientUnits="userSpaceOnUse">
<stop stop-color="#2E3192"/>
<stop offset="1" stop-color="#2484C6"/>
</linearGradient>
<linearGradient id="paint4_linear_744_2358" x1="68.4204" y1="-3.39159e-07" x2="68.4204" y2="48.6903" gradientUnits="userSpaceOnUse">
<stop stop-color="#2E3192"/>
<stop offset="1" stop-color="#2484C6"/>
</linearGradient>
<linearGradient id="paint5_linear_744_2358" x1="70.6584" y1="-2.41332e-07" x2="70.6584" y2="44.1936" gradientUnits="userSpaceOnUse">
<stop stop-color="#2E3192"/>
<stop offset="1" stop-color="#2484C6"/>
</linearGradient>
<linearGradient id="paint6_linear_744_2358" x1="-1.63356" y1="339.626" x2="-1.63356" y2="374.285" gradientUnits="userSpaceOnUse">
<stop stop-color="#2E3192"/>
<stop offset="1" stop-color="#2484C6"/>
</linearGradient>
<linearGradient id="paint7_linear_744_2358" x1="0.604362" y1="344.123" x2="0.604361" y2="374.285" gradientUnits="userSpaceOnUse">
<stop stop-color="#2E3192"/>
<stop offset="1" stop-color="#2484C6"/>
</linearGradient>
<linearGradient id="paint8_linear_744_2358" x1="2.8424" y1="348.62" x2="2.8424" y2="374.285" gradientUnits="userSpaceOnUse">
<stop stop-color="#2E3192"/>
<stop offset="1" stop-color="#2484C6"/>
</linearGradient>
<linearGradient id="paint9_linear_744_2358" x1="5.08043" y1="353.116" x2="5.08043" y2="374.285" gradientUnits="userSpaceOnUse">
<stop stop-color="#2E3192"/>
<stop offset="1" stop-color="#2484C6"/>
</linearGradient>
<linearGradient id="paint10_linear_744_2358" x1="7.31858" y1="357.613" x2="7.31858" y2="374.285" gradientUnits="userSpaceOnUse">
<stop stop-color="#2E3192"/>
<stop offset="1" stop-color="#2484C6"/>
</linearGradient>
<linearGradient id="paint11_linear_744_2358" x1="9.55662" y1="362.11" x2="9.55662" y2="374.285" gradientUnits="userSpaceOnUse">
<stop stop-color="#2E3192"/>
<stop offset="1" stop-color="#2484C6"/>
</linearGradient>
<linearGradient id="paint12_linear_744_2358" x1="3.24312" y1="-1.44874e-06" x2="3.24312" y2="55.4201" gradientUnits="userSpaceOnUse">
<stop stop-color="#2E3192"/>
<stop offset="1" stop-color="#2484C6"/>
</linearGradient>
<linearGradient id="paint13_linear_744_2358" x1="3.2434" y1="-1.25312e-06" x2="3.24339" y2="50.9234" gradientUnits="userSpaceOnUse">
<stop stop-color="#2E3192"/>
<stop offset="1" stop-color="#2484C6"/>
</linearGradient>
<linearGradient id="paint14_linear_744_2358" x1="3.2433" y1="-1.05741e-06" x2="3.24329" y2="46.4269" gradientUnits="userSpaceOnUse">
<stop stop-color="#2E3192"/>
<stop offset="1" stop-color="#2484C6"/>
</linearGradient>
<linearGradient id="paint15_linear_744_2358" x1="3.24341" y1="-8.61795e-07" x2="3.2434" y2="41.9304" gradientUnits="userSpaceOnUse">
<stop stop-color="#2E3192"/>
<stop offset="1" stop-color="#2484C6"/>
</linearGradient>
<linearGradient id="paint16_linear_744_2358" x1="3.24331" y1="-6.66091e-07" x2="3.24331" y2="37.4337" gradientUnits="userSpaceOnUse">
<stop stop-color="#2E3192"/>
<stop offset="1" stop-color="#2484C6"/>
</linearGradient>
<linearGradient id="paint17_linear_744_2358" x1="3.24334" y1="-4.70477e-07" x2="3.24333" y2="32.9372" gradientUnits="userSpaceOnUse">
<stop stop-color="#2E3192"/>
<stop offset="1" stop-color="#2484C6"/>
</linearGradient>
<linearGradient id="paint18_linear_744_2358" x1="42.1311" y1="296.85" x2="42.1311" y2="374.285" gradientUnits="userSpaceOnUse">
<stop stop-color="#2E3192"/>
<stop offset="1" stop-color="#2484C6"/>
</linearGradient>
<linearGradient id="paint19_linear_744_2358" x1="44.5443" y1="292.353" x2="44.5443" y2="374.285" gradientUnits="userSpaceOnUse">
<stop stop-color="#2E3192"/>
<stop offset="1" stop-color="#2484C6"/>
</linearGradient>
<linearGradient id="paint20_linear_744_2358" x1="47.0421" y1="287.857" x2="47.0421" y2="374.285" gradientUnits="userSpaceOnUse">
<stop stop-color="#2E3192"/>
<stop offset="1" stop-color="#2484C6"/>
</linearGradient>
<linearGradient id="paint21_linear_744_2358" x1="49.73" y1="283.36" x2="49.73" y2="374.285" gradientUnits="userSpaceOnUse">
<stop stop-color="#2E3192"/>
<stop offset="1" stop-color="#2484C6"/>
</linearGradient>
<linearGradient id="paint22_linear_744_2358" x1="53.0785" y1="278.864" x2="53.0785" y2="374.285" gradientUnits="userSpaceOnUse">
<stop stop-color="#2E3192"/>
<stop offset="1" stop-color="#2484C6"/>
</linearGradient>
<linearGradient id="paint23_linear_744_2358" x1="56.0198" y1="274.367" x2="56.0198" y2="373.4" gradientUnits="userSpaceOnUse">
<stop stop-color="#2E3192"/>
<stop offset="1" stop-color="#2484C6"/>
</linearGradient>
<linearGradient id="paint24_linear_744_2358" x1="50.8361" y1="78.7869" x2="50.836" y2="155.988" gradientUnits="userSpaceOnUse">
<stop stop-color="#2E3192"/>
<stop offset="1" stop-color="#2484C6"/>
</linearGradient>
<linearGradient id="paint25_linear_744_2358" x1="48.598" y1="74.2904" x2="48.598" y2="160.485" gradientUnits="userSpaceOnUse">
<stop stop-color="#2E3192"/>
<stop offset="1" stop-color="#2484C6"/>
</linearGradient>
<linearGradient id="paint26_linear_744_2358" x1="46.36" y1="69.7938" x2="46.36" y2="164.981" gradientUnits="userSpaceOnUse">
<stop stop-color="#2E3192"/>
<stop offset="1" stop-color="#2484C6"/>
</linearGradient>
<linearGradient id="paint27_linear_744_2358" x1="44.122" y1="65.2971" x2="44.122" y2="169.478" gradientUnits="userSpaceOnUse">
<stop stop-color="#2E3192"/>
<stop offset="1" stop-color="#2484C6"/>
</linearGradient>
<linearGradient id="paint28_linear_744_2358" x1="41.884" y1="60.8005" x2="41.884" y2="173.974" gradientUnits="userSpaceOnUse">
<stop stop-color="#2E3192"/>
<stop offset="1" stop-color="#2484C6"/>
</linearGradient>
<linearGradient id="paint29_linear_744_2358" x1="39.646" y1="56.3041" x2="39.646" y2="178.471" gradientUnits="userSpaceOnUse">
<stop stop-color="#2E3192"/>
<stop offset="1" stop-color="#2484C6"/>
</linearGradient>
<linearGradient id="paint30_linear_744_2358" x1="35.5498" y1="188.258" x2="35.5498" y2="308.504" gradientUnits="userSpaceOnUse">
<stop stop-color="#2E3192"/>
<stop offset="1" stop-color="#2484C6"/>
</linearGradient>
<linearGradient id="paint31_linear_744_2358" x1="33.3825" y1="192.612" x2="33.3825" y2="312.858" gradientUnits="userSpaceOnUse">
<stop stop-color="#2E3192"/>
<stop offset="1" stop-color="#2484C6"/>
</linearGradient>
<linearGradient id="paint32_linear_744_2358" x1="30.9453" y1="196.966" x2="30.9453" y2="317.209" gradientUnits="userSpaceOnUse">
<stop stop-color="#2E3192"/>
<stop offset="1" stop-color="#2484C6"/>
</linearGradient>
<linearGradient id="paint33_linear_744_2358" x1="28.778" y1="201.861" x2="28.778" y2="322.107" gradientUnits="userSpaceOnUse">
<stop stop-color="#2E3192"/>
<stop offset="1" stop-color="#2484C6"/>
</linearGradient>
<linearGradient id="paint34_linear_744_2358" x1="24.4443" y1="210.564" x2="24.4443" y2="330.81" gradientUnits="userSpaceOnUse">
<stop stop-color="#2E3192"/>
<stop offset="1" stop-color="#2484C6"/>
</linearGradient>
<linearGradient id="paint35_linear_744_2358" x1="26.6117" y1="206.213" x2="26.6117" y2="326.458" gradientUnits="userSpaceOnUse">
<stop stop-color="#2E3192"/>
<stop offset="1" stop-color="#2484C6"/>
</linearGradient>
<linearGradient id="paint36_linear_744_2358" x1="52.1317" y1="0" x2="52.1317" y2="105.608" gradientUnits="userSpaceOnUse">
<stop/>
<stop offset="1" stop-opacity="0"/>
</linearGradient>
<linearGradient id="paint37_linear_744_2358" x1="60.0936" y1="361.192" x2="60.0936" y2="427.869" gradientUnits="userSpaceOnUse">
<stop stop-color="#2E3192"/>
<stop offset="1" stop-color="#2484C6"/>
</linearGradient>
<linearGradient id="paint38_linear_744_2358" x1="62.3316" y1="361.192" x2="62.3316" y2="423.372" gradientUnits="userSpaceOnUse">
<stop stop-color="#2E3192"/>
<stop offset="1" stop-color="#2484C6"/>
</linearGradient>
<linearGradient id="paint39_linear_744_2358" x1="64.5696" y1="361.192" x2="64.5696" y2="418.876" gradientUnits="userSpaceOnUse">
<stop stop-color="#2E3192"/>
<stop offset="1" stop-color="#2484C6"/>
</linearGradient>
<linearGradient id="paint40_linear_744_2358" x1="66.8076" y1="361.192" x2="66.8076" y2="414.379" gradientUnits="userSpaceOnUse">
<stop stop-color="#2E3192"/>
<stop offset="1" stop-color="#2484C6"/>
</linearGradient>
<linearGradient id="paint41_linear_744_2358" x1="69.0456" y1="361.192" x2="69.0456" y2="409.883" gradientUnits="userSpaceOnUse">
<stop stop-color="#2E3192"/>
<stop offset="1" stop-color="#2484C6"/>
</linearGradient>
<linearGradient id="paint42_linear_744_2358" x1="71.2837" y1="361.192" x2="71.2837" y2="405.386" gradientUnits="userSpaceOnUse">
<stop stop-color="#2E3192"/>
<stop offset="1" stop-color="#2484C6"/>
</linearGradient>
<linearGradient id="paint43_linear_744_2358" x1="3.86837" y1="361.192" x2="3.86837" y2="416.612" gradientUnits="userSpaceOnUse">
<stop stop-color="#2E3192"/>
<stop offset="1" stop-color="#2484C6"/>
</linearGradient>
<linearGradient id="paint44_linear_744_2358" x1="3.86864" y1="361.192" x2="3.86864" y2="412.116" gradientUnits="userSpaceOnUse">
<stop stop-color="#2E3192"/>
<stop offset="1" stop-color="#2484C6"/>
</linearGradient>
<linearGradient id="paint45_linear_744_2358" x1="3.86854" y1="361.192" x2="3.86854" y2="407.619" gradientUnits="userSpaceOnUse">
<stop stop-color="#2E3192"/>
<stop offset="1" stop-color="#2484C6"/>
</linearGradient>
<linearGradient id="paint46_linear_744_2358" x1="3.86865" y1="361.192" x2="3.86865" y2="403.123" gradientUnits="userSpaceOnUse">
<stop stop-color="#2E3192"/>
<stop offset="1" stop-color="#2484C6"/>
</linearGradient>
<linearGradient id="paint47_linear_744_2358" x1="3.86855" y1="361.192" x2="3.86855" y2="398.626" gradientUnits="userSpaceOnUse">
<stop stop-color="#2E3192"/>
<stop offset="1" stop-color="#2484C6"/>
</linearGradient>
<linearGradient id="paint48_linear_744_2358" x1="3.86858" y1="361.192" x2="3.86858" y2="394.13" gradientUnits="userSpaceOnUse">
<stop stop-color="#2E3192"/>
<stop offset="1" stop-color="#2484C6"/>
</linearGradient>
<linearGradient id="paint49_linear_744_2358" x1="51.4613" y1="439.979" x2="51.4613" y2="517.18" gradientUnits="userSpaceOnUse">
<stop stop-color="#2E3192"/>
<stop offset="1" stop-color="#2484C6"/>
</linearGradient>
<linearGradient id="paint50_linear_744_2358" x1="49.2233" y1="435.483" x2="49.2233" y2="521.677" gradientUnits="userSpaceOnUse">
<stop stop-color="#2E3192"/>
<stop offset="1" stop-color="#2484C6"/>
</linearGradient>
<linearGradient id="paint51_linear_744_2358" x1="46.9853" y1="430.986" x2="46.9853" y2="526.173" gradientUnits="userSpaceOnUse">
<stop stop-color="#2E3192"/>
<stop offset="1" stop-color="#2484C6"/>
</linearGradient>
<linearGradient id="paint52_linear_744_2358" x1="44.7473" y1="426.489" x2="44.7472" y2="530.67" gradientUnits="userSpaceOnUse">
<stop stop-color="#2E3192"/>
<stop offset="1" stop-color="#2484C6"/>
</linearGradient>
<linearGradient id="paint53_linear_744_2358" x1="42.5093" y1="421.993" x2="42.5093" y2="535.167" gradientUnits="userSpaceOnUse">
<stop stop-color="#2E3192"/>
<stop offset="1" stop-color="#2484C6"/>
</linearGradient>
<linearGradient id="paint54_linear_744_2358" x1="40.2712" y1="417.496" x2="40.2712" y2="539.663" gradientUnits="userSpaceOnUse">
<stop stop-color="#2E3192"/>
<stop offset="1" stop-color="#2484C6"/>
</linearGradient>
<linearGradient id="paint55_linear_744_2358" x1="36.1751" y1="549.451" x2="36.1751" y2="669.696" gradientUnits="userSpaceOnUse">
<stop stop-color="#2E3192"/>
<stop offset="1" stop-color="#2484C6"/>
</linearGradient>
<linearGradient id="paint56_linear_744_2358" x1="34.0077" y1="553.804" x2="34.0077" y2="674.05" gradientUnits="userSpaceOnUse">
<stop stop-color="#2E3192"/>
<stop offset="1" stop-color="#2484C6"/>
</linearGradient>
<linearGradient id="paint57_linear_744_2358" x1="31.5706" y1="558.158" x2="31.5706" y2="678.402" gradientUnits="userSpaceOnUse">
<stop stop-color="#2E3192"/>
<stop offset="1" stop-color="#2484C6"/>
</linearGradient>
<linearGradient id="paint58_linear_744_2358" x1="29.4032" y1="563.054" x2="29.4032" y2="683.299" gradientUnits="userSpaceOnUse">
<stop stop-color="#2E3192"/>
<stop offset="1" stop-color="#2484C6"/>
</linearGradient>
<linearGradient id="paint59_linear_744_2358" x1="25.0696" y1="571.757" x2="25.0696" y2="692.002" gradientUnits="userSpaceOnUse">
<stop stop-color="#2E3192"/>
<stop offset="1" stop-color="#2484C6"/>
</linearGradient>
<linearGradient id="paint60_linear_744_2358" x1="27.2369" y1="567.405" x2="27.2369" y2="687.651" gradientUnits="userSpaceOnUse">
<stop stop-color="#2E3192"/>
<stop offset="1" stop-color="#2484C6"/>
</linearGradient>
<linearGradient id="paint61_linear_744_2358" x1="140.868" y1="594" x2="140.868" y2="718.7" gradientUnits="userSpaceOnUse">
<stop/>
<stop offset="1" stop-opacity="0"/>
</linearGradient>
<clipPath id="clip0_744_2358">
<rect width="374.316" height="61.8652" fill="white" transform="translate(72.1284) rotate(90)"/>
</clipPath>
<clipPath id="clip1_744_2358">
<rect width="227.464" height="61.8652" fill="white" transform="translate(72.7537 361.192) rotate(90)"/>
</clipPath>
</defs>
</svg>
