<svg width="1270" height="958" viewBox="0 0 1270 958" fill="none" xmlns="http://www.w3.org/2000/svg">
<g clip-path="url(#clip0_906_2)">
<path d="M124.523 1088.04L124.523 489L-216.169 489L-216.169 1088.04L124.523 1088.04Z" fill="#020101"/>
<path d="M121.689 595.699L124.523 595.699L124.523 592.615L121.689 592.615C95.4519 592.615 74.1075 571.173 74.1075 544.815L74.1075 489L71.0379 489L71.0379 544.815C71.0379 572.874 93.7621 595.699 121.689 595.699Z" fill="url(#paint0_linear_906_2)"/>
<path d="M121.689 588.505L124.523 588.505L124.523 585.421L121.689 585.421C99.4005 585.421 81.2689 567.206 81.2689 544.815L81.2689 489L78.1992 489L78.1992 544.815C78.2026 568.907 97.7107 588.505 121.689 588.505Z" fill="url(#paint1_linear_906_2)"/>
<path d="M121.689 581.307L124.523 581.307L124.523 578.223L121.689 578.223C103.353 578.223 88.4336 563.236 88.4336 544.815L88.4336 489L85.364 489L85.364 544.815C85.364 564.937 101.659 581.307 121.689 581.307Z" fill="url(#paint2_linear_906_2)"/>
<path d="M121.689 574.113L124.523 574.113L124.523 571.029L121.689 571.029C107.301 571.029 95.595 559.269 95.595 544.815L95.595 489L92.5253 489L92.5253 544.815C92.5287 560.97 105.611 574.113 121.689 574.113Z" fill="url(#paint3_linear_906_2)"/>
<path d="M121.689 566.918L124.523 566.918L124.523 563.835L121.689 563.835C111.25 563.835 102.76 555.302 102.76 544.819L102.76 489L99.6901 489L99.6901 544.815C99.6901 557.003 109.56 566.918 121.689 566.918Z" fill="url(#paint4_linear_906_2)"/>
<path d="M121.689 559.721L124.523 559.721L124.523 556.637L121.689 556.637C115.198 556.637 109.921 551.332 109.921 544.815L109.921 489L106.851 489L106.851 544.815C106.851 553.033 113.509 559.721 121.689 559.721Z" fill="url(#paint5_linear_906_2)"/>
<path d="M7.80538 577.686C37.0504 577.686 60.8444 553.783 60.8444 524.403L60.8444 489L57.7747 489L57.7747 524.403C57.7747 552.082 35.3572 574.602 7.80538 574.602C-19.7464 574.602 -42.164 552.082 -42.164 524.403L-42.164 489L-45.2336 489L-45.2336 524.403C-45.2336 553.783 -21.4396 577.686 7.80538 577.686Z" fill="url(#paint6_linear_906_2)"/>
<path d="M7.80535 570.492C33.1018 570.492 53.683 549.816 53.683 524.403L53.683 489L50.6133 489L50.6133 524.403C50.6133 548.115 31.4119 567.408 7.80535 567.408C-15.7978 567.408 -34.9992 548.118 -34.9992 524.403L-34.9992 489L-38.0689 489L-38.0689 524.403C-38.0689 549.816 -17.4911 570.492 7.80535 570.492Z" fill="url(#paint7_linear_906_2)"/>
<path d="M7.80537 563.294C29.1532 563.294 46.5182 545.849 46.5182 524.403L46.5182 489L43.4486 489L43.4486 524.403C43.4486 544.148 27.4599 560.21 7.80537 560.21C-11.8492 560.21 -27.8379 544.148 -27.8379 524.403L-27.8379 489L-30.9075 489L-30.9075 524.403C-30.9075 545.849 -13.539 563.294 7.80537 563.294Z" fill="url(#paint8_linear_906_2)"/>
<path d="M7.80537 556.1C25.2011 556.1 39.3569 541.882 39.3569 524.403L39.3569 489L36.2872 489L36.2872 524.403C36.2872 540.181 23.5113 553.016 7.80537 553.016C-7.89714 553.016 -20.6765 540.181 -20.6765 524.403L-20.6765 489L-23.7461 489L-23.7461 524.403C-23.7427 541.879 -9.59038 556.1 7.80537 556.1Z" fill="url(#paint9_linear_906_2)"/>
<path d="M7.80539 548.902C21.2525 548.902 32.1921 537.912 32.1921 524.403L32.1921 489L29.1225 489L29.1225 524.403C29.1225 536.211 19.5593 545.818 7.80539 545.818C-3.94849 545.818 -13.5117 536.211 -13.5117 524.403L-13.5117 489L-16.5814 489L-16.5814 524.403C-16.5814 537.912 -5.64173 548.902 7.80539 548.902Z" fill="url(#paint10_linear_906_2)"/>
<path d="M7.80535 541.708C17.3039 541.708 25.0308 533.945 25.0308 524.403L25.0308 489L21.9611 489L21.9611 524.403C21.9611 532.244 15.6106 538.624 7.80535 538.624C8.55689e-05 538.624 -6.35043 532.244 -6.35043 524.403L-6.35043 489L-9.42006 489L-9.42006 524.403C-9.41665 533.945 -1.68975 541.708 7.80535 541.708Z" fill="url(#paint11_linear_906_2)"/>
<path d="M91.5441 1071.64L91.5441 978.942C91.5441 962.787 78.4615 949.645 62.3809 949.645L60.0028 949.645L60.0028 952.728L62.3809 952.728C76.7683 952.728 88.4745 964.488 88.4745 978.942L88.4745 1071.65C88.4745 1077.51 89.8645 1083.04 92.3175 1087.95L95.7925 1087.95C93.0908 1083.13 91.5441 1077.56 91.5441 1071.64Z" fill="url(#paint12_linear_906_2)"/>
<path d="M98.7055 1071.64L98.7055 978.942C98.7055 958.821 82.4102 942.45 62.3809 942.45L60.0029 942.45L60.0029 945.534L62.3809 945.534C80.717 945.534 95.6359 960.522 95.6359 978.942L95.6359 1071.65C95.6359 1077.68 97.462 1083.29 100.583 1087.95L104.392 1087.95C100.838 1083.47 98.7055 1077.81 98.7055 1071.64Z" fill="url(#paint13_linear_906_2)"/>
<path d="M105.87 1071.64L105.87 978.942C105.87 954.854 86.3623 935.253 62.3809 935.253L60.0029 935.253L60.0029 938.336L62.3809 938.336C84.669 938.336 102.801 956.551 102.801 978.942L102.801 1071.65C102.801 1078.1 105.591 1083.91 110.003 1087.95L115.11 1087.95C109.587 1084.62 105.87 1078.57 105.87 1071.64Z" fill="url(#paint14_linear_906_2)"/>
<path d="M113.032 1071.64L113.032 978.942C113.032 950.884 90.3108 928.058 62.3809 928.058L60.0028 928.058L60.0028 931.142L62.3809 931.142C88.6176 931.142 109.962 952.585 109.962 978.942L109.962 1071.65C109.962 1079.77 116.469 1086.39 124.523 1086.54L124.523 1083.45C118.162 1083.3 113.032 1078.07 113.032 1071.64Z" fill="url(#paint15_linear_906_2)"/>
<path d="M46.4808 687.222L52.569 687.222C55.6455 687.222 57.308 687.222 58.2484 687.129L58.2484 687.222C66.4284 687.222 73.0855 680.534 73.0855 672.317L73.0855 629.983C73.0855 621.762 66.4284 615.077 58.2484 615.077C50.0683 615.077 43.4112 621.762 43.4112 629.983L43.4112 723.713C43.4112 731.931 50.0683 738.619 58.2484 738.619L124.523 738.619L124.523 735.535L58.2484 735.535C51.7582 735.535 46.4808 730.23 46.4808 723.713L46.4808 629.983C46.4808 623.463 51.7582 618.161 58.2484 618.161C64.7385 618.161 70.0159 623.463 70.0159 629.983L70.0159 672.317C70.0159 678.833 64.7385 684.138 58.2484 684.138L57.2195 684.138C54.4292 684.138 46.4808 684.138 46.4808 684.138" fill="url(#paint16_linear_906_2)"/>
<path d="M39.3195 723.714L39.3195 629.983C39.3195 619.496 47.8129 610.967 58.2484 610.967C68.6838 610.967 77.1772 619.5 77.1772 629.983L77.1772 672.317C77.1772 682.804 68.6838 691.333 58.2483 691.333L57.2195 691.333C54.4292 691.333 46.8897 691.333 46.8897 691.333L46.4808 691.333L46.4808 694.416L52.569 694.416C55.6455 694.416 57.308 694.416 58.2483 694.324L58.2483 694.416C70.3804 694.416 80.2468 684.501 80.2468 672.317L80.2468 629.983C80.2468 617.795 70.377 607.883 58.2484 607.883C46.1197 607.883 36.2498 617.799 36.2498 629.983L36.2498 723.714C36.2498 735.898 46.1197 745.813 58.2483 745.813L124.523 745.813L124.523 742.729L58.2483 742.729C47.8095 742.733 39.3195 734.2 39.3195 723.714Z" fill="url(#paint17_linear_906_2)"/>
<path d="M32.1547 723.714L32.1547 629.983C32.1547 615.529 43.8609 603.769 58.2484 603.769C72.6358 603.769 84.342 615.529 84.342 629.983L84.342 672.317C84.342 686.77 72.6358 698.53 58.2484 698.53L57.2195 698.53C54.3951 698.53 46.6921 698.53 46.6921 698.53L46.4808 698.53L46.4808 701.614L52.4702 701.614C55.608 701.614 57.2978 701.614 58.2484 701.522L58.2484 701.614C74.329 701.614 87.4116 688.471 87.4116 672.317L87.4116 629.983C87.4116 613.828 74.329 600.686 58.2484 600.686C42.1677 600.686 29.0851 613.828 29.0851 629.983L29.0851 723.714C29.0851 739.868 42.1677 753.011 58.2484 753.011L124.523 753.011L124.523 749.927L58.2484 749.927C43.8609 749.927 32.1547 738.167 32.1547 723.714Z" fill="url(#paint18_linear_906_2)"/>
<path d="M24.9934 723.713L24.9934 629.983C24.9934 611.562 39.9123 596.575 58.2484 596.575C76.5844 596.575 91.5033 611.562 91.5033 629.983L91.5033 672.317C91.5033 690.737 76.5844 705.724 58.2484 705.724L57.2195 705.724C54.3985 705.724 46.7159 705.724 46.7159 705.724L46.4808 705.721L46.4808 708.788L52.4702 708.808C55.608 708.808 57.2978 708.808 58.2484 708.712L58.2484 708.808C78.2777 708.808 94.573 692.438 94.573 672.317L94.573 629.983C94.573 609.861 78.2777 593.491 58.2484 593.491C38.2191 593.491 21.9238 609.861 21.9238 629.983L21.9237 723.713C21.9237 743.835 38.2191 760.205 58.2484 760.205L124.523 760.205L124.523 757.121L58.2484 757.121C39.9123 757.125 24.9934 742.137 24.9934 723.713Z" fill="url(#paint19_linear_906_2)"/>
<path d="M17.8286 723.713L17.8286 629.983C17.8286 607.592 35.9603 589.377 58.2484 589.377C80.5364 589.377 98.6681 607.596 98.6681 629.983L98.6681 672.316C98.6681 694.704 80.5364 712.922 58.2483 712.922L57.2195 712.922C54.3951 712.922 46.6921 712.922 46.6921 712.922L46.4808 712.922L46.4808 716.006L52.4702 716.006C55.608 716.006 57.2978 716.006 58.2483 715.91L58.2483 716.006C82.2263 716.006 101.738 696.405 101.738 672.316L101.738 629.983C101.738 605.891 82.2297 586.293 58.2484 586.293C34.267 586.293 14.759 605.891 14.759 629.983L14.759 723.713C14.759 747.801 34.267 767.402 58.2483 767.402L124.523 767.402L124.523 764.319L58.2483 764.319C35.9603 764.319 17.8286 746.104 17.8286 723.713Z" fill="url(#paint20_linear_906_2)"/>
<path d="M10.6673 723.713L10.6673 629.983C10.6673 603.626 32.0116 582.183 58.2484 582.183C84.4851 582.183 105.829 603.626 105.829 629.983L105.829 672.317C105.829 698.674 84.4851 720.116 58.2483 720.116L57.2195 720.116C54.3202 720.116 46.4808 720.089 46.4808 720.089L46.4808 723.173L56.3677 723.2C57.2092 723.2 57.8089 723.2 58.2483 723.169L58.2483 723.2C86.1783 723.2 108.899 700.375 108.899 672.317L108.899 629.983C108.899 601.925 86.1783 579.099 58.2484 579.099C30.3184 579.099 7.59762 601.928 7.59762 629.983L7.59762 723.713C7.59762 751.772 30.3184 774.597 58.2483 774.597L124.523 774.597L124.523 771.513L58.2483 771.513C32.0116 771.513 10.6673 750.071 10.6673 723.713Z" fill="url(#paint21_linear_906_2)"/>
<path d="M-5.51202 967.777C-5.51202 975.995 1.14598 982.683 9.32706 982.683C17.5081 982.683 24.1661 975.995 24.1661 967.777L24.1661 841.146C24.1661 814.787 45.5133 793.344 71.7534 793.344C97.9935 793.344 119.341 814.787 119.341 841.146L119.341 846.892L119.341 875.257C119.341 879.771 121.358 883.814 124.523 886.552L124.523 881.996C123.194 880.083 122.411 877.762 122.411 875.257L122.411 846.892L122.411 841.146C122.411 813.086 99.687 790.26 71.7534 790.26C43.8198 790.26 21.0961 813.086 21.0961 841.146L21.0961 967.777C21.0961 974.294 15.8181 979.599 9.32706 979.599C2.83604 979.599 -2.44198 974.294 -2.44198 967.777L-2.44197 839.263C-3.44033 839.992 -4.46254 840.684 -5.51201 841.337L-5.51202 967.777Z" fill="url(#paint22_linear_906_2)"/>
<path d="M-12.4473 967.548C-12.4473 979.733 -2.59249 989.649 9.51765 989.649C21.6312 989.649 31.4826 979.733 31.4826 967.548L31.4826 840.917C31.4826 818.525 49.5866 800.309 71.8407 800.309C94.0947 800.309 112.199 818.525 112.199 840.917L112.199 846.663L112.199 875.028C112.199 883.732 117.237 891.255 124.523 894.856L124.523 891.354C118.989 888.034 115.264 881.969 115.264 875.028L115.264 846.663L115.264 840.917C115.264 816.824 95.7854 797.225 71.8407 797.225C47.8993 797.225 28.4176 816.824 28.4176 840.917L28.4176 967.548C28.4176 978.035 19.9371 986.565 9.51765 986.565C-0.905236 986.565 -9.38235 978.032 -9.38235 967.548L-9.38234 843.398C-10.3859 843.901 -11.4064 844.377 -12.4473 844.815L-12.4473 967.548Z" fill="url(#paint23_linear_906_2)"/>
<path d="M-20.2494 967.316C-20.2494 983.471 -7.12801 996.614 9.00035 996.614C25.1287 996.614 38.2501 983.471 38.2501 967.316L38.2501 840.687C38.2501 822.266 53.2133 807.278 71.6037 807.278C89.9941 807.278 104.957 822.266 104.957 840.687L104.957 846.434L104.957 874.797C104.957 887.554 113.141 898.424 124.523 902.436L124.523 899.14C114.873 895.275 108.036 885.822 108.036 874.794L108.036 846.43L108.036 840.684C108.036 820.562 91.6924 804.191 71.6037 804.191C51.515 804.191 35.1714 820.562 35.1714 840.684L35.1713 967.313C35.1713 981.767 23.4304 993.527 9.00035 993.527C-5.42974 993.527 -17.1707 981.767 -17.1707 967.313L-17.1707 846.091C-18.1855 846.417 -19.2106 846.707 -20.2494 846.964L-20.2494 967.316Z" fill="url(#paint24_linear_906_2)"/>
<path d="M-27.1846 967.957C-27.1846 988.079 -10.8676 1004.45 9.18841 1004.45C29.2444 1004.45 45.5614 988.079 45.5614 967.957L45.5614 841.326C45.5614 826.872 57.2832 815.111 71.6898 815.111C86.0964 815.111 97.8182 826.872 97.8182 841.326L97.8182 847.073L97.8182 875.437C97.8182 892.201 109.148 906.351 124.523 910.612L124.523 907.405C110.864 903.24 100.892 890.487 100.892 875.437L100.892 847.073L100.892 841.326C100.892 825.17 87.7919 812.027 71.6898 812.027C55.5877 812.027 42.4877 825.17 42.4877 841.326L42.4877 967.957C42.4877 986.378 27.5489 1001.37 9.18841 1001.37C-9.17208 1001.37 -24.1109 986.378 -24.1109 967.957L-24.1109 848.455C-25.1275 848.62 -26.1509 848.767 -27.1846 848.87L-27.1846 967.957Z" fill="url(#paint25_linear_906_2)"/>
<path d="M60.0914 967.492L60.0914 840.861C60.0914 834.341 65.3606 829.039 71.8409 829.039C78.3212 829.039 83.5904 834.341 83.5904 840.861L83.5904 846.608L83.5904 874.972C83.5904 899.712 101.235 920.378 124.523 924.92L124.523 921.785C102.933 917.291 86.6553 898.01 86.6553 874.975L86.6553 846.611L86.6553 840.864C86.6553 832.643 80.0084 825.958 71.8409 825.958C63.6734 825.958 57.0265 832.643 57.0265 840.864L57.0265 967.495C57.0265 993.854 35.7147 1015.3 9.51819 1015.3C-16.6784 1015.3 -37.9901 993.854 -37.9901 967.495L-37.9901 848.668L-41.055 848.668L-41.055 872.312L-41.055 875.396L-41.055 967.495C-41.055 995.555 -18.369 1018.38 9.51819 1018.38C37.4054 1018.38 60.0914 995.552 60.0914 967.492Z" fill="url(#paint26_linear_906_2)"/>
<path d="M-34.1198 848.897L-34.1198 967.725C-34.1198 991.814 -14.6152 1011.42 9.36198 1011.42C33.3357 1011.42 52.8438 991.814 52.8438 967.725L52.8438 841.093C52.8438 830.606 61.3323 822.077 71.7693 822.077C82.2063 822.077 90.6949 830.606 90.6949 841.093L90.6949 846.84L90.6949 875.204C90.6949 895.96 105.179 913.371 124.523 917.797L124.523 914.631C106.889 910.27 93.764 894.252 93.764 875.204L93.764 846.84L93.764 841.093C93.764 828.905 83.8959 818.993 71.7693 818.993C59.6394 818.993 49.7747 828.908 49.7747 841.093L49.7747 967.725C49.7747 990.113 31.6462 1008.33 9.36198 1008.33C-12.9222 1008.33 -31.0507 990.116 -31.0507 967.725L-31.0507 848.87C-31.3913 848.877 -31.732 848.897 -32.0726 848.897L-34.1198 848.897Z" fill="url(#paint27_linear_906_2)"/>
</g>
<rect x="150" y="957.551" width="150" height="199.551" transform="rotate(-180 150 957.551)" fill="url(#paint28_linear_906_2)"/>
<g clip-path="url(#clip1_906_2)">
<path d="M1241.48 599.037L1241.48 0L900.79 -1.48921e-05L900.79 599.037L1241.48 599.037Z" fill="#020101"/>
<path d="M1238.65 106.699L1241.48 106.699L1241.48 103.615L1238.65 103.615C1212.41 103.615 1191.07 82.1727 1191.07 55.8154L1191.07 -2.20374e-06L1188 -2.33792e-06L1188 55.8154C1188 83.8737 1210.72 106.699 1238.65 106.699Z" fill="url(#paint29_linear_906_2)"/>
<path d="M1238.65 99.5046L1241.48 99.5046L1241.48 96.4209L1238.65 96.4209C1216.36 96.4209 1198.23 78.2059 1198.23 55.8154L1198.23 -1.89071e-06L1195.16 -2.02488e-06L1195.16 55.8154C1195.16 79.9069 1214.67 99.5046 1238.65 99.5046Z" fill="url(#paint30_linear_906_2)"/>
<path d="M1238.65 92.3069L1241.48 92.3069L1241.48 89.2232L1238.65 89.2232C1220.31 89.2232 1205.39 74.2357 1205.39 55.8154L1205.39 -1.57752e-06L1202.32 -1.7117e-06L1202.32 55.8154C1202.32 75.9367 1218.62 92.3069 1238.65 92.3069Z" fill="url(#paint31_linear_906_2)"/>
<path d="M1238.65 85.1126L1241.48 85.1126L1241.48 82.0289L1238.65 82.0289C1224.26 82.0289 1212.55 70.2689 1212.55 55.8154L1212.55 -1.26449e-06L1209.48 -1.39867e-06L1209.48 55.8154C1209.49 71.9699 1222.57 85.1126 1238.65 85.1126Z" fill="url(#paint32_linear_906_2)"/>
<path d="M1238.65 77.9184L1241.48 77.9184L1241.48 74.8346L1238.65 74.8346C1228.21 74.8346 1219.72 66.3021 1219.72 55.8188L1219.72 -9.51309e-07L1216.65 -1.08549e-06L1216.65 55.8154C1216.65 68.0032 1226.52 77.9184 1238.65 77.9184Z" fill="url(#paint33_linear_906_2)"/>
<path d="M1238.65 70.7207L1241.48 70.7207L1241.48 67.637L1238.65 67.637C1232.16 67.637 1226.88 62.332 1226.88 55.8154L1226.88 -6.38277e-07L1223.81 -7.72455e-07L1223.81 55.8154C1223.81 64.033 1230.47 70.7207 1238.65 70.7207Z" fill="url(#paint34_linear_906_2)"/>
<path d="M1045.88 594.372C1045.88 568.014 1067.23 546.572 1093.46 546.572L1191.11 546.572L1191.11 543.488L1093.46 543.488C1065.53 543.488 1042.81 566.313 1042.81 594.372C1042.81 595.915 1042.89 597.442 1043.03 598.951L1046.1 598.951C1045.96 597.445 1045.88 595.915 1045.88 594.372Z" fill="url(#paint35_linear_906_2)"/>
<path d="M1053.05 594.372C1053.05 571.981 1071.18 553.766 1093.47 553.766L1191.11 553.766L1191.11 550.682L1093.46 550.682C1069.48 550.682 1049.97 570.28 1049.97 594.372C1049.97 595.919 1050.06 597.445 1050.21 598.951L1053.3 598.951C1053.14 597.445 1053.05 595.922 1053.05 594.372Z" fill="url(#paint36_linear_906_2)"/>
<path d="M1060.21 594.371C1060.21 575.951 1075.13 560.964 1093.46 560.964L1191.11 560.964L1191.11 557.88L1093.46 557.88C1073.43 557.88 1057.14 574.25 1057.14 594.371C1057.14 595.922 1057.25 597.448 1057.43 598.951L1060.53 598.951C1060.32 597.452 1060.21 595.925 1060.21 594.371Z" fill="url(#paint37_linear_906_2)"/>
<path d="M1067.37 594.372C1067.37 579.918 1079.08 568.158 1093.47 568.158L1191.11 568.158L1191.11 565.074L1093.46 565.074C1077.38 565.074 1064.3 578.217 1064.3 594.372C1064.3 595.929 1064.42 597.459 1064.66 598.951L1067.78 598.951C1067.51 597.462 1067.37 595.936 1067.37 594.372Z" fill="url(#paint38_linear_906_2)"/>
<path d="M1074.53 594.372C1074.53 583.885 1083.03 575.356 1093.46 575.356L1191.11 575.356L1191.11 572.272L1093.46 572.272C1081.33 572.272 1071.46 582.187 1071.46 594.372C1071.46 595.942 1071.63 597.472 1071.94 598.951L1075.11 598.951C1074.75 597.483 1074.53 595.953 1074.53 594.372Z" fill="url(#paint39_linear_906_2)"/>
<path d="M1081.7 594.371C1081.7 587.851 1086.98 582.55 1093.47 582.55L1191.11 582.55L1191.11 579.466L1093.46 579.466C1085.28 579.466 1078.62 586.15 1078.62 594.371C1078.62 595.97 1078.88 597.507 1079.35 598.951L1082.61 598.951C1082.02 597.541 1081.7 595.994 1081.7 594.371Z" fill="url(#paint40_linear_906_2)"/>
<path d="M1124.76 88.6858C1154.01 88.6858 1177.8 64.7825 1177.8 35.4031L1177.8 0L1174.73 -1.34178e-07L1174.73 35.4031C1174.73 63.0815 1152.32 85.6021 1124.76 85.6021C1097.21 85.6021 1074.8 63.0815 1074.8 35.4031L1074.8 -4.50264e-06L1071.73 -4.63681e-06L1071.73 35.4031C1071.73 64.7825 1095.52 88.6858 1124.76 88.6858Z" fill="url(#paint41_linear_906_2)"/>
<path d="M1124.76 81.4916C1150.06 81.4916 1170.64 60.8158 1170.64 35.4031L1170.64 0L1167.57 -1.34178e-07L1167.57 35.4031C1167.57 59.1148 1148.37 78.4078 1124.76 78.4078C1101.16 78.4078 1081.96 59.1182 1081.96 35.4031L1081.96 -3.87642e-06L1078.89 -4.0106e-06L1078.89 35.4031C1078.89 60.8158 1099.47 81.4916 1124.76 81.4916Z" fill="url(#paint42_linear_906_2)"/>
<path d="M1124.76 74.2939C1146.11 74.2939 1163.48 56.849 1163.48 35.4031L1163.48 0L1160.41 -1.34178e-07L1160.41 35.4031C1160.41 55.148 1144.42 71.2101 1124.76 71.2101C1105.11 71.2101 1089.12 55.148 1089.12 35.4031L1089.12 -3.25021e-06L1086.05 -3.38439e-06L1086.05 35.4031C1086.05 56.849 1103.42 74.2939 1124.76 74.2939Z" fill="url(#paint43_linear_906_2)"/>
<path d="M1124.76 67.0996C1142.16 67.0996 1156.32 52.8822 1156.32 35.4031L1156.32 0L1153.25 -1.34178e-07L1153.25 35.4031C1153.25 51.1812 1140.47 64.0159 1124.76 64.0159C1109.06 64.0159 1096.28 51.1812 1096.28 35.4031L1096.28 -2.62414e-06L1093.21 -2.75832e-06L1093.21 35.4031C1093.22 52.8788 1107.37 67.0996 1124.76 67.0996Z" fill="url(#paint44_linear_906_2)"/>
<path d="M1124.76 59.9019C1138.21 59.9019 1149.15 48.912 1149.15 35.4031L1149.15 0L1146.08 -1.34178e-07L1146.08 35.4031C1146.08 47.211 1136.52 56.8182 1124.76 56.8182C1113.01 56.8182 1103.45 47.211 1103.45 35.4031L1103.45 -1.99778e-06L1100.38 -2.13196e-06L1100.38 35.4031C1100.38 48.912 1111.32 59.9019 1124.76 59.9019Z" fill="url(#paint45_linear_906_2)"/>
<path d="M1124.76 52.7077C1134.26 52.7077 1141.99 44.9453 1141.99 35.4031L1141.99 0L1138.92 -1.34178e-07L1138.92 35.4031C1138.92 43.2443 1132.57 49.6239 1124.76 49.6239C1116.96 49.6239 1110.61 43.2443 1110.61 35.4031L1110.61 -1.37172e-06L1107.54 -1.50589e-06L1107.54 35.4031C1107.54 44.9453 1115.27 52.7077 1124.76 52.7077Z" fill="url(#paint46_linear_906_2)"/>
<path d="M1194.18 582.642L1194.18 489.942C1194.18 481.724 1187.52 475.036 1179.34 475.036L1176.96 475.036L1176.96 478.12L1179.34 478.12C1185.83 478.12 1191.11 483.425 1191.11 489.942L1191.11 582.646C1191.11 588.351 1192.06 593.831 1193.79 598.954L1197.03 598.954C1195.19 593.858 1194.18 588.368 1194.18 582.642Z" fill="url(#paint47_linear_906_2)"/>
<path d="M1201.34 582.642L1201.34 489.942C1201.34 477.757 1191.47 467.842 1179.34 467.842L1176.96 467.842L1176.96 470.926L1179.34 470.926C1189.78 470.926 1198.27 479.455 1198.27 489.942L1198.27 582.646C1198.27 588.409 1199.4 593.909 1201.42 598.954L1204.75 598.954C1202.57 593.957 1201.34 588.444 1201.34 582.642Z" fill="url(#paint48_linear_906_2)"/>
<path d="M1208.5 582.642L1208.5 489.942C1208.5 473.787 1195.42 460.645 1179.34 460.645L1176.96 460.645L1176.96 463.728L1179.34 463.728C1193.73 463.728 1205.43 475.488 1205.43 489.942L1205.43 582.646C1205.43 588.505 1206.82 594.043 1209.28 598.954L1212.75 598.954C1210.05 594.125 1208.5 588.563 1208.5 582.642Z" fill="url(#paint49_linear_906_2)"/>
<path d="M1215.66 582.642L1215.66 489.942C1215.66 469.821 1199.37 453.45 1179.34 453.45L1176.96 453.45L1176.96 456.534L1179.34 456.534C1197.68 456.534 1212.6 471.522 1212.6 489.942L1212.6 582.646C1212.6 588.68 1214.42 594.289 1217.54 598.954L1221.35 598.954C1217.8 594.471 1215.66 588.806 1215.66 582.642Z" fill="url(#paint50_linear_906_2)"/>
<path d="M1222.83 582.642L1222.83 489.942C1222.83 465.854 1203.32 446.253 1179.34 446.253L1176.96 446.253L1176.96 449.336L1179.34 449.336C1201.63 449.336 1219.76 467.551 1219.76 489.942L1219.76 582.646C1219.76 589.104 1222.55 594.909 1226.96 598.954L1232.07 598.954C1226.55 595.624 1222.83 589.57 1222.83 582.642Z" fill="url(#paint51_linear_906_2)"/>
<path d="M1229.99 582.642L1229.99 489.942C1229.99 461.884 1207.27 439.058 1179.34 439.058L1176.96 439.058L1176.96 442.142L1179.34 442.142C1205.58 442.142 1226.92 463.585 1226.92 489.942L1226.92 582.646C1226.92 590.771 1233.43 597.387 1241.48 597.537L1241.48 594.454C1235.12 594.303 1229.99 589.07 1229.99 582.642Z" fill="url(#paint52_linear_906_2)"/>
<path d="M1163.44 198.222L1169.53 198.222C1172.6 198.222 1174.27 198.222 1175.21 198.129L1175.21 198.222C1183.39 198.222 1190.04 191.534 1190.04 183.317L1190.04 140.983C1190.04 132.762 1183.39 126.077 1175.21 126.077C1167.03 126.077 1160.37 132.762 1160.37 140.983L1160.37 234.713C1160.37 242.931 1167.03 249.619 1175.21 249.619L1241.48 249.619L1241.48 246.535L1175.21 246.535C1168.72 246.535 1163.44 241.23 1163.44 234.713L1163.44 140.983C1163.44 134.463 1168.72 129.161 1175.21 129.161C1181.7 129.161 1186.98 134.463 1186.98 140.983L1186.98 183.317C1186.98 189.833 1181.7 195.138 1175.21 195.138L1174.18 195.138C1171.39 195.138 1163.44 195.138 1163.44 195.138" fill="url(#paint53_linear_906_2)"/>
<path d="M1156.28 234.714L1156.28 140.983C1156.28 130.496 1164.77 121.967 1175.21 121.967C1185.64 121.967 1194.14 130.5 1194.14 140.983L1194.14 183.317C1194.14 193.804 1185.64 202.333 1175.21 202.333L1174.18 202.333C1171.39 202.333 1163.85 202.333 1163.85 202.333L1163.44 202.333L1163.44 205.416L1169.53 205.416C1172.6 205.416 1174.27 205.416 1175.21 205.324L1175.21 205.416C1187.34 205.416 1197.21 195.501 1197.21 183.317L1197.21 140.983C1197.21 128.795 1187.34 118.883 1175.21 118.883C1163.08 118.883 1153.21 128.799 1153.21 140.983L1153.21 234.714C1153.21 246.898 1163.08 256.813 1175.21 256.813L1241.48 256.813L1241.48 253.729L1175.21 253.729C1164.77 253.733 1156.28 245.2 1156.28 234.714Z" fill="url(#paint54_linear_906_2)"/>
<path d="M1149.11 234.714L1149.11 140.983C1149.11 126.529 1160.82 114.769 1175.21 114.769C1189.6 114.769 1201.3 126.529 1201.3 140.983L1201.3 183.317C1201.3 197.77 1189.6 209.53 1175.21 209.53L1174.18 209.53C1171.35 209.53 1163.65 209.53 1163.65 209.53L1163.44 209.53L1163.44 212.614L1169.43 212.614C1172.57 212.614 1174.26 212.614 1175.21 212.522L1175.21 212.614C1191.29 212.614 1204.37 199.471 1204.37 183.317L1204.37 140.983C1204.37 124.828 1191.29 111.686 1175.21 111.686C1159.13 111.686 1146.04 124.828 1146.04 140.983L1146.04 234.714C1146.04 250.868 1159.13 264.011 1175.21 264.011L1241.48 264.011L1241.48 260.927L1175.21 260.927C1160.82 260.927 1149.11 249.167 1149.11 234.714Z" fill="url(#paint55_linear_906_2)"/>
<path d="M1141.95 234.713L1141.95 140.983C1141.95 122.562 1156.87 107.575 1175.21 107.575C1193.54 107.575 1208.46 122.562 1208.46 140.983L1208.46 183.317C1208.46 201.737 1193.54 216.724 1175.21 216.724L1174.18 216.724C1171.36 216.724 1163.68 216.724 1163.68 216.724L1163.44 216.721L1163.44 219.788L1169.43 219.808C1172.57 219.808 1174.26 219.808 1175.21 219.712L1175.21 219.808C1195.24 219.808 1211.53 203.438 1211.53 183.317L1211.53 140.983C1211.53 120.861 1195.24 104.491 1175.21 104.491C1155.18 104.491 1138.88 120.861 1138.88 140.983L1138.88 234.713C1138.88 254.835 1155.18 271.205 1175.21 271.205L1241.48 271.205L1241.48 268.121L1175.21 268.121C1156.87 268.125 1141.95 253.137 1141.95 234.713Z" fill="url(#paint56_linear_906_2)"/>
<path d="M1134.79 234.713L1134.79 140.983C1134.79 118.592 1152.92 100.377 1175.21 100.377C1197.5 100.377 1215.63 118.596 1215.63 140.983L1215.63 183.316C1215.63 205.704 1197.5 223.922 1175.21 223.922L1174.18 223.922C1171.35 223.922 1163.65 223.922 1163.65 223.922L1163.44 223.922L1163.44 227.006L1169.43 227.006C1172.57 227.006 1174.26 227.006 1175.21 226.91L1175.21 227.006C1199.19 227.006 1218.7 207.405 1218.7 183.316L1218.7 140.983C1218.7 116.891 1199.19 97.2935 1175.21 97.2935C1151.23 97.2935 1131.72 116.891 1131.72 140.983L1131.72 234.713C1131.72 258.801 1151.23 278.402 1175.21 278.402L1241.48 278.402L1241.48 275.319L1175.21 275.319C1152.92 275.319 1134.79 257.104 1134.79 234.713Z" fill="url(#paint57_linear_906_2)"/>
<path d="M1127.63 234.713L1127.63 140.983C1127.63 114.626 1148.97 93.1831 1175.21 93.1831C1201.44 93.1831 1222.79 114.626 1222.79 140.983L1222.79 183.317C1222.79 209.674 1201.44 231.116 1175.21 231.116L1174.18 231.116C1171.28 231.116 1163.44 231.089 1163.44 231.089L1163.44 234.173L1173.33 234.2C1174.17 234.2 1174.77 234.2 1175.21 234.169L1175.21 234.2C1203.14 234.2 1225.86 211.375 1225.86 183.317L1225.86 140.983C1225.86 112.925 1203.14 90.0994 1175.21 90.0994C1147.28 90.0994 1124.56 112.928 1124.56 140.983L1124.56 234.713C1124.56 262.772 1147.28 285.597 1175.21 285.597L1241.48 285.597L1241.48 282.513L1175.21 282.513C1148.97 282.513 1127.63 261.071 1127.63 234.713Z" fill="url(#paint58_linear_906_2)"/>
<path d="M1111.45 478.777C1111.45 486.995 1118.11 493.683 1126.29 493.683C1134.47 493.683 1141.13 486.995 1141.13 478.777L1141.13 352.146C1141.13 325.787 1162.47 304.344 1188.71 304.344C1214.95 304.344 1236.3 325.787 1236.3 352.146L1236.3 357.892L1236.3 386.257C1236.3 390.771 1238.32 394.814 1241.48 397.552L1241.48 392.996C1240.15 391.083 1239.37 388.762 1239.37 386.257L1239.37 357.892L1239.37 352.146C1239.37 324.086 1216.65 301.26 1188.71 301.26C1160.78 301.26 1138.06 324.086 1138.06 352.146L1138.06 478.777C1138.06 485.294 1132.78 490.599 1126.29 490.599C1119.8 490.599 1114.52 485.294 1114.52 478.777L1114.52 350.263C1113.52 350.992 1112.5 351.684 1111.45 352.337L1111.45 478.777Z" fill="url(#paint59_linear_906_2)"/>
<path d="M1104.51 478.548C1104.51 490.733 1114.37 500.649 1126.48 500.649C1138.59 500.649 1148.44 490.733 1148.44 478.548L1148.44 351.917C1148.44 329.525 1166.55 311.309 1188.8 311.309C1211.05 311.309 1229.16 329.525 1229.16 351.917L1229.16 357.663L1229.16 386.028C1229.16 394.732 1234.2 402.255 1241.48 405.856L1241.48 402.354C1235.95 399.034 1232.22 392.969 1232.22 386.028L1232.22 357.663L1232.22 351.917C1232.22 327.824 1212.74 308.225 1188.8 308.225C1164.86 308.225 1145.38 327.824 1145.38 351.917L1145.38 478.548C1145.38 489.035 1136.9 497.565 1126.48 497.565C1116.05 497.565 1107.58 489.032 1107.58 478.548L1107.58 354.398C1106.57 354.901 1105.55 355.377 1104.51 355.815L1104.51 478.548Z" fill="url(#paint60_linear_906_2)"/>
<path d="M1096.71 478.316C1096.71 494.471 1109.83 507.614 1125.96 507.614C1142.09 507.614 1155.21 494.471 1155.21 478.316L1155.21 351.687C1155.21 333.266 1170.17 318.278 1188.56 318.278C1206.95 318.278 1221.92 333.266 1221.92 351.687L1221.92 357.434L1221.92 385.797C1221.92 398.554 1230.1 409.424 1241.48 413.436L1241.48 410.14C1231.83 406.275 1225 396.822 1225 385.794L1225 357.43L1225 351.684C1225 331.562 1208.65 315.191 1188.56 315.191C1168.47 315.191 1152.13 331.562 1152.13 351.684L1152.13 478.313C1152.13 492.767 1140.39 504.527 1125.96 504.527C1111.53 504.527 1099.79 492.767 1099.79 478.313L1099.79 357.091C1098.77 357.417 1097.75 357.707 1096.71 357.964L1096.71 478.316Z" fill="url(#paint61_linear_906_2)"/>
<path d="M1089.77 478.957C1089.77 499.079 1106.09 515.45 1126.15 515.45C1146.2 515.45 1162.52 499.079 1162.52 478.957L1162.52 352.326C1162.52 337.872 1174.24 326.111 1188.65 326.111C1203.06 326.111 1214.78 337.872 1214.78 352.326L1214.78 358.073L1214.78 386.437C1214.78 403.201 1226.11 417.351 1241.48 421.612L1241.48 418.405C1227.82 414.24 1217.85 401.487 1217.85 386.437L1217.85 358.073L1217.85 352.326C1217.85 336.17 1204.75 323.027 1188.65 323.027C1172.55 323.027 1159.45 336.17 1159.45 352.326L1159.45 478.957C1159.45 497.378 1144.51 512.366 1126.15 512.366C1107.79 512.366 1092.85 497.378 1092.85 478.957L1092.85 359.455C1091.83 359.62 1090.81 359.767 1089.77 359.87L1089.77 478.957Z" fill="url(#paint62_linear_906_2)"/>
<path d="M1177.05 478.492L1177.05 351.861C1177.05 345.341 1182.32 340.039 1188.8 340.039C1195.28 340.039 1200.55 345.341 1200.55 351.861L1200.55 357.608L1200.55 385.972C1200.55 410.712 1218.19 431.378 1241.48 435.92L1241.48 432.785C1219.89 428.291 1203.61 409.01 1203.61 385.975L1203.61 357.611L1203.61 351.864C1203.61 343.643 1196.97 336.958 1188.8 336.958C1180.63 336.958 1173.99 343.643 1173.99 351.864L1173.99 478.495C1173.99 504.854 1152.67 526.298 1126.48 526.298C1100.28 526.298 1078.97 504.854 1078.97 478.495L1078.97 359.668L1075.9 359.668L1075.9 383.312L1075.9 386.396L1075.9 478.495C1075.9 506.555 1098.59 529.381 1126.48 529.381C1154.36 529.381 1177.05 506.552 1177.05 478.492Z" fill="url(#paint63_linear_906_2)"/>
<path d="M1082.84 359.897L1082.84 478.725C1082.84 502.814 1102.34 522.416 1126.32 522.416C1150.3 522.416 1169.8 502.814 1169.8 478.725L1169.8 352.093C1169.8 341.606 1178.29 333.077 1188.73 333.077C1199.17 333.077 1207.65 341.606 1207.65 352.093L1207.65 357.84L1207.65 386.204C1207.65 406.96 1222.14 424.371 1241.48 428.797L1241.48 425.631C1223.85 421.27 1210.72 405.252 1210.72 386.204L1210.72 357.84L1210.72 352.093C1210.72 339.905 1200.86 329.993 1188.73 329.993C1176.6 329.993 1166.73 339.908 1166.73 352.093L1166.73 478.725C1166.73 501.113 1148.61 519.332 1126.32 519.332C1104.04 519.332 1085.91 501.116 1085.91 478.725L1085.91 359.87C1085.57 359.877 1085.23 359.897 1084.89 359.897L1082.84 359.897Z" fill="url(#paint64_linear_906_2)"/>
<rect x="1128" width="150" height="169" fill="url(#paint65_linear_906_2)"/>
</g>
<g clip-path="url(#clip2_906_2)">
<path d="M1242.48 1177.04L1242.48 578L901.79 578L901.79 1177.04L1242.48 1177.04Z" fill="#020101"/>
<path d="M1239.65 684.699L1242.48 684.699L1242.48 681.615L1239.65 681.615C1213.41 681.615 1192.07 660.173 1192.07 633.815L1192.07 578L1189 578L1189 633.815C1189 661.874 1211.72 684.699 1239.65 684.699Z" fill="url(#paint66_linear_906_2)"/>
<path d="M1239.65 677.505L1242.48 677.505L1242.48 674.421L1239.65 674.421C1217.36 674.421 1199.23 656.206 1199.23 633.815L1199.23 578L1196.16 578L1196.16 633.815C1196.16 657.907 1215.67 677.505 1239.65 677.505Z" fill="url(#paint67_linear_906_2)"/>
<path d="M1239.65 670.307L1242.48 670.307L1242.48 667.223L1239.65 667.223C1221.31 667.223 1206.39 652.236 1206.39 633.815L1206.39 578L1203.32 578L1203.32 633.815C1203.32 653.937 1219.62 670.307 1239.65 670.307Z" fill="url(#paint68_linear_906_2)"/>
<path d="M1239.65 663.113L1242.48 663.113L1242.48 660.029L1239.65 660.029C1225.26 660.029 1213.55 648.269 1213.55 633.815L1213.55 578L1210.48 578L1210.48 633.815C1210.49 649.97 1223.57 663.113 1239.65 663.113Z" fill="url(#paint69_linear_906_2)"/>
<path d="M1239.65 655.918L1242.48 655.918L1242.48 652.835L1239.65 652.835C1229.21 652.835 1220.72 644.302 1220.72 633.819L1220.72 578L1217.65 578L1217.65 633.815C1217.65 646.003 1227.52 655.918 1239.65 655.918Z" fill="url(#paint70_linear_906_2)"/>
<path d="M1239.65 648.721L1242.48 648.721L1242.48 645.637L1239.65 645.637C1233.16 645.637 1227.88 640.332 1227.88 633.815L1227.88 578L1224.81 578L1224.81 633.815C1224.81 642.033 1231.47 648.721 1239.65 648.721Z" fill="url(#paint71_linear_906_2)"/>
<path d="M1125.76 666.686C1155.01 666.686 1178.8 642.783 1178.8 613.403L1178.8 578L1175.73 578L1175.73 613.403C1175.73 641.082 1153.32 663.602 1125.76 663.602C1098.21 663.602 1075.8 641.082 1075.8 613.403L1075.8 578L1072.73 578L1072.73 613.403C1072.73 642.783 1096.52 666.686 1125.76 666.686Z" fill="url(#paint72_linear_906_2)"/>
<path d="M1125.76 659.492C1151.06 659.492 1171.64 638.816 1171.64 613.403L1171.64 578L1168.57 578L1168.57 613.403C1168.57 637.115 1149.37 656.408 1125.76 656.408C1102.16 656.408 1082.96 637.118 1082.96 613.403L1082.96 578L1079.89 578L1079.89 613.403C1079.89 638.816 1100.47 659.492 1125.76 659.492Z" fill="url(#paint73_linear_906_2)"/>
<path d="M1125.76 652.294C1147.11 652.294 1164.48 634.849 1164.48 613.403L1164.48 578L1161.41 578L1161.41 613.403C1161.41 633.148 1145.42 649.21 1125.76 649.21C1106.11 649.21 1090.12 633.148 1090.12 613.403L1090.12 578L1087.05 578L1087.05 613.403C1087.05 634.849 1104.42 652.294 1125.76 652.294Z" fill="url(#paint74_linear_906_2)"/>
<path d="M1125.76 645.1C1143.16 645.1 1157.32 630.882 1157.32 613.403L1157.32 578L1154.25 578L1154.25 613.403C1154.25 629.181 1141.47 642.016 1125.76 642.016C1110.06 642.016 1097.28 629.181 1097.28 613.403L1097.28 578L1094.21 578L1094.21 613.403C1094.22 630.879 1108.37 645.1 1125.76 645.1Z" fill="url(#paint75_linear_906_2)"/>
<path d="M1125.76 637.902C1139.21 637.902 1150.15 626.912 1150.15 613.403L1150.15 578L1147.08 578L1147.08 613.403C1147.08 625.211 1137.52 634.818 1125.76 634.818C1114.01 634.818 1104.45 625.211 1104.45 613.403L1104.45 578L1101.38 578L1101.38 613.403C1101.38 626.912 1112.32 637.902 1125.76 637.902Z" fill="url(#paint76_linear_906_2)"/>
<path d="M1125.76 630.708C1135.26 630.708 1142.99 622.945 1142.99 613.403L1142.99 578L1139.92 578L1139.92 613.403C1139.92 621.244 1133.57 627.624 1125.76 627.624C1117.96 627.624 1111.61 621.244 1111.61 613.403L1111.61 578L1108.54 578L1108.54 613.403C1108.54 622.945 1116.27 630.708 1125.76 630.708Z" fill="url(#paint77_linear_906_2)"/>
<path d="M1164.44 776.222L1170.53 776.222C1173.6 776.222 1175.27 776.222 1176.21 776.129L1176.21 776.222C1184.39 776.222 1191.04 769.534 1191.04 761.317L1191.04 718.983C1191.04 710.762 1184.39 704.077 1176.21 704.077C1168.03 704.077 1161.37 710.762 1161.37 718.983L1161.37 812.713C1161.37 820.931 1168.03 827.619 1176.21 827.619L1242.48 827.619L1242.48 824.535L1176.21 824.535C1169.72 824.535 1164.44 819.23 1164.44 812.713L1164.44 718.983C1164.44 712.463 1169.72 707.161 1176.21 707.161C1182.7 707.161 1187.98 712.463 1187.98 718.983L1187.98 761.317C1187.98 767.833 1182.7 773.138 1176.21 773.138L1175.18 773.138C1172.39 773.138 1164.44 773.138 1164.44 773.138" fill="url(#paint78_linear_906_2)"/>
<path d="M1157.28 812.714L1157.28 718.983C1157.28 708.496 1165.77 699.967 1176.21 699.967C1186.64 699.967 1195.14 708.5 1195.14 718.983L1195.14 761.317C1195.14 771.804 1186.64 780.333 1176.21 780.333L1175.18 780.333C1172.39 780.333 1164.85 780.333 1164.85 780.333L1164.44 780.333L1164.44 783.416L1170.53 783.416C1173.6 783.416 1175.27 783.416 1176.21 783.324L1176.21 783.416C1188.34 783.416 1198.21 773.501 1198.21 761.317L1198.21 718.983C1198.21 706.795 1188.34 696.883 1176.21 696.883C1164.08 696.883 1154.21 706.799 1154.21 718.983L1154.21 812.714C1154.21 824.898 1164.08 834.813 1176.21 834.813L1242.48 834.813L1242.48 831.729L1176.21 831.729C1165.77 831.733 1157.28 823.2 1157.28 812.714Z" fill="url(#paint79_linear_906_2)"/>
<path d="M1150.11 812.714L1150.11 718.983C1150.11 704.529 1161.82 692.769 1176.21 692.769C1190.6 692.769 1202.3 704.529 1202.3 718.983L1202.3 761.317C1202.3 775.77 1190.6 787.53 1176.21 787.53L1175.18 787.53C1172.35 787.53 1164.65 787.53 1164.65 787.53L1164.44 787.53L1164.44 790.614L1170.43 790.614C1173.57 790.614 1175.26 790.614 1176.21 790.522L1176.21 790.614C1192.29 790.614 1205.37 777.471 1205.37 761.317L1205.37 718.983C1205.37 702.828 1192.29 689.686 1176.21 689.686C1160.13 689.686 1147.04 702.828 1147.04 718.983L1147.04 812.714C1147.04 828.868 1160.13 842.011 1176.21 842.011L1242.48 842.011L1242.48 838.927L1176.21 838.927C1161.82 838.927 1150.11 827.167 1150.11 812.714Z" fill="url(#paint80_linear_906_2)"/>
<path d="M1142.95 812.713L1142.95 718.983C1142.95 700.562 1157.87 685.575 1176.21 685.575C1194.54 685.575 1209.46 700.562 1209.46 718.983L1209.46 761.317C1209.46 779.737 1194.54 794.724 1176.21 794.724L1175.18 794.724C1172.36 794.724 1164.68 794.724 1164.68 794.724L1164.44 794.721L1164.44 797.788L1170.43 797.808C1173.57 797.808 1175.26 797.808 1176.21 797.712L1176.21 797.808C1196.24 797.808 1212.53 781.438 1212.53 761.317L1212.53 718.983C1212.53 698.861 1196.24 682.491 1176.21 682.491C1156.18 682.491 1139.88 698.861 1139.88 718.983L1139.88 812.713C1139.88 832.835 1156.18 849.205 1176.21 849.205L1242.48 849.205L1242.48 846.121L1176.21 846.121C1157.87 846.125 1142.95 831.137 1142.95 812.713Z" fill="url(#paint81_linear_906_2)"/>
<path d="M1135.79 812.713L1135.79 718.983C1135.79 696.592 1153.92 678.377 1176.21 678.377C1198.5 678.377 1216.63 696.596 1216.63 718.983L1216.63 761.316C1216.63 783.704 1198.5 801.922 1176.21 801.922L1175.18 801.922C1172.35 801.922 1164.65 801.922 1164.65 801.922L1164.44 801.922L1164.44 805.006L1170.43 805.006C1173.57 805.006 1175.26 805.006 1176.21 804.91L1176.21 805.006C1200.19 805.006 1219.7 785.405 1219.7 761.316L1219.7 718.983C1219.7 694.891 1200.19 675.293 1176.21 675.293C1152.23 675.293 1132.72 694.891 1132.72 718.983L1132.72 812.713C1132.72 836.801 1152.23 856.402 1176.21 856.402L1242.48 856.402L1242.48 853.319L1176.21 853.319C1153.92 853.319 1135.79 835.104 1135.79 812.713Z" fill="url(#paint82_linear_906_2)"/>
<path d="M1128.63 812.713L1128.63 718.983C1128.63 692.626 1149.97 671.183 1176.21 671.183C1202.44 671.183 1223.79 692.626 1223.79 718.983L1223.79 761.317C1223.79 787.674 1202.44 809.116 1176.21 809.116L1175.18 809.116C1172.28 809.116 1164.44 809.089 1164.44 809.089L1164.44 812.173L1174.33 812.2C1175.17 812.2 1175.77 812.2 1176.21 812.169L1176.21 812.2C1204.14 812.2 1226.86 789.375 1226.86 761.317L1226.86 718.983C1226.86 690.925 1204.14 668.099 1176.21 668.099C1148.28 668.099 1125.56 690.928 1125.56 718.983L1125.56 812.713C1125.56 840.772 1148.28 863.597 1176.21 863.597L1242.48 863.597L1242.48 860.513L1176.21 860.513C1149.97 860.513 1128.63 839.071 1128.63 812.713Z" fill="url(#paint83_linear_906_2)"/>
<path d="M1112.45 1056.78C1112.45 1064.99 1119.11 1071.68 1127.29 1071.68C1135.47 1071.68 1142.13 1064.99 1142.13 1056.78L1142.13 930.146C1142.13 903.787 1163.47 882.344 1189.71 882.344C1215.95 882.344 1237.3 903.787 1237.3 930.146L1237.3 935.892L1237.3 964.257C1237.3 968.771 1239.32 972.814 1242.48 975.552L1242.48 970.996C1241.15 969.083 1240.37 966.762 1240.37 964.257L1240.37 935.892L1240.37 930.146C1240.37 902.086 1217.65 879.26 1189.71 879.26C1161.78 879.26 1139.06 902.086 1139.06 930.146L1139.06 1056.78C1139.06 1063.29 1133.78 1068.6 1127.29 1068.6C1120.8 1068.6 1115.52 1063.29 1115.52 1056.78L1115.52 928.263C1114.52 928.992 1113.5 929.684 1112.45 930.337L1112.45 1056.78Z" fill="url(#paint84_linear_906_2)"/>
<path d="M1105.51 1056.55C1105.51 1068.73 1115.37 1078.65 1127.48 1078.65C1139.59 1078.65 1149.44 1068.73 1149.44 1056.55L1149.44 929.917C1149.44 907.525 1167.55 889.309 1189.8 889.309C1212.05 889.309 1230.16 907.525 1230.16 929.917L1230.16 935.663L1230.16 964.028C1230.16 972.732 1235.2 980.255 1242.48 983.856L1242.48 980.354C1236.95 977.034 1233.22 970.969 1233.22 964.028L1233.22 935.663L1233.22 929.917C1233.22 905.824 1213.74 886.225 1189.8 886.225C1165.86 886.225 1146.38 905.824 1146.38 929.917L1146.38 1056.55C1146.38 1067.04 1137.9 1075.56 1127.48 1075.56C1117.05 1075.56 1108.58 1067.03 1108.58 1056.55L1108.58 932.398C1107.57 932.901 1106.55 933.377 1105.51 933.815L1105.51 1056.55Z" fill="url(#paint85_linear_906_2)"/>
<path d="M1097.71 1056.32C1097.71 1072.47 1110.83 1085.61 1126.96 1085.61C1143.09 1085.61 1156.21 1072.47 1156.21 1056.32L1156.21 929.687C1156.21 911.266 1171.17 896.278 1189.56 896.278C1207.95 896.278 1222.92 911.266 1222.92 929.687L1222.92 935.434L1222.92 963.797C1222.92 976.554 1231.1 987.424 1242.48 991.436L1242.48 988.14C1232.83 984.275 1226 974.822 1226 963.794L1226 935.43L1226 929.684C1226 909.562 1209.65 893.191 1189.56 893.191C1169.47 893.191 1153.13 909.562 1153.13 929.684L1153.13 1056.31C1153.13 1070.77 1141.39 1082.53 1126.96 1082.53C1112.53 1082.53 1100.79 1070.77 1100.79 1056.31L1100.79 935.091C1099.77 935.417 1098.75 935.707 1097.71 935.964L1097.71 1056.32Z" fill="url(#paint86_linear_906_2)"/>
<path d="M1090.77 1056.96C1090.77 1077.08 1107.09 1093.45 1127.15 1093.45C1147.2 1093.45 1163.52 1077.08 1163.52 1056.96L1163.52 930.326C1163.52 915.872 1175.24 904.111 1189.65 904.111C1204.06 904.111 1215.78 915.872 1215.78 930.326L1215.78 936.073L1215.78 964.437C1215.78 981.201 1227.11 995.351 1242.48 999.612L1242.48 996.405C1228.82 992.24 1218.85 979.487 1218.85 964.437L1218.85 936.073L1218.85 930.326C1218.85 914.17 1205.75 901.027 1189.65 901.027C1173.55 901.027 1160.45 914.17 1160.45 930.326L1160.45 1056.96C1160.45 1075.38 1145.51 1090.37 1127.15 1090.37C1108.79 1090.37 1093.85 1075.38 1093.85 1056.96L1093.85 937.455C1092.83 937.62 1091.81 937.767 1090.77 937.87L1090.77 1056.96Z" fill="url(#paint87_linear_906_2)"/>
<path d="M1178.05 1056.49L1178.05 929.861C1178.05 923.341 1183.32 918.039 1189.8 918.039C1196.28 918.039 1201.55 923.341 1201.55 929.861L1201.55 935.608L1201.55 963.972C1201.55 988.712 1219.19 1009.38 1242.48 1013.92L1242.48 1010.78C1220.89 1006.29 1204.61 987.01 1204.61 963.975L1204.61 935.611L1204.61 929.864C1204.61 921.643 1197.97 914.958 1189.8 914.958C1181.63 914.958 1174.99 921.643 1174.99 929.864L1174.99 1056.5C1174.99 1082.85 1153.67 1104.3 1127.48 1104.3C1101.28 1104.3 1079.97 1082.85 1079.97 1056.5L1079.97 937.668L1076.9 937.668L1076.9 961.312L1076.9 964.396L1076.9 1056.5C1076.9 1084.56 1099.59 1107.38 1127.48 1107.38C1155.36 1107.38 1178.05 1084.55 1178.05 1056.49Z" fill="url(#paint88_linear_906_2)"/>
<path d="M1083.84 937.897L1083.84 1056.72C1083.84 1080.81 1103.34 1100.42 1127.32 1100.42C1151.3 1100.42 1170.8 1080.81 1170.8 1056.72L1170.8 930.093C1170.8 919.606 1179.29 911.077 1189.73 911.077C1200.17 911.077 1208.65 919.606 1208.65 930.093L1208.65 935.84L1208.65 964.204C1208.65 984.96 1223.14 1002.37 1242.48 1006.8L1242.48 1003.63C1224.85 999.27 1211.72 983.252 1211.72 964.204L1211.72 935.84L1211.72 930.093C1211.72 917.905 1201.86 907.993 1189.73 907.993C1177.6 907.993 1167.73 917.908 1167.73 930.093L1167.73 1056.72C1167.73 1079.11 1149.61 1097.33 1127.32 1097.33C1105.04 1097.33 1086.91 1079.12 1086.91 1056.72L1086.91 937.87C1086.57 937.877 1086.23 937.897 1085.89 937.897L1083.84 937.897Z" fill="url(#paint89_linear_906_2)"/>
</g>
<rect x="1270" y="950.551" width="150" height="199.551" transform="rotate(-180 1270 950.551)" fill="url(#paint90_linear_906_2)"/>
<g filter="url(#filter0_bi_906_2)">
<path d="M226.907 653.659V769H572.699V653.659H1236V487.116H1014.08V313H128.269V487.116H19V653.659H226.907Z" fill="white" fill-opacity="0.03"/>
<path d="M227.407 653.659V653.159H226.907H19.5V487.616H128.269H128.769V487.116V313.5H1013.58V487.116V487.616H1014.08H1235.5V653.159H572.699H572.199V653.659V768.5H227.407V653.659Z" stroke="#3A3A39"/>
</g>
<g filter="url(#filter1_bi_906_2)">
<rect x="572" y="769" width="440" height="120" fill="white" fill-opacity="0.03"/>
<rect x="572.5" y="769.5" width="439" height="119" stroke="#3A3A39"/>
</g>
<defs>
<filter id="filter0_bi_906_2" x="11" y="305" width="1233" height="472" filterUnits="userSpaceOnUse" color-interpolation-filters="sRGB">
<feFlood flood-opacity="0" result="BackgroundImageFix"/>
<feGaussianBlur in="BackgroundImageFix" stdDeviation="4"/>
<feComposite in2="SourceAlpha" operator="in" result="effect1_backgroundBlur_906_2"/>
<feBlend mode="normal" in="SourceGraphic" in2="effect1_backgroundBlur_906_2" result="shape"/>
<feColorMatrix in="SourceAlpha" type="matrix" values="0 0 0 0 0 0 0 0 0 0 0 0 0 0 0 0 0 0 127 0" result="hardAlpha"/>
<feOffset dy="4"/>
<feGaussianBlur stdDeviation="30"/>
<feComposite in2="hardAlpha" operator="arithmetic" k2="-1" k3="1"/>
<feColorMatrix type="matrix" values="0 0 0 0 0.120833 0 0 0 0 0.120833 0 0 0 0 0.120833 0 0 0 1 0"/>
<feBlend mode="normal" in2="shape" result="effect2_innerShadow_906_2"/>
</filter>
<filter id="filter1_bi_906_2" x="564" y="761" width="456" height="136" filterUnits="userSpaceOnUse" color-interpolation-filters="sRGB">
<feFlood flood-opacity="0" result="BackgroundImageFix"/>
<feGaussianBlur in="BackgroundImageFix" stdDeviation="4"/>
<feComposite in2="SourceAlpha" operator="in" result="effect1_backgroundBlur_906_2"/>
<feBlend mode="normal" in="SourceGraphic" in2="effect1_backgroundBlur_906_2" result="shape"/>
<feColorMatrix in="SourceAlpha" type="matrix" values="0 0 0 0 0 0 0 0 0 0 0 0 0 0 0 0 0 0 127 0" result="hardAlpha"/>
<feOffset dy="4"/>
<feGaussianBlur stdDeviation="30"/>
<feComposite in2="hardAlpha" operator="arithmetic" k2="-1" k3="1"/>
<feColorMatrix type="matrix" values="0 0 0 0 0.120833 0 0 0 0 0.120833 0 0 0 0 0.120833 0 0 0 1 0"/>
<feBlend mode="normal" in2="shape" result="effect2_innerShadow_906_2"/>
</filter>
<linearGradient id="paint0_linear_906_2" x1="97.7812" y1="489" x2="97.7812" y2="595.7" gradientUnits="userSpaceOnUse">
<stop stop-color="#2E3192"/>
<stop offset="1" stop-color="#2484C6"/>
</linearGradient>
<linearGradient id="paint1_linear_906_2" x1="101.363" y1="489" x2="101.363" y2="588.504" gradientUnits="userSpaceOnUse">
<stop stop-color="#2E3192"/>
<stop offset="1" stop-color="#2484C6"/>
</linearGradient>
<linearGradient id="paint2_linear_906_2" x1="104.944" y1="489" x2="104.944" y2="581.308" gradientUnits="userSpaceOnUse">
<stop stop-color="#2E3192"/>
<stop offset="1" stop-color="#2484C6"/>
</linearGradient>
<linearGradient id="paint3_linear_906_2" x1="108.525" y1="489" x2="108.525" y2="574.112" gradientUnits="userSpaceOnUse">
<stop stop-color="#2E3192"/>
<stop offset="1" stop-color="#2484C6"/>
</linearGradient>
<linearGradient id="paint4_linear_906_2" x1="112.107" y1="489" x2="112.107" y2="566.917" gradientUnits="userSpaceOnUse">
<stop stop-color="#2E3192"/>
<stop offset="1" stop-color="#2484C6"/>
</linearGradient>
<linearGradient id="paint5_linear_906_2" x1="115.688" y1="489" x2="115.688" y2="559.721" gradientUnits="userSpaceOnUse">
<stop stop-color="#2E3192"/>
<stop offset="1" stop-color="#2484C6"/>
</linearGradient>
<linearGradient id="paint6_linear_906_2" x1="7.80657" y1="489" x2="7.80657" y2="577.686" gradientUnits="userSpaceOnUse">
<stop stop-color="#2E3192"/>
<stop offset="1" stop-color="#2484C6"/>
</linearGradient>
<linearGradient id="paint7_linear_906_2" x1="7.80692" y1="489" x2="7.80692" y2="570.49" gradientUnits="userSpaceOnUse">
<stop stop-color="#2E3192"/>
<stop offset="1" stop-color="#2484C6"/>
</linearGradient>
<linearGradient id="paint8_linear_906_2" x1="7.80684" y1="489" x2="7.80684" y2="563.295" gradientUnits="userSpaceOnUse">
<stop stop-color="#2E3192"/>
<stop offset="1" stop-color="#2484C6"/>
</linearGradient>
<linearGradient id="paint9_linear_906_2" x1="7.80693" y1="489" x2="7.80693" y2="556.099" gradientUnits="userSpaceOnUse">
<stop stop-color="#2E3192"/>
<stop offset="1" stop-color="#2484C6"/>
</linearGradient>
<linearGradient id="paint10_linear_906_2" x1="7.80685" y1="489" x2="7.80685" y2="548.903" gradientUnits="userSpaceOnUse">
<stop stop-color="#2E3192"/>
<stop offset="1" stop-color="#2484C6"/>
</linearGradient>
<linearGradient id="paint11_linear_906_2" x1="7.80682" y1="489" x2="7.80681" y2="541.708" gradientUnits="userSpaceOnUse">
<stop stop-color="#2E3192"/>
<stop offset="1" stop-color="#2484C6"/>
</linearGradient>
<linearGradient id="paint12_linear_906_2" x1="77.8961" y1="949.644" x2="77.8961" y2="1087.95" gradientUnits="userSpaceOnUse">
<stop stop-color="#2E3192"/>
<stop offset="1" stop-color="#2484C6"/>
</linearGradient>
<linearGradient id="paint13_linear_906_2" x1="82.1976" y1="942.448" x2="82.1976" y2="1087.95" gradientUnits="userSpaceOnUse">
<stop stop-color="#2E3192"/>
<stop offset="1" stop-color="#2484C6"/>
</linearGradient>
<linearGradient id="paint14_linear_906_2" x1="87.5561" y1="935.253" x2="87.5561" y2="1087.95" gradientUnits="userSpaceOnUse">
<stop stop-color="#2E3192"/>
<stop offset="1" stop-color="#2484C6"/>
</linearGradient>
<linearGradient id="paint15_linear_906_2" x1="92.2629" y1="928.057" x2="92.2629" y2="1086.53" gradientUnits="userSpaceOnUse">
<stop stop-color="#2E3192"/>
<stop offset="1" stop-color="#2484C6"/>
</linearGradient>
<linearGradient id="paint16_linear_906_2" x1="83.9674" y1="615.079" x2="83.9673" y2="738.62" gradientUnits="userSpaceOnUse">
<stop stop-color="#2E3192"/>
<stop offset="1" stop-color="#2484C6"/>
</linearGradient>
<linearGradient id="paint17_linear_906_2" x1="80.386" y1="607.884" x2="80.386" y2="745.816" gradientUnits="userSpaceOnUse">
<stop stop-color="#2E3192"/>
<stop offset="1" stop-color="#2484C6"/>
</linearGradient>
<linearGradient id="paint18_linear_906_2" x1="76.8046" y1="600.688" x2="76.8046" y2="753.012" gradientUnits="userSpaceOnUse">
<stop stop-color="#2E3192"/>
<stop offset="1" stop-color="#2484C6"/>
</linearGradient>
<linearGradient id="paint19_linear_906_2" x1="73.2232" y1="593.492" x2="73.2232" y2="760.207" gradientUnits="userSpaceOnUse">
<stop stop-color="#2E3192"/>
<stop offset="1" stop-color="#2484C6"/>
</linearGradient>
<linearGradient id="paint20_linear_906_2" x1="69.6418" y1="586.296" x2="69.6418" y2="767.403" gradientUnits="userSpaceOnUse">
<stop stop-color="#2E3192"/>
<stop offset="1" stop-color="#2484C6"/>
</linearGradient>
<linearGradient id="paint21_linear_906_2" x1="66.0604" y1="579.101" x2="66.0604" y2="774.599" gradientUnits="userSpaceOnUse">
<stop stop-color="#2E3192"/>
<stop offset="1" stop-color="#2484C6"/>
</linearGradient>
<linearGradient id="paint22_linear_906_2" x1="59.5055" y1="790.261" x2="59.5055" y2="982.685" gradientUnits="userSpaceOnUse">
<stop stop-color="#2E3192"/>
<stop offset="1" stop-color="#2484C6"/>
</linearGradient>
<linearGradient id="paint23_linear_906_2" x1="56.0371" y1="797.228" x2="56.0371" y2="989.651" gradientUnits="userSpaceOnUse">
<stop stop-color="#2E3192"/>
<stop offset="1" stop-color="#2484C6"/>
</linearGradient>
<linearGradient id="paint24_linear_906_2" x1="52.1371" y1="804.195" x2="52.1371" y2="996.615" gradientUnits="userSpaceOnUse">
<stop stop-color="#2E3192"/>
<stop offset="1" stop-color="#2484C6"/>
</linearGradient>
<linearGradient id="paint25_linear_906_2" x1="48.6688" y1="812.029" x2="48.6688" y2="1004.45" gradientUnits="userSpaceOnUse">
<stop stop-color="#2E3192"/>
<stop offset="1" stop-color="#2484C6"/>
</linearGradient>
<linearGradient id="paint26_linear_906_2" x1="41.7338" y1="825.956" x2="41.7338" y2="1018.38" gradientUnits="userSpaceOnUse">
<stop stop-color="#2E3192"/>
<stop offset="1" stop-color="#2484C6"/>
</linearGradient>
<linearGradient id="paint27_linear_906_2" x1="45.2021" y1="818.993" x2="45.2021" y2="1011.42" gradientUnits="userSpaceOnUse">
<stop stop-color="#2E3192"/>
<stop offset="1" stop-color="#2484C6"/>
</linearGradient>
<linearGradient id="paint28_linear_906_2" x1="225" y1="957.551" x2="225" y2="1157.1" gradientUnits="userSpaceOnUse">
<stop/>
<stop offset="1" stop-opacity="0"/>
</linearGradient>
<linearGradient id="paint29_linear_906_2" x1="1214.74" y1="-1.16893e-06" x2="1214.74" y2="106.7" gradientUnits="userSpaceOnUse">
<stop stop-color="#2E3192"/>
<stop offset="1" stop-color="#2484C6"/>
</linearGradient>
<linearGradient id="paint30_linear_906_2" x1="1218.32" y1="-1.01238e-06" x2="1218.32" y2="99.5037" gradientUnits="userSpaceOnUse">
<stop stop-color="#2E3192"/>
<stop offset="1" stop-color="#2484C6"/>
</linearGradient>
<linearGradient id="paint31_linear_906_2" x1="1221.9" y1="-8.55836e-07" x2="1221.9" y2="92.3081" gradientUnits="userSpaceOnUse">
<stop stop-color="#2E3192"/>
<stop offset="1" stop-color="#2484C6"/>
</linearGradient>
<linearGradient id="paint32_linear_906_2" x1="1225.48" y1="-6.99287e-07" x2="1225.48" y2="85.1124" gradientUnits="userSpaceOnUse">
<stop stop-color="#2E3192"/>
<stop offset="1" stop-color="#2484C6"/>
</linearGradient>
<linearGradient id="paint33_linear_906_2" x1="1229.07" y1="-5.42741e-07" x2="1229.07" y2="77.9168" gradientUnits="userSpaceOnUse">
<stop stop-color="#2E3192"/>
<stop offset="1" stop-color="#2484C6"/>
</linearGradient>
<linearGradient id="paint34_linear_906_2" x1="1232.65" y1="-3.86192e-07" x2="1232.65" y2="70.721" gradientUnits="userSpaceOnUse">
<stop stop-color="#2E3192"/>
<stop offset="1" stop-color="#2484C6"/>
</linearGradient>
<linearGradient id="paint35_linear_906_2" x1="1116.96" y1="543.489" x2="1116.96" y2="598.951" gradientUnits="userSpaceOnUse">
<stop stop-color="#2E3192"/>
<stop offset="1" stop-color="#2484C6"/>
</linearGradient>
<linearGradient id="paint36_linear_906_2" x1="1120.54" y1="550.685" x2="1120.54" y2="598.951" gradientUnits="userSpaceOnUse">
<stop stop-color="#2E3192"/>
<stop offset="1" stop-color="#2484C6"/>
</linearGradient>
<linearGradient id="paint37_linear_906_2" x1="1124.12" y1="557.88" x2="1124.12" y2="598.951" gradientUnits="userSpaceOnUse">
<stop stop-color="#2E3192"/>
<stop offset="1" stop-color="#2484C6"/>
</linearGradient>
<linearGradient id="paint38_linear_906_2" x1="1127.71" y1="565.076" x2="1127.71" y2="598.951" gradientUnits="userSpaceOnUse">
<stop stop-color="#2E3192"/>
<stop offset="1" stop-color="#2484C6"/>
</linearGradient>
<linearGradient id="paint39_linear_906_2" x1="1131.29" y1="572.272" x2="1131.29" y2="598.951" gradientUnits="userSpaceOnUse">
<stop stop-color="#2E3192"/>
<stop offset="1" stop-color="#2484C6"/>
</linearGradient>
<linearGradient id="paint40_linear_906_2" x1="1134.87" y1="579.467" x2="1134.87" y2="598.951" gradientUnits="userSpaceOnUse">
<stop stop-color="#2E3192"/>
<stop offset="1" stop-color="#2484C6"/>
</linearGradient>
<linearGradient id="paint41_linear_906_2" x1="1124.77" y1="-2.31836e-06" x2="1124.77" y2="88.6862" gradientUnits="userSpaceOnUse">
<stop stop-color="#2E3192"/>
<stop offset="1" stop-color="#2484C6"/>
</linearGradient>
<linearGradient id="paint42_linear_906_2" x1="1124.77" y1="-2.00531e-06" x2="1124.77" y2="81.4904" gradientUnits="userSpaceOnUse">
<stop stop-color="#2E3192"/>
<stop offset="1" stop-color="#2484C6"/>
</linearGradient>
<linearGradient id="paint43_linear_906_2" x1="1124.77" y1="-1.69213e-06" x2="1124.77" y2="74.2948" gradientUnits="userSpaceOnUse">
<stop stop-color="#2E3192"/>
<stop offset="1" stop-color="#2484C6"/>
</linearGradient>
<linearGradient id="paint44_linear_906_2" x1="1124.77" y1="-1.37909e-06" x2="1124.77" y2="67.0992" gradientUnits="userSpaceOnUse">
<stop stop-color="#2E3192"/>
<stop offset="1" stop-color="#2484C6"/>
</linearGradient>
<linearGradient id="paint45_linear_906_2" x1="1124.77" y1="-1.06591e-06" x2="1124.77" y2="59.9034" gradientUnits="userSpaceOnUse">
<stop stop-color="#2E3192"/>
<stop offset="1" stop-color="#2484C6"/>
</linearGradient>
<linearGradient id="paint46_linear_906_2" x1="1124.77" y1="-7.52883e-07" x2="1124.77" y2="52.7079" gradientUnits="userSpaceOnUse">
<stop stop-color="#2E3192"/>
<stop offset="1" stop-color="#2484C6"/>
</linearGradient>
<linearGradient id="paint47_linear_906_2" x1="1187" y1="475.035" x2="1187" y2="598.951" gradientUnits="userSpaceOnUse">
<stop stop-color="#2E3192"/>
<stop offset="1" stop-color="#2484C6"/>
</linearGradient>
<linearGradient id="paint48_linear_906_2" x1="1190.86" y1="467.84" x2="1190.86" y2="598.951" gradientUnits="userSpaceOnUse">
<stop stop-color="#2E3192"/>
<stop offset="1" stop-color="#2484C6"/>
</linearGradient>
<linearGradient id="paint49_linear_906_2" x1="1194.86" y1="460.644" x2="1194.86" y2="598.951" gradientUnits="userSpaceOnUse">
<stop stop-color="#2E3192"/>
<stop offset="1" stop-color="#2484C6"/>
</linearGradient>
<linearGradient id="paint50_linear_906_2" x1="1199.16" y1="453.448" x2="1199.16" y2="598.951" gradientUnits="userSpaceOnUse">
<stop stop-color="#2E3192"/>
<stop offset="1" stop-color="#2484C6"/>
</linearGradient>
<linearGradient id="paint51_linear_906_2" x1="1204.52" y1="446.253" x2="1204.52" y2="598.951" gradientUnits="userSpaceOnUse">
<stop stop-color="#2E3192"/>
<stop offset="1" stop-color="#2484C6"/>
</linearGradient>
<linearGradient id="paint52_linear_906_2" x1="1209.22" y1="439.057" x2="1209.22" y2="597.535" gradientUnits="userSpaceOnUse">
<stop stop-color="#2E3192"/>
<stop offset="1" stop-color="#2484C6"/>
</linearGradient>
<linearGradient id="paint53_linear_906_2" x1="1200.93" y1="126.079" x2="1200.93" y2="249.62" gradientUnits="userSpaceOnUse">
<stop stop-color="#2E3192"/>
<stop offset="1" stop-color="#2484C6"/>
</linearGradient>
<linearGradient id="paint54_linear_906_2" x1="1197.35" y1="118.884" x2="1197.35" y2="256.816" gradientUnits="userSpaceOnUse">
<stop stop-color="#2E3192"/>
<stop offset="1" stop-color="#2484C6"/>
</linearGradient>
<linearGradient id="paint55_linear_906_2" x1="1193.76" y1="111.688" x2="1193.76" y2="264.012" gradientUnits="userSpaceOnUse">
<stop stop-color="#2E3192"/>
<stop offset="1" stop-color="#2484C6"/>
</linearGradient>
<linearGradient id="paint56_linear_906_2" x1="1190.18" y1="104.492" x2="1190.18" y2="271.207" gradientUnits="userSpaceOnUse">
<stop stop-color="#2E3192"/>
<stop offset="1" stop-color="#2484C6"/>
</linearGradient>
<linearGradient id="paint57_linear_906_2" x1="1186.6" y1="97.2961" x2="1186.6" y2="278.403" gradientUnits="userSpaceOnUse">
<stop stop-color="#2E3192"/>
<stop offset="1" stop-color="#2484C6"/>
</linearGradient>
<linearGradient id="paint58_linear_906_2" x1="1183.02" y1="90.1007" x2="1183.02" y2="285.599" gradientUnits="userSpaceOnUse">
<stop stop-color="#2E3192"/>
<stop offset="1" stop-color="#2484C6"/>
</linearGradient>
<linearGradient id="paint59_linear_906_2" x1="1176.46" y1="301.261" x2="1176.46" y2="493.685" gradientUnits="userSpaceOnUse">
<stop stop-color="#2E3192"/>
<stop offset="1" stop-color="#2484C6"/>
</linearGradient>
<linearGradient id="paint60_linear_906_2" x1="1173" y1="308.228" x2="1173" y2="500.651" gradientUnits="userSpaceOnUse">
<stop stop-color="#2E3192"/>
<stop offset="1" stop-color="#2484C6"/>
</linearGradient>
<linearGradient id="paint61_linear_906_2" x1="1169.1" y1="315.195" x2="1169.1" y2="507.615" gradientUnits="userSpaceOnUse">
<stop stop-color="#2E3192"/>
<stop offset="1" stop-color="#2484C6"/>
</linearGradient>
<linearGradient id="paint62_linear_906_2" x1="1165.63" y1="323.029" x2="1165.63" y2="515.453" gradientUnits="userSpaceOnUse">
<stop stop-color="#2E3192"/>
<stop offset="1" stop-color="#2484C6"/>
</linearGradient>
<linearGradient id="paint63_linear_906_2" x1="1158.69" y1="336.956" x2="1158.69" y2="529.38" gradientUnits="userSpaceOnUse">
<stop stop-color="#2E3192"/>
<stop offset="1" stop-color="#2484C6"/>
</linearGradient>
<linearGradient id="paint64_linear_906_2" x1="1162.16" y1="329.993" x2="1162.16" y2="522.416" gradientUnits="userSpaceOnUse">
<stop stop-color="#2E3192"/>
<stop offset="1" stop-color="#2484C6"/>
</linearGradient>
<linearGradient id="paint65_linear_906_2" x1="1203" y1="0" x2="1203" y2="169" gradientUnits="userSpaceOnUse">
<stop/>
<stop offset="1" stop-opacity="0"/>
</linearGradient>
<linearGradient id="paint66_linear_906_2" x1="1215.74" y1="578" x2="1215.74" y2="684.7" gradientUnits="userSpaceOnUse">
<stop stop-color="#2E3192"/>
<stop offset="1" stop-color="#2484C6"/>
</linearGradient>
<linearGradient id="paint67_linear_906_2" x1="1219.32" y1="578" x2="1219.32" y2="677.504" gradientUnits="userSpaceOnUse">
<stop stop-color="#2E3192"/>
<stop offset="1" stop-color="#2484C6"/>
</linearGradient>
<linearGradient id="paint68_linear_906_2" x1="1222.9" y1="578" x2="1222.9" y2="670.308" gradientUnits="userSpaceOnUse">
<stop stop-color="#2E3192"/>
<stop offset="1" stop-color="#2484C6"/>
</linearGradient>
<linearGradient id="paint69_linear_906_2" x1="1226.48" y1="578" x2="1226.48" y2="663.112" gradientUnits="userSpaceOnUse">
<stop stop-color="#2E3192"/>
<stop offset="1" stop-color="#2484C6"/>
</linearGradient>
<linearGradient id="paint70_linear_906_2" x1="1230.07" y1="578" x2="1230.07" y2="655.917" gradientUnits="userSpaceOnUse">
<stop stop-color="#2E3192"/>
<stop offset="1" stop-color="#2484C6"/>
</linearGradient>
<linearGradient id="paint71_linear_906_2" x1="1233.65" y1="578" x2="1233.65" y2="648.721" gradientUnits="userSpaceOnUse">
<stop stop-color="#2E3192"/>
<stop offset="1" stop-color="#2484C6"/>
</linearGradient>
<linearGradient id="paint72_linear_906_2" x1="1125.77" y1="578" x2="1125.77" y2="666.686" gradientUnits="userSpaceOnUse">
<stop stop-color="#2E3192"/>
<stop offset="1" stop-color="#2484C6"/>
</linearGradient>
<linearGradient id="paint73_linear_906_2" x1="1125.77" y1="578" x2="1125.77" y2="659.49" gradientUnits="userSpaceOnUse">
<stop stop-color="#2E3192"/>
<stop offset="1" stop-color="#2484C6"/>
</linearGradient>
<linearGradient id="paint74_linear_906_2" x1="1125.77" y1="578" x2="1125.77" y2="652.295" gradientUnits="userSpaceOnUse">
<stop stop-color="#2E3192"/>
<stop offset="1" stop-color="#2484C6"/>
</linearGradient>
<linearGradient id="paint75_linear_906_2" x1="1125.77" y1="578" x2="1125.77" y2="645.099" gradientUnits="userSpaceOnUse">
<stop stop-color="#2E3192"/>
<stop offset="1" stop-color="#2484C6"/>
</linearGradient>
<linearGradient id="paint76_linear_906_2" x1="1125.77" y1="578" x2="1125.77" y2="637.903" gradientUnits="userSpaceOnUse">
<stop stop-color="#2E3192"/>
<stop offset="1" stop-color="#2484C6"/>
</linearGradient>
<linearGradient id="paint77_linear_906_2" x1="1125.77" y1="578" x2="1125.77" y2="630.708" gradientUnits="userSpaceOnUse">
<stop stop-color="#2E3192"/>
<stop offset="1" stop-color="#2484C6"/>
</linearGradient>
<linearGradient id="paint78_linear_906_2" x1="1201.93" y1="704.079" x2="1201.93" y2="827.62" gradientUnits="userSpaceOnUse">
<stop stop-color="#2E3192"/>
<stop offset="1" stop-color="#2484C6"/>
</linearGradient>
<linearGradient id="paint79_linear_906_2" x1="1198.35" y1="696.884" x2="1198.35" y2="834.816" gradientUnits="userSpaceOnUse">
<stop stop-color="#2E3192"/>
<stop offset="1" stop-color="#2484C6"/>
</linearGradient>
<linearGradient id="paint80_linear_906_2" x1="1194.76" y1="689.688" x2="1194.76" y2="842.012" gradientUnits="userSpaceOnUse">
<stop stop-color="#2E3192"/>
<stop offset="1" stop-color="#2484C6"/>
</linearGradient>
<linearGradient id="paint81_linear_906_2" x1="1191.18" y1="682.492" x2="1191.18" y2="849.207" gradientUnits="userSpaceOnUse">
<stop stop-color="#2E3192"/>
<stop offset="1" stop-color="#2484C6"/>
</linearGradient>
<linearGradient id="paint82_linear_906_2" x1="1187.6" y1="675.296" x2="1187.6" y2="856.403" gradientUnits="userSpaceOnUse">
<stop stop-color="#2E3192"/>
<stop offset="1" stop-color="#2484C6"/>
</linearGradient>
<linearGradient id="paint83_linear_906_2" x1="1184.02" y1="668.101" x2="1184.02" y2="863.599" gradientUnits="userSpaceOnUse">
<stop stop-color="#2E3192"/>
<stop offset="1" stop-color="#2484C6"/>
</linearGradient>
<linearGradient id="paint84_linear_906_2" x1="1177.46" y1="879.261" x2="1177.46" y2="1071.68" gradientUnits="userSpaceOnUse">
<stop stop-color="#2E3192"/>
<stop offset="1" stop-color="#2484C6"/>
</linearGradient>
<linearGradient id="paint85_linear_906_2" x1="1174" y1="886.228" x2="1174" y2="1078.65" gradientUnits="userSpaceOnUse">
<stop stop-color="#2E3192"/>
<stop offset="1" stop-color="#2484C6"/>
</linearGradient>
<linearGradient id="paint86_linear_906_2" x1="1170.1" y1="893.195" x2="1170.1" y2="1085.62" gradientUnits="userSpaceOnUse">
<stop stop-color="#2E3192"/>
<stop offset="1" stop-color="#2484C6"/>
</linearGradient>
<linearGradient id="paint87_linear_906_2" x1="1166.63" y1="901.029" x2="1166.63" y2="1093.45" gradientUnits="userSpaceOnUse">
<stop stop-color="#2E3192"/>
<stop offset="1" stop-color="#2484C6"/>
</linearGradient>
<linearGradient id="paint88_linear_906_2" x1="1159.69" y1="914.956" x2="1159.69" y2="1107.38" gradientUnits="userSpaceOnUse">
<stop stop-color="#2E3192"/>
<stop offset="1" stop-color="#2484C6"/>
</linearGradient>
<linearGradient id="paint89_linear_906_2" x1="1163.16" y1="907.993" x2="1163.16" y2="1100.42" gradientUnits="userSpaceOnUse">
<stop stop-color="#2E3192"/>
<stop offset="1" stop-color="#2484C6"/>
</linearGradient>
<linearGradient id="paint90_linear_906_2" x1="1345" y1="950.551" x2="1345" y2="1150.1" gradientUnits="userSpaceOnUse">
<stop/>
<stop offset="1" stop-opacity="0"/>
</linearGradient>
<clipPath id="clip0_906_2">
<rect width="461" height="99" fill="white" transform="translate(118 489) rotate(90)"/>
</clipPath>
<clipPath id="clip1_906_2">
<rect width="599" height="99" fill="white" transform="translate(1235) rotate(90)"/>
</clipPath>
<clipPath id="clip2_906_2">
<rect width="364" height="99" fill="white" transform="translate(1236 578) rotate(90)"/>
</clipPath>
</defs>
</svg>
