<svg width="768" height="594" viewBox="0 0 768 594" fill="none" xmlns="http://www.w3.org/2000/svg">
<g clip-path="url(#clip0_906_3)">
<path d="M730.179 374.339L730.179 0L517.281 -9.3061e-06L517.281 374.339L730.179 374.339Z" fill="#020101"/>
<path d="M728.408 66.6762L730.179 66.6762L730.179 64.7492L728.408 64.7492C712.013 64.7492 698.675 51.3498 698.675 34.8791L698.675 -1.37712e-06L696.756 -1.46097e-06L696.756 34.8791C696.756 52.4127 710.957 66.6762 728.408 66.6762Z" fill="url(#paint0_linear_906_3)"/>
<path d="M728.408 62.1805L730.179 62.1805L730.179 60.2535L728.408 60.2535C714.48 60.2535 703.15 48.8709 703.15 34.8791L703.15 -1.1815e-06L701.232 -1.26535e-06L701.232 34.8791C701.234 49.9339 713.424 62.1805 728.408 62.1805Z" fill="url(#paint1_linear_906_3)"/>
<path d="M728.408 57.6827L730.179 57.6827L730.179 55.7556L728.408 55.7556C716.95 55.7556 707.627 46.3899 707.627 34.8791L707.627 -9.85795e-07L705.709 -1.06964e-06L705.709 34.8791C705.709 47.4529 715.892 57.6827 728.408 57.6827Z" fill="url(#paint2_linear_906_3)"/>
<path d="M728.408 53.187L730.179 53.187L730.179 51.2599L728.408 51.2599C719.417 51.2599 712.102 43.9111 712.102 34.8791L712.102 -7.90181e-07L710.184 -8.74029e-07L710.184 34.8791C710.186 44.9741 718.361 53.187 728.408 53.187Z" fill="url(#paint3_linear_906_3)"/>
<path d="M728.408 48.6913L730.179 48.6913L730.179 46.7642L728.408 46.7642C721.885 46.7642 716.579 41.4323 716.579 34.8812L716.579 -5.94474e-07L714.661 -6.78322e-07L714.661 34.8791C714.661 42.4952 720.829 48.6913 728.408 48.6913Z" fill="url(#paint4_linear_906_3)"/>
<path d="M728.408 44.1934L730.179 44.1934L730.179 42.2664L728.408 42.2664C724.352 42.2664 721.055 38.9513 721.055 34.8791L721.055 -3.9886e-07L719.136 -4.82708e-07L719.136 34.8791C719.136 40.0143 723.296 44.1934 728.408 44.1934Z" fill="url(#paint5_linear_906_3)"/>
<path d="M607.948 371.423C607.948 354.952 621.286 341.553 637.681 341.553L698.702 341.553L698.702 339.626L637.681 339.626C620.228 339.626 606.029 353.889 606.029 371.423C606.029 372.388 606.081 373.342 606.164 374.285L608.086 374.285C607.999 373.344 607.948 372.388 607.948 371.423Z" fill="url(#paint6_linear_906_3)"/>
<path d="M612.425 371.423C612.425 357.431 623.755 346.049 637.683 346.049L698.702 346.049L698.702 344.122L637.681 344.122C622.697 344.122 610.505 356.368 610.505 371.423C610.505 372.39 610.558 373.344 610.654 374.285L612.587 374.285C612.484 373.344 612.425 372.392 612.425 371.423Z" fill="url(#paint7_linear_906_3)"/>
<path d="M616.9 371.423C616.9 359.912 626.223 350.547 637.681 350.547L698.702 350.547L698.702 348.62L637.681 348.62C625.165 348.62 614.982 358.849 614.982 371.423C614.982 372.392 615.05 373.346 615.167 374.285L617.1 374.285C616.972 373.348 616.9 372.394 616.9 371.423Z" fill="url(#paint8_linear_906_3)"/>
<path d="M621.377 371.423C621.377 362.391 628.692 355.042 637.683 355.042L698.702 355.042L698.702 353.115L637.681 353.115C627.632 353.115 619.457 361.328 619.457 371.423C619.457 372.396 619.536 373.352 619.683 374.285L621.631 374.285C621.467 373.354 621.377 372.401 621.377 371.423Z" fill="url(#paint9_linear_906_3)"/>
<path d="M625.852 371.423C625.852 364.87 631.16 359.54 637.681 359.54L698.702 359.54L698.702 357.613L637.681 357.613C630.1 357.613 623.934 363.809 623.934 371.423C623.934 372.405 624.041 373.361 624.234 374.285L626.212 374.285C625.987 373.367 625.852 372.411 625.852 371.423Z" fill="url(#paint10_linear_906_3)"/>
<path d="M630.33 371.423C630.33 367.349 633.627 364.036 637.683 364.036L698.702 364.036L698.702 362.109L637.681 362.109C632.569 362.109 628.409 366.286 628.409 371.423C628.409 372.422 628.571 373.382 628.861 374.285L630.9 374.285C630.534 373.404 630.33 372.437 630.33 371.423Z" fill="url(#paint11_linear_906_3)"/>
<path d="M657.242 55.4198C675.518 55.4198 690.386 40.4827 690.386 22.1234L690.386 0L688.468 -8.3848e-08L688.468 22.1234C688.468 39.4197 674.46 53.4928 657.242 53.4928C640.025 53.4928 626.016 39.4197 626.016 22.1234L626.016 -2.8137e-06L624.098 -2.89755e-06L624.098 22.1234C624.098 40.4827 638.967 55.4198 657.242 55.4198Z" fill="url(#paint12_linear_906_3)"/>
<path d="M657.242 50.9241C673.05 50.9241 685.911 38.0038 685.911 22.1235L685.911 0L683.993 -8.38481e-08L683.993 22.1235C683.993 36.9409 671.994 48.9971 657.242 48.9971C642.493 48.9971 630.494 36.943 630.494 22.1234L630.494 -2.42238e-06L628.576 -2.50623e-06L628.576 22.1234C628.576 38.0038 641.435 50.9241 657.242 50.9241Z" fill="url(#paint13_linear_906_3)"/>
<path d="M657.242 46.4263C670.583 46.4263 681.434 35.525 681.434 22.1234L681.434 0L679.516 -8.3848e-08L679.516 22.1234C679.516 34.462 669.525 44.4993 657.242 44.4993C644.96 44.4993 634.969 34.462 634.969 22.1234L634.969 -2.03106e-06L633.051 -2.11491e-06L633.051 22.1234C633.051 35.525 643.904 46.4263 657.242 46.4263Z" fill="url(#paint14_linear_906_3)"/>
<path d="M657.242 41.9306C668.113 41.9306 676.959 33.0462 676.959 22.1235L676.959 0L675.041 -8.38479e-08L675.041 22.1235C675.041 31.9832 667.057 40.0036 657.242 40.0036C647.43 40.0036 639.444 31.9832 639.444 22.1234L639.444 -1.63983e-06L637.526 -1.72368e-06L637.526 22.1234C637.528 33.044 646.372 41.9306 657.242 41.9306Z" fill="url(#paint15_linear_906_3)"/>
<path d="M657.242 37.4328C665.646 37.4328 672.482 30.5652 672.482 22.1234L672.482 0L670.563 -8.38478e-08L670.563 22.1234C670.563 29.5022 664.587 35.5057 657.242 35.5057C649.897 35.5057 643.921 29.5022 643.921 22.1234L643.921 -1.24841e-06L642.003 -1.33226e-06L642.003 22.1234C642.003 30.5652 648.839 37.4328 657.242 37.4328Z" fill="url(#paint16_linear_906_3)"/>
<path d="M657.242 32.9371C663.178 32.9371 668.007 28.0863 668.007 22.1234L668.007 0L666.088 -8.38481e-08L666.088 22.1234C666.088 27.0234 662.12 31.01 657.242 31.01C652.365 31.01 648.396 27.0234 648.396 22.1234L648.396 -8.57186e-07L646.478 -9.41034e-07L646.478 22.1234C646.48 28.0863 651.309 32.9371 657.242 32.9371Z" fill="url(#paint17_linear_906_3)"/>
<path d="M700.618 364.094L700.618 306.165C700.618 301.03 696.458 296.851 691.347 296.851L689.86 296.851L689.86 298.778L691.347 298.778C695.402 298.778 698.7 302.093 698.7 306.165L698.7 364.096C698.7 367.661 699.296 371.085 700.378 374.287L702.402 374.287C701.248 371.102 700.618 367.672 700.618 364.094Z" fill="url(#paint18_linear_906_3)"/>
<path d="M705.094 364.094L705.094 306.165C705.094 298.551 698.926 292.355 691.347 292.355L689.861 292.355L689.861 294.282L691.347 294.282C697.87 294.282 703.175 299.612 703.175 306.165L703.175 364.096C703.175 367.697 703.88 371.134 705.147 374.287L707.227 374.287C705.86 371.164 705.094 367.719 705.094 364.094Z" fill="url(#paint19_linear_906_3)"/>
<path d="M709.571 364.094L709.571 306.165C709.571 296.07 701.395 287.857 691.347 287.857L689.861 287.857L689.861 289.784L691.347 289.784C700.337 289.784 707.653 297.133 707.653 306.165L707.653 364.096C707.653 367.757 708.521 371.218 710.054 374.287L712.226 374.287C710.537 371.269 709.571 367.794 709.571 364.094Z" fill="url(#paint20_linear_906_3)"/>
<path d="M714.046 364.094L714.046 306.165C714.046 293.591 703.863 283.362 691.347 283.362L689.861 283.362L689.861 285.289L691.347 285.289C702.805 285.289 712.128 294.654 712.128 306.165L712.128 364.096C712.128 367.866 713.269 371.372 715.219 374.287L717.599 374.287C715.379 371.485 714.046 367.946 714.046 364.094Z" fill="url(#paint21_linear_906_3)"/>
<path d="M718.523 364.094L718.523 306.165C718.523 291.112 706.332 278.864 691.347 278.864L689.86 278.864L689.86 280.791L691.347 280.791C705.274 280.791 716.605 292.173 716.605 306.165L716.605 364.096C716.605 368.132 718.348 371.759 721.106 374.287L724.297 374.287C720.846 372.206 718.523 368.422 718.523 364.094Z" fill="url(#paint22_linear_906_3)"/>
<path d="M722.998 364.094L722.998 306.165C722.998 288.631 708.8 274.368 691.346 274.368L689.86 274.368L689.86 276.295L691.346 276.295C707.742 276.295 721.08 289.694 721.08 306.165L721.08 364.096C721.08 369.173 725.146 373.307 730.179 373.402L730.179 371.475C726.204 371.38 722.998 368.11 722.998 364.094Z" fill="url(#paint23_linear_906_3)"/>
<path d="M681.411 123.869L685.215 123.869C687.138 123.869 688.177 123.869 688.764 123.811L688.764 123.869C693.876 123.869 698.036 119.69 698.036 114.555L698.036 88.1002C698.036 82.9629 693.876 78.7859 688.764 78.7859C683.653 78.7859 679.492 82.9629 679.492 88.1002L679.492 146.673C679.492 151.808 683.653 155.987 688.764 155.987L730.179 155.987L730.179 154.06L688.764 154.06C684.709 154.06 681.411 150.745 681.411 146.673L681.411 88.1002C681.411 84.0259 684.709 80.7129 688.764 80.7129C692.82 80.7129 696.118 84.0259 696.118 88.1002L696.118 114.555C696.118 118.627 692.82 121.942 688.764 121.942L688.121 121.942C686.378 121.942 681.411 121.942 681.411 121.942" fill="url(#paint24_linear_906_3)"/>
<path d="M676.936 146.673L676.936 88.1003C676.936 81.5471 682.243 76.2173 688.764 76.2173C695.285 76.2173 700.593 81.5493 700.593 88.1003L700.593 114.555C700.593 121.108 695.285 126.438 688.764 126.438L688.121 126.438C686.378 126.438 681.666 126.438 681.666 126.438L681.411 126.438L681.411 128.365L685.215 128.365C687.138 128.365 688.177 128.365 688.764 128.307L688.764 128.365C696.346 128.365 702.511 122.169 702.511 114.555L702.511 88.1003C702.511 80.4842 696.343 74.2903 688.764 74.2903C681.185 74.2903 675.017 80.4863 675.017 88.1003L675.017 146.673C675.017 154.287 681.185 160.483 688.764 160.483L730.179 160.483L730.179 158.556L688.764 158.556C682.241 158.558 676.936 153.226 676.936 146.673Z" fill="url(#paint25_linear_906_3)"/>
<path d="M672.458 146.673L672.458 88.1004C672.458 79.0683 679.774 71.7195 688.764 71.7195C697.755 71.7195 705.07 79.0683 705.07 88.1004L705.07 114.555C705.07 123.587 697.755 130.936 688.764 130.936L688.121 130.936C686.356 130.936 681.543 130.936 681.543 130.936L681.411 130.936L681.411 132.863L685.153 132.863C687.114 132.863 688.17 132.863 688.764 132.805L688.764 132.863C698.813 132.863 706.988 124.65 706.988 114.555L706.988 88.1004C706.988 78.0054 698.813 69.7925 688.764 69.7925C678.715 69.7925 670.54 78.0054 670.54 88.1004L670.54 146.673C670.54 156.768 678.715 164.981 688.764 164.981L730.179 164.981L730.179 163.054L688.764 163.054C679.774 163.054 672.458 155.705 672.458 146.673Z" fill="url(#paint26_linear_906_3)"/>
<path d="M667.983 146.673L667.983 88.1002C667.983 76.5893 677.306 67.2237 688.764 67.2237C700.222 67.2237 709.545 76.5893 709.545 88.1002L709.545 114.555C709.545 126.066 700.222 135.431 688.764 135.431L688.121 135.431C686.358 135.431 681.558 135.431 681.558 135.431L681.411 135.429L681.411 137.345L685.153 137.358C687.114 137.358 688.17 137.358 688.764 137.298L688.764 137.358C701.281 137.358 711.464 127.128 711.464 114.555L711.464 88.1002C711.464 75.5264 701.281 65.2966 688.764 65.2966C676.248 65.2966 666.065 75.5264 666.065 88.1002L666.065 146.673C666.065 159.246 676.248 169.476 688.764 169.476L730.179 169.476L730.179 167.549L688.764 167.549C677.306 167.551 667.983 158.186 667.983 146.673Z" fill="url(#paint27_linear_906_3)"/>
<path d="M663.506 146.673L663.506 88.1002C663.506 74.1084 674.836 62.7259 688.764 62.7259C702.692 62.7259 714.023 74.1105 714.023 88.1002L714.023 114.555C714.023 128.544 702.692 139.929 688.764 139.929L688.121 139.929C686.356 139.929 681.543 139.929 681.543 139.929L681.411 139.929L681.411 141.856L685.153 141.856C687.114 141.856 688.17 141.856 688.764 141.796L688.764 141.856C703.748 141.856 715.941 129.607 715.941 114.555L715.941 88.1002C715.941 73.0454 703.75 60.7988 688.764 60.7988C673.778 60.7988 661.588 73.0454 661.588 88.1002L661.588 146.673C661.588 161.725 673.778 173.974 688.764 173.974L730.179 173.974L730.179 172.047L688.764 172.047C674.836 172.047 663.506 160.664 663.506 146.673Z" fill="url(#paint28_linear_906_3)"/>
<path d="M659.031 146.673L659.031 88.1003C659.031 71.6297 672.369 58.2303 688.764 58.2303C705.16 58.2303 718.498 71.6297 718.498 88.1003L718.498 114.555C718.498 131.025 705.16 144.425 688.764 144.425L688.121 144.425C686.31 144.425 681.411 144.408 681.411 144.408L681.411 146.335L687.589 146.352C688.115 146.352 688.49 146.352 688.764 146.333L688.764 146.352C706.218 146.352 720.416 132.088 720.416 114.555L720.416 88.1003C720.416 70.5667 706.218 56.3032 688.764 56.3032C671.311 56.3032 657.113 70.5688 657.113 88.1003L657.113 146.673C657.113 164.206 671.311 178.47 688.764 178.47L730.179 178.47L730.179 176.543L688.764 176.543C672.369 176.543 659.031 163.143 659.031 146.673Z" fill="url(#paint29_linear_906_3)"/>
<path d="M648.92 299.188C648.92 304.324 653.081 308.503 658.193 308.503C663.306 308.503 667.466 304.324 667.466 299.188L667.466 220.056C667.466 203.585 680.806 190.185 697.204 190.185C713.601 190.185 726.941 203.585 726.941 220.056L726.941 223.647L726.941 241.372C726.941 244.193 728.201 246.719 730.179 248.431L730.179 245.584C729.349 244.388 728.859 242.938 728.859 241.372L728.859 223.647L728.859 220.056C728.859 202.522 714.659 188.258 697.204 188.258C679.748 188.258 665.548 202.522 665.548 220.056L665.548 299.188C665.548 303.261 662.25 306.576 658.193 306.576C654.137 306.576 650.839 303.261 650.839 299.188L650.839 218.88C650.215 219.335 649.576 219.767 648.92 220.176L648.92 299.188Z" fill="url(#paint30_linear_906_3)"/>
<path d="M644.587 299.045C644.587 306.659 650.745 312.856 658.312 312.856C665.882 312.856 672.038 306.659 672.038 299.045L672.038 219.913C672.038 205.921 683.352 194.537 697.258 194.537C711.165 194.537 722.478 205.921 722.478 219.913L722.478 223.504L722.478 241.229C722.478 246.668 725.626 251.369 730.179 253.62L730.179 251.432C726.721 249.357 724.393 245.567 724.393 241.229L724.393 223.504L724.393 219.913C724.393 204.858 712.221 192.61 697.258 192.61C682.297 192.61 670.123 204.858 670.123 219.913L670.123 299.045C670.123 305.599 664.824 310.929 658.312 310.929C651.799 310.929 646.502 305.596 646.502 299.045L646.502 221.464C645.875 221.778 645.237 222.075 644.587 222.349L644.587 299.045Z" fill="url(#paint31_linear_906_3)"/>
<path d="M639.711 298.9C639.711 308.995 647.911 317.209 657.989 317.209C668.068 317.209 676.267 308.995 676.267 298.9L676.267 219.77C676.267 208.258 685.618 198.892 697.11 198.892C708.602 198.892 717.953 208.258 717.953 219.77L717.953 223.361L717.953 241.085C717.953 249.057 723.067 255.85 730.179 258.356L730.179 256.297C724.149 253.882 719.877 247.974 719.877 241.083L719.877 223.359L719.877 219.767C719.877 207.193 709.663 196.963 697.11 196.963C684.557 196.963 674.343 207.193 674.343 219.767L674.343 298.898C674.343 307.93 667.007 315.279 657.989 315.279C648.972 315.279 641.635 307.93 641.635 298.898L641.635 223.147C641.001 223.35 640.36 223.532 639.711 223.692L639.711 298.9Z" fill="url(#paint32_linear_906_3)"/>
<path d="M635.377 299.301C635.377 311.875 645.574 322.105 658.107 322.105C670.64 322.105 680.836 311.875 680.836 299.301L680.836 220.169C680.836 211.136 688.161 203.787 697.164 203.787C706.167 203.787 713.492 211.136 713.492 220.169L713.492 223.76L713.492 241.485C713.492 251.961 720.571 260.803 730.179 263.466L730.179 261.462C721.644 258.859 715.412 250.889 715.412 241.485L715.412 223.76L715.412 220.169C715.412 210.073 707.226 201.86 697.164 201.86C687.102 201.86 678.915 210.073 678.915 220.169L678.915 299.301C678.915 310.812 669.58 320.178 658.107 320.178C646.633 320.178 637.298 310.812 637.298 299.301L637.298 224.624C636.663 224.727 636.023 224.819 635.377 224.883L635.377 299.301Z" fill="url(#paint33_linear_906_3)"/>
<path d="M689.916 299.01L689.916 219.878C689.916 215.804 693.209 212.49 697.258 212.49C701.308 212.49 704.601 215.804 704.601 219.878L704.601 223.469L704.601 241.194C704.601 256.654 715.627 269.568 730.179 272.407L730.179 270.447C716.687 267.639 706.516 255.591 706.516 241.196L706.516 223.471L706.516 219.88C706.516 214.743 702.362 210.565 697.258 210.565C692.154 210.565 688.001 214.743 688.001 219.88L688.001 299.012C688.001 315.484 674.683 328.884 658.313 328.884C641.942 328.884 628.625 315.484 628.625 299.012L628.625 224.757L626.71 224.757L626.71 239.532L626.71 241.459L626.71 299.012C626.71 316.547 640.886 330.811 658.313 330.811C675.739 330.811 689.916 316.545 689.916 299.01Z" fill="url(#paint34_linear_906_3)"/>
<path d="M631.043 224.9L631.043 299.155C631.043 314.209 643.232 326.458 658.215 326.458C673.196 326.458 685.387 314.209 685.387 299.155L685.387 220.023C685.387 213.47 690.691 208.14 697.214 208.14C703.736 208.14 709.04 213.47 709.04 220.023L709.04 223.615L709.04 241.339C709.04 254.31 718.091 265.19 730.179 267.956L730.179 265.977C719.16 263.252 710.958 253.242 710.958 241.339L710.958 223.615L710.958 220.023C710.958 212.407 704.791 206.213 697.214 206.213C689.634 206.213 683.469 212.409 683.469 220.023L683.469 299.155C683.469 313.146 672.141 324.531 658.215 324.531C644.29 324.531 632.961 313.148 632.961 299.155L632.961 224.883C632.748 224.887 632.535 224.9 632.323 224.9L631.043 224.9Z" fill="url(#paint35_linear_906_3)"/>
<rect x="659.264" width="93.7351" height="105.608" fill="url(#paint36_linear_906_3)"/>
</g>
<g clip-path="url(#clip1_906_3)">
<path d="M730.805 735.531L730.805 361.192L517.906 361.192L517.906 735.531L730.805 735.531Z" fill="#020101"/>
<path d="M729.033 427.869L730.805 427.869L730.805 425.942L729.033 425.942C712.638 425.942 699.3 412.542 699.3 396.071L699.3 361.192L697.382 361.192L697.382 396.071C697.382 413.605 711.582 427.869 729.033 427.869Z" fill="url(#paint37_linear_906_3)"/>
<path d="M729.033 423.373L730.805 423.373L730.805 421.446L729.033 421.446C715.106 421.446 703.775 410.063 703.775 396.071L703.775 361.192L701.857 361.192L701.857 396.071C701.859 411.126 714.05 423.373 729.033 423.373Z" fill="url(#paint38_linear_906_3)"/>
<path d="M729.033 418.875L730.805 418.875L730.805 416.948L729.033 416.948C717.575 416.948 708.252 407.582 708.252 396.071L708.252 361.192L706.334 361.192L706.334 396.071C706.334 408.645 716.517 418.875 729.033 418.875Z" fill="url(#paint39_linear_906_3)"/>
<path d="M729.033 414.379L730.805 414.379L730.805 412.452L729.033 412.452C720.043 412.452 712.727 405.103 712.727 396.071L712.727 361.192L710.809 361.192L710.809 396.071C710.811 406.166 718.987 414.379 729.033 414.379Z" fill="url(#paint40_linear_906_3)"/>
<path d="M729.033 409.884L730.805 409.884L730.805 407.957L729.033 407.957C722.51 407.957 717.205 402.625 717.205 396.074L717.205 361.192L715.286 361.192L715.286 396.071C715.286 403.688 721.454 409.884 729.033 409.884Z" fill="url(#paint41_linear_906_3)"/>
<path d="M729.033 405.386L730.805 405.386L730.805 403.459L729.033 403.459C724.978 403.459 721.68 400.144 721.68 396.071L721.68 361.192L719.762 361.192L719.762 396.071C719.762 401.207 723.922 405.386 729.033 405.386Z" fill="url(#paint42_linear_906_3)"/>
<path d="M657.868 416.612C676.143 416.612 691.012 401.675 691.012 383.316L691.012 361.192L689.094 361.192L689.094 383.316C689.093 400.612 675.085 414.685 657.868 414.685C640.65 414.685 626.642 400.612 626.642 383.316L626.642 361.192L624.724 361.192L624.724 383.316C624.724 401.675 639.592 416.612 657.868 416.612Z" fill="url(#paint43_linear_906_3)"/>
<path d="M657.868 412.117C673.675 412.117 686.537 399.196 686.537 383.316L686.537 361.192L684.618 361.192L684.618 383.316C684.618 398.133 672.619 410.189 657.868 410.189C643.118 410.189 631.119 398.135 631.119 383.316L631.119 361.192L629.201 361.192L629.201 383.316C629.201 399.196 642.06 412.117 657.868 412.117Z" fill="url(#paint44_linear_906_3)"/>
<path d="M657.868 407.619C671.208 407.619 682.059 396.717 682.059 383.316L682.059 361.192L680.141 361.192L680.141 383.316C680.141 395.654 670.15 405.692 657.868 405.692C645.585 405.692 635.594 395.654 635.594 383.316L635.594 361.192L633.676 361.192L633.676 383.316C633.676 396.717 644.53 407.619 657.868 407.619Z" fill="url(#paint45_linear_906_3)"/>
<path d="M657.868 403.123C668.738 403.123 677.584 394.239 677.584 383.316L677.584 361.192L675.666 361.192L675.666 383.316C675.666 393.176 667.682 401.196 657.868 401.196C648.055 401.196 640.069 393.176 640.069 383.316L640.069 361.192L638.151 361.192L638.151 383.316C638.153 394.236 646.997 403.123 657.868 403.123Z" fill="url(#paint46_linear_906_3)"/>
<path d="M657.868 398.625C666.271 398.625 673.107 391.758 673.107 383.316L673.107 361.192L671.189 361.192L671.189 383.316C671.189 390.695 665.213 396.698 657.868 396.698C650.523 396.698 644.547 390.695 644.547 383.316L644.547 361.192L642.628 361.192L642.628 383.316C642.628 391.758 649.465 398.625 657.868 398.625Z" fill="url(#paint47_linear_906_3)"/>
<path d="M657.868 394.129C663.803 394.129 668.632 389.279 668.632 383.316L668.632 361.192L666.714 361.192L666.714 383.316C666.714 388.216 662.745 392.202 657.868 392.202C652.99 392.202 649.022 388.216 649.022 383.316L649.022 361.192L647.103 361.192L647.103 383.316C647.106 389.279 651.934 394.129 657.868 394.129Z" fill="url(#paint48_linear_906_3)"/>
<path d="M682.036 485.061L685.84 485.061C687.763 485.061 688.802 485.061 689.389 485.004L689.389 485.061C694.501 485.061 698.661 480.882 698.661 475.747L698.661 449.293C698.661 444.155 694.501 439.978 689.389 439.978C684.278 439.978 680.118 444.155 680.118 449.293L680.118 507.865C680.118 513 684.278 517.179 689.389 517.179L730.805 517.179L730.805 515.252L689.389 515.252C685.334 515.252 682.036 511.937 682.036 507.865L682.036 449.293C682.036 445.218 685.334 441.905 689.389 441.905C693.445 441.905 696.743 445.218 696.743 449.293L696.743 475.747C696.743 479.819 693.445 483.134 689.389 483.134L688.747 483.134C687.003 483.134 682.036 483.134 682.036 483.134" fill="url(#paint49_linear_906_3)"/>
<path d="M677.561 507.865L677.561 449.293C677.561 442.74 682.868 437.41 689.389 437.41C695.911 437.41 701.218 442.742 701.218 449.293L701.218 475.747C701.218 482.3 695.911 487.63 689.389 487.63L688.747 487.63C687.003 487.63 682.291 487.63 682.291 487.63L682.036 487.63L682.036 489.557L685.84 489.557C687.763 489.557 688.802 489.557 689.389 489.499L689.389 489.557C696.971 489.557 703.136 483.361 703.136 475.747L703.136 449.293C703.136 441.677 696.969 435.483 689.389 435.483C681.81 435.483 675.643 441.679 675.643 449.293L675.643 507.865C675.643 515.479 681.81 521.675 689.389 521.675L730.805 521.675L730.805 519.748L689.389 519.748C682.866 519.75 677.561 514.418 677.561 507.865Z" fill="url(#paint50_linear_906_3)"/>
<path d="M673.084 507.865L673.084 449.292C673.084 440.26 680.399 432.912 689.389 432.912C698.38 432.912 705.695 440.26 705.695 449.292L705.695 475.747C705.695 484.779 698.38 492.128 689.389 492.128L688.747 492.128C686.982 492.128 682.168 492.128 682.168 492.128L682.036 492.128L682.036 494.055L685.779 494.055C687.739 494.055 688.795 494.055 689.389 493.997L689.389 494.055C699.438 494.055 707.614 485.842 707.614 475.747L707.614 449.292C707.614 439.197 699.438 430.985 689.389 430.985C679.341 430.985 671.165 439.197 671.165 449.292L671.165 507.865C671.165 517.96 679.341 526.173 689.389 526.173L730.805 526.173L730.805 524.246L689.389 524.246C680.399 524.246 673.084 516.897 673.084 507.865Z" fill="url(#paint51_linear_906_3)"/>
<path d="M668.608 507.865L668.608 449.293C668.608 437.782 677.931 428.416 689.389 428.416C700.848 428.416 710.171 437.782 710.171 449.293L710.171 475.747C710.171 487.258 700.848 496.624 689.389 496.624L688.747 496.624C686.984 496.624 682.183 496.624 682.183 496.624L682.036 496.621L682.036 498.538L685.779 498.551C687.74 498.551 688.795 498.551 689.389 498.491L689.389 498.551C701.906 498.551 712.089 488.321 712.089 475.747L712.089 449.293C712.089 436.719 701.906 426.489 689.389 426.489C676.873 426.489 666.69 436.719 666.69 449.293L666.69 507.865C666.69 520.439 676.873 530.669 689.389 530.669L730.805 530.669L730.805 528.741L689.389 528.741C677.931 528.744 668.608 519.378 668.608 507.865Z" fill="url(#paint52_linear_906_3)"/>
<path d="M664.131 507.865L664.131 449.293C664.131 435.301 675.462 423.918 689.389 423.918C703.317 423.918 714.648 435.303 714.648 449.293L714.648 475.747C714.648 489.737 703.317 501.121 689.389 501.121L688.747 501.121C686.982 501.121 682.168 501.121 682.168 501.121L682.036 501.121L682.036 503.048L685.779 503.048C687.74 503.048 688.795 503.048 689.389 502.989L689.389 503.048C704.373 503.048 716.566 490.8 716.566 475.747L716.566 449.293C716.566 434.238 704.375 421.991 689.389 421.991C674.404 421.991 662.213 434.238 662.213 449.293L662.213 507.865C662.213 522.918 674.404 535.166 689.389 535.166L730.805 535.166L730.805 533.239L689.389 533.239C675.462 533.239 664.131 521.857 664.131 507.865Z" fill="url(#paint53_linear_906_3)"/>
<path d="M659.656 507.865L659.656 449.293C659.656 432.822 672.994 419.423 689.389 419.423C705.785 419.423 719.123 432.822 719.123 449.293L719.123 475.747C719.123 492.218 705.785 505.617 689.389 505.617L688.747 505.617C686.935 505.617 682.036 505.6 682.036 505.6L682.036 507.527L688.214 507.544C688.74 507.544 689.115 507.544 689.389 507.525L689.389 507.544C706.843 507.544 721.041 493.281 721.041 475.747L721.041 449.293C721.041 431.759 706.843 417.496 689.389 417.496C671.936 417.496 657.738 431.761 657.738 449.293L657.738 507.865C657.738 525.399 671.936 539.662 689.389 539.662L730.805 539.662L730.805 537.735L689.389 537.735C672.994 537.735 659.656 524.336 659.656 507.865Z" fill="url(#paint54_linear_906_3)"/>
<path d="M649.546 660.381C649.546 665.516 653.706 669.695 658.819 669.695C663.931 669.695 668.091 665.516 668.091 660.381L668.091 581.249C668.091 564.777 681.431 551.377 697.829 551.377C714.226 551.377 727.566 564.777 727.566 581.249L727.566 584.84L727.566 602.565C727.566 605.386 728.827 607.912 730.805 609.623L730.805 606.776C729.974 605.58 729.485 604.13 729.485 602.565L729.485 584.84L729.485 581.249C729.485 563.714 715.284 549.45 697.829 549.45C680.373 549.45 666.173 563.714 666.173 581.249L666.173 660.381C666.173 664.453 662.875 667.768 658.819 667.768C654.762 667.768 651.464 664.453 651.464 660.381L651.464 580.072C650.84 580.528 650.201 580.96 649.546 581.368L649.546 660.381Z" fill="url(#paint55_linear_906_3)"/>
<path d="M645.212 660.237C645.212 667.852 651.37 674.048 658.938 674.048C666.507 674.048 672.664 667.852 672.664 660.237L672.664 581.105C672.664 567.113 683.977 555.73 697.883 555.73C711.79 555.73 723.103 567.113 723.103 581.105L723.103 584.697L723.103 602.421C723.103 607.861 726.251 612.562 730.805 614.812L730.805 612.624C727.346 610.549 725.018 606.759 725.018 602.421L725.018 584.697L725.018 581.105C725.018 566.05 712.846 553.803 697.883 553.803C682.922 553.803 670.748 566.05 670.748 581.105L670.748 660.237C670.748 666.791 665.449 672.121 658.938 672.121C652.424 672.121 647.127 666.789 647.127 660.237L647.127 582.656C646.5 582.971 645.862 583.268 645.212 583.542L645.212 660.237Z" fill="url(#paint56_linear_906_3)"/>
<path d="M640.336 660.092C640.336 670.188 648.536 678.401 658.614 678.401C668.693 678.401 676.893 670.188 676.893 660.092L676.893 580.962C676.893 569.451 686.243 560.085 697.735 560.085C709.227 560.085 718.578 569.451 718.578 580.962L718.578 584.553L718.578 602.278C718.578 610.249 723.692 617.042 730.805 619.549L730.805 617.489C724.775 615.074 720.502 609.167 720.502 602.275L720.502 584.551L720.502 580.96C720.502 568.386 710.289 558.156 697.735 558.156C685.182 558.156 674.969 568.386 674.969 580.96L674.969 660.09C674.969 669.123 667.632 676.472 658.614 676.472C649.597 676.472 642.26 669.123 642.26 660.09L642.26 584.339C641.626 584.542 640.985 584.724 640.336 584.885L640.336 660.092Z" fill="url(#paint57_linear_906_3)"/>
<path d="M636.002 660.493C636.002 673.067 646.199 683.298 658.732 683.298C671.265 683.298 681.461 673.067 681.461 660.493L681.461 581.361C681.461 572.329 688.786 564.979 697.789 564.979C706.792 564.979 714.117 572.329 714.117 581.361L714.117 584.952L714.117 602.677C714.117 613.153 721.197 621.995 730.805 624.658L730.805 622.654C722.269 620.051 716.038 612.082 716.038 602.677L716.038 584.952L716.038 581.361C716.038 571.266 707.851 563.052 697.789 563.052C687.727 563.052 679.541 571.266 679.541 581.361L679.541 660.493C679.541 672.004 670.205 681.371 658.732 681.371C647.258 681.371 637.923 672.004 637.923 660.493L637.923 585.816C637.288 585.919 636.648 586.011 636.002 586.075L636.002 660.493Z" fill="url(#paint58_linear_906_3)"/>
<path d="M690.541 660.202L690.541 581.07C690.541 576.996 693.834 573.683 697.883 573.683C701.933 573.683 705.226 576.996 705.226 581.07L705.226 584.662L705.226 602.387C705.226 617.846 716.252 630.761 730.805 633.599L730.805 631.64C717.313 628.832 707.141 616.783 707.141 602.389L707.141 584.664L707.141 581.073C707.141 575.935 702.987 571.758 697.883 571.758C692.78 571.758 688.626 575.935 688.626 581.073L688.626 660.205C688.626 676.676 675.308 690.076 658.938 690.076C642.568 690.076 629.25 676.676 629.25 660.205L629.25 585.949L627.335 585.949L627.335 600.725L627.335 602.652L627.335 660.205C627.335 677.739 641.511 692.003 658.938 692.003C676.365 692.003 690.541 677.737 690.541 660.202Z" fill="url(#paint59_linear_906_3)"/>
<path d="M631.669 586.092L631.669 660.348C631.669 675.401 643.857 687.65 658.84 687.65C673.822 687.65 686.012 675.401 686.012 660.348L686.012 581.216C686.012 574.662 691.317 569.332 697.839 569.332C704.361 569.332 709.665 574.662 709.665 581.216L709.665 584.807L709.665 602.532C709.665 615.502 718.716 626.382 730.805 629.148L730.805 627.169C719.785 624.445 711.583 614.435 711.583 602.532L711.583 584.807L711.583 581.216C711.583 573.599 705.417 567.405 697.839 567.405C690.259 567.405 684.094 573.601 684.094 581.216L684.094 660.348C684.094 674.338 672.766 685.723 658.84 685.723C644.915 685.723 633.586 674.34 633.586 660.348L633.586 586.075C633.374 586.08 633.161 586.092 632.948 586.092L631.669 586.092Z" fill="url(#paint60_linear_906_3)"/>
</g>
<rect x="748" y="594" width="93.7351" height="124.7" transform="rotate(-180 748 594)" fill="url(#paint61_linear_906_3)"/>
<g filter="url(#filter0_bi_906_3)">
<path d="M117.236 372.782V499H496.841V372.782H1225V190.535H981.383V0H8.95316V190.535H-111V372.782H117.236Z" fill="white" fill-opacity="0.03"/>
<path d="M117.736 372.782V372.282H117.236H-110.5V191.035H8.95316H9.45316V190.535V0.5H980.883V190.535V191.035H981.383H1224.5V372.282H496.841H496.341V372.782V498.5H117.736V372.782Z" stroke="#3A3A39"/>
</g>
<defs>
<filter id="filter0_bi_906_3" x="-119" y="-8" width="1352" height="515" filterUnits="userSpaceOnUse" color-interpolation-filters="sRGB">
<feFlood flood-opacity="0" result="BackgroundImageFix"/>
<feGaussianBlur in="BackgroundImageFix" stdDeviation="4"/>
<feComposite in2="SourceAlpha" operator="in" result="effect1_backgroundBlur_906_3"/>
<feBlend mode="normal" in="SourceGraphic" in2="effect1_backgroundBlur_906_3" result="shape"/>
<feColorMatrix in="SourceAlpha" type="matrix" values="0 0 0 0 0 0 0 0 0 0 0 0 0 0 0 0 0 0 127 0" result="hardAlpha"/>
<feOffset dy="4"/>
<feGaussianBlur stdDeviation="30"/>
<feComposite in2="hardAlpha" operator="arithmetic" k2="-1" k3="1"/>
<feColorMatrix type="matrix" values="0 0 0 0 0.120833 0 0 0 0 0.120833 0 0 0 0 0.120833 0 0 0 1 0"/>
<feBlend mode="normal" in2="shape" result="effect2_innerShadow_906_3"/>
</filter>
<linearGradient id="paint0_linear_906_3" x1="713.468" y1="-7.30465e-07" x2="713.468" y2="66.6766" gradientUnits="userSpaceOnUse">
<stop stop-color="#2E3192"/>
<stop offset="1" stop-color="#2484C6"/>
</linearGradient>
<linearGradient id="paint1_linear_906_3" x1="715.706" y1="-6.32637e-07" x2="715.706" y2="62.18" gradientUnits="userSpaceOnUse">
<stop stop-color="#2E3192"/>
<stop offset="1" stop-color="#2484C6"/>
</linearGradient>
<linearGradient id="paint2_linear_906_3" x1="717.944" y1="-5.34812e-07" x2="717.944" y2="57.6834" gradientUnits="userSpaceOnUse">
<stop stop-color="#2E3192"/>
<stop offset="1" stop-color="#2484C6"/>
</linearGradient>
<linearGradient id="paint3_linear_906_3" x1="720.182" y1="-4.36985e-07" x2="720.182" y2="53.1868" gradientUnits="userSpaceOnUse">
<stop stop-color="#2E3192"/>
<stop offset="1" stop-color="#2484C6"/>
</linearGradient>
<linearGradient id="paint4_linear_906_3" x1="722.42" y1="-3.39159e-07" x2="722.42" y2="48.6903" gradientUnits="userSpaceOnUse">
<stop stop-color="#2E3192"/>
<stop offset="1" stop-color="#2484C6"/>
</linearGradient>
<linearGradient id="paint5_linear_906_3" x1="724.658" y1="-2.41332e-07" x2="724.658" y2="44.1936" gradientUnits="userSpaceOnUse">
<stop stop-color="#2E3192"/>
<stop offset="1" stop-color="#2484C6"/>
</linearGradient>
<linearGradient id="paint6_linear_906_3" x1="652.366" y1="339.626" x2="652.366" y2="374.285" gradientUnits="userSpaceOnUse">
<stop stop-color="#2E3192"/>
<stop offset="1" stop-color="#2484C6"/>
</linearGradient>
<linearGradient id="paint7_linear_906_3" x1="654.604" y1="344.123" x2="654.604" y2="374.285" gradientUnits="userSpaceOnUse">
<stop stop-color="#2E3192"/>
<stop offset="1" stop-color="#2484C6"/>
</linearGradient>
<linearGradient id="paint8_linear_906_3" x1="656.842" y1="348.62" x2="656.842" y2="374.285" gradientUnits="userSpaceOnUse">
<stop stop-color="#2E3192"/>
<stop offset="1" stop-color="#2484C6"/>
</linearGradient>
<linearGradient id="paint9_linear_906_3" x1="659.08" y1="353.116" x2="659.08" y2="374.285" gradientUnits="userSpaceOnUse">
<stop stop-color="#2E3192"/>
<stop offset="1" stop-color="#2484C6"/>
</linearGradient>
<linearGradient id="paint10_linear_906_3" x1="661.319" y1="357.613" x2="661.319" y2="374.285" gradientUnits="userSpaceOnUse">
<stop stop-color="#2E3192"/>
<stop offset="1" stop-color="#2484C6"/>
</linearGradient>
<linearGradient id="paint11_linear_906_3" x1="663.557" y1="362.11" x2="663.557" y2="374.285" gradientUnits="userSpaceOnUse">
<stop stop-color="#2E3192"/>
<stop offset="1" stop-color="#2484C6"/>
</linearGradient>
<linearGradient id="paint12_linear_906_3" x1="657.243" y1="-1.44874e-06" x2="657.243" y2="55.4201" gradientUnits="userSpaceOnUse">
<stop stop-color="#2E3192"/>
<stop offset="1" stop-color="#2484C6"/>
</linearGradient>
<linearGradient id="paint13_linear_906_3" x1="657.243" y1="-1.25312e-06" x2="657.243" y2="50.9234" gradientUnits="userSpaceOnUse">
<stop stop-color="#2E3192"/>
<stop offset="1" stop-color="#2484C6"/>
</linearGradient>
<linearGradient id="paint14_linear_906_3" x1="657.243" y1="-1.05741e-06" x2="657.243" y2="46.4269" gradientUnits="userSpaceOnUse">
<stop stop-color="#2E3192"/>
<stop offset="1" stop-color="#2484C6"/>
</linearGradient>
<linearGradient id="paint15_linear_906_3" x1="657.243" y1="-8.61795e-07" x2="657.243" y2="41.9304" gradientUnits="userSpaceOnUse">
<stop stop-color="#2E3192"/>
<stop offset="1" stop-color="#2484C6"/>
</linearGradient>
<linearGradient id="paint16_linear_906_3" x1="657.243" y1="-6.66091e-07" x2="657.243" y2="37.4337" gradientUnits="userSpaceOnUse">
<stop stop-color="#2E3192"/>
<stop offset="1" stop-color="#2484C6"/>
</linearGradient>
<linearGradient id="paint17_linear_906_3" x1="657.243" y1="-4.70477e-07" x2="657.243" y2="32.9372" gradientUnits="userSpaceOnUse">
<stop stop-color="#2E3192"/>
<stop offset="1" stop-color="#2484C6"/>
</linearGradient>
<linearGradient id="paint18_linear_906_3" x1="696.131" y1="296.85" x2="696.131" y2="374.285" gradientUnits="userSpaceOnUse">
<stop stop-color="#2E3192"/>
<stop offset="1" stop-color="#2484C6"/>
</linearGradient>
<linearGradient id="paint19_linear_906_3" x1="698.544" y1="292.353" x2="698.544" y2="374.285" gradientUnits="userSpaceOnUse">
<stop stop-color="#2E3192"/>
<stop offset="1" stop-color="#2484C6"/>
</linearGradient>
<linearGradient id="paint20_linear_906_3" x1="701.042" y1="287.857" x2="701.042" y2="374.285" gradientUnits="userSpaceOnUse">
<stop stop-color="#2E3192"/>
<stop offset="1" stop-color="#2484C6"/>
</linearGradient>
<linearGradient id="paint21_linear_906_3" x1="703.73" y1="283.36" x2="703.73" y2="374.285" gradientUnits="userSpaceOnUse">
<stop stop-color="#2E3192"/>
<stop offset="1" stop-color="#2484C6"/>
</linearGradient>
<linearGradient id="paint22_linear_906_3" x1="707.079" y1="278.864" x2="707.079" y2="374.285" gradientUnits="userSpaceOnUse">
<stop stop-color="#2E3192"/>
<stop offset="1" stop-color="#2484C6"/>
</linearGradient>
<linearGradient id="paint23_linear_906_3" x1="710.02" y1="274.367" x2="710.02" y2="373.4" gradientUnits="userSpaceOnUse">
<stop stop-color="#2E3192"/>
<stop offset="1" stop-color="#2484C6"/>
</linearGradient>
<linearGradient id="paint24_linear_906_3" x1="704.836" y1="78.7869" x2="704.836" y2="155.988" gradientUnits="userSpaceOnUse">
<stop stop-color="#2E3192"/>
<stop offset="1" stop-color="#2484C6"/>
</linearGradient>
<linearGradient id="paint25_linear_906_3" x1="702.598" y1="74.2904" x2="702.598" y2="160.485" gradientUnits="userSpaceOnUse">
<stop stop-color="#2E3192"/>
<stop offset="1" stop-color="#2484C6"/>
</linearGradient>
<linearGradient id="paint26_linear_906_3" x1="700.36" y1="69.7938" x2="700.36" y2="164.981" gradientUnits="userSpaceOnUse">
<stop stop-color="#2E3192"/>
<stop offset="1" stop-color="#2484C6"/>
</linearGradient>
<linearGradient id="paint27_linear_906_3" x1="698.122" y1="65.2971" x2="698.122" y2="169.478" gradientUnits="userSpaceOnUse">
<stop stop-color="#2E3192"/>
<stop offset="1" stop-color="#2484C6"/>
</linearGradient>
<linearGradient id="paint28_linear_906_3" x1="695.884" y1="60.8005" x2="695.884" y2="173.974" gradientUnits="userSpaceOnUse">
<stop stop-color="#2E3192"/>
<stop offset="1" stop-color="#2484C6"/>
</linearGradient>
<linearGradient id="paint29_linear_906_3" x1="693.646" y1="56.3041" x2="693.646" y2="178.471" gradientUnits="userSpaceOnUse">
<stop stop-color="#2E3192"/>
<stop offset="1" stop-color="#2484C6"/>
</linearGradient>
<linearGradient id="paint30_linear_906_3" x1="689.55" y1="188.258" x2="689.55" y2="308.504" gradientUnits="userSpaceOnUse">
<stop stop-color="#2E3192"/>
<stop offset="1" stop-color="#2484C6"/>
</linearGradient>
<linearGradient id="paint31_linear_906_3" x1="687.382" y1="192.612" x2="687.382" y2="312.858" gradientUnits="userSpaceOnUse">
<stop stop-color="#2E3192"/>
<stop offset="1" stop-color="#2484C6"/>
</linearGradient>
<linearGradient id="paint32_linear_906_3" x1="684.945" y1="196.966" x2="684.945" y2="317.209" gradientUnits="userSpaceOnUse">
<stop stop-color="#2E3192"/>
<stop offset="1" stop-color="#2484C6"/>
</linearGradient>
<linearGradient id="paint33_linear_906_3" x1="682.778" y1="201.861" x2="682.778" y2="322.107" gradientUnits="userSpaceOnUse">
<stop stop-color="#2E3192"/>
<stop offset="1" stop-color="#2484C6"/>
</linearGradient>
<linearGradient id="paint34_linear_906_3" x1="678.444" y1="210.564" x2="678.444" y2="330.81" gradientUnits="userSpaceOnUse">
<stop stop-color="#2E3192"/>
<stop offset="1" stop-color="#2484C6"/>
</linearGradient>
<linearGradient id="paint35_linear_906_3" x1="680.612" y1="206.213" x2="680.612" y2="326.458" gradientUnits="userSpaceOnUse">
<stop stop-color="#2E3192"/>
<stop offset="1" stop-color="#2484C6"/>
</linearGradient>
<linearGradient id="paint36_linear_906_3" x1="706.132" y1="0" x2="706.132" y2="105.608" gradientUnits="userSpaceOnUse">
<stop/>
<stop offset="1" stop-opacity="0"/>
</linearGradient>
<linearGradient id="paint37_linear_906_3" x1="714.094" y1="361.192" x2="714.094" y2="427.869" gradientUnits="userSpaceOnUse">
<stop stop-color="#2E3192"/>
<stop offset="1" stop-color="#2484C6"/>
</linearGradient>
<linearGradient id="paint38_linear_906_3" x1="716.332" y1="361.192" x2="716.332" y2="423.372" gradientUnits="userSpaceOnUse">
<stop stop-color="#2E3192"/>
<stop offset="1" stop-color="#2484C6"/>
</linearGradient>
<linearGradient id="paint39_linear_906_3" x1="718.57" y1="361.192" x2="718.57" y2="418.876" gradientUnits="userSpaceOnUse">
<stop stop-color="#2E3192"/>
<stop offset="1" stop-color="#2484C6"/>
</linearGradient>
<linearGradient id="paint40_linear_906_3" x1="720.808" y1="361.192" x2="720.808" y2="414.379" gradientUnits="userSpaceOnUse">
<stop stop-color="#2E3192"/>
<stop offset="1" stop-color="#2484C6"/>
</linearGradient>
<linearGradient id="paint41_linear_906_3" x1="723.046" y1="361.192" x2="723.046" y2="409.883" gradientUnits="userSpaceOnUse">
<stop stop-color="#2E3192"/>
<stop offset="1" stop-color="#2484C6"/>
</linearGradient>
<linearGradient id="paint42_linear_906_3" x1="725.284" y1="361.192" x2="725.284" y2="405.386" gradientUnits="userSpaceOnUse">
<stop stop-color="#2E3192"/>
<stop offset="1" stop-color="#2484C6"/>
</linearGradient>
<linearGradient id="paint43_linear_906_3" x1="657.868" y1="361.192" x2="657.868" y2="416.612" gradientUnits="userSpaceOnUse">
<stop stop-color="#2E3192"/>
<stop offset="1" stop-color="#2484C6"/>
</linearGradient>
<linearGradient id="paint44_linear_906_3" x1="657.869" y1="361.192" x2="657.869" y2="412.116" gradientUnits="userSpaceOnUse">
<stop stop-color="#2E3192"/>
<stop offset="1" stop-color="#2484C6"/>
</linearGradient>
<linearGradient id="paint45_linear_906_3" x1="657.869" y1="361.192" x2="657.869" y2="407.619" gradientUnits="userSpaceOnUse">
<stop stop-color="#2E3192"/>
<stop offset="1" stop-color="#2484C6"/>
</linearGradient>
<linearGradient id="paint46_linear_906_3" x1="657.869" y1="361.192" x2="657.869" y2="403.123" gradientUnits="userSpaceOnUse">
<stop stop-color="#2E3192"/>
<stop offset="1" stop-color="#2484C6"/>
</linearGradient>
<linearGradient id="paint47_linear_906_3" x1="657.869" y1="361.192" x2="657.869" y2="398.626" gradientUnits="userSpaceOnUse">
<stop stop-color="#2E3192"/>
<stop offset="1" stop-color="#2484C6"/>
</linearGradient>
<linearGradient id="paint48_linear_906_3" x1="657.869" y1="361.192" x2="657.869" y2="394.13" gradientUnits="userSpaceOnUse">
<stop stop-color="#2E3192"/>
<stop offset="1" stop-color="#2484C6"/>
</linearGradient>
<linearGradient id="paint49_linear_906_3" x1="705.461" y1="439.979" x2="705.461" y2="517.18" gradientUnits="userSpaceOnUse">
<stop stop-color="#2E3192"/>
<stop offset="1" stop-color="#2484C6"/>
</linearGradient>
<linearGradient id="paint50_linear_906_3" x1="703.223" y1="435.483" x2="703.223" y2="521.677" gradientUnits="userSpaceOnUse">
<stop stop-color="#2E3192"/>
<stop offset="1" stop-color="#2484C6"/>
</linearGradient>
<linearGradient id="paint51_linear_906_3" x1="700.985" y1="430.986" x2="700.985" y2="526.173" gradientUnits="userSpaceOnUse">
<stop stop-color="#2E3192"/>
<stop offset="1" stop-color="#2484C6"/>
</linearGradient>
<linearGradient id="paint52_linear_906_3" x1="698.747" y1="426.489" x2="698.747" y2="530.67" gradientUnits="userSpaceOnUse">
<stop stop-color="#2E3192"/>
<stop offset="1" stop-color="#2484C6"/>
</linearGradient>
<linearGradient id="paint53_linear_906_3" x1="696.509" y1="421.993" x2="696.509" y2="535.167" gradientUnits="userSpaceOnUse">
<stop stop-color="#2E3192"/>
<stop offset="1" stop-color="#2484C6"/>
</linearGradient>
<linearGradient id="paint54_linear_906_3" x1="694.271" y1="417.496" x2="694.271" y2="539.663" gradientUnits="userSpaceOnUse">
<stop stop-color="#2E3192"/>
<stop offset="1" stop-color="#2484C6"/>
</linearGradient>
<linearGradient id="paint55_linear_906_3" x1="690.175" y1="549.451" x2="690.175" y2="669.696" gradientUnits="userSpaceOnUse">
<stop stop-color="#2E3192"/>
<stop offset="1" stop-color="#2484C6"/>
</linearGradient>
<linearGradient id="paint56_linear_906_3" x1="688.008" y1="553.804" x2="688.008" y2="674.05" gradientUnits="userSpaceOnUse">
<stop stop-color="#2E3192"/>
<stop offset="1" stop-color="#2484C6"/>
</linearGradient>
<linearGradient id="paint57_linear_906_3" x1="685.571" y1="558.158" x2="685.571" y2="678.402" gradientUnits="userSpaceOnUse">
<stop stop-color="#2E3192"/>
<stop offset="1" stop-color="#2484C6"/>
</linearGradient>
<linearGradient id="paint58_linear_906_3" x1="683.403" y1="563.054" x2="683.403" y2="683.299" gradientUnits="userSpaceOnUse">
<stop stop-color="#2E3192"/>
<stop offset="1" stop-color="#2484C6"/>
</linearGradient>
<linearGradient id="paint59_linear_906_3" x1="679.07" y1="571.757" x2="679.07" y2="692.002" gradientUnits="userSpaceOnUse">
<stop stop-color="#2E3192"/>
<stop offset="1" stop-color="#2484C6"/>
</linearGradient>
<linearGradient id="paint60_linear_906_3" x1="681.237" y1="567.405" x2="681.237" y2="687.651" gradientUnits="userSpaceOnUse">
<stop stop-color="#2E3192"/>
<stop offset="1" stop-color="#2484C6"/>
</linearGradient>
<linearGradient id="paint61_linear_906_3" x1="794.868" y1="594" x2="794.868" y2="718.7" gradientUnits="userSpaceOnUse">
<stop/>
<stop offset="1" stop-opacity="0"/>
</linearGradient>
<clipPath id="clip0_906_3">
<rect width="374.316" height="61.8652" fill="white" transform="translate(726.128) rotate(90)"/>
</clipPath>
<clipPath id="clip1_906_3">
<rect width="227.464" height="61.8652" fill="white" transform="translate(726.754 361.192) rotate(90)"/>
</clipPath>
</defs>
</svg>
