<svg width="125" height="218" viewBox="0 0 125 218" fill="none" xmlns="http://www.w3.org/2000/svg">
<g clip-path="url(#clip0_42_2242)">
<path d="M85.4694 2.00093H85.602C87.1306 2.02817 88.5843 2.65034 89.6489 3.74029L89.6561 3.74752C102.008 16.2642 112.01 21.8364 122.696 23.2731C133.314 24.7024 145.328 21.8395 161.019 15.5132C164.847 13.9696 169.01 16.7886 169 20.8917V20.8959C168.977 74.2799 167.403 112.197 156.347 142.718C145.359 173.051 124.427 195.308 88.3139 215.279C86.5642 216.24 84.437 216.24 82.6869 215.279C46.5683 195.305 25.641 173.031 14.6528 142.718L14.6527 142.718C3.59335 112.215 2.03139 74.3603 2 21.0468L2 21.0461C1.99603 16.9567 6.13769 14.1435 9.9593 15.6661C25.6614 21.9324 37.6837 24.7445 48.3081 23.303L48.3085 23.303C59.0013 21.8501 69.0123 16.265 81.3745 3.74905L81.3809 3.74257C82.4691 2.63069 83.9437 2.00093 85.4694 2.00093Z" stroke="url(#paint0_linear_42_2242)" stroke-width="4"/>
<path d="M85.4768 29.2507H85.5725L150.146 43.1235C150.129 83.6338 148.953 112.704 140.489 136.179L138.608 135.5C138.608 135.5 138.608 135.5 138.608 135.5C130.348 158.405 114.619 175.231 87.3876 190.361C86.2129 191.008 84.7855 191.008 83.6107 190.36C56.3767 175.228 40.651 158.389 32.3921 135.5L32.3921 135.5C24.0627 112.42 22.8773 83.7479 22.8535 43.2372L22.8535 43.2365C22.8509 40.4591 25.6432 38.5721 28.2002 39.5957C40.0913 44.3631 49.281 46.5405 57.446 45.4276L57.4464 45.4275C65.6803 44.3035 73.3434 39.9809 82.7309 30.4324L82.7373 30.4259C83.4716 29.6721 84.461 29.2507 85.4768 29.2507Z" stroke="url(#paint1_linear_42_2242)" stroke-width="4"/>
<path d="M86.5868 54.4038H86.5267C85.995 54.4038 85.4665 54.6255 85.0684 55.0356L85.0621 55.0421C78.5004 61.742 73.0679 64.8523 67.1702 65.6604L67.1698 65.6605C61.3413 66.458 54.8424 64.8899 46.5714 61.5611C45.2143 61.0166 43.7059 62.0167 43.7074 63.5326L43.7074 63.5333C43.7239 91.7534 44.5516 111.609 50.2872 127.563L50.2873 127.563C55.9532 143.326 66.7375 154.948 85.5319 165.431C86.161 165.779 86.9247 165.779 87.5536 165.431C106.346 154.949 117.132 143.337 122.798 127.564C128.532 111.6 129.366 91.7107 129.378 63.4536V63.4495C129.382 61.9285 127.865 60.9261 126.505 61.4791C118.241 64.8392 111.746 66.4358 105.919 65.6448L86.5868 54.4038ZM86.5868 54.4038C87.1327 54.4157 87.651 54.6403 88.0321 55.0338L88.0392 55.041C94.5957 61.7414 100.024 64.8454 105.919 65.6448L86.5868 54.4038Z" stroke="url(#paint2_linear_42_2242)" stroke-width="4"/>
<path d="M87.0067 76.2645H86.9798C86.8621 76.2645 86.7354 76.3135 86.6362 76.4142L86.6299 76.4206L86.6298 76.4206C82.5506 80.5265 79.0822 82.523 75.249 83.0408L75.2486 83.0409C71.4851 83.5485 67.3604 82.5415 62.2742 80.5236L63.0118 78.6646L62.2753 80.524C61.9218 80.384 61.5817 80.6509 61.582 80.9698L61.582 80.9706C61.5921 97.998 62.1057 109.819 65.5552 119.278L65.5553 119.278C68.9345 128.545 75.3639 135.419 86.7376 141.673C86.8934 141.758 87.0858 141.758 87.2415 141.673C98.6139 135.42 105.045 128.552 108.424 119.278C111.872 109.814 112.39 97.9721 112.397 80.9227L112.397 80.9185C112.398 80.5992 112.057 80.3311 111.702 80.4732C106.621 82.5097 102.498 83.5352 98.7336 83.0316L87.0067 76.2645ZM87.0067 76.2645C87.1434 76.269 87.2656 76.3249 87.3517 76.4125L87.3516 76.4125L87.3588 76.4197C91.435 80.5261 94.9011 82.5192 98.7332 83.0315L87.0067 76.2645Z" stroke="url(#paint3_linear_42_2242)" stroke-width="4"/>
</g>
<defs>
<linearGradient id="paint0_linear_42_2242" x1="0.000121667" y1="108.999" x2="171.001" y2="108.999" gradientUnits="userSpaceOnUse">
<stop stop-color="#2E3192"/>
<stop offset="1" stop-color="#2484C6"/>
</linearGradient>
<linearGradient id="paint1_linear_42_2242" x1="20.8536" y1="110.048" x2="150.147" y2="110.048" gradientUnits="userSpaceOnUse">
<stop stop-color="#2E3192"/>
<stop offset="1" stop-color="#2484C6"/>
</linearGradient>
<linearGradient id="paint2_linear_42_2242" x1="41.7075" y1="110.047" x2="131.378" y2="110.047" gradientUnits="userSpaceOnUse">
<stop stop-color="#2E3192"/>
<stop offset="1" stop-color="#2484C6"/>
</linearGradient>
<linearGradient id="paint3_linear_42_2242" x1="59.582" y1="109" x2="114.397" y2="109" gradientUnits="userSpaceOnUse">
<stop stop-color="#2E3192"/>
<stop offset="1" stop-color="#2484C6"/>
</linearGradient>
<clipPath id="clip0_42_2242">
<rect width="125" height="218" fill="white"/>
</clipPath>
</defs>
</svg>
