<svg width="143" height="117" viewBox="0 0 143 117" fill="none" xmlns="http://www.w3.org/2000/svg">
<path d="M136.5 0H84.5003C80.9122 0 78.0002 2.91193 78.0002 6.50002V58.5002C78.0002 62.0883 80.9122 65.0002 84.5003 65.0002H129.57C126.778 88.2536 109.06 104 84.5003 104C80.9122 104 78.0002 106.912 78.0002 110.5C78.0002 114.088 80.9122 117 84.5003 117C118.398 117 143 92.3976 143 58.5002V6.50002C143 2.91193 140.089 0 136.5 0Z" fill="url(#paint0_linear_52_7)"/>
<path d="M58.5002 0H6.50002C2.91193 0 0 2.91193 0 6.50002V58.5002C0 62.0883 2.91193 65.0002 6.50002 65.0002H51.5693C48.7778 88.2536 31.0552 104 6.50002 104C2.91193 104 0 106.912 0 110.5C0 114.088 2.91193 117 6.50002 117C40.3974 117 65.0002 92.3976 65.0002 58.5002V6.50002C65.0002 2.91193 62.0883 0 58.5002 0Z" fill="url(#paint1_linear_52_7)"/>
<defs>
<linearGradient id="paint0_linear_52_7" x1="81.8238" y1="42.2219" x2="141.202" y2="42.6343" gradientUnits="userSpaceOnUse">
<stop stop-color="#2D3393"/>
<stop offset="1" stop-color="#247FC3"/>
</linearGradient>
<linearGradient id="paint1_linear_52_7" x1="3.82354" y1="42.2219" x2="63.2022" y2="42.6343" gradientUnits="userSpaceOnUse">
<stop stop-color="#2D3393"/>
<stop offset="1" stop-color="#247FC3"/>
</linearGradient>
</defs>
</svg>
