<svg width="473" height="827" viewBox="0 0 473 827" fill="none" xmlns="http://www.w3.org/2000/svg">
<path d="M473 826.051L473 -2L0 -2.00002L-3.61953e-05 826.051L473 826.051Z" fill="#020101"/>
<path d="M469.065 145.49L473 145.49L473 141.228L469.065 141.228C432.639 141.228 403.005 111.588 403.005 75.1538L403.005 -2L398.744 -2L398.744 75.1538C398.744 113.939 430.293 145.49 469.065 145.49Z" fill="url(#paint0_linear_6_108)"/>
<path d="M469.065 135.546L473 135.546L473 131.283L469.065 131.283C438.121 131.283 412.948 106.104 412.948 75.1538L412.948 -2L408.686 -2L408.686 75.1538C408.691 108.456 435.775 135.546 469.065 135.546Z" fill="url(#paint1_linear_6_108)"/>
<path d="M469.065 125.596L473 125.596L473 121.334L469.065 121.334C443.608 121.334 422.895 100.616 422.895 75.1538L422.895 -2L418.633 -2L418.633 75.1538C418.633 102.968 441.257 125.596 469.065 125.596Z" fill="url(#paint2_linear_6_108)"/>
<path d="M469.065 115.652L473 115.652L473 111.389L469.065 111.389C449.09 111.389 432.838 95.133 432.838 75.1538L432.838 -2L428.576 -2L428.576 75.1538C428.581 97.4843 446.744 115.652 469.065 115.652Z" fill="url(#paint3_linear_6_108)"/>
<path d="M469.065 105.707L473 105.707L473 101.444L469.065 101.444C454.572 101.444 442.785 89.6497 442.785 75.1585L442.785 -2L438.523 -2L438.523 75.1538C438.523 92.0011 452.226 105.707 469.065 105.707Z" fill="url(#paint4_linear_6_108)"/>
<path d="M469.065 95.7575L473 95.7575L473 91.4949L469.065 91.4948C460.054 91.4948 452.727 84.1617 452.727 75.1538L452.727 -2L448.465 -2L448.465 75.1538C448.465 86.5131 457.708 95.7575 469.065 95.7575Z" fill="url(#paint5_linear_6_108)"/>
<path d="M222.036 700.664L222.036 582.175L217.774 582.175L217.774 700.664C217.774 737.097 188.14 766.737 151.715 766.737L61.8022 766.737L61.8022 771L151.715 771C190.491 771 222.036 739.449 222.036 700.664Z" fill="url(#paint6_linear_6_108)"/>
<path d="M212.093 700.664L212.093 582.175L207.831 582.175L207.831 700.664C207.831 731.614 182.658 756.793 151.715 756.793L61.8022 756.793L61.8022 761.055L151.715 761.055C185.009 761.055 212.093 733.961 212.093 700.664Z" fill="url(#paint7_linear_6_108)"/>
<path d="M202.151 700.664L202.151 582.175L197.889 582.175L197.889 700.664C197.889 726.126 177.176 746.843 151.719 746.843L61.8069 746.843L61.8069 751.106L151.715 751.106C179.527 751.106 202.151 728.478 202.151 700.664Z" fill="url(#paint8_linear_6_108)"/>
<path d="M192.203 700.664L192.203 582.175L187.942 582.175L187.942 700.664C187.942 720.643 171.689 736.899 151.715 736.899L61.8022 736.899L61.8022 741.161L151.715 741.161C174.04 741.161 192.203 722.994 192.203 700.664Z" fill="url(#paint9_linear_6_108)"/>
<path d="M182.261 700.664L182.261 582.175L177.999 582.175L177.999 700.664C177.999 715.16 166.212 726.949 151.719 726.949L61.8069 726.949L61.8069 731.212L151.715 731.212C168.558 731.212 182.261 717.511 182.261 700.664Z" fill="url(#paint10_linear_6_108)"/>
<path d="M172.314 700.664L172.314 582.175L168.052 582.175L168.052 700.664C168.052 709.676 160.725 717.005 151.715 717.005L61.8022 717.005L61.8022 721.267L151.715 721.267C163.076 721.267 172.314 712.023 172.314 700.664Z" fill="url(#paint11_linear_6_108)"/>
<path d="M208.834 272.003L310.666 272.003L310.666 267.74L208.834 267.74C170.058 267.74 138.513 299.292 138.513 338.077L138.513 441.502L142.775 441.502L142.775 338.077C142.775 301.643 172.408 272.003 208.834 272.003Z" fill="url(#paint12_linear_6_108)"/>
<path d="M208.834 281.952L310.666 281.952L310.666 277.69L208.834 277.69C175.544 277.69 148.456 304.78 148.456 338.082L148.456 441.507L152.718 441.507L152.718 338.077C152.718 307.126 177.891 281.952 208.834 281.952Z" fill="url(#paint13_linear_6_108)"/>
<path d="M208.834 291.897L310.666 291.897L310.666 287.634L208.834 287.634C181.027 287.634 158.403 310.263 158.403 338.077L158.403 441.502L162.665 441.502L162.665 338.077C162.665 312.614 183.377 291.897 208.834 291.897Z" fill="url(#paint14_linear_6_108)"/>
<path d="M208.834 301.842L310.666 301.842L310.666 297.579L208.834 297.579C186.509 297.579 168.345 315.746 168.345 338.077L168.345 441.502L172.607 441.502L172.607 338.077C172.607 318.098 188.859 301.842 208.834 301.842Z" fill="url(#paint15_linear_6_108)"/>
<path d="M208.834 311.791L310.666 311.791L310.666 307.528L208.834 307.528C191.991 307.528 178.293 321.234 178.293 338.077L178.293 441.502L182.554 441.502L182.554 338.077C182.55 323.581 194.342 311.791 208.834 311.791Z" fill="url(#paint16_linear_6_108)"/>
<path d="M208.834 321.736L310.666 321.736L310.666 317.473L208.834 317.473C197.478 317.473 188.235 326.713 188.235 338.077L188.235 441.502L192.497 441.502L192.497 338.077C192.497 329.064 199.824 321.736 208.834 321.736Z" fill="url(#paint17_linear_6_108)"/>
<path d="M81.9757 577.912C45.5499 577.912 15.9165 548.272 15.9165 511.838C15.9165 475.405 45.5499 445.765 81.9757 445.765L255.552 445.765C266.909 445.765 276.152 436.525 276.152 425.161C276.152 413.802 266.909 404.557 255.552 404.557L192.506 404.557L192.506 408.82L255.552 408.82C264.563 408.82 271.89 416.153 271.89 425.161C271.89 434.174 264.563 441.502 255.552 441.502L81.9757 441.502C43.1991 441.502 11.6548 473.058 11.6548 511.838C11.6548 550.623 43.1991 582.175 81.9757 582.175L242.767 582.175L242.767 577.912L81.9757 577.912Z" fill="url(#paint18_linear_6_108)"/>
<path d="M81.9756 567.967C51.032 567.967 25.8589 542.789 25.8589 511.838C25.8589 480.893 51.032 455.709 81.9756 455.709L255.552 455.709C272.396 455.709 286.094 442.004 286.094 425.161C286.094 408.319 272.391 394.613 255.552 394.613L192.506 394.613L192.506 398.875L255.552 398.875C270.045 398.875 281.832 410.67 281.832 425.161C281.832 439.657 270.04 451.447 255.552 451.447L81.9756 451.447C48.6811 451.447 21.5971 478.541 21.5971 511.838C21.5971 545.14 48.6811 572.23 81.9756 572.23L242.767 572.23L242.767 567.967L81.9756 567.967Z" fill="url(#paint19_linear_6_108)"/>
<path d="M81.9756 558.018C56.5188 558.018 35.8061 537.301 35.8061 511.838C35.8061 486.376 56.5188 465.659 81.9756 465.659L255.552 465.659C277.878 465.659 296.041 447.492 296.041 425.161C296.041 402.831 277.878 384.663 255.552 384.663L192.506 384.663L192.506 388.926L255.552 388.926C275.527 388.926 291.78 405.182 291.78 425.161C291.78 445.14 275.527 461.396 255.552 461.396L81.9756 461.396C54.168 461.396 31.5444 484.025 31.5444 511.838C31.5444 539.652 54.168 562.281 81.9756 562.281L242.767 562.281L242.767 558.018L81.9756 558.018Z" fill="url(#paint20_linear_6_108)"/>
<path d="M81.9756 548.073C62.0009 548.073 45.7485 531.818 45.7485 511.838C45.7485 491.859 62.0009 475.603 81.9756 475.603L255.552 475.603C283.36 475.603 305.984 452.975 305.984 425.161C305.984 397.347 283.36 374.719 255.552 374.719L192.506 374.719L192.506 378.981L255.552 378.981C281.009 378.981 301.722 399.699 301.722 425.161C301.722 450.624 281.009 471.341 255.552 471.341L81.9756 471.341C59.6501 471.341 41.4869 489.508 41.4869 511.838C41.4869 534.169 59.65 552.336 81.9756 552.336L242.767 552.336L242.767 548.073L81.9756 548.073Z" fill="url(#paint21_linear_6_108)"/>
<path d="M81.9757 538.124C67.4829 538.124 55.6958 526.33 55.6958 511.838C55.6958 497.343 67.483 485.553 81.9757 485.553L255.552 485.553C288.842 485.553 315.931 458.463 315.931 425.161C315.931 391.864 288.847 364.769 255.552 364.769L192.506 364.769L192.506 369.032L255.552 369.032C286.496 369.032 311.669 394.211 311.669 425.161C311.669 456.112 286.496 481.29 255.552 481.29L81.9757 481.29C65.1321 481.29 51.4341 494.996 51.4341 511.838C51.4341 528.686 65.1369 542.387 81.9757 542.387L242.767 542.387L242.767 538.124L81.9757 538.124Z" fill="url(#paint22_linear_6_108)"/>
<path d="M81.9756 528.179C72.965 528.179 65.6382 520.851 65.6382 511.838C65.6382 502.831 72.965 495.497 81.9756 495.497L255.552 495.497C294.329 495.497 325.873 463.946 325.873 425.161C325.873 386.376 294.329 354.825 255.552 354.825L192.506 354.825L192.506 359.087L255.552 359.087C291.978 359.087 321.612 388.727 321.612 425.161C321.612 461.595 291.978 491.235 255.552 491.235L81.9756 491.235C70.6142 491.235 61.3765 500.479 61.3765 511.838C61.3765 523.202 70.6142 532.442 81.9756 532.442L242.767 532.442L242.767 528.18L81.9756 528.179Z" fill="url(#paint23_linear_6_108)"/>
<path d="M201.437 819.602C201.437 783.168 231.07 753.528 267.496 753.528L403.067 753.528L403.067 749.266L267.496 749.266C228.719 749.266 197.175 780.817 197.175 819.602C197.175 821.736 197.288 823.846 197.473 825.932L201.744 825.932C201.55 823.851 201.437 821.736 201.437 819.602Z" fill="url(#paint24_linear_6_108)"/>
<path d="M211.384 819.602C211.384 788.652 236.557 763.473 267.5 763.473L403.067 763.473L403.067 759.21L267.496 759.21C234.206 759.21 207.117 786.3 207.117 819.602C207.117 821.741 207.235 823.851 207.448 825.932L211.743 825.932C211.516 823.851 211.384 821.745 211.384 819.602Z" fill="url(#paint25_linear_6_108)"/>
<path d="M221.326 819.602C221.326 794.14 242.039 773.422 267.496 773.422L403.067 773.422L403.067 769.16L267.496 769.16C239.688 769.16 217.064 791.788 217.064 819.602C217.064 821.745 217.216 823.855 217.476 825.932L221.771 825.932C221.487 823.86 221.326 821.75 221.326 819.602Z" fill="url(#paint26_linear_6_108)"/>
<path d="M231.273 819.602C231.273 799.623 247.526 783.367 267.5 783.367L403.067 783.367L403.067 779.104L267.496 779.104C245.17 779.104 227.007 797.272 227.007 819.602C227.007 821.755 227.182 823.869 227.508 825.932L231.836 825.932C231.472 823.874 231.273 821.764 231.273 819.602Z" fill="url(#paint27_linear_6_108)"/>
<path d="M241.216 819.602C241.216 805.106 253.008 793.316 267.496 793.316L403.067 793.316L403.067 789.054L267.496 789.054C250.652 789.054 236.954 802.76 236.954 819.602C236.954 821.774 237.191 823.888 237.621 825.932L242.015 825.932C241.514 823.903 241.216 821.788 241.216 819.602Z" fill="url(#paint28_linear_6_108)"/>
<path d="M251.163 819.602C251.163 810.589 258.49 803.261 267.5 803.261L403.067 803.261L403.067 798.998L267.496 798.998C256.139 798.998 246.897 808.238 246.897 819.602C246.897 821.811 247.256 823.936 247.899 825.932L252.431 825.932C251.617 823.983 251.163 821.845 251.163 819.602Z" fill="url(#paint29_linear_6_108)"/>
<path d="M94.6 247.089C58.1743 247.089 28.5408 217.449 28.5408 181.016C28.5408 144.582 58.1743 114.942 94.6 114.942L179.499 114.942L179.499 110.679L94.6 110.679C55.8235 110.679 24.2791 142.231 24.2791 181.016C24.2791 219.801 55.8282 251.352 94.6 251.352L310.666 251.352L310.666 247.089L94.6 247.089Z" fill="url(#paint30_linear_6_108)"/>
<path d="M94.6 237.14C63.6563 237.14 38.4833 211.961 38.4833 181.011C38.4833 150.065 63.6563 124.882 94.6 124.882L179.499 124.882L179.499 120.619L94.6 120.619C61.3103 120.619 34.2215 147.714 34.2215 181.011C34.2215 214.313 61.3055 241.403 94.6 241.403L310.666 241.403L310.666 237.14L94.6 237.14Z" fill="url(#paint31_linear_6_108)"/>
<path d="M94.6 227.195C69.1431 227.195 48.4305 206.478 48.4305 181.016C48.4305 155.553 69.1431 134.836 94.6 134.836L179.499 134.836L179.499 130.573L94.6 130.573C66.7923 130.573 44.1687 153.202 44.1687 181.016C44.1687 208.829 66.7923 231.458 94.6 231.458L310.666 231.458L310.666 227.195L94.6 227.195Z" fill="url(#paint32_linear_6_108)"/>
<path d="M94.6 217.246C74.6252 217.246 58.3729 200.99 58.3729 181.011C58.3729 161.032 74.6252 144.776 94.6 144.776L179.499 144.776L179.499 140.513L94.6 140.513C72.2744 140.513 54.1112 158.68 54.1112 181.011C54.1112 203.341 72.2744 221.509 94.6 221.509L310.666 221.509L310.666 217.246L94.6 217.246Z" fill="url(#paint33_linear_6_108)"/>
<path d="M94.6 207.301C80.1073 207.301 68.3201 195.512 68.3201 181.016C68.3201 166.52 80.1073 154.73 94.6 154.73L179.499 154.73L179.499 150.467L94.6 150.467C77.7612 150.467 64.0584 164.173 64.0584 181.016C64.0584 197.863 77.7612 211.564 94.6 211.564L310.666 211.564L310.666 207.301L94.6 207.301Z" fill="url(#paint34_linear_6_108)"/>
<path d="M94.6 197.357C85.5941 197.357 78.2626 190.028 78.2626 181.016C78.2626 172.008 85.5941 164.675 94.6 164.675L179.499 164.675L179.499 160.412L94.6 160.412C83.2433 160.412 74.0009 169.656 74.0009 181.016C74.0009 192.38 83.2433 201.619 94.6 201.619L310.666 201.619L310.666 197.357L94.6 197.357Z" fill="url(#paint35_linear_6_108)"/>
<path d="M229.197 83.9678L229.197 197.342L233.459 197.342L233.459 83.9678C233.459 45.1827 201.914 13.6314 163.138 13.6314L3.05176e-05 13.6314L3.03313e-05 17.8941L163.138 17.8941C199.563 17.8941 229.197 47.5388 229.197 83.9678Z" fill="url(#paint36_linear_6_108)"/>
<path d="M219.254 83.9678L219.254 197.342L223.516 197.342L223.516 83.9678C223.516 50.6707 196.432 23.5761 163.138 23.5761L4.57764e-05 23.576L4.559e-05 27.8387L163.138 27.8387C194.081 27.8435 219.254 53.0221 219.254 83.9678Z" fill="url(#paint37_linear_6_108)"/>
<path d="M209.312 83.9678L209.312 197.342L213.574 197.342L213.574 83.9678C213.574 56.154 190.95 33.5254 163.142 33.5254L4.57764e-05 33.5254L4.559e-05 37.7881L163.138 37.7881C188.599 37.7881 209.312 58.5053 209.312 83.9678Z" fill="url(#paint38_linear_6_108)"/>
<path d="M199.365 83.9678L199.365 197.342L203.626 197.342L203.626 83.9678C203.626 61.6373 185.463 43.4701 163.138 43.4701L3.05176e-05 43.4701L3.03313e-05 47.7327L163.138 47.7328C183.112 47.7375 199.365 63.9886 199.365 83.9678Z" fill="url(#paint39_linear_6_108)"/>
<path d="M189.422 83.9678L189.422 197.342L193.684 197.342L193.684 83.9678C193.684 67.1253 179.981 53.4195 163.142 53.4195L3.05176e-05 53.4195L3.03313e-05 57.6821L163.138 57.6821C177.63 57.6821 189.422 69.4766 189.422 83.9678Z" fill="url(#paint40_linear_6_108)"/>
<path d="M179.475 83.9678L179.475 197.342L183.737 197.342L183.737 83.9678C183.737 72.6086 174.494 63.3641 163.138 63.3641L6.10352e-05 63.3641L6.08488e-05 67.6268L163.138 67.6268C172.148 67.6268 179.475 74.9599 179.475 83.9678Z" fill="url(#paint41_linear_6_108)"/>
<path d="M56.5945 332.381C65.6051 332.381 72.9319 339.709 72.9319 348.722C72.9319 357.734 65.6051 365.063 56.5945 365.063L5.40262e-08 365.063L-1.32301e-07 369.325L56.5945 369.325C67.9512 369.325 77.1936 360.081 77.1936 348.722C77.1936 337.362 67.9512 328.118 56.5945 328.118L1.66893e-06 328.118L1.4826e-06 332.381L56.5945 332.381Z" fill="url(#paint42_linear_6_108)"/>
<path d="M56.5944 322.431C71.0872 322.431 82.8743 334.226 82.8743 348.717C82.8743 363.213 71.0872 375.002 56.5944 375.002L-1.2021e-05 375.002L-1.22074e-05 379.265L56.5944 379.265C73.438 379.265 87.136 365.559 87.136 348.717C87.136 331.87 73.4332 318.169 56.5944 318.169L-9.53674e-06 318.168L-9.72307e-06 322.431L56.5944 322.431Z" fill="url(#paint43_linear_6_108)"/>
<path d="M56.5945 312.487C76.5693 312.487 92.8215 328.742 92.8215 348.722C92.8215 368.701 76.5693 384.957 56.5945 384.957L-5.26144e-06 384.957L-5.44777e-06 389.219L56.5945 389.219C78.9201 389.219 97.0833 371.052 97.0833 348.722C97.0833 326.391 78.9201 308.224 56.5945 308.224L-1.90735e-06 308.224L-2.09368e-06 312.486L56.5945 312.487Z" fill="url(#paint44_linear_6_108)"/>
<path d="M56.5945 302.542C82.0513 302.542 102.764 323.259 102.764 348.722C102.764 374.184 82.0513 394.901 56.5945 394.901L1.49856e-06 394.901L1.31223e-06 399.164L56.5945 399.164C84.4021 399.164 107.026 376.535 107.026 348.722C107.026 320.908 84.4021 298.279 56.5945 298.279L5.72205e-06 298.279L5.53572e-06 302.542L56.5945 302.542Z" fill="url(#paint45_linear_6_108)"/>
<path d="M56.5944 292.592C87.5381 292.592 112.711 317.771 112.711 348.722C112.711 379.672 87.5381 404.851 56.5944 404.851L-1.27227e-05 404.851L-1.2909e-05 409.113L56.5944 409.113C89.8842 409.113 116.973 382.023 116.973 348.722C116.973 315.42 89.8889 288.33 56.5944 288.33L-7.62939e-06 288.33L-7.81572e-06 292.592L56.5944 292.592Z" fill="url(#paint46_linear_6_108)"/>
<path d="M56.5945 282.648C93.0202 282.648 122.654 312.288 122.654 348.722C122.654 385.155 93.0202 414.795 56.5945 414.795L-2.14798e-06 414.795L-2.33431e-06 419.058L56.5945 419.058C95.371 419.058 126.915 387.507 126.915 348.722C126.915 309.937 95.371 278.385 56.5945 278.385L3.8147e-06 278.385L3.62837e-06 282.648L56.5945 282.648Z" fill="url(#paint47_linear_6_108)"/>
<path d="M310.955 120.591C351.557 120.591 384.592 87.5492 384.592 46.9379L384.592 -1.99995L380.33 -1.99995L380.33 46.9379C380.33 85.1979 349.206 116.328 310.955 116.328C272.703 116.328 241.58 85.1979 241.58 46.9379L241.58 -1.99995L237.318 -1.99995L237.318 46.9379C237.318 87.5492 270.353 120.591 310.955 120.591Z" fill="url(#paint48_linear_6_108)"/>
<path d="M310.955 110.646C346.075 110.646 374.649 82.0659 374.649 46.9379L374.649 -1.99995L370.387 -1.99995L370.387 46.9379C370.387 79.7146 343.729 106.383 310.955 106.383C278.185 106.383 251.527 79.7193 251.527 46.9379L251.527 -1.99995L247.265 -1.99995L247.265 46.9379C247.265 82.0659 275.835 110.646 310.955 110.646Z" fill="url(#paint49_linear_6_108)"/>
<path d="M310.955 100.697C340.593 100.697 364.702 76.5827 364.702 46.9379L364.702 -1.99995L360.44 -1.99995L360.44 46.9379C360.44 74.2313 338.242 96.4341 310.955 96.4341C283.668 96.4341 261.47 74.2313 261.47 46.9379L261.47 -1.99995L257.208 -1.99995L257.208 46.9379C257.208 76.5827 281.321 100.697 310.955 100.697Z" fill="url(#paint50_linear_6_108)"/>
<path d="M310.955 90.7521C335.106 90.7521 354.759 71.0994 354.759 46.938L354.759 -1.99995L350.498 -1.99995L350.498 46.9379C350.498 68.7481 332.76 86.4895 310.955 86.4895C289.154 86.4895 271.412 68.7481 271.412 46.9379L271.412 -1.99995L267.15 -1.99995L267.15 46.9379C267.155 71.0946 286.804 90.7521 310.955 90.7521Z" fill="url(#paint51_linear_6_108)"/>
<path d="M310.955 80.8027C329.624 80.8027 344.812 65.6114 344.812 46.9379L344.812 -1.99995L340.551 -1.99995L340.551 46.9379C340.551 63.26 327.273 76.5401 310.955 76.5401C294.636 76.5401 281.359 63.26 281.359 46.9379L281.359 -1.99995L277.098 -1.99995L277.098 46.9379C277.098 65.6114 292.286 80.8027 310.955 80.8027Z" fill="url(#paint52_linear_6_108)"/>
<path d="M310.955 70.8581C324.142 70.8581 334.87 60.1281 334.87 46.9379L334.87 -1.99995L330.608 -1.99995L330.608 46.9379C330.608 57.7768 321.791 66.5954 310.955 66.5954C300.118 66.5954 291.302 57.7768 291.302 46.9379L291.302 -1.99995L287.04 -1.99995L287.04 46.9379C287.045 60.1281 297.772 70.8581 310.955 70.8581Z" fill="url(#paint53_linear_6_108)"/>
<path d="M61.7975 798.998L61.7975 677.378C61.7975 668.37 69.1243 661.037 78.135 661.037C87.1456 661.037 94.4724 668.37 94.4724 677.378L94.4724 716.986L98.7341 716.986L98.7341 677.378C98.7341 666.018 89.4917 656.774 78.135 656.774C66.7782 656.774 57.5358 666.018 57.5358 677.378L57.5358 798.998C57.5358 808.588 55.4641 817.7 51.7747 825.932L56.429 825.932C59.8819 817.634 61.7975 808.536 61.7975 798.998Z" fill="url(#paint54_linear_6_108)"/>
<path d="M22.0182 798.998L22.0182 677.378C22.0182 646.432 47.1913 621.249 78.1349 621.249C109.079 621.249 134.252 646.427 134.252 677.378L134.252 717.118L138.513 717.118L138.513 677.378C138.513 644.081 111.429 616.986 78.1349 616.986C44.8452 616.986 17.7565 644.076 17.7565 677.378L17.7565 798.998C17.7565 810.504 10.3162 820.288 7.86963e-05 823.836L7.86049e-05 825.928L5.8653 825.928C15.4672 820.775 22.0182 810.642 22.0182 798.998Z" fill="url(#paint55_linear_6_108)"/>
<path d="M12.0758 798.998L12.0758 677.378C12.0758 640.944 41.7092 611.304 78.1349 611.304C114.561 611.304 144.194 640.944 144.194 677.378L144.194 716.986L148.456 716.986L148.456 677.378C148.456 638.592 116.911 607.041 78.1349 607.041C39.3584 607.041 7.81403 638.597 7.81403 677.378L7.81403 798.998C7.81402 804.884 4.67804 810.036 5.96656e-05 812.912L5.94549e-05 817.733C7.11398 814.483 12.0758 807.316 12.0758 798.998Z" fill="url(#paint56_linear_6_108)"/>
<path d="M51.8551 677.378C51.8551 662.882 63.6422 651.092 78.1349 651.092C92.6277 651.092 104.415 662.882 104.415 677.378L104.415 716.986L108.677 716.986L108.677 677.378C108.677 660.535 94.9737 646.829 78.1349 646.829C61.2914 646.829 47.5933 660.535 47.5933 677.378L47.5933 798.998C47.5933 808.754 45.0864 817.932 40.697 825.932L45.4979 825.932C49.5563 817.819 51.8598 808.673 51.8598 798.998L51.8598 677.378L51.8551 677.378Z" fill="url(#paint57_linear_6_108)"/>
<path d="M41.9079 677.378C41.9079 657.398 58.1602 641.143 78.135 641.143C98.1097 641.143 114.362 657.398 114.362 677.378L114.362 716.986L118.624 716.986L118.624 677.378C118.624 655.047 100.461 636.88 78.135 636.88C55.8094 636.88 37.6462 655.047 37.6462 677.378L37.6462 798.998C37.6462 809.042 34.4108 818.344 28.943 825.932L34.0845 825.932C39.0273 818.131 41.9079 808.9 41.9079 798.998L41.9079 677.378Z" fill="url(#paint58_linear_6_108)"/>
<path d="M31.9654 677.378C31.9654 651.915 52.6781 631.198 78.1349 631.198C103.592 631.198 124.304 651.915 124.304 677.378L124.304 716.986L128.566 716.986L128.566 677.378C128.566 649.564 105.943 626.935 78.1349 626.935C50.3273 626.935 27.7037 649.564 27.7037 677.378L27.7037 798.998C27.7037 809.681 23.0541 819.295 15.68 825.932L21.6824 825.932C28.0726 818.769 31.9701 809.331 31.9701 798.998L31.9701 677.378L31.9654 677.378Z" fill="url(#paint59_linear_6_108)"/>
<path d="M407.324 803.389L407.324 675.249C407.324 663.889 398.082 654.645 386.725 654.645L383.423 654.645L383.423 658.908L386.725 658.908C395.735 658.908 403.062 666.241 403.062 675.249L403.062 803.394C403.062 811.28 404.387 818.855 406.789 825.937L411.288 825.937C408.724 818.892 407.324 811.304 407.324 803.389Z" fill="url(#paint60_linear_6_108)"/>
<path d="M417.266 803.389L417.266 675.249C417.266 658.406 403.564 644.7 386.725 644.7L383.423 644.7L383.423 648.963L386.725 648.963C401.217 648.963 413.005 660.753 413.005 675.249L413.005 803.394C413.005 811.361 414.57 818.963 417.385 825.937L422.006 825.937C418.969 819.03 417.266 811.408 417.266 803.389Z" fill="url(#paint61_linear_6_108)"/>
<path d="M427.214 803.389L427.214 675.249C427.214 652.918 409.05 634.751 386.725 634.751L383.423 634.751L383.423 639.013L386.725 639.013C406.7 639.013 422.952 655.269 422.952 675.249L422.952 803.393C422.952 811.493 424.882 819.148 428.287 825.937L433.112 825.937C429.361 819.261 427.214 811.573 427.214 803.389Z" fill="url(#paint62_linear_6_108)"/>
<path d="M437.156 803.389L437.156 675.249C437.156 647.435 414.532 624.806 386.725 624.806L383.423 624.806L383.423 629.069L386.725 629.069C412.182 629.069 432.894 649.786 432.894 675.249L432.894 803.394C432.894 811.734 435.43 819.489 439.762 825.937L445.05 825.937C440.117 819.739 437.156 811.909 437.156 803.389Z" fill="url(#paint63_linear_6_108)"/>
<path d="M447.103 803.389L447.103 675.249C447.103 641.951 420.019 614.857 386.725 614.857L383.423 614.857L383.423 619.119L386.725 619.119C417.668 619.119 442.842 644.298 442.842 675.249L442.842 803.393C442.842 812.321 446.715 820.345 452.841 825.937L459.931 825.937C452.264 821.334 447.103 812.964 447.103 803.389Z" fill="url(#paint64_linear_6_108)"/>
<path d="M457.046 803.389L457.046 675.249C457.046 636.464 425.501 604.912 386.725 604.912L383.423 604.912L383.423 609.175L386.725 609.175C423.151 609.175 452.784 638.815 452.784 675.249L452.784 803.394C452.784 814.625 461.818 823.77 473 823.978L473 819.716C464.169 819.508 457.046 812.274 457.046 803.389Z" fill="url(#paint65_linear_6_108)"/>
<path d="M364.65 272.003L373.102 272.003C377.374 272.003 379.682 272.003 380.987 271.875L380.987 272.003C392.344 272.003 401.586 262.759 401.586 251.399L401.587 192.881C401.587 181.517 392.344 172.277 380.987 172.277C369.631 172.277 360.388 181.517 360.388 192.881L360.388 322.445C360.388 333.805 369.631 343.049 380.987 343.049L473 343.049L473 338.786L380.987 338.786C371.977 338.786 364.65 331.453 364.65 322.445L364.65 192.881C364.65 183.868 371.977 176.54 380.987 176.54C389.998 176.54 397.325 183.868 397.325 192.881L397.325 251.399C397.325 260.407 389.998 267.74 380.987 267.74L379.559 267.74C375.685 267.74 364.65 267.74 364.65 267.74" fill="url(#paint66_linear_6_108)"/>
<path d="M354.707 322.445L354.707 192.881C354.707 178.385 366.499 166.595 380.987 166.595C395.475 166.595 407.267 178.39 407.267 192.881L407.267 251.399C407.267 265.895 395.475 277.685 380.987 277.685L379.559 277.685C375.685 277.685 365.218 277.685 365.218 277.685L364.65 277.685L364.65 281.948L373.102 281.948C377.374 281.948 379.682 281.948 380.987 281.82L380.987 281.948C397.831 281.948 411.529 268.242 411.529 251.399L411.529 192.881C411.529 176.034 397.826 162.333 380.987 162.333C364.149 162.333 350.446 176.039 350.446 192.881L350.446 322.445C350.446 339.288 364.149 352.994 380.987 352.994L473 352.994L473 348.731L380.987 348.731C366.495 348.736 354.707 336.941 354.707 322.445Z" fill="url(#paint67_linear_6_108)"/>
<path d="M344.76 322.445L344.76 192.881C344.76 172.902 361.013 156.646 380.987 156.646C400.962 156.646 417.214 172.902 417.214 192.881L417.214 251.399C417.214 271.379 400.962 287.634 380.987 287.634L379.559 287.634C375.638 287.634 364.943 287.634 364.943 287.634L364.65 287.634L364.65 291.897L372.965 291.897C377.322 291.897 379.668 291.897 380.987 291.769L380.987 291.897C403.313 291.897 421.476 273.73 421.476 251.399L421.476 192.881C421.476 170.551 403.313 152.383 380.987 152.383C358.662 152.383 340.499 170.551 340.499 192.881L340.499 322.445C340.499 344.776 358.662 362.943 380.987 362.943L473 362.943L473 358.68L380.987 358.68C361.013 358.68 344.76 342.425 344.76 322.445Z" fill="url(#paint68_linear_6_108)"/>
<path d="M334.818 322.445L334.818 192.881C334.818 167.419 355.53 146.701 380.987 146.701C406.444 146.701 427.157 167.419 427.157 192.881L427.157 251.399C427.157 276.862 406.444 297.579 380.987 297.579L379.559 297.579C375.642 297.579 364.976 297.579 364.976 297.579L364.65 297.574L364.65 301.813L372.965 301.842C377.322 301.842 379.668 301.842 380.987 301.709L380.987 301.842C408.795 301.842 431.419 279.213 431.419 251.399L431.419 192.881C431.419 165.067 408.795 142.439 380.987 142.439C353.18 142.439 330.556 165.067 330.556 192.881L330.556 322.445C330.556 350.259 353.18 372.888 380.987 372.888L473 372.888L473 368.625L380.987 368.625C355.53 368.63 334.818 347.913 334.818 322.445Z" fill="url(#paint69_linear_6_108)"/>
<path d="M324.871 322.445L324.871 192.881C324.871 161.931 350.044 136.752 380.987 136.752C411.931 136.752 437.104 161.935 437.104 192.881L437.104 251.399C437.104 282.345 411.931 307.528 380.987 307.528L379.559 307.528C375.638 307.528 364.943 307.528 364.943 307.528L364.65 307.528L364.65 311.791L372.965 311.791C377.322 311.791 379.668 311.791 380.987 311.659L380.987 311.791C414.277 311.791 441.366 284.696 441.366 251.399L441.366 192.881C441.366 159.579 414.282 132.489 380.987 132.489C347.693 132.489 320.609 159.579 320.609 192.881L320.609 322.445C320.609 355.742 347.693 382.837 380.987 382.837L473 382.837L473 378.574L380.987 378.574C350.044 378.574 324.871 353.396 324.871 322.445Z" fill="url(#paint70_linear_6_108)"/>
<path d="M314.928 322.445L314.928 192.881C314.928 156.447 344.562 126.807 380.987 126.807C417.413 126.807 447.047 156.447 447.047 192.881L447.047 251.399C447.047 287.833 417.413 317.473 380.987 317.473L379.559 317.473C375.534 317.473 364.65 317.435 364.65 317.435L364.65 321.698L378.376 321.736C379.545 321.736 380.377 321.736 380.987 321.693L380.987 321.736C419.764 321.736 451.308 290.184 451.308 251.399L451.308 192.881C451.308 154.096 419.764 122.545 380.987 122.545C342.211 122.545 310.666 154.101 310.666 192.881L310.666 322.445C310.666 361.23 342.211 392.782 380.987 392.782L473 392.782L473 388.519L380.987 388.519C344.562 388.519 314.928 358.879 314.928 322.445Z" fill="url(#paint71_linear_6_108)"/>
<path d="M292.466 659.815C292.466 671.175 301.709 680.42 313.067 680.42C324.426 680.42 333.669 671.175 333.669 659.815L333.669 484.772C333.669 448.337 363.307 418.695 399.737 418.695C436.167 418.695 465.805 448.337 465.805 484.772L465.805 492.716L465.805 531.924C465.805 538.165 468.605 543.752 473 547.537L473 541.24C471.155 538.595 470.067 535.388 470.067 531.924L470.067 492.716L470.067 484.772C470.067 445.985 438.519 414.433 399.737 414.433C360.955 414.433 329.407 445.985 329.407 484.772L329.407 659.815C329.407 668.824 322.079 676.157 313.067 676.157C304.056 676.157 296.728 668.824 296.728 659.815L296.728 482.17C295.342 483.178 293.923 484.134 292.466 485.037L292.466 659.815Z" fill="url(#paint72_linear_6_108)"/>
<path d="M282.837 659.499C282.837 676.342 296.519 690.048 313.332 690.048C330.15 690.048 343.827 676.342 343.827 659.499L343.827 484.456C343.827 453.504 368.962 428.324 399.858 428.324C430.755 428.324 455.889 453.504 455.889 484.456L455.889 492.4L455.889 531.608C455.889 543.639 462.884 554.039 473 559.016L473 554.176C465.316 549.586 460.145 541.203 460.145 531.608L460.145 492.4L460.145 484.456C460.145 451.152 433.102 424.061 399.858 424.061C366.619 424.061 339.572 451.152 339.572 484.456L339.572 659.499C339.572 673.995 327.798 685.786 313.332 685.786C298.862 685.786 287.092 673.99 287.092 659.499L287.092 487.886C285.699 488.581 284.282 489.239 282.837 489.845L282.837 659.499Z" fill="url(#paint73_linear_6_108)"/>
<path d="M272.005 659.178C272.005 681.509 290.222 699.677 312.614 699.677C335.006 699.677 353.223 681.509 353.223 659.178L353.223 484.138C353.223 458.675 373.997 437.957 399.529 437.957C425.062 437.957 445.836 458.675 445.836 484.138L445.836 492.082L445.836 531.289C445.836 548.922 457.198 563.949 473 569.494L473 564.938C459.603 559.596 450.11 546.528 450.11 531.285L450.11 492.077L450.11 484.134C450.11 456.319 427.419 433.69 399.529 433.69C371.639 433.69 348.948 456.319 348.948 484.134L348.948 659.173C348.948 679.153 332.648 695.409 312.614 695.409C292.58 695.409 276.279 679.153 276.279 659.173L276.279 491.609C274.87 492.058 273.447 492.46 272.005 492.815L272.005 659.178Z" fill="url(#paint74_linear_6_108)"/>
<path d="M262.377 660.064C262.377 687.879 285.03 710.509 312.875 710.509C340.72 710.509 363.374 687.879 363.374 660.064L363.374 485.021C363.374 465.041 379.647 448.785 399.649 448.785C419.65 448.785 435.924 465.041 435.924 485.021L435.924 492.965L435.924 532.173C435.924 555.347 451.653 574.906 473 580.796L473 576.363C454.036 570.605 440.192 552.977 440.192 532.173L440.192 492.965L440.192 485.021C440.192 462.69 422.004 444.522 399.649 444.522C377.294 444.522 359.106 462.69 359.106 485.021L359.106 660.064C359.106 685.528 338.366 706.246 312.875 706.246C287.384 706.246 266.644 685.528 266.644 660.064L266.644 494.877C265.233 495.104 263.812 495.307 262.377 495.449L262.377 660.064Z" fill="url(#paint75_linear_6_108)"/>
<path d="M383.546 659.421L383.546 484.379C383.546 475.366 390.862 468.037 399.859 468.037C408.855 468.037 416.171 475.366 416.171 484.379L416.171 492.322L416.171 531.531C416.171 565.728 440.668 594.296 473 600.574L473 596.24C443.025 590.028 420.426 563.377 420.426 531.535L420.426 492.327L420.426 484.383C420.426 473.019 411.198 463.779 399.859 463.779C388.519 463.779 379.291 473.019 379.291 484.383L379.291 659.426C379.291 695.862 349.703 725.503 313.333 725.503C276.963 725.503 247.375 695.862 247.375 659.426L247.375 495.171L243.12 495.171L243.12 527.854L243.12 532.117L243.12 659.426C243.12 698.213 274.616 729.766 313.333 729.766C352.05 729.766 383.546 698.208 383.546 659.421Z" fill="url(#paint76_linear_6_108)"/>
<path d="M252.748 495.487L252.748 659.743C252.748 693.042 279.827 720.138 313.116 720.138C346.4 720.138 373.484 693.042 373.484 659.743L373.484 484.7C373.484 470.203 385.269 458.413 399.759 458.413C414.249 458.413 426.035 470.203 426.035 484.7L426.035 492.644L426.035 531.852C426.035 560.542 446.143 584.61 473 590.728L473 586.351C448.517 580.324 430.296 558.181 430.296 531.852L430.296 492.644L430.296 484.7C430.296 467.852 416.595 454.15 399.759 454.15C382.919 454.15 369.223 467.857 369.223 484.7L369.223 659.743C369.223 690.69 344.054 715.875 313.116 715.875C282.178 715.875 257.009 690.695 257.009 659.743L257.009 495.449C256.536 495.459 256.063 495.487 255.59 495.487L252.748 495.487Z" fill="url(#paint77_linear_6_108)"/>
<defs>
<linearGradient id="paint0_linear_6_108" x1="435.873" y1="-2" x2="435.873" y2="145.491" gradientUnits="userSpaceOnUse">
<stop stop-color="#2E3192"/>
<stop offset="1" stop-color="#2484C6"/>
</linearGradient>
<linearGradient id="paint1_linear_6_108" x1="440.845" y1="-2" x2="440.845" y2="135.544" gradientUnits="userSpaceOnUse">
<stop stop-color="#2E3192"/>
<stop offset="1" stop-color="#2484C6"/>
</linearGradient>
<linearGradient id="paint2_linear_6_108" x1="445.817" y1="-2" x2="445.817" y2="125.598" gradientUnits="userSpaceOnUse">
<stop stop-color="#2E3192"/>
<stop offset="1" stop-color="#2484C6"/>
</linearGradient>
<linearGradient id="paint3_linear_6_108" x1="450.789" y1="-2" x2="450.789" y2="115.651" gradientUnits="userSpaceOnUse">
<stop stop-color="#2E3192"/>
<stop offset="1" stop-color="#2484C6"/>
</linearGradient>
<linearGradient id="paint4_linear_6_108" x1="455.762" y1="-2" x2="455.762" y2="105.705" gradientUnits="userSpaceOnUse">
<stop stop-color="#2E3192"/>
<stop offset="1" stop-color="#2484C6"/>
</linearGradient>
<linearGradient id="paint5_linear_6_108" x1="460.734" y1="-2" x2="460.734" y2="95.7579" gradientUnits="userSpaceOnUse">
<stop stop-color="#2E3192"/>
<stop offset="1" stop-color="#2484C6"/>
</linearGradient>
<linearGradient id="paint6_linear_6_108" x1="141.922" y1="582.175" x2="141.922" y2="771" gradientUnits="userSpaceOnUse">
<stop stop-color="#2E3192"/>
<stop offset="1" stop-color="#2484C6"/>
</linearGradient>
<linearGradient id="paint7_linear_6_108" x1="136.95" y1="582.175" x2="136.95" y2="761.053" gradientUnits="userSpaceOnUse">
<stop stop-color="#2E3192"/>
<stop offset="1" stop-color="#2484C6"/>
</linearGradient>
<linearGradient id="paint8_linear_6_108" x1="131.977" y1="582.175" x2="131.977" y2="751.107" gradientUnits="userSpaceOnUse">
<stop stop-color="#2E3192"/>
<stop offset="1" stop-color="#2484C6"/>
</linearGradient>
<linearGradient id="paint9_linear_6_108" x1="127.005" y1="582.175" x2="127.005" y2="741.16" gradientUnits="userSpaceOnUse">
<stop stop-color="#2E3192"/>
<stop offset="1" stop-color="#2484C6"/>
</linearGradient>
<linearGradient id="paint10_linear_6_108" x1="122.033" y1="582.175" x2="122.033" y2="731.214" gradientUnits="userSpaceOnUse">
<stop stop-color="#2E3192"/>
<stop offset="1" stop-color="#2484C6"/>
</linearGradient>
<linearGradient id="paint11_linear_6_108" x1="117.061" y1="582.175" x2="117.061" y2="721.267" gradientUnits="userSpaceOnUse">
<stop stop-color="#2E3192"/>
<stop offset="1" stop-color="#2484C6"/>
</linearGradient>
<linearGradient id="paint12_linear_6_108" x1="224.589" y1="267.741" x2="224.589" y2="441.501" gradientUnits="userSpaceOnUse">
<stop stop-color="#2E3192"/>
<stop offset="1" stop-color="#2484C6"/>
</linearGradient>
<linearGradient id="paint13_linear_6_108" x1="229.561" y1="277.688" x2="229.561" y2="441.501" gradientUnits="userSpaceOnUse">
<stop stop-color="#2E3192"/>
<stop offset="1" stop-color="#2484C6"/>
</linearGradient>
<linearGradient id="paint14_linear_6_108" x1="234.533" y1="287.634" x2="234.533" y2="441.501" gradientUnits="userSpaceOnUse">
<stop stop-color="#2E3192"/>
<stop offset="1" stop-color="#2484C6"/>
</linearGradient>
<linearGradient id="paint15_linear_6_108" x1="239.506" y1="297.581" x2="239.506" y2="441.501" gradientUnits="userSpaceOnUse">
<stop stop-color="#2E3192"/>
<stop offset="1" stop-color="#2484C6"/>
</linearGradient>
<linearGradient id="paint16_linear_6_108" x1="244.478" y1="307.527" x2="244.478" y2="441.501" gradientUnits="userSpaceOnUse">
<stop stop-color="#2E3192"/>
<stop offset="1" stop-color="#2484C6"/>
</linearGradient>
<linearGradient id="paint17_linear_6_108" x1="249.45" y1="317.474" x2="249.45" y2="441.501" gradientUnits="userSpaceOnUse">
<stop stop-color="#2E3192"/>
<stop offset="1" stop-color="#2484C6"/>
</linearGradient>
<linearGradient id="paint18_linear_6_108" x1="143.904" y1="404.557" x2="143.904" y2="582.175" gradientUnits="userSpaceOnUse">
<stop stop-color="#2E3192"/>
<stop offset="1" stop-color="#2484C6"/>
</linearGradient>
<linearGradient id="paint19_linear_6_108" x1="153.848" y1="394.611" x2="153.848" y2="572.229" gradientUnits="userSpaceOnUse">
<stop stop-color="#2E3192"/>
<stop offset="1" stop-color="#2484C6"/>
</linearGradient>
<linearGradient id="paint20_linear_6_108" x1="163.793" y1="384.664" x2="163.793" y2="562.282" gradientUnits="userSpaceOnUse">
<stop stop-color="#2E3192"/>
<stop offset="1" stop-color="#2484C6"/>
</linearGradient>
<linearGradient id="paint21_linear_6_108" x1="173.737" y1="374.717" x2="173.737" y2="552.335" gradientUnits="userSpaceOnUse">
<stop stop-color="#2E3192"/>
<stop offset="1" stop-color="#2484C6"/>
</linearGradient>
<linearGradient id="paint22_linear_6_108" x1="183.682" y1="364.771" x2="183.682" y2="542.389" gradientUnits="userSpaceOnUse">
<stop stop-color="#2E3192"/>
<stop offset="1" stop-color="#2484C6"/>
</linearGradient>
<linearGradient id="paint23_linear_6_108" x1="193.626" y1="354.824" x2="193.626" y2="532.442" gradientUnits="userSpaceOnUse">
<stop stop-color="#2E3192"/>
<stop offset="1" stop-color="#2484C6"/>
</linearGradient>
<linearGradient id="paint24_linear_6_108" x1="300.122" y1="749.267" x2="300.122" y2="825.933" gradientUnits="userSpaceOnUse">
<stop stop-color="#2E3192"/>
<stop offset="1" stop-color="#2484C6"/>
</linearGradient>
<linearGradient id="paint25_linear_6_108" x1="305.094" y1="759.214" x2="305.094" y2="825.933" gradientUnits="userSpaceOnUse">
<stop stop-color="#2E3192"/>
<stop offset="1" stop-color="#2484C6"/>
</linearGradient>
<linearGradient id="paint26_linear_6_108" x1="310.067" y1="769.16" x2="310.067" y2="825.933" gradientUnits="userSpaceOnUse">
<stop stop-color="#2E3192"/>
<stop offset="1" stop-color="#2484C6"/>
</linearGradient>
<linearGradient id="paint27_linear_6_108" x1="315.039" y1="779.106" x2="315.039" y2="825.933" gradientUnits="userSpaceOnUse">
<stop stop-color="#2E3192"/>
<stop offset="1" stop-color="#2484C6"/>
</linearGradient>
<linearGradient id="paint28_linear_6_108" x1="320.011" y1="789.053" x2="320.011" y2="825.933" gradientUnits="userSpaceOnUse">
<stop stop-color="#2E3192"/>
<stop offset="1" stop-color="#2484C6"/>
</linearGradient>
<linearGradient id="paint29_linear_6_108" x1="324.984" y1="799" x2="324.984" y2="825.933" gradientUnits="userSpaceOnUse">
<stop stop-color="#2E3192"/>
<stop offset="1" stop-color="#2484C6"/>
</linearGradient>
<linearGradient id="paint30_linear_6_108" x1="167.473" y1="110.677" x2="167.473" y2="251.35" gradientUnits="userSpaceOnUse">
<stop stop-color="#2E3192"/>
<stop offset="1" stop-color="#2484C6"/>
</linearGradient>
<linearGradient id="paint31_linear_6_108" x1="172.445" y1="120.623" x2="172.445" y2="241.404" gradientUnits="userSpaceOnUse">
<stop stop-color="#2E3192"/>
<stop offset="1" stop-color="#2484C6"/>
</linearGradient>
<linearGradient id="paint32_linear_6_108" x1="177.417" y1="130.57" x2="177.417" y2="231.457" gradientUnits="userSpaceOnUse">
<stop stop-color="#2E3192"/>
<stop offset="1" stop-color="#2484C6"/>
</linearGradient>
<linearGradient id="paint33_linear_6_108" x1="182.39" y1="140.516" x2="182.39" y2="221.51" gradientUnits="userSpaceOnUse">
<stop stop-color="#2E3192"/>
<stop offset="1" stop-color="#2484C6"/>
</linearGradient>
<linearGradient id="paint34_linear_6_108" x1="187.362" y1="150.463" x2="187.362" y2="211.564" gradientUnits="userSpaceOnUse">
<stop stop-color="#2E3192"/>
<stop offset="1" stop-color="#2484C6"/>
</linearGradient>
<linearGradient id="paint35_linear_6_108" x1="192.334" y1="160.41" x2="192.334" y2="201.617" gradientUnits="userSpaceOnUse">
<stop stop-color="#2E3192"/>
<stop offset="1" stop-color="#2484C6"/>
</linearGradient>
<linearGradient id="paint36_linear_6_108" x1="116.731" y1="13.6332" x2="116.731" y2="197.343" gradientUnits="userSpaceOnUse">
<stop stop-color="#2E3192"/>
<stop offset="1" stop-color="#2484C6"/>
</linearGradient>
<linearGradient id="paint37_linear_6_108" x1="111.758" y1="23.5798" x2="111.758" y2="197.343" gradientUnits="userSpaceOnUse">
<stop stop-color="#2E3192"/>
<stop offset="1" stop-color="#2484C6"/>
</linearGradient>
<linearGradient id="paint38_linear_6_108" x1="106.786" y1="33.5265" x2="106.786" y2="197.343" gradientUnits="userSpaceOnUse">
<stop stop-color="#2E3192"/>
<stop offset="1" stop-color="#2484C6"/>
</linearGradient>
<linearGradient id="paint39_linear_6_108" x1="101.814" y1="43.473" x2="101.814" y2="197.343" gradientUnits="userSpaceOnUse">
<stop stop-color="#2E3192"/>
<stop offset="1" stop-color="#2484C6"/>
</linearGradient>
<linearGradient id="paint40_linear_6_108" x1="96.8417" y1="53.4197" x2="96.8417" y2="197.343" gradientUnits="userSpaceOnUse">
<stop stop-color="#2E3192"/>
<stop offset="1" stop-color="#2484C6"/>
</linearGradient>
<linearGradient id="paint41_linear_6_108" x1="91.8695" y1="63.3663" x2="91.8695" y2="197.343" gradientUnits="userSpaceOnUse">
<stop stop-color="#2E3192"/>
<stop offset="1" stop-color="#2484C6"/>
</linearGradient>
<linearGradient id="paint42_linear_6_108" x1="38.5957" y1="328.117" x2="38.5957" y2="369.325" gradientUnits="userSpaceOnUse">
<stop stop-color="#2E3192"/>
<stop offset="1" stop-color="#2484C6"/>
</linearGradient>
<linearGradient id="paint43_linear_6_108" x1="43.568" y1="318.171" x2="43.568" y2="379.271" gradientUnits="userSpaceOnUse">
<stop stop-color="#2E3192"/>
<stop offset="1" stop-color="#2484C6"/>
</linearGradient>
<linearGradient id="paint44_linear_6_108" x1="48.5403" y1="308.224" x2="48.5403" y2="389.218" gradientUnits="userSpaceOnUse">
<stop stop-color="#2E3192"/>
<stop offset="1" stop-color="#2484C6"/>
</linearGradient>
<linearGradient id="paint45_linear_6_108" x1="53.5123" y1="298.277" x2="53.5123" y2="399.165" gradientUnits="userSpaceOnUse">
<stop stop-color="#2E3192"/>
<stop offset="1" stop-color="#2484C6"/>
</linearGradient>
<linearGradient id="paint46_linear_6_108" x1="58.4845" y1="288.331" x2="58.4845" y2="409.111" gradientUnits="userSpaceOnUse">
<stop stop-color="#2E3192"/>
<stop offset="1" stop-color="#2484C6"/>
</linearGradient>
<linearGradient id="paint47_linear_6_108" x1="63.4568" y1="278.384" x2="63.4568" y2="419.058" gradientUnits="userSpaceOnUse">
<stop stop-color="#2E3192"/>
<stop offset="1" stop-color="#2484C6"/>
</linearGradient>
<linearGradient id="paint48_linear_6_108" x1="310.957" y1="-1.99995" x2="310.957" y2="120.591" gradientUnits="userSpaceOnUse">
<stop stop-color="#2E3192"/>
<stop offset="1" stop-color="#2484C6"/>
</linearGradient>
<linearGradient id="paint49_linear_6_108" x1="310.957" y1="-1.99995" x2="310.957" y2="110.645" gradientUnits="userSpaceOnUse">
<stop stop-color="#2E3192"/>
<stop offset="1" stop-color="#2484C6"/>
</linearGradient>
<linearGradient id="paint50_linear_6_108" x1="310.957" y1="-1.99995" x2="310.957" y2="100.698" gradientUnits="userSpaceOnUse">
<stop stop-color="#2E3192"/>
<stop offset="1" stop-color="#2484C6"/>
</linearGradient>
<linearGradient id="paint51_linear_6_108" x1="310.957" y1="-1.99995" x2="310.957" y2="90.7516" gradientUnits="userSpaceOnUse">
<stop stop-color="#2E3192"/>
<stop offset="1" stop-color="#2484C6"/>
</linearGradient>
<linearGradient id="paint52_linear_6_108" x1="310.957" y1="-1.99995" x2="310.957" y2="80.8048" gradientUnits="userSpaceOnUse">
<stop stop-color="#2E3192"/>
<stop offset="1" stop-color="#2484C6"/>
</linearGradient>
<linearGradient id="paint53_linear_6_108" x1="310.957" y1="-1.99995" x2="310.957" y2="70.8583" gradientUnits="userSpaceOnUse">
<stop stop-color="#2E3192"/>
<stop offset="1" stop-color="#2484C6"/>
</linearGradient>
<linearGradient id="paint54_linear_6_108" x1="75.2549" y1="656.775" x2="75.2549" y2="825.933" gradientUnits="userSpaceOnUse">
<stop stop-color="#2E3192"/>
<stop offset="1" stop-color="#2484C6"/>
</linearGradient>
<linearGradient id="paint55_linear_6_108" x1="69.256" y1="616.988" x2="69.256" y2="825.933" gradientUnits="userSpaceOnUse">
<stop stop-color="#2E3192"/>
<stop offset="1" stop-color="#2484C6"/>
</linearGradient>
<linearGradient id="paint56_linear_6_108" x1="74.228" y1="607.042" x2="74.228" y2="817.733" gradientUnits="userSpaceOnUse">
<stop stop-color="#2E3192"/>
<stop offset="1" stop-color="#2484C6"/>
</linearGradient>
<linearGradient id="paint57_linear_6_108" x1="74.6858" y1="646.828" x2="74.6858" y2="825.933" gradientUnits="userSpaceOnUse">
<stop stop-color="#2E3192"/>
<stop offset="1" stop-color="#2484C6"/>
</linearGradient>
<linearGradient id="paint58_linear_6_108" x1="73.7842" y1="636.882" x2="73.7842" y2="825.933" gradientUnits="userSpaceOnUse">
<stop stop-color="#2E3192"/>
<stop offset="1" stop-color="#2484C6"/>
</linearGradient>
<linearGradient id="paint59_linear_6_108" x1="72.1229" y1="626.935" x2="72.1229" y2="825.933" gradientUnits="userSpaceOnUse">
<stop stop-color="#2E3192"/>
<stop offset="1" stop-color="#2484C6"/>
</linearGradient>
<linearGradient id="paint60_linear_6_108" x1="397.355" y1="654.644" x2="397.355" y2="825.933" gradientUnits="userSpaceOnUse">
<stop stop-color="#2E3192"/>
<stop offset="1" stop-color="#2484C6"/>
</linearGradient>
<linearGradient id="paint61_linear_6_108" x1="402.716" y1="644.697" x2="402.716" y2="825.933" gradientUnits="userSpaceOnUse">
<stop stop-color="#2E3192"/>
<stop offset="1" stop-color="#2484C6"/>
</linearGradient>
<linearGradient id="paint62_linear_6_108" x1="408.265" y1="634.75" x2="408.265" y2="825.933" gradientUnits="userSpaceOnUse">
<stop stop-color="#2E3192"/>
<stop offset="1" stop-color="#2484C6"/>
</linearGradient>
<linearGradient id="paint63_linear_6_108" x1="414.237" y1="624.803" x2="414.237" y2="825.933" gradientUnits="userSpaceOnUse">
<stop stop-color="#2E3192"/>
<stop offset="1" stop-color="#2484C6"/>
</linearGradient>
<linearGradient id="paint64_linear_6_108" x1="421.677" y1="614.857" x2="421.677" y2="825.933" gradientUnits="userSpaceOnUse">
<stop stop-color="#2E3192"/>
<stop offset="1" stop-color="#2484C6"/>
</linearGradient>
<linearGradient id="paint65_linear_6_108" x1="428.212" y1="604.91" x2="428.211" y2="823.975" gradientUnits="userSpaceOnUse">
<stop stop-color="#2E3192"/>
<stop offset="1" stop-color="#2484C6"/>
</linearGradient>
<linearGradient id="paint66_linear_6_108" x1="416.694" y1="172.28" x2="416.694" y2="343.051" gradientUnits="userSpaceOnUse">
<stop stop-color="#2E3192"/>
<stop offset="1" stop-color="#2484C6"/>
</linearGradient>
<linearGradient id="paint67_linear_6_108" x1="411.722" y1="162.333" x2="411.722" y2="352.998" gradientUnits="userSpaceOnUse">
<stop stop-color="#2E3192"/>
<stop offset="1" stop-color="#2484C6"/>
</linearGradient>
<linearGradient id="paint68_linear_6_108" x1="406.75" y1="152.386" x2="406.75" y2="362.944" gradientUnits="userSpaceOnUse">
<stop stop-color="#2E3192"/>
<stop offset="1" stop-color="#2484C6"/>
</linearGradient>
<linearGradient id="paint69_linear_6_108" x1="401.778" y1="142.44" x2="401.778" y2="372.891" gradientUnits="userSpaceOnUse">
<stop stop-color="#2E3192"/>
<stop offset="1" stop-color="#2484C6"/>
</linearGradient>
<linearGradient id="paint70_linear_6_108" x1="396.805" y1="132.493" x2="396.805" y2="382.838" gradientUnits="userSpaceOnUse">
<stop stop-color="#2E3192"/>
<stop offset="1" stop-color="#2484C6"/>
</linearGradient>
<linearGradient id="paint71_linear_6_108" x1="391.833" y1="122.547" x2="391.833" y2="392.784" gradientUnits="userSpaceOnUse">
<stop stop-color="#2E3192"/>
<stop offset="1" stop-color="#2484C6"/>
</linearGradient>
<linearGradient id="paint72_linear_6_108" x1="382.733" y1="414.434" x2="382.733" y2="680.422" gradientUnits="userSpaceOnUse">
<stop stop-color="#2E3192"/>
<stop offset="1" stop-color="#2484C6"/>
</linearGradient>
<linearGradient id="paint73_linear_6_108" x1="377.917" y1="424.065" x2="377.917" y2="690.052" gradientUnits="userSpaceOnUse">
<stop stop-color="#2E3192"/>
<stop offset="1" stop-color="#2484C6"/>
</linearGradient>
<linearGradient id="paint74_linear_6_108" x1="372.503" y1="433.695" x2="372.503" y2="699.678" gradientUnits="userSpaceOnUse">
<stop stop-color="#2E3192"/>
<stop offset="1" stop-color="#2484C6"/>
</linearGradient>
<linearGradient id="paint75_linear_6_108" x1="367.688" y1="444.525" x2="367.688" y2="710.513" gradientUnits="userSpaceOnUse">
<stop stop-color="#2E3192"/>
<stop offset="1" stop-color="#2484C6"/>
</linearGradient>
<linearGradient id="paint76_linear_6_108" x1="358.059" y1="463.776" x2="358.059" y2="729.764" gradientUnits="userSpaceOnUse">
<stop stop-color="#2E3192"/>
<stop offset="1" stop-color="#2484C6"/>
</linearGradient>
<linearGradient id="paint77_linear_6_108" x1="362.875" y1="454.15" x2="362.875" y2="720.138" gradientUnits="userSpaceOnUse">
<stop stop-color="#2E3192"/>
<stop offset="1" stop-color="#2484C6"/>
</linearGradient>
</defs>
</svg>
