<svg width="339" height="593" viewBox="0 0 339 593" fill="none" xmlns="http://www.w3.org/2000/svg">
<path d="M339 593L339 2.28882e-05L0.266022 8.08165e-06L0.265996 593L339 593Z" fill="#020101"/>
<path d="M336.182 105.624L339 105.624L339 102.571L336.182 102.571C310.096 102.571 288.874 81.3446 288.874 55.2529L288.874 2.06971e-05L285.822 2.05637e-05L285.822 55.2529C285.822 83.0284 308.416 105.624 336.182 105.624Z" fill="url(#paint0_linear_744_2034)"/>
<path d="M336.182 98.5018L339 98.5018L339 95.4492L336.182 95.4492C314.022 95.4492 295.994 77.4178 295.994 55.2529L295.994 2.10083e-05L292.942 2.08749e-05L292.942 55.2529C292.946 79.1017 312.342 98.5018 336.182 98.5018Z" fill="url(#paint1_linear_744_2034)"/>
<path d="M336.182 91.3767L339 91.3767L339 88.324L336.182 88.324C317.951 88.324 303.118 73.4876 303.118 55.2529L303.118 2.13197e-05L300.066 2.11863e-05L300.066 55.2529C300.066 75.1715 316.268 91.3767 336.182 91.3767Z" fill="url(#paint2_linear_744_2034)"/>
<path d="M336.182 84.2549L339 84.2549L339 81.2023L336.182 81.2023C321.877 81.2023 310.238 69.5608 310.238 55.2529L310.238 2.1631e-05L307.186 2.14976e-05L307.186 55.2529C307.189 71.2447 320.197 84.2549 336.182 84.2549Z" fill="url(#paint3_linear_744_2034)"/>
<path d="M336.182 77.1332L339 77.1332L339 74.0805L336.182 74.0805C325.803 74.0805 317.362 65.634 317.362 55.2563L317.362 2.19423e-05L314.31 2.18089e-05L314.31 55.2529C314.31 67.3179 324.123 77.1332 336.182 77.1332Z" fill="url(#paint4_linear_744_2034)"/>
<path d="M336.182 70.008L339 70.008L339 66.9554L336.182 66.9554C329.729 66.9554 324.482 61.7038 324.482 55.2529L324.482 2.22536e-05L321.43 2.21202e-05L321.43 55.2529C321.43 63.3877 328.049 70.008 336.182 70.008Z" fill="url(#paint5_linear_744_2034)"/>
<path d="M159.275 503.205L159.275 418.351L156.223 418.351L156.223 503.205C156.223 529.297 135.001 550.523 108.915 550.523L44.525 550.523L44.525 553.576L108.915 553.576C136.684 553.576 159.275 530.981 159.275 503.205Z" fill="url(#paint6_linear_744_2034)"/>
<path d="M152.154 503.205L152.154 418.351L149.102 418.351L149.102 503.205C149.102 525.37 131.075 543.401 108.915 543.401L44.5251 543.401L44.5251 546.454L108.915 546.454C132.759 546.454 152.154 527.051 152.154 503.205Z" fill="url(#paint7_linear_744_2034)"/>
<path d="M145.034 503.205L145.034 418.351L141.982 418.351L141.982 503.205C141.982 521.44 127.149 536.276 108.918 536.276L44.5284 536.276L44.5284 539.329L108.915 539.329C128.833 539.329 145.034 523.124 145.034 503.205Z" fill="url(#paint8_linear_744_2034)"/>
<path d="M137.911 503.205L137.911 418.351L134.859 418.351L134.859 503.205C134.859 517.513 123.22 529.155 108.915 529.155L44.525 529.155L44.525 532.207L108.915 532.207C124.903 532.207 137.911 519.197 137.911 503.205Z" fill="url(#paint9_linear_744_2034)"/>
<path d="M130.79 503.205L130.79 418.351L127.738 418.351L127.738 503.205C127.738 513.586 119.297 522.029 108.918 522.029L44.5284 522.029L44.5284 525.082L108.915 525.082C120.977 525.082 130.79 515.27 130.79 503.205Z" fill="url(#paint10_linear_744_2034)"/>
<path d="M123.667 503.205L123.667 418.351L120.615 418.351L120.615 503.205C120.615 509.66 115.368 514.908 108.915 514.908L44.5249 514.908L44.5249 517.96L108.915 517.96C117.051 517.96 123.667 511.34 123.667 503.205Z" fill="url(#paint11_linear_744_2034)"/>
<path d="M149.82 196.224L222.746 196.224L222.746 193.172L149.82 193.172C122.051 193.172 99.4608 215.767 99.4608 243.542L99.4608 317.609L102.513 317.609L102.513 243.542C102.513 217.451 123.735 196.224 149.82 196.224Z" fill="url(#paint12_linear_744_2034)"/>
<path d="M149.82 203.35L222.746 203.35L222.746 200.297L149.82 200.297C125.98 200.297 106.581 219.697 106.581 243.546L106.581 317.613L109.633 317.613L109.633 243.542C109.633 221.378 127.66 203.35 149.82 203.35Z" fill="url(#paint13_linear_744_2034)"/>
<path d="M149.82 210.471L222.746 210.471L222.746 207.419L149.82 207.419C129.906 207.419 113.705 223.624 113.705 243.542L113.705 317.609L116.757 317.609L116.757 243.542C116.757 225.308 131.59 210.471 149.82 210.471Z" fill="url(#paint14_linear_744_2034)"/>
<path d="M149.82 217.593L222.746 217.593L222.746 214.54L149.82 214.54C133.832 214.54 120.825 227.551 120.825 243.542L120.825 317.609L123.877 317.609L123.877 243.542C123.877 229.235 135.516 217.593 149.82 217.593Z" fill="url(#paint15_linear_744_2034)"/>
<path d="M149.82 224.718L222.746 224.718L222.746 221.666L149.82 221.666C137.758 221.666 127.948 231.481 127.948 243.542L127.948 317.609L131 317.609L131 243.542C130.997 233.161 139.442 224.718 149.82 224.718Z" fill="url(#paint16_linear_744_2034)"/>
<path d="M149.82 231.84L222.746 231.84L222.746 228.787L149.82 228.787C141.687 228.787 135.069 235.404 135.069 243.542L135.069 317.609L138.121 317.609L138.121 243.542C138.121 237.088 143.368 231.84 149.82 231.84Z" fill="url(#paint17_linear_744_2034)"/>
<path d="M58.9719 415.298C32.886 415.298 11.6643 394.072 11.6643 367.98C11.6643 341.888 32.886 320.662 58.9719 320.662L183.277 320.662C191.41 320.662 198.029 314.045 198.029 305.907C198.029 297.772 191.41 291.152 183.277 291.152L138.127 291.152L138.127 294.204L183.277 294.204C189.73 294.204 194.977 299.456 194.977 305.907C194.977 312.361 189.73 317.609 183.277 317.609L58.9719 317.609C31.2025 317.609 8.61232 340.208 8.61232 367.98C8.61232 395.756 31.2025 418.351 58.9719 418.351L174.121 418.351L174.121 415.298L58.9719 415.298Z" fill="url(#paint18_linear_744_2034)"/>
<path d="M58.9718 408.176C36.8118 408.176 18.7844 390.145 18.7844 367.98C18.7844 345.819 36.8118 327.784 58.9718 327.784L183.277 327.784C195.339 327.784 205.149 317.968 205.149 305.907C205.149 293.845 195.336 284.03 183.277 284.03L138.127 284.03L138.127 287.083L183.277 287.083C193.656 287.083 202.097 295.529 202.097 305.907C202.097 316.288 193.652 324.731 183.277 324.731L58.9718 324.731C35.1283 324.731 15.7324 344.135 15.7324 367.98C15.7324 391.829 35.1283 411.229 58.9718 411.229L174.121 411.229L174.121 408.176L58.9718 408.176Z" fill="url(#paint19_linear_744_2034)"/>
<path d="M58.9719 401.051C40.7412 401.051 25.908 386.215 25.908 367.98C25.908 349.745 40.7412 334.909 58.9719 334.909L183.277 334.909C199.265 334.909 212.273 321.899 212.273 305.907C212.273 289.915 199.265 276.905 183.277 276.905L138.127 276.905L138.127 279.958L183.277 279.958C197.582 279.958 209.221 291.599 209.221 305.907C209.221 320.215 197.582 331.856 183.277 331.856L58.9719 331.856C39.0577 331.856 22.856 348.061 22.856 367.98C22.856 387.899 39.0577 404.104 58.9719 404.104L174.121 404.104L174.121 401.051L58.9719 401.051Z" fill="url(#paint20_linear_744_2034)"/>
<path d="M58.9719 393.929C44.6672 393.929 33.0283 382.288 33.0283 367.98C33.0283 353.672 44.6672 342.031 58.9719 342.031L183.277 342.031C203.191 342.031 219.393 325.825 219.393 305.907C219.393 285.988 203.191 269.783 183.277 269.783L138.127 269.783L138.127 272.836L183.277 272.836C201.508 272.836 216.341 287.672 216.341 305.907C216.341 324.142 201.508 338.978 183.277 338.978L58.9719 338.978C42.9837 338.978 29.9763 351.988 29.9763 367.98C29.9763 383.972 42.9837 396.982 58.9719 396.982L174.121 396.982L174.121 393.929L58.9719 393.929Z" fill="url(#paint21_linear_744_2034)"/>
<path d="M58.9719 386.804C48.5931 386.804 40.1519 378.358 40.1519 367.98C40.1519 357.599 48.5931 349.156 58.9719 349.156L183.277 349.156C207.117 349.156 226.516 329.756 226.516 305.907C226.516 282.062 207.121 262.658 183.277 262.658L138.127 262.658L138.127 265.711L183.277 265.711C205.437 265.711 223.464 283.742 223.464 305.907C223.464 328.072 205.437 346.103 183.277 346.103L58.9719 346.103C46.9096 346.103 37.0999 355.918 37.0999 367.98C37.0999 380.045 46.913 389.857 58.9719 389.857L174.121 389.857L174.121 386.804L58.9719 386.804Z" fill="url(#paint22_linear_744_2034)"/>
<path d="M58.9719 379.682C52.5191 379.682 47.2721 374.434 47.2721 367.98C47.2721 361.529 52.5191 356.278 58.9719 356.278L183.277 356.278C211.047 356.278 233.637 333.682 233.637 305.907C233.637 278.131 211.047 255.536 183.277 255.536L138.127 255.536L138.127 258.589L183.277 258.589C209.363 258.589 230.585 279.815 230.585 305.907C230.585 331.999 209.363 353.225 183.277 353.225L58.9719 353.225C50.8356 353.225 44.2201 359.845 44.2201 367.98C44.2201 376.118 50.8356 382.735 58.9719 382.735L174.121 382.735L174.121 379.682L58.9719 379.682Z" fill="url(#paint23_linear_744_2034)"/>
<path d="M144.523 588.382C144.523 562.29 165.744 541.064 191.83 541.064L288.918 541.064L288.918 538.011L191.83 538.011C164.061 538.011 141.471 560.606 141.471 588.382C141.471 589.91 141.552 591.421 141.684 592.915L144.743 592.915C144.604 591.424 144.523 589.91 144.523 588.382Z" fill="url(#paint24_linear_744_2034)"/>
<path d="M151.646 588.382C151.646 566.217 169.674 548.185 191.834 548.185L288.918 548.185L288.918 545.133L191.83 545.133C167.99 545.133 148.591 564.533 148.591 588.382C148.591 589.913 148.676 591.424 148.828 592.915L151.904 592.915C151.741 591.424 151.646 589.916 151.646 588.382Z" fill="url(#paint25_linear_744_2034)"/>
<path d="M158.766 588.382C158.766 570.147 173.6 555.311 191.83 555.311L288.918 555.311L288.918 552.258L191.83 552.258C171.916 552.258 155.714 568.463 155.714 588.382C155.714 589.917 155.823 591.428 156.009 592.915L159.085 592.915C158.882 591.431 158.766 589.92 158.766 588.382Z" fill="url(#paint26_linear_744_2034)"/>
<path d="M165.89 588.382C165.89 574.074 177.529 562.432 191.834 562.432L288.918 562.432L288.918 559.38L191.83 559.38C175.842 559.38 162.835 572.39 162.835 588.382C162.835 589.923 162.96 591.438 163.194 592.915L166.293 592.915C166.032 591.441 165.89 589.93 165.89 588.382Z" fill="url(#paint27_linear_744_2034)"/>
<path d="M173.01 588.382C173.01 578.001 181.455 569.557 191.83 569.557L288.918 569.557L288.918 566.505L191.83 566.505C179.768 566.505 169.958 576.32 169.958 588.382C169.958 589.937 170.128 591.451 170.436 592.915L173.583 592.915C173.224 591.461 173.01 589.947 173.01 588.382Z" fill="url(#paint28_linear_744_2034)"/>
<path d="M180.134 588.382C180.134 581.927 185.381 576.679 191.834 576.679L288.918 576.679L288.918 573.627L191.83 573.627C183.697 573.627 177.078 580.243 177.078 588.382C177.078 589.964 177.336 591.485 177.797 592.915L181.042 592.915C180.459 591.519 180.134 589.988 180.134 588.382Z" fill="url(#paint29_linear_744_2034)"/>
<path d="M68.0128 178.383C41.9269 178.383 20.7052 157.156 20.7052 131.065C20.7052 104.973 41.9269 83.7467 68.0128 83.7467L128.812 83.7467L128.812 80.6941L68.0128 80.6941C40.2434 80.6941 17.6532 103.289 17.6532 131.065C17.6532 158.84 40.2468 181.435 68.0128 181.435L222.746 181.435L222.746 178.383L68.0128 178.383Z" fill="url(#paint30_linear_744_2034)"/>
<path d="M68.0128 171.258C45.8528 171.258 27.8254 153.226 27.8254 131.061C27.8254 108.9 45.8528 90.8651 68.0128 90.8651L128.812 90.8651L128.812 87.8125L68.0128 87.8125C44.1727 87.8125 24.7734 107.216 24.7734 131.061C24.7734 154.91 44.1693 174.31 68.0128 174.31L222.746 174.31L222.746 171.258L68.0128 171.258Z" fill="url(#paint31_linear_744_2034)"/>
<path d="M68.0128 164.136C49.7821 164.136 34.949 149.299 34.949 131.065C34.949 112.83 49.7821 97.9937 68.0128 97.9937L128.812 97.9937L128.812 94.941L68.0128 94.941C48.0986 94.941 31.897 111.146 31.897 131.065C31.897 150.983 48.0986 167.189 68.0128 167.189L222.746 167.189L222.746 164.136L68.0128 164.136Z" fill="url(#paint32_linear_744_2034)"/>
<path d="M68.0128 157.011C53.708 157.011 42.0691 145.369 42.0691 131.061C42.0691 116.753 53.708 105.112 68.0128 105.112L128.812 105.112L128.812 102.059L68.0128 102.059C52.0245 102.059 39.0172 115.07 39.0171 131.061C39.0171 147.053 52.0245 160.063 68.0128 160.063L222.746 160.063L222.746 157.011L68.0128 157.011Z" fill="url(#paint33_linear_744_2034)"/>
<path d="M68.0128 149.889C57.634 149.889 49.1927 141.446 49.1927 131.065C49.1927 120.684 57.634 112.241 68.0128 112.241L128.812 112.241L128.812 109.188L68.0128 109.188C55.9538 109.188 46.1407 119.003 46.1407 131.065C46.1407 143.13 55.9538 152.942 68.0128 152.942L222.746 152.942L222.746 149.889L68.0128 149.889Z" fill="url(#paint34_linear_744_2034)"/>
<path d="M68.0128 142.767C61.5633 142.767 56.3129 137.519 56.3129 131.065C56.3129 124.614 61.5633 119.362 68.0128 119.362L128.812 119.362L128.812 116.31L68.0128 116.31C59.8798 116.31 53.2609 122.93 53.2609 131.065C53.2609 139.203 59.8798 145.82 68.0128 145.82L222.746 145.82L222.746 142.767L68.0128 142.767Z" fill="url(#paint35_linear_744_2034)"/>
<path d="M164.403 61.565L164.403 142.757L167.455 142.757L167.455 61.565C167.455 33.7894 144.865 11.1943 117.095 11.1943L0.266037 11.1943L0.266037 14.2469L117.095 14.247C143.181 14.247 164.403 35.4767 164.403 61.565Z" fill="url(#paint36_linear_744_2034)"/>
<path d="M157.283 61.565L157.283 142.757L160.335 142.757L160.335 61.565C160.335 37.7196 140.939 18.316 117.095 18.316L0.266006 18.316L0.266006 21.3687L117.095 21.3687C139.255 21.3721 157.283 39.4035 157.283 61.565Z" fill="url(#paint37_linear_744_2034)"/>
<path d="M150.163 61.565L150.163 142.757L153.215 142.757L153.215 61.565C153.215 41.6464 137.013 25.4412 117.099 25.4412L0.266052 25.4412L0.266052 28.4939L117.095 28.4939C135.329 28.4939 150.163 43.3303 150.163 61.565Z" fill="url(#paint38_linear_744_2034)"/>
<path d="M143.039 61.565L143.039 142.757L146.091 142.757L146.091 61.565C146.091 45.5732 133.084 32.5629 117.095 32.5629L0.266113 32.5629L0.266113 35.6156L117.095 35.6156C131.4 35.619 143.039 47.2571 143.039 61.565Z" fill="url(#paint39_linear_744_2034)"/>
<path d="M135.919 61.565L135.919 142.757L138.971 142.757L138.971 61.565C138.971 49.5034 129.158 39.6881 117.099 39.6881L0.266052 39.6881L0.266052 42.7407L117.095 42.7408C127.474 42.7408 135.919 51.1873 135.919 61.565Z" fill="url(#paint40_linear_744_2034)"/>
<path d="M128.795 61.565L128.795 142.757L131.847 142.757L131.847 61.565C131.847 53.4302 125.228 46.8098 117.095 46.8098L0.266083 46.8098L0.266083 49.8625L117.095 49.8625C123.548 49.8625 128.795 55.114 128.795 61.565Z" fill="url(#paint41_linear_744_2034)"/>
<path d="M40.7956 239.463C47.2485 239.463 52.4955 244.711 52.4955 251.166C52.4955 257.62 47.2485 262.868 40.7956 262.868L0.266089 262.868L0.266089 265.921L40.7956 265.921C48.9286 265.921 55.5475 259.3 55.5475 251.166C55.5475 243.031 48.9286 236.41 40.7956 236.41L0.26609 236.41L0.26609 239.463L40.7956 239.463Z" fill="url(#paint42_linear_744_2034)"/>
<path d="M40.7956 232.338C51.1744 232.338 59.6156 240.785 59.6156 251.162C59.6156 261.543 51.1744 269.986 40.7956 269.986L0.266054 269.986L0.266054 273.039L40.7956 273.039C52.8579 273.039 62.6676 263.224 62.6676 251.162C62.6676 239.097 52.8545 229.285 40.7956 229.285L0.266056 229.285L0.266056 232.338L40.7956 232.338Z" fill="url(#paint43_linear_744_2034)"/>
<path d="M40.7955 225.216C55.1003 225.216 66.7391 236.858 66.7391 251.166C66.7391 265.473 55.1002 277.115 40.7955 277.115L0.265974 277.115L0.265973 280.168L40.7955 280.168C56.7838 280.168 69.7911 267.157 69.7911 251.166C69.7911 235.174 56.7838 222.164 40.7955 222.164L0.265976 222.164L0.265976 225.216L40.7955 225.216Z" fill="url(#paint44_linear_744_2034)"/>
<path d="M40.7956 218.094C59.0262 218.094 73.8594 232.931 73.8594 251.166C73.8594 269.4 59.0262 284.237 40.7956 284.237L0.266026 284.237L0.266026 287.289L40.7956 287.289C60.7097 287.289 76.9114 271.084 76.9114 251.166C76.9114 231.247 60.7097 215.042 40.7956 215.042L0.266029 215.042L0.266029 218.094L40.7956 218.094Z" fill="url(#paint45_linear_744_2034)"/>
<path d="M40.7955 210.969C62.9555 210.969 80.9829 229.001 80.9829 251.166C80.9829 273.33 62.9555 291.362 40.7955 291.362L0.266018 291.362L0.266018 294.414L40.7955 294.414C64.6356 294.414 84.0349 275.014 84.0349 251.166C84.0349 227.317 64.639 207.917 40.7955 207.917L0.266022 207.917L0.266022 210.969L40.7955 210.969Z" fill="url(#paint46_linear_744_2034)"/>
<path d="M40.7956 203.848C66.8815 203.848 88.1032 225.074 88.1032 251.166C88.1032 277.257 66.8815 298.484 40.7956 298.484L0.266048 298.484L0.266048 301.536L40.7956 301.536C68.565 301.536 91.1551 278.941 91.1551 251.166C91.1552 223.39 68.565 200.795 40.7956 200.795L0.266052 200.795L0.266052 203.848L40.7956 203.848Z" fill="url(#paint47_linear_744_2034)"/>
<path d="M222.953 87.7921C252.03 87.7921 275.687 64.1297 275.687 35.0464L275.687 6.10352e-05L272.635 6.09017e-05L272.635 35.0464C272.635 62.4459 250.347 84.7395 222.953 84.7395C195.56 84.7395 173.271 62.4459 173.271 35.0464L173.271 5.65584e-05L170.219 5.6425e-05L170.219 35.0464C170.219 64.1297 193.876 87.7921 222.953 87.7921Z" fill="url(#paint48_linear_744_2034)"/>
<path d="M222.953 80.6704C248.104 80.6704 268.567 60.203 268.567 35.0464L268.567 6.10352e-05L265.515 6.09017e-05L265.515 35.0464C265.515 58.5191 246.424 77.6177 222.953 77.6177C199.486 77.6177 180.395 58.5225 180.395 35.0464L180.395 5.7181e-05L177.343 5.70476e-05L177.343 35.0464C177.343 60.203 197.802 80.6704 222.953 80.6704Z" fill="url(#paint49_linear_744_2034)"/>
<path d="M222.953 73.5452C244.178 73.5452 261.443 56.2762 261.443 35.0464L261.443 6.10352e-05L258.391 6.09017e-05L258.391 35.0464C258.391 54.5923 242.495 70.4926 222.953 70.4926C203.412 70.4926 187.515 54.5923 187.515 35.0464L187.515 5.78036e-05L184.463 5.76702e-05L184.463 35.0464C184.463 56.2762 201.731 73.5452 222.953 73.5452Z" fill="url(#paint50_linear_744_2034)"/>
<path d="M222.953 66.4235C240.249 66.4235 254.323 52.3494 254.323 35.0464L254.323 6.10352e-05L251.271 6.09017e-05L251.271 35.0464C251.271 50.6655 238.569 63.3708 222.953 63.3708C207.341 63.3708 194.635 50.6655 194.635 35.0464L194.635 5.84261e-05L191.583 5.82927e-05L191.583 35.0464C191.586 52.346 205.657 66.4235 222.953 66.4235Z" fill="url(#paint51_linear_744_2034)"/>
<path d="M222.953 59.2983C236.323 59.2983 247.2 48.4192 247.2 35.0464L247.2 6.10352e-05L244.148 6.09017e-05L244.148 35.0464C244.148 46.7353 234.639 56.2457 222.953 56.2457C211.267 56.2457 201.758 46.7353 201.758 35.0464L201.758 5.90489e-05L198.706 5.89155e-05L198.706 35.0464C198.706 48.4192 209.583 59.2983 222.953 59.2983Z" fill="url(#paint52_linear_744_2034)"/>
<path d="M222.953 52.1766C232.397 52.1766 240.08 44.4924 240.08 35.0464L240.08 6.10352e-05L237.028 6.09017e-05L237.028 35.0464C237.028 42.8085 230.714 49.1239 222.953 49.1239C215.193 49.1239 208.879 42.8085 208.879 35.0464L208.879 5.96713e-05L205.827 5.95379e-05L205.827 35.0464C205.83 44.4924 213.513 52.1766 222.953 52.1766Z" fill="url(#paint53_linear_744_2034)"/>
<path d="M44.5217 573.627L44.5217 486.529C44.5217 480.078 49.7687 474.827 56.2215 474.827C62.6744 474.827 67.9214 480.078 67.9214 486.529L67.9214 514.894L70.9734 514.894L70.9734 486.529C70.9734 478.394 64.3545 471.774 56.2215 471.774C48.0885 471.774 41.4697 478.394 41.4697 486.529L41.4697 573.627C41.4697 580.494 39.986 587.02 37.3439 592.915L40.677 592.915C43.1498 586.972 44.5217 580.457 44.5217 573.627Z" fill="url(#paint54_linear_744_2034)"/>
<path d="M16.0341 573.627L16.0341 486.529C16.0341 464.368 34.0616 446.333 56.2215 446.333C78.3815 446.333 96.4089 464.364 96.4089 486.529L96.4089 514.989L99.4609 514.989L99.4609 486.529C99.4609 462.684 80.065 443.28 56.2215 443.28C32.3815 443.28 12.9822 462.68 12.9822 486.529L12.9821 573.627C12.9821 581.866 7.65387 588.873 0.266084 591.414L0.266084 592.912L4.46639 592.912C11.3427 589.222 16.0341 581.965 16.0341 573.627Z" fill="url(#paint55_linear_744_2034)"/>
<path d="M8.9139 573.627L8.9139 486.529C8.9139 460.437 30.1356 439.211 56.2215 439.211C82.3074 439.211 103.529 460.437 103.529 486.529L103.529 514.894L106.581 514.894L106.581 486.529C106.581 458.754 83.9909 436.158 56.2215 436.158C28.4521 436.158 5.86191 458.757 5.86191 486.529L5.8619 573.627C5.8619 577.841 3.61609 581.531 0.266008 583.591L0.266008 587.043C5.36057 584.716 8.9139 579.583 8.9139 573.627Z" fill="url(#paint56_linear_744_2034)"/>
<path d="M37.4014 486.529C37.4014 476.148 45.8426 467.705 56.2214 467.705C66.6003 467.705 75.0415 476.148 75.0415 486.529L75.0415 514.894L78.0935 514.894L78.0935 486.529C78.0935 474.468 68.2804 464.652 56.2214 464.652C44.1591 464.652 34.3494 474.468 34.3494 486.529L34.3494 573.627C34.3494 580.613 32.5541 587.186 29.4106 592.915L32.8488 592.915C35.7551 587.104 37.4048 580.555 37.4048 573.627L37.4048 486.529L37.4014 486.529Z" fill="url(#paint57_linear_744_2034)"/>
<path d="M30.2778 486.529C30.2778 472.221 41.9167 460.58 56.2214 460.58C70.5262 460.58 82.1651 472.221 82.1651 486.529L82.1651 514.894L85.217 514.894L85.217 486.529C85.217 470.537 72.2097 457.527 56.2214 457.527C40.2332 457.527 27.2258 470.537 27.2258 486.529L27.2258 573.627C27.2258 580.82 24.9089 587.48 20.9931 592.915L24.6751 592.915C28.2149 587.328 30.2778 580.718 30.2778 573.627L30.2778 486.529Z" fill="url(#paint58_linear_744_2034)"/>
<path d="M23.1578 486.529C23.1578 468.294 37.9909 453.458 56.2216 453.458C74.4522 453.458 89.2854 468.294 89.2854 486.529L89.2854 514.894L92.3374 514.894L92.3374 486.529C92.3374 466.611 76.1358 450.405 56.2216 450.405C36.3074 450.405 20.1058 466.611 20.1058 486.529L20.1058 573.627C20.1058 581.277 16.776 588.162 11.4951 592.915L15.7937 592.915C20.37 587.785 23.1611 581.026 23.1612 573.627L23.1612 486.529L23.1578 486.529Z" fill="url(#paint59_linear_744_2034)"/>
<path d="M291.967 576.771L291.967 485.004C291.967 476.87 285.348 470.249 277.215 470.249L274.851 470.249L274.851 473.302L277.215 473.302C283.668 473.302 288.915 478.554 288.915 485.004L288.915 576.774C288.915 582.422 289.863 587.846 291.584 592.918L294.805 592.918C292.969 587.874 291.967 582.439 291.967 576.771Z" fill="url(#paint60_linear_744_2034)"/>
<path d="M299.087 576.771L299.087 485.004C299.087 472.943 289.274 463.128 277.215 463.128L274.851 463.128L274.851 466.18L277.215 466.18C287.594 466.18 296.035 474.623 296.035 485.004L296.035 576.774C296.035 582.48 297.156 587.924 299.172 592.918L302.481 592.918C300.307 587.972 299.087 582.514 299.087 576.771Z" fill="url(#paint61_linear_744_2034)"/>
<path d="M306.211 576.771L306.211 485.004C306.211 469.013 293.203 456.002 277.215 456.002L274.851 456.002L274.851 459.055L277.215 459.055C291.52 459.055 303.159 470.697 303.159 485.004L303.159 576.774C303.159 582.575 304.541 588.056 306.979 592.918L310.435 592.918C307.748 588.138 306.211 582.632 306.211 576.771Z" fill="url(#paint62_linear_744_2034)"/>
<path d="M313.331 576.771L313.331 485.004C313.331 465.086 297.129 448.881 277.215 448.881L274.85 448.881L274.85 451.933L277.215 451.933C295.446 451.933 310.279 466.77 310.279 485.004L310.279 576.774C310.279 582.747 312.094 588.3 315.197 592.918L318.984 592.918C315.451 588.48 313.331 582.873 313.331 576.771Z" fill="url(#paint63_linear_744_2034)"/>
<path d="M320.454 576.771L320.454 485.004C320.454 461.159 301.058 441.755 277.215 441.755L274.85 441.755L274.85 444.808L277.215 444.808C299.375 444.808 317.402 462.84 317.402 485.004L317.402 576.774C317.402 583.167 320.176 588.914 324.563 592.918L329.641 592.918C324.15 589.622 320.454 583.628 320.454 576.771Z" fill="url(#paint64_linear_744_2034)"/>
<path d="M327.574 576.771L327.575 485.005C327.575 457.229 304.984 434.634 277.215 434.634L274.851 434.634L274.851 437.687L277.215 437.687C303.301 437.687 324.523 458.913 324.523 485.005L324.523 576.774C324.523 584.818 330.992 591.367 339 591.516L339 588.463C332.676 588.314 327.574 583.134 327.574 576.771Z" fill="url(#paint65_linear_744_2034)"/>
<path d="M261.406 196.224L267.459 196.224C270.518 196.224 272.171 196.224 273.106 196.133L273.106 196.224C281.239 196.224 287.858 189.604 287.858 181.469L287.858 139.562C287.858 131.424 281.239 124.807 273.106 124.807C264.973 124.807 258.354 131.424 258.354 139.562L258.354 232.348C258.354 240.483 264.973 247.103 273.106 247.103L339 247.103L339 244.051L273.106 244.051C266.653 244.051 261.406 238.799 261.406 232.348L261.406 139.562C261.406 133.108 266.653 127.86 273.106 127.86C279.559 127.86 284.806 133.108 284.806 139.562L284.806 181.469C284.806 187.92 279.559 193.172 273.106 193.172L272.083 193.172C269.309 193.172 261.406 193.172 261.406 193.172" fill="url(#paint66_linear_744_2034)"/>
<path d="M254.286 232.348L254.286 139.562C254.286 129.181 262.731 120.738 273.106 120.738C283.482 120.738 291.926 129.184 291.926 139.562L291.926 181.469C291.926 191.85 283.481 200.294 273.106 200.294L272.083 200.294C269.309 200.294 261.813 200.294 261.813 200.294L261.406 200.294L261.406 203.346L267.459 203.346C270.518 203.346 272.171 203.346 273.106 203.255L273.106 203.346C285.168 203.346 294.978 193.531 294.978 181.469L294.978 139.562C294.978 127.497 285.165 117.685 273.106 117.685C261.047 117.685 251.234 127.501 251.234 139.562L251.234 232.348C251.234 244.41 261.047 254.225 273.106 254.225L339 254.225L339 251.172L273.106 251.172C262.727 251.176 254.286 242.729 254.286 232.348Z" fill="url(#paint67_linear_744_2034)"/>
<path d="M247.162 232.348L247.162 139.562C247.162 125.254 258.801 113.613 273.106 113.613C287.411 113.613 299.05 125.254 299.05 139.562L299.05 181.469C299.05 195.777 287.411 207.419 273.106 207.419L272.083 207.419C269.275 207.419 261.616 207.419 261.616 207.419L261.406 207.419L261.406 210.471L267.361 210.471C270.481 210.471 272.161 210.471 273.106 210.38L273.106 210.471C289.094 210.471 302.102 197.461 302.102 181.469L302.102 139.562C302.102 123.57 289.094 110.56 273.106 110.56C257.118 110.56 244.11 123.57 244.11 139.562L244.11 232.348C244.11 248.34 257.118 261.35 273.106 261.35L339 261.35L339 258.298L273.106 258.298C258.801 258.298 247.162 246.656 247.162 232.348Z" fill="url(#paint68_linear_744_2034)"/>
<path d="M240.042 232.348L240.042 139.562C240.042 121.327 254.875 106.491 273.106 106.491C291.337 106.491 306.17 121.327 306.17 139.562L306.17 181.469C306.17 199.704 291.337 214.54 273.106 214.54L272.083 214.54C269.278 214.54 261.64 214.54 261.64 214.54L261.406 214.537L261.406 217.573L267.361 217.593C270.481 217.593 272.161 217.593 273.106 217.498L273.106 217.593C293.02 217.593 309.222 201.388 309.222 181.469L309.222 139.562C309.222 119.644 293.02 103.438 273.106 103.438C253.192 103.438 236.99 119.644 236.99 139.562L236.99 232.348C236.99 252.267 253.192 268.472 273.106 268.472L339 268.472L339 265.419L273.106 265.419C254.875 265.423 240.042 250.586 240.042 232.348Z" fill="url(#paint69_linear_744_2034)"/>
<path d="M232.919 232.348L232.919 139.562C232.919 117.397 250.946 99.3658 273.106 99.3658C295.266 99.3658 313.293 117.401 313.293 139.562L313.293 181.469C313.293 203.631 295.266 221.666 273.106 221.666L272.083 221.666C269.275 221.666 261.616 221.666 261.616 221.666L261.406 221.666L261.406 224.718L267.361 224.718C270.481 224.718 272.161 224.718 273.106 224.623L273.106 224.718C296.946 224.718 316.345 205.315 316.345 181.469L316.345 139.562C316.345 115.713 296.95 96.3132 273.106 96.3132C249.263 96.3132 229.867 115.713 229.867 139.562L229.867 232.348C229.867 256.194 249.263 275.597 273.106 275.597L339 275.597L339 272.544L273.106 272.544C250.946 272.544 232.919 254.513 232.919 232.348Z" fill="url(#paint70_linear_744_2034)"/>
<path d="M225.799 232.348L225.799 139.562C225.799 113.47 247.02 92.2441 273.106 92.2441C299.192 92.2441 320.414 113.47 320.414 139.562L320.414 181.469C320.414 207.561 299.192 228.787 273.106 228.787L272.083 228.787C269.2 228.787 261.406 228.76 261.406 228.76L261.406 231.813L271.236 231.84C272.073 231.84 272.669 231.84 273.106 231.809L273.106 231.84C300.875 231.84 323.466 209.245 323.466 181.469L323.466 139.562C323.466 111.787 300.875 89.1914 273.106 89.1914C245.337 89.1914 222.747 111.79 222.747 139.562L222.747 232.348C222.747 260.124 245.337 282.719 273.106 282.719L339 282.719L339 279.666L273.106 279.666C247.02 279.666 225.799 258.44 225.799 232.348Z" fill="url(#paint71_linear_744_2034)"/>
<path d="M209.712 473.952C209.712 482.087 216.332 488.708 224.466 488.708C232.6 488.708 239.22 482.087 239.22 473.952L239.22 348.597C239.22 322.504 260.444 301.277 286.533 301.277C312.623 301.277 333.847 322.504 333.847 348.597L333.847 354.286L333.847 382.364C333.847 386.833 335.853 390.835 339 393.546L339 389.036C337.679 387.142 336.9 384.844 336.9 382.364L336.9 354.286L336.9 348.597C336.9 320.82 314.306 298.224 286.533 298.224C258.76 298.224 236.167 320.82 236.167 348.597L236.167 473.952C236.167 480.403 230.92 485.655 224.466 485.655C218.012 485.655 212.765 480.403 212.765 473.952L212.765 346.733C211.772 347.455 210.756 348.14 209.712 348.787L209.712 473.952Z" fill="url(#paint72_linear_744_2034)"/>
<path d="M202.817 473.725C202.817 485.787 212.615 495.603 224.656 495.603C236.699 495.603 246.494 485.787 246.494 473.725L246.494 348.37C246.494 326.204 264.494 308.172 286.62 308.172C308.746 308.172 326.746 326.204 326.746 348.37L326.746 354.059L326.746 382.138C326.746 390.754 331.755 398.201 339 401.766L339 398.299C333.497 395.013 329.794 389.009 329.794 382.138L329.794 354.059L329.794 348.37C329.794 324.52 310.427 305.119 286.62 305.119C262.817 305.119 243.447 324.52 243.447 348.37L243.447 473.725C243.447 484.107 235.015 492.55 224.656 492.55C214.293 492.55 205.864 484.103 205.864 473.725L205.864 350.827C204.866 351.325 203.852 351.796 202.817 352.229L202.817 473.725Z" fill="url(#paint73_linear_744_2034)"/>
<path d="M195.06 473.496C195.06 489.488 208.106 502.499 224.141 502.499C240.177 502.499 253.223 489.488 253.223 473.496L253.223 348.143C253.223 329.908 268.1 315.071 286.385 315.071C304.669 315.071 319.547 329.908 319.547 348.143L319.547 353.832L319.547 381.91C319.547 394.537 327.683 405.298 339 409.269L339 406.006C329.406 402.181 322.608 392.823 322.608 381.906L322.608 353.828L322.608 348.139C322.608 328.22 306.358 312.015 286.385 312.015C266.411 312.015 250.162 328.22 250.162 348.139L250.162 473.492C250.162 487.801 238.488 499.442 224.141 499.442C209.794 499.442 198.121 487.801 198.121 473.492L198.121 353.493C197.112 353.815 196.092 354.103 195.06 354.357L195.06 473.496Z" fill="url(#paint74_linear_744_2034)"/>
<path d="M188.164 474.13C188.164 494.05 204.387 510.256 224.328 510.256C244.269 510.256 260.492 494.05 260.492 474.13L260.492 348.775C260.492 334.467 272.147 322.825 286.47 322.825C300.794 322.825 312.449 334.467 312.449 348.775L312.449 354.464L312.449 382.543C312.449 399.138 323.713 413.145 339 417.364L339 414.189C325.419 410.065 315.505 397.441 315.505 382.543L315.505 354.464L315.505 348.775C315.505 332.783 302.48 319.772 286.47 319.772C270.461 319.772 257.436 332.783 257.436 348.775L257.436 474.13C257.436 492.366 242.583 507.203 224.328 507.203C206.073 507.203 191.22 492.366 191.22 474.13L191.22 355.833C190.21 355.996 189.192 356.141 188.164 356.243L188.164 474.13Z" fill="url(#paint75_linear_744_2034)"/>
<path d="M274.939 473.67L274.939 348.315C274.939 341.86 280.178 336.612 286.621 336.612C293.064 336.612 298.303 341.86 298.303 348.315L298.303 354.004L298.303 382.082C298.303 406.573 315.846 427.031 339 431.527L339 428.423C317.533 423.975 301.35 404.889 301.35 382.086L301.35 354.007L301.35 348.318C301.35 340.18 294.741 333.563 286.621 333.563C278.5 333.563 271.891 340.18 271.891 348.318L271.891 473.673C271.891 499.766 250.702 520.994 224.656 520.994C198.61 520.994 177.421 499.766 177.421 473.673L177.421 356.044L174.374 356.044L174.374 379.45L174.374 382.502L174.374 473.673C174.374 501.45 196.929 524.047 224.656 524.047C252.383 524.047 274.939 501.447 274.939 473.67Z" fill="url(#paint76_linear_744_2034)"/>
<path d="M181.269 356.27L181.269 473.9C181.269 497.747 200.661 517.151 224.501 517.151C248.337 517.151 267.733 497.747 267.733 473.9L267.733 348.545C267.733 338.164 276.172 329.72 286.549 329.72C296.926 329.72 305.366 338.164 305.366 348.545L305.366 354.234L305.366 382.312C305.366 402.859 319.767 420.095 339 424.476L339 421.342C321.467 417.025 308.418 401.168 308.418 382.312L308.418 354.234L308.418 348.545C308.418 336.48 298.606 326.667 286.549 326.667C274.489 326.667 264.681 336.483 264.681 348.545L264.681 473.9C264.681 496.063 246.657 514.098 224.501 514.098C202.345 514.098 184.32 496.066 184.32 473.9L184.32 356.243C183.982 356.25 183.643 356.27 183.304 356.27L181.269 356.27Z" fill="url(#paint77_linear_744_2034)"/>
<defs>
<linearGradient id="paint0_linear_744_2034" x1="312.412" y1="2.1726e-05" x2="312.412" y2="105.624" gradientUnits="userSpaceOnUse">
<stop stop-color="#2E3192"/>
<stop offset="1" stop-color="#2484C6"/>
</linearGradient>
<linearGradient id="paint1_linear_744_2034" x1="315.973" y1="2.18816e-05" x2="315.973" y2="98.501" gradientUnits="userSpaceOnUse">
<stop stop-color="#2E3192"/>
<stop offset="1" stop-color="#2484C6"/>
</linearGradient>
<linearGradient id="paint2_linear_744_2034" x1="319.533" y1="2.20373e-05" x2="319.533" y2="91.3779" gradientUnits="userSpaceOnUse">
<stop stop-color="#2E3192"/>
<stop offset="1" stop-color="#2484C6"/>
</linearGradient>
<linearGradient id="paint3_linear_744_2034" x1="323.094" y1="2.21929e-05" x2="323.094" y2="84.2546" gradientUnits="userSpaceOnUse">
<stop stop-color="#2E3192"/>
<stop offset="1" stop-color="#2484C6"/>
</linearGradient>
<linearGradient id="paint4_linear_744_2034" x1="326.655" y1="2.23486e-05" x2="326.655" y2="77.1316" gradientUnits="userSpaceOnUse">
<stop stop-color="#2E3192"/>
<stop offset="1" stop-color="#2484C6"/>
</linearGradient>
<linearGradient id="paint5_linear_744_2034" x1="330.216" y1="2.25042e-05" x2="330.216" y2="70.0084" gradientUnits="userSpaceOnUse">
<stop stop-color="#2E3192"/>
<stop offset="1" stop-color="#2484C6"/>
</linearGradient>
<linearGradient id="paint6_linear_744_2034" x1="101.902" y1="418.351" x2="101.902" y2="553.576" gradientUnits="userSpaceOnUse">
<stop stop-color="#2E3192"/>
<stop offset="1" stop-color="#2484C6"/>
</linearGradient>
<linearGradient id="paint7_linear_744_2034" x1="98.3412" y1="418.351" x2="98.3412" y2="546.453" gradientUnits="userSpaceOnUse">
<stop stop-color="#2E3192"/>
<stop offset="1" stop-color="#2484C6"/>
</linearGradient>
<linearGradient id="paint8_linear_744_2034" x1="94.7803" y1="418.351" x2="94.7803" y2="539.33" gradientUnits="userSpaceOnUse">
<stop stop-color="#2E3192"/>
<stop offset="1" stop-color="#2484C6"/>
</linearGradient>
<linearGradient id="paint9_linear_744_2034" x1="91.2194" y1="418.351" x2="91.2194" y2="532.206" gradientUnits="userSpaceOnUse">
<stop stop-color="#2E3192"/>
<stop offset="1" stop-color="#2484C6"/>
</linearGradient>
<linearGradient id="paint10_linear_744_2034" x1="87.6587" y1="418.351" x2="87.6587" y2="525.083" gradientUnits="userSpaceOnUse">
<stop stop-color="#2E3192"/>
<stop offset="1" stop-color="#2484C6"/>
</linearGradient>
<linearGradient id="paint11_linear_744_2034" x1="84.0978" y1="418.351" x2="84.0978" y2="517.96" gradientUnits="userSpaceOnUse">
<stop stop-color="#2E3192"/>
<stop offset="1" stop-color="#2484C6"/>
</linearGradient>
<linearGradient id="paint12_linear_744_2034" x1="161.103" y1="193.172" x2="161.103" y2="317.609" gradientUnits="userSpaceOnUse">
<stop stop-color="#2E3192"/>
<stop offset="1" stop-color="#2484C6"/>
</linearGradient>
<linearGradient id="paint13_linear_744_2034" x1="164.664" y1="200.295" x2="164.664" y2="317.609" gradientUnits="userSpaceOnUse">
<stop stop-color="#2E3192"/>
<stop offset="1" stop-color="#2484C6"/>
</linearGradient>
<linearGradient id="paint14_linear_744_2034" x1="168.225" y1="207.419" x2="168.225" y2="317.609" gradientUnits="userSpaceOnUse">
<stop stop-color="#2E3192"/>
<stop offset="1" stop-color="#2484C6"/>
</linearGradient>
<linearGradient id="paint15_linear_744_2034" x1="171.785" y1="214.542" x2="171.785" y2="317.609" gradientUnits="userSpaceOnUse">
<stop stop-color="#2E3192"/>
<stop offset="1" stop-color="#2484C6"/>
</linearGradient>
<linearGradient id="paint16_linear_744_2034" x1="175.346" y1="221.665" x2="175.346" y2="317.609" gradientUnits="userSpaceOnUse">
<stop stop-color="#2E3192"/>
<stop offset="1" stop-color="#2484C6"/>
</linearGradient>
<linearGradient id="paint17_linear_744_2034" x1="178.907" y1="228.788" x2="178.907" y2="317.609" gradientUnits="userSpaceOnUse">
<stop stop-color="#2E3192"/>
<stop offset="1" stop-color="#2484C6"/>
</linearGradient>
<linearGradient id="paint18_linear_744_2034" x1="103.321" y1="291.152" x2="103.321" y2="418.351" gradientUnits="userSpaceOnUse">
<stop stop-color="#2E3192"/>
<stop offset="1" stop-color="#2484C6"/>
</linearGradient>
<linearGradient id="paint19_linear_744_2034" x1="110.443" y1="284.028" x2="110.443" y2="411.228" gradientUnits="userSpaceOnUse">
<stop stop-color="#2E3192"/>
<stop offset="1" stop-color="#2484C6"/>
</linearGradient>
<linearGradient id="paint20_linear_744_2034" x1="117.564" y1="276.905" x2="117.564" y2="404.105" gradientUnits="userSpaceOnUse">
<stop stop-color="#2E3192"/>
<stop offset="1" stop-color="#2484C6"/>
</linearGradient>
<linearGradient id="paint21_linear_744_2034" x1="124.686" y1="269.782" x2="124.686" y2="396.981" gradientUnits="userSpaceOnUse">
<stop stop-color="#2E3192"/>
<stop offset="1" stop-color="#2484C6"/>
</linearGradient>
<linearGradient id="paint22_linear_744_2034" x1="131.808" y1="262.659" x2="131.808" y2="389.858" gradientUnits="userSpaceOnUse">
<stop stop-color="#2E3192"/>
<stop offset="1" stop-color="#2484C6"/>
</linearGradient>
<linearGradient id="paint23_linear_744_2034" x1="138.929" y1="255.536" x2="138.929" y2="382.735" gradientUnits="userSpaceOnUse">
<stop stop-color="#2E3192"/>
<stop offset="1" stop-color="#2484C6"/>
</linearGradient>
<linearGradient id="paint24_linear_744_2034" x1="215.196" y1="538.012" x2="215.196" y2="592.915" gradientUnits="userSpaceOnUse">
<stop stop-color="#2E3192"/>
<stop offset="1" stop-color="#2484C6"/>
</linearGradient>
<linearGradient id="paint25_linear_744_2034" x1="218.756" y1="545.135" x2="218.756" y2="592.915" gradientUnits="userSpaceOnUse">
<stop stop-color="#2E3192"/>
<stop offset="1" stop-color="#2484C6"/>
</linearGradient>
<linearGradient id="paint26_linear_744_2034" x1="222.317" y1="552.258" x2="222.317" y2="592.915" gradientUnits="userSpaceOnUse">
<stop stop-color="#2E3192"/>
<stop offset="1" stop-color="#2484C6"/>
</linearGradient>
<linearGradient id="paint27_linear_744_2034" x1="225.878" y1="559.381" x2="225.878" y2="592.915" gradientUnits="userSpaceOnUse">
<stop stop-color="#2E3192"/>
<stop offset="1" stop-color="#2484C6"/>
</linearGradient>
<linearGradient id="paint28_linear_744_2034" x1="229.439" y1="566.504" x2="229.439" y2="592.915" gradientUnits="userSpaceOnUse">
<stop stop-color="#2E3192"/>
<stop offset="1" stop-color="#2484C6"/>
</linearGradient>
<linearGradient id="paint29_linear_744_2034" x1="233" y1="573.628" x2="233" y2="592.915" gradientUnits="userSpaceOnUse">
<stop stop-color="#2E3192"/>
<stop offset="1" stop-color="#2484C6"/>
</linearGradient>
<linearGradient id="paint30_linear_744_2034" x1="120.2" y1="80.6923" x2="120.2" y2="181.434" gradientUnits="userSpaceOnUse">
<stop stop-color="#2E3192"/>
<stop offset="1" stop-color="#2484C6"/>
</linearGradient>
<linearGradient id="paint31_linear_744_2034" x1="123.761" y1="87.8153" x2="123.761" y2="174.311" gradientUnits="userSpaceOnUse">
<stop stop-color="#2E3192"/>
<stop offset="1" stop-color="#2484C6"/>
</linearGradient>
<linearGradient id="paint32_linear_744_2034" x1="127.322" y1="94.9386" x2="127.322" y2="167.188" gradientUnits="userSpaceOnUse">
<stop stop-color="#2E3192"/>
<stop offset="1" stop-color="#2484C6"/>
</linearGradient>
<linearGradient id="paint33_linear_744_2034" x1="130.883" y1="102.062" x2="130.883" y2="160.065" gradientUnits="userSpaceOnUse">
<stop stop-color="#2E3192"/>
<stop offset="1" stop-color="#2484C6"/>
</linearGradient>
<linearGradient id="paint34_linear_744_2034" x1="134.443" y1="109.185" x2="134.443" y2="152.942" gradientUnits="userSpaceOnUse">
<stop stop-color="#2E3192"/>
<stop offset="1" stop-color="#2484C6"/>
</linearGradient>
<linearGradient id="paint35_linear_744_2034" x1="138.004" y1="116.308" x2="138.004" y2="145.818" gradientUnits="userSpaceOnUse">
<stop stop-color="#2E3192"/>
<stop offset="1" stop-color="#2484C6"/>
</linearGradient>
<linearGradient id="paint36_linear_744_2034" x1="83.8614" y1="11.1956" x2="83.8614" y2="142.758" gradientUnits="userSpaceOnUse">
<stop stop-color="#2E3192"/>
<stop offset="1" stop-color="#2484C6"/>
</linearGradient>
<linearGradient id="paint37_linear_744_2034" x1="80.3005" y1="18.3187" x2="80.3005" y2="142.758" gradientUnits="userSpaceOnUse">
<stop stop-color="#2E3192"/>
<stop offset="1" stop-color="#2484C6"/>
</linearGradient>
<linearGradient id="paint38_linear_744_2034" x1="76.7397" y1="25.442" x2="76.7397" y2="142.758" gradientUnits="userSpaceOnUse">
<stop stop-color="#2E3192"/>
<stop offset="1" stop-color="#2484C6"/>
</linearGradient>
<linearGradient id="paint39_linear_744_2034" x1="73.1791" y1="32.565" x2="73.1791" y2="142.758" gradientUnits="userSpaceOnUse">
<stop stop-color="#2E3192"/>
<stop offset="1" stop-color="#2484C6"/>
</linearGradient>
<linearGradient id="paint40_linear_744_2034" x1="69.6182" y1="39.6883" x2="69.6182" y2="142.758" gradientUnits="userSpaceOnUse">
<stop stop-color="#2E3192"/>
<stop offset="1" stop-color="#2484C6"/>
</linearGradient>
<linearGradient id="paint41_linear_744_2034" x1="66.0574" y1="46.8114" x2="66.0574" y2="142.758" gradientUnits="userSpaceOnUse">
<stop stop-color="#2E3192"/>
<stop offset="1" stop-color="#2484C6"/>
</linearGradient>
<linearGradient id="paint42_linear_744_2034" x1="27.906" y1="236.41" x2="27.906" y2="265.92" gradientUnits="userSpaceOnUse">
<stop stop-color="#2E3192"/>
<stop offset="1" stop-color="#2484C6"/>
</linearGradient>
<linearGradient id="paint43_linear_744_2034" x1="31.4668" y1="229.287" x2="31.4668" y2="273.044" gradientUnits="userSpaceOnUse">
<stop stop-color="#2E3192"/>
<stop offset="1" stop-color="#2484C6"/>
</linearGradient>
<linearGradient id="paint44_linear_744_2034" x1="35.0276" y1="222.164" x2="35.0276" y2="280.167" gradientUnits="userSpaceOnUse">
<stop stop-color="#2E3192"/>
<stop offset="1" stop-color="#2484C6"/>
</linearGradient>
<linearGradient id="paint45_linear_744_2034" x1="38.5883" y1="215.041" x2="38.5883" y2="287.29" gradientUnits="userSpaceOnUse">
<stop stop-color="#2E3192"/>
<stop offset="1" stop-color="#2484C6"/>
</linearGradient>
<linearGradient id="paint46_linear_744_2034" x1="42.1491" y1="207.917" x2="42.1491" y2="294.413" gradientUnits="userSpaceOnUse">
<stop stop-color="#2E3192"/>
<stop offset="1" stop-color="#2484C6"/>
</linearGradient>
<linearGradient id="paint47_linear_744_2034" x1="45.71" y1="200.794" x2="45.71" y2="301.536" gradientUnits="userSpaceOnUse">
<stop stop-color="#2E3192"/>
<stop offset="1" stop-color="#2484C6"/>
</linearGradient>
<linearGradient id="paint48_linear_744_2034" x1="222.954" y1="5.87301e-05" x2="222.954" y2="87.7925" gradientUnits="userSpaceOnUse">
<stop stop-color="#2E3192"/>
<stop offset="1" stop-color="#2484C6"/>
</linearGradient>
<linearGradient id="paint49_linear_744_2034" x1="222.955" y1="5.90414e-05" x2="222.955" y2="80.6693" gradientUnits="userSpaceOnUse">
<stop stop-color="#2E3192"/>
<stop offset="1" stop-color="#2484C6"/>
</linearGradient>
<linearGradient id="paint50_linear_744_2034" x1="222.955" y1="5.93528e-05" x2="222.955" y2="73.5462" gradientUnits="userSpaceOnUse">
<stop stop-color="#2E3192"/>
<stop offset="1" stop-color="#2484C6"/>
</linearGradient>
<linearGradient id="paint51_linear_744_2034" x1="222.955" y1="5.9664e-05" x2="222.955" y2="66.4231" gradientUnits="userSpaceOnUse">
<stop stop-color="#2E3192"/>
<stop offset="1" stop-color="#2484C6"/>
</linearGradient>
<linearGradient id="paint52_linear_744_2034" x1="222.954" y1="5.99754e-05" x2="222.954" y2="59.2998" gradientUnits="userSpaceOnUse">
<stop stop-color="#2E3192"/>
<stop offset="1" stop-color="#2484C6"/>
</linearGradient>
<linearGradient id="paint53_linear_744_2034" x1="222.955" y1="6.02866e-05" x2="222.955" y2="52.1767" gradientUnits="userSpaceOnUse">
<stop stop-color="#2E3192"/>
<stop offset="1" stop-color="#2484C6"/>
</linearGradient>
<linearGradient id="paint54_linear_744_2034" x1="54.159" y1="471.775" x2="54.159" y2="592.915" gradientUnits="userSpaceOnUse">
<stop stop-color="#2E3192"/>
<stop offset="1" stop-color="#2484C6"/>
</linearGradient>
<linearGradient id="paint55_linear_744_2034" x1="49.863" y1="443.282" x2="49.863" y2="592.915" gradientUnits="userSpaceOnUse">
<stop stop-color="#2E3192"/>
<stop offset="1" stop-color="#2484C6"/>
</linearGradient>
<linearGradient id="paint56_linear_744_2034" x1="53.4236" y1="436.159" x2="53.4236" y2="587.043" gradientUnits="userSpaceOnUse">
<stop stop-color="#2E3192"/>
<stop offset="1" stop-color="#2484C6"/>
</linearGradient>
<linearGradient id="paint57_linear_744_2034" x1="53.7514" y1="464.652" x2="53.7514" y2="592.915" gradientUnits="userSpaceOnUse">
<stop stop-color="#2E3192"/>
<stop offset="1" stop-color="#2484C6"/>
</linearGradient>
<linearGradient id="paint58_linear_744_2034" x1="53.1056" y1="457.529" x2="53.1056" y2="592.915" gradientUnits="userSpaceOnUse">
<stop stop-color="#2E3192"/>
<stop offset="1" stop-color="#2484C6"/>
</linearGradient>
<linearGradient id="paint59_linear_744_2034" x1="51.9161" y1="450.405" x2="51.9161" y2="592.915" gradientUnits="userSpaceOnUse">
<stop stop-color="#2E3192"/>
<stop offset="1" stop-color="#2484C6"/>
</linearGradient>
<linearGradient id="paint60_linear_744_2034" x1="284.828" y1="470.248" x2="284.827" y2="592.915" gradientUnits="userSpaceOnUse">
<stop stop-color="#2E3192"/>
<stop offset="1" stop-color="#2484C6"/>
</linearGradient>
<linearGradient id="paint61_linear_744_2034" x1="288.667" y1="463.125" x2="288.667" y2="592.915" gradientUnits="userSpaceOnUse">
<stop stop-color="#2E3192"/>
<stop offset="1" stop-color="#2484C6"/>
</linearGradient>
<linearGradient id="paint62_linear_744_2034" x1="292.641" y1="456.002" x2="292.641" y2="592.915" gradientUnits="userSpaceOnUse">
<stop stop-color="#2E3192"/>
<stop offset="1" stop-color="#2484C6"/>
</linearGradient>
<linearGradient id="paint63_linear_744_2034" x1="296.918" y1="448.879" x2="296.918" y2="592.915" gradientUnits="userSpaceOnUse">
<stop stop-color="#2E3192"/>
<stop offset="1" stop-color="#2484C6"/>
</linearGradient>
<linearGradient id="paint64_linear_744_2034" x1="302.245" y1="441.756" x2="302.245" y2="592.915" gradientUnits="userSpaceOnUse">
<stop stop-color="#2E3192"/>
<stop offset="1" stop-color="#2484C6"/>
</linearGradient>
<linearGradient id="paint65_linear_744_2034" x1="306.925" y1="434.633" x2="306.925" y2="591.513" gradientUnits="userSpaceOnUse">
<stop stop-color="#2E3192"/>
<stop offset="1" stop-color="#2484C6"/>
</linearGradient>
<linearGradient id="paint66_linear_744_2034" x1="298.677" y1="124.808" x2="298.677" y2="247.105" gradientUnits="userSpaceOnUse">
<stop stop-color="#2E3192"/>
<stop offset="1" stop-color="#2484C6"/>
</linearGradient>
<linearGradient id="paint67_linear_744_2034" x1="295.116" y1="117.685" x2="295.116" y2="254.228" gradientUnits="userSpaceOnUse">
<stop stop-color="#2E3192"/>
<stop offset="1" stop-color="#2484C6"/>
</linearGradient>
<linearGradient id="paint68_linear_744_2034" x1="291.556" y1="110.562" x2="291.556" y2="261.351" gradientUnits="userSpaceOnUse">
<stop stop-color="#2E3192"/>
<stop offset="1" stop-color="#2484C6"/>
</linearGradient>
<linearGradient id="paint69_linear_744_2034" x1="287.995" y1="103.439" x2="287.995" y2="268.474" gradientUnits="userSpaceOnUse">
<stop stop-color="#2E3192"/>
<stop offset="1" stop-color="#2484C6"/>
</linearGradient>
<linearGradient id="paint70_linear_744_2034" x1="284.434" y1="96.3158" x2="284.434" y2="275.597" gradientUnits="userSpaceOnUse">
<stop stop-color="#2E3192"/>
<stop offset="1" stop-color="#2484C6"/>
</linearGradient>
<linearGradient id="paint71_linear_744_2034" x1="280.873" y1="89.1927" x2="280.873" y2="282.721" gradientUnits="userSpaceOnUse">
<stop stop-color="#2E3192"/>
<stop offset="1" stop-color="#2484C6"/>
</linearGradient>
<linearGradient id="paint72_linear_744_2034" x1="274.356" y1="298.225" x2="274.356" y2="488.71" gradientUnits="userSpaceOnUse">
<stop stop-color="#2E3192"/>
<stop offset="1" stop-color="#2484C6"/>
</linearGradient>
<linearGradient id="paint73_linear_744_2034" x1="270.908" y1="305.122" x2="270.908" y2="495.606" gradientUnits="userSpaceOnUse">
<stop stop-color="#2E3192"/>
<stop offset="1" stop-color="#2484C6"/>
</linearGradient>
<linearGradient id="paint74_linear_744_2034" x1="267.03" y1="312.019" x2="267.03" y2="502.5" gradientUnits="userSpaceOnUse">
<stop stop-color="#2E3192"/>
<stop offset="1" stop-color="#2484C6"/>
</linearGradient>
<linearGradient id="paint75_linear_744_2034" x1="263.582" y1="319.774" x2="263.582" y2="510.258" gradientUnits="userSpaceOnUse">
<stop stop-color="#2E3192"/>
<stop offset="1" stop-color="#2484C6"/>
</linearGradient>
<linearGradient id="paint76_linear_744_2034" x1="256.687" y1="333.561" x2="256.687" y2="524.045" gradientUnits="userSpaceOnUse">
<stop stop-color="#2E3192"/>
<stop offset="1" stop-color="#2484C6"/>
</linearGradient>
<linearGradient id="paint77_linear_744_2034" x1="260.135" y1="326.667" x2="260.135" y2="517.152" gradientUnits="userSpaceOnUse">
<stop stop-color="#2E3192"/>
<stop offset="1" stop-color="#2484C6"/>
</linearGradient>
</defs>
</svg>
