<svg width="209" height="365" viewBox="0 0 209 365" fill="none" xmlns="http://www.w3.org/2000/svg">
<path d="M209 365L209 0L0.504379 -9.11363e-06L0.504363 365L209 365Z" fill="#020101"/>
<path d="M207.265 65.0128L209 65.0128L209 63.1339L207.265 63.1339C191.209 63.1339 178.147 50.0687 178.147 34.0089L178.147 -1.34864e-06L176.268 -1.43075e-06L176.268 34.0089C176.268 51.1052 190.175 65.0128 207.265 65.0128Z" fill="url(#paint0_linear_744_3292)"/>
<path d="M207.265 60.6293L209 60.6293L209 58.7503L207.265 58.7503C193.626 58.7503 182.529 47.6517 182.529 34.009L182.529 -1.15707e-06L180.651 -1.23918e-06L180.651 34.009C180.653 48.6882 192.591 60.6293 207.265 60.6293Z" fill="url(#paint1_linear_744_3292)"/>
<path d="M207.265 56.2437L209 56.2437L209 54.3647L207.265 54.3647C196.044 54.3647 186.914 45.2327 186.914 34.009L186.914 -9.65407e-07L185.036 -1.04752e-06L185.036 34.009C185.036 46.2691 195.008 56.2437 207.265 56.2437Z" fill="url(#paint2_linear_744_3292)"/>
<path d="M207.265 51.8601L209 51.8601L209 49.9811L207.265 49.9811C198.461 49.9811 191.297 42.8157 191.297 34.0089L191.297 -7.73839e-07L189.418 -8.55952e-07L189.418 34.0089C189.42 43.8521 197.426 51.8601 207.265 51.8601Z" fill="url(#paint3_linear_744_3292)"/>
<path d="M207.265 47.4766L209 47.4766L209 45.5976L207.265 45.5976C200.877 45.5976 195.681 40.3987 195.681 34.011L195.681 -5.82179e-07L193.803 -6.64293e-07L193.803 34.0089C193.803 41.4351 199.843 47.4766 207.265 47.4766Z" fill="url(#paint4_linear_744_3292)"/>
<path d="M207.265 43.0909L209 43.0909L209 41.212L207.265 41.212C203.293 41.212 200.064 37.9796 200.064 34.009L200.064 -3.9061e-07L198.185 -4.72724e-07L198.185 34.009C198.185 39.016 202.259 43.0909 207.265 43.0909Z" fill="url(#paint5_linear_744_3292)"/>
<path d="M98.3765 309.73L98.3765 257.501L96.4979 257.501L96.4979 309.73C96.4979 325.79 83.4357 338.855 67.3794 338.855L27.7465 338.855L27.7465 340.734L67.3794 340.734C84.4719 340.734 98.3765 326.826 98.3765 309.73Z" fill="url(#paint6_linear_744_3292)"/>
<path d="M93.9939 309.73L93.9939 257.501L92.1153 257.501L92.1153 309.73C92.1153 323.373 81.0192 334.471 67.3794 334.471L27.7465 334.471L27.7465 336.35L67.3794 336.35C82.0554 336.35 93.9939 324.407 93.9939 309.73Z" fill="url(#paint7_linear_744_3292)"/>
<path d="M89.6113 309.73L89.6113 257.501L87.7328 257.501L87.7328 309.73C87.7328 320.954 78.6028 330.086 67.3815 330.086L27.7486 330.086L27.7486 331.965L67.3794 331.965C79.639 331.965 89.6113 321.99 89.6113 309.73Z" fill="url(#paint8_linear_744_3292)"/>
<path d="M85.2266 309.73L85.2266 257.501L83.348 257.501L83.348 309.73C83.348 318.537 76.1841 325.702 67.3793 325.702L27.7464 325.702L27.7464 327.581L67.3793 327.581C77.2203 327.581 85.2266 319.573 85.2266 309.73Z" fill="url(#paint9_linear_744_3292)"/>
<path d="M80.844 309.73L80.844 257.501L78.9654 257.501L78.9654 309.73C78.9654 316.12 73.7697 321.317 67.3814 321.317L27.7485 321.317L27.7485 323.196L67.3793 323.196C74.8039 323.196 80.844 317.156 80.844 309.73Z" fill="url(#paint10_linear_744_3292)"/>
<path d="M76.4592 309.73L76.4592 257.501L74.5807 257.501L74.5807 309.73C74.5807 313.703 71.3511 316.933 67.3792 316.933L27.7463 316.933L27.7463 318.812L67.3792 318.812C72.3873 318.812 76.4592 314.737 76.4592 309.73Z" fill="url(#paint11_linear_744_3292)"/>
<path d="M92.5571 120.779L137.444 120.779L137.444 118.9L92.5571 118.9C75.4646 118.9 61.56 132.808 61.56 149.904L61.56 195.493L63.4386 195.493L63.4386 149.904C63.4386 133.844 76.5008 120.779 92.5571 120.779Z" fill="url(#paint12_linear_744_3292)"/>
<path d="M92.5571 125.165L137.444 125.165L137.444 123.286L92.5571 123.286C77.8832 123.286 65.9426 135.227 65.9426 149.906L65.9426 195.495L67.8212 195.495L67.8212 149.904C67.8212 136.261 78.9173 125.165 92.5571 125.165Z" fill="url(#paint13_linear_744_3292)"/>
<path d="M92.5571 129.548L137.444 129.548L137.444 127.669L92.5571 127.669C80.2996 127.669 70.3273 137.644 70.3273 149.904L70.3273 195.493L72.2058 195.493L72.2058 149.904C72.2058 138.68 81.3358 129.548 92.5571 129.548Z" fill="url(#paint14_linear_744_3292)"/>
<path d="M92.5571 133.932L137.444 133.932L137.444 132.053L92.5571 132.053C82.7161 132.053 74.7098 140.061 74.7098 149.904L74.7098 195.493L76.5884 195.493L76.5884 149.904C76.5884 141.097 83.7523 133.932 92.5571 133.932Z" fill="url(#paint15_linear_744_3292)"/>
<path d="M92.5571 138.317L137.444 138.317L137.444 136.438L92.5571 136.438C85.1325 136.438 79.0945 142.48 79.0945 149.904L79.0945 195.493L80.9731 195.493L80.9731 149.904C80.971 143.514 86.1688 138.317 92.5571 138.317Z" fill="url(#paint16_linear_744_3292)"/>
<path d="M92.5571 142.701L137.444 142.701L137.444 140.822L92.5571 140.822C87.5511 140.822 83.4771 144.895 83.4771 149.904L83.4771 195.493L85.3556 195.493L85.3556 149.904C85.3556 145.931 88.5852 142.701 92.5571 142.701Z" fill="url(#paint17_linear_744_3292)"/>
<path d="M36.6389 255.622C20.5826 255.622 7.52038 242.557 7.52038 226.497C7.52038 210.437 20.5826 197.372 36.6389 197.372L113.15 197.372C118.156 197.372 122.23 193.299 122.23 188.29C122.23 183.283 118.156 179.208 113.15 179.208L85.3601 179.208L85.3601 181.087L113.15 181.087C117.122 181.087 120.352 184.319 120.352 188.29C120.352 192.263 117.122 195.493 113.15 195.493L36.6389 195.493C19.5464 195.493 5.64183 209.403 5.64183 226.497C5.64183 243.593 19.5464 257.501 36.6389 257.501L107.515 257.501L107.515 255.622L36.6389 255.622Z" fill="url(#paint18_linear_744_3292)"/>
<path d="M36.6388 251.238C22.999 251.238 11.9029 240.14 11.9029 226.497C11.9029 212.856 22.999 201.756 36.6388 201.756L113.15 201.756C120.575 201.756 126.613 195.714 126.613 188.29C126.613 180.866 120.573 174.825 113.15 174.825L85.3601 174.825L85.3601 176.703L113.15 176.703C119.539 176.703 124.734 181.902 124.734 188.29C124.734 194.68 119.537 199.877 113.15 199.877L36.6388 199.877C21.9628 199.877 10.0243 211.82 10.0243 226.497C10.0243 241.176 21.9628 253.117 36.6388 253.117L107.515 253.117L107.515 251.238L36.6388 251.238Z" fill="url(#paint19_linear_744_3292)"/>
<path d="M36.6387 246.853C25.4175 246.853 16.2874 237.721 16.2874 226.497C16.2874 215.273 25.4175 206.141 36.6387 206.141L113.15 206.141C122.991 206.141 130.998 198.133 130.998 188.29C130.998 178.447 122.991 170.439 113.15 170.439L85.3599 170.439L85.3599 172.318L113.15 172.318C121.955 172.318 129.119 179.483 129.119 188.29C129.119 197.097 121.955 204.262 113.15 204.262L36.6387 204.262C24.3812 204.262 14.4089 214.237 14.4089 226.497C14.4089 238.757 24.3812 248.732 36.6387 248.732L107.515 248.732L107.515 246.853L36.6387 246.853Z" fill="url(#paint20_linear_744_3292)"/>
<path d="M36.6387 242.469C27.8339 242.469 20.67 235.304 20.67 226.497C20.67 217.69 27.8339 210.525 36.6387 210.525L113.15 210.525C125.408 210.525 135.38 200.55 135.38 188.29C135.38 176.03 125.408 166.055 113.15 166.055L85.36 166.055L85.36 167.934L113.15 167.934C124.372 167.934 133.502 177.066 133.502 188.29C133.502 199.514 124.372 208.646 113.15 208.646L36.6387 208.646C26.7977 208.646 18.7915 216.654 18.7915 226.497C18.7915 236.34 26.7977 244.348 36.6387 244.348L107.515 244.348L107.515 242.469L36.6387 242.469Z" fill="url(#paint21_linear_744_3292)"/>
<path d="M36.6388 238.084C30.2505 238.084 25.0548 232.885 25.0548 226.497C25.0548 220.107 30.2505 214.91 36.6388 214.91L113.15 214.91C127.824 214.91 139.765 202.969 139.765 188.29C139.765 173.613 127.826 161.67 113.15 161.67L85.3601 161.67L85.3601 163.549L113.15 163.549C126.79 163.549 137.886 174.647 137.886 188.29C137.886 201.933 126.79 213.031 113.15 213.031L36.6388 213.031C29.2143 213.031 23.1763 219.073 23.1763 226.497C23.1763 233.923 29.2164 239.962 36.6388 239.962L107.515 239.962L107.515 238.084L36.6388 238.084Z" fill="url(#paint22_linear_744_3292)"/>
<path d="M36.6388 233.7C32.6669 233.7 29.4373 230.47 29.4373 226.497C29.4373 222.526 32.6669 219.294 36.6388 219.294L113.15 219.294C130.243 219.294 144.147 205.386 144.147 188.29C144.147 171.194 130.243 157.286 113.15 157.286L85.36 157.286L85.36 159.165L113.15 159.165C129.207 159.165 142.269 172.23 142.269 188.29C142.269 204.35 129.207 217.415 113.15 217.415L36.6388 217.415C31.6307 217.415 27.5588 221.49 27.5588 226.497C27.5588 231.506 31.6307 235.579 36.6388 235.579L107.515 235.579L107.515 233.7L36.6388 233.7Z" fill="url(#paint23_linear_744_3292)"/>
<path d="M89.2963 362.157C89.2963 346.098 102.359 333.032 118.415 333.032L178.174 333.032L178.174 331.154L118.415 331.154C101.322 331.154 87.4178 345.061 87.4178 362.157C87.4178 363.098 87.4678 364.028 87.5491 364.948L89.4318 364.948C89.3464 364.03 89.2963 363.098 89.2963 362.157Z" fill="url(#paint24_linear_744_3292)"/>
<path d="M93.681 362.157C93.681 348.515 104.777 337.416 118.417 337.416L178.174 337.416L178.174 335.537L118.415 335.537C103.741 335.537 91.8004 347.478 91.8004 362.157C91.8004 363.1 91.8525 364.03 91.9463 364.948L93.8394 364.948C93.7394 364.03 93.681 363.102 93.681 362.157Z" fill="url(#paint25_linear_744_3292)"/>
<path d="M98.0636 362.157C98.0636 350.934 107.194 341.802 118.415 341.802L178.174 341.802L178.174 339.923L118.415 339.923C106.157 339.923 96.185 349.897 96.185 362.157C96.185 363.102 96.2517 364.032 96.3664 364.948L98.2595 364.948C98.1344 364.034 98.0636 363.104 98.0636 362.157Z" fill="url(#paint26_linear_744_3292)"/>
<path d="M102.448 362.157C102.448 353.351 109.612 346.185 118.417 346.185L178.174 346.185L178.174 344.306L118.415 344.306C108.574 344.306 100.568 352.314 100.568 362.157C100.568 363.106 100.645 364.038 100.789 364.948L102.696 364.948C102.536 364.04 102.448 363.11 102.448 362.157Z" fill="url(#paint27_linear_744_3292)"/>
<path d="M106.831 362.157C106.831 355.768 112.029 350.571 118.415 350.571L178.174 350.571L178.174 348.692L118.415 348.692C110.99 348.692 104.952 354.733 104.952 362.157C104.952 363.115 105.057 364.047 105.246 364.948L107.183 364.948C106.962 364.053 106.831 363.121 106.831 362.157Z" fill="url(#paint28_linear_744_3292)"/>
<path d="M111.215 362.157C111.215 358.185 114.445 354.954 118.417 354.954L178.174 354.954L178.174 353.075L118.415 353.075C113.409 353.075 109.335 357.148 109.335 362.157C109.335 363.131 109.493 364.068 109.777 364.948L111.774 364.948C111.416 364.088 111.215 363.146 111.215 362.157Z" fill="url(#paint29_linear_744_3292)"/>
<path d="M42.2033 109.797C26.147 109.797 13.0848 96.732 13.0848 80.6722C13.0848 64.6124 26.147 51.5473 42.2033 51.5473L79.6262 51.5473L79.6262 49.6683L42.2033 49.6683C25.1108 49.6683 11.2063 63.576 11.2063 80.6722C11.2063 97.7684 25.1129 111.676 42.2033 111.676L137.444 111.676L137.444 109.797L42.2033 109.797Z" fill="url(#paint30_linear_744_3292)"/>
<path d="M42.2033 105.412C28.5635 105.412 17.4674 94.3129 17.4674 80.6701C17.4674 67.0294 28.5635 55.9288 42.2033 55.9288L79.6262 55.9288L79.6262 54.0498L42.2033 54.0498C27.5294 54.0498 15.5888 65.993 15.5888 80.6701C15.5888 95.3494 27.5273 107.29 42.2033 107.29L137.444 107.29L137.444 105.412L42.2033 105.412Z" fill="url(#paint31_linear_744_3292)"/>
<path d="M42.2033 101.028C30.9821 101.028 21.852 91.8959 21.852 80.6722C21.852 69.4485 30.9821 60.3165 42.2033 60.3165L79.6262 60.3165L79.6262 58.4375L42.2033 58.4375C29.9458 58.4375 19.9735 68.4121 19.9735 80.6722C19.9735 92.9324 29.9458 102.907 42.2033 102.907L137.444 102.907L137.444 101.028L42.2033 101.028Z" fill="url(#paint32_linear_744_3292)"/>
<path d="M42.2033 96.6424C33.3985 96.6424 26.2346 89.4769 26.2346 80.6701C26.2346 71.8634 33.3985 64.698 42.2033 64.698L79.6262 64.698L79.6262 62.819L42.2033 62.819C32.3623 62.819 24.3561 70.827 24.3561 80.6701C24.3561 90.5133 32.3623 98.5213 42.2033 98.5213L137.444 98.5213L137.444 96.6424L42.2033 96.6424Z" fill="url(#paint33_linear_744_3292)"/>
<path d="M42.2033 92.2588C35.815 92.2588 30.6193 87.0619 30.6193 80.6722C30.6193 74.2825 35.815 69.0857 42.2033 69.0857L79.6262 69.0857L79.6262 67.2067L42.2033 67.2067C34.7808 67.2067 28.7407 73.2481 28.7407 80.6722C28.7407 88.0984 34.7808 94.1377 42.2033 94.1378L137.444 94.1378L137.444 92.2588L42.2033 92.2588Z" fill="url(#paint34_linear_744_3292)"/>
<path d="M42.2033 87.8752C38.2335 87.8752 35.0019 84.6449 35.0019 80.6722C35.0019 76.7016 38.2335 73.4692 42.2033 73.4692L79.6262 73.4692L79.6262 71.5902L42.2033 71.5902C37.1973 71.5902 33.1233 75.6651 33.1233 80.6722C33.1233 85.6814 37.1973 89.7542 42.2033 89.7542L137.444 89.7542L137.444 87.8752L42.2033 87.8752Z" fill="url(#paint35_linear_744_3292)"/>
<path d="M101.533 37.8941L101.533 87.869L103.411 87.869L103.411 37.8941C103.411 20.7979 89.5068 6.89023 72.4143 6.89023L0.504196 6.89022L0.504196 8.76918L72.4143 8.76919C88.4706 8.76919 101.533 21.8364 101.533 37.8941Z" fill="url(#paint36_linear_744_3292)"/>
<path d="M97.1505 37.8941L97.1505 87.869L99.029 87.869L99.0291 37.8941C99.0291 23.2169 87.0906 11.2738 72.4146 11.2738L0.504463 11.2738L0.504463 13.1527L72.4146 13.1527C86.0544 13.1548 97.1505 24.2534 97.1505 37.8941Z" fill="url(#paint37_linear_744_3292)"/>
<path d="M92.7679 37.8941L92.7679 87.869L94.6465 87.869L94.6465 37.8941C94.6465 25.634 84.6741 15.6594 72.4167 15.6594L0.504456 15.6594L0.504455 17.5384L72.4146 17.5384C83.6379 17.5384 92.7679 26.6704 92.7679 37.8941Z" fill="url(#paint38_linear_744_3292)"/>
<path d="M88.3832 37.8941L88.3832 87.869L90.2617 87.869L90.2617 37.8941C90.2617 28.0509 82.2555 20.043 72.4145 20.043L0.504372 20.0429L0.504372 21.9219L72.4145 21.9219C81.2193 21.924 88.3832 29.0874 88.3832 37.8941Z" fill="url(#paint39_linear_744_3292)"/>
<path d="M84.0006 37.8941L84.0006 87.869L85.8791 87.869L85.8791 37.8941C85.8792 30.47 79.839 24.4286 72.4166 24.4286L0.504372 24.4286L0.504372 26.3075L72.4145 26.3075C78.8028 26.3075 84.0006 31.5065 84.0006 37.8941Z" fill="url(#paint40_linear_744_3292)"/>
<path d="M79.6161 37.8941L79.6161 87.869L81.4946 87.869L81.4946 37.8941C81.4946 32.887 77.4206 28.8121 72.4146 28.8121L0.504509 28.8121L0.504509 30.6911L72.4146 30.6911C76.3865 30.6911 79.6161 33.9235 79.6161 37.8941Z" fill="url(#paint41_linear_744_3292)"/>
<path d="M25.4508 147.393C29.4226 147.393 32.6522 150.623 32.6522 154.596C32.6522 158.569 29.4226 161.799 25.4508 161.799L0.504272 161.799L0.504272 163.678L25.4508 163.678C30.4568 163.678 34.5308 159.603 34.5308 154.596C34.5308 149.589 30.4568 145.514 25.4508 145.514L0.504272 145.514L0.504272 147.393L25.4508 147.393Z" fill="url(#paint42_linear_744_3292)"/>
<path d="M25.4508 143.007C31.8391 143.007 37.0348 148.206 37.0348 154.594C37.0348 160.984 31.8391 166.18 25.4508 166.18L0.504283 166.18L0.504283 168.059L25.4508 168.059C32.8753 168.059 38.9133 162.018 38.9133 154.594C38.9133 147.168 32.8732 141.128 25.4508 141.128L0.504284 141.128L0.504284 143.007L25.4508 143.007Z" fill="url(#paint43_linear_744_3292)"/>
<path d="M25.4506 138.624C34.2554 138.624 41.4193 145.789 41.4193 154.596C41.4193 163.403 34.2554 170.568 25.4506 170.568L0.504115 170.568L0.504114 172.447L25.4506 172.447C35.2916 172.447 43.2979 164.439 43.2979 154.596C43.2979 144.753 35.2916 136.745 25.4506 136.745L0.504116 136.745L0.504116 138.624L25.4506 138.624Z" fill="url(#paint44_linear_744_3292)"/>
<path d="M25.4509 134.24C36.6721 134.24 45.8021 143.372 45.8021 154.596C45.8021 165.82 36.6721 174.952 25.4509 174.952L0.504351 174.952L0.504351 176.831L25.4509 176.831C37.7083 176.831 47.6807 166.856 47.6807 154.596C47.6807 142.336 37.7083 132.361 25.4509 132.361L0.504353 132.361L0.504352 134.24L25.4509 134.24Z" fill="url(#paint45_linear_744_3292)"/>
<path d="M25.4507 129.855C39.0905 129.855 50.1866 140.953 50.1866 154.596C50.1866 168.239 39.0905 179.337 25.4507 179.337L0.504228 179.337L0.504228 181.216L25.4507 181.216C40.1246 181.216 52.0652 169.275 52.0652 154.596C52.0652 139.917 40.1267 127.976 25.4507 127.976L0.50423 127.976L0.50423 129.855L25.4507 129.855Z" fill="url(#paint46_linear_744_3292)"/>
<path d="M25.4507 125.471C41.507 125.471 54.5692 138.536 54.5692 154.596C54.5692 170.656 41.507 183.721 25.4507 183.721L0.504205 183.721L0.504205 185.6L25.4507 185.6C42.5432 185.6 56.4478 171.692 56.4478 154.596C56.4478 137.5 42.5432 123.592 25.4507 123.592L0.504208 123.592L0.504208 125.471L25.4507 125.471Z" fill="url(#paint47_linear_744_3292)"/>
<path d="M137.571 54.0373C155.469 54.0373 170.03 39.4728 170.03 21.5716L170.03 3.05176e-05L168.151 3.04355e-05L168.151 21.5716C168.151 38.4363 154.432 52.1583 137.571 52.1583C120.71 52.1583 106.991 38.4363 106.991 21.5716L106.991 2.77621e-05L105.113 2.768e-05L105.113 21.5716C105.113 39.4728 119.674 54.0373 137.571 54.0373Z" fill="url(#paint48_linear_744_3292)"/>
<path d="M137.571 49.6538C153.052 49.6538 165.647 37.0558 165.647 21.5716L165.647 3.05176e-05L163.769 3.04355e-05L163.769 21.5716C163.769 36.0193 152.018 47.7748 137.571 47.7748C123.127 47.7748 111.376 36.0214 111.376 21.5716L111.376 2.81453e-05L109.498 2.80632e-05L109.498 21.5716C109.498 37.0558 122.091 49.6538 137.571 49.6538Z" fill="url(#paint49_linear_744_3292)"/>
<path d="M137.571 45.2681C150.636 45.2681 161.263 34.6388 161.263 21.5716L161.263 3.05176e-05L159.384 3.04355e-05L159.384 21.5716C159.384 33.6023 149.599 43.3892 137.571 43.3892C125.543 43.3892 115.759 33.6023 115.759 21.5716L115.759 2.85285e-05L113.88 2.84464e-05L113.88 21.5716C113.88 34.6388 124.509 45.2681 137.571 45.2681Z" fill="url(#paint50_linear_744_3292)"/>
<path d="M137.571 40.8846C148.217 40.8846 156.88 32.2218 156.88 21.5716L156.88 3.05176e-05L155.002 3.04355e-05L155.002 21.5716C155.002 31.1853 147.183 39.0056 137.571 39.0056C127.962 39.0056 120.141 31.1853 120.141 21.5716L120.141 2.89117e-05L118.263 2.88296e-05L118.263 21.5716C118.265 32.2197 126.926 40.8846 137.571 40.8846Z" fill="url(#paint51_linear_744_3292)"/>
<path d="M137.571 36.499C145.801 36.499 152.496 29.8027 152.496 21.5716L152.496 3.05176e-05L150.617 3.04355e-05L150.617 21.5716C150.617 28.7662 144.765 34.62 137.571 34.62C130.378 34.62 124.526 28.7662 124.526 21.5716L124.526 2.9295e-05L122.647 2.92129e-05L122.647 21.5716C122.647 29.8027 129.342 36.499 137.571 36.499Z" fill="url(#paint52_linear_744_3292)"/>
<path d="M137.571 32.1154C143.384 32.1154 148.113 27.3857 148.113 21.5716L148.113 3.05176e-05L146.234 3.04355e-05L146.234 21.5716C146.234 26.3493 142.348 30.2365 137.571 30.2365C132.795 30.2365 128.908 26.3493 128.908 21.5716L128.909 2.96781e-05L127.03 2.9596e-05L127.03 21.5716C127.032 27.3857 131.761 32.1154 137.571 32.1154Z" fill="url(#paint53_linear_744_3292)"/>
<path d="M27.7445 353.075L27.7445 299.466C27.7445 295.495 30.9741 292.263 34.9459 292.263C38.9177 292.263 42.1473 295.495 42.1473 299.466L42.1473 316.925L44.0259 316.925L44.0259 299.466C44.0259 294.459 39.9519 290.384 34.9459 290.384C29.9399 290.384 25.8659 294.459 25.8659 299.466L25.8659 353.075C25.8659 357.303 24.9527 361.319 23.3264 364.948L25.378 364.948C26.9001 361.29 27.7445 357.28 27.7445 353.075Z" fill="url(#paint54_linear_744_3292)"/>
<path d="M10.2099 353.075L10.2099 299.466C10.2099 285.825 21.3061 274.724 34.9458 274.724C48.5856 274.724 59.6818 285.823 59.6818 299.466L59.6818 316.983L61.5603 316.983L61.5603 299.466C61.5603 284.789 49.6218 272.845 34.9458 272.845C20.2719 272.845 8.33137 284.786 8.33137 299.466L8.33137 353.075C8.33137 358.147 5.05174 362.46 0.504452 364.024L0.504452 364.946L3.0898 364.946C7.32226 362.675 10.2099 358.208 10.2099 353.075Z" fill="url(#paint55_linear_744_3292)"/>
<path d="M5.82734 353.075L5.82734 299.466C5.82734 283.406 18.8896 270.341 34.9458 270.341C51.0021 270.341 64.0643 283.406 64.0643 299.466L64.0643 316.925L65.9429 316.925L65.9429 299.466C65.9429 282.369 52.0383 268.462 34.9458 268.462C17.8534 268.462 3.94879 282.371 3.94879 299.466L3.94879 353.075C3.94879 355.67 2.56646 357.941 0.504436 359.209L0.504436 361.334C3.64021 359.901 5.82734 356.742 5.82734 353.075Z" fill="url(#paint56_linear_744_3292)"/>
<path d="M23.3619 299.466C23.3619 293.076 28.5576 287.879 34.9459 287.879C41.3342 287.879 46.5299 293.076 46.5299 299.466L46.5299 316.925L48.4084 316.925L48.4084 299.466C48.4084 292.042 42.3683 286 34.9459 286C27.5214 286 21.4833 292.042 21.4833 299.466L21.4833 353.075C21.4833 357.376 20.3783 361.421 18.4434 364.948L20.5597 364.948C22.3486 361.371 23.3639 357.34 23.3639 353.075L23.3639 299.466L23.3619 299.466Z" fill="url(#paint57_linear_744_3292)"/>
<path d="M18.9773 299.466C18.9773 290.659 26.1412 283.493 34.946 283.493C43.7508 283.493 50.9147 290.659 50.9147 299.466L50.9147 316.925L52.7932 316.925L52.7932 299.466C52.7932 289.622 44.787 281.615 34.946 281.615C25.105 281.615 17.0988 289.622 17.0988 299.466L17.0988 353.075C17.0988 357.503 15.6727 361.603 13.2625 364.948L15.5288 364.948C17.7076 361.509 18.9773 357.44 18.9773 353.075L18.9773 299.466Z" fill="url(#paint58_linear_744_3292)"/>
<path d="M14.5947 299.466C14.5947 288.242 23.7247 279.11 34.946 279.11C46.1672 279.11 55.2972 288.242 55.2972 299.466L55.2972 316.925L57.1758 316.925L57.1758 299.466C57.1758 287.205 47.2034 277.231 34.946 277.231C22.6885 277.231 12.7162 287.205 12.7162 299.466L12.7162 353.075C12.7162 357.784 10.6667 362.022 7.41621 364.948L10.062 364.948C12.8788 361.79 14.5968 357.63 14.5968 353.075L14.5968 299.466L14.5947 299.466Z" fill="url(#paint59_linear_744_3292)"/>
<path d="M180.05 355.011L180.05 298.527C180.05 293.52 175.976 289.445 170.97 289.445L169.515 289.445L169.515 291.324L170.97 291.324C174.942 291.324 178.172 294.557 178.172 298.527L178.172 355.013C178.172 358.489 178.756 361.828 179.815 364.95L181.798 364.95C180.668 361.845 180.05 358.5 180.05 355.011Z" fill="url(#paint60_linear_744_3292)"/>
<path d="M184.433 355.011L184.433 298.527C184.433 291.103 178.393 285.062 170.971 285.062L169.515 285.062L169.515 286.941L170.971 286.941C177.359 286.941 182.555 292.137 182.555 298.527L182.555 355.013C182.555 358.525 183.245 361.876 184.485 364.95L186.522 364.95C185.184 361.905 184.433 358.545 184.433 355.011Z" fill="url(#paint61_linear_744_3292)"/>
<path d="M188.818 355.011L188.818 298.527C188.818 288.684 180.811 280.676 170.97 280.676L169.515 280.676L169.515 282.555L170.97 282.555C179.775 282.555 186.939 289.72 186.939 298.527L186.939 355.013C186.939 358.583 187.79 361.957 189.291 364.95L191.417 364.95C189.764 362.007 188.818 358.618 188.818 355.011Z" fill="url(#paint62_linear_744_3292)"/>
<path d="M193.2 355.011L193.2 298.527C193.2 286.267 183.228 276.292 170.97 276.292L169.515 276.292L169.515 278.171L170.97 278.171C182.192 278.171 191.322 287.303 191.322 298.527L191.322 355.013C191.322 358.689 192.439 362.107 194.349 364.95L196.68 364.95C194.505 362.218 193.2 358.766 193.2 355.011Z" fill="url(#paint63_linear_744_3292)"/>
<path d="M197.585 355.011L197.585 298.527C197.585 283.85 185.646 271.907 170.97 271.907L169.515 271.907L169.515 273.786L170.97 273.786C184.61 273.786 195.706 284.884 195.706 298.527L195.706 355.013C195.706 358.948 197.414 362.485 200.114 364.95L203.239 364.95C199.86 362.921 197.585 359.231 197.585 355.011Z" fill="url(#paint64_linear_744_3292)"/>
<path d="M201.967 355.011L201.967 298.527C201.967 281.431 188.063 267.523 170.97 267.523L169.515 267.523L169.515 269.402L170.97 269.402C187.027 269.402 200.089 282.467 200.089 298.527L200.089 355.013C200.089 359.964 204.071 363.995 209 364.086L209 362.207C205.107 362.116 201.967 358.927 201.967 355.011Z" fill="url(#paint65_linear_744_3292)"/>
<path d="M161.24 120.779L164.966 120.779C166.848 120.779 167.866 120.779 168.441 120.723L168.441 120.779C173.447 120.779 177.521 116.704 177.521 111.697L177.521 85.9025C177.521 80.8933 173.447 76.8205 168.441 76.8205C163.435 76.8205 159.361 80.8933 159.361 85.9024L159.361 143.014C159.361 148.021 163.435 152.096 168.441 152.096L209 152.096L209 150.217L168.441 150.217C164.47 150.217 161.24 146.984 161.24 143.014L161.24 85.9024C161.24 81.9297 164.47 78.6994 168.441 78.6994C172.413 78.6994 175.643 81.9297 175.643 85.9025L175.643 111.697C175.643 115.668 172.413 118.9 168.441 118.9L167.812 118.9C166.104 118.9 161.24 118.9 161.24 118.9" fill="url(#paint66_linear_744_3292)"/>
<path d="M156.857 143.014L156.857 85.9024C156.857 79.5127 162.055 74.3159 168.441 74.3159C174.828 74.3159 180.025 79.5148 180.025 85.9024L180.025 111.697C180.025 118.087 174.828 123.284 168.441 123.284L167.812 123.284C166.104 123.284 161.49 123.284 161.49 123.284L161.24 123.284L161.24 125.162L164.966 125.162C166.848 125.162 167.866 125.162 168.441 125.106L168.441 125.162C175.866 125.162 181.904 119.121 181.904 111.697L181.904 85.9024C181.904 78.4763 175.864 72.4369 168.441 72.4369C161.019 72.4369 154.979 78.4784 154.979 85.9024L154.979 143.014C154.979 150.438 161.019 156.479 168.441 156.479L209 156.479L209 154.6L168.441 154.6C162.053 154.602 156.857 149.403 156.857 143.014Z" fill="url(#paint67_linear_744_3292)"/>
<path d="M152.473 143.014L152.473 85.9025C152.473 77.0957 159.637 69.9303 168.441 69.9303C177.246 69.9303 184.41 77.0957 184.41 85.9025L184.41 111.697C184.41 120.504 177.246 127.669 168.441 127.669L167.812 127.669C166.083 127.669 161.369 127.669 161.369 127.669L161.24 127.669L161.24 129.548L164.905 129.548C166.826 129.548 167.86 129.548 168.441 129.492L168.441 129.548C178.282 129.548 186.289 121.54 186.289 111.697L186.289 85.9025C186.289 76.0593 178.282 68.0513 168.441 68.0513C158.6 68.0513 150.594 76.0593 150.594 85.9025L150.594 143.014C150.594 152.857 158.6 160.865 168.441 160.865L209 160.865L209 158.986L168.441 158.986C159.637 158.986 152.473 151.82 152.473 143.014Z" fill="url(#paint68_linear_744_3292)"/>
<path d="M148.09 143.014L148.09 85.9025C148.09 74.6787 157.22 65.5467 168.441 65.5467C179.663 65.5467 188.793 74.6788 188.793 85.9025L188.793 111.697C188.793 122.921 179.663 132.053 168.441 132.053L167.812 132.053C166.085 132.053 161.384 132.053 161.384 132.053L161.24 132.051L161.24 133.919L164.905 133.932C166.826 133.932 167.86 133.932 168.441 133.873L168.441 133.932C180.699 133.932 190.671 123.957 190.671 111.697L190.671 85.9025C190.671 73.6423 180.699 63.6678 168.441 63.6678C156.184 63.6678 146.212 73.6423 146.212 85.9025L146.212 143.014C146.212 155.274 156.184 165.248 168.441 165.248L209 165.248L209 163.369L168.441 163.369C157.22 163.371 148.09 154.239 148.09 143.014Z" fill="url(#paint69_linear_744_3292)"/>
<path d="M143.705 143.014L143.705 85.9024C143.705 72.2596 154.802 61.1611 168.441 61.1611C182.081 61.1611 193.177 72.2617 193.177 85.9024L193.177 111.697C193.177 125.338 182.081 136.438 168.441 136.438L167.812 136.438C166.083 136.438 161.369 136.438 161.369 136.438L161.24 136.438L161.24 138.317L164.905 138.317C166.826 138.317 167.86 138.317 168.441 138.259L168.441 138.317C183.115 138.317 195.056 126.374 195.056 111.697L195.056 85.9024C195.056 71.2232 183.117 59.2821 168.441 59.2821C153.765 59.2821 141.827 71.2232 141.827 85.9024L141.827 143.014C141.827 157.691 153.765 169.634 168.441 169.634L209 169.634L209 167.755L168.441 167.755C154.802 167.755 143.705 156.656 143.705 143.014Z" fill="url(#paint70_linear_744_3292)"/>
<path d="M139.323 143.014L139.323 85.9025C139.323 69.8427 152.385 56.7775 168.441 56.7775C184.498 56.7776 197.56 69.8427 197.56 85.9025L197.56 111.697C197.56 127.757 184.498 140.822 168.441 140.822L167.812 140.822C166.037 140.822 161.24 140.805 161.24 140.805L161.24 142.684L167.29 142.701C167.805 142.701 168.172 142.701 168.441 142.682L168.441 142.701C185.534 142.701 199.438 128.793 199.438 111.697L199.438 85.9025C199.438 68.8062 185.534 54.8986 168.441 54.8986C151.349 54.8986 137.444 68.8083 137.444 85.9025L137.444 143.014C137.444 160.11 151.349 174.017 168.441 174.018L209 174.018L209 172.139L168.441 172.139C152.385 172.139 139.323 159.073 139.323 143.014Z" fill="url(#paint71_linear_744_3292)"/>
<path d="M129.422 291.724C129.422 296.732 133.496 300.807 138.503 300.807C143.509 300.807 147.584 296.732 147.584 291.724L147.584 214.566C147.584 198.506 160.648 185.44 176.706 185.44C192.764 185.44 205.828 198.506 205.828 214.566L205.828 218.068L205.828 235.351C205.828 238.101 207.063 240.564 209 242.233L209 239.457C208.187 238.291 207.707 236.877 207.707 235.351L207.707 218.068L207.707 214.566C207.707 197.469 193.801 183.561 176.706 183.561C159.611 183.561 145.705 197.469 145.705 214.566L145.705 291.724C145.705 295.695 142.475 298.928 138.503 298.928C134.53 298.928 131.3 295.695 131.3 291.724L131.3 213.419C130.689 213.864 130.064 214.285 129.422 214.683L129.422 291.724Z" fill="url(#paint72_linear_744_3292)"/>
<path d="M125.177 291.585C125.177 299.009 131.208 305.051 138.619 305.051C146.033 305.051 152.061 299.009 152.061 291.585L152.061 214.427C152.061 200.783 163.141 189.684 176.76 189.684C190.379 189.684 201.458 200.783 201.458 214.427L201.458 217.928L201.458 235.211C201.458 240.515 204.541 245.099 209 247.292L209 245.159C205.613 243.136 203.333 239.441 203.333 235.211L203.333 217.928L203.333 214.427C203.333 199.747 191.413 187.805 176.76 187.805C162.108 187.805 150.186 199.747 150.186 214.427L150.186 291.585C150.186 297.975 144.996 303.172 138.619 303.172C132.241 303.172 127.053 297.973 127.053 291.585L127.053 215.939C126.439 216.245 125.814 216.535 125.177 216.802L125.177 291.585Z" fill="url(#paint73_linear_744_3292)"/>
<path d="M120.403 291.443C120.403 301.287 128.433 309.295 138.303 309.295C148.173 309.295 156.203 301.287 156.203 291.443L156.203 214.287C156.203 203.063 165.36 193.931 176.615 193.931C187.869 193.931 197.026 203.063 197.026 214.287L197.026 217.788L197.026 235.071C197.026 242.843 202.034 249.467 209 251.911L209 249.903C203.095 247.548 198.91 241.788 198.91 235.069L198.91 217.786L198.91 214.285C198.91 202.024 188.908 192.049 176.615 192.049C164.321 192.049 154.319 202.024 154.319 214.285L154.319 291.441C154.319 300.248 147.134 307.414 138.303 307.414C129.472 307.414 122.287 300.248 122.287 291.441L122.287 217.58C121.666 217.778 121.038 217.955 120.403 218.112L120.403 291.443Z" fill="url(#paint74_linear_744_3292)"/>
<path d="M116.158 291.834C116.158 304.095 126.144 314.07 138.418 314.07C150.692 314.07 160.677 304.095 160.677 291.834L160.677 214.676C160.677 205.869 167.851 198.703 176.667 198.703C185.484 198.703 192.657 205.869 192.657 214.676L192.657 218.178L192.657 235.46C192.657 245.675 199.591 254.297 209 256.893L209 254.939C200.641 252.401 194.538 244.63 194.538 235.46L194.538 218.178L194.538 214.676C194.538 204.833 186.521 196.824 176.667 196.824C166.813 196.824 158.796 204.833 158.796 214.676L158.796 291.834C158.796 303.058 149.654 312.191 138.418 312.191C127.182 312.191 118.039 303.058 118.039 291.834L118.039 219.02C117.417 219.12 116.791 219.21 116.158 219.273L116.158 291.834Z" fill="url(#paint75_linear_744_3292)"/>
<path d="M169.569 291.551L169.569 214.393C169.569 210.42 172.794 207.189 176.76 207.189C180.725 207.189 183.95 210.42 183.95 214.393L183.95 217.894L183.95 235.177C183.95 250.251 194.748 262.844 209 265.611L209 263.701C195.787 260.962 185.826 249.215 185.826 235.179L185.826 217.897L185.826 214.395C185.826 209.386 181.758 205.313 176.76 205.313C171.761 205.313 167.694 209.386 167.694 214.395L167.694 291.553C167.694 307.613 154.651 320.679 138.62 320.679C122.588 320.679 109.546 307.613 109.546 291.553L109.546 219.15L107.67 219.15L107.67 233.557L107.67 235.436L107.67 291.553C107.67 308.65 121.553 322.558 138.62 322.558C155.686 322.558 169.569 308.648 169.569 291.551Z" fill="url(#paint76_linear_744_3292)"/>
<path d="M111.914 219.29L111.914 291.692C111.914 306.37 123.851 318.314 138.524 318.314C153.195 318.314 165.134 306.37 165.134 291.692L165.134 214.535C165.134 208.145 170.329 202.947 176.716 202.947C183.103 202.947 188.298 208.145 188.298 214.535L188.298 218.036L188.298 235.319C188.298 247.965 197.162 258.574 209 261.271L209 259.342C198.208 256.685 190.176 246.925 190.176 235.319L190.176 218.036L190.176 214.535C190.176 207.108 184.137 201.068 176.716 201.068C169.293 201.068 163.256 207.11 163.256 214.535L163.256 291.692C163.256 305.334 152.161 316.435 138.524 316.435C124.887 316.435 113.792 305.336 113.792 291.692L113.792 219.273C113.584 219.277 113.376 219.29 113.167 219.29L111.914 219.29Z" fill="url(#paint77_linear_744_3292)"/>
<defs>
<linearGradient id="paint0_linear_744_3292" x1="192.635" y1="-7.15357e-07" x2="192.635" y2="65.0132" gradientUnits="userSpaceOnUse">
<stop stop-color="#2E3192"/>
<stop offset="1" stop-color="#2484C6"/>
</linearGradient>
<linearGradient id="paint1_linear_744_3292" x1="194.826" y1="-6.19553e-07" x2="194.826" y2="60.6288" gradientUnits="userSpaceOnUse">
<stop stop-color="#2E3192"/>
<stop offset="1" stop-color="#2484C6"/>
</linearGradient>
<linearGradient id="paint2_linear_744_3292" x1="197.018" y1="-5.23751e-07" x2="197.018" y2="56.2444" gradientUnits="userSpaceOnUse">
<stop stop-color="#2E3192"/>
<stop offset="1" stop-color="#2484C6"/>
</linearGradient>
<linearGradient id="paint3_linear_744_3292" x1="199.21" y1="-4.27947e-07" x2="199.21" y2="51.8599" gradientUnits="userSpaceOnUse">
<stop stop-color="#2E3192"/>
<stop offset="1" stop-color="#2484C6"/>
</linearGradient>
<linearGradient id="paint4_linear_744_3292" x1="201.401" y1="-3.32145e-07" x2="201.401" y2="47.4756" gradientUnits="userSpaceOnUse">
<stop stop-color="#2E3192"/>
<stop offset="1" stop-color="#2484C6"/>
</linearGradient>
<linearGradient id="paint5_linear_744_3292" x1="203.593" y1="-2.3634e-07" x2="203.593" y2="43.0911" gradientUnits="userSpaceOnUse">
<stop stop-color="#2E3192"/>
<stop offset="1" stop-color="#2484C6"/>
</linearGradient>
<linearGradient id="paint6_linear_744_3292" x1="63.0627" y1="257.501" x2="63.0627" y2="340.734" gradientUnits="userSpaceOnUse">
<stop stop-color="#2E3192"/>
<stop offset="1" stop-color="#2484C6"/>
</linearGradient>
<linearGradient id="paint7_linear_744_3292" x1="60.8711" y1="257.501" x2="60.8711" y2="336.349" gradientUnits="userSpaceOnUse">
<stop stop-color="#2E3192"/>
<stop offset="1" stop-color="#2484C6"/>
</linearGradient>
<linearGradient id="paint8_linear_744_3292" x1="58.6793" y1="257.501" x2="58.6793" y2="331.965" gradientUnits="userSpaceOnUse">
<stop stop-color="#2E3192"/>
<stop offset="1" stop-color="#2484C6"/>
</linearGradient>
<linearGradient id="paint9_linear_744_3292" x1="56.4875" y1="257.501" x2="56.4875" y2="327.581" gradientUnits="userSpaceOnUse">
<stop stop-color="#2E3192"/>
<stop offset="1" stop-color="#2484C6"/>
</linearGradient>
<linearGradient id="paint10_linear_744_3292" x1="54.2958" y1="257.501" x2="54.2958" y2="323.196" gradientUnits="userSpaceOnUse">
<stop stop-color="#2E3192"/>
<stop offset="1" stop-color="#2484C6"/>
</linearGradient>
<linearGradient id="paint11_linear_744_3292" x1="52.104" y1="257.501" x2="52.104" y2="318.812" gradientUnits="userSpaceOnUse">
<stop stop-color="#2E3192"/>
<stop offset="1" stop-color="#2484C6"/>
</linearGradient>
<linearGradient id="paint12_linear_744_3292" x1="99.5017" y1="118.9" x2="99.5017" y2="195.493" gradientUnits="userSpaceOnUse">
<stop stop-color="#2E3192"/>
<stop offset="1" stop-color="#2484C6"/>
</linearGradient>
<linearGradient id="paint13_linear_744_3292" x1="101.693" y1="123.285" x2="101.693" y2="195.493" gradientUnits="userSpaceOnUse">
<stop stop-color="#2E3192"/>
<stop offset="1" stop-color="#2484C6"/>
</linearGradient>
<linearGradient id="paint14_linear_744_3292" x1="103.885" y1="127.669" x2="103.885" y2="195.493" gradientUnits="userSpaceOnUse">
<stop stop-color="#2E3192"/>
<stop offset="1" stop-color="#2484C6"/>
</linearGradient>
<linearGradient id="paint15_linear_744_3292" x1="106.077" y1="132.054" x2="106.077" y2="195.493" gradientUnits="userSpaceOnUse">
<stop stop-color="#2E3192"/>
<stop offset="1" stop-color="#2484C6"/>
</linearGradient>
<linearGradient id="paint16_linear_744_3292" x1="108.269" y1="136.438" x2="108.269" y2="195.493" gradientUnits="userSpaceOnUse">
<stop stop-color="#2E3192"/>
<stop offset="1" stop-color="#2484C6"/>
</linearGradient>
<linearGradient id="paint17_linear_744_3292" x1="110.46" y1="140.822" x2="110.46" y2="195.493" gradientUnits="userSpaceOnUse">
<stop stop-color="#2E3192"/>
<stop offset="1" stop-color="#2484C6"/>
</linearGradient>
<linearGradient id="paint18_linear_744_3292" x1="63.9365" y1="179.208" x2="63.9365" y2="257.501" gradientUnits="userSpaceOnUse">
<stop stop-color="#2E3192"/>
<stop offset="1" stop-color="#2484C6"/>
</linearGradient>
<linearGradient id="paint19_linear_744_3292" x1="68.3199" y1="174.824" x2="68.3199" y2="253.117" gradientUnits="userSpaceOnUse">
<stop stop-color="#2E3192"/>
<stop offset="1" stop-color="#2484C6"/>
</linearGradient>
<linearGradient id="paint20_linear_744_3292" x1="72.7032" y1="170.439" x2="72.7032" y2="248.732" gradientUnits="userSpaceOnUse">
<stop stop-color="#2E3192"/>
<stop offset="1" stop-color="#2484C6"/>
</linearGradient>
<linearGradient id="paint21_linear_744_3292" x1="77.0866" y1="166.055" x2="77.0866" y2="244.348" gradientUnits="userSpaceOnUse">
<stop stop-color="#2E3192"/>
<stop offset="1" stop-color="#2484C6"/>
</linearGradient>
<linearGradient id="paint22_linear_744_3292" x1="81.4702" y1="161.67" x2="81.4702" y2="239.963" gradientUnits="userSpaceOnUse">
<stop stop-color="#2E3192"/>
<stop offset="1" stop-color="#2484C6"/>
</linearGradient>
<linearGradient id="paint23_linear_744_3292" x1="85.8537" y1="157.286" x2="85.8537" y2="235.579" gradientUnits="userSpaceOnUse">
<stop stop-color="#2E3192"/>
<stop offset="1" stop-color="#2484C6"/>
</linearGradient>
<linearGradient id="paint24_linear_744_3292" x1="132.796" y1="331.154" x2="132.796" y2="364.948" gradientUnits="userSpaceOnUse">
<stop stop-color="#2E3192"/>
<stop offset="1" stop-color="#2484C6"/>
</linearGradient>
<linearGradient id="paint25_linear_744_3292" x1="134.988" y1="335.538" x2="134.988" y2="364.948" gradientUnits="userSpaceOnUse">
<stop stop-color="#2E3192"/>
<stop offset="1" stop-color="#2484C6"/>
</linearGradient>
<linearGradient id="paint26_linear_744_3292" x1="137.18" y1="339.923" x2="137.18" y2="364.948" gradientUnits="userSpaceOnUse">
<stop stop-color="#2E3192"/>
<stop offset="1" stop-color="#2484C6"/>
</linearGradient>
<linearGradient id="paint27_linear_744_3292" x1="139.372" y1="344.307" x2="139.372" y2="364.948" gradientUnits="userSpaceOnUse">
<stop stop-color="#2E3192"/>
<stop offset="1" stop-color="#2484C6"/>
</linearGradient>
<linearGradient id="paint28_linear_744_3292" x1="141.563" y1="348.692" x2="141.563" y2="364.948" gradientUnits="userSpaceOnUse">
<stop stop-color="#2E3192"/>
<stop offset="1" stop-color="#2484C6"/>
</linearGradient>
<linearGradient id="paint29_linear_744_3292" x1="143.755" y1="353.076" x2="143.755" y2="364.948" gradientUnits="userSpaceOnUse">
<stop stop-color="#2E3192"/>
<stop offset="1" stop-color="#2484C6"/>
</linearGradient>
<linearGradient id="paint30_linear_744_3292" x1="74.3253" y1="49.6672" x2="74.3253" y2="111.675" gradientUnits="userSpaceOnUse">
<stop stop-color="#2E3192"/>
<stop offset="1" stop-color="#2484C6"/>
</linearGradient>
<linearGradient id="paint31_linear_744_3292" x1="76.517" y1="54.0516" x2="76.517" y2="107.291" gradientUnits="userSpaceOnUse">
<stop stop-color="#2E3192"/>
<stop offset="1" stop-color="#2484C6"/>
</linearGradient>
<linearGradient id="paint32_linear_744_3292" x1="78.7088" y1="58.436" x2="78.7087" y2="102.907" gradientUnits="userSpaceOnUse">
<stop stop-color="#2E3192"/>
<stop offset="1" stop-color="#2484C6"/>
</linearGradient>
<linearGradient id="paint33_linear_744_3292" x1="80.9005" y1="62.8204" x2="80.9005" y2="98.5221" gradientUnits="userSpaceOnUse">
<stop stop-color="#2E3192"/>
<stop offset="1" stop-color="#2484C6"/>
</linearGradient>
<linearGradient id="paint34_linear_744_3292" x1="83.0922" y1="67.2049" x2="83.0922" y2="94.1377" gradientUnits="userSpaceOnUse">
<stop stop-color="#2E3192"/>
<stop offset="1" stop-color="#2484C6"/>
</linearGradient>
<linearGradient id="paint35_linear_744_3292" x1="85.2839" y1="71.5892" x2="85.2839" y2="89.7532" gradientUnits="userSpaceOnUse">
<stop stop-color="#2E3192"/>
<stop offset="1" stop-color="#2484C6"/>
</linearGradient>
<linearGradient id="paint36_linear_744_3292" x1="51.9583" y1="6.89104" x2="51.9583" y2="87.8693" gradientUnits="userSpaceOnUse">
<stop stop-color="#2E3192"/>
<stop offset="1" stop-color="#2484C6"/>
</linearGradient>
<linearGradient id="paint37_linear_744_3292" x1="49.7668" y1="11.2754" x2="49.7668" y2="87.8693" gradientUnits="userSpaceOnUse">
<stop stop-color="#2E3192"/>
<stop offset="1" stop-color="#2484C6"/>
</linearGradient>
<linearGradient id="paint38_linear_744_3292" x1="47.5751" y1="15.6599" x2="47.5751" y2="87.8693" gradientUnits="userSpaceOnUse">
<stop stop-color="#2E3192"/>
<stop offset="1" stop-color="#2484C6"/>
</linearGradient>
<linearGradient id="paint39_linear_744_3292" x1="45.3834" y1="20.0442" x2="45.3834" y2="87.8693" gradientUnits="userSpaceOnUse">
<stop stop-color="#2E3192"/>
<stop offset="1" stop-color="#2484C6"/>
</linearGradient>
<linearGradient id="paint40_linear_744_3292" x1="43.1916" y1="24.4287" x2="43.1916" y2="87.8693" gradientUnits="userSpaceOnUse">
<stop stop-color="#2E3192"/>
<stop offset="1" stop-color="#2484C6"/>
</linearGradient>
<linearGradient id="paint41_linear_744_3292" x1="41" y1="28.8131" x2="41" y2="87.8693" gradientUnits="userSpaceOnUse">
<stop stop-color="#2E3192"/>
<stop offset="1" stop-color="#2484C6"/>
</linearGradient>
<linearGradient id="paint42_linear_744_3292" x1="17.517" y1="145.514" x2="17.517" y2="163.678" gradientUnits="userSpaceOnUse">
<stop stop-color="#2E3192"/>
<stop offset="1" stop-color="#2484C6"/>
</linearGradient>
<linearGradient id="paint43_linear_744_3292" x1="19.7088" y1="141.129" x2="19.7088" y2="168.062" gradientUnits="userSpaceOnUse">
<stop stop-color="#2E3192"/>
<stop offset="1" stop-color="#2484C6"/>
</linearGradient>
<linearGradient id="paint44_linear_744_3292" x1="21.9004" y1="136.745" x2="21.9004" y2="172.447" gradientUnits="userSpaceOnUse">
<stop stop-color="#2E3192"/>
<stop offset="1" stop-color="#2484C6"/>
</linearGradient>
<linearGradient id="paint45_linear_744_3292" x1="24.0923" y1="132.361" x2="24.0923" y2="176.831" gradientUnits="userSpaceOnUse">
<stop stop-color="#2E3192"/>
<stop offset="1" stop-color="#2484C6"/>
</linearGradient>
<linearGradient id="paint46_linear_744_3292" x1="26.2839" y1="127.976" x2="26.2839" y2="181.215" gradientUnits="userSpaceOnUse">
<stop stop-color="#2E3192"/>
<stop offset="1" stop-color="#2484C6"/>
</linearGradient>
<linearGradient id="paint47_linear_744_3292" x1="28.4756" y1="123.592" x2="28.4756" y2="185.6" gradientUnits="userSpaceOnUse">
<stop stop-color="#2E3192"/>
<stop offset="1" stop-color="#2484C6"/>
</linearGradient>
<linearGradient id="paint48_linear_744_3292" x1="137.572" y1="2.90988e-05" x2="137.572" y2="54.0375" gradientUnits="userSpaceOnUse">
<stop stop-color="#2E3192"/>
<stop offset="1" stop-color="#2484C6"/>
</linearGradient>
<linearGradient id="paint49_linear_744_3292" x1="137.572" y1="2.92904e-05" x2="137.572" y2="49.6531" gradientUnits="userSpaceOnUse">
<stop stop-color="#2E3192"/>
<stop offset="1" stop-color="#2484C6"/>
</linearGradient>
<linearGradient id="paint50_linear_744_3292" x1="137.572" y1="2.9482e-05" x2="137.572" y2="45.2687" gradientUnits="userSpaceOnUse">
<stop stop-color="#2E3192"/>
<stop offset="1" stop-color="#2484C6"/>
</linearGradient>
<linearGradient id="paint51_linear_744_3292" x1="137.572" y1="2.96736e-05" x2="137.572" y2="40.8844" gradientUnits="userSpaceOnUse">
<stop stop-color="#2E3192"/>
<stop offset="1" stop-color="#2484C6"/>
</linearGradient>
<linearGradient id="paint52_linear_744_3292" x1="137.572" y1="2.98653e-05" x2="137.572" y2="36.4999" gradientUnits="userSpaceOnUse">
<stop stop-color="#2E3192"/>
<stop offset="1" stop-color="#2484C6"/>
</linearGradient>
<linearGradient id="paint53_linear_744_3292" x1="137.572" y1="3.00568e-05" x2="137.572" y2="32.1155" gradientUnits="userSpaceOnUse">
<stop stop-color="#2E3192"/>
<stop offset="1" stop-color="#2484C6"/>
</linearGradient>
<linearGradient id="paint54_linear_744_3292" x1="33.6764" y1="290.384" x2="33.6764" y2="364.948" gradientUnits="userSpaceOnUse">
<stop stop-color="#2E3192"/>
<stop offset="1" stop-color="#2484C6"/>
</linearGradient>
<linearGradient id="paint55_linear_744_3292" x1="31.0321" y1="272.846" x2="31.0321" y2="364.948" gradientUnits="userSpaceOnUse">
<stop stop-color="#2E3192"/>
<stop offset="1" stop-color="#2484C6"/>
</linearGradient>
<linearGradient id="paint56_linear_744_3292" x1="33.2237" y1="268.462" x2="33.2237" y2="361.333" gradientUnits="userSpaceOnUse">
<stop stop-color="#2E3192"/>
<stop offset="1" stop-color="#2484C6"/>
</linearGradient>
<linearGradient id="paint57_linear_744_3292" x1="33.4255" y1="286" x2="33.4255" y2="364.948" gradientUnits="userSpaceOnUse">
<stop stop-color="#2E3192"/>
<stop offset="1" stop-color="#2484C6"/>
</linearGradient>
<linearGradient id="paint58_linear_744_3292" x1="33.0282" y1="281.615" x2="33.0282" y2="364.948" gradientUnits="userSpaceOnUse">
<stop stop-color="#2E3192"/>
<stop offset="1" stop-color="#2484C6"/>
</linearGradient>
<linearGradient id="paint59_linear_744_3292" x1="32.2959" y1="277.231" x2="32.2959" y2="364.948" gradientUnits="userSpaceOnUse">
<stop stop-color="#2E3192"/>
<stop offset="1" stop-color="#2484C6"/>
</linearGradient>
<linearGradient id="paint60_linear_744_3292" x1="175.656" y1="289.445" x2="175.656" y2="364.948" gradientUnits="userSpaceOnUse">
<stop stop-color="#2E3192"/>
<stop offset="1" stop-color="#2484C6"/>
</linearGradient>
<linearGradient id="paint61_linear_744_3292" x1="178.019" y1="285.06" x2="178.019" y2="364.948" gradientUnits="userSpaceOnUse">
<stop stop-color="#2E3192"/>
<stop offset="1" stop-color="#2484C6"/>
</linearGradient>
<linearGradient id="paint62_linear_744_3292" x1="180.465" y1="280.676" x2="180.465" y2="364.948" gradientUnits="userSpaceOnUse">
<stop stop-color="#2E3192"/>
<stop offset="1" stop-color="#2484C6"/>
</linearGradient>
<linearGradient id="paint63_linear_744_3292" x1="183.098" y1="276.291" x2="183.098" y2="364.948" gradientUnits="userSpaceOnUse">
<stop stop-color="#2E3192"/>
<stop offset="1" stop-color="#2484C6"/>
</linearGradient>
<linearGradient id="paint64_linear_744_3292" x1="186.377" y1="271.907" x2="186.377" y2="364.948" gradientUnits="userSpaceOnUse">
<stop stop-color="#2E3192"/>
<stop offset="1" stop-color="#2484C6"/>
</linearGradient>
<linearGradient id="paint65_linear_744_3292" x1="189.258" y1="267.523" x2="189.258" y2="364.085" gradientUnits="userSpaceOnUse">
<stop stop-color="#2E3192"/>
<stop offset="1" stop-color="#2484C6"/>
</linearGradient>
<linearGradient id="paint66_linear_744_3292" x1="184.181" y1="76.8214" x2="184.181" y2="152.097" gradientUnits="userSpaceOnUse">
<stop stop-color="#2E3192"/>
<stop offset="1" stop-color="#2484C6"/>
</linearGradient>
<linearGradient id="paint67_linear_744_3292" x1="181.989" y1="72.437" x2="181.989" y2="156.481" gradientUnits="userSpaceOnUse">
<stop stop-color="#2E3192"/>
<stop offset="1" stop-color="#2484C6"/>
</linearGradient>
<linearGradient id="paint68_linear_744_3292" x1="179.797" y1="68.0526" x2="179.797" y2="160.865" gradientUnits="userSpaceOnUse">
<stop stop-color="#2E3192"/>
<stop offset="1" stop-color="#2484C6"/>
</linearGradient>
<linearGradient id="paint69_linear_744_3292" x1="177.606" y1="63.6682" x2="177.606" y2="165.25" gradientUnits="userSpaceOnUse">
<stop stop-color="#2E3192"/>
<stop offset="1" stop-color="#2484C6"/>
</linearGradient>
<linearGradient id="paint70_linear_744_3292" x1="175.414" y1="59.2837" x2="175.414" y2="169.634" gradientUnits="userSpaceOnUse">
<stop stop-color="#2E3192"/>
<stop offset="1" stop-color="#2484C6"/>
</linearGradient>
<linearGradient id="paint71_linear_744_3292" x1="173.222" y1="54.8994" x2="173.222" y2="174.019" gradientUnits="userSpaceOnUse">
<stop stop-color="#2E3192"/>
<stop offset="1" stop-color="#2484C6"/>
</linearGradient>
<linearGradient id="paint72_linear_744_3292" x1="169.211" y1="183.562" x2="169.211" y2="300.808" gradientUnits="userSpaceOnUse">
<stop stop-color="#2E3192"/>
<stop offset="1" stop-color="#2484C6"/>
</linearGradient>
<linearGradient id="paint73_linear_744_3292" x1="167.088" y1="187.807" x2="167.088" y2="305.053" gradientUnits="userSpaceOnUse">
<stop stop-color="#2E3192"/>
<stop offset="1" stop-color="#2484C6"/>
</linearGradient>
<linearGradient id="paint74_linear_744_3292" x1="164.701" y1="192.052" x2="164.701" y2="309.296" gradientUnits="userSpaceOnUse">
<stop stop-color="#2E3192"/>
<stop offset="1" stop-color="#2484C6"/>
</linearGradient>
<linearGradient id="paint75_linear_744_3292" x1="162.579" y1="196.825" x2="162.579" y2="314.071" gradientUnits="userSpaceOnUse">
<stop stop-color="#2E3192"/>
<stop offset="1" stop-color="#2484C6"/>
</linearGradient>
<linearGradient id="paint76_linear_744_3292" x1="158.335" y1="205.311" x2="158.335" y2="322.557" gradientUnits="userSpaceOnUse">
<stop stop-color="#2E3192"/>
<stop offset="1" stop-color="#2484C6"/>
</linearGradient>
<linearGradient id="paint77_linear_744_3292" x1="160.457" y1="201.068" x2="160.457" y2="318.314" gradientUnits="userSpaceOnUse">
<stop stop-color="#2E3192"/>
<stop offset="1" stop-color="#2484C6"/>
</linearGradient>
</defs>
</svg>
