<svg width="208" height="208" viewBox="0 0 208 208" fill="none" xmlns="http://www.w3.org/2000/svg">
<path d="M202.245 105.841L201.69 114.299L190.176 113.543L190.291 111.782L200.148 112.43L200.473 107.492L190.616 106.845L190.731 105.084L202.245 105.841Z" fill="white"/>
<path d="M201.074 119.043L200.607 121.543C200.413 122.586 200.054 123.376 199.531 123.912C199.141 124.308 198.674 124.579 198.13 124.724C197.596 124.882 197.057 124.91 196.513 124.809C195.493 124.618 194.734 124.095 194.236 123.24C193.776 122.438 193.654 121.459 193.87 120.302L194.016 119.52L189.407 118.659L189.731 116.925L201.074 119.043ZM199.152 120.479L195.615 119.819L195.468 120.601C195.333 121.327 195.389 121.906 195.637 122.34C195.895 122.775 196.297 123.044 196.841 123.145C197.034 123.181 197.221 123.187 197.401 123.162C197.58 123.148 197.779 123.086 197.999 122.974C198.229 122.877 198.43 122.679 198.603 122.383C198.787 122.089 198.922 121.71 199.009 121.245L199.152 120.479Z" fill="white"/>
<path d="M197.38 129.552C198.114 130.99 198.216 132.527 197.685 134.161C197.155 135.796 196.17 136.98 194.732 137.713C193.293 138.447 191.762 138.55 190.139 138.023C188.515 137.497 187.336 136.514 186.603 135.075C185.869 133.637 185.768 132.1 186.298 130.466C186.829 128.831 187.813 127.647 189.252 126.914C190.69 126.18 192.221 126.077 193.845 126.604C195.468 127.131 196.647 128.113 197.38 129.552ZM189.937 128.446C188.923 128.953 188.226 129.794 187.845 130.968C187.464 132.142 187.535 133.232 188.057 134.238C188.59 135.247 189.466 135.95 190.683 136.345C191.901 136.74 193.017 136.684 194.03 136.176C195.055 135.672 195.757 134.833 196.138 133.659C196.519 132.486 196.443 131.394 195.91 130.384C195.388 129.378 194.518 128.677 193.3 128.282C192.082 127.887 190.961 127.941 189.937 128.446Z" fill="white"/>
<path d="M193.991 143.549L193.228 145.12C192.885 145.826 192.551 146.369 192.225 146.749C191.899 147.129 191.5 147.41 191.027 147.59C190.241 147.888 189.423 147.831 188.573 147.417C188.085 147.18 187.726 146.878 187.494 146.509C187.264 146.166 187.151 145.791 187.157 145.383C186.76 145.857 186.294 146.182 185.76 146.358C185.061 146.583 184.301 146.496 183.482 146.098C182.725 145.73 182.213 145.199 181.947 144.506C181.585 143.535 181.72 142.401 182.35 141.105L183.612 138.506L193.991 143.549ZM191.726 144.41L188.754 142.966L188.52 143.449C188.237 144.03 188.163 144.526 188.297 144.937C188.425 145.332 188.754 145.659 189.283 145.916C189.708 146.122 190.101 146.159 190.46 146.026C190.851 145.883 191.184 145.525 191.462 144.955L191.726 144.41ZM187.447 142.331L184.335 140.819L183.866 141.784C183.518 142.5 183.399 143.089 183.507 143.552C183.61 144.025 183.911 144.383 184.409 144.625C184.855 144.842 185.286 144.878 185.702 144.734C186.17 144.564 186.59 144.095 186.963 143.327L187.447 142.331Z" fill="white"/>
<path d="M185.603 158.769L184.195 157.888L186.637 153.988L184.159 152.436L181.79 156.22L180.383 155.338L182.751 151.555L179.672 149.627L177.23 153.528L175.822 152.647L179.2 147.25L188.981 153.373L185.603 158.769Z" fill="white"/>
<path d="M183.599 161.644L182.043 163.656C181.394 164.495 180.715 165.034 180.006 165.273C179.477 165.448 178.938 165.476 178.389 165.357C177.841 165.254 177.348 165.034 176.91 164.695C176.089 164.06 175.652 163.249 175.6 162.261C175.556 161.337 175.893 160.41 176.613 159.479L177.099 158.85L173.39 155.982L174.469 154.586L183.599 161.644ZM181.233 162.045L178.386 159.844L177.899 160.474C177.448 161.058 177.233 161.599 177.256 162.098C177.288 162.604 177.523 163.026 177.961 163.364C178.116 163.484 178.28 163.574 178.452 163.635C178.617 163.704 178.823 163.739 179.07 163.74C179.319 163.758 179.587 163.674 179.876 163.489C180.174 163.311 180.468 163.035 180.757 162.661L181.233 162.045Z" fill="white"/>
<path d="M163.627 166.994L169.139 172.466L168.743 161.103L177.301 169.599L176.057 170.851L170.52 165.354L170.916 176.717L162.384 168.246L163.627 166.994Z" fill="white"/>
<path d="M161.332 181.798L163.408 180.156L157.281 172.407L158.665 171.313L164.792 179.062L166.868 177.42L167.898 178.723L162.362 183.101L161.332 181.798Z" fill="white"/>
<path d="M153.619 175.184L159.885 184.874L158.403 185.832L155.876 181.924L154.772 182.638C153.736 183.308 152.761 183.574 151.848 183.437C150.893 183.299 150.128 182.784 149.552 181.893C149.251 181.428 149.07 180.914 149.007 180.35C148.941 179.802 149.018 179.272 149.236 178.76C149.533 178.073 150.128 177.442 151.019 176.865L153.619 175.184ZM154.974 180.529L153.039 177.537L151.993 178.213C150.695 179.052 150.363 179.961 150.995 180.939C151.271 181.365 151.648 181.63 152.126 181.732C152.601 181.851 153.192 181.682 153.899 181.225L154.974 180.529Z" fill="white"/>
<path d="M130.822 198.661L122.562 200.565L119.969 189.321L121.689 188.925L123.909 198.551L128.73 197.439L126.51 187.813L128.23 187.417L130.822 198.661Z" fill="white"/>
<path d="M117.895 201.32L115.367 201.594C114.312 201.708 113.453 201.592 112.789 201.246C112.297 200.987 111.903 200.617 111.608 200.139C111.302 199.673 111.119 199.165 111.06 198.615C110.948 197.583 111.23 196.706 111.905 195.983C112.54 195.311 113.442 194.911 114.612 194.784L115.403 194.699L114.898 190.038L116.652 189.848L117.895 201.32ZM115.966 199.893L115.578 196.315L114.787 196.401C114.053 196.481 113.515 196.702 113.171 197.064C112.829 197.437 112.687 197.899 112.747 198.449C112.768 198.644 112.817 198.825 112.893 198.991C112.957 199.158 113.074 199.33 113.245 199.509C113.405 199.701 113.651 199.836 113.985 199.916C114.319 200.008 114.722 200.028 115.192 199.977L115.966 199.893Z" fill="white"/>
<path d="M106.296 200.808C105.128 201.923 103.685 202.461 101.967 202.421C100.249 202.381 98.8326 201.777 97.7176 200.609C96.6025 199.441 96.0648 198.004 96.1043 196.298C96.1438 194.591 96.7475 193.18 97.9155 192.065C99.0834 190.95 100.526 190.413 102.244 190.453C103.962 190.492 105.379 191.096 106.494 192.264C107.609 193.432 108.147 194.869 108.107 196.576C108.068 198.282 107.464 199.693 106.296 200.808ZM105.223 193.359C104.446 192.534 103.44 192.107 102.207 192.078C100.973 192.05 99.949 192.43 99.1347 193.218C98.3202 194.019 97.8981 195.059 97.8684 196.339C97.8388 197.618 98.2124 198.671 98.9893 199.497C99.7659 200.334 100.771 200.767 102.005 200.795C103.239 200.824 104.263 200.438 105.077 199.638C105.892 198.849 106.313 197.815 106.343 196.535C106.373 195.255 105.999 194.197 105.223 193.359Z" fill="white"/>
<path d="M92.0705 201.574L90.3449 201.299C89.5704 201.176 88.9539 201.014 88.4955 200.812C88.0371 200.611 87.6528 200.31 87.3427 199.911C86.8297 199.245 86.6475 198.445 86.7962 197.511C86.8814 196.976 87.0669 196.544 87.3527 196.216C87.614 195.895 87.9404 195.679 88.3321 195.566C87.7634 195.324 87.3171 194.972 86.9933 194.512C86.5756 193.908 86.4383 193.157 86.5815 192.257C86.7139 191.425 87.0732 190.782 87.6596 190.326C88.4836 189.698 89.6075 189.498 91.0313 189.724L93.8844 190.178L92.0705 201.574ZM90.5889 199.656L91.1084 196.393L90.5787 196.309C89.9409 196.207 89.4446 196.28 89.09 196.527C88.7485 196.765 88.5315 197.174 88.4391 197.755C88.3647 198.222 88.4434 198.608 88.6751 198.914C88.9259 199.246 89.3645 199.462 89.991 199.561L90.5889 199.656ZM91.3368 194.958L91.8807 191.541L90.8214 191.373C90.0355 191.247 89.4368 191.304 89.0252 191.542C88.6021 191.778 88.3471 192.17 88.2601 192.717C88.1821 193.206 88.2725 193.629 88.531 193.986C88.8297 194.384 89.4005 194.65 90.2434 194.784L91.3368 194.958Z" fill="white"/>
<path d="M75.0378 197.917L75.4783 196.316L79.9153 197.537L80.6907 194.718L76.3872 193.534L76.8276 191.932L81.1312 193.116L82.0947 189.613L77.6577 188.393L78.0982 186.792L84.2366 188.48L81.1762 199.606L75.0378 197.917Z" fill="white"/>
<path d="M71.6105 196.793L69.2397 195.873C68.2505 195.489 67.5408 194.991 67.1104 194.378C66.793 193.921 66.6132 193.412 66.571 192.852C66.5139 192.297 66.5855 191.762 66.7858 191.246C67.1614 190.279 67.8154 189.629 68.748 189.298C69.6208 188.994 70.6056 189.054 71.7023 189.48L72.4442 189.768L74.1405 185.397L75.7856 186.036L71.6105 196.793ZM70.5539 194.639L71.8558 191.284L71.1139 190.996C70.4258 190.729 69.8459 190.677 69.3743 190.84C68.8984 191.015 68.5604 191.36 68.3601 191.876C68.2891 192.059 68.2492 192.241 68.2404 192.423C68.2208 192.601 68.2454 192.809 68.3143 193.046C68.3682 193.289 68.5248 193.523 68.7841 193.748C69.0393 193.983 69.3873 194.186 69.8281 194.357L70.5539 194.639Z" fill="white"/>
<path d="M60.8532 179.197L57.1769 186.039L67.9567 182.424L62.2498 193.046L60.6954 192.211L64.3881 185.338L53.6082 188.953L59.2988 178.362L60.8532 179.197Z" fill="white"/>
<path d="M46.0393 181.224L48.2024 182.75L53.8959 174.677L55.3379 175.694L49.6444 183.767L51.8074 185.292L50.8502 186.65L45.0821 182.581L46.0393 181.224Z" fill="white"/>
<path d="M50.2026 171.969L42.6892 180.727L41.3499 179.578L44.38 176.046L43.3821 175.19C42.4455 174.386 41.9136 173.527 41.7864 172.612C41.648 171.658 41.9242 170.778 42.6151 169.973C42.9756 169.553 43.4173 169.232 43.9403 169.013C44.447 168.794 44.9769 168.717 45.5298 168.781C46.2728 168.871 47.047 169.262 47.8523 169.952L50.2026 171.969ZM45.4614 174.785L47.7819 172.08L46.8365 171.269C45.6636 170.263 44.6979 170.202 43.9394 171.086C43.609 171.471 43.4624 171.908 43.4997 172.396C43.5208 172.885 43.8508 173.403 44.4898 173.952L45.4614 174.785Z" fill="white"/>
<path d="M21.2245 156.894L17.0209 149.533L27.0413 143.811L27.9164 145.343L19.3382 150.241L21.7917 154.538L30.3699 149.64L31.2449 151.172L21.2245 156.894Z" fill="white"/>
<path d="M14.9646 145.318L13.9739 142.976C13.5605 141.998 13.4238 141.142 13.5636 140.407C13.6706 139.86 13.9107 139.377 14.2837 138.956C14.6416 138.529 15.0755 138.208 15.5854 137.992C16.5414 137.588 17.4629 137.605 18.3497 138.044C19.1762 138.458 19.8185 139.207 20.2768 140.291L20.5868 141.024L24.9047 139.197L25.5921 140.823L14.9646 145.318ZM15.7749 143.059L19.089 141.657L18.779 140.924C18.4915 140.245 18.1249 139.792 17.6792 139.568C17.2229 139.347 16.7398 139.345 16.2299 139.561C16.0493 139.637 15.8906 139.735 15.7537 139.856C15.6124 139.966 15.4806 140.128 15.3584 140.342C15.2212 140.551 15.1623 140.826 15.1819 141.169C15.1908 141.515 15.2874 141.907 15.4716 142.342L15.7749 143.059Z" fill="white"/>
<path d="M12.201 134.379C10.7973 133.581 9.86751 132.354 9.41174 130.697C8.95597 129.04 9.12713 127.509 9.92521 126.106C10.7233 124.702 11.9452 123.774 13.591 123.321C15.2368 122.868 16.7616 123.041 18.1654 123.839C19.5691 124.637 20.4988 125.865 20.9546 127.522C21.4104 129.178 21.2392 130.709 20.4411 132.113C19.6431 133.516 18.4211 134.445 16.7753 134.897C15.1295 135.35 13.6047 135.177 12.201 134.379ZM19.0266 131.21C19.5939 130.228 19.7139 129.143 19.3867 127.953C19.0594 126.763 18.401 125.891 17.4115 125.338C16.4109 124.788 15.2934 124.683 14.059 125.022C12.8247 125.362 11.9238 126.022 11.3565 127.004C10.778 127.988 10.6524 129.075 10.9797 130.265C11.307 131.455 11.9709 132.325 12.9715 132.875C13.961 133.429 15.0729 133.535 16.3073 133.196C17.5417 132.856 18.4481 132.194 19.0266 131.21Z" fill="white"/>
<path d="M7.3974 121.203L7.16251 119.472C7.05708 118.694 7.03466 118.057 7.09526 117.56C7.15586 117.063 7.33278 116.609 7.62603 116.196C8.11529 115.513 8.82849 115.108 9.76564 114.981C10.3028 114.908 10.7697 114.961 11.1664 115.14C11.5486 115.298 11.8503 115.548 12.0713 115.89C12.1393 115.276 12.3469 114.747 12.6942 114.304C13.1517 113.73 13.8318 113.382 14.7347 113.259C15.569 113.146 16.2888 113.304 16.8942 113.734C17.7332 114.342 18.2496 115.36 18.4434 116.789L18.8318 119.652L7.3974 121.203ZM8.80591 119.231L12.0802 118.787L12.0081 118.256C11.9213 117.616 11.7084 117.161 11.3694 116.893C11.0433 116.635 10.5889 116.545 10.006 116.624C9.53747 116.688 9.19036 116.875 8.96471 117.184C8.7193 117.52 8.63924 118.003 8.72451 118.631L8.80591 119.231ZM13.5202 118.592L16.9488 118.127L16.8046 117.064C16.6977 116.275 16.4708 115.718 16.124 115.393C15.7757 115.056 15.3273 114.925 14.7787 114.999C14.2873 115.066 13.9082 115.274 13.6415 115.625C13.3467 116.026 13.2567 116.649 13.3714 117.494L13.5202 118.592Z" fill="white"/>
<path d="M5.94848 103.787L7.60867 103.742L7.73299 108.342L10.6556 108.263L10.535 103.801L12.1952 103.756L12.3158 108.218L15.9475 108.12L15.8232 103.52L17.4834 103.475L17.6554 109.839L6.12046 110.151L5.94848 103.787Z" fill="white"/>
<path d="M6.03442 99.8105L6.23041 97.275C6.31219 96.2171 6.58406 95.3936 7.04602 94.8047C7.39205 94.3687 7.82738 94.0496 8.352 93.8472C8.86601 93.6324 9.399 93.5464 9.95095 93.5891C10.9859 93.6691 11.7964 94.1077 12.3826 94.9049C12.9263 95.6525 13.1528 96.6128 13.0622 97.7857L13.0008 98.5792L17.6752 98.9405L17.5392 100.7L6.03442 99.8105ZM7.79178 98.1765L11.3795 98.4538L11.4408 97.6604C11.4977 96.9245 11.3798 96.3543 11.0872 95.95C10.783 95.5447 10.355 95.3207 9.80304 95.2781C9.60755 95.263 9.42135 95.2775 9.24442 95.3217C9.06838 95.3543 8.87684 95.4378 8.6698 95.5722C8.45215 95.6942 8.27339 95.9117 8.13351 96.2248C7.98213 96.537 7.88822 96.9289 7.85178 97.4003L7.79178 98.1765Z" fill="white"/>
<path d="M19.812 84.2017L12.205 82.63L18.745 91.9307L6.93633 89.4908L7.29339 87.7627L14.9343 89.3415L8.39427 80.0407L20.1691 82.4736L19.812 84.2017Z" fill="white"/>
<path d="M13.5235 70.8316L12.6875 73.343L22.0601 76.4631L21.5027 78.1374L12.1301 75.0172L11.2941 77.5286L9.71828 77.0041L11.9477 70.307L13.5235 70.8316Z" fill="white"/>
<path d="M23.6108 72.0659L13.069 67.3733L13.7866 65.7612L18.0381 67.6537L18.5728 66.4525C19.0746 65.3251 19.7455 64.5696 20.5853 64.186C21.4603 63.7801 22.3825 63.793 23.3518 64.2245C23.8576 64.4496 24.2907 64.7812 24.6511 65.2194C25.0057 65.6424 25.2314 66.1279 25.3283 66.676C25.4544 67.4138 25.3016 68.2674 24.8701 69.2368L23.6108 72.0659ZM19.5554 68.3291L22.8112 69.7784L23.3177 68.6404C23.9462 67.2285 23.7283 66.2857 22.6641 65.812C22.2005 65.6056 21.7403 65.5901 21.2835 65.7655C20.8209 65.9257 20.4183 66.3904 20.076 67.1595L19.5554 68.3291Z" fill="white"/>
<path d="M29.8298 39.8889L35.6918 33.7655L44.0271 41.7451L42.8069 43.0198L35.6713 36.1887L32.2497 39.7627L39.3853 46.5938L38.1651 47.8685L29.8298 39.8889Z" fill="white"/>
<path d="M38.9496 30.7457L40.9096 29.1252C41.7273 28.4491 42.5085 28.0726 43.253 27.9957C43.807 27.9418 44.339 28.0332 44.849 28.2699C45.3606 28.4905 45.7928 28.8141 46.1455 29.2407C46.8069 30.0407 47.0546 30.9284 46.8883 31.9039C46.7283 32.8144 46.1949 33.6444 45.2883 34.394L44.675 34.9011L47.6624 38.5144L46.3025 39.6388L38.9496 30.7457ZM41.3458 30.8746L43.6388 33.6478L44.2521 33.1407C44.821 32.6704 45.1492 32.1895 45.2367 31.6981C45.3169 31.1978 45.1806 30.7344 44.8279 30.3077C44.7029 30.1566 44.5631 30.0327 44.4084 29.9362C44.2627 29.8322 44.0695 29.7525 43.829 29.6969C43.5901 29.6251 43.3094 29.6477 42.987 29.7645C42.6573 29.8725 42.3102 30.0772 41.9458 30.3785L41.3458 30.8746Z" fill="white"/>
<path d="M48.8643 24.7778C49.2262 23.2041 50.1355 21.9614 51.5921 21.0495C53.0487 20.1377 54.5638 19.8628 56.1375 20.2247C57.7112 20.5867 58.9509 21.4911 59.8566 22.9379C60.7623 24.3847 61.0342 25.895 60.6722 27.4686C60.3102 29.0423 59.401 30.285 57.9444 31.1968C56.4878 32.1087 54.9726 32.3836 53.399 32.0217C51.8253 31.6597 50.5856 30.7553 49.6799 29.3085C48.7742 27.8617 48.5023 26.3514 48.8643 24.7778ZM53.8581 30.4076C54.961 30.6696 56.0355 30.4733 57.0815 29.8185C58.1275 29.1636 58.7736 28.283 59.0197 27.1764C59.2598 26.06 59.0401 24.9593 58.3609 23.8742C57.6816 22.7891 56.7905 22.1155 55.6876 21.8534C54.5785 21.5816 53.501 21.7731 52.455 22.4279C51.409 23.0827 50.766 23.9683 50.5259 25.0846C50.2798 26.1912 50.4963 27.2871 51.1756 28.3722C51.8549 29.4573 52.7491 30.1358 53.8581 30.4076Z" fill="white"/>
<path d="M59.8502 16.5055L61.4412 15.7831C62.1553 15.4588 62.7591 15.2543 63.2526 15.1696C63.7461 15.0848 64.2324 15.1236 64.7115 15.2861C65.5065 15.5584 66.0995 16.1251 66.4905 16.9863C66.7147 17.4798 66.798 17.9423 66.7406 18.3737C66.6994 18.7851 66.5465 19.1458 66.282 19.456C66.8901 19.3445 67.4561 19.3915 67.98 19.5969C68.6614 19.8702 69.1905 20.4216 69.5672 21.2512C69.9153 22.0178 69.9704 22.7528 69.7324 23.4562C69.3913 24.4344 68.5644 25.2216 67.2517 25.8176L64.6211 27.0122L59.8502 16.5055ZM62.1436 17.2881L63.5098 20.2968L63.9981 20.075C64.5862 19.808 64.96 19.4736 65.1195 19.0718C65.2734 18.6853 65.2287 18.2242 64.9855 17.6887C64.79 17.2581 64.5114 16.9793 64.1497 16.8522C63.7574 16.7137 63.2725 16.7755 62.6949 17.0378L62.1436 17.2881ZM64.1106 21.62L65.5412 24.7704L66.5178 24.3269C67.2424 23.9979 67.7107 23.6205 67.9228 23.1949C68.1454 22.7645 68.1422 22.2973 67.9133 21.7932C67.7083 21.3417 67.3996 21.0385 66.9873 20.8837C66.5187 20.7165 65.8959 20.8093 65.1188 21.1622L64.1106 21.62Z" fill="white"/>
<path d="M76.1277 10.0849L76.6463 11.6627L72.2747 13.0997L73.1877 15.8772L77.4279 14.4834L77.9465 16.0611L73.7063 17.4549L74.8408 20.9063L79.2125 19.4692L79.7311 21.047L73.6831 23.035L70.0797 12.073L76.1277 10.0849Z" fill="white"/>
<path d="M79.5891 9.10483L82.0736 8.56178C83.1102 8.3352 83.977 8.35823 84.6741 8.63086C85.1913 8.83656 85.6224 9.16144 85.9673 9.60548C86.3211 10.0358 86.5571 10.5214 86.6753 11.0622C86.897 12.0763 86.7106 12.9788 86.1161 13.7699C85.5569 14.506 84.7026 14.9997 83.5534 15.2509L82.7759 15.4208L83.7771 20.001L82.0532 20.3778L79.5891 9.10483ZM81.6603 10.3167L82.4287 13.8321L83.2061 13.6622C83.9272 13.5046 84.4392 13.2274 84.7421 12.8306C85.0425 12.4226 85.1336 11.9482 85.0153 11.4073C84.9735 11.2158 84.9059 11.0417 84.8126 10.885C84.7306 10.7258 84.5954 10.5665 84.4071 10.4069C84.2276 10.2337 83.9677 10.1252 83.6276 10.0815C83.285 10.0265 82.8828 10.0495 82.4208 10.1505L81.6603 10.3167Z" fill="white"/>
<path d="M98.6458 17.7645L97.9577 10.0273L90.9374 18.9711L89.8693 6.96039L91.6269 6.80407L92.3181 14.5757L99.3384 5.63195L100.403 17.6082L98.6458 17.7645Z" fill="white"/>
<path d="M109.999 7.88647L107.354 7.80476L107.049 17.6784L105.285 17.6239L105.59 7.75028L102.944 7.66857L102.996 6.00856L110.051 6.22647L109.999 7.88647Z" fill="white"/>
<path d="M111.808 17.9045L113.271 6.45853L115.021 6.68231L114.431 11.2984L115.735 11.4652C116.959 11.6217 117.876 12.047 118.485 12.7411C119.125 13.4624 119.378 14.3493 119.243 15.4018C119.173 15.951 118.98 16.4611 118.664 16.9323C118.361 17.3935 117.961 17.7493 117.464 17.9997C116.793 18.3326 115.932 18.4317 114.879 18.2972L111.808 17.9045ZM114.221 12.9458L113.769 16.4809L115.004 16.6388C116.537 16.8348 117.378 16.3551 117.525 15.1996C117.59 14.6962 117.472 14.251 117.173 13.8639C116.886 13.4669 116.326 13.215 115.49 13.1082L114.221 12.9458Z" fill="white"/>
<path d="M144.488 14.6491L152.028 18.5223L146.756 28.7865L145.186 27.9802L149.7 19.1933L145.299 16.9327L140.785 25.7195L139.215 24.9133L144.488 14.6491Z" fill="white"/>
<path d="M155.953 20.856L158.063 22.2758C158.943 22.8682 159.526 23.5105 159.811 24.2026C160.02 24.7185 160.083 25.2546 160.001 25.8109C159.934 26.364 159.747 26.8702 159.437 27.3295C158.858 28.1906 158.077 28.6799 157.094 28.7972C156.176 28.902 155.229 28.626 154.253 27.9692L153.592 27.5249L150.975 31.4146L149.511 30.4294L155.953 20.856ZM156.509 23.1904L154.5 26.1758L155.161 26.62C155.773 27.0321 156.327 27.2105 156.823 27.155C157.326 27.09 157.732 26.8279 158.041 26.3686C158.15 26.2059 158.229 26.0367 158.278 25.861C158.336 25.6917 158.358 25.4839 158.343 25.2375C158.344 24.988 158.243 24.7253 158.039 24.4493C157.842 24.1637 157.547 23.889 157.155 23.625L156.509 23.1904Z" fill="white"/>
<path d="M164.004 28.2822C165.616 28.1766 167.067 28.6904 168.359 29.8235C169.651 30.9566 170.35 32.3288 170.456 33.9401C170.561 35.5514 170.051 36.9987 168.926 38.282C167.8 39.5653 166.432 40.2597 164.82 40.3653C163.209 40.4709 161.758 39.9571 160.466 38.824C159.174 37.6909 158.475 36.3187 158.369 34.7074C158.264 33.0961 158.774 31.6488 159.899 30.3655C161.025 29.0822 162.393 28.3877 164.004 28.2822ZM160.047 34.6833C160.113 35.815 160.61 36.7877 161.538 37.6014C162.466 38.4151 163.495 38.7808 164.625 38.6986C165.764 38.6076 166.755 38.081 167.599 37.1185C168.443 36.156 168.832 35.1089 168.766 33.9772C168.708 32.8368 168.215 31.8598 167.287 31.0461C166.359 30.2324 165.326 29.871 164.188 29.9619C163.057 30.0442 162.07 30.5665 161.226 31.529C160.382 32.4915 159.989 33.5429 160.047 34.6833Z" fill="white"/>
<path d="M175.431 36.7712L176.578 38.0891C177.093 38.6806 177.462 39.2006 177.684 39.6493C177.907 40.0979 178.009 40.575 177.99 41.0806C177.956 41.9203 177.583 42.6506 176.87 43.2716C176.461 43.6275 176.042 43.8397 175.612 43.9081C175.206 43.9862 174.816 43.943 174.444 43.7782C174.724 44.329 174.841 44.8848 174.794 45.4456C174.727 46.1767 174.35 46.8414 173.663 47.4397C173.028 47.9925 172.34 48.2555 171.597 48.2287C170.563 48.1817 169.572 47.6145 168.625 46.5272L166.728 44.3482L175.431 36.7712ZM175.337 39.1926L172.845 41.3623L173.197 41.7668C173.621 42.254 174.049 42.5165 174.479 42.5545C174.894 42.5913 175.323 42.4166 175.766 42.0304C176.123 41.7199 176.31 41.3731 176.329 40.9902C176.349 40.5747 176.151 40.1277 175.735 39.6493L175.337 39.1926ZM171.749 42.3166L169.139 44.5885L169.844 45.3975C170.366 45.9977 170.862 46.3385 171.33 46.42C171.806 46.5101 172.253 46.3734 172.671 46.0099C173.045 45.6843 173.247 45.3018 173.277 44.8624C173.303 44.3656 173.036 43.7953 172.476 43.1516L171.749 42.3166Z" fill="white"/>
<path d="M186.408 50.7806L185.044 51.7279L182.419 47.9481L180.018 49.6157L182.564 53.2818L181.199 54.2291L178.654 50.5629L175.67 52.6351L178.294 56.415L176.93 57.3622L173.299 52.133L182.777 45.5514L186.408 50.7806Z" fill="white"/>
<path d="M188.151 53.5376L189.387 55.7598C189.903 56.687 190.131 57.5236 190.071 58.2697C190.023 58.8242 189.837 59.3307 189.511 59.7891C189.201 60.252 188.804 60.618 188.32 60.8872C187.413 61.3919 186.495 61.4737 185.566 61.1327C184.7 60.8096 183.981 60.134 183.409 59.106L183.022 58.4107L178.925 60.6903L178.067 59.1484L188.151 53.5376ZM187.588 55.8702L184.443 57.6199L184.83 58.3153C185.189 58.9603 185.602 59.3706 186.069 59.5461C186.547 59.7161 187.027 59.6665 187.511 59.3973C187.682 59.3019 187.83 59.187 187.953 59.0525C188.081 58.9281 188.195 58.7527 188.293 58.5263C188.408 58.3045 188.436 58.0244 188.38 57.6861C188.334 57.3422 188.196 56.9637 187.966 56.5505L187.588 55.8702Z" fill="white"/>
<path d="M185.291 74.1491L192.5 71.2574L181.911 67.1168L193.102 62.628L193.759 64.2658L186.518 67.1703L197.107 71.3109L185.948 75.7869L185.291 74.1491Z" fill="white"/>
<path d="M198.014 82.1887L197.331 79.6313L187.787 82.1789L187.332 80.474L196.876 77.9264L196.193 75.369L197.798 74.9407L199.618 81.7604L198.014 82.1887Z" fill="white"/>
<path d="M188.867 86.5137L200.248 84.6125L200.539 86.353L195.949 87.1197L196.166 88.4165C196.369 89.6337 196.226 90.634 195.737 91.4172C195.231 92.2384 194.455 92.7364 193.409 92.9112C192.863 93.0025 192.318 92.9647 191.776 92.7981C191.247 92.6409 190.791 92.3604 190.408 91.9567C189.896 91.4108 189.552 90.6146 189.377 89.5681L188.867 86.5137ZM194.311 87.3934L190.796 87.9805L191.001 89.2091C191.256 90.7334 191.958 91.3997 193.107 91.2077C193.607 91.1241 193.999 90.8832 194.284 90.4849C194.581 90.0961 194.661 89.4865 194.522 88.6561L194.311 87.3934Z" fill="white"/>
</svg>
