<svg width="206" height="206" viewBox="0 0 206 206" fill="none" xmlns="http://www.w3.org/2000/svg">
<path d="M199.918 104.132L199.465 111.959L188.811 111.342L188.905 109.713L198.026 110.241L198.29 105.673L189.17 105.144L189.264 103.515L199.918 104.132Z" fill="white"/>
<path d="M198.058 121.519L196.542 121.272L197.227 117.071L194.558 116.636L193.893 120.71L192.377 120.463L193.042 116.389L189.726 115.848L189.041 120.048L187.525 119.801L188.473 113.99L199.005 115.708L198.058 121.519Z" fill="white"/>
<path d="M197.568 123.778L196.996 126.059C196.758 127.011 196.382 127.719 195.87 128.185C195.487 128.529 195.04 128.752 194.53 128.855C194.028 128.971 193.529 128.967 193.032 128.843C192.101 128.609 191.43 128.084 191.02 127.266C190.64 126.5 190.582 125.589 190.847 124.534L191.026 123.82L186.82 122.765L187.217 121.182L197.568 123.778ZM195.713 124.995L192.485 124.186L192.306 124.899C192.14 125.562 192.159 126.1 192.363 126.514C192.577 126.93 192.933 127.201 193.429 127.326C193.605 127.37 193.777 127.385 193.945 127.372C194.111 127.37 194.299 127.324 194.508 127.233C194.726 127.156 194.922 126.985 195.098 126.721C195.285 126.46 195.431 126.117 195.538 125.693L195.713 124.995Z" fill="white"/>
<path d="M193.365 137.727L191.915 137.22L193.32 133.202L190.767 132.309L189.405 136.206L187.955 135.699L189.317 131.802L186.146 130.693L184.741 134.711L183.291 134.204L185.235 128.646L195.308 132.169L193.365 137.727Z" fill="white"/>
<path d="M192.462 139.964L191.794 141.436C191.494 142.096 191.198 142.606 190.906 142.965C190.614 143.325 190.252 143.594 189.819 143.772C189.1 144.066 188.342 144.033 187.546 143.671C187.089 143.464 186.75 143.193 186.527 142.857C186.305 142.546 186.192 142.201 186.188 141.824C185.832 142.272 185.409 142.584 184.919 142.76C184.279 142.984 183.575 142.922 182.807 142.574C182.098 142.252 181.613 141.774 181.35 141.139C180.992 140.25 181.089 139.199 181.64 137.985L182.745 135.552L192.462 139.964ZM190.389 140.815L187.606 139.552L187.401 140.003C187.154 140.547 187.097 141.008 187.231 141.384C187.359 141.747 187.671 142.041 188.166 142.266C188.564 142.447 188.928 142.471 189.257 142.34C189.615 142.197 189.915 141.859 190.157 141.325L190.389 140.815ZM186.383 138.996L183.469 137.673L183.059 138.576C182.754 139.246 182.658 139.794 182.769 140.22C182.876 140.655 183.163 140.978 183.629 141.19C184.047 141.379 184.446 141.403 184.828 141.26C185.256 141.091 185.633 140.647 185.959 139.928L186.383 138.996Z" fill="white"/>
<path d="M188.35 148.522L187.562 149.951L178.217 144.796L179.006 143.367L188.35 148.522Z" fill="white"/>
<path d="M185.72 153.171L184.443 155.146C183.91 155.97 183.326 156.52 182.69 156.795C182.217 156.997 181.722 157.064 181.207 156.998C180.694 156.946 180.223 156.781 179.793 156.503C178.987 155.981 178.521 155.267 178.396 154.361C178.283 153.513 178.523 152.633 179.113 151.719L179.513 151.101L175.872 148.746L176.758 147.376L185.72 153.171ZM183.571 153.725L180.776 151.918L180.376 152.536C180.006 153.109 179.85 153.624 179.91 154.082C179.978 154.546 180.228 154.916 180.658 155.194C180.81 155.293 180.968 155.363 181.131 155.405C181.289 155.456 181.481 155.473 181.709 155.455C181.939 155.452 182.181 155.354 182.432 155.161C182.693 154.974 182.942 154.697 183.18 154.329L183.571 153.725Z" fill="white"/>
<path d="M168.14 159.225L173.71 163.762L172.316 153.339L180.962 160.383L179.931 161.648L174.337 157.09L175.731 167.513L167.11 160.49L168.14 159.225Z" fill="white"/>
<path d="M167.921 172.631L169.652 170.9L163.192 164.439L164.346 163.285L170.806 169.746L172.537 168.015L173.623 169.101L169.007 173.717L167.921 172.631Z" fill="white"/>
<path d="M155.148 171.455L159.685 177.025L160.427 166.535L167.47 175.182L166.205 176.212L161.648 170.618L160.906 181.107L153.883 172.486L155.148 171.455Z" fill="white"/>
<path d="M130.855 195.736L123.266 197.7L120.592 187.369L122.172 186.96L124.461 195.804L128.891 194.658L126.602 185.813L128.182 185.404L130.855 195.736Z" fill="white"/>
<path d="M113.774 199.232L113.55 197.713L117.76 197.092L117.366 194.417L113.282 195.019L113.058 193.499L117.142 192.897L116.652 189.573L112.441 190.194L112.217 188.674L118.043 187.816L119.599 198.374L113.774 199.232Z" fill="white"/>
<path d="M111.232 199.466L108.884 199.611C107.905 199.671 107.116 199.528 106.517 199.18C106.074 198.919 105.726 198.561 105.473 198.106C105.211 197.663 105.064 197.186 105.032 196.675C104.973 195.717 105.271 194.918 105.926 194.279C106.541 193.685 107.392 193.355 108.478 193.288L109.212 193.243L108.945 188.915L110.574 188.814L111.232 199.466ZM109.51 198.065L109.305 194.744L108.57 194.789C107.889 194.831 107.382 195.012 107.049 195.332C106.717 195.662 106.566 196.083 106.598 196.594C106.609 196.775 106.646 196.944 106.709 197.1C106.762 197.257 106.863 197.422 107.012 197.595C107.152 197.778 107.374 197.914 107.679 198.002C107.984 198.101 108.355 198.137 108.792 198.11L109.51 198.065Z" fill="white"/>
<path d="M96.532 199.677L96.5735 198.141L100.828 198.256L100.901 195.553L96.7745 195.442L96.816 193.906L100.943 194.018L101.033 190.659L96.7788 190.544L96.8203 189.009L102.706 189.168L102.418 199.836L96.532 199.677Z" fill="white"/>
<path d="M93.9481 199.467L92.3436 199.274C91.6235 199.188 91.048 199.06 90.6171 198.89C90.1863 198.72 89.8205 198.456 89.5198 198.097C89.022 197.5 88.8253 196.768 88.9295 195.899C88.9893 195.401 89.1454 194.996 89.3979 194.682C89.628 194.377 89.922 194.165 90.2799 194.047C89.7458 193.843 89.3209 193.534 89.0053 193.12C88.5978 192.577 88.4442 191.887 88.5447 191.051C88.6375 190.278 88.9468 189.67 89.4725 189.228C90.2118 188.619 91.2433 188.394 92.5671 188.552L95.2201 188.871L93.9481 199.467ZM92.5108 197.747L92.8751 194.713L92.3826 194.654C91.7895 194.583 91.3335 194.668 91.0145 194.909C90.7073 195.14 90.5213 195.526 90.4565 196.066C90.4044 196.501 90.4908 196.855 90.7157 197.129C90.9593 197.427 91.3723 197.611 91.9548 197.681L92.5108 197.747ZM93.0352 193.379L93.4167 190.201L92.4317 190.083C91.701 189.995 91.1496 190.069 90.7777 190.304C90.3951 190.537 90.1733 190.908 90.1123 191.416C90.0576 191.872 90.1561 192.259 90.4077 192.58C90.6979 192.937 91.2348 193.163 92.0185 193.257L93.0352 193.379Z" fill="white"/>
<path d="M84.6493 198.144L83.0486 197.826L85.1282 187.359L86.7289 187.677L84.6493 198.144Z" fill="white"/>
<path d="M79.3886 197.037L77.1209 196.413C76.1747 196.153 75.4748 195.761 75.0213 195.238C74.6863 194.847 74.473 194.396 74.3815 193.884C74.2769 193.38 74.2925 192.88 74.4283 192.387C74.6829 191.461 75.2237 190.802 76.0506 190.41C76.8251 190.048 77.7368 190.011 78.7859 190.3L79.4955 190.495L80.6455 186.314L82.2191 186.747L79.3886 197.037ZM78.214 195.154L79.0966 191.945L78.387 191.75C77.7288 191.569 77.1904 191.576 76.7717 191.77C76.3503 191.975 76.0717 192.324 75.9359 192.818C75.8878 192.993 75.8683 193.165 75.8772 193.333C75.876 193.499 75.9181 193.687 76.0037 193.899C76.0762 194.118 76.2423 194.318 76.502 194.5C76.7588 194.693 77.0981 194.847 77.5198 194.963L78.214 195.154Z" fill="white"/>
<path d="M68.3901 182.121L65.7407 188.799L75.2596 184.33L71.1469 194.696L69.6299 194.094L72.2911 187.387L62.7722 191.855L66.8732 181.519L68.3901 182.121Z" fill="white"/>
<path d="M55.5281 185.928L57.6973 187.063L61.9316 178.967L63.3778 179.724L59.1434 187.819L61.3126 188.954L60.6007 190.315L54.8162 187.289L55.5281 185.928Z" fill="white"/>
<path d="M52.8409 173.398L48.874 179.387L59.1087 176.973L52.9506 186.271L51.59 185.37L55.5747 179.354L45.3399 181.768L51.4803 172.497L52.8409 173.398Z" fill="white"/>
<path d="M22.4361 157.626L18.2761 150.981L27.3219 145.318L28.1879 146.701L20.444 151.549L22.8721 155.428L30.6159 150.58L31.4819 151.963L22.4361 157.626Z" fill="white"/>
<path d="M13.944 142.454L15.3231 141.778L17.1972 145.599L19.6249 144.408L17.8072 140.702L19.1862 140.026L21.004 143.732L24.0207 142.252L22.1466 138.431L23.5257 137.755L26.1184 143.041L16.5368 147.741L13.944 142.454Z" fill="white"/>
<path d="M12.9879 140.203L12.1369 138.011C11.7818 137.096 11.6791 136.301 11.8286 135.625C11.9428 135.123 12.1781 134.682 12.5345 134.304C12.8772 133.919 13.2872 133.634 13.7645 133.449C14.6595 133.101 15.5108 133.143 16.3186 133.573C17.0711 133.979 17.6442 134.689 18.0378 135.703L18.3041 136.39L22.3463 134.821L22.9368 136.342L12.9879 140.203ZM13.7995 138.138L16.902 136.934L16.6357 136.248C16.3887 135.611 16.0623 135.183 15.6565 134.963C15.2408 134.747 14.7943 134.731 14.3169 134.916C14.1479 134.982 13.9984 135.069 13.8686 135.176C13.7349 135.274 13.6086 135.42 13.4897 135.615C13.357 135.804 13.295 136.057 13.3036 136.374C13.3023 136.695 13.3807 137.059 13.539 137.467L13.7995 138.138Z" fill="white"/>
<path d="M8.38243 126.452L9.8587 126.028L11.034 130.119L13.6329 129.372L12.4929 125.404L13.9692 124.98L15.1092 128.948L18.3385 128.02L17.1631 123.929L18.6394 123.505L20.2655 129.164L10.0085 132.111L8.38243 126.452Z" fill="white"/>
<path d="M7.81372 124.064L7.51095 122.476C7.37505 121.764 7.32276 121.177 7.35408 120.715C7.3854 120.252 7.52625 119.824 7.77663 119.429C8.1946 118.773 8.83317 118.364 9.69235 118.2C10.1848 118.106 10.6187 118.132 10.9939 118.277C11.3547 118.404 11.6457 118.62 11.8668 118.925C11.8991 118.354 12.0646 117.856 12.3634 117.43C12.7574 116.877 13.3683 116.521 14.1961 116.364C14.9609 116.218 15.6336 116.328 16.214 116.695C17.0189 117.215 17.5463 118.13 17.7961 119.44L18.2967 122.064L7.81372 124.064ZM9.01675 122.173L12.0186 121.6L11.9257 121.113C11.8138 120.526 11.5946 120.117 11.2683 119.886C10.9544 119.664 10.5302 119.604 9.99585 119.706C9.56626 119.788 9.25495 119.977 9.06193 120.275C8.85195 120.597 8.80191 121.046 8.91183 121.623L9.01675 122.173ZM13.3388 121.348L16.4822 120.749L16.2963 119.774C16.1584 119.051 15.9213 118.548 15.5849 118.265C15.2465 117.971 14.8259 117.872 14.3229 117.968C13.8724 118.054 13.5327 118.266 13.3037 118.602C13.0513 118.987 12.9991 119.567 13.147 120.343L13.3388 121.348Z" fill="white"/>
<path d="M6.24008 114.78L6.05803 113.158L16.6634 111.968L16.8455 113.589L6.24008 114.78Z" fill="white"/>
<path d="M5.69921 109.533L5.59939 107.183C5.55775 106.202 5.71653 105.416 6.07574 104.824C6.34537 104.386 6.70989 104.045 7.1693 103.801C7.61759 103.547 8.09751 103.409 8.60905 103.388C9.56818 103.347 10.3609 103.66 10.9871 104.327C11.5689 104.954 11.8828 105.811 11.929 106.898L11.9602 107.633L16.2923 107.449L16.3616 109.08L5.69921 109.533ZM7.13259 107.838L10.4576 107.697L10.4264 106.962C10.3974 106.28 10.2262 105.769 9.9129 105.43C9.58891 105.092 9.17114 104.933 8.6596 104.955C8.47843 104.963 8.30905 104.996 8.15146 105.056C7.99341 105.106 7.82675 105.204 7.65146 105.35C7.46507 105.486 7.32492 105.705 7.23103 106.008C7.12647 106.312 7.08348 106.682 7.10204 107.119L7.13259 107.838Z" fill="white"/>
<path d="M16.5498 94.0776L9.38313 93.5792L16.5291 101.294L5.40397 100.52L5.51721 98.8917L12.7158 99.3924L5.56985 91.678L16.6631 92.4496L16.5498 94.0776Z" fill="white"/>
<path d="M9.01127 82.9265L8.58946 85.3378L17.5888 86.9121L17.3076 88.5196L8.30825 86.9454L7.88644 89.3568L6.37341 89.0922L7.49824 82.6618L9.01127 82.9265Z" fill="white"/>
<path d="M20.0914 76.6805L13.1793 74.7227L18.591 83.7388L7.86115 80.6996L8.3059 79.1294L15.2488 81.0959L9.837 72.0798L20.5361 75.1102L20.0914 76.6805Z" fill="white"/>
<path d="M25.7975 43.0223L30.8807 37.0534L39.0056 43.9727L37.9475 45.2152L30.992 39.2918L28.0251 42.7756L34.9806 48.6991L33.9225 49.9416L25.7975 43.0223Z" fill="white"/>
<path d="M38.0131 30.0249L39.0713 31.1383L35.9863 34.0703L37.8491 36.0303L40.8413 33.1865L41.8994 34.2999L38.9072 37.1437L41.2219 39.5792L44.3069 36.6473L45.365 37.7607L41.0971 41.8169L33.7452 34.0812L38.0131 30.0249Z" fill="white"/>
<path d="M39.5863 28.6602L41.4206 27.1881C42.186 26.5738 42.9134 26.2362 43.603 26.1751C44.116 26.1327 44.6067 26.2244 45.0752 26.4502C45.5453 26.661 45.9406 26.9661 46.261 27.3654C46.8619 28.1141 47.0789 28.9384 46.9121 29.8382C46.7518 30.678 46.2474 31.4384 45.3989 32.1194L44.8249 32.5801L47.5389 35.9617L46.2661 36.9832L39.5863 28.6602ZM41.8005 28.8117L43.8835 31.4072L44.4575 30.9465C44.9899 30.5192 45.2999 30.0789 45.3875 29.6257C45.4684 29.1641 45.3486 28.7337 45.0282 28.3344C44.9147 28.1929 44.787 28.0765 44.6453 27.9851C44.5119 27.8871 44.3343 27.8107 44.1127 27.7561C43.8927 27.6865 43.6328 27.7035 43.3332 27.8073C43.0268 27.9027 42.7031 28.0873 42.362 28.361L41.8005 28.8117Z" fill="white"/>
<path d="M51.2695 20.0996L52.1224 21.3771L48.5828 23.7402L50.0841 25.9891L53.5173 23.697L54.3702 24.9745L50.937 27.2665L52.8026 30.061L56.3423 27.6979L57.1951 28.9753L52.2982 32.2446L46.3726 23.3689L51.2695 20.0996Z" fill="white"/>
<path d="M53.4008 18.7901L54.8215 18.02C55.4592 17.6744 56.0029 17.4464 56.4527 17.3361C56.9025 17.2257 57.3537 17.2299 57.8062 17.3486C58.5574 17.5481 59.1414 18.0323 59.5582 18.8013C59.7971 19.242 59.9041 19.6632 59.8792 20.065C59.868 20.4472 59.7505 20.79 59.5266 21.0933C60.0803 20.9509 60.6056 20.9574 61.1023 21.1128C61.7488 21.3205 62.2727 21.7948 62.6743 22.5356C63.0454 23.2202 63.144 23.8946 62.9703 24.5591C62.7193 25.4837 62.0077 26.2638 60.8355 26.8992L58.4864 28.1725L53.4008 18.7901ZM55.5675 19.3628L57.0238 22.0495L57.4599 21.8131C57.985 21.5285 58.3081 21.1956 58.4292 20.8146C58.5459 20.448 58.4747 20.0255 58.2154 19.5473C58.007 19.1628 57.7318 18.9237 57.3899 18.83C57.019 18.7277 56.5756 18.8164 56.0599 19.0959L55.5675 19.3628ZM57.6643 23.2311L59.1892 26.0444L60.0613 25.5717C60.7084 25.2209 61.1159 24.8423 61.2838 24.4358C61.4611 24.0243 61.4278 23.5934 61.1838 23.1433C60.9652 22.7401 60.6607 22.4805 60.2703 22.3645C59.8271 22.2408 59.2585 22.367 58.5646 22.7431L57.6643 23.2311Z" fill="white"/>
<path d="M61.9823 14.3558L63.4733 13.6921L67.8132 23.4418L66.3222 24.1055L61.9823 14.3558Z" fill="white"/>
<path d="M66.8977 12.215L69.109 11.4136C70.0316 11.0793 70.8291 10.9944 71.5014 11.1592C72.0007 11.2846 72.4356 11.5297 72.8061 11.8947C73.183 12.2459 73.4587 12.6622 73.6331 13.1436C73.9603 14.0461 73.8997 14.8963 73.4513 15.6942C73.0286 16.4374 72.3058 16.9943 71.2829 17.365L70.5909 17.6158L72.0684 21.6923L70.534 22.2484L66.8977 12.215ZM68.9445 13.073L70.0785 16.2018L70.7704 15.951C71.4123 15.7184 71.8477 15.4017 72.0769 15.001C72.3024 14.5903 72.328 14.1442 72.1535 13.6628C72.0917 13.4923 72.0085 13.341 71.9039 13.2087C71.8092 13.0728 71.6658 12.9433 71.4737 12.82C71.2879 12.6831 71.0365 12.6154 70.7193 12.6169C70.3986 12.6084 70.0326 12.6786 69.6214 12.8276L68.9445 13.073Z" fill="white"/>
<path d="M84.5069 18.0096L82.8128 11.0282L77.6231 20.1738L74.9934 9.33631L76.5794 8.95147L78.2809 15.964L83.4707 6.81831L86.0928 17.6247L84.5069 18.0096Z" fill="white"/>
<path d="M92.7097 7.46262L90.2839 7.79171L91.5121 16.8448L89.8949 17.0642L88.6667 8.0111L86.2409 8.34018L86.0345 6.81813L92.5032 5.94056L92.7097 7.46262Z" fill="white"/>
<path d="M102.405 16.1011L102.183 8.92049L95.2231 16.8031L94.8788 5.65643L96.51 5.60604L96.7328 12.8186L103.693 4.93598L104.036 16.0507L102.405 16.1011Z" fill="white"/>
<path d="M136.429 11.3822L143.649 14.4363L139.492 24.2652L137.989 23.6295L141.548 15.2152L137.334 13.4326L133.775 21.8469L132.271 21.2111L136.429 11.3822Z" fill="white"/>
<path d="M152.17 18.9466L151.428 20.2915L147.702 18.2358L146.396 20.6035L150.01 22.5974L149.268 23.9423L145.654 21.9484L144.031 24.8905L147.757 26.9462L147.016 28.2911L141.86 25.4471L147.015 16.1026L152.17 18.9466Z" fill="white"/>
<path d="M154.549 20.4114L156.5 21.7245C157.314 22.2724 157.853 22.8664 158.117 23.5065C158.31 23.9837 158.369 24.4795 158.292 24.9939C158.231 25.5054 158.057 25.9736 157.771 26.3984C157.236 27.1948 156.513 27.6473 155.604 27.7558C154.755 27.8527 153.879 27.5975 152.976 26.9901L152.366 26.5792L149.945 30.1765L148.591 29.2654L154.549 20.4114ZM155.063 22.5703L153.205 25.3314L153.816 25.7423C154.382 26.1234 154.895 26.2883 155.354 26.2371C155.818 26.1769 156.194 25.9345 156.48 25.5097C156.581 25.3593 156.654 25.2028 156.699 25.0403C156.753 24.8837 156.773 24.6915 156.759 24.4636C156.76 24.2329 156.667 23.9899 156.478 23.7346C156.296 23.4706 156.023 23.2164 155.661 22.9723L155.063 22.5703Z" fill="white"/>
<path d="M165.725 28.6413L164.763 29.8392L161.444 27.1753L159.752 29.2842L162.971 31.868L162.01 33.0659L158.79 30.4821L156.687 33.1025L160.007 35.7664L159.045 36.9643L154.453 33.2789L161.133 24.9559L165.725 28.6413Z" fill="white"/>
<path d="M168.023 30.65L169.182 31.776C169.702 32.2813 170.082 32.7322 170.322 33.1285C170.561 33.5248 170.692 33.9566 170.714 34.424C170.748 35.2005 170.46 35.9024 169.851 36.5298C169.501 36.8894 169.131 37.1173 168.74 37.2135C168.372 37.3169 168.01 37.3071 167.654 37.1841C167.955 37.67 168.106 38.1732 168.106 38.6937C168.1 39.3727 167.804 40.0144 167.217 40.6188C166.675 41.1774 166.06 41.4729 165.374 41.5055C164.417 41.5421 163.46 41.0959 162.503 40.1669L160.587 38.3051L168.023 30.65ZM168.123 32.8889L165.994 35.081L166.35 35.4266C166.778 35.8428 167.192 36.0517 167.592 36.0535C167.977 36.0554 168.359 35.8613 168.738 35.4711C169.042 35.1574 169.188 34.8233 169.176 34.469C169.163 34.0845 168.946 33.6878 168.525 33.2791L168.123 32.8889ZM165.057 36.0451L162.828 38.3404L163.539 39.0316C164.067 39.5444 164.55 39.8203 164.988 39.8592C165.434 39.9055 165.835 39.745 166.192 39.3778C166.512 39.0488 166.668 38.6806 166.662 38.2734C166.648 37.8135 166.358 37.3085 165.792 36.7585L165.057 36.0451Z" fill="white"/>
<path d="M174.705 37.4074L175.785 38.6304L167.787 45.6964L166.707 44.4733L174.705 37.4074Z" fill="white"/>
<path d="M178.112 41.326L179.544 43.192C180.141 43.9706 180.463 44.7053 180.509 45.396C180.54 45.9098 180.438 46.3984 180.202 46.8618C179.981 47.3272 179.667 47.7157 179.261 48.0274C178.499 48.6118 177.67 48.8107 176.774 48.6242C175.938 48.4456 175.189 47.9247 174.527 47.0615L174.079 46.4776L170.638 49.117L169.645 47.8222L178.112 41.326ZM177.912 43.5363L175.272 45.5621L175.72 46.146C176.135 46.6876 176.569 47.0072 177.02 47.1047C177.48 47.1956 177.913 47.0853 178.319 46.7736C178.463 46.6633 178.582 46.5382 178.676 46.3985C178.777 46.2673 178.858 46.0914 178.917 45.871C178.991 45.6526 178.98 45.3925 178.883 45.0906C178.794 44.7822 178.617 44.4545 178.351 44.1075L177.912 43.5363Z" fill="white"/>
<path d="M177.751 59.5903L183.882 55.8457L173.588 53.6959L183.105 47.8831L183.956 49.2758L177.798 53.0371L188.091 55.1869L178.601 60.983L177.751 59.5903Z" fill="white"/>
<path d="M190.355 64.2818L189.302 62.0721L181.055 66.0034L180.352 64.5303L188.599 60.5989L187.546 58.3891L188.932 57.7282L191.741 63.6209L190.355 64.2818Z" fill="white"/>
<path d="M185.033 76.0233L191.806 73.6263L182.179 69.3961L192.692 65.6751L193.236 67.2136L186.434 69.6213L196.061 73.8515L185.578 77.5618L185.033 76.0233Z" fill="white"/>
</svg>
