<svg width="237" height="237" viewBox="0 0 237 237" fill="none" xmlns="http://www.w3.org/2000/svg">
<path d="M228.319 120.417L229.408 119.394C229.912 119.812 230.274 120.288 230.495 120.822C230.736 121.367 230.84 122.018 230.805 122.774C230.755 123.84 230.435 124.652 229.843 125.212C229.318 125.701 228.683 125.927 227.937 125.893C227.426 125.869 226.989 125.731 226.627 125.48C226.254 125.238 225.96 124.904 225.744 124.478C225.568 125.057 225.232 125.522 224.735 125.873C224.26 126.214 223.649 126.367 222.904 126.332C221.945 126.288 221.167 125.894 220.572 125.151C219.987 124.398 219.723 123.425 219.778 122.231C219.825 121.219 220.142 120.358 220.731 119.649C221.205 119.094 221.801 118.668 222.52 118.37L223.188 119.842C222.635 120.03 222.188 120.341 221.848 120.773C221.496 121.227 221.303 121.805 221.271 122.509C221.238 123.212 221.405 123.764 221.771 124.165C222.096 124.522 222.525 124.713 223.058 124.738C223.612 124.763 224.037 124.575 224.333 124.172C224.628 123.791 224.797 123.152 224.838 122.257L224.883 121.298L226.417 121.37L226.377 122.233C226.345 122.915 226.466 123.433 226.737 123.787C226.989 124.119 227.344 124.296 227.802 124.317C228.282 124.339 228.657 124.186 228.929 123.857C229.155 123.589 229.28 123.184 229.305 122.641C229.329 122.129 229.248 121.693 229.062 121.332C228.886 120.982 228.638 120.677 228.319 120.417Z" fill="white"/>
<path d="M218.508 136.176L221.22 135.444L221.885 130.933L219.507 129.401L219.764 127.66L230.164 134.563L218.252 137.917L218.508 136.176ZM223.307 131.821L222.835 135.019L226.644 133.979L223.307 131.821Z" fill="white"/>
<path d="M228.293 141.915L226.357 149.512L216.015 146.878L216.418 145.296L225.272 147.552L226.401 143.117L217.548 140.862L217.951 139.281L228.293 141.915Z" fill="white"/>
<path d="M212.606 156.552L219.323 159.101L214.712 149.65L225.139 153.607L224.56 155.133L217.813 152.573L222.424 162.024L212.027 158.078L212.606 156.552Z" fill="white"/>
<path d="M216.314 172.298L214.6 171.434C215.699 171.008 216.486 170.324 216.961 169.381C217.48 168.353 217.56 167.342 217.201 166.348C216.846 165.369 216.14 164.613 215.083 164.08C214.064 163.566 213.046 163.464 212.029 163.776C211.021 164.092 210.263 164.755 209.754 165.764C209.278 166.707 209.213 167.749 209.557 168.89L207.828 168.019C207.756 166.979 207.957 165.987 208.432 165.044C209.1 163.72 210.105 162.817 211.447 162.335C212.914 161.797 214.371 161.892 215.818 162.622C217.342 163.391 218.328 164.527 218.776 166.032C219.163 167.326 218.998 168.682 218.282 170.101C217.788 171.082 217.132 171.815 216.314 172.298Z" fill="white"/>
<path d="M202.435 175.564L205.209 176.002L207.657 172.155L206.111 169.786L207.055 168.301L213.734 178.847L201.49 177.049L202.435 175.564ZM208.592 173.546L206.857 176.273L210.758 176.878L208.592 173.546Z" fill="white"/>
<path d="M204.322 188.294L205.812 186.352L198.563 180.791L199.557 179.496L206.805 185.057L208.295 183.115L209.514 184.05L205.54 189.229L204.322 188.294Z" fill="white"/>
<path d="M196.181 183.81L204.127 190.934L203.038 192.149L199.833 189.276L199.021 190.181C198.26 191.031 197.455 191.506 196.606 191.605C195.721 191.713 194.913 191.44 194.182 190.785C193.801 190.443 193.514 190.028 193.321 189.54C193.129 189.068 193.068 188.576 193.139 188.066C193.237 187.381 193.614 186.673 194.269 185.942L196.181 183.81ZM198.689 188.25L196.235 186.05L195.466 186.908C194.512 187.972 194.436 188.864 195.238 189.583C195.588 189.896 195.988 190.041 196.44 190.016C196.893 190.007 197.379 189.712 197.899 189.132L198.689 188.25Z" fill="white"/>
<path d="M191.342 203.074L190.035 201.668C191.213 201.651 192.189 201.282 192.962 200.563C193.806 199.779 194.232 198.858 194.24 197.802C194.248 196.761 193.848 195.807 193.042 194.939C192.265 194.104 191.345 193.655 190.283 193.594C189.229 193.54 188.287 193.899 187.459 194.669C186.686 195.388 186.262 196.342 186.189 197.532L184.871 196.114C185.164 195.113 185.697 194.254 186.47 193.535C187.556 192.525 188.812 192.027 190.238 192.041C191.8 192.045 193.133 192.641 194.237 193.828C195.399 195.078 195.929 196.486 195.827 198.052C195.74 199.4 195.115 200.615 193.951 201.697C193.147 202.445 192.277 202.904 191.342 203.074Z" fill="white"/>
<path d="M183.752 196.297L183.966 201.754C184.509 201.428 185.091 201.282 185.71 201.315C186.517 201.366 187.221 201.779 187.821 202.555C188.369 203.264 188.607 204.017 188.536 204.814C188.497 205.235 188.37 205.629 188.156 205.997C187.942 206.365 187.744 206.632 187.563 206.799C187.382 206.966 187.148 207.161 186.861 207.383L184.785 208.987L178.258 200.544L179.549 199.546L182.162 202.926L182.466 202.691L182.157 197.53L183.752 196.297ZM185.156 206.799L185.789 206.31C186.481 205.775 186.861 205.272 186.929 204.802C187.003 204.34 186.887 203.911 186.58 203.514C186.228 203.058 185.807 202.845 185.316 202.873C184.856 202.906 184.347 203.137 183.79 203.568L183.082 204.116L185.156 206.799Z" fill="white"/>
<path d="M176.747 214.383L174.625 210.73L170.668 213.029L172.79 216.681L171.379 217.501L166.018 208.273L167.43 207.453L169.897 211.701L173.854 209.402L171.387 205.155L172.798 204.335L178.158 213.563L176.747 214.383Z" fill="white"/>
<path d="M156.681 212.639L158.752 214.537L162.918 212.683L162.938 209.854L164.546 209.139L164.286 221.619L155.074 213.355L156.681 212.639ZM162.929 214.359L159.976 215.674L162.894 218.333L162.929 214.359Z" fill="white"/>
<path d="M145.052 227.059L144.522 225.214C145.58 225.731 146.617 225.844 147.632 225.552C148.739 225.234 149.535 224.606 150.02 223.667C150.498 222.742 150.573 221.71 150.246 220.572C149.931 219.475 149.314 218.659 148.394 218.125C147.478 217.6 146.476 217.494 145.39 217.806C144.375 218.098 143.565 218.757 142.962 219.785L142.427 217.925C143.141 217.165 144.005 216.639 145.02 216.347C146.445 215.938 147.791 216.062 149.056 216.719C150.447 217.429 151.367 218.563 151.815 220.122C152.286 221.762 152.122 223.257 151.323 224.608C150.636 225.771 149.529 226.572 148.001 227.011C146.945 227.314 145.962 227.33 145.052 227.059Z" fill="white"/>
<path d="M136.655 229.343L136.362 227.836L140.539 227.022L140.022 224.368L135.97 225.157L135.677 223.649L139.729 222.86L139.087 219.562L134.909 220.376L134.616 218.868L140.395 217.743L142.435 228.218L136.655 229.343Z" fill="white"/>
<path d="M125.987 230.058L125.78 228.15C126.735 228.84 127.737 229.128 128.787 229.015C129.932 228.891 130.824 228.408 131.462 227.566C132.091 226.736 132.342 225.733 132.214 224.555C132.092 223.421 131.623 222.511 130.808 221.827C129.995 221.153 129.026 220.878 127.902 220.999C126.852 221.113 125.942 221.625 125.172 222.534L124.963 220.61C125.797 219.983 126.738 219.613 127.788 219.499C129.262 219.339 130.566 219.691 131.701 220.556C132.95 221.493 133.662 222.768 133.837 224.38C134.021 226.076 133.603 227.522 132.585 228.716C131.709 229.744 130.481 230.344 128.901 230.515C127.809 230.633 126.838 230.481 125.987 230.058Z" fill="white"/>
<path d="M115.255 230.293L115.232 228.374C116.116 229.153 117.086 229.536 118.142 229.524C119.294 229.511 120.228 229.116 120.944 228.339C121.65 227.574 121.996 226.599 121.983 225.415C121.969 224.274 121.59 223.324 120.846 222.564C120.101 221.815 119.163 221.448 118.033 221.461C116.977 221.473 116.021 221.895 115.167 222.726L115.145 220.79C116.034 220.246 117.007 219.968 118.063 219.956C119.546 219.939 120.81 220.415 121.856 221.384C123.01 222.438 123.596 223.775 123.615 225.396C123.634 227.103 123.08 228.501 121.951 229.592C120.981 230.531 119.701 231.01 118.111 231.028C117.013 231.041 116.061 230.796 115.255 230.293Z" fill="white"/>
<path d="M105.749 219.451L105.058 226.602L112.962 219.667L111.888 230.767L110.264 230.61L110.958 223.427L103.054 230.363L104.125 219.294L105.749 219.451Z" fill="white"/>
<path d="M98.2796 224.92L96.7219 224.554C96.292 225.593 95.6131 226.409 94.6851 227.002C93.4366 227.794 92.049 228.01 90.5225 227.652C89.0063 227.297 87.8755 226.489 87.1302 225.229C86.3744 223.967 86.1769 222.568 86.5374 221.031C86.898 219.494 87.6974 218.329 88.9355 217.534C90.1736 216.74 91.5456 216.52 93.0513 216.873C94.7752 217.277 95.9879 218.203 96.6894 219.649C97.1964 220.71 97.3242 221.847 97.0727 223.059L98.6304 223.424L99.7487 218.658L101.338 219.031L98.9001 229.421L97.3112 229.048L98.2796 224.92ZM95.0809 220.061C94.5685 219.163 93.7774 218.588 92.7078 218.337C91.6382 218.086 90.6742 218.249 89.8158 218.826C88.9575 219.402 88.3943 220.262 88.1263 221.404C87.8583 222.546 87.9805 223.566 88.4929 224.464C89.0053 225.363 89.7964 225.937 90.866 226.188C91.9356 226.439 92.8996 226.276 93.758 225.7C94.6163 225.123 95.1795 224.264 95.4475 223.121C95.7155 221.979 95.5933 220.959 95.0809 220.061Z" fill="white"/>
<path d="M85.5919 217.64L85.0531 219.181L81.4284 217.913L81.9671 216.373L85.5919 217.64Z" fill="white"/>
<path d="M76.4391 220.324L77.0058 221.706C76.4351 222.028 75.8612 222.196 75.284 222.212C74.6885 222.243 74.0437 222.107 73.3496 221.805C72.3719 221.378 71.7272 220.788 71.4155 220.036C71.1466 219.372 71.1615 218.697 71.46 218.013C71.6648 217.544 71.9493 217.185 72.3137 216.936C72.6725 216.674 73.0895 216.518 73.5646 216.47C73.0866 216.098 72.7725 215.618 72.6222 215.029C72.4732 214.463 72.548 213.838 72.8465 213.154C73.2303 212.274 73.8756 211.688 74.7823 211.397C75.6945 211.12 76.6981 211.221 77.7931 211.698C78.7219 212.103 79.4127 212.707 79.8656 213.51C80.2144 214.151 80.3996 214.86 80.4212 215.638L78.807 215.737C78.829 215.153 78.6987 214.624 78.416 214.152C78.118 213.661 77.6464 213.275 77.0011 212.994C76.3558 212.712 75.7804 212.671 75.2749 212.869C74.8256 213.045 74.4943 213.378 74.281 213.867C74.0593 214.375 74.0836 214.84 74.354 215.26C74.6049 215.672 75.1409 216.057 75.9622 216.416L76.8421 216.8L76.2279 218.207L75.436 217.862C74.8103 217.589 74.2834 217.516 73.8554 217.644C73.4555 217.76 73.1638 218.029 72.9804 218.449C72.7885 218.889 72.7978 219.295 73.0083 219.666C73.1772 219.972 73.511 220.234 74.0096 220.452C74.4789 220.656 74.9153 220.736 75.319 220.691C75.7087 220.652 76.082 220.529 76.4391 220.324Z" fill="white"/>
<path d="M65.066 217.646L67.1335 213.963L63.1431 211.723L61.0756 215.406L59.6525 214.607L64.8761 205.301L66.2992 206.1L63.8949 210.383L67.8853 212.623L70.2896 208.34L71.7127 209.139L66.4892 218.445L65.066 217.646Z" fill="white"/>
<path d="M56.392 199.482L55.8125 202.231L59.5292 204.873L61.9736 203.45L63.4082 204.469L52.5341 210.599L54.9574 198.463L56.392 199.482ZM58.0916 205.735L55.4573 203.863L54.6534 207.728L58.0916 205.735Z" fill="white"/>
<path d="M45.4391 204.342L48.2454 201.142L42.3356 201.62L40.7237 200.207L47.5305 199.749L47.7364 192.162L49.3724 193.597L49.1125 199.668L49.5641 199.639L52.4759 196.319L53.7028 197.395L46.6661 205.418L45.4391 204.342Z" fill="white"/>
<path d="M38.8739 196.467C37.3819 196.401 36.0991 195.783 35.0253 194.611C33.9515 193.44 33.4472 192.108 33.5123 190.616C33.5774 189.124 34.1919 187.844 35.3558 186.778C36.5196 185.711 37.8476 185.211 39.3396 185.276C40.8316 185.341 42.1144 185.959 43.1882 187.131C44.262 188.303 44.7663 189.635 44.7012 191.126C44.6361 192.618 44.0216 193.898 42.8577 194.964C41.6939 196.031 40.3659 196.532 38.8739 196.467ZM43.1562 190.98C43.2094 189.933 42.8505 188.988 42.0794 188.147C41.3083 187.306 40.3989 186.866 39.3511 186.828C38.2955 186.797 37.3313 187.181 36.4584 187.981C35.5854 188.781 35.1224 189.704 35.0691 190.752C35.008 191.806 35.363 192.754 36.1341 193.595C36.9052 194.437 37.8186 194.873 38.8742 194.904C39.9219 194.942 40.8822 194.561 41.7551 193.761C42.6281 192.961 43.0951 192.034 43.1562 190.98Z" fill="white"/>
<path d="M37.2035 180.514L38.1626 181.874L27.4967 186.656L32.1301 178.845L23.1993 180.563L31.4122 172.303L32.3713 173.663L27.7422 178.259L35.1927 176.803L31.2888 183.316L37.2035 180.514Z" fill="white"/>
<path d="M17.6267 168.189L19.3113 167.268C19.0384 168.414 19.1552 169.45 19.6619 170.377C20.2146 171.388 21.0019 172.027 22.0237 172.295C23.0311 172.559 24.0542 172.406 25.093 171.838C26.0944 171.291 26.7554 170.51 27.0761 169.496C27.3875 168.487 27.272 167.486 26.7295 166.494C26.2228 165.567 25.4019 164.922 24.2668 164.558L25.9654 163.629C26.8632 164.16 27.5655 164.888 28.0721 165.815C28.7835 167.115 28.9568 168.455 28.5922 169.834C28.2039 171.347 27.2985 172.492 25.876 173.27C24.3786 174.089 22.8834 174.256 21.3906 173.772C20.1056 173.356 19.0818 172.451 18.3193 171.056C17.7921 170.092 17.5613 169.137 17.6267 168.189Z" fill="white"/>
<path d="M15.1652 160.373L16.1607 162.609L24.5071 158.894L25.1708 160.385L16.8243 164.1L17.8199 166.337L16.4166 166.961L13.7619 160.998L15.1652 160.373Z" fill="white"/>
<path d="M12.9091 158.869L12.3699 157.345C12.1279 156.661 11.9875 156.089 11.9486 155.627C11.9098 155.166 11.9842 154.721 12.172 154.292C12.4861 153.581 13.0555 153.08 13.88 152.788C14.3526 152.621 14.7854 152.581 15.1783 152.668C15.5541 152.739 15.8744 152.908 16.1391 153.177C16.0847 152.608 16.173 152.09 16.404 151.623C16.7099 151.017 17.2601 150.574 18.0545 150.292C18.7885 150.033 19.4701 150.04 20.0993 150.315C20.9736 150.708 21.6332 151.532 22.078 152.789L22.9696 155.308L12.9091 158.869ZM13.8126 156.818L16.6935 155.798L16.528 155.33C16.3287 154.767 16.0502 154.396 15.6927 154.217C15.3488 154.045 14.9204 154.049 14.4076 154.231C13.9953 154.377 13.7162 154.611 13.5704 154.935C13.4115 155.285 13.43 155.737 13.6257 156.29L13.8126 156.818ZM17.9604 155.35L20.9771 154.282L20.6461 153.347C20.4005 152.653 20.09 152.191 19.7147 151.962C19.3358 151.723 18.9051 151.689 18.4224 151.859C17.99 152.012 17.6861 152.273 17.5107 152.64C17.3194 153.059 17.3554 153.64 17.6188 154.384L17.9604 155.35Z" fill="white"/>
<path d="M10.8032 148.249C9.53095 147.467 8.71037 146.303 8.34148 144.757C7.97259 143.211 8.17917 141.802 8.96123 140.529C9.74328 139.257 10.9021 138.438 12.4376 138.071C13.9732 137.705 15.3771 137.913 16.6494 138.695C17.9216 139.477 18.7422 140.641 19.1111 142.187C19.48 143.733 19.2734 145.142 18.4914 146.414C17.7093 147.686 16.5505 148.506 15.0149 148.872C13.4794 149.238 12.0755 149.031 10.8032 148.249ZM17.2124 145.535C17.7678 144.646 17.9131 143.646 17.6482 142.536C17.3833 141.426 16.8023 140.599 15.9052 140.057C14.9977 139.517 13.9681 139.384 12.8164 139.659C11.6648 139.934 10.8112 140.516 10.2558 141.405C9.68995 142.296 9.5395 143.297 9.80441 144.408C10.0693 145.518 10.6555 146.343 11.563 146.883C12.4601 147.426 13.4845 147.559 14.6362 147.285C15.7878 147.01 16.6466 146.427 17.2124 145.535Z" fill="white"/>
<path d="M7.83832 122.397L6.8108 123.481C6.2836 123.092 5.89432 122.638 5.64295 122.118C5.37012 121.588 5.22933 120.945 5.22056 120.187C5.2082 119.121 5.48128 118.291 6.03978 117.698C6.53515 117.18 7.15614 116.917 7.90276 116.908C8.41473 116.902 8.85872 117.014 9.23475 117.245C9.62132 117.464 9.93433 117.78 10.1738 118.194C10.3163 117.605 10.6254 117.122 11.1011 116.743C11.5555 116.375 12.156 116.187 12.9026 116.178C13.8626 116.167 14.6613 116.515 15.2989 117.222C15.9259 117.94 16.2464 118.897 16.2602 120.091C16.2719 121.105 16.0047 121.982 15.4586 122.725C15.0173 123.306 14.4466 123.766 13.7465 124.105L12.9939 122.673C13.5354 122.454 13.9635 122.118 14.2783 121.666C14.6035 121.193 14.762 120.605 14.7539 119.901C14.7457 119.197 14.5474 118.655 14.159 118.276C13.8138 117.938 13.3745 117.773 12.8412 117.779C12.2865 117.785 11.873 117.998 11.6005 118.417C11.3277 118.815 11.1966 119.462 11.2069 120.358L11.2181 121.318L9.68215 121.336L9.67215 120.472C9.66424 119.789 9.51432 119.279 9.22239 118.941C8.95204 118.624 8.58754 118.468 8.1289 118.473C7.64894 118.479 7.28294 118.654 7.03091 118.998C6.8208 119.278 6.7189 119.69 6.7252 120.234C6.73112 120.746 6.83745 121.177 7.04418 121.526C7.24012 121.865 7.50484 122.156 7.83832 122.397Z" fill="white"/>
<path d="M16.772 105.61L14.1036 106.487L13.6821 111.028L16.1392 112.429L15.9765 114.181L5.21978 107.848L16.9347 103.858L16.772 105.61ZM12.2148 110.217L12.5135 106.999L8.7666 108.242L12.2148 110.217Z" fill="white"/>
<path d="M6.67786 100.442L8.20557 92.752L18.673 94.8315L18.355 96.4322L9.39411 94.652L8.50243 99.1403L17.4633 100.921L17.1453 102.521L6.67786 100.442Z" fill="white"/>
<path d="M21.6001 84.811L14.7586 82.6191L19.8604 91.8141L9.24017 88.4117L9.73809 86.8575L16.61 89.0591L11.5082 79.8641L22.098 83.2568L21.6001 84.811Z" fill="white"/>
<path d="M17.0357 69.3491L18.7926 70.1234C17.7176 70.6055 16.9672 71.3297 16.5414 72.296C16.0768 73.3502 16.0497 74.364 16.46 75.3375C16.8648 76.2968 17.609 77.0153 18.6924 77.4927C19.7368 77.953 20.7588 78.0012 21.7584 77.6374C22.7482 77.2693 23.4711 76.5679 23.9271 75.5332C24.3529 74.5669 24.3642 73.5228 23.9611 72.401L25.7327 73.1817C25.8594 74.2167 25.7098 75.2173 25.284 76.1836C24.6861 77.5404 23.7296 78.4943 22.4143 79.0454C20.978 79.6597 19.518 79.64 18.0343 78.9861C16.4726 78.2979 15.4289 77.2144 14.9033 75.7355C14.4498 74.4633 14.5435 73.1 15.1844 71.6456C15.6275 70.6402 16.2445 69.8747 17.0357 69.3491Z" fill="white"/>
<path d="M30.6595 65.4525L27.866 65.158L25.6194 69.1261L27.2856 71.4117L26.4185 72.9433L19.2057 62.7554L31.5266 63.9209L30.6595 65.4525ZM24.6139 67.7846L26.2062 64.9721L22.2791 64.569L24.6139 67.7846Z" fill="white"/>
<path d="M28.224 52.639L26.8351 54.6548L34.3583 59.8383L33.4324 61.1822L25.9092 55.9987L24.5203 58.0146L23.2554 57.1431L26.9592 51.7675L28.224 52.639Z" fill="white"/>
<path d="M36.2235 57.1524L27.9005 50.4726L28.922 49.1999L32.2786 51.8938L33.0397 50.9455C33.7541 50.0554 34.5321 49.5377 35.3735 49.3924C36.2517 49.2355 37.0734 49.4642 37.8388 50.0784C38.2381 50.3989 38.5473 50.7975 38.7664 51.2743C38.9839 51.7361 39.0715 52.2235 39.029 52.7365C38.968 53.426 38.6303 54.1535 38.0161 54.9188L36.2235 57.1524ZM33.4765 52.8552L36.0471 54.9182L36.7681 54.0198C37.6628 52.9051 37.69 52.0106 36.8498 51.3362C36.4837 51.0425 36.0758 50.9202 35.6259 50.9695C35.1744 51.0038 34.705 51.3246 34.2176 51.9318L33.4765 52.8552Z" fill="white"/>
<path d="M40.0149 37.5989L41.3969 38.9316C40.2216 39.0133 39.2674 39.4343 38.5344 40.1944C37.7348 41.0237 37.3596 41.9659 37.4089 43.0211C37.458 44.0613 37.9087 44.9923 38.761 45.8141C39.5826 46.6064 40.5252 47.0042 41.5889 47.0075C42.645 47.0034 43.5654 46.5944 44.3503 45.7805C45.0833 45.0203 45.4541 44.0442 45.4626 42.8522L46.8562 44.196C46.6181 45.2112 46.1326 46.0989 45.3996 46.859C44.3704 47.9263 43.1435 48.4917 41.7189 48.5553C40.1588 48.6365 38.7952 48.1143 37.6281 46.9889C36.3996 45.8042 35.7937 44.4272 35.8105 42.8578C35.8237 41.5072 36.3819 40.2599 37.4851 39.1159C38.2477 38.325 39.091 37.8193 40.0149 37.5989Z" fill="white"/>
<path d="M47.9896 43.8959L47.478 38.4591C46.9531 38.8141 46.3805 38.9917 45.7604 38.992C44.9516 38.986 44.2264 38.6118 43.5847 37.8693C42.9989 37.1914 42.7199 36.4527 42.7479 35.6531C42.7635 35.2307 42.8683 34.83 43.0623 34.4509C43.2563 34.0717 43.4391 33.7939 43.6108 33.6173C43.7824 33.4408 44.0055 33.2339 44.2799 32.9968L46.2652 31.281L53.2434 39.3554L52.0087 40.4225L49.2153 37.1903L48.9247 37.4414L49.5149 42.5777L47.9896 43.8959ZM46.0139 33.4861L45.4086 34.0092C44.7468 34.5811 44.3949 35.1037 44.3529 35.5771C44.3039 36.0424 44.4433 36.4647 44.7711 36.844C45.1477 37.2798 45.58 37.4701 46.0681 37.4149C46.526 37.3575 47.0213 37.0986 47.5539 36.6383L48.2318 36.0524L46.0139 33.4861Z" fill="white"/>
<path d="M54.2493 25.241L56.5559 28.7796L60.3894 26.2808L58.0828 22.7422L59.45 21.851L65.2776 30.7914L63.9104 31.6825L61.2281 27.5676L57.3946 30.0664L60.0769 34.1814L58.7097 35.0725L52.8821 26.1322L54.2493 25.241Z" fill="white"/>
<path d="M73.9473 26.1218L71.7741 24.3422L67.7179 26.4257L67.856 29.2507L66.2904 30.0549L65.8543 17.5798L75.5129 25.3176L73.9473 26.1218ZM67.6139 24.7523L70.4888 23.2756L67.4276 20.7829L67.6139 24.7523Z" fill="white"/>
<path d="M85.1848 10.8891L85.8118 12.7039C84.7273 12.2434 83.686 12.1856 82.6879 12.5305C81.5991 12.9067 80.8373 13.5762 80.4025 14.5389C79.9743 15.4881 79.9536 16.5222 80.3402 17.6413C80.7129 18.7201 81.3725 19.5023 82.3189 19.9878C83.2619 20.4633 84.2677 20.5164 85.3364 20.1472C86.3345 19.8023 87.1078 19.1007 87.6562 18.0422L88.2884 19.8721C87.6157 20.6688 86.7803 21.2396 85.7822 21.5844C84.3808 22.0686 83.0309 22.0158 81.7325 21.4262C80.3054 20.7907 79.3271 19.7067 78.7977 18.1743C78.2404 16.5612 78.3252 15.0591 79.0521 13.6682C79.6766 12.4706 80.74 11.6123 82.2422 11.0933C83.2806 10.7345 84.2615 10.6664 85.1848 10.8891Z" fill="white"/>
<path d="M93.4773 8.13828L93.8508 9.62817L89.7226 10.6632L90.3802 13.286L94.3843 12.2821L94.7578 13.772L90.7537 14.7759L91.5709 18.035L95.6991 17L96.0726 18.4899L90.3614 19.9218L87.7661 9.57017L93.4773 8.13828Z" fill="white"/>
<path d="M103.54 6.93524L103.849 8.8302C102.859 8.19197 101.843 7.95785 100.8 8.12785C99.6633 8.3133 98.7987 8.8434 98.2065 9.71814C97.6231 10.5806 97.4266 11.5962 97.6172 12.7647C97.801 13.8912 98.3179 14.7742 99.1679 15.4137C100.016 16.0426 100.998 16.2661 102.114 16.0841C103.156 15.9141 104.038 15.3542 104.758 14.4045L105.07 16.3153C104.272 16.9859 103.351 17.4062 102.309 17.5762C100.846 17.8149 99.5244 17.5332 98.3453 16.7313C97.0471 15.8622 96.2675 14.6276 96.0065 13.0275C95.7318 11.3431 96.0709 9.87734 97.0239 8.63032C97.8431 7.55645 99.037 6.89159 100.606 6.63573C101.69 6.45887 102.668 6.55871 103.54 6.93524Z" fill="white"/>
<path d="M114.369 6.06274L114.495 7.97861C113.571 7.2483 112.581 6.91775 111.528 6.98696C110.378 7.06246 109.467 7.50715 108.793 8.32104C108.13 9.12358 107.837 10.1156 107.914 11.297C107.989 12.4359 108.419 13.3644 109.204 14.0825C109.988 14.79 110.944 15.1067 112.072 15.0326C113.126 14.9634 114.057 14.4907 114.865 13.6145L114.992 15.5463C114.133 16.1372 113.177 16.4673 112.123 16.5365C110.643 16.6337 109.355 16.2265 108.258 15.3151C107.05 14.3256 106.392 13.0218 106.286 11.404C106.174 9.701 106.652 8.27459 107.721 7.12477C108.639 6.13445 109.891 5.58721 111.477 5.48305C112.573 5.41104 113.537 5.60427 114.369 6.06274Z" fill="white"/>
<path d="M124.564 16.3455L124.869 9.16793L117.35 16.5195L117.823 5.37752L119.454 5.44678L119.148 12.6563L126.666 5.30474L126.195 16.4147L124.564 16.3455Z" fill="white"/>
<path d="M131.951 10.4778L133.526 10.7595C133.9 9.69947 134.534 8.84855 135.429 8.20677C136.634 7.34945 138.008 7.05884 139.551 7.33493C141.084 7.60914 142.257 8.35521 143.068 9.57313C143.89 10.7929 144.162 12.1798 143.884 13.7338C143.606 15.2878 142.87 16.4944 141.676 17.3536C140.483 18.2128 139.124 18.5063 137.602 18.2339C135.859 17.9222 134.598 17.0628 133.821 15.6559C133.258 14.6233 133.069 13.4952 133.256 12.2715L131.681 11.9898L130.819 16.8093L129.212 16.522L131.091 6.01671L132.698 6.30406L131.951 10.4778ZM135.405 15.1591C135.965 16.0285 136.785 16.56 137.867 16.7534C138.948 16.9469 139.902 16.7328 140.728 16.1113C141.555 15.4898 142.071 14.6015 142.278 13.4465C142.484 12.2915 142.308 11.2793 141.748 10.4098C141.189 9.54033 140.368 9.00888 139.287 8.81543C138.205 8.62198 137.251 8.83602 136.425 9.45757C135.598 10.0791 135.082 10.9674 134.875 12.1224C134.669 13.2774 134.845 14.2896 135.405 15.1591Z" fill="white"/>
<path d="M145.146 17.0875L145.603 15.5207L149.289 16.5952L148.833 18.162L145.146 17.0875Z" fill="white"/>
<path d="M153.828 13.7944L153.19 12.444C153.743 12.0933 154.307 11.895 154.883 11.8489C155.476 11.7866 156.127 11.8884 156.836 12.1545C157.835 12.5292 158.509 13.0843 158.86 13.8197C159.163 14.4689 159.184 15.1431 158.921 15.8422C158.741 16.3215 158.476 16.6948 158.125 16.9619C157.781 17.2427 157.372 17.4199 156.9 17.4935C157.397 17.8394 157.736 18.3026 157.917 18.8832C158.095 19.44 158.053 20.068 157.791 20.767C157.454 21.6659 156.84 22.2843 155.95 22.6225C155.054 22.9469 154.046 22.8993 152.928 22.4796C151.979 22.1236 151.257 21.5567 150.763 20.7788C150.381 20.157 150.159 19.4584 150.097 18.6831L151.704 18.4999C151.712 19.0842 151.87 19.6048 152.177 20.0618C152.5 20.5363 152.992 20.8972 153.651 21.1445C154.31 21.3918 154.887 21.4032 155.381 21.1786C155.82 20.9789 156.134 20.6294 156.321 20.1301C156.516 19.6107 156.468 19.1482 156.175 18.7424C155.903 18.3441 155.348 17.9875 154.509 17.6728L153.61 17.3355L154.15 15.8974L154.959 16.2009C155.598 16.4408 156.128 16.4858 156.549 16.3361C156.942 16.1988 157.219 15.9155 157.38 15.4861C157.549 15.0367 157.518 14.6322 157.289 14.2726C157.104 13.9754 156.757 13.7313 156.248 13.5402C155.768 13.3603 155.328 13.3034 154.927 13.3695C154.54 13.4293 154.174 13.571 153.828 13.7944Z" fill="white"/>
<path d="M165.317 15.8132L163.443 19.5987L167.544 21.6289L169.418 17.8434L170.881 18.5675L166.146 28.1316L164.683 27.4076L166.863 23.0055L162.762 20.9752L160.582 25.3773L159.12 24.6532L163.855 15.0891L165.317 15.8132Z" fill="white"/>
<path d="M175.212 33.6211L175.65 30.8465L171.802 28.3986L169.434 29.945L167.949 29.0002L178.495 22.3213L176.697 34.5659L175.212 33.6211ZM173.194 27.4634L175.921 29.1984L176.525 25.2973L173.194 27.4634Z" fill="white"/>
<path d="M185.649 27.9818L183.021 31.3299L188.896 30.5302L190.583 31.8538L183.811 32.6819L184.019 40.2691L182.308 38.9257L182.236 32.8491L181.786 32.9033L179.06 36.3773L177.776 35.3698L184.365 26.9743L185.649 27.9818Z" fill="white"/>
<path d="M192.633 35.4522C194.127 35.4359 195.441 35.9836 196.577 37.0951C197.713 38.2066 198.289 39.509 198.306 41.0023C198.322 42.4956 197.778 43.8065 196.674 44.9349C195.57 46.0633 194.271 46.6356 192.778 46.6519C191.285 46.6682 189.97 46.1205 188.834 45.009C187.698 43.8975 187.122 42.5951 187.106 41.1018C187.089 39.6085 187.633 38.2976 188.737 37.1692C189.841 36.0408 191.14 35.4685 192.633 35.4522ZM188.656 41.1641C188.66 42.2125 189.07 43.1358 189.886 43.934C190.702 44.7322 191.634 45.1218 192.682 45.1029C193.738 45.0763 194.679 44.6398 195.507 43.7935C196.336 42.9472 196.748 41.9999 196.744 40.9515C196.747 39.8954 196.341 38.9683 195.525 38.1701C194.71 37.3719 193.774 36.9861 192.718 37.0127C191.67 37.0316 190.732 37.4643 189.904 38.3106C189.076 39.1569 188.66 40.108 188.656 41.1641Z" fill="white"/>
<path d="M195.515 51.6483L194.488 50.3393L204.895 45.0191L200.667 53.0559L209.498 50.8847L201.718 59.5529L200.691 58.2439L205.079 53.4171L197.713 55.2523L201.279 48.5487L195.515 51.6483Z" fill="white"/>
<path d="M215.648 62.8469L214.013 63.8537C214.227 62.695 214.056 61.6661 213.503 60.7669C212.899 59.786 212.08 59.1881 211.045 58.9732C210.026 58.7618 209.012 58.9665 208.004 59.5874C207.032 60.1858 206.412 60.9998 206.144 62.0292C205.885 63.053 206.052 64.0463 206.645 65.009C207.198 65.9082 208.052 66.5103 209.204 66.8153L207.555 67.8305C206.631 67.3472 205.893 66.656 205.339 65.7568C204.561 64.4943 204.319 63.1653 204.612 61.7697C204.922 60.2386 205.767 59.0479 207.148 58.1977C208.601 57.3028 210.086 57.0588 211.601 57.4657C212.906 57.8147 213.975 58.6658 214.809 60.0191C215.385 60.9547 215.664 61.8972 215.648 62.8469Z" fill="white"/>
<path d="M218.519 70.5021L217.409 68.3204L209.267 72.4646L208.526 71.0102L216.668 66.866L215.558 64.6843L216.927 63.9876L219.888 69.8053L218.519 70.5021Z" fill="white"/>
<path d="M220.901 71.9726L221.52 73.4656C221.797 74.1357 221.968 74.7002 222.031 75.159C222.094 75.6178 222.043 76.0661 221.878 76.5039C221.601 77.2303 221.059 77.7609 220.251 78.0956C219.788 78.2874 219.358 78.3501 218.961 78.2836C218.582 78.2327 218.253 78.0802 217.974 77.8261C218.059 78.3916 217.998 78.9133 217.791 79.3913C217.518 80.0126 216.992 80.4846 216.213 80.807C215.494 81.105 214.813 81.1331 214.17 80.8913C213.276 80.5456 212.574 79.7568 212.064 78.525L211.042 76.0563L220.901 71.9726ZM220.107 74.0682L217.283 75.2376L217.473 75.6958C217.702 76.2477 217.999 76.6036 218.366 76.7636C218.718 76.9177 219.146 76.8907 219.648 76.6826C220.052 76.5152 220.319 76.2664 220.447 75.936C220.588 75.5777 220.546 75.1276 220.321 74.5855L220.107 74.0682ZM216.042 75.7519L213.085 76.9764L213.465 77.8929C213.746 78.5729 214.081 79.0175 214.468 79.2267C214.858 79.4458 215.29 79.4574 215.763 79.2614C216.187 79.0859 216.477 78.81 216.633 78.4337C216.802 78.0058 216.736 77.4272 216.433 76.6979L216.042 75.7519Z" fill="white"/>
<path d="M223.544 82.393C224.856 83.1064 225.737 84.2252 226.188 85.7493C226.638 87.2735 226.507 88.6916 225.793 90.0036C225.08 91.3156 223.966 92.1953 222.452 92.6427C220.938 93.0902 219.525 92.9572 218.213 92.2438C216.901 91.5304 216.02 90.4116 215.57 88.8875C215.119 87.3633 215.251 85.9452 215.964 84.6332C216.677 83.3212 217.791 82.4415 219.305 81.9941C220.819 81.5466 222.232 81.6796 223.544 82.393ZM217.288 85.4432C216.78 86.3607 216.688 87.3667 217.012 88.4612C217.335 89.5557 217.96 90.3501 218.884 90.8443C219.819 91.3354 220.854 91.4132 221.99 91.0776C223.125 90.7421 223.947 90.1155 224.454 89.1981C224.972 88.2776 225.069 87.2701 224.745 86.1756C224.422 85.0811 223.793 84.2882 222.858 83.7971C221.933 83.3029 220.903 83.2236 219.768 83.5591C218.632 83.8947 217.806 84.5227 217.288 85.4432Z" fill="white"/>
</svg>
