<svg width="236" height="236" viewBox="0 0 236 236" fill="none" xmlns="http://www.w3.org/2000/svg">
<path d="M227.309 119.506L228.394 118.479C228.899 118.896 229.263 119.371 229.486 119.903C229.73 120.447 229.836 121.098 229.804 121.854C229.758 122.92 229.441 123.734 228.851 124.296C228.329 124.786 227.694 125.016 226.948 124.984C226.437 124.962 226 124.826 225.636 124.576C225.262 124.336 224.967 124.003 224.75 123.577C224.576 124.157 224.241 124.623 223.746 124.976C223.272 125.319 222.662 125.475 221.916 125.443C220.957 125.402 220.178 125.011 219.58 124.271C218.993 123.52 218.724 122.547 218.775 121.354C218.818 120.341 219.132 119.479 219.718 118.768C220.19 118.211 220.784 117.783 221.502 117.482L222.176 118.952C221.623 119.142 221.178 119.454 220.839 119.888C220.489 120.343 220.299 120.922 220.269 121.626C220.239 122.329 220.408 122.881 220.775 123.28C221.102 123.636 221.531 123.825 222.064 123.848C222.618 123.871 223.043 123.681 223.338 123.277C223.631 122.895 223.797 122.256 223.835 121.361L223.876 120.401L225.411 120.467L225.374 121.33C225.345 122.012 225.467 122.53 225.74 122.883C225.993 123.214 226.349 123.389 226.807 123.409C227.287 123.429 227.662 123.274 227.932 122.944C228.157 122.676 228.281 122.27 228.304 121.727C228.326 121.215 228.243 120.779 228.055 120.419C227.878 120.07 227.629 119.766 227.309 119.506Z" fill="white"/>
<path d="M217.548 135.267L220.257 134.524L220.904 130.01L218.52 128.488L218.77 126.746L229.197 133.608L217.298 137.009L217.548 135.267ZM222.329 130.893L221.87 134.093L225.675 133.038L222.329 130.893Z" fill="white"/>
<path d="M227.363 140.86L225.456 148.465L215.105 145.87L215.502 144.287L224.363 146.508L225.476 142.07L216.615 139.848L217.011 138.265L227.363 140.86Z" fill="white"/>
<path d="M211.96 154.96L218.705 157.433L213.988 148.035L224.459 151.874L223.897 153.406L217.122 150.922L221.839 160.321L211.398 156.492L211.96 154.96Z" fill="white"/>
<path d="M215.889 170.507L214.165 169.661C215.259 169.223 216.038 168.53 216.503 167.582C217.011 166.548 217.079 165.536 216.709 164.547C216.344 163.572 215.63 162.823 214.567 162.302C213.542 161.799 212.523 161.71 211.509 162.032C210.505 162.359 209.754 163.031 209.256 164.046C208.791 164.994 208.737 166.037 209.094 167.174L207.356 166.322C207.272 165.282 207.462 164.289 207.927 163.34C208.58 162.009 209.575 161.095 210.911 160.598C212.372 160.043 213.829 160.123 215.285 160.837C216.817 161.588 217.816 162.714 218.281 164.213C218.682 165.502 218.532 166.861 217.832 168.288C217.349 169.274 216.701 170.014 215.889 170.507Z" fill="white"/>
<path d="M202.12 173.777L204.899 174.185L207.305 170.311L205.732 167.96L206.661 166.464L213.455 176.936L201.192 175.273L202.12 173.777ZM208.255 171.692L206.55 174.438L210.458 174.999L208.255 171.692Z" fill="white"/>
<path d="M204.399 186.163L205.86 184.199L198.532 178.745L199.506 177.435L206.835 182.89L208.297 180.927L209.529 181.844L205.631 187.08L204.399 186.163Z" fill="white"/>
<path d="M191.64 186.968L197.007 191.744L196.068 181.27L204.399 188.684L203.314 189.903L197.924 185.106L198.862 195.58L190.555 188.187L191.64 186.968Z" fill="white"/>
<path d="M189.686 202.808L188.388 201.393C189.567 201.384 190.545 201.023 191.323 200.309C192.173 199.531 192.605 198.614 192.621 197.557C192.637 196.516 192.244 195.559 191.444 194.686C190.673 193.845 189.757 193.39 188.695 193.321C187.641 193.26 186.697 193.611 185.864 194.375C185.085 195.088 184.655 196.04 184.573 197.229L183.265 195.802C183.565 194.803 184.104 193.947 184.883 193.234C185.976 192.232 187.235 191.743 188.661 191.768C190.223 191.783 191.552 192.388 192.647 193.584C193.8 194.842 194.32 196.254 194.207 197.819C194.11 199.166 193.476 200.377 192.304 201.451C191.494 202.193 190.621 202.645 189.686 202.808Z" fill="white"/>
<path d="M181.589 196.353L188.085 204.821L186.79 205.814L184.17 202.399L183.206 203.139C182.3 203.834 181.421 204.152 180.57 204.093C179.679 204.037 178.935 203.619 178.338 202.841C178.026 202.434 177.821 201.974 177.721 201.458C177.62 200.958 177.651 200.464 177.814 199.976C178.037 199.321 178.538 198.694 179.317 198.097L181.589 196.353ZM183.235 201.181L181.229 198.566L180.315 199.267C179.181 200.137 178.942 200.999 179.598 201.854C179.883 202.226 180.251 202.442 180.699 202.501C181.146 202.575 181.678 202.375 182.296 201.901L183.235 201.181Z" fill="white"/>
<path d="M175.515 213.633L173.407 209.972L169.442 212.256L171.55 215.916L170.136 216.731L164.81 207.483L166.224 206.668L168.675 210.925L172.641 208.641L170.189 204.385L171.603 203.57L176.93 212.818L175.515 213.633Z" fill="white"/>
<path d="M155.736 211.686L157.806 213.584L161.972 211.729L161.992 208.901L163.6 208.185L163.34 220.665L154.128 212.401L155.736 211.686ZM161.983 213.406L159.03 214.72L161.948 217.379L161.983 213.406Z" fill="white"/>
<path d="M144.523 225.961L143.986 224.118C145.046 224.631 146.083 224.74 147.097 224.444C148.203 224.122 148.997 223.491 149.478 222.55C149.953 221.623 150.024 220.592 149.693 219.455C149.374 218.359 148.753 217.545 147.832 217.014C146.913 216.493 145.911 216.391 144.826 216.707C143.812 217.002 143.005 217.665 142.405 218.696L141.864 216.837C142.575 216.074 143.437 215.545 144.451 215.25C145.874 214.835 147.22 214.954 148.488 215.606C149.882 216.311 150.806 217.442 151.26 218.998C151.737 220.637 151.579 222.133 150.785 223.486C150.102 224.652 148.998 225.457 147.472 225.902C146.417 226.209 145.434 226.229 144.523 225.961Z" fill="white"/>
<path d="M136.4 228.197L136.101 226.69L140.275 225.861L139.748 223.209L135.7 224.013L135.4 222.506L139.449 221.702L138.794 218.406L134.62 219.236L134.321 217.729L140.096 216.582L142.175 227.049L136.4 228.197Z" fill="white"/>
<path d="M125.986 228.933L125.764 227.026C126.724 227.709 127.728 227.99 128.777 227.868C129.922 227.735 130.81 227.246 131.442 226.399C132.064 225.564 132.307 224.559 132.171 223.383C132.039 222.249 131.563 221.343 130.743 220.665C129.925 219.998 128.954 219.73 127.831 219.86C126.782 219.982 125.876 220.5 125.112 221.416L124.889 219.493C125.718 218.86 126.656 218.482 127.705 218.36C129.178 218.189 130.485 218.532 131.626 219.387C132.883 220.315 133.605 221.584 133.792 223.195C133.989 224.89 133.582 226.338 132.573 227.54C131.705 228.575 130.482 229.184 128.903 229.368C127.812 229.495 126.839 229.35 125.986 228.933Z" fill="white"/>
<path d="M123.571 229.578L121.94 229.647L121.487 218.985L123.118 218.916L123.571 229.578Z" fill="white"/>
<path d="M116.241 225.601L114.644 225.508C114.398 226.605 113.87 227.525 113.057 228.269C111.963 229.263 110.634 229.715 109.068 229.624C107.514 229.534 106.261 228.933 105.31 227.82C104.349 226.707 103.914 225.362 104.005 223.786C104.097 222.21 104.684 220.924 105.768 219.929C106.851 218.934 108.165 218.481 109.709 218.571C111.476 218.673 112.83 219.377 113.769 220.681C114.451 221.64 114.772 222.737 114.733 223.975L116.33 224.067L116.613 219.179L118.242 219.274L117.625 229.928L115.996 229.833L116.241 225.601ZM112.255 221.363C111.596 220.566 110.719 220.136 109.622 220.072C108.525 220.009 107.603 220.335 106.856 221.05C106.11 221.765 105.703 222.709 105.635 223.88C105.567 225.052 105.862 226.036 106.521 226.832C107.18 227.629 108.058 228.059 109.155 228.123C110.252 228.186 111.174 227.861 111.92 227.145C112.667 226.43 113.074 225.487 113.142 224.315C113.21 223.144 112.914 222.16 112.255 221.363Z" fill="white"/>
<path d="M102.919 220.651L102.663 222.262L98.8705 221.659L99.127 220.047L102.919 220.651Z" fill="white"/>
<path d="M94.5404 224.935L95.3417 226.195C94.8365 226.612 94.3013 226.879 93.7359 226.996C93.1553 227.132 92.4966 227.112 91.76 226.936C90.7224 226.688 89.9839 226.222 89.5445 225.535C89.1629 224.929 89.0587 224.263 89.232 223.536C89.3508 223.038 89.5677 222.635 89.8826 222.326C90.1896 222.005 90.5727 221.778 91.0318 221.646C90.4958 221.365 90.102 220.948 89.8502 220.394C89.6039 219.864 89.5674 219.235 89.7407 218.509C89.9636 217.575 90.4956 216.885 91.3368 216.439C92.1859 216.006 93.1915 215.928 94.3535 216.205C95.3392 216.44 96.1256 216.913 96.7128 217.623C97.1691 218.193 97.4763 218.858 97.6346 219.62L96.063 220.001C95.9818 219.423 95.7604 218.926 95.3989 218.51C95.0192 218.08 94.4869 217.783 93.8021 217.62C93.1174 217.456 92.5437 217.517 92.081 217.801C91.6698 218.054 91.4023 218.44 91.2785 218.958C91.1497 219.498 91.2555 219.951 91.5958 220.317C91.9153 220.678 92.5108 220.963 93.3823 221.171L94.3161 221.394L93.9596 222.888L93.1192 222.687C92.4552 222.529 91.9237 222.55 91.5249 222.751C91.1517 222.936 90.9119 223.252 90.8055 223.698C90.694 224.165 90.7746 224.562 91.0472 224.891C91.2675 225.163 91.6422 225.362 92.1713 225.488C92.6693 225.607 93.113 225.608 93.5025 225.493C93.8791 225.385 94.225 225.199 94.5404 224.935Z" fill="white"/>
<path d="M83.1412 224.385L84.5206 220.393L80.1955 218.898L78.8161 222.891L77.2736 222.358L80.7586 212.271L82.3011 212.804L80.6971 217.447L85.0222 218.941L86.6262 214.298L88.1688 214.831L84.6838 224.918L83.1412 224.385Z" fill="white"/>
<path d="M71.6521 208.181L71.5754 210.989L75.7061 212.92L77.8553 211.082L79.4496 211.827L69.8528 219.809L70.0578 207.435L71.6521 208.181ZM74.4467 214.027L71.519 212.658L71.4222 216.604L74.4467 214.027Z" fill="white"/>
<path d="M62.8037 203.094L59.0817 209.238L69.2107 206.413L63.4329 215.952L62.037 215.107L65.7756 208.934L55.6466 211.759L61.4078 202.248L62.8037 203.094ZM60.5461 217.29L59.1529 217.119C59.2031 216.913 59.2094 216.717 59.1718 216.532C59.1195 216.351 59.0388 216.196 58.9295 216.068C58.8057 215.943 58.7128 215.849 58.6508 215.787C58.5834 215.733 58.5177 215.687 58.4538 215.648C58.39 215.61 58.3188 215.573 58.2403 215.538C58.1562 215.512 58.0347 215.476 57.8758 215.429C57.7022 215.386 57.5275 215.387 57.3517 215.43C57.1612 215.477 56.9861 215.57 56.8264 215.71L56.03 214.554C56.5493 214.171 57.0869 214.004 57.6428 214.054C58.1896 214.098 58.6865 214.256 59.1336 214.526C59.5806 214.797 59.955 215.167 60.2567 215.637C60.5493 216.101 60.6457 216.652 60.5461 217.29Z" fill="white"/>
<path d="M52.7404 207.516C51.2584 207.7 49.8905 207.304 48.6366 206.328C47.3828 205.351 46.6637 204.122 46.4795 202.64C46.2953 201.158 46.6882 199.794 47.6583 198.548C48.6283 197.303 49.8544 196.588 51.3364 196.404C52.8184 196.22 54.1863 196.616 55.4402 197.593C56.6941 198.569 57.4131 199.798 57.5973 201.28C57.7815 202.762 57.3886 204.126 56.4185 205.372C55.4485 206.617 54.2224 207.332 52.7404 207.516ZM56.0494 201.393C55.9276 200.352 55.4164 199.48 54.516 198.779C53.6156 198.078 52.6456 197.796 51.6062 197.932C50.5601 198.078 49.6733 198.617 48.9458 199.551C48.2183 200.485 47.9154 201.473 48.0372 202.514C48.1525 203.564 48.6604 204.44 49.5608 205.141C50.4612 205.842 51.4345 206.12 52.4805 205.975C53.52 205.838 54.4035 205.303 55.131 204.369C55.8586 203.435 56.1647 202.443 56.0494 201.393Z" fill="white"/>
<path d="M48.7213 192.288L49.8979 193.464L40.2021 199.992L43.4378 191.507L34.9299 194.72L41.6163 185.183L42.7929 186.359L39.0142 191.677L46.1079 188.973L43.3699 196.055L48.7213 192.288Z" fill="white"/>
<path d="M27.5404 183.698L29.0421 182.502C28.9697 183.678 29.2625 184.679 29.9205 185.505C30.6383 186.406 31.5235 186.901 32.5761 186.99C33.6137 187.077 34.5956 186.751 35.5217 186.014C36.4144 185.303 36.9318 184.42 37.0739 183.366C37.2077 182.318 36.9224 181.352 36.2179 180.468C35.5599 179.642 34.6406 179.147 33.4598 178.983L34.9741 177.777C35.9495 178.145 36.7662 178.742 37.4242 179.568C38.348 180.728 38.7484 182.018 38.6255 183.439C38.5024 184.996 37.8067 186.28 36.5385 187.29C35.2037 188.354 33.7593 188.775 32.2055 188.553C30.8682 188.364 29.7045 187.648 28.7142 186.404C28.0296 185.545 27.6384 184.643 27.5404 183.698Z" fill="white"/>
<path d="M23.8977 176.599L25.2644 178.63L32.8441 173.529L33.7552 174.883L26.1756 179.984L27.5423 182.015L26.2679 182.872L22.6234 177.456L23.8977 176.599Z" fill="white"/>
<path d="M21.6203 175.837L20.819 174.434C20.4593 173.804 20.2193 173.265 20.0991 172.818C19.9788 172.371 19.973 171.92 20.0816 171.465C20.2644 170.709 20.7356 170.115 21.4952 169.681C21.9305 169.432 22.3493 169.316 22.7515 169.332C23.1338 169.335 23.4791 169.445 23.7873 169.662C23.6327 169.111 23.6276 168.586 23.7719 168.086C23.9653 167.435 24.4278 166.901 25.1596 166.483C25.8358 166.097 26.5079 165.983 27.176 166.142C28.106 166.373 28.9016 167.067 29.5628 168.225L30.8878 170.545L21.6203 175.837ZM22.1449 173.658L24.7987 172.143L24.5528 171.712C24.2565 171.193 23.9166 170.878 23.533 170.765C23.1639 170.656 22.7431 170.737 22.2707 171.007C21.8909 171.224 21.658 171.504 21.5719 171.848C21.4779 172.221 21.5763 172.662 21.8672 173.172L22.1449 173.658ZM25.9658 171.476L28.7447 169.889L28.2528 169.028C27.8878 168.389 27.5003 167.99 27.0902 167.831C26.6748 167.663 26.2448 167.706 25.8002 167.96C25.4019 168.187 25.1491 168.497 25.0418 168.89C24.9279 169.336 25.0666 169.902 25.458 170.587L25.9658 171.476Z" fill="white"/>
<path d="M17.7725 165.954C16.3803 165.413 15.3638 164.416 14.7229 162.962C14.082 161.507 14.0317 160.084 14.5722 158.692C15.1127 157.3 16.1053 156.285 17.5499 155.649C18.9945 155.012 20.4129 154.964 21.8051 155.504C23.1973 156.045 24.2138 157.042 24.8547 158.497C25.4956 159.951 25.5458 161.374 25.0053 162.767C24.4648 164.159 23.4723 165.173 22.0277 165.81C20.583 166.446 19.1646 166.494 17.7725 165.954ZM23.5891 162.132C23.9756 161.157 23.9387 160.148 23.4784 159.103C23.0182 158.059 22.298 157.35 21.318 156.978C20.3281 156.61 19.2915 156.665 18.208 157.142C17.1246 157.619 16.3896 158.345 16.0031 159.32C15.6069 160.299 15.6389 161.311 16.0992 162.355C16.5594 163.399 17.2844 164.106 18.2743 164.474C19.2543 164.846 20.2861 164.794 21.3695 164.316C22.453 163.839 23.1929 163.111 23.5891 162.132Z" fill="white"/>
<path d="M7.80406 121.231L6.77236 122.311C6.24666 121.921 5.85913 121.465 5.60977 120.944C5.339 120.413 5.20069 119.769 5.19484 119.012C5.1866 117.945 5.46288 117.116 6.02367 116.525C6.52103 116.009 7.14304 115.748 7.88968 115.743C8.40167 115.739 8.84523 115.853 9.22036 116.084C9.60608 116.305 9.91787 116.623 10.1557 117.037C10.3005 116.449 10.6115 115.967 11.0886 115.59C11.5445 115.224 12.1457 115.038 12.8923 115.032C13.8523 115.025 14.6497 115.376 15.2846 116.086C15.9088 116.806 16.2255 117.764 16.2348 118.958C16.2426 119.972 15.972 120.848 15.423 121.589C14.9795 122.168 14.407 122.626 13.7056 122.962L12.9585 121.528C13.5008 121.31 13.9303 120.976 14.2468 120.526C14.5738 120.054 14.7346 119.466 14.7292 118.762C14.7238 118.058 14.5276 117.515 14.1406 117.134C13.7967 116.796 13.358 116.628 12.8247 116.633C12.2701 116.637 11.8557 116.848 11.5816 117.266C11.3073 117.663 11.1736 118.309 11.1805 119.205L11.1879 120.165L9.65197 120.177L9.6453 119.313C9.64003 118.631 9.49208 118.12 9.20146 117.781C8.93233 117.463 8.56843 117.305 8.10978 117.309C7.6298 117.313 7.26312 117.486 7.00977 117.829C6.79858 118.108 6.69509 118.52 6.69929 119.064C6.70324 119.576 6.80791 120.007 7.01329 120.358C7.20791 120.697 7.4715 120.989 7.80406 121.231Z" fill="white"/>
<path d="M16.7661 104.906L14.0976 105.783L13.6761 110.324L16.1332 111.725L15.9705 113.477L5.21379 107.144L16.9287 103.154L16.7661 104.906ZM12.2088 109.513L12.5075 106.294L8.7606 107.537L12.2088 109.513Z" fill="white"/>
<path d="M6.69147 99.7328L8.21918 92.0431L18.6866 94.1226L18.3686 95.7233L9.40772 93.9431L8.51604 98.4314L17.4769 100.212L17.1589 101.812L6.69147 99.7328Z" fill="white"/>
<path d="M21.3427 84.9854L14.4849 82.8453L19.656 92.0015L9.01037 88.6793L9.49655 87.1214L16.3849 89.2711L11.2138 80.1149L21.8289 83.4275L21.3427 84.9854Z" fill="white"/>
<path d="M16.6826 69.5449L18.4453 70.306C17.3739 70.7961 16.6289 71.5259 16.2103 72.4954C15.7536 73.553 15.7341 74.567 16.1516 75.5373C16.5636 76.4937 17.3131 77.2065 18.4001 77.6759C19.4479 78.1283 20.4702 78.1689 21.4671 77.7977C22.4541 77.4222 23.1718 76.7154 23.62 75.6774C24.0386 74.7079 24.0421 73.6638 23.6306 72.545L25.408 73.3124C25.5424 74.3464 25.4003 75.3482 24.9817 76.3177C24.394 77.6789 23.4445 78.6399 22.1334 79.2008C20.7017 79.8258 19.2416 79.8169 17.7531 79.1742C16.1863 78.4976 15.1345 77.4219 14.5979 75.947C14.135 74.6782 14.2185 73.3142 14.8486 71.8551C15.2841 70.8464 15.8954 70.0764 16.6826 69.5449Z" fill="white"/>
<path d="M30.0596 65.9553L27.2631 65.6917L25.0605 69.6845L26.752 71.9515L25.9018 73.4926L18.5767 63.3852L30.9098 64.4142L30.0596 65.9553ZM24.0402 68.3542L25.6013 65.5242L21.67 65.1646L24.0402 68.3542Z" fill="white"/>
<path d="M27.1503 53.6673L25.7911 55.7033L33.3894 60.776L32.4832 62.1333L24.8849 57.0606L23.5257 59.0965L22.2482 58.2437L25.8729 52.8144L27.1503 53.6673Z" fill="white"/>
<path d="M39.751 52.3092L34.1482 47.8126L35.6187 58.2248L26.9214 51.2446L27.9429 49.9718L33.5706 54.4884L32.1001 44.0762L40.7725 51.0364L39.751 52.3092Z" fill="white"/>
<path d="M40.7996 36.4375L42.1671 37.7852C40.991 37.8541 40.0323 38.2646 39.291 39.0167C38.4823 39.8372 38.0969 40.7753 38.1348 41.831C38.1725 42.8716 38.613 43.8074 39.4563 44.6386C40.2692 45.4397 41.2074 45.8477 42.2711 45.8626C43.3271 45.8701 44.2519 45.4711 45.0456 44.6658C45.7869 43.9137 46.1683 42.9417 46.1898 41.7498L47.5686 43.1088C47.3195 44.1213 46.8244 45.0036 46.0831 45.7557C45.0424 46.8117 43.8094 47.3638 42.3842 47.4118C40.8233 47.476 39.4655 46.939 38.3107 45.8009C37.0952 44.6029 36.5043 43.2194 36.5382 41.6502C36.5661 40.2999 37.1379 39.0587 38.2535 37.9268C39.0247 37.1443 39.8734 36.6478 40.7996 36.4375Z" fill="white"/>
<path d="M49.5312 42.1357L42.6415 33.9857L43.8878 32.9321L46.6665 36.219L47.5951 35.434C48.4667 34.6971 49.3294 34.338 50.1831 34.3566C51.0751 34.3707 51.8378 34.7526 52.4713 35.502C52.8019 35.893 53.029 36.3435 53.1528 36.8534C53.2779 37.3483 53.2704 37.8434 53.1305 38.3388C52.9385 39.0039 52.4678 39.6532 51.7184 40.2868L49.5312 42.1357ZM47.6581 37.392L49.7859 39.9091L50.6657 39.1654C51.7573 38.2426 51.9553 37.3699 51.2598 36.5471C50.9568 36.1887 50.5798 35.9906 50.1288 35.9528C49.6791 35.9 49.1569 36.1249 48.5623 36.6276L47.6581 37.392Z" fill="white"/>
<path d="M54.2651 24.8753L56.5587 28.4224L60.4014 25.9376L58.1078 22.3906L59.4782 21.5044L65.2731 30.4661L63.9026 31.3523L61.2354 27.2275L57.3928 29.7122L60.06 33.837L58.6895 34.7232L52.8947 25.7615L54.2651 24.8753Z" fill="white"/>
<path d="M74.1103 25.7444L71.9437 23.9567L67.8798 26.0252L68.0074 28.8508L66.4389 29.6491L66.049 17.1725L75.6789 24.9461L74.1103 25.7444ZM67.782 24.3515L70.6623 22.8854L67.6104 20.3814L67.782 24.3515Z" fill="white"/>
<path d="M84.8957 10.7362L85.5227 12.5509C84.4382 12.0905 83.3969 12.0327 82.3988 12.3776C81.3099 12.7538 80.5481 13.4232 80.1134 14.386C79.6852 15.3352 79.6644 16.3693 80.0511 17.4884C80.4238 18.5672 81.0833 19.3493 82.0298 19.8349C82.9728 20.3104 83.9786 20.3635 85.0473 19.9943C86.0454 19.6494 86.8186 18.9478 87.367 17.8893L87.9993 19.7192C87.3265 20.5159 86.4911 21.0866 85.493 21.4315C84.0916 21.9156 82.7417 21.8629 81.4433 21.2732C80.0163 20.6378 79.038 19.5538 78.5085 18.0214C77.9512 16.4083 78.036 14.9062 78.763 13.5152C79.3875 12.3176 80.4508 11.4593 81.953 10.9403C82.9914 10.5816 83.9723 10.5135 84.8957 10.7362Z" fill="white"/>
<path d="M92.5315 8.14722L92.9107 9.63568L88.7864 10.6864L89.454 13.3067L93.4542 12.2876L93.8334 13.776L89.8332 14.7951L90.6627 18.0511L94.7869 17.0004L95.1661 18.4889L89.4604 19.9425L86.8257 9.60081L92.5315 8.14722Z" fill="white"/>
<path d="M102.768 6.86612L103.084 8.75988C102.092 8.12544 101.074 7.89522 100.033 8.06921C98.8966 8.25901 98.0341 8.79242 97.4452 9.66943C96.8651 10.5342 96.6725 11.5504 96.8676 12.7183C97.0557 13.844 97.5759 14.725 98.4284 15.3612C99.2791 15.9869 100.262 16.2067 101.377 16.0204C102.419 15.8464 103.298 15.2832 104.015 14.3307L104.334 16.2402C103.538 16.9139 102.619 17.3377 101.578 17.5117C100.115 17.756 98.7931 17.4794 97.6108 16.682C96.3094 15.8179 95.5251 14.5863 95.2579 12.9871C94.9767 11.3038 95.3103 9.8368 96.2585 8.58615C97.0735 7.50914 98.2648 6.83971 99.8324 6.57785C100.916 6.39684 101.895 6.49292 102.768 6.86612Z" fill="white"/>
<path d="M105.753 5.99153L107.378 5.8407L108.364 16.467L106.739 16.6179L105.753 5.99153Z" fill="white"/>
<path d="M113.172 9.5902L114.772 9.60255C114.961 8.49465 115.443 7.54901 116.218 6.76563C117.26 5.71765 118.566 5.19971 120.134 5.21181C121.691 5.22384 122.972 5.76174 123.977 6.82554C124.993 7.88941 125.495 9.21066 125.483 10.7893C125.471 12.3679 124.948 13.6812 123.916 14.7293C122.884 15.7774 121.595 16.2954 120.048 16.2835C118.278 16.2698 116.89 15.6351 115.887 14.3793C115.158 13.4563 114.782 12.376 114.76 11.1385L113.16 11.1262L113.122 16.022L111.49 16.0094L111.572 5.33772L113.204 5.35032L113.172 9.5902ZM117.365 13.6227C118.063 14.3854 118.961 14.771 120.06 14.7795C121.158 14.788 122.063 14.4163 122.772 13.6644C123.482 12.9126 123.842 11.95 123.851 10.7767C123.86 9.60338 123.515 8.63536 122.817 7.87261C122.119 7.10987 121.221 6.72425 120.122 6.71577C119.023 6.70729 118.119 7.07898 117.409 7.83086C116.699 8.58274 116.34 9.54532 116.331 10.7186C116.322 11.8919 116.666 12.8599 117.365 13.6227Z" fill="white"/>
<path d="M126.409 13.8099L126.584 12.1874L130.402 12.6011L130.226 14.2236L126.409 13.8099Z" fill="white"/>
<path d="M134.962 9.14061L134.099 7.92146C134.583 7.48014 135.104 7.18688 135.663 7.04168C136.236 6.87747 136.895 6.86489 137.639 7.00394C138.688 7.19978 139.449 7.62942 139.922 8.29286C140.333 8.87967 140.47 9.54007 140.333 10.274C140.239 10.7773 140.042 11.1909 139.743 11.5148C139.452 11.8512 139.081 12.0965 138.629 12.2508C139.178 12.5053 139.592 12.9028 139.871 13.4431C140.143 13.9606 140.211 14.5863 140.074 15.3203C139.898 16.264 139.401 16.9795 138.582 17.4669C137.756 17.9419 136.755 18.0697 135.581 17.8504C134.585 17.6643 133.776 17.2311 133.154 16.5508C132.67 16.0046 132.331 15.3552 132.135 14.6024L133.685 14.1433C133.795 14.7173 134.041 15.2026 134.423 15.5994C134.823 16.0107 135.37 16.2809 136.062 16.4101C136.754 16.5394 137.324 16.4505 137.772 16.1436C138.17 15.8707 138.418 15.4722 138.516 14.9479C138.618 14.4026 138.49 13.9555 138.132 13.6065C137.795 13.2615 137.186 13.0067 136.305 12.8421L135.361 12.6659L135.643 11.156L136.493 11.3146C137.164 11.44 137.693 11.3924 138.082 11.172C138.445 10.9686 138.669 10.6415 138.753 10.1906C138.841 9.71878 138.741 9.3257 138.453 9.01138C138.219 8.75075 137.835 8.5705 137.3 8.47062C136.797 8.37662 136.354 8.39691 135.971 8.5315C135.6 8.65757 135.264 8.8606 134.962 9.14061Z" fill="white"/>
<path d="M146.422 9.11045L145.24 13.1657L149.634 14.4461L150.816 10.3908L152.382 10.8474L149.396 21.0932L147.83 20.6366L149.204 15.9207L144.811 14.6404L143.436 19.3562L141.87 18.8996L144.856 8.65382L146.422 9.11045Z" fill="white"/>
<path d="M158.345 24.5493L158.275 21.7412L154.049 20.0278L151.999 21.9762L150.368 21.3149L159.535 12.8425L159.976 25.2106L158.345 24.5493ZM155.249 18.8569L158.244 20.0713L158.135 16.1251L155.249 18.8569Z" fill="white"/>
<path d="M167.452 29.1321L170.852 22.8036L160.882 26.1473L166.16 16.3233L167.598 17.0957L164.183 23.4524L174.152 20.1087L168.889 29.9045L167.452 29.1321ZM168.974 14.8383L170.374 14.9367C170.335 15.1455 170.339 15.3413 170.386 15.524C170.447 15.7024 170.536 15.8529 170.652 15.9757C170.782 16.094 170.879 16.1828 170.944 16.242C171.015 16.2917 171.083 16.3343 171.148 16.3696C171.214 16.405 171.287 16.4381 171.367 16.4691C171.453 16.4907 171.576 16.5206 171.737 16.5587C171.912 16.5925 172.087 16.5833 172.26 16.5312C172.448 16.4746 172.618 16.3723 172.77 16.224L173.625 17.3372C173.127 17.7473 172.598 17.9418 172.04 17.9206C171.492 17.9045 170.988 17.7728 170.527 17.5254C170.067 17.278 169.674 16.9277 169.348 16.4743C169.032 16.0259 168.908 15.4806 168.974 14.8383Z" fill="white"/>
<path d="M177.439 24.2571C178.91 23.9974 180.296 24.3232 181.598 25.2345C182.901 26.1457 183.681 27.3367 183.941 28.8074C184.201 30.278 183.878 31.66 182.973 32.9534C182.068 34.2468 180.88 35.0234 179.409 35.2831C177.939 35.5427 176.552 35.2169 175.25 34.3057C173.948 33.3944 173.167 32.2034 172.907 30.7328C172.648 29.2621 172.97 27.8801 173.876 26.5867C174.781 25.2933 175.969 24.5167 177.439 24.2571ZM174.447 30.5412C174.622 31.575 175.177 32.419 176.112 33.0734C177.047 33.7279 178.031 33.9602 179.062 33.7705C180.099 33.572 180.957 32.9877 181.636 32.0177C182.315 31.0476 182.567 30.0458 182.392 29.012C182.223 27.9695 181.671 27.1211 180.736 26.4667C179.801 25.8123 178.815 25.5843 177.778 25.7828C176.746 25.9725 175.891 26.5524 175.213 27.5224C174.534 28.4925 174.279 29.4987 174.447 30.5412Z" fill="white"/>
<path d="M182.574 39.5096L181.343 38.3898L190.72 31.4112L187.889 40.0398L196.235 36.4286L190.007 46.2711L188.776 45.1514L192.299 39.6614L185.341 42.6974L187.742 35.4936L182.574 39.5096Z" fill="white"/>
<path d="M203.847 46.703L202.408 47.9742C202.421 46.7961 202.077 45.8114 201.378 45.02C200.615 44.1567 199.706 43.7074 198.65 43.6724C197.61 43.6382 196.645 44.0131 195.758 44.797C194.903 45.5527 194.431 46.4606 194.343 47.5206C194.263 48.5736 194.597 49.5238 195.345 50.3711C196.045 51.1625 196.988 51.6101 198.175 51.7138L196.725 52.9956C195.732 52.6772 194.886 52.1224 194.186 51.331C193.205 50.2198 192.739 48.9517 192.789 47.5266C192.833 45.965 193.463 44.6475 194.678 43.574C195.957 42.444 197.378 41.95 198.941 42.0921C200.286 42.2131 201.485 42.8691 202.537 44.0602C203.264 44.8835 203.701 45.7645 203.847 46.703Z" fill="white"/>
<path d="M207.956 53.7167L206.487 51.7582L199.178 57.2398L198.199 55.9342L205.508 50.4526L204.039 48.4942L205.268 47.5726L209.185 52.7951L207.956 53.7167Z" fill="white"/>
<path d="M210.191 54.2247L211.063 55.585C211.455 56.1955 211.722 56.721 211.865 57.1614C212.008 57.6019 212.037 58.0521 211.952 58.5122C211.809 59.276 211.369 59.894 210.633 60.3663C210.211 60.6369 209.798 60.7746 209.396 60.7794C209.014 60.7963 208.663 60.7043 208.344 60.5034C208.527 61.0451 208.559 61.5694 208.441 62.0762C208.281 62.7362 207.847 63.2936 207.138 63.7486C206.482 64.169 205.817 64.317 205.141 64.1927C204.201 64.0103 203.37 63.358 202.651 62.2357L201.208 59.9867L210.191 54.2247ZM209.779 56.4277L207.207 58.0777L207.474 58.4952C207.797 58.998 208.153 59.2957 208.542 59.3884C208.916 59.4779 209.332 59.3757 209.79 59.082C210.158 58.8459 210.376 58.5539 210.444 58.2059C210.519 57.8285 210.398 57.3929 210.081 56.8991L209.779 56.4277ZM206.075 58.8033L203.382 60.531L203.917 61.366C204.315 61.9855 204.722 62.3641 205.14 62.5017C205.564 62.6482 205.991 62.5833 206.422 62.3068C206.808 62.0592 207.044 61.7364 207.131 61.3385C207.222 60.8874 207.054 60.3297 206.628 59.6653L206.075 58.8033Z" fill="white"/>
<path d="M214.583 63.925C216.001 64.3923 217.068 65.3355 217.784 66.7546C218.5 68.1737 218.624 69.5924 218.156 71.0108C217.689 72.4292 216.751 73.4939 215.341 74.2048C213.932 74.9156 212.518 75.0374 211.099 74.57C209.681 74.1027 208.614 73.1595 207.898 71.7404C207.182 70.3213 207.058 68.9026 207.526 67.4842C207.993 66.0658 208.931 65.0012 210.341 64.2903C211.75 63.5794 213.164 63.4576 214.583 63.925ZM208.973 68.0445C208.638 69.0379 208.727 70.0441 209.241 71.0631C209.755 72.0822 210.511 72.7522 211.509 73.0731C212.517 73.3893 213.549 73.2807 214.606 72.7476C215.663 72.2144 216.36 71.4512 216.695 70.4578C217.04 69.4596 216.955 68.451 216.441 67.4319C215.927 66.4128 215.166 65.7452 214.159 65.4291C213.161 65.1082 212.133 65.2143 211.076 65.7474C210.019 66.2806 209.318 67.0463 208.973 68.0445Z" fill="white"/>
</svg>
