<svg width="69" height="37" viewBox="0 0 69 37" fill="none" xmlns="http://www.w3.org/2000/svg">
<path d="M0.71 0.771067V-0.228933H-0.29V0.771067H0.71ZM9.879 0.771067H10.879V-0.228933H9.879V0.771067ZM9.879 36.1221V37.1221H10.879V36.1221H9.879ZM0.71 36.1221H-0.29V37.1221H0.71V36.1221ZM0.71 1.77107H9.879V-0.228933H0.71V1.77107ZM8.879 0.771067V36.1221H10.879V0.771067H8.879ZM9.879 35.1221H0.71V37.1221H9.879V35.1221ZM1.71 36.1221V0.771067H-0.29V36.1221H1.71ZM42.7113 24.3031H43.7113V21.7273L41.9732 23.6283L42.7113 24.3031ZM42.7113 35.1681L43.0522 36.1082L43.7113 35.8692V35.1681H42.7113ZM21.0873 31.6171L20.3801 32.3242L20.3872 32.3311L21.0873 31.6171ZM17.1123 25.6811L16.1838 26.0525L16.1873 26.0611L16.1909 26.0698L17.1123 25.6811ZM17.1653 11.6361L16.2468 11.2404L16.2418 11.2525L17.1653 11.6361ZM21.0873 5.70007L20.3733 4.99986L20.3726 5.00061L21.0873 5.70007ZM42.7113 1.99007H43.7113V1.31602L43.0865 1.06312L42.7113 1.99007ZM42.7113 12.9611L41.9335 13.5897L43.7113 15.7892V12.9611H42.7113ZM28.3483 11.4241L27.6801 10.68L27.6734 10.686L27.6668 10.6922L28.3483 11.4241ZM28.1363 25.5751L27.4496 26.3021L27.4518 26.3041L28.1363 25.5751ZM41.7113 24.3031V35.1681H43.7113V24.3031H41.7113ZM42.3703 34.228C39.2035 35.3764 36.679 35.9171 34.7613 35.9171V37.9171C37.0129 37.9171 39.7883 37.2918 43.0522 36.1082L42.3703 34.228ZM34.7613 35.9171C29.4846 35.9171 25.1863 34.2353 21.7873 30.903L20.3872 32.3311C24.1962 36.0655 29.0139 37.9171 34.7613 37.9171V35.9171ZM21.7944 30.91C20.1918 29.3074 18.9386 27.4376 18.0336 25.2924L16.1909 26.0698C17.1939 28.4472 18.5907 30.5347 20.3802 32.3242L21.7944 30.91ZM18.0407 25.3097C17.1664 23.1239 16.7343 20.9353 16.7343 18.7381H14.7343C14.7343 21.2049 15.2208 23.6449 16.1838 26.0525L18.0407 25.3097ZM16.7343 18.7381C16.7343 16.4344 17.1842 14.1973 18.0888 12.0197L16.2418 11.2525C15.2383 13.6682 14.7343 16.1657 14.7343 18.7381H16.7343ZM18.0837 12.0317C19.0281 9.83932 20.269 7.96581 21.8019 6.39953L20.3726 5.00061C18.6549 6.75566 17.2811 8.83949 16.2468 11.2404L18.0837 12.0317ZM21.8012 6.40028C25.211 2.92366 29.4029 1.18807 34.4433 1.18807V-0.811932C28.8836 -0.811932 24.1716 1.12714 20.3733 4.99986L21.8012 6.40028ZM34.4433 1.18807C36.8301 1.18807 39.4576 1.75192 42.3361 2.91702L43.0865 1.06312C40.0289 -0.174452 37.1444 -0.811932 34.4433 -0.811932V1.18807ZM41.7113 1.99007V12.9611H43.7113V1.99007H41.7113ZM43.489 12.3325C41.2189 9.52377 38.268 8.09207 34.7083 8.09207V10.0921C37.6499 10.0921 40.0342 11.2397 41.9335 13.5897L43.489 12.3325ZM34.7083 8.09207C31.9739 8.09207 29.61 8.94708 27.6801 10.68L29.0164 12.1681C30.5492 10.7917 32.4253 10.0921 34.7083 10.0921V8.09207ZM27.6668 10.6922C25.4037 12.7992 24.2743 15.4896 24.2743 18.6851H26.2743C26.2743 16.0152 27.1941 13.8649 29.0297 12.156L27.6668 10.6922ZM24.2743 18.6851C24.2743 21.7319 25.3278 24.2981 27.4496 26.3021L28.8229 24.8481C27.1287 23.248 26.2743 21.2209 26.2743 18.6851H24.2743ZM27.4518 26.3041C29.3906 28.1242 31.8359 29.0131 34.7083 29.0131V27.0131C32.2806 27.0131 30.3446 26.2766 28.8207 24.846L27.4518 26.3041ZM34.7083 29.0131C38.0901 29.0131 41.0176 27.6375 43.4493 24.9778L41.9732 23.6283C39.8822 25.9153 37.4744 27.0131 34.7083 27.0131V29.0131ZM68.7802 0.771067H69.7802V-0.228933H68.7802V0.771067ZM68.7802 8.56207V9.56207H69.7802V8.56207H68.7802ZM57.7032 8.56207V7.56207H56.7032V8.56207H57.7032ZM57.7032 14.4451H56.7032V15.4451H57.7032V14.4451ZM67.7732 14.4451H68.7732V13.4451H67.7732V14.4451ZM67.7732 22.2361V23.2361H68.7732V22.2361H67.7732ZM57.7032 22.2361V21.2361H56.7032V22.2361H57.7032ZM57.7032 36.1221V37.1221H58.7032V36.1221H57.7032ZM48.5342 36.1221H47.5342V37.1221H48.5342V36.1221ZM48.5342 0.771067V-0.228933H47.5342V0.771067H48.5342ZM67.7802 0.771067V8.56207H69.7802V0.771067H67.7802ZM68.7802 7.56207H57.7032V9.56207H68.7802V7.56207ZM56.7032 8.56207V14.4451H58.7032V8.56207H56.7032ZM57.7032 15.4451H67.7732V13.4451H57.7032V15.4451ZM66.7732 14.4451V22.2361H68.7732V14.4451H66.7732ZM67.7732 21.2361H57.7032V23.2361H67.7732V21.2361ZM56.7032 22.2361V36.1221H58.7032V22.2361H56.7032ZM57.7032 35.1221H48.5342V37.1221H57.7032V35.1221ZM49.5342 36.1221V0.771067H47.5342V36.1221H49.5342ZM48.5342 1.77107H68.7802V-0.228933H48.5342V1.77107Z" fill="url(#paint0_linear_59_212)"/>
<defs>
<linearGradient id="paint0_linear_59_212" x1="-2.99995" y1="18.5002" x2="74.0002" y2="18.5002" gradientUnits="userSpaceOnUse">
<stop stop-color="#2E3192"/>
<stop offset="1" stop-color="#2484C6"/>
</linearGradient>
</defs>
</svg>
