<svg width="22" height="22" viewBox="0 0 22 22" fill="none" xmlns="http://www.w3.org/2000/svg">
<path fill-rule="evenodd" clip-rule="evenodd" d="M11 0C4.929 0 0 4.929 0 11C0 17.071 4.929 22 11 22C17.071 22 22 17.071 22 11C22 4.929 17.071 0 11 0ZM8.11501 17.828C8.31401 18.343 8.53499 18.81 8.77499 19.221C9.40999 20.307 10.153 21 11 21C11.847 21 12.59 20.307 13.225 19.221C13.461 18.818 13.678 18.361 13.873 17.858C11.973 18.037 10.054 18.027 8.11501 17.828ZM2.88901 16.847C4.25601 18.74 6.27 20.136 8.606 20.711C8.361 20.426 8.128 20.097 7.911 19.725C7.573 19.146 7.268 18.462 7.006 17.694C5.643 17.504 4.27101 17.222 2.88901 16.847ZM19.09 16.876C17.731 17.262 16.361 17.547 14.981 17.731C14.722 18.484 14.422 19.155 14.089 19.725C13.872 20.097 13.639 20.426 13.394 20.711C15.718 20.139 17.723 18.754 19.09 16.876ZM14.995 11.5H7.005C7.045 13.455 7.318 15.267 7.763 16.782C9.943 17.039 12.098 17.051 14.228 16.815C14.678 15.294 14.955 13.469 14.995 11.5ZM20.988 11.5H15.995C15.957 13.393 15.708 15.159 15.302 16.675C16.844 16.443 18.372 16.081 19.886 15.588C20.526 14.353 20.915 12.968 20.988 11.5ZM6.005 11.5H1.01199C1.08499 12.966 1.47299 14.349 2.11099 15.583C3.64899 16.051 5.174 16.402 6.687 16.636C6.288 15.128 6.04201 13.376 6.005 11.5ZM6.69 5.353C5.184 5.589 3.65799 5.942 2.11099 6.417C1.47299 7.651 1.08499 9.034 1.01199 10.5H6.005C6.04201 8.619 6.289 6.864 6.69 5.353ZM14.222 5.167C12.113 4.932 9.96101 4.942 7.76601 5.205C7.31901 6.722 7.045 8.539 7.005 10.5H14.995C14.955 8.523 14.676 6.692 14.222 5.167ZM15.298 5.308C15.706 6.829 15.957 8.601 15.995 10.5H20.988C20.915 9.032 20.525 7.646 19.886 6.411C18.38 5.912 16.85 5.543 15.298 5.308ZM8.606 1.289C6.272 1.863 4.259 3.258 2.892 5.149C4.28 4.77 5.65299 4.485 7.00999 4.294C7.27099 3.531 7.574 2.851 7.911 2.275C8.128 1.903 8.361 1.574 8.606 1.289ZM13.394 1.289C13.639 1.574 13.872 1.903 14.089 2.275C14.419 2.84 14.717 3.505 14.975 4.251C16.362 4.437 17.732 4.727 19.084 5.116C17.717 3.242 15.714 1.86 13.394 1.289ZM13.866 4.124C13.672 3.628 13.458 3.177 13.225 2.779C12.59 1.693 11.847 1 11 1C10.153 1 9.40999 1.693 8.77499 2.779C8.53699 3.187 8.318 3.649 8.121 4.158C10.069 3.955 11.984 3.946 13.866 4.124Z" fill="#2A52A7"/>
</svg>
