<svg width="133" height="98" viewBox="0 0 133 98" fill="none" xmlns="http://www.w3.org/2000/svg">
<g clip-path="url(#clip0_2_68)">
<path d="M66.5466 2C52.0399 2 40.28 13.8377 40.28 28.4406C40.28 43.0434 52.0399 54.8811 66.5466 54.8811C81.0534 54.8811 92.8133 43.0434 92.8133 28.4406C92.8133 13.8377 81.0534 2 66.5466 2Z" fill="white"/>
<path d="M62.9113 23.3036V18.4258H67.759V15.9869H60.4885V23.3036H62.9113Z" fill="black"/>
<path d="M58.0656 13.5479H70.1819V28.1815H72.6048V13.5479H77.4506V11.109H55.6427V15.9869H48.3741V18.4258H58.0656V13.5479Z" fill="black"/>
<path d="M48.3741 35.5002V37.9391H58.0656V30.6223H48.3741V23.3037H58.0656V20.8647H45.9493V33.0613H55.6427V35.5002H48.3741Z" fill="black"/>
<path d="M84.7192 18.4258V30.6223H82.2963V15.9869H75.0276V18.4258H79.8734V33.0517V33.0613H87.144V18.4258H84.7192Z" fill="black"/>
<path d="M75.0277 30.6224H65.3343V33.0613H77.4506V20.8647H75.0277V30.6224Z" fill="black"/>
<path d="M65.3343 42.817H67.7591V37.9391H77.4506V35.5002H65.3343V42.817Z" fill="black"/>
<path d="M67.759 28.1815V20.8647H65.3342V25.7426H50.7969V28.1815H60.4885V40.378H50.7969V42.817H55.6427V47.6948H58.0656V42.817H62.9113H62.919L62.9113 28.1815H67.759Z" fill="black"/>
<path d="M38.4066 92.39C38.4066 89.0562 40.8101 86.7781 43.8254 86.7781C45.5677 86.7781 46.8559 87.5426 47.7755 88.6979L47.0003 89.2018C46.3239 88.2592 45.1459 87.625 43.8235 87.625C41.3231 87.625 39.3718 89.5601 39.3718 92.39C39.3718 95.1873 41.3231 97.1551 43.8235 97.1551C45.1459 97.1551 46.3239 96.5209 47.0003 95.5782L47.7755 96.0668C46.8236 97.2547 45.5658 98.0019 43.8254 98.0019C40.8101 98 38.4066 95.7238 38.4066 92.39Z" fill="white"/>
<path d="M54.3286 86.7781C57.4731 86.7781 59.5555 89.2171 59.5555 92.39C59.5555 95.561 57.475 98.0019 54.3286 98.0019C51.167 98.0019 49.1036 95.5629 49.1036 92.39C49.1036 89.2171 51.167 86.7781 54.3286 86.7781ZM54.3286 87.623C51.7161 87.623 50.0707 89.6233 50.0707 92.3881C50.0707 95.1203 51.7161 97.1531 54.3286 97.1531C56.9088 97.1531 58.5865 95.1203 58.5865 92.3881C58.5865 89.6252 56.9088 87.623 54.3286 87.623Z" fill="white"/>
<path d="M69.4241 97.8046L68.3449 95.1375H62.6183L61.5391 97.8046H60.5055L64.9097 86.9563H66.0554L70.4596 97.8046H69.4241ZM65.474 87.8683L62.909 94.2926H68.0542L65.474 87.8683Z" fill="white"/>
<path d="M71.4096 92.39C71.4096 89.0562 73.8131 86.7781 76.8284 86.7781C78.5707 86.7781 79.8608 87.5426 80.7804 88.6979L80.0052 89.2018C79.3269 88.2592 78.1508 87.625 76.8284 87.625C74.328 87.625 72.3767 89.5601 72.3767 92.39C72.3767 95.1873 74.328 97.1551 76.8284 97.1551C78.1508 97.1551 79.3288 96.5209 80.0052 95.5782L80.7804 96.0668C79.8285 97.2547 78.5707 98.0019 76.8284 98.0019C73.8112 98 71.4096 95.7238 71.4096 92.39Z" fill="white"/>
<path d="M91.1772 97.8046V92.6487H84.3562V97.8046H83.4366V86.9563H84.3562V91.8037H91.1772V86.9563H92.1139V97.8046H91.1772Z" fill="white"/>
<path d="M0 81.3674V61.7784H7.8052C11.7078 61.7784 13.8928 64.4799 13.8928 67.6815C13.8928 70.8831 11.6508 73.5846 7.8052 73.5846H2.4168V81.3674H0ZM7.5145 63.953H2.4168V71.4119H7.5145C9.8154 71.4119 11.3886 69.8849 11.3886 67.6815C11.3867 65.48 9.8154 63.953 7.5145 63.953Z" fill="white"/>
<path d="M25.8742 61.4565C31.6122 61.4565 35.5148 65.8038 35.5148 71.5882C35.5148 77.3745 31.6122 81.7199 25.8742 81.7199C20.1077 81.7199 16.2336 77.3725 16.2336 71.5882C16.2355 65.8019 20.1077 61.4565 25.8742 61.4565ZM25.8742 63.6292C21.5061 63.6292 18.7397 67.0071 18.7397 71.5882C18.7397 76.1406 21.5061 79.5472 25.8742 79.5472C30.2138 79.5472 33.0087 76.1406 33.0087 71.5882C33.0106 67.0071 30.2138 63.6292 25.8742 63.6292Z" fill="white"/>
<path d="M38.4066 81.3674V61.7784H45.0471C51.0758 61.7784 55.0069 66.0376 55.0069 71.5882C55.0069 77.1675 51.0758 81.3674 45.0471 81.3674H38.4066ZM40.8234 79.1946H45.0471C49.7648 79.1946 52.5027 75.788 52.5027 71.5882C52.5027 67.3596 49.8522 63.953 45.0471 63.953H40.8234V79.1946Z" fill="white"/>
<path d="M69.844 81.3674L62.4758 72.5577L60.5245 74.7898V81.3693H58.1077V61.7784H60.5245V71.9101L69.1163 61.7784H72.1449L64.049 71.0881L72.8441 81.3674H69.844Z" fill="white"/>
<path d="M82.4733 61.4565C88.2113 61.4565 92.1139 65.8038 92.1139 71.5882C92.1139 77.3745 88.2113 81.7199 82.4733 81.7199C76.7068 81.7199 72.8327 77.3725 72.8327 71.5882C72.8346 65.8019 76.7068 61.4565 82.4733 61.4565ZM82.4733 63.6292C78.1052 63.6292 75.3388 67.0071 75.3388 71.5882C75.3388 76.1406 78.1052 79.5472 82.4733 79.5472C86.8129 79.5472 89.6078 76.1406 89.6078 71.5882C89.6097 67.0071 86.8129 63.6292 82.4733 63.6292Z" fill="white"/>
<path d="M95.3154 81.3674V61.7784H103.121C107.023 61.7784 109.208 64.4799 109.208 67.6815C109.208 70.8831 106.966 73.5846 103.121 73.5846H97.7322V81.3674H95.3154ZM102.83 63.953H97.7322V71.4119H102.83C105.131 71.4119 106.704 69.8849 106.704 67.6815C106.704 65.48 105.131 63.953 102.83 63.953Z" fill="white"/>
<path d="M124.788 81.3674L123.071 77.02H113.227L111.509 81.3674H108.83L116.635 61.7784H119.635L127.469 81.3674H124.788ZM118.148 63.953L113.924 74.8492H122.341L118.148 63.953Z" fill="white"/>
<path d="M130.583 81.3674V61.7784H133V81.3674H130.583Z" fill="white"/>
</g>
<defs>
<clipPath id="clip0_2_68">
<rect width="133" height="98" fill="white"/>
</clipPath>
</defs>
</svg>
