<svg width="100" height="73" viewBox="0 0 100 73" fill="none" xmlns="http://www.w3.org/2000/svg">
<path d="M50.035 0C39.1276 0 30.2856 8.90053 30.2856 19.8801C30.2856 30.8597 39.1276 39.7602 50.035 39.7602C60.9423 39.7602 69.7843 30.8597 69.7843 19.8801C69.7843 8.90053 60.9423 0 50.035 0Z" fill="black"/>
<path d="M47.3017 16.0178V12.3502H50.9466V10.5164H45.48V16.0178H47.3017Z" fill="white"/>
<path d="M43.6582 8.68266H52.7682V19.6853H54.5899V8.68266H58.2333V6.84888H41.8365V10.5164H36.3713V12.3502H43.6582V8.68266Z" fill="white"/>
<path d="M36.3715 25.1881V27.0219H43.6584V21.5206H36.3715V16.0178H43.6584V14.184H34.5483V23.3543H41.8366V25.1881H36.3715Z" fill="white"/>
<path d="M63.6985 12.3502V21.5206H61.8768V10.5164H56.4116V12.3502H60.0551V23.3471V23.3543H65.5216V12.3502H63.6985Z" fill="white"/>
<path d="M56.4118 21.5206H49.1235V23.3543H58.2335V14.184H56.4118V21.5206Z" fill="white"/>
<path d="M49.1235 30.6895H50.9467V27.0219H58.2335V25.1881H49.1235V30.6895Z" fill="white"/>
<path d="M50.9466 19.6853V14.184H49.1234V17.8516H38.1931V19.6853H45.48V28.8557H38.1931V30.6894H41.8365V34.357H43.6583V30.6894H47.3017H47.3074L47.3017 19.6853H50.9466Z" fill="white"/>
<path d="M28.8772 67.9624C28.8772 65.4558 30.6843 63.7429 32.9515 63.7429C34.2615 63.7429 35.2301 64.3177 35.9215 65.1864L35.3386 65.5653C34.8301 64.8565 33.9443 64.3797 32.9501 64.3797C31.0701 64.3797 29.6029 65.8347 29.6029 67.9624C29.6029 70.0657 31.0701 71.5452 32.9501 71.5452C33.9443 71.5452 34.8301 71.0683 35.3386 70.3595L35.9215 70.7269C35.2058 71.6201 34.2601 72.1819 32.9515 72.1819C30.6843 72.1804 28.8772 70.469 28.8772 67.9624Z" fill="black"/>
<path d="M40.8485 63.7429C43.2128 63.7429 44.7785 65.5768 44.7785 67.9624C44.7785 70.3466 43.2142 72.1819 40.8485 72.1819C38.4714 72.1819 36.9199 70.348 36.9199 67.9624C36.9199 65.5768 38.4714 63.7429 40.8485 63.7429ZM40.8485 64.3782C38.8842 64.3782 37.6471 65.8822 37.6471 67.961C37.6471 70.0152 38.8842 71.5437 40.8485 71.5437C42.7885 71.5437 44.0499 70.0152 44.0499 67.961C44.0499 65.8836 42.7885 64.3782 40.8485 64.3782Z" fill="black"/>
<path d="M52.1984 72.0335L51.387 70.0282H47.0812L46.2698 72.0335H45.4927L48.8041 63.8769H49.6655L52.977 72.0335H52.1984ZM49.2284 64.5626L47.2998 69.3929H51.1684L49.2284 64.5626Z" fill="black"/>
<path d="M53.6914 67.9624C53.6914 65.4558 55.4985 63.7429 57.7657 63.7429C59.0757 63.7429 60.0457 64.3177 60.7371 65.1864L60.1543 65.5653C59.6443 64.8565 58.76 64.3797 57.7657 64.3797C55.8857 64.3797 54.4185 65.8347 54.4185 67.9624C54.4185 70.0657 55.8857 71.5452 57.7657 71.5452C58.76 71.5452 59.6457 71.0683 60.1543 70.3595L60.7371 70.7269C60.0214 71.6201 59.0757 72.1819 57.7657 72.1819C55.4971 72.1804 53.6914 70.469 53.6914 67.9624Z" fill="black"/>
<path d="M68.5541 72.0335V68.1569H63.4256V72.0335H62.7341V63.8769H63.4256V67.5216H68.5541V63.8769H69.2584V72.0335H68.5541Z" fill="black"/>
<path d="M0 59.6747V44.9461H5.86857C8.80286 44.9461 10.4457 46.9774 10.4457 49.3846C10.4457 51.7918 8.76 53.823 5.86857 53.823H1.81714V59.6747H0ZM5.65 46.5812H1.81714V52.1894H5.65C7.38 52.1894 8.56286 51.0413 8.56286 49.3846C8.56143 47.7293 7.38 46.5812 5.65 46.5812Z" fill="black"/>
<path d="M19.4544 44.7041C23.7687 44.7041 26.703 47.9728 26.703 52.3219C26.703 56.6725 23.7687 59.9398 19.4544 59.9398C15.1187 59.9398 12.2058 56.6711 12.2058 52.3219C12.2072 47.9714 15.1187 44.7041 19.4544 44.7041ZM19.4544 46.3377C16.1701 46.3377 14.0901 48.8775 14.0901 52.3219C14.0901 55.7448 16.1701 58.3061 19.4544 58.3061C22.7172 58.3061 24.8187 55.7448 24.8187 52.3219C24.8201 48.8775 22.7172 46.3377 19.4544 46.3377Z" fill="black"/>
<path d="M28.877 59.6747V44.9461H33.8698C38.4027 44.9461 41.3584 48.1486 41.3584 52.3219C41.3584 56.5169 38.4027 59.6747 33.8698 59.6747H28.877ZM30.6941 58.0411H33.8698C37.417 58.0411 39.4755 55.4797 39.4755 52.3219C39.4755 49.1426 37.4827 46.5812 33.8698 46.5812H30.6941V58.0411Z" fill="black"/>
<path d="M52.5142 59.6747L46.9742 53.0509L45.5071 54.7292V59.6761H43.6899V44.9461H45.5071V52.564L51.9671 44.9461H54.2442L48.1571 51.946L54.7699 59.6747H52.5142Z" fill="black"/>
<path d="M62.01 44.7041C66.3243 44.7041 69.2586 47.9728 69.2586 52.3219C69.2586 56.6725 66.3243 59.9398 62.01 59.9398C57.6743 59.9398 54.7615 56.6711 54.7615 52.3219C54.7629 47.9714 57.6743 44.7041 62.01 44.7041ZM62.01 46.3377C58.7258 46.3377 56.6458 48.8775 56.6458 52.3219C56.6458 55.7448 58.7258 58.3061 62.01 58.3061C65.2729 58.3061 67.3743 55.7448 67.3743 52.3219C67.3758 48.8775 65.2729 46.3377 62.01 46.3377Z" fill="black"/>
<path d="M71.6658 59.6747V44.9461H77.5343C80.4686 44.9461 82.1115 46.9774 82.1115 49.3846C82.1115 51.7918 80.4258 53.823 77.5343 53.823H73.4829V59.6747H71.6658ZM77.3158 46.5812H73.4829V52.1894H77.3158C79.0458 52.1894 80.2286 51.0413 80.2286 49.3846C80.2286 47.7293 79.0458 46.5812 77.3158 46.5812Z" fill="black"/>
<path d="M93.8257 59.6747L92.5343 56.406H85.1329L83.8414 59.6747H81.8271L87.6957 44.9461H89.9514L95.8414 59.6747H93.8257ZM88.8329 46.5812L85.6571 54.7738H91.9857L88.8329 46.5812Z" fill="black"/>
<path d="M98.1829 59.6747V44.9461H100V59.6747H98.1829Z" fill="black"/>
</svg>
