<svg width="133" height="200" viewBox="0 0 133 200" fill="none" xmlns="http://www.w3.org/2000/svg">
<g clip-path="url(#clip0_744_3707)">
<path fill-rule="evenodd" clip-rule="evenodd" d="M136 197.44C169.932 197.44 197.44 169.932 197.44 136C197.44 102.068 169.932 74.56 136 74.56C102.068 74.56 74.56 102.068 74.56 136C74.56 169.932 102.068 197.44 136 197.44ZM136 200C171.346 200 200 171.346 200 136C200 100.654 171.346 72 136 72C100.654 72 72 100.654 72 136C72 171.346 100.654 200 136 200Z" fill="url(#paint0_linear_744_3707)"/>
<path fill-rule="evenodd" clip-rule="evenodd" d="M135.5 183.44C161.424 183.44 182.44 162.424 182.44 136.5C182.44 110.576 161.424 89.5599 135.5 89.5599C109.576 89.5599 88.5599 110.576 88.5599 136.5C88.5599 162.424 109.576 183.44 135.5 183.44ZM135.5 186C162.838 186 185 163.838 185 136.5C185 109.162 162.838 87 135.5 87C108.162 87 86 109.162 86 136.5C86 163.838 108.162 186 135.5 186Z" fill="url(#paint1_linear_744_3707)"/>
<path fill-rule="evenodd" clip-rule="evenodd" d="M128.448 129.49C137.522 129.49 144.795 137.293 143.93 146.526C143.21 153.613 137.449 158.981 130.536 160.126V166.712C130.536 167.427 129.96 168 129.24 168H122.759C122.04 168 121.464 167.428 121.464 166.712V160.27C114.839 159.841 109.51 154.759 108.862 148.245C108.789 147.529 109.437 146.885 110.158 146.885H116.638C117.214 146.885 117.718 147.243 117.862 147.815C118.294 149.819 120.095 151.323 122.255 151.323H128.016C131.401 151.323 134.497 148.961 134.857 145.596C135.289 141.803 132.265 138.51 128.448 138.51H124.199C116.134 138.51 108.861 132.64 108.069 124.623C107.277 116.105 113.397 108.876 121.463 107.802V101.288C121.463 100.573 122.039 100 122.759 100H129.24C129.96 100 130.536 100.572 130.536 101.288V107.73C137.161 108.159 142.49 113.241 143.138 119.755C143.21 120.471 142.562 121.115 141.842 121.115H135.361C134.785 121.115 134.281 120.757 134.137 120.185C133.705 118.181 131.905 116.677 129.744 116.677H123.983C120.599 116.677 117.502 119.039 117.142 122.404C116.71 126.197 119.735 129.49 123.551 129.49L128.448 129.49ZM127.374 132.038H123.551C118.236 132.038 113.992 127.455 114.594 122.126C115.119 117.266 119.508 114.129 123.983 114.129H129.744C132.729 114.129 135.285 115.963 136.315 118.567H140.344C139.251 114.013 135.256 110.59 130.369 110.273L127.972 110.118V102.548H124.027V110.032L121.803 110.328C115.075 111.223 109.962 117.255 110.621 124.381C111.274 130.945 117.303 135.962 124.199 135.962H128.448C133.763 135.962 138.007 140.545 137.405 145.874C136.88 150.734 132.491 153.871 128.016 153.871H122.255C119.27 153.871 116.714 152.037 115.684 149.433H111.655C112.748 153.987 116.743 157.41 121.63 157.727L124.027 157.882V165.452H127.973V157.968L130.115 157.613C136.032 156.633 140.785 152.076 141.379 146.28C142.097 138.543 136.007 132.039 128.448 132.039L127.374 132.038Z" fill="url(#paint2_linear_744_3707)"/>
</g>
<defs>
<linearGradient id="paint0_linear_744_3707" x1="72.0001" y1="136" x2="200" y2="136" gradientUnits="userSpaceOnUse">
<stop stop-color="#2E3192"/>
<stop offset="1" stop-color="#2484C6"/>
</linearGradient>
<linearGradient id="paint1_linear_744_3707" x1="86.0001" y1="136.5" x2="185" y2="136.5" gradientUnits="userSpaceOnUse">
<stop stop-color="#2E3192"/>
<stop offset="1" stop-color="#2484C6"/>
</linearGradient>
<linearGradient id="paint2_linear_744_3707" x1="108" y1="134" x2="144" y2="134" gradientUnits="userSpaceOnUse">
<stop stop-color="#2E3192"/>
<stop offset="1" stop-color="#2484C6"/>
</linearGradient>
<clipPath id="clip0_744_3707">
<rect width="133" height="200" fill="white"/>
</clipPath>
</defs>
</svg>
