<svg width="69" height="121" viewBox="0 0 69 121" fill="none" xmlns="http://www.w3.org/2000/svg">
<g clip-path="url(#clip0_744_3693)">
<path d="M47.2532 1.00052H47.1791C46.3101 1.00052 45.4701 1.36113 44.8498 1.99832L44.8467 2.00157C38.0321 8.939 32.5256 12.0227 26.653 12.825L26.6528 12.8251C20.8142 13.6216 14.1976 12.0688 5.53375 8.59224C3.36436 7.72351 0.997727 9.32628 1 11.6816L1 11.682C1.01732 41.2703 1.87847 62.3019 7.99114 79.2541L7.99116 79.2542C14.0683 96.1115 25.6423 108.492 45.5943 119.587C46.5904 120.138 47.8005 120.138 48.7967 119.588C68.7464 108.494 80.3233 96.1233 86.4007 79.2544C92.5114 62.2919 93.3794 41.2257 93.392 11.5982V11.5962C93.3979 9.2326 91.0187 7.62662 88.8453 8.5077C80.1877 12.0175 73.5761 13.5982 67.7413 12.8084L47.2532 1.00052ZM47.2532 1.00052C48.1226 1.01587 48.951 1.37159 49.5587 1.99713L49.5622 2.00075C56.3711 8.93846 61.8724 12.015 67.7412 12.8084L47.2532 1.00052Z" stroke="url(#paint0_linear_744_3693)" stroke-width="2"/>
<path d="M47.237 16.1254H47.1833C46.5955 16.1254 46.0233 16.3705 45.5985 16.809L45.5953 16.8122C40.4227 22.1026 36.2123 24.4854 31.6972 25.1052L31.697 25.1052C27.216 25.7194 22.163 24.5189 15.603 21.8743C14.1309 21.2822 12.5097 22.3718 12.5112 23.9983L12.5112 23.9987C12.5243 46.4809 13.1776 62.4154 17.7833 75.2475L17.7833 75.2476C22.3537 87.9845 31.0563 97.3483 46.1041 105.755C46.7832 106.133 47.6077 106.133 48.2867 105.756C63.3331 97.3502 72.038 87.9935 76.6087 75.2478C81.2128 62.4078 81.8713 46.447 81.8808 23.9351V23.933C81.8849 22.3009 80.255 21.2091 78.7801 21.8097C72.225 24.4796 67.1756 25.7016 62.697 25.0926L47.237 16.1254ZM47.237 16.1254C47.8282 16.1364 48.3918 16.3796 48.8059 16.8079L48.8094 16.8115C53.9777 22.1022 58.1844 24.4797 62.6968 25.0926L47.237 16.1254Z" stroke="url(#paint1_linear_744_3693)" stroke-width="2"/>
<path d="M47.7969 30.0867H47.7627C47.442 30.0867 47.1242 30.221 46.885 30.4688L46.8819 30.4721C43.2691 34.1813 40.29 35.8911 37.0646 36.3356L37.0644 36.3356C33.8734 36.7746 30.306 35.9126 25.7445 34.0666C24.9341 33.7395 24.0216 34.3378 24.0225 35.2638L24.0225 35.2642C24.0316 50.9245 24.4874 61.9656 27.6613 70.8424L27.6613 70.8425C30.8004 79.6241 36.7755 86.0923 47.1654 91.9193C47.543 92.1294 48.0006 92.1293 48.3781 91.9191C58.7663 86.0931 64.7426 79.63 67.8818 70.8427C71.0546 61.9604 71.5141 50.9009 71.5207 35.2199V35.2178C71.523 34.2887 70.6056 33.6892 69.7935 34.0212C65.2358 35.8846 61.6705 36.7623 58.4805 36.3269L47.7969 30.0867ZM47.7969 30.0867C48.1242 30.0936 48.4362 30.2289 48.6665 30.4679L48.67 30.4715C52.2799 34.181 55.2565 35.8873 58.4804 36.3268L47.7969 30.0867Z" stroke="url(#paint2_linear_744_3693)" stroke-width="2"/>
<path d="M47.3494 79.6091L47.8332 78.734C41.5387 75.2542 37.9666 71.4212 36.0893 66.2442L36.0893 66.2442C34.1772 60.9723 33.8947 54.3905 33.8892 44.9427L33.8892 44.9423C33.8889 44.6787 34.1582 44.4904 34.4124 44.5917C37.2157 45.7099 39.4726 46.2607 41.524 45.9825L41.5242 45.9825C43.6104 45.6991 45.5054 44.607 47.7477 42.3376L47.7509 42.3344C47.8252 42.2585 47.9211 42.2204 48.0128 42.2204H48.0291C48.1299 42.2233 48.223 42.2646 48.2903 42.3335L48.2903 42.3335L48.2938 42.3371C50.5345 44.6068 52.4282 45.6969 54.5137 45.9773C56.5654 46.2534 58.8218 45.6924 61.6225 44.5636C61.8775 44.4609 62.1479 44.6498 62.1472 44.914L62.1472 44.9161C62.1432 54.3762 61.8585 60.9692 59.947 66.2444C58.0698 71.4244 54.4974 75.2542 48.2044 78.7333C48.0885 78.7966 47.9469 78.7965 47.8311 78.7328L47.3494 79.6091ZM47.3494 79.6091C47.7655 79.8378 48.2709 79.8378 48.687 79.6091L49.0055 41.6346C48.7444 41.3675 48.3863 41.219 48.0131 41.2202L48.0128 41.2204C47.6451 41.2204 47.2938 41.3719 47.0364 41.6348C44.879 43.8182 43.1752 44.749 41.3896 44.9916C39.6036 45.2338 37.5473 44.7656 34.7824 43.6626C33.8748 43.3011 32.8882 43.9685 32.8892 44.9432C32.8947 54.3638 33.1678 61.1221 35.1492 66.5851C37.1303 72.0483 40.9052 76.0466 47.3494 79.6091Z" stroke="url(#paint3_linear_744_3693)" stroke-width="2"/>
</g>
<defs>
<linearGradient id="paint0_linear_744_3693" x1="6.71602e-05" y1="60.4996" x2="94.3923" y2="60.4996" gradientUnits="userSpaceOnUse">
<stop stop-color="#2E3192"/>
<stop offset="1" stop-color="#2484C6"/>
</linearGradient>
<linearGradient id="paint1_linear_744_3693" x1="11.5113" y1="61.0815" x2="82.881" y2="61.0815" gradientUnits="userSpaceOnUse">
<stop stop-color="#2E3192"/>
<stop offset="1" stop-color="#2484C6"/>
</linearGradient>
<linearGradient id="paint2_linear_744_3693" x1="23.0225" y1="61.0814" x2="72.5209" y2="61.0814" gradientUnits="userSpaceOnUse">
<stop stop-color="#2E3192"/>
<stop offset="1" stop-color="#2484C6"/>
</linearGradient>
<linearGradient id="paint3_linear_744_3693" x1="32.8892" y1="60.5003" x2="63.1473" y2="60.5003" gradientUnits="userSpaceOnUse">
<stop stop-color="#2E3192"/>
<stop offset="1" stop-color="#2484C6"/>
</linearGradient>
<clipPath id="clip0_744_3693">
<rect width="69" height="121" fill="white"/>
</clipPath>
</defs>
</svg>
