<svg width="133" height="200" viewBox="0 0 133 200" fill="none" xmlns="http://www.w3.org/2000/svg">
<g clip-path="url(#clip0_744_2855)">
<circle cx="100" cy="100" r="98" stroke="url(#paint0_linear_744_2855)" stroke-width="4"/>
<circle cx="99.4474" cy="100.553" r="75.3481" stroke="url(#paint1_linear_744_2855)" stroke-width="4"/>
<path d="M104.986 59.6483V61.5222L106.856 61.6441C116.201 62.2534 123.7 69.4392 124.651 78.6365C124.639 78.6463 124.627 78.654 124.616 78.6585C124.616 78.6589 124.615 78.6593 124.614 78.6596H114.534C113.62 74.6632 110.034 71.6928 105.751 71.6928H96.7622C90.6307 71.6928 84.7906 76.0088 84.1001 82.4636C83.2936 89.6242 88.9643 95.8058 96.0882 95.8058H102.889L102.889 95.806H103.729C116.705 95.806 127.13 107.035 125.896 120.354C124.87 130.465 116.668 138.255 106.658 139.924L104.987 140.202V141.896V152.234C104.987 152.24 104.986 152.244 104.986 152.246C104.986 152.248 104.985 152.248 104.985 152.249C104.985 152.249 104.984 152.25 104.983 152.252C104.983 152.252 104.982 152.253 104.982 152.253C104.981 152.253 104.98 152.254 104.98 152.254C104.98 152.254 104.98 152.254 104.979 152.254C104.979 152.254 104.978 152.255 104.977 152.255C104.976 152.255 104.972 152.256 104.965 152.256H94.8529C94.8512 152.256 94.8496 152.256 94.8483 152.256C94.8443 152.255 94.8418 152.255 94.8406 152.255C94.8389 152.254 94.8381 152.254 94.8378 152.254C94.8371 152.254 94.836 152.253 94.8347 152.252C94.8334 152.25 94.8328 152.249 94.8325 152.249C94.8324 152.248 94.8321 152.248 94.8317 152.246C94.8314 152.244 94.8308 152.24 94.8308 152.234V142.121V140.248L92.9609 140.126C83.6159 139.516 76.1175 132.331 75.1665 123.133C75.1782 123.123 75.1905 123.116 75.2006 123.111C75.2016 123.111 75.2024 123.111 75.2032 123.11H85.2828C86.1969 127.107 89.783 130.077 94.0658 130.077H103.055C109.186 130.077 115.026 125.761 115.717 119.307C116.524 112.146 110.853 105.964 103.729 105.964H97.0998C85.4273 105.964 75.0491 97.4198 73.922 85.9763C72.79 73.6973 81.5536 63.289 93.0955 61.7436L94.8301 61.5113V59.7613V49.5363C94.8301 49.5295 94.8307 49.5256 94.831 49.524C94.8314 49.5223 94.8317 49.5215 94.8318 49.5212C94.8321 49.5205 94.8328 49.5194 94.8341 49.5181C94.8354 49.5168 94.8364 49.5162 94.837 49.5159C94.8373 49.5158 94.8381 49.5155 94.8398 49.5151C94.8414 49.5148 94.8453 49.5142 94.8522 49.5142H104.964C104.971 49.5142 104.975 49.5148 104.976 49.5151C104.978 49.5155 104.979 49.5158 104.979 49.5159C104.98 49.5162 104.981 49.5168 104.982 49.5181C104.984 49.5194 104.984 49.5205 104.985 49.5211C104.985 49.5214 104.985 49.5222 104.985 49.5239C104.986 49.5255 104.986 49.5294 104.986 49.5363V59.6483Z" stroke="url(#paint2_linear_744_2855)" stroke-width="4"/>
</g>
<defs>
<linearGradient id="paint0_linear_744_2855" x1="0.000142301" y1="99.9994" x2="200.001" y2="99.9994" gradientUnits="userSpaceOnUse">
<stop stop-color="#2E3192"/>
<stop offset="1" stop-color="#2484C6"/>
</linearGradient>
<linearGradient id="paint1_linear_744_2855" x1="22.0995" y1="100.552" x2="176.796" y2="100.552" gradientUnits="userSpaceOnUse">
<stop stop-color="#2E3192"/>
<stop offset="1" stop-color="#2484C6"/>
</linearGradient>
<linearGradient id="paint2_linear_744_2855" x1="71.8233" y1="100.885" x2="127.995" y2="100.885" gradientUnits="userSpaceOnUse">
<stop stop-color="#2E3192"/>
<stop offset="1" stop-color="#2484C6"/>
</linearGradient>
<clipPath id="clip0_744_2855">
<rect width="133" height="200" fill="white"/>
</clipPath>
</defs>
</svg>
