<svg width="199" height="199" viewBox="0 0 199 199" fill="none" xmlns="http://www.w3.org/2000/svg">
<path d="M192.758 100.374L192.659 102.724C192.617 103.705 192.392 104.474 191.984 105.034C191.678 105.448 191.286 105.757 190.808 105.96C190.339 106.175 189.849 106.272 189.338 106.25C188.379 106.21 187.616 105.83 187.048 105.112C186.522 104.439 186.281 103.558 186.328 102.471L186.359 101.736L182.027 101.552L182.096 99.9213L192.758 100.374ZM191.187 101.941L187.861 101.8L187.83 102.535C187.801 103.217 187.929 103.74 188.212 104.105C188.506 104.469 188.909 104.663 189.42 104.684C189.602 104.692 189.773 104.673 189.935 104.626C190.097 104.59 190.271 104.507 190.458 104.376C190.656 104.257 190.814 104.05 190.933 103.756C191.063 103.462 191.137 103.097 191.156 102.66L191.187 101.941Z" fill="white"/>
<path d="M191.503 114.571L189.98 114.37L190.536 110.151L187.855 109.797L187.316 113.89L185.793 113.689L186.332 109.597L183.001 109.158L182.445 113.377L180.922 113.177L181.691 107.339L192.272 108.733L191.503 114.571Z" fill="white"/>
<path d="M188.631 124.842L186.764 124.396C187.732 123.739 188.34 122.892 188.588 121.854C188.872 120.661 188.73 119.651 188.159 118.824C187.747 118.21 187.171 117.749 186.433 117.442L185.215 122.546L183.721 122.19L184.95 117.038C184.092 116.911 183.296 117.055 182.56 117.472C181.627 117.984 181.02 118.826 180.74 119.998C180.495 121.025 180.672 122.054 181.27 123.085L179.387 122.636C179.076 121.641 179.043 120.63 179.288 119.602C179.633 118.16 180.402 117.05 181.597 116.271C182.899 115.409 184.339 115.165 185.916 115.542C187.576 115.938 188.798 116.816 189.581 118.176C190.255 119.346 190.408 120.704 190.039 122.25C189.784 123.319 189.315 124.183 188.631 124.842Z" fill="white"/>
<path d="M185.154 134.775L183.349 134.121C184.389 133.568 185.089 132.794 185.449 131.802C185.842 130.719 185.8 129.705 185.325 128.762C184.857 127.832 184.066 127.165 182.953 126.762C181.88 126.373 180.857 126.393 179.884 126.824C178.921 127.257 178.247 128.006 177.862 129.069C177.502 130.062 177.561 131.104 178.039 132.196L176.219 131.537C176.023 130.513 176.105 129.504 176.464 128.511C176.97 127.117 177.86 126.101 179.135 125.463C180.527 124.753 181.985 124.675 183.509 125.227C185.114 125.809 186.228 126.82 186.852 128.26C187.39 129.498 187.388 130.865 186.847 132.359C186.472 133.392 185.908 134.197 185.154 134.775Z" fill="white"/>
<path d="M180.865 141.595L181.918 139.385L173.671 135.454L174.374 133.981L182.62 137.912L183.674 135.702L185.06 136.363L182.251 142.256L180.865 141.595Z" fill="white"/>
<path d="M181.266 144.057L180.077 146.086C179.581 146.933 179.022 147.508 178.399 147.811C177.935 148.033 177.444 148.122 176.926 148.078C176.411 148.049 175.933 147.905 175.492 147.646C174.663 147.161 174.167 146.468 174.002 145.568C173.852 144.726 174.052 143.836 174.602 142.897L174.974 142.262L171.233 140.071L172.058 138.662L181.266 144.057ZM179.143 144.705L176.272 143.022L175.9 143.658C175.555 144.247 175.422 144.768 175.502 145.223C175.591 145.683 175.856 146.043 176.298 146.301C176.454 146.393 176.615 146.456 176.78 146.491C176.94 146.535 177.133 146.543 177.359 146.515C177.59 146.502 177.826 146.393 178.069 146.189C178.322 145.991 178.558 145.703 178.779 145.326L179.143 144.705Z" fill="white"/>
<path d="M163.89 150.979L166.627 151.608L169.336 147.94L167.958 145.47L169.004 144.055L174.934 155.039L162.844 152.394L163.89 150.979ZM170.173 149.394L168.252 151.993L172.102 152.868L170.173 149.394Z" fill="white"/>
<path d="M162.02 153.277L169.755 160.629L168.631 161.812L162.009 155.518L158.967 158.719L165.589 165.013L164.465 166.196L157.842 159.902L156.894 160.899L154.041 158.188L155.099 157.074L156.839 158.728L162.02 153.277Z" fill="white"/>
<path d="M161.624 168.766L160.397 169.842L153.36 161.819L154.587 160.743L161.624 168.766Z" fill="white"/>
<path d="M151.894 163.191L152.009 168.65C152.558 168.334 153.142 168.199 153.761 168.244C154.567 168.309 155.263 168.735 155.849 169.522C156.384 170.241 156.608 170.998 156.522 171.793C156.476 172.213 156.342 172.605 156.121 172.969C155.9 173.333 155.697 173.597 155.513 173.761C155.329 173.924 155.092 174.114 154.801 174.331L152.696 175.898L146.324 167.337L147.633 166.362L150.184 169.789L150.492 169.56L150.277 164.394L151.894 163.191ZM153.107 173.717L153.749 173.239C154.451 172.717 154.84 172.221 154.916 171.752C154.999 171.292 154.89 170.86 154.591 170.458C154.247 169.996 153.83 169.775 153.339 169.794C152.878 169.818 152.365 170.04 151.801 170.461L151.082 170.996L153.107 173.717Z" fill="white"/>
<path d="M126.815 188.572L124.55 189.204C123.604 189.468 122.803 189.492 122.145 189.277C121.656 189.115 121.241 188.837 120.899 188.446C120.55 188.067 120.306 187.631 120.169 187.138C119.911 186.213 120.035 185.37 120.542 184.608C121.02 183.899 121.783 183.398 122.831 183.106L123.539 182.908L122.374 178.732L123.946 178.293L126.815 188.572ZM124.839 187.562L123.944 184.356L123.235 184.554C122.577 184.738 122.119 185.021 121.861 185.403C121.605 185.796 121.546 186.239 121.683 186.732C121.732 186.906 121.804 187.064 121.898 187.203C121.982 187.346 122.115 187.486 122.298 187.623C122.473 187.774 122.718 187.86 123.035 187.883C123.354 187.916 123.724 187.873 124.145 187.755L124.839 187.562Z" fill="white"/>
<path d="M112.821 191.768L112.545 190.257L116.731 189.491L116.245 186.832L112.184 187.574L111.908 186.063L115.969 185.321L115.364 182.015L111.178 182.781L110.902 181.27L116.694 180.211L118.613 190.709L112.821 191.768Z" fill="white"/>
<path d="M102.287 192.188L102.132 190.275C103.057 190.991 104.051 191.307 105.114 191.22C106.337 191.121 107.253 190.672 107.862 189.874C108.318 189.291 108.577 188.601 108.641 187.804L103.41 188.228L103.286 186.697L108.565 186.269C108.42 185.414 108.036 184.701 107.412 184.131C106.636 183.402 105.647 183.087 104.446 183.184C103.393 183.27 102.469 183.757 101.675 184.645L101.518 182.715C102.368 182.111 103.319 181.767 104.372 181.681C105.849 181.561 107.144 181.948 108.254 182.843C109.478 183.814 110.156 185.107 110.287 186.723C110.425 188.424 109.969 189.858 108.919 191.024C108.015 192.028 106.772 192.595 105.188 192.723C104.093 192.812 103.126 192.634 102.287 192.188Z" fill="white"/>
<path d="M91.4026 191.931L91.4693 190.012C92.316 190.831 93.2671 191.259 94.3225 191.296C95.4738 191.336 96.4252 190.985 97.1768 190.242C97.9173 189.51 98.3081 188.553 98.3492 187.369C98.3889 186.229 98.0543 185.262 97.3454 184.469C96.6361 183.686 95.7165 183.275 94.5865 183.236C93.5312 183.2 92.5575 183.577 91.6655 184.367L91.7327 182.433C92.6467 181.931 93.6314 181.698 94.6867 181.735C96.1685 181.786 97.4094 182.32 98.4093 183.337C99.5129 184.443 100.037 185.806 99.9803 187.426C99.921 189.132 99.3023 190.503 98.1243 191.54C97.1113 192.433 95.8106 192.853 94.2223 192.797C93.1242 192.759 92.1844 192.47 91.4026 191.931Z" fill="white"/>
<path d="M83.6424 189.955L86.0694 190.275L87.2628 181.217L88.8808 181.43L87.6874 190.488L90.1145 190.808L89.9138 192.331L83.4418 191.478L83.6424 189.955Z" fill="white"/>
<path d="M81.4505 191.098L79.1527 190.596C78.194 190.386 77.4743 190.032 76.9936 189.534C76.6383 189.162 76.4013 188.722 76.2827 188.216C76.1514 187.718 76.1404 187.219 76.2497 186.718C76.4547 185.78 76.9597 185.094 77.7646 184.658C78.5187 184.255 79.4272 184.17 80.4901 184.402L81.2091 184.56L82.135 180.324L83.7294 180.672L81.4505 191.098ZM80.1773 189.28L80.8879 186.029L80.1689 185.872C79.502 185.726 78.9647 185.761 78.557 185.978C78.1471 186.205 77.8875 186.569 77.7781 187.069C77.7394 187.246 77.729 187.418 77.747 187.586C77.7545 187.751 77.8066 187.938 77.9034 188.144C77.9874 188.359 78.1639 188.551 78.4329 188.719C78.6996 188.897 79.0466 189.033 79.4739 189.126L80.1773 189.28Z" fill="white"/>
<path d="M69.4978 176.694L69.7363 179.493L74.0574 180.949L75.9871 178.881L77.6548 179.444L69.0129 188.451L67.83 176.132L69.4978 176.694ZM72.93 182.19L69.8673 181.158L70.2132 185.09L72.93 182.19Z" fill="white"/>
<path d="M66.773 175.641L62.1449 185.257L60.6743 184.55L64.6363 176.317L60.6572 174.402L56.6952 182.635L55.2247 181.927L59.1866 173.695L57.9468 173.098L59.6537 169.551L61.0377 170.217L59.9969 172.38L66.773 175.641Z" fill="white"/>
<path d="M51.9202 180.018L50.5212 179.177L56.0167 170.029L57.4157 170.869L51.9202 180.018Z" fill="white"/>
<path d="M54.3071 169.075L49.148 170.865C49.6177 171.291 49.9264 171.805 50.0741 172.407C50.2607 173.194 50.0697 173.987 49.5012 174.787C48.9821 175.517 48.3309 175.964 47.5476 176.127C47.1336 176.212 46.7195 176.206 46.3051 176.108C45.8907 176.009 45.5773 175.898 45.365 175.773C45.1527 175.648 44.8987 175.481 44.6031 175.271L42.4644 173.751L48.6472 165.052L49.9774 165.998L47.5024 169.48L47.8154 169.702L52.6639 167.907L54.3071 169.075ZM44.6659 173.47L45.318 173.934C46.0309 174.441 46.6222 174.658 47.092 174.586C47.5556 174.523 47.9327 174.287 48.2231 173.879C48.5568 173.409 48.6388 172.944 48.4691 172.483C48.3044 172.052 47.9352 171.633 47.3614 171.225L46.6311 170.706L44.6659 173.47Z" fill="white"/>
<path d="M22.5154 153.115L21.2094 151.158C20.6645 150.342 20.3919 149.588 20.3914 148.896C20.394 148.381 20.5283 147.9 20.7943 147.453C21.0455 147.003 21.384 146.636 21.8098 146.352C22.6082 145.819 23.4483 145.675 24.3301 145.92C25.1526 146.153 25.866 146.722 26.4701 147.627L26.8788 148.239L30.485 145.832L31.3911 147.189L22.5154 153.115ZM22.8601 150.922L25.6279 149.074L25.2193 148.462C24.8402 147.894 24.4288 147.547 23.9849 147.42C23.5322 147.299 23.0929 147.381 22.6671 147.665C22.5163 147.766 22.3892 147.883 22.2857 148.016C22.1763 148.14 22.0847 148.31 22.0109 148.526C21.9223 148.739 21.9165 149 21.9937 149.307C22.0619 149.621 22.2175 149.96 22.4603 150.323L22.8601 150.922Z" fill="white"/>
<path d="M15.1049 140.766L16.4553 140.034L18.4835 143.776L20.8607 142.487L18.8936 138.858L20.2439 138.126L22.2111 141.755L25.165 140.154L23.1369 136.412L24.4873 135.68L27.2931 140.857L17.9108 145.942L15.1049 140.766Z" fill="white"/>
<path d="M11.4105 130.779L13.1844 130.044C12.7858 131.144 12.7905 132.187 13.1987 133.173C13.6681 134.306 14.3763 135.04 15.3233 135.375C16.0177 135.63 16.7541 135.666 17.5323 135.482L15.5241 130.633L16.9432 130.046L18.9698 134.939C19.7394 134.539 20.2998 133.955 20.651 133.186C21.1068 132.224 21.1041 131.186 20.6428 130.072C20.2387 129.096 19.492 128.367 18.4025 127.883L20.1912 127.142C21.0268 127.766 21.6466 128.565 22.0507 129.541C22.6181 130.911 22.6464 132.261 22.1357 133.593C21.5869 135.055 20.5636 136.097 19.0657 136.717C17.4889 137.37 15.9845 137.376 14.5524 136.734C13.3195 136.182 12.399 135.172 11.7908 133.704C11.3704 132.689 11.2436 131.714 11.4105 130.779Z" fill="white"/>
<path d="M8.40915 120.757L10.2545 120.226C9.7374 121.285 9.62467 122.322 9.9163 123.337C10.2344 124.444 10.8627 125.24 11.8012 125.725C12.7264 126.203 13.758 126.278 14.896 125.951C15.9929 125.636 16.8088 125.019 17.3437 124.099C17.8683 123.183 17.9745 122.181 17.6623 121.094C17.3707 120.079 16.7108 119.27 15.6828 118.667L17.5436 118.132C18.3036 118.846 18.8294 119.71 19.121 120.725C19.5305 122.15 19.4065 123.495 18.7491 124.761C18.0391 126.152 16.9049 127.072 15.3467 127.52C13.7064 127.991 12.2109 127.827 10.8603 127.028C9.69736 126.341 8.89644 125.233 8.45753 123.706C8.15412 122.65 8.138 121.667 8.40915 120.757Z" fill="white"/>
<path d="M7.89728 112.888L8.34674 115.294L17.3274 113.617L17.6271 115.221L8.64638 116.898L9.09584 119.305L7.58595 119.587L6.38739 113.17L7.89728 112.888Z" fill="white"/>
<path d="M6.12893 111.206L5.89354 108.866C5.79533 107.889 5.90844 107.095 6.23287 106.484C6.47672 106.03 6.82093 105.669 7.26549 105.399C7.69837 105.12 8.16952 104.954 8.67895 104.903C9.63413 104.807 10.4436 105.074 11.1073 105.704C11.7243 106.296 12.0872 107.133 12.1961 108.216L12.2698 108.948L16.584 108.514L16.7474 110.138L6.12893 111.206ZM7.46205 109.432L10.7733 109.098L10.6997 108.366C10.6314 107.687 10.431 107.187 10.0986 106.867C9.7556 106.548 9.32938 106.414 8.81995 106.465C8.63953 106.483 8.47239 106.527 8.31853 106.596C8.1636 106.654 8.00287 106.761 7.83632 106.917C7.6581 107.064 7.53086 107.291 7.45462 107.599C7.36777 107.908 7.34623 108.28 7.38999 108.715L7.46205 109.432Z" fill="white"/>
<path d="M16.0993 94.8909L13.5106 95.981L13.4577 100.541L16.02 101.738L15.9997 103.498L4.76594 98.0559L16.1197 93.131L16.0993 94.8909ZM11.9296 99.851L11.9671 96.6192L8.33296 98.1612L11.9296 99.851Z" fill="white"/>
<path d="M16.2461 91.9672L5.67098 90.5325L5.89037 88.9153L14.9434 90.1435L15.5371 85.7676L6.48401 84.5394L6.7034 82.9222L15.7565 84.1504L15.9415 82.7869L19.8417 83.316L19.6352 84.838L17.257 84.5154L16.2461 91.9672Z" fill="white"/>
<path d="M7.41404 79.5215L7.77468 77.9298L18.1829 80.2881L17.8222 81.8798L7.41404 79.5215Z" fill="white"/>
<path d="M18.5362 78.3694L15.2339 74.0202C14.9752 74.5987 14.5824 75.0516 14.0557 75.3789C13.3654 75.8004 12.5519 75.865 11.6151 75.5727C10.7598 75.3057 10.1332 74.8253 9.73519 74.1312C9.5257 73.7641 9.40337 73.3684 9.36821 72.944C9.33304 72.5195 9.34182 72.1871 9.39454 71.9465C9.44726 71.706 9.52764 71.4126 9.63568 71.0664L10.4174 68.5615L20.6048 71.7407L20.1187 73.2986L16.0406 72.026L15.9262 72.3925L19.1368 76.445L18.5362 78.3694ZM11.3669 70.5675L11.1286 71.3311C10.868 72.1661 10.8447 72.7957 11.0587 73.2201C11.2625 73.6413 11.6037 73.9265 12.0822 74.0759C12.6321 74.2474 13.0998 74.1811 13.4852 73.8768C13.844 73.5865 14.1283 73.1053 14.338 72.4333L14.6049 71.5779L11.3669 70.5675Z" fill="white"/>
<path d="M24.0006 42.9203L25.4661 41.0806C26.0775 40.3131 26.7129 39.8237 27.3721 39.6124C27.8632 39.4581 28.3621 39.4396 28.8688 39.5568C29.3737 39.6591 29.8264 39.8697 30.2269 40.1887C30.9778 40.7868 31.3708 41.5432 31.4061 42.4576C31.4345 43.3122 31.1097 44.1649 30.4318 45.0159L29.9733 45.5916L33.3647 48.2932L32.3479 49.5697L24.0006 42.9203ZM26.1938 42.5809L28.7969 44.6545L29.2555 44.0788C29.6808 43.5449 29.8863 43.0472 29.8721 42.5858C29.8494 42.1177 29.6379 41.7242 29.2374 41.4052C29.0956 41.2922 28.9455 41.2067 28.7871 41.1487C28.6354 41.0824 28.4454 41.047 28.2172 41.0425C27.9872 41.0229 27.7375 41.0968 27.468 41.2639C27.1901 41.4244 26.9149 41.6757 26.6425 42.0177L26.1938 42.5809Z" fill="white"/>
<path d="M33.5501 32.0136L34.6596 33.0758L31.7165 36.1502L33.6698 38.02L36.5244 35.0382L37.6339 36.1004L34.7793 39.0822L37.2064 41.4057L40.1495 38.3314L41.2591 39.3936L37.1874 43.6468L29.4784 36.2669L33.5501 32.0136Z" fill="white"/>
<path d="M41.4635 25.7902L42.7137 27.2474C41.5439 27.2109 40.5543 27.5399 39.7447 28.2345C38.8137 29.0332 38.3363 29.9347 38.3125 30.9389C38.2862 31.6782 38.4814 32.3891 38.8982 33.0715L42.8813 29.6544L43.8814 30.8202L39.8619 34.2685C40.4812 34.8757 41.2108 35.2265 42.0508 35.321C43.1072 35.4547 44.0928 35.1292 45.0076 34.3444C45.809 33.6568 46.2703 32.72 46.3912 31.5341L47.6518 33.0034C47.319 33.9916 46.7519 34.8295 45.9504 35.5171C44.8251 36.4825 43.5504 36.9297 42.1261 36.8586C40.5653 36.7921 39.2571 36.1437 38.2014 34.9131C37.0902 33.6178 36.6169 32.1898 36.7817 30.6289C36.9222 29.2856 37.5956 28.0966 38.8019 27.0617C39.6357 26.3463 40.5229 25.9225 41.4635 25.7902Z" fill="white"/>
<path d="M50.1413 19.7208L51.219 21.3097C50.0521 21.1475 49.0316 21.3627 48.1577 21.9555C47.2043 22.6021 46.643 23.4468 46.4738 24.4895C46.3075 25.5175 46.5566 26.5214 47.2212 27.5012C47.8619 28.4458 48.7023 29.0293 49.7425 29.2518C50.7767 29.4654 51.7617 29.2549 52.6974 28.6202C53.5714 28.0275 54.1353 27.1487 54.3894 25.984L55.4761 27.5862C55.0339 28.5306 54.3759 29.2991 53.5019 29.8919C52.2749 30.7241 50.9578 31.0246 49.5507 30.7932C48.0073 30.5511 46.7806 29.7591 45.8706 28.4173C44.9126 27.0049 44.6035 25.5325 44.9433 24.0003C45.2346 22.6814 46.0378 21.5759 47.3532 20.6838C48.2624 20.0671 49.1918 19.7461 50.1413 19.7208Z" fill="white"/>
<path d="M57.4733 16.752L55.3254 17.9265L59.7087 25.9423L58.2768 26.7253L53.8935 18.7095L51.7457 19.884L51.0087 18.5363L56.7363 15.4043L57.4733 16.752Z" fill="white"/>
<path d="M58.5891 14.4883L60.7414 13.5399C61.6394 13.1441 62.4293 13.0058 63.1113 13.125C63.6179 13.2165 64.0683 13.4318 64.4625 13.7709C64.8622 14.096 65.1653 14.4928 65.3718 14.9614C65.7589 15.8398 65.7556 16.6922 65.3621 17.5184C64.9903 18.2883 64.3066 18.8927 63.311 19.3314L62.6375 19.6282L64.386 23.596L62.8926 24.2541L58.5891 14.4883ZM60.689 15.2065L62.031 18.2519L62.7045 17.9551C63.3292 17.6798 63.7424 17.3346 63.9441 16.9193C64.1415 16.4943 64.1369 16.0475 63.9304 15.579C63.8573 15.4131 63.7641 15.2677 63.6508 15.1427C63.5472 15.0135 63.3954 14.8939 63.1954 14.7839C63.0008 14.6598 62.7454 14.6092 62.4291 14.632C62.1085 14.6451 61.7481 14.7398 61.3479 14.9162L60.689 15.2065Z" fill="white"/>
<path d="M76.822 18.9989L74.9774 16.8805L70.6296 18.2553L70.2927 21.0636L68.6146 21.5942L70.2736 9.22232L78.5001 18.4683L76.822 18.9989ZM70.8073 16.5882L73.8889 15.6137L71.2883 12.6436L70.8073 16.5882Z" fill="white"/>
<path d="M79.6838 18.1941L77.7646 7.69605L79.37 7.40255L81.013 16.3896L85.357 15.5954L83.714 6.60837L85.3194 6.31487L86.9624 15.3019L88.316 15.0544L89.0238 18.9263L87.5129 19.2025L87.0812 16.8416L79.6838 18.1941Z" fill="white"/>
<path d="M89.3971 5.85578L91.0227 5.71121L91.9681 16.3413L90.3425 16.4858L89.3971 5.85578Z" fill="white"/>
<path d="M93.7558 16.0995L96.8721 11.6151C96.2419 11.5477 95.6899 11.3141 95.2159 10.9142C94.6017 10.388 94.289 9.63419 94.2776 8.65293C94.2672 7.75699 94.5306 7.01255 95.0678 6.41963C95.3522 6.10698 95.6908 5.86838 96.0836 5.70382C96.4764 5.53926 96.7953 5.44489 97.0404 5.42072C97.2854 5.39654 97.5893 5.38236 97.9519 5.37816L100.576 5.34777L100.699 16.0191L99.0675 16.038L99.018 11.7662L98.634 11.7707L95.7717 16.0761L93.7558 16.0995ZM98.9613 6.87057L98.1613 6.87983C97.2867 6.88996 96.6807 7.06233 96.3432 7.39692C96.0056 7.72085 95.8397 8.13347 95.8455 8.63477C95.8522 9.21073 96.0598 9.63502 96.4683 9.90764C96.8552 10.1592 97.4007 10.2809 98.1046 10.2727L99.0006 10.2623L98.9613 6.87057Z" fill="white"/>
<path d="M129.254 10.2996L131.456 11.1259C132.375 11.4707 133.037 11.924 133.441 12.4859C133.739 12.9054 133.911 13.3742 133.956 13.8923C134.014 14.4042 133.954 14.8998 133.774 15.3792C133.436 16.278 132.838 16.8852 131.979 17.2009C131.175 17.4916 130.264 17.4459 129.245 17.0637L128.556 16.8051L127.033 20.8647L125.505 20.2914L129.254 10.2996ZM130.254 12.2811L129.085 15.397L129.774 15.6555C130.413 15.8954 130.95 15.9373 131.384 15.7813C131.822 15.6154 132.131 15.2927 132.311 14.8133C132.375 14.6436 132.41 14.4744 132.416 14.3059C132.432 14.1411 132.408 13.9494 132.341 13.731C132.289 13.5062 132.142 13.2915 131.9 13.0867C131.661 12.8719 131.337 12.6877 130.928 12.534L130.254 12.2811Z" fill="white"/>
<path d="M142.242 15.8488L141.576 17.2328L137.741 15.3871L136.568 17.8236L140.288 19.6138L139.622 20.9979L135.902 19.2077L134.445 22.2353L138.28 24.081L137.614 25.465L132.308 22.9116L136.936 13.2953L142.242 15.8488Z" fill="white"/>
<path d="M151.249 21.8375L150.242 23.4724C149.921 22.3472 149.306 21.505 148.397 20.9456C147.353 20.3024 146.349 20.1225 145.385 20.4059C144.673 20.6062 144.055 21.0089 143.533 21.6139L148.001 24.3658L147.196 25.6737L142.686 22.8966C142.297 23.6715 142.185 24.4733 142.351 25.3021C142.546 26.349 143.156 27.1884 144.183 27.8205C145.082 28.3742 146.114 28.5279 147.281 28.2816L146.266 29.9301C145.223 29.9144 144.252 29.6297 143.353 29.0759C142.091 28.2985 141.276 27.2207 140.91 25.8425C140.497 24.3358 140.716 22.8921 141.566 21.5116C142.461 20.0584 143.677 19.1723 145.214 18.8535C146.536 18.5779 147.874 18.8568 149.227 19.6902C150.162 20.2663 150.837 20.9821 151.249 21.8375Z" fill="white"/>
<path d="M159.711 28.2977L158.525 29.8081C158.325 28.6471 157.809 27.7407 156.978 27.0888C156.072 26.3776 155.096 26.1002 154.052 26.2566C153.022 26.4112 152.141 26.9542 151.41 27.8856C150.706 28.7835 150.406 29.7617 150.511 30.8202C150.622 31.8704 151.123 32.7445 152.012 33.4425C152.843 34.0944 153.852 34.364 155.039 34.2513L153.843 35.7743C152.809 35.6407 151.877 35.248 151.046 34.596C149.88 33.6807 149.192 32.5177 148.984 31.1069C148.745 29.5632 149.126 28.1536 150.127 26.8781C151.18 25.5355 152.489 24.7927 154.052 24.6498C155.396 24.5256 156.694 24.9541 157.944 25.9353C158.809 26.6135 159.397 27.401 159.711 28.2977Z" fill="white"/>
<path d="M164.73 34.3497L162.956 32.6633L156.662 39.2857L155.479 38.1614L161.773 31.539L159.998 29.8526L161.057 28.7392L165.788 33.2364L164.73 34.3497Z" fill="white"/>
<path d="M167.135 34.6371L168.698 36.3941C169.351 37.1271 169.725 37.8364 169.821 38.522C169.89 39.0322 169.823 39.527 169.621 40.0063C169.435 40.4865 169.15 40.8969 168.768 41.2372C168.051 41.8755 167.238 42.1342 166.331 42.0134C165.484 41.8961 164.699 41.4311 163.976 40.6183L163.487 40.0685L160.248 42.9512L159.163 41.7321L167.135 34.6371ZM167.096 36.8561L164.61 39.0686L165.099 39.6184C165.553 40.1284 166.009 40.4156 166.466 40.4799C166.931 40.5372 167.355 40.3957 167.737 40.0553C167.873 39.9347 167.982 39.8014 168.066 39.6552C168.158 39.5169 168.225 39.3357 168.268 39.1116C168.326 38.8883 168.296 38.6297 168.177 38.3357C168.066 38.0345 167.866 37.7206 167.575 37.394L167.096 36.8561Z" fill="white"/>
<path d="M168.586 53.5876L170.037 51.1823L167.395 47.4655L164.619 48.0059L163.599 46.5714L175.884 44.3568L169.606 55.0221L168.586 53.5876ZM169.037 47.1234L170.909 49.7577L172.939 46.3717L169.037 47.1234Z" fill="white"/>
<path d="M170.001 55.7182L179.383 50.6326L180.161 52.0674L172.129 56.421L174.234 60.3034L182.266 55.9498L183.043 57.3845L175.011 61.7382L175.667 62.9479L172.207 64.8235L171.475 63.4731L173.585 62.3295L170.001 55.7182Z" fill="white"/>
<path d="M184.732 61.0975L185.374 62.5982L175.56 66.7922L174.919 65.2915L184.732 61.0975Z" fill="white"/>
<path d="M176.373 68.4942L181.6 70.0754C181.47 69.4552 181.522 68.8579 181.756 68.2837C182.067 67.5372 182.688 67.0072 183.618 66.6938C184.467 66.4076 185.256 66.4285 185.986 66.7566C186.371 66.9307 186.702 67.1792 186.98 67.5021C187.258 67.825 187.446 68.0992 187.544 68.3249C187.643 68.5506 187.75 68.8352 187.866 69.1789L188.704 71.6654L178.591 75.0744L178.07 73.5279L182.118 72.1633L181.996 71.7994L177.017 70.4045L176.373 68.4942ZM186.758 70.5994L186.502 69.8413C186.223 69.0124 185.872 68.4891 185.449 68.2713C185.037 68.05 184.594 68.0195 184.118 68.1796C183.573 68.3636 183.233 68.6919 183.1 69.1646C182.98 69.6103 183.032 70.1667 183.257 70.8338L183.543 71.6829L186.758 70.5994Z" fill="white"/>
</svg>
