<svg width="201" height="201" viewBox="0 0 201 201" fill="none" xmlns="http://www.w3.org/2000/svg">
<path d="M194.827 101.819L194.716 104.213C194.669 105.211 194.437 105.995 194.019 106.563C193.706 106.983 193.305 107.297 192.817 107.503C192.339 107.72 191.84 107.816 191.319 107.792C190.342 107.747 189.566 107.357 188.991 106.624C188.457 105.935 188.216 105.037 188.267 103.93L188.302 103.181L183.889 102.977L183.966 101.316L194.827 101.819ZM193.219 103.409L189.832 103.252L189.798 104.001C189.765 104.696 189.893 105.229 190.18 105.602C190.478 105.975 190.888 106.173 191.409 106.197C191.594 106.206 191.769 106.187 191.934 106.14C192.099 106.104 192.277 106.02 192.468 105.887C192.669 105.766 192.831 105.556 192.954 105.257C193.087 104.959 193.164 104.587 193.185 104.142L193.219 103.409Z" fill="white"/>
<path d="M193.308 117.374L191.761 117.133L192.427 112.849L189.704 112.426L189.059 116.582L187.513 116.342L188.158 112.186L184.776 111.661L184.111 115.946L182.564 115.706L183.484 109.778L194.228 111.446L193.308 117.374Z" fill="white"/>
<path d="M181.891 119.019L192.416 121.743L191.052 127.013L189.537 126.621L190.485 122.96L181.474 120.628L181.891 119.019Z" fill="white"/>
<path d="M177.44 132.843L184.253 135.517L179.664 125.836L190.24 129.987L189.633 131.534L182.789 128.849L187.378 138.529L176.832 134.391L177.44 132.843Z" fill="white"/>
<path d="M180.291 149.755L178.593 148.785C179.733 148.41 180.569 147.755 181.103 146.821C181.685 145.802 181.819 144.777 181.506 143.748C181.197 142.733 180.519 141.926 179.472 141.328C178.462 140.752 177.432 140.595 176.38 140.858C175.339 141.126 174.532 141.761 173.961 142.761C173.427 143.695 173.306 144.752 173.596 145.931L171.883 144.953C171.864 143.891 172.121 142.893 172.655 141.959C173.404 140.647 174.474 139.782 175.864 139.362C177.385 138.891 178.862 139.065 180.296 139.884C181.806 140.747 182.749 141.955 183.126 143.509C183.451 144.845 183.212 146.217 182.409 147.623C181.854 148.595 181.148 149.306 180.291 149.755Z" fill="white"/>
<path d="M173.711 157.488L175.178 155.471L167.651 149.996L168.629 148.652L176.156 154.127L177.623 152.11L178.889 153.03L174.976 158.409L173.711 157.488Z" fill="white"/>
<path d="M173.193 160.627L171.607 162.422C170.945 163.171 170.273 163.636 169.591 163.817C169.083 163.949 168.575 163.942 168.065 163.796C167.557 163.666 167.107 163.428 166.716 163.083C165.984 162.435 165.623 161.645 165.634 160.713C165.65 159.842 166.025 158.991 166.758 158.161L167.255 157.599L163.944 154.674L165.045 153.428L173.193 160.627ZM170.944 160.858L168.403 158.613L167.907 159.175C167.446 159.696 167.211 160.192 167.202 160.662C167.201 161.14 167.395 161.551 167.786 161.896C167.925 162.019 168.073 162.113 168.231 162.181C168.382 162.256 168.574 162.302 168.806 162.318C169.038 162.35 169.296 162.288 169.579 162.132C169.87 161.983 170.163 161.742 170.458 161.408L170.944 160.858Z" fill="white"/>
<path d="M153.958 164.602L156.56 165.795L160.018 162.694L159.153 159.945L160.488 158.748L164.14 170.929L152.623 165.799L153.958 164.602ZM160.553 164.316L158.102 166.514L161.762 168.179L160.553 164.316Z" fill="white"/>
<path d="M150.882 167.149L156.952 176.169L155.572 177.097L150.376 169.375L146.644 171.887L151.84 179.609L150.46 180.537L145.264 172.815L144.101 173.598L141.863 170.271L143.161 169.397L144.526 171.426L150.882 167.149Z" fill="white"/>
<path d="M134.704 176.632L137.877 183.227L141.101 173.011L146.028 183.248L144.53 183.969L141.342 177.345L138.118 187.561L133.205 177.353L134.704 176.632Z" fill="white"/>
<path d="M130.762 178.381L129.111 183.693C129.744 183.565 130.352 183.623 130.935 183.866C131.693 184.189 132.228 184.825 132.541 185.775C132.826 186.642 132.798 187.446 132.458 188.187C132.278 188.578 132.022 188.913 131.691 189.194C131.36 189.474 131.079 189.664 130.849 189.762C130.618 189.861 130.327 189.968 129.976 190.083L127.437 190.918L124.042 180.59L125.621 180.071L126.98 184.205L127.352 184.083L128.811 179.022L130.762 178.381ZM128.538 188.943L129.312 188.689C130.159 188.411 130.694 188.057 130.92 187.629C131.148 187.21 131.183 186.759 131.023 186.273C130.84 185.716 130.508 185.367 130.028 185.228C129.574 185.102 129.007 185.152 128.326 185.376L127.459 185.661L128.538 188.943Z" fill="white"/>
<path d="M99.3702 194.822L96.9763 194.721C95.9775 194.678 95.1932 194.449 94.6235 194.033C94.2017 193.722 93.887 193.322 93.6792 192.835C93.4602 192.358 93.3618 191.859 93.3839 191.338C93.4254 190.361 93.8119 189.583 94.5435 189.005C95.2297 188.469 96.1265 188.224 97.2339 188.271L97.9831 188.303L98.1705 183.889L99.8316 183.96L99.3702 194.822ZM97.7742 193.221L97.918 189.834L97.1689 189.802C96.4741 189.772 95.9411 189.902 95.5699 190.191C95.1982 190.49 95.0013 190.901 94.9792 191.422C94.9713 191.606 94.9911 191.781 95.0385 191.946C95.075 192.111 95.1599 192.289 95.2932 192.479C95.4152 192.68 95.6259 192.841 95.9252 192.963C96.2242 193.095 96.5962 193.171 97.0413 193.19L97.7742 193.221Z" fill="white"/>
<path d="M83.9821 193.37L84.2162 191.823L88.5032 192.472L88.9154 189.748L84.7573 189.119L84.9915 187.571L89.1495 188.201L89.6617 184.816L85.3747 184.167L85.6088 182.62L91.5397 183.518L89.913 194.267L83.9821 193.37Z" fill="white"/>
<path d="M82.2218 181.94L79.5377 192.476L74.262 191.132L74.6484 189.615L78.3129 190.549L80.6106 181.53L82.2218 181.94Z" fill="white"/>
<path d="M68.4586 177.563L65.8106 184.385L75.4736 179.761L71.3629 190.352L69.813 189.751L72.4728 182.897L62.8098 187.522L66.9087 176.961L68.4586 177.563Z" fill="white"/>
<path d="M51.6321 180.534L52.5895 178.828C52.9729 179.966 53.6337 180.798 54.5718 181.324C55.5952 181.899 56.6206 182.025 57.6479 181.705C58.6604 181.388 59.4619 180.704 60.0523 179.652C60.6214 178.639 60.7705 177.607 60.4996 176.558C60.2234 175.518 59.5831 174.716 58.5786 174.152C57.6405 173.626 56.5829 173.512 55.4058 173.811L56.3712 172.091C57.4331 172.064 58.4331 172.314 59.3712 172.84C60.6884 173.579 61.5619 174.643 61.9917 176.031C62.4738 177.547 62.3106 179.026 61.5021 180.466C60.6511 181.982 59.45 182.934 57.8989 183.322C56.5644 183.657 55.1911 183.429 53.7792 182.636C52.8032 182.088 52.0875 181.388 51.6321 180.534Z" fill="white"/>
<path d="M43.7923 173.922L45.8145 175.381L51.2619 167.835L52.61 168.808L47.1625 176.354L49.1846 177.814L48.2688 179.083L42.8765 175.191L43.7923 173.922Z" fill="white"/>
<path d="M40.6834 173.444L38.8819 171.864C38.1303 171.205 37.6629 170.535 37.4797 169.854C37.3463 169.346 37.3515 168.838 37.4952 168.328C37.6236 167.819 37.8597 167.368 38.2037 166.976C38.8485 166.241 39.6371 165.877 40.5694 165.886C41.4403 165.898 42.2925 166.269 43.1258 167L43.6895 167.495L46.6021 164.174L47.8521 165.27L40.6834 173.444ZM40.4437 171.196L42.6792 168.647L42.1155 168.152C41.5926 167.694 41.0961 167.46 40.6259 167.453C40.1485 167.453 39.7378 167.65 39.3939 168.042C39.2721 168.181 39.1778 168.329 39.1112 168.488C39.0364 168.639 38.9912 168.83 38.9756 169.062C38.9447 169.296 39.0078 169.553 39.1649 169.836C39.3148 170.126 39.5573 170.418 39.8922 170.712L40.4437 171.196Z" fill="white"/>
<path d="M36.6531 154.25L35.4702 156.855L38.5838 160.303L41.3289 159.427L42.5307 160.758L30.3631 164.455L35.4514 152.919L36.6531 154.25ZM36.9637 160.844L34.7568 158.4L33.1045 162.067L36.9637 160.844Z" fill="white"/>
<path d="M34.0929 151.198L25.0952 157.3L24.1619 155.924L31.8646 150.7L29.3393 146.977L21.6366 152.201L20.7034 150.825L28.4061 145.601L27.6192 144.441L30.9377 142.19L31.816 143.485L29.7926 144.857L34.0929 151.198Z" fill="white"/>
<path d="M24.5517 135.086L17.9688 138.284L28.197 141.469L17.9781 146.434L17.2516 144.939L23.8637 141.726L13.6356 138.541L23.8251 133.59L24.5517 135.086Z" fill="white"/>
<path d="M22.8012 131.237L17.4824 129.606C17.6127 130.239 17.5575 130.847 17.3167 131.431C16.9969 132.19 16.3627 132.728 15.4141 133.044C14.548 133.332 13.7439 133.307 13.0018 132.97C12.6101 132.792 12.2735 132.537 11.9918 132.207C11.7102 131.877 11.5196 131.597 11.42 131.367C11.3204 131.136 11.2123 130.846 11.0956 130.495L10.2513 127.959L20.5668 124.525L21.0919 126.103L16.9626 127.477L17.0862 127.848L22.1525 129.289L22.8012 131.237ZM12.2302 129.053L12.4876 129.826C12.769 130.671 13.1245 131.206 13.554 131.429C13.9731 131.656 14.425 131.689 14.9096 131.528C15.4663 131.343 15.8135 131.009 15.9512 130.528C16.075 130.075 16.0237 129.508 15.7972 128.827L15.5089 127.961L12.2302 129.053Z" fill="white"/>
<path d="M6.17365 99.9427L6.2661 97.5484C6.30467 96.5494 6.53074 95.7643 6.94428 95.193C7.25424 94.77 7.6525 94.4537 8.13909 94.2441C8.61523 94.0232 9.11391 93.9228 9.63512 93.943C10.6124 93.9807 11.3914 94.3642 11.9723 95.0935C12.5113 95.7777 12.7595 96.6736 12.7167 97.7811L12.6878 98.5304L17.1018 98.7008L17.0377 100.362L6.17365 99.9427ZM7.76886 98.3404L11.1567 98.4713L11.1857 97.722C11.2125 97.0271 11.0808 96.4946 10.7906 96.1245C10.4895 95.754 10.0784 95.5587 9.5572 95.5386C9.3726 95.5314 9.19782 95.5519 9.03284 95.5999C8.86829 95.637 8.69098 95.7226 8.50094 95.8566C8.30045 95.9794 8.14005 96.1907 8.01972 96.4905C7.88854 96.79 7.81435 97.1623 7.79716 97.6075L7.76886 98.3404Z" fill="white"/>
<path d="M7.50588 84.7563L9.05481 84.9785L8.43899 89.2703L11.1658 89.6616L11.7631 85.4988L13.312 85.7211L12.7147 89.8839L16.103 90.37L16.7188 86.0782L18.2678 86.3004L17.4158 92.238L6.65391 90.6938L7.50588 84.7563Z" fill="white"/>
<path d="M18.9646 82.6657L8.41887 80.0218L9.74284 74.741L11.2607 75.1216L10.341 78.7896L19.3689 81.0531L18.9646 82.6657Z" fill="white"/>
<path d="M23.161 69.1576L16.3185 66.5608L21.0156 76.1889L10.3937 72.1578L10.9836 70.6033L17.8566 73.2117L13.1595 63.5836L23.7509 67.6032L23.161 69.1576Z" fill="white"/>
<path d="M20.1058 52.2641L21.815 53.2152C20.679 53.6028 19.8495 54.2667 19.3264 55.2067C18.7557 56.2323 18.6326 57.2581 18.957 58.2842C19.2771 59.2956 19.9642 60.0945 21.0182 60.681C22.0342 61.2464 23.0664 61.3917 24.1147 61.1169C25.1534 60.8369 25.9529 60.1936 26.5129 59.1871C27.036 58.247 27.146 57.189 26.8428 56.013L28.5663 56.972C28.5972 58.0339 28.3511 59.0348 27.828 59.9748C27.0936 61.2947 26.0333 62.1721 24.6472 62.6071C23.1322 63.0947 21.6531 62.937 20.2098 62.1338C18.6905 61.2884 17.734 60.0909 17.3403 58.5412C17.0004 57.2079 17.224 55.8338 18.0113 54.419C18.5555 53.441 19.2537 52.7227 20.1058 52.2641Z" fill="white"/>
<path d="M26.7496 44.2405L25.2973 46.2679L32.8637 51.6878L31.8955 53.0394L24.3291 47.6195L22.8769 49.6469L21.6047 48.7357L25.4774 43.3292L26.7496 44.2405Z" fill="white"/>
<path d="M26.9636 41.4075L28.5304 39.5947C29.1841 38.8383 29.8508 38.366 30.5305 38.1778C31.0367 38.0408 31.5453 38.0423 32.0562 38.1823C32.5661 38.3069 33.0183 38.5398 33.413 38.8809C34.1529 39.5204 34.5222 40.3063 34.5207 41.2386C34.5148 42.1096 34.1495 42.9644 33.4247 43.803L32.9344 44.3703L36.2765 47.2587L35.1894 48.5166L26.9636 41.4075ZM29.21 41.1515L31.7752 43.3684L32.2655 42.8011C32.7202 42.2749 32.9497 41.7767 32.954 41.3064C32.9501 40.8291 32.7508 40.4199 32.3561 40.0788C32.2164 39.958 32.067 39.8649 31.9082 39.7994C31.7564 39.7257 31.5645 39.6819 31.3324 39.668C31.0991 39.6387 30.8419 39.7037 30.5607 39.8628C30.2713 40.0149 29.981 40.2595 29.6896 40.5965L29.21 41.1515Z" fill="white"/>
<path d="M46.3401 37.0187L43.7301 35.8453L40.2938 38.9714L41.1796 41.7133L39.8533 42.9198L36.1124 30.7658L47.6664 35.8121L46.3401 37.0187ZM39.7472 37.3532L42.1828 35.1375L38.5102 33.4985L39.7472 37.3532Z" fill="white"/>
<path d="M49.073 34.6394L42.9045 25.6866L44.2736 24.7433L49.5543 32.4076L53.2589 29.8551L47.9782 22.1909L49.3473 21.2476L54.628 28.9118L55.7823 28.1165L58.0573 31.4184L56.7688 32.3062L55.3816 30.2929L49.073 34.6394Z" fill="white"/>
<path d="M65.5945 24.7026L62.3718 18.1317L59.2243 28.3716L54.2215 18.1712L55.7142 17.4391L58.9513 24.0393L62.0988 13.7994L67.0872 23.9705L65.5945 24.7026Z" fill="white"/>
<path d="M69.3119 22.973L70.9228 17.6481C70.2909 17.7808 69.6825 17.7279 69.0975 17.4893C68.337 17.1723 67.7971 16.5401 67.4777 15.5928C67.1862 14.7278 67.2075 13.9236 67.5418 13.1802C67.7191 12.7879 67.9723 12.4502 68.3012 12.1674C68.6301 11.8845 68.9096 11.6928 69.1395 11.5924C69.3694 11.4919 69.6594 11.3827 70.0095 11.2647L72.5426 10.4108L76.0155 20.7133L74.44 21.2444L73.0498 17.1203L72.6791 17.2453L71.2581 22.317L69.3119 22.973ZM71.4566 12.3938L70.6843 12.6541C69.8399 12.9388 69.3067 13.2962 69.0848 13.7265C68.8594 14.1465 68.8283 14.5985 68.9915 15.0825C69.1789 15.6386 69.5134 15.9845 69.9949 16.1203C70.4489 16.2425 71.0158 16.189 71.6954 15.9599L72.5604 15.6684L71.4566 12.3938Z" fill="white"/>
<path d="M100.621 6.16949L103.015 6.2527C104.014 6.28742 104.8 6.51045 105.373 6.92179C105.797 7.23011 106.115 7.62716 106.327 8.11293C106.549 8.58821 106.652 9.0865 106.634 9.60778C106.6 10.5852 106.219 11.3657 105.492 11.9494C104.81 12.4911 103.915 12.7427 102.807 12.7042L102.058 12.6781L101.905 17.0928L100.243 17.035L100.621 6.16949ZM102.229 7.7585L102.111 11.1469L102.861 11.1729C103.556 11.1971 104.088 11.0633 104.457 10.7717C104.826 10.4692 105.02 10.0573 105.038 9.53602C105.044 9.3514 105.023 9.17669 104.974 9.0119C104.937 8.84749 104.85 8.67052 104.716 8.481C104.592 8.28098 104.38 8.1214 104.08 8.00223C103.78 7.8722 103.407 7.79945 102.962 7.78398L102.229 7.7585Z" fill="white"/>
<path d="M115.711 7.41981L115.494 8.96959L111.2 8.37024L110.819 11.0985L114.984 11.6798L114.768 13.2296L110.603 12.6483L110.13 16.0384L114.424 16.6378L114.208 18.1875L108.267 17.3584L109.77 6.59063L115.711 7.41981Z" fill="white"/>
<path d="M117.434 18.7612L119.998 8.19569L125.288 9.47946L124.919 11.0001L121.244 10.1084L119.05 19.1533L117.434 18.7612Z" fill="white"/>
<path d="M131.47 23.01L134.041 16.1578L124.431 20.891L128.422 10.254L129.979 10.8381L127.396 17.7208L137.006 12.9876L133.027 23.594L131.47 23.01Z" fill="white"/>
<path d="M148.428 19.9177L147.483 21.6304C147.091 20.4959 146.424 19.6688 145.482 19.1492C144.455 18.5823 143.429 18.463 142.404 18.7911C141.394 19.115 140.597 19.8051 140.015 20.8612C139.453 21.8793 139.311 22.912 139.59 23.9592C139.874 24.997 140.52 25.794 141.529 26.3504C142.471 26.87 143.529 26.9761 144.704 26.6686L143.751 28.3956C142.69 28.4304 141.688 28.188 140.746 27.6684C139.423 26.9388 138.542 25.8818 138.102 24.4973C137.609 22.9841 137.761 21.5044 138.559 20.0582C139.399 18.5358 140.593 17.5749 142.141 17.1755C143.473 16.8306 144.848 17.0491 146.265 17.8312C147.245 18.3718 147.966 19.0673 148.428 19.9177Z" fill="white"/>
<path d="M156.529 26.5666L154.496 25.1218L149.104 32.708L147.749 31.7447L153.141 24.1586L151.108 22.7137L152.015 21.4383L157.436 25.2912L156.529 26.5666Z" fill="white"/>
<path d="M159.353 26.7666L161.172 28.3267C161.931 28.9777 162.405 29.6426 162.596 30.3216C162.735 30.8273 162.735 31.3359 162.597 31.8474C162.474 32.3577 162.243 32.8108 161.903 33.2067C161.267 33.949 160.482 34.3211 159.55 34.323C158.679 34.3203 157.822 33.958 156.981 33.2363L156.412 32.7481L153.536 36.1007L152.274 35.0181L159.353 26.7666ZM159.617 29.012L157.41 31.5852L157.979 32.0734C158.507 32.5263 159.006 32.754 159.476 32.7565C159.953 32.7509 160.362 32.5501 160.702 32.1542C160.822 32.014 160.914 31.8643 160.979 31.7053C161.052 31.5532 161.096 31.3611 161.109 31.1289C161.137 30.8956 161.071 30.6386 160.911 30.358C160.758 30.0692 160.512 29.7797 160.174 29.4896L159.617 29.012Z" fill="white"/>
<path d="M163.834 46.155L164.998 43.5408L161.859 40.1159L159.121 41.0116L157.909 39.6897L170.05 35.9047L165.045 47.4769L163.834 46.155ZM163.475 39.5634L165.7 41.9909L167.326 38.3124L163.475 39.5634Z" fill="white"/>
<path d="M166.251 48.9364L175.181 42.7352L176.13 44.1009L168.485 49.4095L171.051 53.1048L178.696 47.7961L179.644 49.1617L171.999 54.4704L172.798 55.6218L169.505 57.9089L168.612 56.6236L170.621 55.229L166.251 48.9364Z" fill="white"/>
<path d="M175.998 64.942L182.545 61.6706L172.282 58.5992L182.444 53.5208L183.188 55.0081L176.612 58.2941L186.875 61.3655L176.741 66.4293L175.998 64.942Z" fill="white"/>
<path d="M177.95 69.1173L183.281 70.7081C183.146 70.0768 183.196 69.4682 183.433 68.8823C183.747 68.1206 184.377 67.5783 185.323 67.2554C186.187 66.9605 186.991 66.9789 187.736 67.3103C188.129 67.4862 188.468 67.7381 188.752 68.0659C189.036 68.3938 189.229 68.6725 189.33 68.902C189.431 69.1315 189.542 69.4211 189.661 69.7708L190.524 72.3007L180.235 75.8123L179.698 74.2389L183.817 72.8332L183.69 72.4629L178.613 71.061L177.95 69.1173ZM188.537 71.2221L188.274 70.4508C187.986 69.6075 187.627 69.0757 187.196 68.8554C186.775 68.6316 186.323 68.6022 185.839 68.7672C185.284 68.9567 184.939 69.2925 184.805 69.7745C184.685 70.229 184.74 70.7956 184.972 71.4744L185.267 72.3383L188.537 71.2221Z" fill="white"/>
</svg>
