<svg width="86" height="97" viewBox="0 0 86 97" fill="none" xmlns="http://www.w3.org/2000/svg">
<path d="M83.6952 0H2.3052C1.00195 0 0 1.00263 0 2.3052V74.1729C0 75.4762 1.00263 76.4781 2.3052 76.4781H28.4663L43 96.2242L57.5337 76.4781H83.6948C84.998 76.4781 86 75.4755 86 74.1729V2.3052C86 1.10261 84.9981 0 83.6948 0H83.6952ZM56.5318 43.6018L47.9116 34.9816V60.4411H38.0889V34.9816L29.3687 43.6018L22.4524 36.5856L36.7855 22.3523L42.9998 16.138L44.8037 17.9419L50.016 23.0529L63.5472 36.5841L56.5318 43.6018Z" fill="url(#paint0_linear_744_3544)"/>
<path d="M7 9V68.1037C7 69.2082 7.89543 70.1037 9 70.1037H32.4525C33.1509 70.1037 33.7987 70.4679 34.1614 71.0647L41.613 83.3212C42.3724 84.5703 44.1717 84.6092 44.9844 83.394L53.2785 70.9918C53.6497 70.4368 54.2733 70.1037 54.941 70.1037H77C78.1046 70.1037 79 69.2082 79 68.1037V9C79 7.89543 78.1046 7 77 7H9C7.89543 7 7 7.89543 7 9Z" stroke="black" stroke-width="3"/>
<defs>
<linearGradient id="paint0_linear_744_3544" x1="6.11893e-05" y1="48.1118" x2="86.0003" y2="48.1118" gradientUnits="userSpaceOnUse">
<stop stop-color="#2E3192"/>
<stop offset="1" stop-color="#2484C6"/>
</linearGradient>
</defs>
</svg>
