<svg width="91" height="91" viewBox="0 0 91 91" fill="none" xmlns="http://www.w3.org/2000/svg">
<path fill-rule="evenodd" clip-rule="evenodd" d="M45.5 9.16482C61.0197 9.16482 74.2623 18.8962 79.4714 32.5872H45.5895C43.0238 32.5544 40.4608 33.3343 38.3302 34.7592V9.87376C40.6483 9.40929 43.0462 9.16448 45.5007 9.16448L45.5 9.16482ZM45.5 0C70.6289 0 91 20.3728 91 45.5C91 70.6272 70.6272 91 45.5 91C20.3728 91 0 70.6272 0 45.5C0 20.3728 20.3728 0 45.5 0ZM45.5 5.74207C23.5424 5.74207 5.741 23.5427 5.741 45.5011C5.741 67.4605 23.5417 85.2601 45.5 85.2601C67.4594 85.2601 85.259 67.4608 85.259 45.5011C85.259 23.5435 67.4598 5.74207 45.5 5.74207ZM32.5874 45.4115C32.5545 47.978 33.3345 50.5403 34.7594 52.6709H9.87394C9.40947 50.3528 9.16466 47.9556 9.16466 45.5004C9.16466 29.9807 18.8961 16.7381 32.5871 11.5307L32.5874 45.4115ZM45.4112 58.4129C47.9776 58.4458 50.5399 57.6666 52.6705 56.2417V81.1271C50.3524 81.5916 47.9552 81.8357 45.5 81.8357C29.9803 81.8357 16.7377 72.1043 11.5303 58.4133L45.4112 58.4129ZM58.4133 45.5004C58.4133 42.8473 57.6124 40.3814 56.2414 38.3298H81.1268C81.5912 40.6479 81.8354 43.0458 81.8354 45.5004C81.8354 61.02 72.104 74.2626 58.4129 79.4718L58.4143 45.5004H58.4133Z" fill="url(#paint0_linear_744_3540)"/>
<defs>
<linearGradient id="paint0_linear_744_3540" x1="6.47468e-05" y1="45.4997" x2="91.0003" y2="45.4997" gradientUnits="userSpaceOnUse">
<stop stop-color="#2E3192"/>
<stop offset="1" stop-color="#2484C6"/>
</linearGradient>
</defs>
</svg>
