<svg width="94" height="94" viewBox="0 0 94 94" fill="none" xmlns="http://www.w3.org/2000/svg">
<path d="M40.1217 0V9.78007C34.7771 10.7612 29.8481 12.8963 25.5422 15.87L18.8429 9.17067L9.17067 18.8429L15.87 25.5422C12.8963 29.8481 10.7588 34.7753 9.78007 40.1217H0V53.8783H9.78007C10.7588 59.2245 12.8963 64.1519 15.87 68.4578L9.17067 75.1571L18.8429 84.8293L25.5422 78.13C29.8481 81.1037 34.7769 83.2388 40.1217 84.2199V94H53.8783V84.2199C59.2229 83.2388 64.1519 81.1037 68.4578 78.13L75.1571 84.8293L84.8293 75.1571L78.13 68.4578C81.1037 64.1519 83.2412 59.2247 84.2199 53.8783H94V40.1217H84.2199C83.2412 34.7755 81.1037 29.8481 78.13 25.5422L84.8293 18.8429L75.1571 9.17067L68.4578 15.87C64.1519 12.8963 59.2231 10.7612 53.8783 9.78007V0H40.1217ZM47.0001 18.3418C62.8277 18.3418 75.6584 31.1725 75.6584 47.0001C75.6584 62.8277 62.8277 75.6584 47.0001 75.6584C31.1725 75.6584 18.3418 62.8277 18.3418 47.0001C18.3418 31.1725 31.1725 18.3418 47.0001 18.3418ZM47.0001 20.6342C32.439 20.6342 20.6344 32.439 20.6344 46.9999C20.6344 61.5608 32.4392 73.3656 47.0001 73.3656C61.561 73.3656 73.3658 61.5608 73.3658 46.9999C73.3658 32.439 61.561 20.6342 47.0001 20.6342ZM59.7533 33.2443L64.1951 37.6501L42.0217 60.7569L29.8059 50.8696L33.137 45.3531L42.0215 54.1657L59.7533 33.2443Z" fill="url(#paint0_linear_744_3553)"/>
<defs>
<linearGradient id="paint0_linear_744_3553" x1="6.68813e-05" y1="46.9997" x2="94.0003" y2="46.9997" gradientUnits="userSpaceOnUse">
<stop stop-color="#2E3192"/>
<stop offset="1" stop-color="#2484C6"/>
</linearGradient>
</defs>
</svg>
