<svg width="88" height="102" viewBox="0 0 88 102" fill="none" xmlns="http://www.w3.org/2000/svg">
<path d="M27.7277 41.0294H25.8246C26.0363 43.6731 26.6707 46.3169 27.9394 48.7489L29.5254 47.7973C30.266 47.3747 31.2175 47.5856 31.5348 48.3262L31.7465 48.7489C32.1692 49.4895 31.9582 50.4411 31.2176 50.7583L29.6317 51.7099C36.1879 61.2277 48.9838 64.1887 59.03 58.3723C61.8854 56.6801 64.2119 54.4598 66.0096 51.816L64.4237 50.8645C63.6831 50.4418 63.4721 49.4895 63.8948 48.855L64.1065 48.4324C64.5292 47.6918 65.4815 47.4808 66.1159 47.9035L67.7018 48.855C68.8651 46.423 69.605 43.7793 69.8166 41.1355H67.9128C67.0667 41.1355 66.4323 40.5011 66.4323 39.6551V39.2324C66.4323 38.3863 67.0667 37.7519 67.9128 37.7519H69.8159C69.6042 35.1082 68.9698 32.4645 67.7011 30.0324L66.1152 30.984C65.3745 31.4067 64.423 31.1957 64.1057 30.4551L63.7885 29.82C63.3659 29.0794 63.5768 28.1278 64.3174 27.8106L65.9034 26.859C64.3174 24.5325 62.4136 22.6294 60.1933 21.1489L59.2417 22.7348C58.819 23.4754 57.8668 23.6864 57.2323 23.2637L56.8096 23.052C56.069 22.6294 55.858 21.6771 56.2807 21.0426L57.2323 19.4567C54.8002 18.2934 52.1565 17.5536 49.5128 17.3419L49.512 19.245C49.512 20.0911 48.8777 20.7254 48.0316 20.7254H47.6089C46.7628 20.7254 46.1285 20.0911 46.1285 19.245V17.3419C43.4847 17.5536 40.841 18.188 38.409 19.4567L39.3605 21.0426C39.7832 21.7832 39.5722 22.7348 38.8316 23.052L38.3027 23.3692C37.5621 23.7919 36.6106 23.5809 36.2933 22.8403L35.3417 21.2544C33.0152 22.8403 31.1121 24.7441 29.6316 26.9645L31.2176 27.916C31.9582 28.3387 32.1692 29.291 31.7465 29.9255L31.5348 30.3482C31.1121 31.0888 30.1598 31.2997 29.5253 30.877L27.9394 29.82C26.7761 32.252 26.0363 34.8958 25.8246 37.5395H27.7277C28.5738 37.5395 29.2082 38.1739 29.2082 39.02V39.4426C29.2082 40.3949 28.5738 41.0294 27.7277 41.0294ZM45.5996 35.6364C46.7628 34.8958 48.2433 34.8958 49.4065 35.3192L58.2893 31.0896C59.1354 30.6669 60.0869 30.9841 60.6158 31.724C61.0384 32.4646 60.8275 33.5216 60.0869 34.0504L52.1557 39.7605C52.0502 41.0293 51.3096 42.2987 50.0409 43.0386C48.0315 44.3073 45.2824 43.5675 44.1191 41.5581C42.9558 39.4433 43.5902 36.7996 45.5996 35.6364ZM46.0222 38.809C46.2339 37.7512 47.291 37.2231 48.3487 37.4341C49.4065 37.6458 49.9347 38.7028 49.7237 39.7606C49.512 40.8183 48.4549 41.3465 47.3972 41.1355C46.3394 40.9238 45.705 39.866 46.0222 38.809ZM8.69273 36.6935L8.58725 37.7513C8.58725 41.3466 7.21228 46.8457 5.62627 50.0184C3.93411 53.2964 2.13654 56.5747 0.550491 58.9011C-0.929962 61.1222 0.762197 64.1886 3.40591 64.1886H8.58781V83.012C8.58781 86.819 11.6542 89.8853 15.4611 89.8853H26.2478V99.4024C26.2478 101.2 28.0454 102.469 29.7375 101.834L75.9096 101.074C77.4956 100.545 77.6419 84.3852 77.6419 82.693L77.6412 65.0344C83.8802 57.8438 87.4755 48.4314 87.2646 38.1741C86.6302 18.1875 70.6615 1.47908 50.7811 0.104336C28.5737 -1.48234 10.0675 15.226 8.69273 36.6935ZM33.3323 14.5919C46.9736 6.55512 64.6341 11.2075 72.6711 24.8496C80.7078 38.4908 76.0554 56.1513 62.4134 64.1883C48.7721 72.2251 31.1116 67.5727 23.0746 53.9306C15.0379 40.183 19.691 22.6288 33.3323 14.5919Z" fill="url(#paint0_linear_744_3549)"/>
<defs>
<linearGradient id="paint0_linear_744_3549" x1="6.20953e-05" y1="50.9997" x2="87.2736" y2="50.9997" gradientUnits="userSpaceOnUse">
<stop stop-color="#2E3192"/>
<stop offset="1" stop-color="#2484C6"/>
</linearGradient>
</defs>
</svg>
