<svg width="71" height="71" viewBox="0 0 71 71" fill="none" xmlns="http://www.w3.org/2000/svg">
<circle cx="35.5" cy="35.5" r="35.5" fill="url(#paint0_linear_745_4057)"/>
<path d="M16.5971 36.1648L24.7587 39.2081L27.9404 49.4447C28.0787 50.1363 28.9087 50.2746 29.462 49.8597L34.027 46.1247C34.4419 45.7097 35.1336 45.7097 35.687 46.1247L43.8485 52.073C44.4019 52.488 45.2319 52.2113 45.3702 51.5196L51.4568 22.4699C51.5951 21.7782 50.9035 21.0866 50.2118 21.3632L16.5971 34.3665C15.7671 34.6431 15.7671 35.8881 16.5971 36.1648ZM27.5254 37.6864L43.5719 27.8648C43.8485 27.7265 44.1252 28.1415 43.8485 28.2798L30.707 40.5914C30.292 41.0064 29.877 41.5597 29.877 42.2514L29.462 45.5714C29.462 45.9864 28.7703 46.1247 28.632 45.5714L26.972 39.4847C26.557 38.7931 26.8337 37.9631 27.5254 37.6864Z" fill="white"/>
<defs>
<linearGradient id="paint0_linear_745_4057" x1="5.05167e-05" y1="35.4998" x2="71.0002" y2="35.4998" gradientUnits="userSpaceOnUse">
<stop stop-color="#2E3192"/>
<stop offset="1" stop-color="#2484C6"/>
</linearGradient>
</defs>
</svg>
