<svg width="43" height="37" viewBox="0 0 43 37" fill="none" xmlns="http://www.w3.org/2000/svg">
<path d="M41.2925 1.06935L41.288 1.07035L1.41664 9.81691C1.41619 9.81701 1.41573 9.81711 1.41528 9.81721C1.28761 9.84632 1.19794 9.9478 1.17905 10.0578L1.1789 10.0587C1.16104 10.1621 1.2117 10.2875 1.32065 10.3539C1.32066 10.3539 1.32068 10.3539 1.32069 10.354L15.2406 18.8142L15.6246 19.0476L15.705 19.4897L18.6215 35.5173C18.6447 35.6436 18.7375 35.7318 18.8425 35.7541L18.8598 35.7573C18.9783 35.7793 19.0969 35.7265 19.1585 35.6323L19.16 35.6301L41.5962 1.52997C41.5966 1.52933 41.597 1.52868 41.5975 1.52803C41.6677 1.41805 41.6627 1.2899 41.5959 1.19275L41.5958 1.19276L41.5915 1.18629C41.5275 1.09162 41.4092 1.0432 41.2925 1.06935Z" stroke="url(#paint0_linear_850_7)" stroke-width="2"/>
<defs>
<linearGradient id="paint0_linear_850_7" x1="39.2028" y1="20.0908" x2="-0.340354" y2="12.7712" gradientUnits="userSpaceOnUse">
<stop stop-color="#2E3192"/>
<stop offset="1" stop-color="#2484C6"/>
</linearGradient>
</defs>
</svg>
