<svg width="49" height="42" viewBox="0 0 49 42" fill="none" xmlns="http://www.w3.org/2000/svg">
<path d="M46.8249 0.706836L46.8271 0.706337C47.2048 0.62165 47.5949 0.776612 47.8098 1.09449L47.812 1.09772L47.812 1.09771C48.0318 1.41736 48.0349 1.8325 47.8226 2.16116C47.8223 2.16159 47.822 2.16202 47.8218 2.16245L22.7135 40.3237L22.7128 40.3248C22.5057 40.6414 22.123 40.8039 21.7479 40.7345L21.7228 40.7299C21.3479 40.6547 21.0556 40.353 20.9851 39.9692L46.8249 0.706836ZM46.8249 0.706836L2.20682 10.4947C2.2065 10.4947 2.20619 10.4948 2.20588 10.4949C1.82278 10.5809 1.5304 10.8879 1.46587 11.2635L1.46579 11.264C1.40155 11.6361 1.57865 12.0247 1.91199 12.2281C1.91204 12.2281 1.91208 12.2282 1.91213 12.2282L17.4891 21.6956L17.6811 21.8123L17.7214 22.0333L20.985 39.9687L46.8249 0.706836Z" stroke="white"/>
</svg>
